<svg viewBox="0 0 859 241" fill="none" xmlns="http://www.w3.org/2000/svg">
<g clip-path="url(#clip0_986_6971)">
<g opacity="0.9">
<path d="M808.878 181.478C808.693 180.795 810.386 180.027 811.026 179.557C812.605 178.419 814.839 177.537 816.745 176.584C822.826 178.771 898.69 132.233 896.249 125.507C899.607 123.828 902.054 121.765 905.127 119.915C907.83 118.279 910.334 116.515 913.137 114.936C914.759 114.025 916.538 113.243 918.16 112.332C920.194 111.194 921.973 109.885 923.979 108.732C925.231 108.021 926.682 107.509 927.863 106.741C929.058 105.958 930.324 105.232 931.676 104.549C932.629 104.066 933.554 103.511 934.55 103.084C935.361 102.728 936.143 102.529 936.812 102.088C938.306 101.106 940.042 100.338 941.663 99.4133C942.645 98.8584 943.556 98.3889 944.694 97.9621C945.064 97.8198 945.377 97.6206 945.747 97.4784C946.06 97.3645 946.444 97.3076 946.743 97.1938C946.942 97.1227 946.985 96.8666 947.241 96.8097C949.019 96.3544 952.064 98.204 953.159 98.7731C955.592 100.025 957.741 101.362 960.373 102.486C962.706 103.482 964.997 104.521 967.302 105.545C971.257 107.295 975.198 109.045 979.21 110.753C981.444 111.706 983.464 112.844 985.726 113.769C988.06 114.722 990.236 115.832 992.356 116.956C995.259 118.507 998.133 120.015 1000.96 121.608C1003.34 122.96 1005.84 124.368 1008.43 125.564C1011.89 127.171 1015.55 128.594 1018.86 130.301C1021.98 131.909 1025.12 132.763 1029.18 133.289C1030.73 133.488 1032.26 133.659 1033.77 133.986C1034.58 134.157 1035.39 134.413 1036.23 134.499C1037.33 134.598 1038.25 134.698 1039.32 134.854C1041.09 135.125 1042.86 136.433 1044.19 137.131C1046.15 138.155 1048.07 139.165 1050.43 139.834C1051.66 140.175 1052.85 140.389 1053.95 140.872C1054.69 141.2 1055.4 141.513 1056.25 141.726C1057.72 142.096 1059.04 142.238 1060.63 142.267C1062.17 142.281 1063.66 142.139 1065.2 142.153C1066.43 142.153 1067.72 141.925 1068.91 141.996C1069.98 142.053 1070.55 142.437 1071.29 142.893C1072.71 143.761 1074.15 144.629 1075.63 145.454C1077.66 146.592 1080.04 147.36 1082.57 147.958C1084.12 148.328 1085.72 148.641 1087.37 148.797C1089.84 149.025 1092.48 149.039 1094.94 148.797C1096.39 148.641 1097.83 148.385 1099.29 148.214C1101.79 147.929 1104.33 147.83 1106.85 147.574C1108.91 147.374 1110.99 147.218 1113.08 147.133C1114.97 147.061 1116.86 147.673 1118.58 148.114C1121 148.726 1123.09 148.968 1125.73 148.826C1129 148.655 1132.11 148.242 1135.44 148.328C1138.37 148.399 1141.53 148.385 1144.43 148.683C1147.31 148.982 1150.15 149.637 1152.89 150.263C1156.6 151.102 1160.13 152.24 1163.96 152.881C1167.11 153.407 1170.14 153.663 1173.39 153.734C1179.48 153.891 1185.79 154.517 1191.71 155.513C1194.86 156.053 1197.99 156.765 1201.23 156.964C1203.61 157.106 1206.01 157.021 1208.37 157.32C1210.42 157.59 1212.46 158.315 1214.51 158.444C1216.14 158.543 1218.02 158.358 1219.6 158.657C1219.53 158.856 1215.77 159.752 1215.52 159.838C1210.82 161.261 1205.22 161.602 1200.19 162.385C1190.49 163.893 1181.43 166.411 1171.71 167.919C1167.23 168.559 1162.82 169.356 1158.49 170.295C1152.43 171.931 1146.3 173.468 1140.1 174.933C1133.89 176 1127.67 177.053 1121.46 178.078C1118.4 178.775 1115.35 179.472 1112.29 180.169C1106.73 181.706 1100.88 182.716 1094.77 183.214C1088.04 183.683 1081.41 184.395 1074.86 185.362C1071.66 185.817 1068.45 186.258 1065.23 186.714C1058.26 187.397 1051.24 187.382 1044.19 186.671C1037.63 186.13 866.257 217.232 860.41 215.482C855.074 213.96 849.824 212.352 844.646 210.63C842.568 209.791 840.491 208.966 838.414 208.126C834.743 206.277 831.257 204.313 827.985 202.208C823.916 199.775 819.904 197.413 816.447 194.653C814.882 193.315 813.274 191.978 811.652 190.669C810.571 189.858 809.987 188.947 809.902 187.937C809.703 186.515 810.016 185.035 808.863 181.506L808.878 181.478Z" fill="#EEEEEF"/>
<path d="M488.667 179.136C483.636 179.175 479.503 177.802 475.174 176.351C468.622 174.193 462.071 171.879 456.026 169.25C445.614 164.739 435.085 160.189 425.101 155.325C417.146 151.442 409.152 147.637 401.235 143.714C392.617 139.477 383.569 135.672 374.912 131.475C369.842 129.004 365.358 126.336 360.366 123.826C353.541 120.374 346.054 117.51 338.917 114.333C332.522 111.469 327.608 107.821 320.823 105.232C315.714 103.271 311.619 100.368 307.447 97.7401C303.157 95.0727 297.97 92.7974 293.057 90.5615C289.157 88.7963 284.984 87.4234 281.396 85.4228C277.185 83.0692 273.168 80.794 268.527 78.7935C260.611 75.3415 252.421 71.6934 245.441 67.5354C239.123 63.7696 234.093 59.8077 226.293 57.258C222.744 56.1204 220.288 52.6685 215.959 54.5513C208.432 57.8072 201.959 63.0635 196.031 67.2608C186.243 74.1647 174.583 79.735 164.443 86.4427C152.627 94.2881 141.591 102.565 128.371 109.547C122.56 112.607 116.711 115.628 110.315 118.216C100.098 122.335 89.6465 125.826 80.7942 131.044C69.7579 137.555 58.8777 143.596 46.5936 149.284C38.0921 153.246 29.5517 157.129 21.2843 161.287C9.3511 167.25 -2.11411 172.859 -12.2924 179.999C-20.0139 185.412 -26.0975 190.825 -35.6518 195.023C-39.8635 196.866 -43.2173 199.063 -47 201.142C-45.5181 201.456 -42.6714 201.103 -41.2674 201.024C-35.4958 200.789 -29.9192 200.867 -24.1476 200.946C-6.48178 201.26 10.989 203.535 28.6158 204.359C41.2899 204.947 54.081 204.712 66.7941 204.908C84.1089 205.182 101.385 204.79 118.739 204.437C143.541 203.927 168.343 203.378 193.145 202.476C211.357 201.809 228.867 201.26 247.079 201.652C282.488 202.397 318.6 204.123 354.048 200.946C375.653 199.024 396.789 195.532 418.472 194.042C428.104 193.375 437.698 193.061 447.369 192.473C458.171 191.806 469.012 190.394 479.815 190.041C481.921 189.962 483.87 190.041 485.937 189.766C488.94 189.374 491.709 188.393 488.706 179.136H488.667Z" fill="#CDCDCD"/>
<path d="M200.67 138.131C201.639 138.234 202.574 138.337 203.543 138.441C212.993 139.474 222.513 140.989 232.137 141.402C230.233 141.092 227.014 138.2 226.044 137.511C222.79 135.203 219.467 132.999 217.078 130.313C219.986 128.557 227.429 130.175 230.683 130.692C232.76 131.036 235.703 131.622 237.883 130.967C237.78 130.416 237.26 129.865 236.88 129.418C252.631 133.826 268.07 138.51 283.44 143.4C282.263 141.781 278.282 139.887 276.171 138.716C272.778 136.822 269.559 134.962 266.304 132.965C261.354 129.934 256.265 126.972 251.35 123.907C247.611 121.565 241.449 118.879 238.68 115.917C240.341 116.193 241.691 116.916 243.041 117.502C248.407 119.809 254.05 121.669 260.108 123.253C275.894 127.386 292.406 131.828 306.184 138.062C303.172 136.615 300.541 134.893 297.703 133.309C293.375 130.933 288.425 129.177 283.994 126.904C279.217 124.458 274.405 122.116 269.697 119.637C264.227 116.847 258.862 114.023 253.6 111.13C249.826 110.648 248.234 109.753 248.823 108.41C259.554 112.921 270.112 117.605 281.052 121.944C280.671 121.772 289.533 125.767 292.337 125.526C289.221 122.117 282.367 119.775 277.278 117.639C271.012 114.988 259.139 110.579 259.554 105.345C259.658 104.036 260.385 102.589 259.139 101.522C257.858 100.936 256.577 100.316 255.296 99.7309C252.457 98.5256 249.757 97.2168 247.196 95.8393C245.361 94.875 242.591 93.704 241.553 92.292C251.523 95.2882 261.423 98.5256 270.666 102.279C278.178 105.31 285.309 109.236 293.514 111.578C295.314 112.095 296.872 112.473 298.914 112.232C296.491 110.683 293.41 109.408 290.606 108.1C287.975 106.86 285.448 105.689 283.059 104.346C277.832 101.35 272.086 98.9388 266.512 96.1837C262.635 94.2551 259.658 92.2232 256.3 90.0535C253.704 88.4004 250.45 87.2639 247.749 85.6453C244.253 83.5445 240.653 81.8225 236.706 80.0317C236.326 79.8595 235.668 79.5151 234.941 79.1363C236.672 79.4807 238.507 79.7561 239.995 80.135C243.526 81.0304 246.572 83.1312 250.38 83.6134C249.584 82.718 246.849 82.1325 245.534 81.4437C242.384 79.7906 240.411 77.7243 237.641 75.899C231.202 71.6285 225.075 67.1514 219.536 62.3988C221.44 63.0531 223.759 63.5697 225.629 64.2929C227.429 64.9817 233.833 68.9078 235.772 67.9779C234.076 66.0838 231.722 64.3963 229.437 62.6743C226.84 60.6769 224.729 58.6104 222.029 56.6818C221.198 56.0964 220.332 55.5454 219.432 55.0288C222.306 54.7189 224.279 56.9918 226.944 57.8528C233.868 60.0913 238.334 63.5697 243.942 66.8758C250.138 70.5264 257.408 73.7293 264.435 76.76C268.555 78.5508 272.12 80.5139 275.859 82.5802C279.044 84.3366 282.748 85.542 286.21 87.0918C290.571 89.0548 295.176 91.0522 298.983 93.3941C302.722 95.6671 306.322 98.2501 310.857 99.972C316.881 102.245 321.243 105.448 326.92 107.962C333.255 110.752 339.902 113.266 345.96 116.296C350.391 118.5 354.372 120.842 358.872 123.012C366.557 126.697 374.623 130.003 382.239 133.757C389.266 137.201 396.363 140.541 403.425 143.951C412.287 148.221 421.634 152.216 430.876 156.177C436.277 158.484 442.092 160.516 447.874 162.41C451.716 163.685 455.386 164.89 459.851 164.856C462.517 172.983 460.059 173.844 457.393 174.189C455.559 174.43 453.828 174.361 451.959 174.43C442.335 174.705 432.711 175.979 423.157 176.565C414.606 177.081 406.056 177.357 397.505 177.942C378.258 179.286 359.495 182.316 340.317 184.004C308.85 186.793 276.759 185.278 245.361 184.624C229.194 184.279 213.651 184.762 197.485 185.347C176.68 186.105 155.84 186.552 135 187C149.747 175.222 164.563 163.547 180.176 152.147C186.442 147.154 193.261 142.47 200.635 138.096L200.67 138.131Z" fill="#EEEEEF"/>
<path d="M224.778 90.1828C223.308 89.9 221.893 89.5322 220.875 88.9948C221.922 88.8534 223.534 89.5606 224.778 90.1828Z" fill="#F9BFBC"/>
<path d="M912.73 217.974C913.098 216.617 909.732 215.089 908.459 214.156C905.32 211.893 900.879 210.139 897.089 208.273C891.714 205.585 744.376 109.416 739.031 106.728C732.355 103.391 727.49 99.2894 721.38 95.6123C716.006 92.3595 711.028 88.8521 705.456 85.7124C702.231 83.9022 698.696 82.3465 695.471 80.5363C691.426 78.2735 687.891 75.6712 683.903 73.3801C681.413 71.9659 678.528 70.9476 676.181 69.4202C673.805 67.8645 671.287 66.4219 668.6 65.0642C666.705 64.1025 664.867 62.9994 662.887 62.1509C661.274 61.4437 659.719 61.0477 658.389 60.1709C655.419 58.2192 651.969 56.6918 648.744 54.8533C646.792 53.7502 644.982 52.8167 642.719 51.9682C641.984 51.6853 641.361 51.2893 640.626 51.0065C640.004 50.7802 639.24 50.6671 638.646 50.4408C638.25 50.2994 638.165 49.7902 637.656 49.6771C634.12 48.7719 628.067 52.449 625.889 53.5804C621.053 56.0695 616.782 58.7283 611.549 60.9628C606.91 62.9428 602.356 65.0077 597.774 67.0442C589.911 70.5233 582.076 74.0024 574.099 77.3967C569.658 79.2918 565.642 81.5546 561.145 83.3931C556.506 85.2882 552.178 87.4945 547.964 89.729C542.193 92.8121 536.48 95.8103 530.851 98.9782C526.127 101.665 521.149 104.466 516.001 106.842C509.128 110.038 501.859 112.866 495.268 116.261C489.074 119.457 482.823 121.154 474.761 122.201C471.678 122.596 468.623 122.936 465.625 123.586C464.013 123.926 462.401 124.435 460.732 124.605C458.554 124.803 456.715 125.001 454.594 125.312C451.087 125.849 447.551 128.451 444.92 129.837C441.017 131.874 437.198 133.882 432.503 135.212C430.071 135.89 427.695 136.315 425.517 137.277C424.046 137.927 422.632 138.549 420.934 138.974C418.021 139.709 415.391 139.992 412.223 140.048C409.168 140.077 406.198 139.794 403.143 139.822C400.71 139.822 398.137 139.37 395.761 139.511C393.639 139.624 392.508 140.388 391.037 141.293C388.208 143.018 385.352 144.744 382.41 146.384C378.365 148.647 373.642 150.175 368.607 151.363C365.524 152.098 362.356 152.72 359.075 153.031C354.153 153.484 348.92 153.512 344.027 153.031C341.142 152.72 338.285 152.211 335.372 151.872C330.393 151.306 325.359 151.108 320.352 150.599C316.251 150.203 312.121 149.892 307.963 149.722C304.201 149.581 300.439 150.797 297.017 151.674C292.208 152.89 288.05 153.371 282.818 153.088C276.312 152.749 270.117 151.928 263.499 152.098C257.672 152.239 251.393 152.211 245.622 152.805C239.909 153.399 234.252 154.7 228.821 155.945C221.438 157.614 214.424 159.876 206.815 161.149C200.536 162.196 194.511 162.705 188.062 162.846C175.956 163.158 163.397 164.402 151.63 166.382C145.379 167.457 139.157 168.871 132.708 169.267C127.984 169.55 123.204 169.38 118.508 169.974C114.435 170.512 110.391 171.954 106.318 172.209C103.065 172.407 99.3311 172.039 96.1914 172.633C96.3328 173.029 103.8 174.811 104.309 174.981C113.643 177.809 124.788 178.488 134.772 180.044C154.063 183.042 172.081 188.049 191.4 191.047C200.309 192.32 209.078 193.904 217.677 195.77C229.726 199.023 241.917 202.078 254.249 204.991C266.582 207.113 278.942 209.206 291.303 211.242C297.384 212.628 303.437 214.014 309.519 215.4C320.578 218.455 332.204 220.463 344.366 221.453C357.745 222.387 370.926 223.801 383.937 225.724C390.301 226.63 396.694 227.507 403.086 228.412C416.946 229.769 430.891 229.741 444.92 228.327C457.96 227.252 798.656 289.084 810.281 285.604C820.888 282.578 831.325 279.382 841.621 275.959C845.751 274.29 849.88 272.65 854.01 270.981C861.308 267.304 868.238 263.401 874.743 259.214C882.833 254.378 890.809 249.682 897.682 244.195C900.794 241.536 903.99 238.877 907.215 236.275C909.364 234.663 910.524 232.852 910.694 230.844C911.09 228.016 910.467 225.074 912.759 218.059L912.73 217.974Z" fill="#EEEEEF"/>
<path d="M650.5 73.3789C650.981 73.69 651.462 74.0011 651.942 74.3123C651.348 74.0294 650.839 73.7183 650.5 73.3789Z" fill="#F9BFBC"/>
<path d="M514.952 170.141C511.812 168.444 508.927 166.605 506.184 164.738C509.521 166.379 512.576 168.133 514.952 170.141Z" fill="#F9BFBC"/>
<path d="M662.856 80.8465C659.122 78.7817 655.445 76.6036 651.938 74.3125C653.323 74.9631 655.19 75.5005 656.265 76.0379C658.952 77.4239 660.197 79.4605 662.884 80.8182L662.856 80.8465Z" fill="#F9BFBC"/>
<path d="M642.04 56.2953C643.511 57.7378 645.321 59.0955 646.99 60.4532C646.141 60.5664 641.304 58.3602 640.399 58.0207C638.221 57.2005 636.354 56.1256 633.809 55.7579C637.344 56.465 640.003 59.2652 642.04 61.0755C644.161 62.9706 645.66 65.1203 647.414 67.1568C648.404 68.3165 649.988 68.7974 650.101 70.1268C650.186 71.0602 649.733 72.333 650.327 73.1816C650.384 73.2382 650.441 73.323 650.497 73.3796C647.046 71.0885 643.737 68.7409 640.739 66.3366C639.466 65.3466 637.344 63.6495 634.742 63.9323C632.225 64.1869 632.027 64.9223 633.073 65.9406C631.999 66.3649 629.085 66.4497 628.831 67.1851C628.519 68.062 631.687 69.3065 632.649 69.7308C636.326 71.3996 640.71 72.5028 643.878 74.5676C645.717 75.7839 646.792 77.2264 648.772 78.3861C653.948 81.356 657.201 85.0897 661.755 88.3142C665.205 90.775 668.345 92.9813 672.503 94.9896C673.804 95.6119 678.16 97.6201 678.16 98.9495C675.982 98.6667 674.342 97.4504 672.616 96.6584C669.929 95.4139 667.27 94.1975 664.668 92.8964C658.445 89.7568 651.883 86.6171 646.367 83.0249C645.151 82.2329 644.076 81.6955 642.747 81.1864C641.248 80.5924 639.805 79.7721 637.995 79.4609C635.789 81.0732 628.774 77.085 626.851 76.6324C626.511 77.5092 630.669 79.1781 631.093 79.3761C634.176 80.96 637.146 82.6288 640.088 84.2977C643.115 86.0231 646.283 87.4657 648.234 89.6436C649.762 91.3408 651.374 93.0096 653.439 94.5087C655.645 96.0927 659.266 97.224 661.019 98.9777C659.577 98.8929 658.389 97.903 657.37 97.3655C654.514 95.8947 651.628 94.4521 648.8 92.9813C646.565 91.8216 644.133 91.0013 641.729 89.983C643.878 91.8782 646.961 93.151 649.394 94.8764C651.544 96.4038 653.382 98.2423 655.334 99.8829C659.746 103.588 664.809 106.954 669.165 110.716C674.483 115.298 680.31 119.739 686.023 124.152C682.233 122.398 678.669 120.361 674.936 118.579C669.052 115.751 662.943 113.064 657.144 110.15C655.475 109.33 654.004 108.227 652.166 107.52C651.261 107.181 650.186 107.039 649.394 106.586C652.222 108.453 654.57 110.575 656.861 112.696C657.568 113.347 661.981 116.288 661.811 117.222C658.672 116.515 655.645 114.62 653.071 113.432C649.196 111.65 645.689 109.698 640.993 108.793C632.197 107.067 627.36 101.637 618.591 99.9112C617.064 99.6566 615.508 99.4586 613.953 99.2889C612.227 98.6949 610.643 97.9878 609.144 97.1675C606.061 95.5835 603.317 93.7168 600.064 92.2459C598.169 91.3974 596.359 90.973 594.266 90.4073C592.767 90.0113 590.985 88.8234 589.203 89.0497C589.175 90.6054 592.456 92.557 593.474 93.8016C594.407 94.9613 593.587 97.5635 593.502 98.8929C593.333 101.354 592.823 103.871 593.021 106.332C593.163 108.086 594.266 109.443 594.747 111.169C596.02 115.779 595.256 121.182 595.426 125.849C595.595 131.082 596.02 136.343 596.048 141.575C591.437 138.719 586.855 135.239 580.208 134.023C577.182 133.571 574.07 133.429 570.931 133.627C567.932 133.373 565.217 132.722 562.813 131.647C559.956 130.629 556.873 129.978 553.535 129.752C550.848 129.667 548.218 129.894 545.644 130.403C540.213 130.742 535.8 128.677 530.652 128.14C526.721 127.744 522.733 128.14 518.744 127.8C512.097 127.263 505.507 126.443 498.888 125.792C494.136 125.34 489.101 124.519 484.265 124.434C483.925 125.849 485.82 127.404 486.839 128.536C483.275 127.037 479.513 124.378 474.874 124.519C472.555 124.604 469.669 125.227 467.435 125.453C464.889 125.736 462.428 125.934 459.854 126.018C461.75 128.112 464.239 129.752 465.144 132.156C466.473 135.664 469.217 138.181 472.894 140.953C479.909 146.214 487.404 151.249 494.617 156.425C498.492 159.197 502.169 162.026 506.101 164.713C501.207 162.308 495.692 160.215 490.827 158.151C480.842 153.851 471.027 149.382 461.014 145.139C456.036 143.018 450.096 140.161 444.213 138.945C446.843 143.725 454.395 147.204 458.893 151.277C452.755 148.732 446.589 146.186 440.422 143.668C438.329 142.82 435.699 141.406 433.097 141.236C431.145 141.094 425.516 141.575 424.781 141.604C420.792 141.745 415.079 141.236 411.572 142.537C411.968 143.838 412.788 144.998 414.004 146.044C409.28 143.81 404.585 141.519 399.239 139.822C398.787 140.614 398.023 140.642 396.665 140.925C396.184 143.018 397.401 144.856 400.314 146.384C403.34 149.41 406.904 152.182 410.978 154.671C423.055 162.704 436.236 170.285 449.7 177.469C438.188 171.473 426.252 165.788 413.891 160.413C407.951 156.369 400.823 153.597 392.536 152.126C392.14 153.342 391.602 154.53 390.952 155.69C389.339 156.142 387.67 156.312 385.888 156.199C382.947 156.34 379.637 156.991 376.639 157.047C376.696 157.047 376.724 156.991 376.781 156.963C376.611 156.963 375.621 157.019 375.451 157.047C375.847 157.047 376.243 157.047 376.668 157.047C375.112 158.094 376.894 159.848 378.082 160.555C379.326 161.262 379.92 161.828 380.854 162.62C381.929 163.553 383.371 164.006 384.672 164.769C387.105 166.184 389 167.937 391.178 169.436C392.734 170.511 396.128 171.388 397.005 172.661C395.477 172.859 392.055 171.388 390.867 170.964C386.313 169.352 381.674 167.768 376.865 166.466C372.623 165.307 368.861 163.836 364.477 162.874C361.309 162.167 358.141 160.696 354.831 160.385C354.011 160.3 353.219 160.442 352.455 160.357C351.918 160.3 351.748 159.989 351.154 159.904C349.457 159.706 347.986 160.046 346.742 160.696C344.055 162.11 339.246 163.355 335.597 162.959C330.874 162.45 327.621 159.423 323.152 158.377C320.804 157.811 318.372 157.557 316.109 156.906C311.696 155.661 308.274 152.691 304.399 150.768C303.946 150.542 303.465 150.316 302.984 150.089C304.568 149.778 306.181 149.608 307.765 149.665C311.923 149.835 316.052 150.146 320.154 150.542C325.16 151.023 330.195 151.221 335.173 151.815C338.058 152.154 340.915 152.663 343.828 152.974C348.693 153.484 353.926 153.455 358.876 152.974C362.157 152.663 365.325 152.041 368.408 151.305C373.471 150.117 378.167 148.59 382.211 146.327C385.153 144.687 388.01 142.933 390.838 141.236C392.337 140.331 393.441 139.567 395.562 139.454C397.966 139.341 400.512 139.793 402.944 139.765C405.999 139.765 408.969 140.02 412.024 139.991C415.164 139.963 417.823 139.652 420.736 138.917C422.405 138.492 423.847 137.87 425.318 137.219C427.496 136.258 429.9 135.833 432.305 135.155C437 133.853 440.818 131.845 444.722 129.78C447.381 128.394 450.888 125.792 454.395 125.255C456.517 124.944 458.355 124.746 460.533 124.548C462.23 124.406 463.814 123.869 465.427 123.529C468.425 122.907 471.48 122.539 474.563 122.143C482.624 121.097 488.875 119.4 495.07 116.204C501.66 112.809 508.958 109.952 515.803 106.784C520.951 104.409 525.901 101.58 530.652 98.9212C536.281 95.7532 541.995 92.755 547.765 89.6719C551.98 87.4374 556.307 85.2594 560.946 83.336C565.443 81.4974 569.46 79.2346 573.901 77.3395C581.877 73.9453 589.712 70.4662 597.575 66.9871C602.158 64.9506 606.712 62.8858 611.35 60.9058C616.583 58.6713 620.882 56.0125 625.691 53.5234C627.501 52.59 631.942 49.9311 635.421 49.5352C636.439 50.4686 637.429 51.402 638.363 52.3354C639.664 53.6082 640.512 55.0508 641.814 56.3236L642.04 56.2953Z" fill="#CDCDCD"/>
<path d="M376.92 156.965C376.92 156.965 376.835 157.021 376.779 157.05C376.383 157.05 375.958 157.05 375.562 157.05C375.732 157.05 376.722 156.993 376.892 156.965H376.92Z" fill="#F9BFBC"/>
<path d="M310.11 174.531C307.508 173.399 304.849 172.155 302.219 170.91C303.067 171.25 303.888 171.617 304.708 171.985C306.264 172.692 308.866 173.654 310.139 174.559L310.11 174.531Z" fill="#F9BFBC"/>
<path d="M284.542 158.546C285.928 159.225 287.173 159.848 288.672 160.442C289.521 160.781 291.076 161.234 291.387 161.771C290.68 161.941 289.775 161.969 289.04 162.026C288.106 164.628 293.424 166.862 296.337 168.164C298.289 169.04 300.241 169.946 302.192 170.879C300.439 170.144 298.657 169.465 296.931 168.729C293.735 167.4 290.454 166.212 287.173 164.996C282.421 163.214 278.065 161.121 273.257 159.395C266.61 156.991 260.047 154.558 253.344 152.211C256.738 152.097 260.161 152.069 263.442 151.984C264.997 151.956 266.553 151.984 268.08 152.013C269.325 152.55 270.541 153.059 271.814 153.54C276.057 155.181 280.582 156.538 284.514 158.49L284.542 158.546Z" fill="#CDCDCD"/>
<path d="M-81.4102 175.434H45.1975L829.449 167.381L1217.33 157.539L1333.2 175.434V352.595H-81.4102V175.434Z" fill="#EEEEEF"/>
</g>
<mask id="mask0_986_6971" style="mask-type:luminance" maskUnits="userSpaceOnUse" x="-130" y="54" width="1192" height="253">
<path d="M1062 54H-130V306.596H1062V54Z" fill="white"/>
</mask>
<g mask="url(#mask0_986_6971)">
<path d="M303.632 73.8906C303.632 73.8906 303.693 73.9575 303.802 74.0853L303.632 75.2656V73.8906Z" fill="#7AB0D8"/>
<path d="M353.048 80.4796C352.994 80.4674 352.945 80.4614 352.896 80.4492C353.03 80.4675 353.164 80.4918 353.298 80.5161C353.213 80.5039 353.127 80.4857 353.048 80.4796Z" fill="#C9E5FF"/>
<path d="M693.957 65.5664H693.981C693.963 65.621 693.957 65.6757 693.957 65.7364V65.5664Z" fill="#2098E6"/>
<path d="M15.5743 147.484H10.7617V167.367H15.5743V147.484Z" fill="#6F828C"/>
<path d="M49.6085 147.484H44.7959V167.367H49.6085V147.484Z" fill="#6F828C"/>
<path d="M83.6456 147.484H78.833V167.367H83.6456V147.484Z" fill="#6F828C"/>
<path d="M117.68 147.484H112.867V167.367H117.68V147.484Z" fill="#6F828C"/>
<path d="M151.714 147.484H146.901V167.367H151.714V147.484Z" fill="#6F828C"/>
<path d="M185.748 147.484H180.936V167.367H185.748V147.484Z" fill="#6F828C"/>
<path d="M219.784 147.484H214.972V167.367H219.784V147.484Z" fill="#6F828C"/>
<path d="M253.816 147.484H249.004V167.367H253.816V147.484Z" fill="#6F828C"/>
<path d="M287.851 147.484H283.038V167.367H287.851V147.484Z" fill="#6F828C"/>
<path d="M321.88 147.484H317.067V167.367H321.88V147.484Z" fill="#6F828C"/>
<path d="M355.917 147.484H351.104V167.367H355.917V147.484Z" fill="#6F828C"/>
<path d="M389.951 147.484H385.139V167.367H389.951V147.484Z" fill="#6F828C"/>
<path d="M423.985 147.484H419.173V167.367H423.985V147.484Z" fill="#6F828C"/>
<path d="M458.023 147.484H453.21V167.367H458.023V147.484Z" fill="#6F828C"/>
<path d="M492.057 147.484H487.244V167.367H492.057V147.484Z" fill="#6F828C"/>
<path d="M526.091 147.484H521.278V167.367H526.091V147.484Z" fill="#6F828C"/>
<path d="M560.125 147.484H555.312V167.367H560.125V147.484Z" fill="#6F828C"/>
<path d="M594.162 147.484H589.35V167.367H594.162V147.484Z" fill="#6F828C"/>
<path d="M628.193 147.484H623.381V167.367H628.193V147.484Z" fill="#6F828C"/>
<path d="M662.228 147.484H657.415V167.367H662.228V147.484Z" fill="#6F828C"/>
<path d="M696.265 147.484H691.452V167.367H696.265V147.484Z" fill="#6F828C"/>
<path d="M730.301 147.484H725.488V167.367H730.301V147.484Z" fill="#6F828C"/>
<path d="M764.328 147.484H759.516V167.367H764.328V147.484Z" fill="#6F828C"/>
<path d="M798.362 147.484H793.55V167.367H798.362V147.484Z" fill="#6F828C"/>
<path d="M832.397 147.484H827.584V167.367H832.397V147.484Z" fill="#6F828C"/>
<g style="mix-blend-mode:multiply" opacity="0.15">
<path d="M15.5743 147.484H10.7617V155.954H15.5743V147.484Z" fill="#3E484E"/>
<path d="M49.6085 147.484H44.7959V155.954H49.6085V147.484Z" fill="#3E484E"/>
<path d="M83.6456 147.484H78.833V155.954H83.6456V147.484Z" fill="#3E484E"/>
<path d="M117.68 147.484H112.867V155.954H117.68V147.484Z" fill="#3E484E"/>
<path d="M151.714 147.484H146.901V155.954H151.714V147.484Z" fill="#3E484E"/>
<path d="M185.748 147.484H180.936V155.954H185.748V147.484Z" fill="#3E484E"/>
<path d="M219.784 147.484H214.972V155.954H219.784V147.484Z" fill="#3E484E"/>
<path d="M253.816 147.484H249.004V155.954H253.816V147.484Z" fill="#3E484E"/>
<path d="M287.851 147.484H283.038V155.954H287.851V147.484Z" fill="#3E484E"/>
<path d="M321.88 147.484H317.067V155.954H321.88V147.484Z" fill="#3E484E"/>
<path d="M355.917 147.484H351.104V155.954H355.917V147.484Z" fill="#3E484E"/>
<path d="M389.951 147.484H385.139V155.954H389.951V147.484Z" fill="#3E484E"/>
<path d="M423.985 147.484H419.173V155.954H423.985V147.484Z" fill="#3E484E"/>
<path d="M458.023 147.484H453.21V155.954H458.023V147.484Z" fill="#3E484E"/>
<path d="M492.057 147.484H487.244V155.954H492.057V147.484Z" fill="#3E484E"/>
<path d="M526.091 147.484H521.278V155.954H526.091V147.484Z" fill="#3E484E"/>
<path d="M560.125 147.484H555.312V155.954H560.125V147.484Z" fill="#3E484E"/>
<path d="M594.162 147.484H589.35V155.954H594.162V147.484Z" fill="#3E484E"/>
<path d="M628.193 147.484H623.381V155.954H628.193V147.484Z" fill="#3E484E"/>
<path d="M662.228 147.484H657.415V155.954H662.228V147.484Z" fill="#3E484E"/>
<path d="M696.265 147.484H691.452V155.954H696.265V147.484Z" fill="#3E484E"/>
<path d="M730.301 147.484H725.488V155.954H730.301V147.484Z" fill="#3E484E"/>
<path d="M764.328 147.484H759.516V155.954H764.328V147.484Z" fill="#3E484E"/>
<path d="M798.362 147.484H793.55V155.954H798.362V147.484Z" fill="#3E484E"/>
<path d="M832.397 147.484H827.584V155.954H832.397V147.484Z" fill="#3E484E"/>
</g>
<path d="M1133.4 161.934H-170.354V176.213H1133.4V161.934Z" fill="#60717A"/>
<path d="M1124.7 147.652H-148.005V151.998H1124.7V147.652Z" fill="#8FA9B5"/>
<path d="M79.9844 178.215H38.6973V466.756H79.9844V178.215Z" fill="#758A94"/>
<path d="M89.268 197.008H29.9717V212.364H89.268V197.008Z" fill="#6F828C"/>
<path d="M84.8723 212.363H34.3555V217.942H84.8723V212.363Z" fill="#60717A"/>
<path d="M114.589 175.672H4.64844V182.729H114.589V175.672Z" fill="#6F828C"/>
<path d="M88.9797 197.008H29.6895V212.364H88.9797V197.008Z" fill="#758A94"/>
<g style="mix-blend-mode:multiply" opacity="0.15">
<path d="M88.9857 197.008H29.6895V204.138H88.9857V197.008Z" fill="#3E484E"/>
</g>
<path d="M114.31 175.672H4.36914V182.729H114.31V175.672Z" fill="#6F828C"/>
<path d="M108.414 182.727L105.451 184.899L88.9816 197.006H29.9713L13.2641 184.899L10.2646 182.727H108.414Z" fill="#60717A"/>
<g style="mix-blend-mode:multiply" opacity="0.15">
<path d="M84.8723 212.363H34.3555V214.31H84.8723V212.363Z" fill="#3E484E"/>
</g>
<g style="mix-blend-mode:multiply" opacity="0.15">
<path d="M89.263 197.008H77.6787V212.364H89.263V197.008Z" fill="#3E484E"/>
</g>
<path d="M390.541 178.531H349.254V467.073H390.541V178.531Z" fill="#758A94"/>
<path d="M399.828 197.324H340.531V212.681H399.828V197.324Z" fill="#6F828C"/>
<path d="M395.435 212.68H344.918V218.259H395.435V212.68Z" fill="#60717A"/>
<path d="M425.151 175.988H315.21V183.046H425.151V175.988Z" fill="#6F828C"/>
<path d="M399.542 197.324H340.252V212.681H399.542V197.324Z" fill="#8FA9B5"/>
<path d="M424.87 175.988H314.929V183.046H424.87V175.988Z" fill="#8FA9B5"/>
<path d="M418.974 183.043L416.011 185.215L399.541 197.322H340.531L323.824 185.215L320.824 183.043H418.974Z" fill="#60717A"/>
<g style="mix-blend-mode:multiply" opacity="0.15">
<path d="M395.435 212.68H344.918V214.627H395.435V212.68Z" fill="#3E484E"/>
</g>
<g style="mix-blend-mode:multiply" opacity="0.15">
<path d="M399.826 197.324H388.235V212.681H399.826V197.324Z" fill="#3E484E"/>
</g>
<path d="M703.039 178.551H661.752V467.092H703.039V178.551Z" fill="#758A94"/>
<path d="M712.322 197.348H653.025V212.704H712.322V197.348Z" fill="#6F828C"/>
<path d="M707.927 212.703H657.41V218.282H707.927V212.703Z" fill="#60717A"/>
<path d="M737.644 176.012H627.703V183.069H737.644V176.012Z" fill="#6F828C"/>
<path d="M712.034 197.348H652.744V212.704H712.034V197.348Z" fill="#8FA9B5"/>
<path d="M737.365 176.012H627.424V183.069H737.365V176.012Z" fill="#8FA9B5"/>
<path d="M731.469 183.07L728.506 185.248L712.036 197.35H653.026L636.319 185.248L633.319 183.07H731.469Z" fill="#60717A"/>
<g style="mix-blend-mode:multiply" opacity="0.15">
<path d="M720.207 183.07H633.319L636.319 185.248H717.244L700.774 197.35H712.036L728.506 185.248L731.469 183.07H720.207Z" fill="#3E484E"/>
</g>
<g style="mix-blend-mode:multiply" opacity="0.15">
<path d="M707.927 212.703H657.41V214.65H707.927V212.703Z" fill="#3E484E"/>
</g>
<g style="mix-blend-mode:multiply" opacity="0.15">
<path d="M737.643 175.895H718.082V183.068H737.643V175.895Z" fill="#3E484E"/>
</g>
<g style="mix-blend-mode:multiply" opacity="0.15">
<path d="M712.324 197.348H700.733V212.704H712.324V197.348Z" fill="#3E484E"/>
</g>
<g style="mix-blend-mode:multiply" opacity="0.15">
<path d="M697.564 212.57V218.271H694.297V342.194H703.04V227.927V218.283H707.931V212.704H712.324V212.57H697.564Z" fill="#3E484E"/>
</g>
<rect x="226.527" y="109.008" width="2.45681" height="16.9743" fill="#233498"/>
<rect x="314.526" y="109.008" width="2.45681" height="16.9743" fill="#233498"/>
<path d="M260.466 137.664L262.355 143.626H282.779L285.676 137.664H260.466Z" fill="#6E88D4"/>
<rect x="228.987" y="97.3594" width="85.5499" height="40.1524" rx="8" fill="#FF1700"/>
<path d="M308.155 98.9219H294.997C293.334 98.9219 291.972 99.8507 291.972 101.001V137.784H311.18V101.001C311.18 99.8579 309.828 98.9219 308.155 98.9219Z" fill="#FF6353"/>
<path d="M299.57 138.398H294.433V143.306H299.57V138.398Z" fill="#4D62A0"/>
<path d="M248.934 100.895H234.139C233.563 100.895 233.096 101.361 233.096 101.936V110.475C233.096 111.05 233.563 111.516 234.139 111.516H248.934C249.51 111.516 249.977 111.05 249.977 110.475V101.936C249.977 101.361 249.51 100.895 248.934 100.895Z" fill="#0B1E8D"/>
<path d="M268.95 100.895H254.155C253.579 100.895 253.112 101.361 253.112 101.936V110.475C253.112 111.05 253.579 111.516 254.155 111.516H268.95C269.526 111.516 269.993 111.05 269.993 110.475V101.936C269.993 101.361 269.526 100.895 268.95 100.895Z" fill="#0B1E8D"/>
<path d="M288.963 100.895H274.168C273.592 100.895 273.125 101.361 273.125 101.936V110.475C273.125 111.05 273.592 111.516 274.168 111.516H288.963C289.539 111.516 290.006 111.05 290.006 110.475V101.936C290.006 101.361 289.539 100.895 288.963 100.895Z" fill="#0B1E8D"/>
<path d="M308.979 100.895H294.185C293.609 100.895 293.142 101.361 293.142 101.936V110.475C293.142 111.05 293.609 111.516 294.185 111.516H308.979C309.556 111.516 310.023 111.05 310.023 110.475V101.936C310.023 101.361 309.556 100.895 308.979 100.895Z" fill="#0B1E8D"/>
<path d="M245.384 142.418C245.384 144.931 243.347 146.965 240.831 146.965C238.314 146.965 236.277 144.931 236.277 142.418C236.277 139.905 238.314 137.871 240.831 137.871C243.347 137.871 245.384 139.905 245.384 142.418Z" fill="#2238B3"/>
<path d="M243.805 142.42C243.805 144.06 242.473 145.39 240.831 145.39C239.189 145.39 237.856 144.06 237.856 142.42C237.856 140.78 239.189 139.449 240.831 139.449C242.473 139.449 243.805 140.78 243.805 142.42Z" fill="#4D62A0"/>
<path d="M260.185 142.418C260.185 144.931 258.148 146.965 255.631 146.965C253.115 146.965 251.078 144.931 251.078 142.418C251.078 139.905 253.115 137.871 255.631 137.871C258.148 137.871 260.185 139.905 260.185 142.418Z" fill="#2238B3"/>
<path d="M258.615 142.42C258.615 144.06 257.283 145.39 255.64 145.39C253.998 145.39 252.666 144.06 252.666 142.42C252.666 140.78 253.998 139.449 255.64 139.449C257.283 139.449 258.615 140.78 258.615 142.42Z" fill="#4D62A0"/>
<path d="M250.877 138.398H245.517V143.306H250.877V138.398Z" fill="#4D62A0"/>
<path d="M255.281 144.063H240.423C239.478 144.063 238.717 143.303 238.717 142.36C238.717 141.416 239.478 140.656 240.423 140.656H255.281C256.225 140.656 256.986 141.416 256.986 142.36C256.986 143.303 256.225 144.063 255.281 144.063Z" fill="#738BD3"/>
<path d="M294.178 142.422C294.178 144.935 292.141 146.969 289.625 146.969C287.108 146.969 285.071 144.935 285.071 142.422C285.071 139.909 287.108 137.875 289.625 137.875C292.141 137.875 294.178 139.909 294.178 142.422Z" fill="#2238B3"/>
<path d="M292.599 142.42C292.599 144.06 291.267 145.39 289.625 145.39C287.983 145.39 286.65 144.06 286.65 142.42C286.65 140.78 287.983 139.449 289.625 139.449C291.267 139.449 292.599 140.78 292.599 142.42Z" fill="#4D62A0"/>
<path d="M308.981 142.422C308.981 144.935 306.944 146.969 304.427 146.969C301.911 146.969 299.874 144.935 299.874 142.422C299.874 139.909 301.911 137.875 304.427 137.875C306.944 137.875 308.981 139.909 308.981 142.422Z" fill="#2238B3"/>
<path d="M307.409 142.42C307.409 144.06 306.077 145.39 304.434 145.39C302.792 145.39 301.46 144.06 301.46 142.42C301.46 140.78 302.792 139.449 304.434 139.449C306.077 139.449 307.409 140.78 307.409 142.42Z" fill="#4D62A0"/>
<path d="M304.075 143.84H289.216C288.272 143.84 287.511 143.08 287.511 142.137C287.511 141.194 288.272 140.434 289.216 140.434H304.075C305.019 140.434 305.78 141.194 305.78 142.137C305.78 143.08 305.019 143.84 304.075 143.84Z" fill="#738BD3"/>
<path opacity="0.1" d="M240.764 100.894L233.096 108.552V110.467C233.096 111.044 233.561 111.509 234.139 111.509H236.599L247.235 100.887H240.764V100.894Z" fill="white"/>
<path opacity="0.1" d="M237.353 100.895H234.139C233.561 100.895 233.096 101.359 233.096 101.936V105.146L237.353 100.895Z" fill="white"/>
<path opacity="0.1" d="M281.527 100.895H275.049L273.125 102.816V109.285L281.527 100.895Z" fill="white"/>
<path opacity="0.1" d="M269.994 101.944C269.994 101.367 269.529 100.902 268.951 100.902H258.689L253.113 106.47V110.482C253.113 111.06 253.578 111.524 254.156 111.524H261L269.994 102.542V101.944Z" fill="white"/>
<path opacity="0.1" d="M269.994 110.475V105.941L264.412 111.516H268.951C269.529 111.516 269.994 111.052 269.994 110.475Z" fill="white"/>
<path opacity="0.1" d="M249.975 109.598L248.044 111.526H248.925C249.503 111.526 249.968 111.062 249.968 110.485V109.605L249.975 109.598Z" fill="white"/>
<path opacity="0.1" d="M294.185 100.895C293.607 100.895 293.142 101.359 293.142 101.936V110.475C293.142 111.052 293.607 111.516 294.185 111.516H295.559L306.195 100.895H294.185Z" fill="white"/>
<path opacity="0.1" d="M310.021 106.947V101.942C310.021 101.548 309.796 101.21 309.479 101.027L298.977 111.515H305.447L310.021 106.947Z" fill="white"/>
<path opacity="0.1" d="M290.013 104.137L282.612 111.528H288.963C289.541 111.528 290.006 111.063 290.006 110.486V104.144L290.013 104.137Z" fill="white"/>
<path d="M172.467 137.668L174.356 143.63H194.78L197.676 137.668H172.467Z" fill="#6E88D4"/>
<rect x="140.989" y="97.3945" width="85.5499" height="40.1524" rx="8" fill="#FF1700"/>
<path d="M220.157 98.9258H206.998C205.335 98.9258 203.974 99.8546 203.974 101.005V137.788H223.182V101.005C223.182 99.8618 221.83 98.9258 220.157 98.9258Z" fill="#FF6353"/>
<path d="M211.571 138.406H206.434V143.314H211.571V138.406Z" fill="#4D62A0"/>
<path d="M160.935 100.902H146.14C145.564 100.902 145.097 101.369 145.097 101.944V110.482C145.097 111.058 145.564 111.524 146.14 111.524H160.935C161.511 111.524 161.978 111.058 161.978 110.482V101.944C161.978 101.369 161.511 100.902 160.935 100.902Z" fill="#0B1E8D"/>
<path d="M180.952 100.902H166.157C165.581 100.902 165.114 101.369 165.114 101.944V110.482C165.114 111.058 165.581 111.524 166.157 111.524H180.952C181.528 111.524 181.995 111.058 181.995 110.482V101.944C181.995 101.369 181.528 100.902 180.952 100.902Z" fill="#0B1E8D"/>
<path d="M200.964 100.902H186.169C185.593 100.902 185.126 101.369 185.126 101.944V110.482C185.126 111.058 185.593 111.524 186.169 111.524H200.964C201.54 111.524 202.007 111.058 202.007 110.482V101.944C202.007 101.369 201.54 100.902 200.964 100.902Z" fill="#0B1E8D"/>
<path d="M220.98 100.902H206.186C205.61 100.902 205.143 101.369 205.143 101.944V110.482C205.143 111.058 205.61 111.524 206.186 111.524H220.98C221.557 111.524 222.024 111.058 222.024 110.482V101.944C222.024 101.369 221.557 100.902 220.98 100.902Z" fill="#0B1E8D"/>
<path d="M157.385 142.426C157.385 144.939 155.348 146.973 152.832 146.973C150.315 146.973 148.278 144.939 148.278 142.426C148.278 139.913 150.315 137.879 152.832 137.879C155.348 137.879 157.385 139.913 157.385 142.426Z" fill="#2238B3"/>
<path d="M155.806 142.427C155.806 144.068 154.474 145.398 152.832 145.398C151.19 145.398 149.857 144.068 149.857 142.427C149.857 140.787 151.19 139.457 152.832 139.457C154.474 139.457 155.806 140.787 155.806 142.427Z" fill="#4D62A0"/>
<path d="M172.186 142.426C172.186 144.939 170.149 146.973 167.632 146.973C165.116 146.973 163.079 144.939 163.079 142.426C163.079 139.913 165.116 137.879 167.632 137.879C170.149 137.879 172.186 139.913 172.186 142.426Z" fill="#2238B3"/>
<path d="M170.616 142.427C170.616 144.068 169.284 145.398 167.641 145.398C165.999 145.398 164.667 144.068 164.667 142.427C164.667 140.787 165.999 139.457 167.641 139.457C169.284 139.457 170.616 140.787 170.616 142.427Z" fill="#4D62A0"/>
<path d="M162.878 138.406H157.518V143.314H162.878V138.406Z" fill="#4D62A0"/>
<path d="M167.282 144.071H152.423C151.479 144.071 150.718 143.311 150.718 142.368C150.718 141.424 151.479 140.664 152.423 140.664H167.282C168.226 140.664 168.987 141.424 168.987 142.368C168.987 143.311 168.226 144.071 167.282 144.071Z" fill="#738BD3"/>
<path d="M206.179 142.43C206.179 144.943 204.142 146.977 201.626 146.977C199.109 146.977 197.072 144.943 197.072 142.43C197.072 139.917 199.109 137.883 201.626 137.883C204.142 137.883 206.179 139.917 206.179 142.43Z" fill="#2238B3"/>
<path d="M204.6 142.427C204.6 144.068 203.268 145.398 201.626 145.398C199.984 145.398 198.651 144.068 198.651 142.427C198.651 140.787 199.984 139.457 201.626 139.457C203.268 139.457 204.6 140.787 204.6 142.427Z" fill="#4D62A0"/>
<path d="M220.982 142.43C220.982 144.943 218.945 146.977 216.428 146.977C213.912 146.977 211.875 144.943 211.875 142.43C211.875 139.917 213.912 137.883 216.428 137.883C218.945 137.883 220.982 139.917 220.982 142.43Z" fill="#2238B3"/>
<path d="M219.41 142.427C219.41 144.068 218.078 145.398 216.435 145.398C214.793 145.398 213.461 144.068 213.461 142.427C213.461 140.787 214.793 139.457 216.435 139.457C218.078 139.457 219.41 140.787 219.41 142.427Z" fill="#4D62A0"/>
<path d="M216.076 143.848H201.217C200.273 143.848 199.512 143.088 199.512 142.145C199.512 141.202 200.273 140.441 201.217 140.441H216.076C217.02 140.441 217.781 141.202 217.781 142.145C217.781 143.088 217.02 143.848 216.076 143.848Z" fill="#738BD3"/>
<path opacity="0.1" d="M152.765 100.902L145.097 108.56V110.475C145.097 111.052 145.562 111.516 146.14 111.516H148.6L159.236 100.895H152.765V100.902Z" fill="white"/>
<path opacity="0.1" d="M149.354 100.902H146.14C145.562 100.902 145.097 101.367 145.097 101.944V105.154L149.354 100.902Z" fill="white"/>
<path opacity="0.1" d="M193.528 100.902H187.05L185.126 102.824V109.293L193.528 100.902Z" fill="white"/>
<path opacity="0.1" d="M181.995 101.952C181.995 101.375 181.53 100.91 180.952 100.91H170.69L165.114 106.478V110.49C165.114 111.067 165.579 111.532 166.157 111.532H173.001L181.995 102.55V101.952Z" fill="white"/>
<path opacity="0.1" d="M181.995 110.482V105.949L176.413 111.524H180.952C181.53 111.524 181.995 111.06 181.995 110.482Z" fill="white"/>
<path opacity="0.1" d="M161.976 109.605L160.045 111.534H160.926C161.504 111.534 161.969 111.07 161.969 110.492V109.613L161.976 109.605Z" fill="white"/>
<path opacity="0.1" d="M206.186 100.902C205.608 100.902 205.143 101.367 205.143 101.944V110.482C205.143 111.06 205.608 111.524 206.186 111.524H207.56L218.196 100.902H206.186Z" fill="white"/>
<path opacity="0.1" d="M222.022 106.955V101.95C222.022 101.556 221.797 101.218 221.48 101.035L210.978 111.523H217.448L222.022 106.955Z" fill="white"/>
<path opacity="0.1" d="M202.014 104.141L194.613 111.532H200.964C201.542 111.532 202.007 111.067 202.007 110.49V104.148L202.014 104.141Z" fill="white"/>
<rect x="138.529" y="109.008" width="2.45681" height="16.9743" fill="#233498"/>
<path d="M84.4639 137.668L86.3529 143.63H106.777L109.674 137.668H84.4639Z" fill="#6E88D4"/>
<rect x="52.9854" y="97.3945" width="85.5499" height="40.1524" rx="8" fill="#FF1700"/>
<path d="M132.153 98.9258H118.995C117.332 98.9258 115.97 99.8546 115.97 101.005V137.788H135.178V101.005C135.178 99.8618 133.827 98.9258 132.153 98.9258Z" fill="#FF6353"/>
<path d="M123.568 138.406H118.431V143.314H123.568V138.406Z" fill="#4D62A0"/>
<path d="M72.9316 100.902H58.1369C57.5608 100.902 57.0938 101.369 57.0938 101.944V110.482C57.0938 111.058 57.5608 111.524 58.1369 111.524H72.9316C73.5077 111.524 73.9747 111.058 73.9747 110.482V101.944C73.9747 101.369 73.5077 100.902 72.9316 100.902Z" fill="#0B1E8D"/>
<path d="M92.9482 100.902H78.1535C77.5774 100.902 77.1104 101.369 77.1104 101.944V110.482C77.1104 111.058 77.5774 111.524 78.1535 111.524H92.9482C93.5243 111.524 93.9914 111.058 93.9914 110.482V101.944C93.9914 101.369 93.5243 100.902 92.9482 100.902Z" fill="#0B1E8D"/>
<path d="M112.961 100.902H98.1662C97.5901 100.902 97.123 101.369 97.123 101.944V110.482C97.123 111.058 97.5901 111.524 98.1662 111.524H112.961C113.537 111.524 114.004 111.058 114.004 110.482V101.944C114.004 101.369 113.537 100.902 112.961 100.902Z" fill="#0B1E8D"/>
<path d="M132.977 100.902H118.183C117.607 100.902 117.14 101.369 117.14 101.944V110.482C117.14 111.058 117.607 111.524 118.183 111.524H132.977C133.554 111.524 134.021 111.058 134.021 110.482V101.944C134.021 101.369 133.554 100.902 132.977 100.902Z" fill="#0B1E8D"/>
<path d="M69.382 142.426C69.382 144.939 67.345 146.973 64.8287 146.973C62.3124 146.973 60.2754 144.939 60.2754 142.426C60.2754 139.913 62.3124 137.879 64.8287 137.879C67.345 137.879 69.382 139.913 69.382 142.426Z" fill="#2238B3"/>
<path d="M67.8034 142.427C67.8034 144.068 66.4712 145.398 64.8289 145.398C63.1866 145.398 61.8545 144.068 61.8545 142.427C61.8545 140.787 63.1866 139.457 64.8289 139.457C66.4712 139.457 67.8034 140.787 67.8034 142.427Z" fill="#4D62A0"/>
<path d="M84.1828 142.426C84.1828 144.939 82.1458 146.973 79.6295 146.973C77.1132 146.973 75.0762 144.939 75.0762 142.426C75.0762 139.913 77.1132 137.879 79.6295 137.879C82.1458 137.879 84.1828 139.913 84.1828 142.426Z" fill="#2238B3"/>
<path d="M82.6129 142.427C82.6129 144.068 81.2808 145.398 79.6385 145.398C77.9962 145.398 76.6641 144.068 76.6641 142.427C76.6641 140.787 77.9962 139.457 79.6385 139.457C81.2808 139.457 82.6129 140.787 82.6129 142.427Z" fill="#4D62A0"/>
<path d="M74.8755 138.406H69.5146V143.314H74.8755V138.406Z" fill="#4D62A0"/>
<path d="M79.2787 144.071H64.4206C63.4761 144.071 62.7148 143.311 62.7148 142.368C62.7148 141.424 63.4761 140.664 64.4206 140.664H79.2787C80.2232 140.664 80.9844 141.424 80.9844 142.368C80.9844 143.311 80.2232 144.071 79.2787 144.071Z" fill="#738BD3"/>
<path d="M118.176 142.43C118.176 144.943 116.139 146.977 113.623 146.977C111.106 146.977 109.069 144.943 109.069 142.43C109.069 139.917 111.106 137.883 113.623 137.883C116.139 137.883 118.176 139.917 118.176 142.43Z" fill="#2238B3"/>
<path d="M116.597 142.427C116.597 144.068 115.265 145.398 113.623 145.398C111.981 145.398 110.648 144.068 110.648 142.427C110.648 140.787 111.981 139.457 113.623 139.457C115.265 139.457 116.597 140.787 116.597 142.427Z" fill="#4D62A0"/>
<path d="M132.979 142.43C132.979 144.943 130.942 146.977 128.425 146.977C125.909 146.977 123.872 144.943 123.872 142.43C123.872 139.917 125.909 137.883 128.425 137.883C130.942 137.883 132.979 139.917 132.979 142.43Z" fill="#2238B3"/>
<path d="M131.407 142.427C131.407 144.068 130.075 145.398 128.432 145.398C126.79 145.398 125.458 144.068 125.458 142.427C125.458 140.787 126.79 139.457 128.432 139.457C130.075 139.457 131.407 140.787 131.407 142.427Z" fill="#4D62A0"/>
<path d="M128.073 143.848H113.215C112.27 143.848 111.509 143.088 111.509 142.145C111.509 141.202 112.27 140.441 113.215 140.441H128.073C129.017 140.441 129.778 141.202 129.778 142.145C129.778 143.088 129.017 143.848 128.073 143.848Z" fill="#738BD3"/>
<path opacity="0.1" d="M64.7624 100.902L57.0938 108.56V110.475C57.0938 111.052 57.5589 111.516 58.1369 111.516H60.5968L71.2329 100.895H64.7624V100.902Z" fill="white"/>
<path opacity="0.1" d="M61.351 100.902H58.1369C57.5589 100.902 57.0938 101.367 57.0938 101.944V105.154L61.351 100.902Z" fill="white"/>
<path opacity="0.1" d="M105.525 100.902H99.0473L97.123 102.824V109.293L105.525 100.902Z" fill="white"/>
<path opacity="0.1" d="M93.9923 101.952C93.9923 101.375 93.5271 100.91 92.9492 100.91H82.6866L77.1113 106.478V110.49C77.1113 111.067 77.5765 111.532 78.1545 111.532H84.9985L93.9923 102.55V101.952Z" fill="white"/>
<path opacity="0.1" d="M93.9925 110.482V105.949L88.4102 111.524H92.9493C93.5273 111.524 93.9925 111.06 93.9925 110.482Z" fill="white"/>
<path opacity="0.1" d="M73.9731 109.605L72.042 111.534H72.923C73.5009 111.534 73.966 111.07 73.966 110.492V109.613L73.9731 109.605Z" fill="white"/>
<path opacity="0.1" d="M118.184 100.902C117.606 100.902 117.141 101.367 117.141 101.944V110.482C117.141 111.06 117.606 111.524 118.184 111.524H119.558L130.194 100.902H118.184Z" fill="white"/>
<path opacity="0.1" d="M134.02 106.955V101.95C134.02 101.556 133.795 101.218 133.478 101.035L122.976 111.523H129.446L134.02 106.955Z" fill="white"/>
<path opacity="0.1" d="M114.011 104.141L106.61 111.532H112.961C113.539 111.532 114.004 111.067 114.004 110.49V104.148L114.011 104.141Z" fill="white"/>
<rect x="50.5312" y="109.008" width="2.45681" height="16.9743" fill="#233498"/>
<path d="M-3.53418 137.668L-1.64519 143.63H18.7786L21.6755 137.668H-3.53418Z" fill="#6E88D4"/>
<rect x="-35.0127" y="97.3945" width="85.5499" height="40.1524" rx="8" fill="#FF1700"/>
<path d="M44.1551 98.9258H30.9965C29.3335 98.9258 27.9719 99.8546 27.9719 101.005V137.788H47.1797V101.005C47.1797 99.8618 45.8285 98.9258 44.1551 98.9258Z" fill="#FF6353"/>
<path d="M35.5701 138.406H30.4326V143.314H35.5701V138.406Z" fill="#4D62A0"/>
<path d="M4.95013 100.902H-9.84453C-10.4207 100.902 -10.8877 101.369 -10.8877 101.944V110.482C-10.8877 111.058 -10.4207 111.524 -9.84453 111.524H4.95013C5.52625 111.524 5.9933 111.058 5.9933 110.482V101.944C5.9933 101.369 5.52625 100.902 4.95013 100.902Z" fill="#0B1E8D"/>
<path d="M24.9628 100.902H10.1682C9.59205 100.902 9.125 101.369 9.125 101.944V110.482C9.125 111.058 9.59205 111.524 10.1682 111.524H24.9628C25.539 111.524 26.006 111.058 26.006 110.482V101.944C26.006 101.369 25.539 100.902 24.9628 100.902Z" fill="#0B1E8D"/>
<path d="M44.9794 100.902H30.1848C29.6087 100.902 29.1416 101.369 29.1416 101.944V110.482C29.1416 111.058 29.6087 111.524 30.1848 111.524H44.9794C45.5556 111.524 46.0226 111.058 46.0226 110.482V101.944C46.0226 101.369 45.5556 100.902 44.9794 100.902Z" fill="#0B1E8D"/>
<path d="M30.1779 142.426C30.1779 144.939 28.1409 146.973 25.6246 146.973C23.1083 146.973 21.0713 144.939 21.0713 142.426C21.0713 139.913 23.1083 137.879 25.6246 137.879C28.1409 137.879 30.1779 139.913 30.1779 142.426Z" fill="#2238B3"/>
<path d="M28.5993 142.427C28.5993 144.068 27.2671 145.398 25.6248 145.398C23.9825 145.398 22.6504 144.068 22.6504 142.427C22.6504 140.787 23.9825 139.457 25.6248 139.457C27.2671 139.457 28.5993 140.787 28.5993 142.427Z" fill="#4D62A0"/>
<path d="M44.9806 142.426C44.9806 144.939 42.9436 146.973 40.4273 146.973C37.911 146.973 35.874 144.939 35.874 142.426C35.874 139.913 37.911 137.879 40.4273 137.879C42.9436 137.879 44.9806 139.913 44.9806 142.426Z" fill="#2238B3"/>
<path d="M43.4088 142.427C43.4088 144.068 42.0767 145.398 40.4344 145.398C38.7921 145.398 37.46 144.068 37.46 142.427C37.46 140.787 38.7921 139.457 40.4344 139.457C42.0767 139.457 43.4088 140.787 43.4088 142.427Z" fill="#4D62A0"/>
<path d="M40.0746 143.848H25.2165C24.272 143.848 23.5107 143.088 23.5107 142.145C23.5107 141.202 24.272 140.441 25.2165 140.441H40.0746C41.0191 140.441 41.7803 141.202 41.7803 142.145C41.7803 143.088 41.0191 143.848 40.0746 143.848Z" fill="#738BD3"/>
<path opacity="0.1" d="M17.5267 100.902H11.0492L9.125 102.824V109.293L17.5267 100.902Z" fill="white"/>
<path opacity="0.1" d="M5.9933 101.952C5.9933 101.375 5.5281 100.91 4.95013 100.91H-5.31238L-10.8877 106.478V110.49C-10.8877 111.067 -10.4225 111.532 -9.84453 111.532H-3.0005L5.9933 102.55V101.952Z" fill="white"/>
<path opacity="0.1" d="M5.99348 110.482V105.949L0.411133 111.524H4.9503C5.52828 111.524 5.99348 111.06 5.99348 110.482Z" fill="white"/>
<path opacity="0.1" d="M30.1848 100.902C29.6068 100.902 29.1416 101.367 29.1416 101.944V110.482C29.1416 111.06 29.6068 111.524 30.1848 111.524H31.5592L42.1953 100.902H30.1848Z" fill="white"/>
<path opacity="0.1" d="M46.0215 106.955V101.95C46.0215 101.556 45.7959 101.218 45.4787 101.035L34.9766 111.523H41.447L46.0215 106.955Z" fill="white"/>
<path opacity="0.1" d="M26.0132 104.141L18.6123 111.532H24.963C25.5409 111.532 26.0061 111.067 26.0061 110.49V104.148L26.0132 104.141Z" fill="white"/>
<path d="M331.625 137.73H336.929V143.221H331.625V137.73Z" fill="#4D62A0"/>
<path d="M337.107 142.329C337.107 144.875 339.164 146.936 341.706 146.936C344.247 146.936 346.305 144.875 346.305 142.329C346.305 139.784 344.247 137.723 341.706 137.723C339.164 137.723 337.107 139.784 337.107 142.329Z" fill="#0B1E8D"/>
<path d="M338.702 142.33C338.702 143.991 340.048 145.339 341.707 145.339C343.365 145.339 344.711 143.991 344.711 142.33C344.711 140.668 343.365 139.32 341.707 139.32C340.048 139.32 338.702 140.668 338.702 142.33Z" fill="#4D62A0"/>
<path d="M322.159 142.329C322.159 144.875 324.216 146.936 326.758 146.936C329.299 146.936 331.356 144.875 331.356 142.329C331.356 139.784 329.299 137.723 326.758 137.723C324.216 137.723 322.159 139.784 322.159 142.329Z" fill="#0B1E8D"/>
<path d="M323.743 142.33C323.743 143.991 325.088 145.339 326.747 145.339C328.405 145.339 329.751 143.991 329.751 142.33C329.751 140.668 328.405 139.32 326.747 139.32C325.088 139.32 323.743 140.668 323.743 142.33Z" fill="#4D62A0"/>
<path d="M327.111 144.221H342.118C343.072 144.221 343.841 143.451 343.841 142.495C343.841 141.54 343.072 140.77 342.118 140.77H327.111C326.157 140.77 325.388 141.54 325.388 142.495C325.388 143.451 326.157 144.221 327.111 144.221Z" fill="#738BD3"/>
<path d="M423.771 137.73H429.074V143.221H423.771V137.73Z" fill="#4D62A0"/>
<path d="M429.252 142.329C429.252 144.875 431.31 146.936 433.851 146.936C436.393 146.936 438.45 144.875 438.45 142.329C438.45 139.784 436.393 137.723 433.851 137.723C431.31 137.723 429.252 139.784 429.252 142.329Z" fill="#0B1E8D"/>
<path d="M430.848 142.33C430.848 143.991 432.193 145.339 433.852 145.339C435.511 145.339 436.856 143.991 436.856 142.33C436.856 140.668 435.511 139.32 433.852 139.32C432.193 139.32 430.848 140.668 430.848 142.33Z" fill="#4D62A0"/>
<path d="M414.304 142.329C414.304 144.875 416.362 146.936 418.903 146.936C421.445 146.936 423.502 144.875 423.502 142.329C423.502 139.784 421.445 137.723 418.903 137.723C416.362 137.723 414.304 139.784 414.304 142.329Z" fill="#0B1E8D"/>
<path d="M415.888 142.33C415.888 143.991 417.234 145.339 418.892 145.339C420.551 145.339 421.896 143.991 421.896 142.33C421.896 140.668 420.551 139.32 418.892 139.32C417.234 139.32 415.888 140.668 415.888 142.33Z" fill="#4D62A0"/>
<path d="M419.257 144.221H434.264C435.217 144.221 435.986 143.451 435.986 142.495C435.986 141.54 435.217 140.77 434.264 140.77H419.257C418.303 140.77 417.534 141.54 417.534 142.495C417.534 143.451 418.303 144.221 419.257 144.221Z" fill="#738BD3"/>
<path d="M455.524 137.734L461.184 143.774H442.553L439.62 137.734H455.524Z" fill="#6E88D4"/>
<path d="M413.346 137.734L411.438 143.774H349.073L346.147 137.734H413.346Z" fill="#6E88D4"/>
<path d="M320.601 137.811H456.836C460.714 137.811 464.235 135.025 465.869 130.674C468.097 124.73 466.175 117.664 461.499 114.599L438.285 99.3741C436.27 98.0524 434.019 97.3594 431.739 97.3594H323.7C319.995 97.3594 316.993 101.074 316.993 105.661V133.339C316.993 135.811 318.609 137.811 320.606 137.811H320.601Z" fill="#FF1700"/>
<path d="M411.279 98.9492H402.266C401.127 98.9492 400.195 99.8763 400.195 101.024V137.735H413.351V101.024C413.351 99.8834 412.425 98.9492 411.279 98.9492Z" fill="#FF6353"/>
<path d="M453.61 111.038H440.34C430.609 111.038 421.283 107.166 414.399 100.277H433.328L453.61 111.038Z" fill="#0B1E8D"/>
<path d="M402.607 100.27H410.943C411.525 100.27 411.997 100.742 411.997 101.325V109.975C411.997 110.558 411.525 111.03 410.943 111.03H402.607C402.025 111.03 401.553 110.558 401.553 109.975V101.325C401.553 100.742 402.025 100.27 402.607 100.27Z" fill="#0B1E8D"/>
<path d="M382.803 100.27H397.746C398.328 100.27 398.8 100.742 398.8 101.325V109.975C398.8 110.558 398.328 111.03 397.746 111.03H382.803C382.221 111.03 381.75 110.558 381.75 109.975V101.325C381.75 100.742 382.221 100.27 382.803 100.27Z" fill="#0B1E8D"/>
<path d="M362.585 100.27H377.527C378.109 100.27 378.581 100.742 378.581 101.325V109.975C378.581 110.558 378.109 111.03 377.527 111.03H362.585C362.003 111.03 361.531 110.558 361.531 109.975V101.325C361.531 100.742 362.003 100.27 362.585 100.27Z" fill="#0B1E8D"/>
<path d="M342.374 100.27H357.316C357.898 100.27 358.37 100.742 358.37 101.325V109.975C358.37 110.558 357.898 111.03 357.316 111.03H342.374C341.792 111.03 341.32 110.558 341.32 109.975V101.325C341.32 100.742 341.792 100.27 342.374 100.27Z" fill="#0B1E8D"/>
<path d="M322.156 100.27H337.099C337.681 100.27 338.152 100.742 338.152 101.325V109.975C338.152 110.558 337.681 111.03 337.099 111.03H322.156C321.574 111.03 321.102 110.558 321.102 109.975V101.325C321.102 100.742 321.574 100.27 322.156 100.27Z" fill="#0B1E8D"/>
<path opacity="0.3" d="M418.897 123.139H466.573C467.036 125.585 466.988 128.188 465.87 130.605C465.657 131.062 465.415 131.497 465.151 131.917H418.897L413.33 125.837L321.55 97.6953L413.33 117.555L420.994 123.139H418.897Z" fill="white"/>
<path opacity="0.4" d="M413.351 127.304V129.09L356.048 111.223L413.351 127.304Z" fill="white"/>
<path opacity="0.4" d="M368.039 137.784H359.12L317.314 124.719L368.039 137.784Z" fill="white"/>
<path opacity="0.4" d="M353.547 137.787H348.098L322.554 129.746L353.547 137.787Z" fill="white"/>
<path opacity="0.1" d="M416.253 100.27H422.788L432.727 110.225C429.018 109.433 425.451 108.071 422.162 106.196L416.246 100.27H416.253Z" fill="white"/>
<path opacity="0.1" d="M433.332 100.27L446.068 107.03L450.062 111.03H440.344C439.162 111.03 437.981 110.973 436.813 110.859L426.241 100.27H433.332Z" fill="white"/>
<path opacity="0.1" d="M391.054 100.269L398.8 108.028V109.967C398.8 110.552 398.33 111.023 397.746 111.023H395.262L384.519 100.262H391.054V100.269Z" fill="white"/>
<path opacity="0.1" d="M394.5 100.27H397.746C398.33 100.27 398.8 100.74 398.8 101.325V104.577L394.5 100.27Z" fill="white"/>
<path opacity="0.1" d="M401.556 101.333C401.556 100.748 402.026 100.277 402.61 100.277H407.579L412.007 104.713V109.983C412.007 110.568 411.537 111.038 410.953 111.038H405.251L401.563 107.344V101.333H401.556Z" fill="white"/>
<path opacity="0.1" d="M349.884 100.27H356.427L358.37 102.216V108.77L349.884 100.27Z" fill="white"/>
<path opacity="0.1" d="M361.531 101.333C361.531 100.748 362.001 100.277 362.585 100.277H372.95L378.581 105.918V109.983C378.581 110.568 378.111 111.038 377.527 111.038H370.615L361.531 101.939V101.333Z" fill="white"/>
<path opacity="0.1" d="M361.53 109.979V105.387L367.168 111.035H362.583C362 111.035 361.53 110.564 361.53 109.979Z" fill="white"/>
<path opacity="0.1" d="M381.751 109.082L383.701 111.036H382.811C382.228 111.036 381.758 110.565 381.758 109.981V109.089L381.751 109.082Z" fill="white"/>
<path opacity="0.1" d="M337.099 100.27C337.682 100.27 338.152 100.74 338.152 101.325V109.975C338.152 110.56 337.682 111.03 337.099 111.03H335.711L324.968 100.27H337.099Z" fill="white"/>
<path opacity="0.1" d="M321.103 106.404V101.333C321.103 100.934 321.331 100.592 321.651 100.406L332.259 111.032H325.724L321.103 106.404Z" fill="white"/>
<path opacity="0.1" d="M341.313 103.547L348.788 111.035H342.374C341.79 111.035 341.32 110.564 341.32 109.979V103.554L341.313 103.547Z" fill="white"/>
<path fill-rule="evenodd" clip-rule="evenodd" d="M444.892 128.534C445.06 128.207 445.187 127.861 445.27 127.505C445.355 127.175 445.392 126.835 445.382 126.495C445.374 126.222 445.297 125.956 445.155 125.719C445.017 125.503 444.814 125.331 444.574 125.225C444.322 125.111 444.004 125.055 443.621 125.055C443.274 125.05 442.93 125.107 442.605 125.225C442.301 125.34 442.023 125.51 441.786 125.725C441.538 125.951 441.329 126.215 441.169 126.506C440.991 126.827 440.86 127.17 440.777 127.524C440.69 127.857 440.651 128.201 440.661 128.546C440.665 128.818 440.739 129.084 440.875 129.322C441.009 129.536 441.209 129.705 441.45 129.804C441.701 129.913 442.02 129.968 442.403 129.968C442.769 129.974 443.134 129.915 443.479 129.798C443.785 129.691 444.066 129.524 444.305 129.31C444.546 129.085 444.745 128.823 444.892 128.534ZM443.937 127.006C443.922 127.176 443.895 127.345 443.858 127.511L443.847 127.504C443.806 127.675 443.753 127.842 443.688 128.004C443.629 128.153 443.55 128.293 443.455 128.422C443.371 128.538 443.263 128.636 443.137 128.71C443.012 128.781 442.868 128.819 442.722 128.816C442.589 128.823 442.457 128.791 442.343 128.722C442.248 128.655 442.179 128.561 442.147 128.452C442.107 128.314 442.096 128.171 442.11 128.029C442.127 127.838 442.161 127.65 442.208 127.464C442.251 127.299 442.311 127.137 442.385 126.982C442.448 126.838 442.531 126.702 442.63 126.577C442.719 126.466 442.829 126.372 442.954 126.301C443.07 126.234 443.203 126.2 443.339 126.201C443.476 126.193 443.611 126.23 443.723 126.307C443.815 126.379 443.88 126.478 443.907 126.589C443.942 126.725 443.952 126.866 443.937 127.006ZM437.411 129.898C437.465 129.904 437.518 129.894 437.565 129.869V129.875C437.592 129.843 437.609 129.804 437.614 129.763L438.029 128.059H439.894C439.979 128.059 440.041 128.006 440.065 127.9L440.236 127.195C440.255 127.118 440.261 127.071 440.249 127.054C440.236 127.037 440.199 127.024 440.145 127.024H438.28L438.384 126.601C438.396 126.555 438.413 126.509 438.433 126.466C438.452 126.421 438.479 126.379 438.513 126.343C438.557 126.302 438.608 126.27 438.666 126.249C438.741 126.222 438.823 126.211 438.904 126.214H440.652C440.693 126.218 440.735 126.208 440.769 126.185C440.798 126.152 440.817 126.11 440.823 126.067L441.007 125.297C441.032 125.22 441.032 125.173 441.019 125.156C441.007 125.139 440.97 125.133 440.916 125.133H438.763C438.538 125.128 438.315 125.164 438.103 125.238C437.92 125.304 437.752 125.402 437.608 125.527C437.473 125.647 437.361 125.788 437.277 125.944C437.192 126.096 437.129 126.258 437.087 126.426L436.275 129.763C436.249 129.851 436.292 129.898 436.403 129.898H437.411ZM454.435 127.294C454.546 127.342 454.644 127.412 454.723 127.5C454.794 127.584 454.848 127.679 454.882 127.782C454.916 127.885 454.933 127.992 454.932 128.1C454.931 128.211 454.916 128.321 454.889 128.428C454.838 128.643 454.745 128.847 454.614 129.028C454.484 129.207 454.322 129.365 454.137 129.493C453.947 129.624 453.736 129.725 453.513 129.792C453.283 129.863 453.044 129.899 452.804 129.898H450.957C450.76 129.898 450.645 129.863 450.608 129.792C450.572 129.722 450.572 129.61 450.608 129.445L451.55 125.579C451.573 125.455 451.631 125.34 451.715 125.244C451.788 125.168 451.923 125.132 452.119 125.132H453.959C454.155 125.131 454.351 125.154 454.54 125.203C454.699 125.241 454.846 125.316 454.968 125.421C455.083 125.523 455.163 125.656 455.201 125.803C455.242 125.987 455.236 126.179 455.183 126.361C455.134 126.551 455.04 126.729 454.908 126.878C454.779 127.036 454.62 127.168 454.438 127.266V127.294H454.435ZM452.571 126.883H453.31C453.407 126.881 453.501 126.857 453.585 126.813C453.676 126.765 453.738 126.677 453.768 126.548C453.799 126.419 453.781 126.366 453.732 126.308C453.669 126.248 453.582 126.218 453.494 126.225H452.729L452.571 126.883ZM453.524 128.347C453.56 128.238 453.544 128.12 453.481 128.023C453.42 127.94 453.31 127.9 453.157 127.9H452.325L452.105 128.787H452.937C453.021 128.789 453.103 128.775 453.181 128.746C453.245 128.719 453.303 128.681 453.352 128.634C453.396 128.593 453.434 128.545 453.462 128.493C453.486 128.446 453.505 128.397 453.517 128.346L453.524 128.347ZM456.477 129.898H458.666L458.656 129.896C458.741 129.896 458.803 129.843 458.827 129.738L459.017 128.967C459.036 128.891 459.036 128.843 459.023 128.826C459.011 128.809 458.974 128.803 458.92 128.803H457.122L456.957 128.791C456.912 128.786 456.87 128.77 456.835 128.744C456.801 128.714 456.779 128.675 456.774 128.632C456.765 128.563 456.772 128.493 456.792 128.426L456.914 127.915H458.816C458.905 127.915 458.963 127.863 458.987 127.757L459.158 127.046C459.177 127.001 459.181 126.953 459.17 126.905C459.158 126.888 459.121 126.876 459.066 126.876H457.165L457.232 126.588C457.245 126.541 457.261 126.496 457.281 126.453C457.302 126.407 457.331 126.365 457.367 126.33C457.411 126.288 457.463 126.256 457.52 126.236C457.596 126.209 457.678 126.197 457.759 126.201H459.452C459.493 126.206 459.535 126.195 459.569 126.171C459.6 126.138 459.621 126.098 459.63 126.053L459.819 125.283C459.838 125.207 459.838 125.159 459.826 125.142C459.813 125.125 459.776 125.119 459.722 125.119H457.631C457.404 125.116 457.177 125.153 456.965 125.231C456.782 125.296 456.614 125.394 456.47 125.519C456.335 125.639 456.223 125.78 456.139 125.936C456.054 126.089 455.991 126.251 455.949 126.418L455.418 128.599C455.381 128.749 455.363 128.903 455.363 129.057C455.363 129.203 455.401 129.346 455.473 129.474C455.553 129.608 455.672 129.714 455.816 129.78C455.976 129.857 456.196 129.898 456.477 129.898ZM463.968 126.211H462.758L461.896 129.755C461.889 129.796 461.873 129.835 461.846 129.867C461.8 129.892 461.747 129.903 461.693 129.896H460.684C460.574 129.896 460.531 129.849 460.556 129.755L461.418 126.212H460.238C460.141 126.212 460.104 126.16 460.128 126.054L460.312 125.29C460.317 125.238 460.341 125.187 460.379 125.149C460.417 125.13 460.459 125.122 460.502 125.126H464.238C464.276 125.121 464.315 125.129 464.348 125.149C464.366 125.166 464.366 125.213 464.348 125.29L464.164 126.054C464.14 126.16 464.078 126.212 463.974 126.212L463.968 126.211ZM446.659 129.755L447.264 127.316V127.315H447.319L447.674 128.162L448.316 129.584C448.34 129.643 448.374 129.698 448.413 129.749C448.443 129.787 448.481 129.818 448.524 129.842C448.568 129.865 448.615 129.879 448.664 129.884L448.841 129.896H449.208C449.424 129.896 449.577 129.844 449.667 129.743C449.763 129.632 449.83 129.501 449.863 129.361L450.884 125.27C450.91 125.176 450.867 125.129 450.756 125.129H449.747C449.694 125.122 449.641 125.132 449.594 125.158C449.567 125.191 449.548 125.229 449.54 125.27L448.935 127.727H448.885L448.537 126.898L447.883 125.441C447.853 125.383 447.819 125.328 447.779 125.276C447.749 125.238 447.712 125.206 447.669 125.182C447.627 125.161 447.582 125.147 447.534 125.141L447.351 125.129H446.984C446.788 125.129 446.641 125.17 446.55 125.241C446.458 125.311 446.39 125.459 446.336 125.67L445.32 129.755C445.295 129.848 445.338 129.896 445.448 129.896H446.451C446.505 129.903 446.558 129.893 446.604 129.867C446.633 129.834 446.651 129.796 446.659 129.755Z" fill="white"/>
<g style="mix-blend-mode:screen" opacity="0.55">
<path d="M630.766 233.965C542.935 257.912 389.048 299.741 387.551 299.327C385.452 298.743 410.774 286.861 409.436 286.106C408.097 285.358 337.46 303.635 332.258 301.45C329.277 300.197 377.975 285.528 420.089 273.226C490.836 258.618 561.084 245.482 630.766 233.965Z" fill="white"/>
</g>
<path opacity="0.75" d="M339.204 296.081C339.204 296.081 581.573 243.197 601.626 241.938C621.68 240.678 411.642 289.832 411.642 289.832C411.642 289.832 445.263 277.427 449.455 277.402C453.647 277.378 339.204 296.081 339.204 296.081Z" fill="white"/>
<path d="M362.168 284.933L371.312 282.913L380.469 280.936L398.789 277.018L417.126 273.191L435.476 269.407C459.947 264.387 484.454 259.544 508.991 254.859C533.535 250.217 558.09 245.624 582.719 241.426C588.87 240.343 595.033 239.333 601.191 238.304C607.354 237.276 613.505 236.23 619.68 235.274L628.934 233.832C632.019 233.358 635.104 232.853 638.194 232.421L647.467 231.07L656.739 229.75L647.503 231.301L638.261 232.822C635.177 233.315 632.104 233.875 629.032 234.404L619.802 236.011C616.729 236.546 613.645 237.045 610.572 237.605L601.355 239.247C595.21 240.349 589.059 241.426 582.92 242.575L564.497 245.952L546.086 249.39L527.676 252.852L509.277 256.35L490.879 259.861L472.486 263.414L435.707 270.544L362.168 284.933Z" fill="white"/>
</g>
</g>
<defs>
<clipPath id="clip0_986_6971">
<rect width="860" height="250" fill="white"/>
</clipPath>
</defs>
</svg>
