<svg viewBox="0 0 375 245" fill="none" xmlns="http://www.w3.org/2000/svg">
<g clip-path="url(#clip0_986_22193)">
<g opacity="0.9">
<path d="M484.667 179.136C479.636 179.175 475.503 177.802 471.174 176.351C464.622 174.193 458.071 171.879 452.026 169.25C441.614 164.739 431.085 160.189 421.101 155.325C413.146 151.442 405.152 147.637 397.235 143.714C388.617 139.477 379.569 135.672 370.912 131.475C365.842 129.004 361.358 126.336 356.366 123.826C349.541 120.374 342.054 117.51 334.917 114.333C328.522 111.469 323.608 107.821 316.823 105.232C311.714 103.271 307.619 100.368 303.447 97.7401C299.157 95.0727 293.97 92.7974 289.057 90.5615C285.157 88.7963 280.984 87.4234 277.396 85.4228C273.185 83.0692 269.168 80.794 264.527 78.7935C256.611 75.3415 248.421 71.6934 241.441 67.5354C235.123 63.7696 230.093 59.8077 222.293 57.258C218.744 56.1204 216.288 52.6685 211.959 54.5513C204.432 57.8072 197.959 63.0635 192.031 67.2608C182.243 74.1647 170.583 79.735 160.443 86.4427C148.627 94.2881 137.591 102.565 124.371 109.547C118.56 112.607 112.711 115.628 106.315 118.216C96.0979 122.335 85.6465 125.826 76.7942 131.044C65.7579 137.555 54.8777 143.596 42.5936 149.284C34.0921 153.246 25.5517 157.129 17.2843 161.287C5.3511 167.25 -6.11411 172.859 -16.2924 179.999C-24.0139 185.412 -30.0975 190.825 -39.6518 195.023C-43.8635 196.866 -47.2173 199.063 -51 201.142C-49.5181 201.456 -46.6714 201.103 -45.2674 201.024C-39.4958 200.789 -33.9192 200.867 -28.1476 200.946C-10.4818 201.26 6.98901 203.535 24.6158 204.359C37.2899 204.947 50.081 204.712 62.7941 204.908C80.1089 205.182 97.3848 204.79 114.739 204.437C139.541 203.927 164.343 203.378 189.145 202.476C207.357 201.809 224.867 201.26 243.079 201.652C278.488 202.397 314.6 204.123 350.048 200.946C371.653 199.024 392.789 195.532 414.472 194.042C424.104 193.375 433.698 193.061 443.369 192.473C454.171 191.806 465.012 190.394 475.815 190.041C477.921 189.962 479.87 190.041 481.937 189.766C484.94 189.374 487.709 188.393 484.706 179.136H484.667Z" fill="#CDCDCD"/>
<path d="M196.67 138.131C197.639 138.234 198.574 138.337 199.543 138.441C208.993 139.474 218.513 140.989 228.137 141.402C226.233 141.092 223.014 138.2 222.044 137.511C218.79 135.203 215.467 132.999 213.078 130.313C215.986 128.557 223.429 130.175 226.683 130.692C228.76 131.036 231.703 131.622 233.883 130.967C233.78 130.416 233.26 129.865 232.88 129.418C248.631 133.826 264.07 138.51 279.44 143.4C278.263 141.781 274.282 139.887 272.171 138.716C268.778 136.822 265.559 134.962 262.304 132.965C257.354 129.934 252.265 126.972 247.35 123.907C243.611 121.565 237.449 118.879 234.68 115.917C236.341 116.193 237.691 116.916 239.041 117.502C244.407 119.809 250.05 121.669 256.108 123.253C271.894 127.386 288.406 131.828 302.184 138.062C299.172 136.615 296.541 134.893 293.703 133.309C289.375 130.933 284.425 129.177 279.994 126.904C275.217 124.458 270.405 122.116 265.697 119.637C260.227 116.847 254.862 114.023 249.6 111.13C245.826 110.648 244.234 109.753 244.823 108.41C255.554 112.921 266.112 117.605 277.052 121.944C276.671 121.772 285.533 125.767 288.337 125.526C285.221 122.117 278.367 119.775 273.278 117.639C267.012 114.988 255.139 110.579 255.554 105.345C255.658 104.036 256.385 102.589 255.139 101.522C253.858 100.936 252.577 100.316 251.296 99.7309C248.457 98.5256 245.757 97.2168 243.196 95.8393C241.361 94.875 238.591 93.704 237.553 92.292C247.523 95.2882 257.423 98.5256 266.666 102.279C274.178 105.31 281.309 109.236 289.514 111.578C291.314 112.095 292.872 112.473 294.914 112.232C292.491 110.683 289.41 109.408 286.606 108.1C283.975 106.86 281.448 105.689 279.059 104.346C273.832 101.35 268.086 98.9388 262.512 96.1837C258.635 94.2551 255.658 92.2232 252.3 90.0535C249.704 88.4004 246.45 87.2639 243.749 85.6453C240.253 83.5445 236.653 81.8225 232.706 80.0317C232.326 79.8595 231.668 79.5151 230.941 79.1363C232.672 79.4807 234.507 79.7561 235.995 80.135C239.526 81.0304 242.572 83.1312 246.38 83.6134C245.584 82.718 242.849 82.1325 241.534 81.4437C238.384 79.7906 236.411 77.7243 233.641 75.899C227.202 71.6285 221.075 67.1514 215.536 62.3988C217.44 63.0531 219.759 63.5697 221.629 64.2929C223.429 64.9817 229.833 68.9078 231.772 67.9779C230.076 66.0838 227.722 64.3963 225.437 62.6743C222.84 60.6769 220.729 58.6104 218.029 56.6818C217.198 56.0964 216.332 55.5454 215.432 55.0288C218.306 54.7189 220.279 56.9918 222.944 57.8528C229.868 60.0913 234.334 63.5697 239.942 66.8758C246.138 70.5264 253.408 73.7293 260.435 76.76C264.555 78.5508 268.12 80.5139 271.859 82.5802C275.044 84.3366 278.748 85.542 282.21 87.0918C286.571 89.0548 291.176 91.0522 294.983 93.3941C298.722 95.6671 302.322 98.2501 306.857 99.972C312.881 102.245 317.243 105.448 322.92 107.962C329.255 110.752 335.902 113.266 341.96 116.296C346.391 118.5 350.372 120.842 354.872 123.012C362.557 126.697 370.623 130.003 378.239 133.757C385.266 137.201 392.363 140.541 399.425 143.951C408.287 148.221 417.634 152.216 426.876 156.177C432.277 158.484 438.092 160.516 443.874 162.41C447.716 163.685 451.386 164.89 455.851 164.856C458.517 172.983 456.059 173.844 453.393 174.189C451.559 174.43 449.828 174.361 447.959 174.43C438.335 174.705 428.711 175.979 419.157 176.565C410.606 177.081 402.056 177.357 393.505 177.942C374.258 179.286 355.495 182.316 336.317 184.004C304.85 186.793 272.759 185.278 241.361 184.624C225.194 184.279 209.651 184.762 193.485 185.347C172.68 186.105 151.84 186.552 131 187C145.747 175.222 160.563 163.547 176.176 152.147C182.442 147.154 189.261 142.47 196.635 138.096L196.67 138.131Z" fill="#EEEEEF"/>
<path d="M220.778 90.1828C219.308 89.9 217.893 89.5322 216.875 88.9948C217.922 88.8534 219.534 89.5606 220.778 90.1828Z" fill="#F9BFBC"/>
<path d="M908.73 217.974C909.098 216.617 905.732 215.089 904.459 214.156C901.32 211.893 896.879 210.139 893.089 208.273C887.714 205.585 740.376 109.416 735.031 106.728C728.355 103.391 723.49 99.2894 717.38 95.6123C712.006 92.3595 707.028 88.8521 701.456 85.7124C698.231 83.9022 694.696 82.3465 691.471 80.5363C687.426 78.2735 683.891 75.6712 679.903 73.3801C677.413 71.9659 674.528 70.9476 672.181 69.4202C669.805 67.8645 667.287 66.4219 664.6 65.0642C662.705 64.1025 660.867 62.9994 658.887 62.1509C657.274 61.4437 655.719 61.0477 654.389 60.1709C651.419 58.2192 647.969 56.6918 644.744 54.8533C642.792 53.7502 640.982 52.8167 638.719 51.9682C637.984 51.6853 637.361 51.2893 636.626 51.0065C636.004 50.7802 635.24 50.6671 634.646 50.4408C634.25 50.2994 634.165 49.7902 633.656 49.6771C630.12 48.7719 624.067 52.449 621.889 53.5804C617.053 56.0695 612.782 58.7283 607.549 60.9628C602.91 62.9428 598.356 65.0077 593.774 67.0442C585.911 70.5233 578.076 74.0024 570.099 77.3967C565.658 79.2918 561.642 81.5546 557.145 83.3931C552.506 85.2882 548.178 87.4945 543.964 89.729C538.193 92.8121 532.48 95.8103 526.851 98.9782C522.127 101.665 517.149 104.466 512.001 106.842C505.128 110.038 497.859 112.866 491.268 116.261C485.074 119.457 478.823 121.154 470.761 122.201C467.678 122.596 464.623 122.936 461.625 123.586C460.013 123.926 458.401 124.435 456.732 124.605C454.554 124.803 452.715 125.001 450.594 125.312C447.087 125.849 443.551 128.451 440.92 129.837C437.017 131.874 433.198 133.882 428.503 135.212C426.071 135.89 423.695 136.315 421.517 137.277C420.046 137.927 418.632 138.549 416.934 138.974C414.021 139.709 411.391 139.992 408.223 140.048C405.168 140.077 402.198 139.794 399.143 139.822C396.71 139.822 394.137 139.37 391.761 139.511C389.639 139.624 388.508 140.388 387.037 141.293C384.208 143.018 381.352 144.744 378.41 146.384C374.365 148.647 369.642 150.175 364.607 151.363C361.524 152.098 358.356 152.72 355.075 153.031C350.153 153.484 344.92 153.512 340.027 153.031C337.142 152.72 334.285 152.211 331.372 151.872C326.393 151.306 321.359 151.108 316.352 150.599C312.251 150.203 308.121 149.892 303.963 149.722C300.201 149.581 296.439 150.797 293.017 151.674C288.208 152.89 284.05 153.371 278.818 153.088C272.312 152.749 266.117 151.928 259.499 152.098C253.672 152.239 247.393 152.211 241.622 152.805C235.909 153.399 230.252 154.7 224.821 155.945C217.438 157.614 210.424 159.876 202.815 161.149C196.536 162.196 190.511 162.705 184.062 162.846C171.956 163.158 159.397 164.402 147.63 166.382C141.379 167.457 135.157 168.871 128.708 169.267C123.984 169.55 119.204 169.38 114.508 169.974C110.435 170.512 106.391 171.954 102.318 172.209C99.0647 172.407 95.3311 172.039 92.1914 172.633C92.3328 173.029 99.8001 174.811 100.309 174.981C109.643 177.809 120.788 178.488 130.772 180.044C150.063 183.042 168.081 188.049 187.4 191.047C196.309 192.32 205.078 193.904 213.677 195.77C225.726 199.023 237.917 202.078 250.249 204.991C262.582 207.113 274.942 209.206 287.303 211.242C293.384 212.628 299.437 214.014 305.519 215.4C316.578 218.455 328.204 220.463 340.366 221.453C353.745 222.387 366.926 223.801 379.937 225.724C386.301 226.63 392.694 227.507 399.086 228.412C412.946 229.769 426.891 229.741 440.92 228.327C453.96 227.252 794.656 289.084 806.281 285.604C816.888 282.578 827.325 279.382 837.621 275.959C841.751 274.29 845.88 272.65 850.01 270.981C857.308 267.304 864.238 263.401 870.743 259.214C878.833 254.378 886.809 249.682 893.682 244.195C896.794 241.536 899.99 238.877 903.215 236.275C905.364 234.663 906.524 232.852 906.694 230.844C907.09 228.016 906.467 225.074 908.759 218.059L908.73 217.974Z" fill="#EEEEEF"/>
<path d="M638.04 56.2953C639.511 57.7378 641.321 59.0955 642.99 60.4532C642.141 60.5664 637.304 58.3602 636.399 58.0207C634.221 57.2005 632.354 56.1256 629.809 55.7579C633.344 56.465 636.003 59.2652 638.04 61.0755C640.161 62.9706 641.66 65.1203 643.414 67.1568C644.404 68.3165 645.988 68.7974 646.101 70.1268C646.186 71.0602 645.733 72.333 646.327 73.1816C646.384 73.2382 646.441 73.323 646.497 73.3796C643.046 71.0885 639.737 68.7409 636.739 66.3366C635.466 65.3466 633.344 63.6495 630.742 63.9323C628.225 64.1869 628.027 64.9223 629.073 65.9406C627.999 66.3649 625.085 66.4497 624.831 67.1851C624.519 68.062 627.687 69.3065 628.649 69.7308C632.326 71.3996 636.71 72.5028 639.878 74.5676C641.717 75.7839 642.792 77.2264 644.772 78.3861C649.948 81.356 653.201 85.0897 657.755 88.3142C661.205 90.775 664.345 92.9813 668.503 94.9896C669.804 95.6119 674.16 97.6201 674.16 98.9495C671.982 98.6667 670.342 97.4504 668.616 96.6584C665.929 95.4139 663.27 94.1975 660.668 92.8964C654.445 89.7568 647.883 86.6171 642.367 83.0249C641.151 82.2329 640.076 81.6955 638.747 81.1864C637.248 80.5924 635.805 79.7721 633.995 79.4609C631.789 81.0732 624.774 77.085 622.851 76.6324C622.511 77.5092 626.669 79.1781 627.093 79.3761C630.176 80.96 633.146 82.6288 636.088 84.2977C639.115 86.0231 642.283 87.4657 644.234 89.6436C645.762 91.3408 647.374 93.0096 649.439 94.5087C651.645 96.0927 655.266 97.224 657.019 98.9777C655.577 98.8929 654.389 97.903 653.37 97.3655C650.514 95.8947 647.628 94.4521 644.8 92.9813C642.565 91.8216 640.133 91.0013 637.729 89.983C639.878 91.8782 642.961 93.151 645.394 94.8764C647.544 96.4038 649.382 98.2423 651.334 99.8829C655.746 103.588 660.809 106.954 665.165 110.716C670.483 115.298 676.31 119.739 682.023 124.152C678.233 122.398 674.669 120.361 670.936 118.579C665.052 115.751 658.943 113.064 653.144 110.15C651.475 109.33 650.004 108.227 648.166 107.52C647.261 107.181 646.186 107.039 645.394 106.586C648.222 108.453 650.57 110.575 652.861 112.696C653.568 113.347 657.981 116.288 657.811 117.222C654.672 116.515 651.645 114.62 649.071 113.432C645.196 111.65 641.689 109.698 636.993 108.793C628.197 107.067 623.36 101.637 614.591 99.9112C613.064 99.6566 611.508 99.4586 609.953 99.2889C608.227 98.6949 606.643 97.9878 605.144 97.1675C602.061 95.5835 599.317 93.7168 596.064 92.2459C594.169 91.3974 592.359 90.973 590.266 90.4073C588.767 90.0113 586.985 88.8234 585.203 89.0497C585.175 90.6054 588.456 92.557 589.474 93.8016C590.407 94.9613 589.587 97.5635 589.502 98.8929C589.333 101.354 588.823 103.871 589.021 106.332C589.163 108.086 590.266 109.443 590.747 111.169C592.02 115.779 591.256 121.182 591.426 125.849C591.595 131.082 592.02 136.343 592.048 141.575C587.437 138.719 582.855 135.239 576.208 134.023C573.182 133.571 570.07 133.429 566.931 133.627C563.932 133.373 561.217 132.722 558.813 131.647C555.956 130.629 552.873 129.978 549.535 129.752C546.848 129.667 544.218 129.894 541.644 130.403C536.213 130.742 531.8 128.677 526.652 128.14C522.721 127.744 518.733 128.14 514.744 127.8C508.097 127.263 501.507 126.443 494.888 125.792C490.136 125.34 485.101 124.519 480.265 124.434C479.925 125.849 481.82 127.404 482.839 128.536C479.275 127.037 475.513 124.378 470.874 124.519C468.555 124.604 465.669 125.227 463.435 125.453C460.889 125.736 458.428 125.934 455.854 126.018C457.75 128.112 460.239 129.752 461.144 132.156C462.473 135.664 465.217 138.181 468.894 140.953C475.909 146.214 483.404 151.249 490.617 156.425C494.492 159.197 498.169 162.026 502.101 164.713C497.207 162.308 491.692 160.215 486.827 158.151C476.842 153.851 467.027 149.382 457.014 145.139C452.036 143.018 446.096 140.161 440.213 138.945C442.843 143.725 450.395 147.204 454.893 151.277C448.755 148.732 442.589 146.186 436.422 143.668C434.329 142.82 431.699 141.406 429.097 141.236C427.145 141.094 421.516 141.575 420.781 141.604C416.792 141.745 411.079 141.236 407.572 142.537C407.968 143.838 408.788 144.998 410.004 146.044C405.28 143.81 400.585 141.519 395.239 139.822C394.787 140.614 394.023 140.642 392.665 140.925C392.184 143.018 393.401 144.856 396.314 146.384C399.34 149.41 402.904 152.182 406.978 154.671C419.055 162.704 432.236 170.285 445.7 177.469C434.188 171.473 422.252 165.788 409.891 160.413C403.951 156.369 396.823 153.597 388.536 152.126C388.14 153.342 387.602 154.53 386.952 155.69C385.339 156.142 383.67 156.312 381.888 156.199C378.947 156.34 375.637 156.991 372.639 157.047C372.696 157.047 372.724 156.991 372.781 156.963C372.611 156.963 371.621 157.019 371.451 157.047C371.847 157.047 372.243 157.047 372.668 157.047C371.112 158.094 372.894 159.848 374.082 160.555C375.326 161.262 375.92 161.828 376.854 162.62C377.929 163.553 379.371 164.006 380.672 164.769C383.105 166.184 385 167.937 387.178 169.436C388.734 170.511 392.128 171.388 393.005 172.661C391.477 172.859 388.055 171.388 386.867 170.964C382.313 169.352 377.674 167.768 372.865 166.466C368.623 165.307 364.861 163.836 360.477 162.874C357.309 162.167 354.141 160.696 350.831 160.385C350.011 160.3 349.219 160.442 348.455 160.357C347.918 160.3 347.748 159.989 347.154 159.904C345.457 159.706 343.986 160.046 342.742 160.696C340.055 162.11 335.246 163.355 331.597 162.959C326.874 162.45 323.621 159.423 319.152 158.377C316.804 157.811 314.372 157.557 312.109 156.906C307.696 155.661 304.274 152.691 300.399 150.768C299.946 150.542 299.465 150.316 298.984 150.089C300.568 149.778 302.181 149.608 303.765 149.665C307.923 149.835 312.052 150.146 316.154 150.542C321.16 151.023 326.195 151.221 331.173 151.815C334.058 152.154 336.915 152.663 339.828 152.974C344.693 153.484 349.926 153.455 354.876 152.974C358.157 152.663 361.325 152.041 364.408 151.305C369.471 150.117 374.167 148.59 378.211 146.327C381.153 144.687 384.01 142.933 386.838 141.236C388.337 140.331 389.441 139.567 391.562 139.454C393.966 139.341 396.512 139.793 398.944 139.765C401.999 139.765 404.969 140.02 408.024 139.991C411.164 139.963 413.823 139.652 416.736 138.917C418.405 138.492 419.847 137.87 421.318 137.219C423.496 136.258 425.9 135.833 428.305 135.155C433 133.853 436.818 131.845 440.722 129.78C443.381 128.394 446.888 125.792 450.395 125.255C452.517 124.944 454.355 124.746 456.533 124.548C458.23 124.406 459.814 123.869 461.427 123.529C464.425 122.907 467.48 122.539 470.563 122.143C478.624 121.097 484.875 119.4 491.07 116.204C497.66 112.809 504.958 109.952 511.803 106.784C516.951 104.409 521.901 101.58 526.652 98.9212C532.281 95.7532 537.995 92.755 543.765 89.6719C547.98 87.4374 552.307 85.2594 556.946 83.336C561.443 81.4974 565.46 79.2346 569.901 77.3395C577.877 73.9453 585.712 70.4662 593.575 66.9871C598.158 64.9506 602.712 62.8858 607.35 60.9058C612.583 58.6713 616.882 56.0125 621.691 53.5234C623.501 52.59 627.942 49.9311 631.421 49.5352C632.439 50.4686 633.429 51.402 634.363 52.3354C635.664 53.6082 636.512 55.0508 637.814 56.3236L638.04 56.2953Z" fill="#CDCDCD"/>
<path d="M372.92 156.965C372.92 156.965 372.835 157.021 372.779 157.05C372.383 157.05 371.958 157.05 371.562 157.05C371.732 157.05 372.722 156.993 372.892 156.965H372.92Z" fill="#F9BFBC"/>
<path d="M306.11 174.531C303.508 173.399 300.849 172.155 298.219 170.91C299.067 171.25 299.888 171.617 300.708 171.985C302.264 172.692 304.866 173.654 306.139 174.559L306.11 174.531Z" fill="#F9BFBC"/>
<path d="M280.542 158.546C281.928 159.225 283.173 159.848 284.672 160.442C285.521 160.781 287.076 161.234 287.387 161.771C286.68 161.941 285.775 161.969 285.04 162.026C284.106 164.628 289.424 166.862 292.337 168.164C294.289 169.04 296.241 169.946 298.192 170.879C296.439 170.144 294.657 169.465 292.931 168.729C289.735 167.4 286.454 166.212 283.173 164.996C278.421 163.214 274.065 161.121 269.257 159.395C262.61 156.991 256.047 154.558 249.344 152.211C252.738 152.097 256.161 152.069 259.442 151.984C260.997 151.956 262.553 151.984 264.08 152.013C265.325 152.55 266.541 153.059 267.814 153.54C272.057 155.181 276.582 156.538 280.514 158.49L280.542 158.546Z" fill="#CDCDCD"/>
<path d="M-85.4102 175.434H41.1975L825.449 167.381L1213.33 157.539L1329.2 175.434V352.595H-85.4102V175.434Z" fill="#EEEEEF"/>
</g>
<mask id="mask0_986_22193" style="mask-type:luminance" maskUnits="userSpaceOnUse" x="-134" y="83" width="917" height="195">
<path d="M783 83.1406H-134V277.461H783V83.1406Z" fill="white"/>
</mask>
<g mask="url(#mask0_986_22193)">
<path d="M199.591 98.4414C199.591 98.4414 199.638 98.4929 199.722 98.5912L199.591 99.4992V98.4414Z" fill="#7AB0D8"/>
<path d="M237.607 103.512C237.565 103.502 237.528 103.498 237.49 103.488C237.593 103.502 237.696 103.521 237.799 103.54C237.734 103.53 237.668 103.516 237.607 103.512Z" fill="#C9E5FF"/>
<path d="M4.17202 155.059H0.469727V170.355H4.17202V155.059Z" fill="#6F828C"/>
<path d="M30.3566 155.059H26.6543V170.355H30.3566V155.059Z" fill="#6F828C"/>
<path d="M56.5392 155.059H52.8369V170.355H56.5392V155.059Z" fill="#6F828C"/>
<path d="M82.7208 155.059H79.0186V170.355H82.7208V155.059Z" fill="#6F828C"/>
<path d="M108.903 155.059H105.201V170.355H108.903V155.059Z" fill="#6F828C"/>
<path d="M135.087 155.059H131.385V170.355H135.087V155.059Z" fill="#6F828C"/>
<path d="M161.269 155.059H157.566V170.355H161.269V155.059Z" fill="#6F828C"/>
<path d="M187.45 155.059H183.748V170.355H187.45V155.059Z" fill="#6F828C"/>
<path d="M213.629 155.059H209.927V170.355H213.629V155.059Z" fill="#6F828C"/>
<path d="M239.814 155.059H236.111V170.355H239.814V155.059Z" fill="#6F828C"/>
<path d="M265.996 155.059H262.294V170.355H265.996V155.059Z" fill="#6F828C"/>
<path d="M292.179 155.059H288.477V170.355H292.179V155.059Z" fill="#6F828C"/>
<path d="M318.363 155.059H314.661V170.355H318.363V155.059Z" fill="#6F828C"/>
<path d="M344.545 155.059H340.843V170.355H344.545V155.059Z" fill="#6F828C"/>
<path d="M370.728 155.059H367.025V170.355H370.728V155.059Z" fill="#6F828C"/>
<g style="mix-blend-mode:multiply" opacity="0.15">
<path d="M4.17202 155.059H0.469727V161.574H4.17202V155.059Z" fill="#3E484E"/>
<path d="M30.3566 155.059H26.6543V161.574H30.3566V155.059Z" fill="#3E484E"/>
<path d="M56.5392 155.059H52.8369V161.574H56.5392V155.059Z" fill="#3E484E"/>
<path d="M82.7208 155.059H79.0186V161.574H82.7208V155.059Z" fill="#3E484E"/>
<path d="M108.903 155.059H105.201V161.574H108.903V155.059Z" fill="#3E484E"/>
<path d="M135.087 155.059H131.385V161.574H135.087V155.059Z" fill="#3E484E"/>
<path d="M161.269 155.059H157.566V161.574H161.269V155.059Z" fill="#3E484E"/>
<path d="M187.45 155.059H183.748V161.574H187.45V155.059Z" fill="#3E484E"/>
<path d="M213.629 155.059H209.927V161.574H213.629V155.059Z" fill="#3E484E"/>
<path d="M239.814 155.059H236.111V161.574H239.814V155.059Z" fill="#3E484E"/>
<path d="M265.996 155.059H262.294V161.574H265.996V155.059Z" fill="#3E484E"/>
<path d="M292.179 155.059H288.477V161.574H292.179V155.059Z" fill="#3E484E"/>
<path d="M318.363 155.059H314.661V161.574H318.363V155.059Z" fill="#3E484E"/>
<path d="M344.545 155.059H340.843V161.574H344.545V155.059Z" fill="#3E484E"/>
<path d="M370.728 155.059H367.025V161.574H370.728V155.059Z" fill="#3E484E"/>
</g>
<path d="M837.925 166.176H-165.044V177.161H837.925V166.176Z" fill="#60717A"/>
<path d="M831.238 155.191H-147.851V158.535H831.238V155.191Z" fill="#8FA9B5"/>
<path d="M27.5403 178.703H-4.22168V400.677H27.5403V178.703Z" fill="#758A94"/>
<path d="M34.6828 193.16H-10.9336V204.974H34.6828V193.16Z" fill="#6F828C"/>
<path d="M31.3008 204.973H-7.56152V209.265H31.3008V204.973Z" fill="#60717A"/>
<path d="M54.162 176.746H-30.415V182.175H54.162V176.746Z" fill="#6F828C"/>
<path d="M34.4603 193.16H-11.1514V204.974H34.4603V193.16Z" fill="#758A94"/>
<g style="mix-blend-mode:multiply" opacity="0.15">
<path d="M34.465 193.16H-11.1514V198.646H34.465V193.16Z" fill="#3E484E"/>
</g>
<path d="M53.9471 176.746H-30.6299V182.175H53.9471V176.746Z" fill="#6F828C"/>
<path d="M49.4114 182.172L47.132 183.843L34.4619 193.157H-10.9345L-23.7872 183.843L-26.0947 182.172H49.4114Z" fill="#60717A"/>
<g style="mix-blend-mode:multiply" opacity="0.15">
<path d="M31.3008 204.973H-7.56152V206.47H31.3008V204.973Z" fill="#3E484E"/>
</g>
<g style="mix-blend-mode:multiply" opacity="0.15">
<path d="M34.6783 193.16H25.7666V204.974H34.6783V193.16Z" fill="#3E484E"/>
</g>
<path d="M266.45 178.945H234.688V400.919H266.45V178.945Z" fill="#758A94"/>
<path d="M273.595 193.402H227.979V205.216H273.595V193.402Z" fill="#6F828C"/>
<path d="M270.215 205.215H231.353V209.507H270.215V205.215Z" fill="#60717A"/>
<path d="M293.076 176.988H208.499V182.418H293.076V176.988Z" fill="#6F828C"/>
<path d="M273.375 193.402H227.764V205.216H273.375V193.402Z" fill="#8FA9B5"/>
<path d="M292.859 176.988H208.282V182.418H292.859V176.988Z" fill="#8FA9B5"/>
<path d="M288.324 182.414L286.044 184.085L273.374 193.399H227.978L215.125 184.085L212.817 182.414H288.324Z" fill="#60717A"/>
<g style="mix-blend-mode:multiply" opacity="0.15">
<path d="M270.215 205.215H231.353V206.713H270.215V205.215Z" fill="#3E484E"/>
</g>
<g style="mix-blend-mode:multiply" opacity="0.15">
<path d="M273.593 193.402H264.677V205.216H273.593V193.402Z" fill="#3E484E"/>
</g>
<rect x="140.275" y="125.461" width="1.89001" height="13.0583" fill="#233498"/>
<rect x="207.973" y="125.461" width="1.89001" height="13.0583" fill="#233498"/>
<path d="M166.385 147.508L167.838 152.094H183.55L185.778 147.508H166.385Z" fill="#6E88D4"/>
<rect x="142.169" y="116.504" width="65.8131" height="30.889" rx="8" fill="#FF1700"/>
<path d="M203.073 117.707H192.95C191.67 117.707 190.623 118.422 190.623 119.307V147.604H205.399V119.307C205.399 118.427 204.36 117.707 203.073 117.707Z" fill="#FF6353"/>
<path d="M196.468 148.074H192.516V151.85H196.468V148.074Z" fill="#4D62A0"/>
<path d="M157.513 119.223H146.132C145.688 119.223 145.329 119.581 145.329 120.024V126.593C145.329 127.035 145.688 127.394 146.132 127.394H157.513C157.956 127.394 158.316 127.035 158.316 126.593V120.024C158.316 119.581 157.956 119.223 157.513 119.223Z" fill="#0B1E8D"/>
<path d="M172.912 119.223H161.531C161.088 119.223 160.729 119.581 160.729 120.024V126.593C160.729 127.035 161.088 127.394 161.531 127.394H172.912C173.356 127.394 173.715 127.035 173.715 126.593V120.024C173.715 119.581 173.356 119.223 172.912 119.223Z" fill="#0B1E8D"/>
<path d="M188.308 119.223H176.927C176.483 119.223 176.124 119.581 176.124 120.024V126.593C176.124 127.035 176.483 127.394 176.927 127.394H188.308C188.751 127.394 189.111 127.035 189.111 126.593V120.024C189.111 119.581 188.751 119.223 188.308 119.223Z" fill="#0B1E8D"/>
<path d="M203.706 119.223H192.325C191.882 119.223 191.522 119.581 191.522 120.024V126.593C191.522 127.035 191.882 127.394 192.325 127.394H203.706C204.15 127.394 204.509 127.035 204.509 126.593V120.024C204.509 119.581 204.15 119.223 203.706 119.223Z" fill="#0B1E8D"/>
<path d="M154.783 151.166C154.783 153.099 153.216 154.664 151.28 154.664C149.344 154.664 147.777 153.099 147.777 151.166C147.777 149.233 149.344 147.668 151.28 147.668C153.216 147.668 154.783 149.233 154.783 151.166Z" fill="#2238B3"/>
<path d="M153.569 151.168C153.569 152.43 152.544 153.453 151.28 153.453C150.017 153.453 148.992 152.43 148.992 151.168C148.992 149.906 150.017 148.883 151.28 148.883C152.544 148.883 153.569 149.906 153.569 151.168Z" fill="#4D62A0"/>
<path d="M166.169 151.166C166.169 153.099 164.602 154.664 162.666 154.664C160.73 154.664 159.163 153.099 159.163 151.166C159.163 149.233 160.73 147.668 162.666 147.668C164.602 147.668 166.169 149.233 166.169 151.166Z" fill="#2238B3"/>
<path d="M164.961 151.168C164.961 152.43 163.936 153.453 162.673 153.453C161.41 153.453 160.385 152.43 160.385 151.168C160.385 149.906 161.41 148.883 162.673 148.883C163.936 148.883 164.961 149.906 164.961 151.168Z" fill="#4D62A0"/>
<path d="M159.009 148.074H154.885V151.85H159.009V148.074Z" fill="#4D62A0"/>
<path d="M162.397 152.433H150.966C150.24 152.433 149.654 151.849 149.654 151.123C149.654 150.397 150.24 149.812 150.966 149.812H162.397C163.123 149.812 163.709 150.397 163.709 151.123C163.709 151.849 163.123 152.433 162.397 152.433Z" fill="#738BD3"/>
<path d="M192.32 151.17C192.32 153.103 190.753 154.668 188.817 154.668C186.882 154.668 185.314 153.103 185.314 151.17C185.314 149.237 186.882 147.672 188.817 147.672C190.753 147.672 192.32 149.237 192.32 151.17Z" fill="#2238B3"/>
<path d="M191.105 151.168C191.105 152.43 190.08 153.453 188.817 153.453C187.553 153.453 186.528 152.43 186.528 151.168C186.528 149.906 187.553 148.883 188.817 148.883C190.08 148.883 191.105 149.906 191.105 151.168Z" fill="#4D62A0"/>
<path d="M203.707 151.17C203.707 153.103 202.14 154.668 200.204 154.668C198.268 154.668 196.701 153.103 196.701 151.17C196.701 149.237 198.268 147.672 200.204 147.672C202.14 147.672 203.707 149.237 203.707 151.17Z" fill="#2238B3"/>
<path d="M202.498 151.168C202.498 152.43 201.474 153.453 200.21 153.453C198.947 153.453 197.922 152.43 197.922 151.168C197.922 149.906 198.947 148.883 200.21 148.883C201.474 148.883 202.498 149.906 202.498 151.168Z" fill="#4D62A0"/>
<path d="M199.933 152.262H188.503C187.776 152.262 187.19 151.677 187.19 150.951C187.19 150.225 187.776 149.641 188.503 149.641H199.933C200.659 149.641 201.245 150.225 201.245 150.951C201.245 151.677 200.659 152.262 199.933 152.262Z" fill="#738BD3"/>
<path opacity="0.1" d="M151.229 119.224L145.329 125.116V126.589C145.329 127.033 145.687 127.39 146.132 127.39H148.024L156.206 119.219H151.229V119.224Z" fill="white"/>
<path opacity="0.1" d="M148.604 119.227H146.132C145.687 119.227 145.329 119.584 145.329 120.028V122.497L148.604 119.227Z" fill="white"/>
<path opacity="0.1" d="M182.587 119.223H177.604L176.124 120.701V125.677L182.587 119.223Z" fill="white"/>
<path opacity="0.1" d="M173.715 120.032C173.715 119.588 173.357 119.23 172.912 119.23H165.018L160.729 123.514V126.6C160.729 127.044 161.086 127.402 161.531 127.402H166.796L173.715 120.492V120.032Z" fill="white"/>
<path opacity="0.1" d="M173.715 126.593V123.105L169.421 127.394H172.913C173.357 127.394 173.715 127.037 173.715 126.593Z" fill="white"/>
<path opacity="0.1" d="M158.315 125.918L156.829 127.402H157.507C157.951 127.402 158.309 127.044 158.309 126.6V125.923L158.315 125.918Z" fill="white"/>
<path opacity="0.1" d="M192.325 119.223C191.88 119.223 191.522 119.58 191.522 120.024V126.593C191.522 127.037 191.88 127.394 192.325 127.394H193.382L201.565 119.223H192.325Z" fill="white"/>
<path opacity="0.1" d="M204.509 123.878V120.028C204.509 119.725 204.335 119.465 204.091 119.324L196.012 127.393H200.989L204.509 123.878Z" fill="white"/>
<path opacity="0.1" d="M189.115 121.719L183.422 127.405H188.307C188.752 127.405 189.11 127.047 189.11 126.603V121.724L189.115 121.719Z" fill="white"/>
<path d="M98.6875 147.512L100.141 152.098H115.853L118.081 147.512H98.6875Z" fill="#6E88D4"/>
<rect x="74.4717" y="116.531" width="65.8131" height="30.889" rx="8" fill="#FF1700"/>
<path d="M135.375 117.711H125.253C123.973 117.711 122.926 118.426 122.926 119.31V147.607H137.702V119.31C137.702 118.431 136.663 117.711 135.375 117.711Z" fill="#FF6353"/>
<path d="M128.77 148.078H124.817V151.853H128.77V148.078Z" fill="#4D62A0"/>
<path d="M89.8148 119.227H78.4334C77.9902 119.227 77.6309 119.585 77.6309 120.028V126.596C77.6309 127.039 77.9902 127.398 78.4334 127.398H89.8148C90.258 127.398 90.6173 127.039 90.6173 126.596V120.028C90.6173 119.585 90.258 119.227 89.8148 119.227Z" fill="#0B1E8D"/>
<path d="M105.214 119.227H93.8328C93.3896 119.227 93.0303 119.585 93.0303 120.028V126.596C93.0303 127.039 93.3896 127.398 93.8328 127.398H105.214C105.657 127.398 106.017 127.039 106.017 126.596V120.028C106.017 119.585 105.657 119.227 105.214 119.227Z" fill="#0B1E8D"/>
<path d="M120.61 119.227H109.228C108.785 119.227 108.426 119.585 108.426 120.028V126.596C108.426 127.039 108.785 127.398 109.228 127.398H120.61C121.053 127.398 121.412 127.039 121.412 126.596V120.028C121.412 119.585 121.053 119.227 120.61 119.227Z" fill="#0B1E8D"/>
<path d="M136.008 119.227H124.627C124.184 119.227 123.824 119.585 123.824 120.028V126.596C123.824 127.039 124.184 127.398 124.627 127.398H136.008C136.451 127.398 136.811 127.039 136.811 126.596V120.028C136.811 119.585 136.451 119.227 136.008 119.227Z" fill="#0B1E8D"/>
<path d="M87.0848 151.17C87.0848 153.103 85.5177 154.668 83.5819 154.668C81.6462 154.668 80.0791 153.103 80.0791 151.17C80.0791 149.237 81.6462 147.672 83.5819 147.672C85.5177 147.672 87.0848 149.237 87.0848 151.17Z" fill="#2238B3"/>
<path d="M85.8704 151.172C85.8704 152.434 84.8456 153.457 83.5822 153.457C82.3188 153.457 81.2939 152.434 81.2939 151.172C81.2939 149.91 82.3188 148.887 83.5822 148.887C84.8456 148.887 85.8704 149.91 85.8704 151.172Z" fill="#4D62A0"/>
<path d="M98.4705 151.17C98.4705 153.103 96.9034 154.668 94.9677 154.668C93.0319 154.668 91.4648 153.103 91.4648 151.17C91.4648 149.237 93.0319 147.672 94.9677 147.672C96.9034 147.672 98.4705 149.237 98.4705 151.17Z" fill="#2238B3"/>
<path d="M97.263 151.172C97.263 152.434 96.2381 153.457 94.9747 153.457C93.7113 153.457 92.6865 152.434 92.6865 151.172C92.6865 149.91 93.7113 148.887 94.9747 148.887C96.2381 148.887 97.263 149.91 97.263 151.172Z" fill="#4D62A0"/>
<path d="M91.3106 148.078H87.1865V151.853H91.3106V148.078Z" fill="#4D62A0"/>
<path d="M94.6985 152.437H83.2683C82.5417 152.437 81.9561 151.852 81.9561 151.127C81.9561 150.401 82.5417 149.816 83.2683 149.816H94.6985C95.4251 149.816 96.0107 150.401 96.0107 151.127C96.0107 151.852 95.4251 152.437 94.6985 152.437Z" fill="#738BD3"/>
<path d="M124.621 151.174C124.621 153.107 123.054 154.672 121.118 154.672C119.182 154.672 117.615 153.107 117.615 151.174C117.615 149.241 119.182 147.676 121.118 147.676C123.054 147.676 124.621 149.241 124.621 151.174Z" fill="#2238B3"/>
<path d="M123.407 151.172C123.407 152.434 122.382 153.457 121.118 153.457C119.855 153.457 118.83 152.434 118.83 151.172C118.83 149.91 119.855 148.887 121.118 148.887C122.382 148.887 123.407 149.91 123.407 151.172Z" fill="#4D62A0"/>
<path d="M136.009 151.174C136.009 153.107 134.442 154.672 132.506 154.672C130.57 154.672 129.003 153.107 129.003 151.174C129.003 149.241 130.57 147.676 132.506 147.676C134.442 147.676 136.009 149.241 136.009 151.174Z" fill="#2238B3"/>
<path d="M134.8 151.172C134.8 152.434 133.775 153.457 132.512 153.457C131.248 153.457 130.224 152.434 130.224 151.172C130.224 149.91 131.248 148.887 132.512 148.887C133.775 148.887 134.8 149.91 134.8 151.172Z" fill="#4D62A0"/>
<path d="M132.235 152.265H120.804C120.078 152.265 119.492 151.681 119.492 150.955C119.492 150.229 120.078 149.645 120.804 149.645H132.235C132.961 149.645 133.547 150.229 133.547 150.955C133.547 151.681 132.961 152.265 132.235 152.265Z" fill="#738BD3"/>
<path opacity="0.1" d="M83.5303 119.224L77.6309 125.116V126.589C77.6309 127.033 77.9887 127.39 78.4334 127.39H80.3258L88.508 119.219H83.5303V119.224Z" fill="white"/>
<path opacity="0.1" d="M80.9059 119.227H78.4334C77.9887 119.227 77.6309 119.584 77.6309 120.028V122.497L80.9059 119.227Z" fill="white"/>
<path opacity="0.1" d="M114.889 119.227H109.906L108.426 120.705V125.681L114.889 119.227Z" fill="white"/>
<path opacity="0.1" d="M106.017 120.032C106.017 119.588 105.659 119.23 105.214 119.23H97.3193L93.0303 123.514V126.6C93.0303 127.044 93.3881 127.402 93.8328 127.402H99.0979L106.017 120.492V120.032Z" fill="white"/>
<path opacity="0.1" d="M106.017 126.593V123.105L101.723 127.394H105.215C105.659 127.394 106.017 127.037 106.017 126.593Z" fill="white"/>
<path opacity="0.1" d="M90.6164 125.922L89.1309 127.406H89.8086C90.2532 127.406 90.611 127.048 90.611 126.604V125.927L90.6164 125.922Z" fill="white"/>
<path opacity="0.1" d="M124.627 119.227C124.182 119.227 123.824 119.584 123.824 120.028V126.596C123.824 127.04 124.182 127.398 124.627 127.398H125.684L133.866 119.227H124.627Z" fill="white"/>
<path opacity="0.1" d="M136.81 123.882V120.032C136.81 119.729 136.637 119.469 136.393 119.328L128.313 127.397H133.291L136.81 123.882Z" fill="white"/>
<path opacity="0.1" d="M121.417 121.719L115.724 127.405H120.609C121.054 127.405 121.412 127.047 121.412 126.603V121.724L121.417 121.719Z" fill="white"/>
<rect x="72.5791" y="125.461" width="1.89001" height="13.0583" fill="#233498"/>
<path d="M30.9873 147.512L32.4405 152.098H48.1524L50.381 147.512H30.9873Z" fill="#6E88D4"/>
<rect x="6.77148" y="116.531" width="65.8131" height="30.889" rx="8" fill="#FF1700"/>
<path d="M67.6751 117.711H57.5523C56.273 117.711 55.2255 118.426 55.2255 119.31V147.607H70.002V119.31C70.002 118.431 68.9625 117.711 67.6751 117.711Z" fill="#FF6353"/>
<path d="M61.0704 148.078H57.1182V151.853H61.0704V148.078Z" fill="#4D62A0"/>
<path d="M22.1156 119.227H10.7341C10.2909 119.227 9.93164 119.585 9.93164 120.028V126.596C9.93164 127.039 10.2909 127.398 10.7341 127.398H22.1156C22.5588 127.398 22.9181 127.039 22.9181 126.596V120.028C22.9181 119.585 22.5588 119.227 22.1156 119.227Z" fill="#0B1E8D"/>
<path d="M37.515 119.227H26.1336C25.6903 119.227 25.3311 119.585 25.3311 120.028V126.596C25.3311 127.039 25.6903 127.398 26.1336 127.398H37.515C37.9582 127.398 38.3175 127.039 38.3175 126.596V120.028C38.3175 119.585 37.9582 119.227 37.515 119.227Z" fill="#0B1E8D"/>
<path d="M52.9105 119.227H41.5291C41.0859 119.227 40.7266 119.585 40.7266 120.028V126.596C40.7266 127.039 41.0859 127.398 41.5291 127.398H52.9105C53.3537 127.398 53.713 127.039 53.713 126.596V120.028C53.713 119.585 53.3537 119.227 52.9105 119.227Z" fill="#0B1E8D"/>
<path d="M68.309 119.227H56.9275C56.4843 119.227 56.125 119.585 56.125 120.028V126.596C56.125 127.039 56.4843 127.398 56.9275 127.398H68.309C68.7522 127.398 69.1115 127.039 69.1115 126.596V120.028C69.1115 119.585 68.7522 119.227 68.309 119.227Z" fill="#0B1E8D"/>
<path d="M19.3855 151.17C19.3855 153.103 17.8185 154.668 15.8827 154.668C13.9469 154.668 12.3799 153.103 12.3799 151.17C12.3799 149.237 13.9469 147.672 15.8827 147.672C17.8185 147.672 19.3855 149.237 19.3855 151.17Z" fill="#2238B3"/>
<path d="M18.1712 151.172C18.1712 152.434 17.1464 153.457 15.8829 153.457C14.6195 153.457 13.5947 152.434 13.5947 151.172C13.5947 149.91 14.6195 148.887 15.8829 148.887C17.1464 148.887 18.1712 149.91 18.1712 151.172Z" fill="#4D62A0"/>
<path d="M30.7713 151.17C30.7713 153.103 29.2042 154.668 27.2685 154.668C25.3327 154.668 23.7656 153.103 23.7656 151.17C23.7656 149.237 25.3327 147.672 27.2685 147.672C29.2042 147.672 30.7713 149.237 30.7713 151.17Z" fill="#2238B3"/>
<path d="M29.5638 151.172C29.5638 152.434 28.5389 153.457 27.2755 153.457C26.0121 153.457 24.9873 152.434 24.9873 151.172C24.9873 149.91 26.0121 148.887 27.2755 148.887C28.5389 148.887 29.5638 149.91 29.5638 151.172Z" fill="#4D62A0"/>
<path d="M23.6114 148.078H19.4873V151.853H23.6114V148.078Z" fill="#4D62A0"/>
<path d="M26.9993 152.437H15.569C14.8424 152.437 14.2568 151.852 14.2568 151.127C14.2568 150.401 14.8424 149.816 15.569 149.816H26.9993C27.7259 149.816 28.3115 150.401 28.3115 151.127C28.3115 151.852 27.7259 152.437 26.9993 152.437Z" fill="#738BD3"/>
<path d="M56.9226 151.174C56.9226 153.107 55.3556 154.672 53.4198 154.672C51.484 154.672 49.917 153.107 49.917 151.174C49.917 149.241 51.484 147.676 53.4198 147.676C55.3556 147.676 56.9226 149.241 56.9226 151.174Z" fill="#2238B3"/>
<path d="M55.7073 151.172C55.7073 152.434 54.6825 153.457 53.4191 153.457C52.1557 153.457 51.1309 152.434 51.1309 151.172C51.1309 149.91 52.1557 148.887 53.4191 148.887C54.6825 148.887 55.7073 149.91 55.7073 151.172Z" fill="#4D62A0"/>
<path d="M68.3103 151.174C68.3103 153.107 66.7433 154.672 64.8075 154.672C62.8717 154.672 61.3047 153.107 61.3047 151.174C61.3047 149.241 62.8717 147.676 64.8075 147.676C66.7433 147.676 68.3103 149.241 68.3103 151.174Z" fill="#2238B3"/>
<path d="M67.1009 151.172C67.1009 152.434 66.076 153.457 64.8126 153.457C63.5492 153.457 62.5244 152.434 62.5244 151.172C62.5244 149.91 63.5492 148.887 64.8126 148.887C66.076 148.887 67.1009 149.91 67.1009 151.172Z" fill="#4D62A0"/>
<path d="M64.5354 152.265H53.1052C52.3786 152.265 51.793 151.681 51.793 150.955C51.793 150.229 52.3786 149.645 53.1052 149.645H64.5354C65.262 149.645 65.8476 150.229 65.8476 150.955C65.8476 151.681 65.262 152.265 64.5354 152.265Z" fill="#738BD3"/>
<path opacity="0.1" d="M15.8311 119.224L9.93164 125.116V126.589C9.93164 127.033 10.2895 127.39 10.7341 127.39H12.6265L20.8088 119.219H15.8311V119.224Z" fill="white"/>
<path opacity="0.1" d="M13.2067 119.227H10.7341C10.2895 119.227 9.93164 119.584 9.93164 120.028V122.497L13.2067 119.227Z" fill="white"/>
<path opacity="0.1" d="M47.19 119.227H42.2069L40.7266 120.705V125.681L47.19 119.227Z" fill="white"/>
<path opacity="0.1" d="M38.3175 120.032C38.3175 119.588 37.9596 119.23 37.515 119.23H29.6201L25.3311 123.514V126.6C25.3311 127.044 25.6889 127.402 26.1336 127.402H31.3986L38.3175 120.492V120.032Z" fill="white"/>
<path opacity="0.1" d="M38.3179 126.593V123.105L34.0234 127.394H37.5154C37.96 127.394 38.3179 127.037 38.3179 126.593Z" fill="white"/>
<path opacity="0.1" d="M22.9172 125.922L21.4316 127.406H22.1094C22.554 127.406 22.9118 127.048 22.9118 126.604V125.927L22.9172 125.922Z" fill="white"/>
<path opacity="0.1" d="M56.9285 119.227C56.4839 119.227 56.126 119.584 56.126 120.028V126.596C56.126 127.04 56.4839 127.398 56.9285 127.398H57.9858L66.1681 119.227H56.9285Z" fill="white"/>
<path opacity="0.1" d="M69.112 123.882V120.032C69.112 119.729 68.9385 119.469 68.6945 119.328L60.6152 127.397H65.5929L69.112 123.882Z" fill="white"/>
<path opacity="0.1" d="M53.7179 121.719L48.0244 127.405H52.9099C53.3546 127.405 53.7124 127.047 53.7124 126.603V121.724L53.7179 121.719Z" fill="white"/>
<rect x="4.88281" y="125.461" width="1.89001" height="13.0583" fill="#233498"/>
<rect x="-60.9258" y="116.531" width="65.8131" height="30.889" rx="8" fill="#FF1700"/>
<path d="M-0.0221262 117.711H-10.1449C-11.4243 117.711 -12.4718 118.426 -12.4718 119.31V147.607H2.30469V119.31C2.30469 118.431 1.26522 117.711 -0.0221262 117.711Z" fill="#FF6353"/>
<path d="M0.612681 119.227H-10.7688C-11.212 119.227 -11.5713 119.585 -11.5713 120.028V126.596C-11.5713 127.039 -11.212 127.398 -10.7688 127.398H0.612681C1.05589 127.398 1.41519 127.039 1.41519 126.596V120.028C1.41519 119.585 1.05589 119.227 0.612681 119.227Z" fill="#0B1E8D"/>
<path d="M0.613076 151.17C0.613076 153.103 -0.953988 154.668 -2.88976 154.668C-4.82553 154.668 -6.39258 153.103 -6.39258 151.17C-6.39258 149.237 -4.82553 147.672 -2.88976 147.672C-0.953988 147.672 0.613076 149.237 0.613076 151.17Z" fill="#2238B3"/>
<path opacity="0.1" d="M1.41476 123.882V120.032C1.41476 119.729 1.24124 119.469 0.997233 119.328L-7.08203 127.397H-2.10432L1.41476 123.882Z" fill="white"/>
<path d="M221.127 147.562H225.207V151.787H221.127V147.562Z" fill="#4D62A0"/>
<path d="M225.344 151.099C225.344 153.057 226.927 154.643 228.882 154.643C230.837 154.643 232.42 153.057 232.42 151.099C232.42 149.14 230.837 147.555 228.882 147.555C226.927 147.555 225.344 149.14 225.344 151.099Z" fill="#0B1E8D"/>
<path d="M226.572 151.1C226.572 152.378 227.607 153.415 228.883 153.415C230.159 153.415 231.194 152.378 231.194 151.1C231.194 149.822 230.159 148.785 228.883 148.785C227.607 148.785 226.572 149.822 226.572 151.1Z" fill="#4D62A0"/>
<path d="M213.844 151.099C213.844 153.057 215.427 154.643 217.382 154.643C219.337 154.643 220.92 153.057 220.92 151.099C220.92 149.14 219.337 147.555 217.382 147.555C215.427 147.555 213.844 149.14 213.844 151.099Z" fill="#0B1E8D"/>
<path d="M215.063 151.1C215.063 152.378 216.098 153.415 217.374 153.415C218.65 153.415 219.686 152.378 219.686 151.1C219.686 149.822 218.65 148.785 217.374 148.785C216.098 148.785 215.063 149.822 215.063 151.1Z" fill="#4D62A0"/>
<path d="M217.654 152.554H229.199C229.933 152.554 230.524 151.961 230.524 151.226C230.524 150.491 229.933 149.898 229.199 149.898H217.654C216.92 149.898 216.329 150.491 216.329 151.226C216.329 151.961 216.92 152.554 217.654 152.554Z" fill="#738BD3"/>
<path d="M292.014 147.562H296.094V151.787H292.014V147.562Z" fill="#4D62A0"/>
<path d="M296.231 151.099C296.231 153.057 297.814 154.643 299.769 154.643C301.724 154.643 303.307 153.057 303.307 151.099C303.307 149.14 301.724 147.555 299.769 147.555C297.814 147.555 296.231 149.14 296.231 151.099Z" fill="#0B1E8D"/>
<path d="M297.459 151.1C297.459 152.378 298.494 153.415 299.77 153.415C301.046 153.415 302.081 152.378 302.081 151.1C302.081 149.822 301.046 148.785 299.77 148.785C298.494 148.785 297.459 149.822 297.459 151.1Z" fill="#4D62A0"/>
<path d="M284.731 151.099C284.731 153.057 286.314 154.643 288.269 154.643C290.224 154.643 291.807 153.057 291.807 151.099C291.807 149.14 290.224 147.555 288.269 147.555C286.314 147.555 284.731 149.14 284.731 151.099Z" fill="#0B1E8D"/>
<path d="M285.95 151.1C285.95 152.378 286.985 153.415 288.261 153.415C289.537 153.415 290.572 152.378 290.572 151.1C290.572 149.822 289.537 148.785 288.261 148.785C286.985 148.785 285.95 149.822 285.95 151.1Z" fill="#4D62A0"/>
<path d="M288.541 152.554H300.086C300.82 152.554 301.411 151.961 301.411 151.226C301.411 150.491 300.82 149.898 300.086 149.898H288.541C287.807 149.898 287.216 150.491 287.216 151.226C287.216 151.961 287.807 152.554 288.541 152.554Z" fill="#738BD3"/>
<path d="M316.441 147.562L320.795 152.209H306.463L304.206 147.562H316.441Z" fill="#6E88D4"/>
<path d="M283.994 147.562L282.526 152.209H234.549L232.298 147.562H283.994Z" fill="#6E88D4"/>
<path d="M212.646 147.623H317.451C320.435 147.623 323.143 145.48 324.4 142.133C326.114 137.56 324.635 132.124 321.039 129.766L303.18 118.054C301.63 117.037 299.898 116.504 298.144 116.504H215.03C212.18 116.504 209.871 119.362 209.871 122.89V144.183C209.871 146.084 211.114 147.623 212.65 147.623H212.646Z" fill="#FF1700"/>
<path d="M282.403 117.727H275.47C274.594 117.727 273.876 118.44 273.876 119.323V147.565H283.997V119.323C283.997 118.445 283.285 117.727 282.403 117.727Z" fill="#FF6353"/>
<path d="M314.969 127.028H304.76C297.274 127.028 290.099 124.049 284.803 118.75H299.366L314.969 127.028Z" fill="#0B1E8D"/>
<path d="M275.732 118.742H282.146C282.593 118.742 282.956 119.106 282.956 119.554V126.209C282.956 126.657 282.593 127.02 282.146 127.02H275.732C275.285 127.02 274.922 126.657 274.922 126.209V119.554C274.922 119.106 275.285 118.742 275.732 118.742Z" fill="#0B1E8D"/>
<path d="M260.498 118.742H271.993C272.441 118.742 272.804 119.106 272.804 119.554V126.209C272.804 126.657 272.441 127.02 271.993 127.02H260.498C260.05 127.02 259.687 126.657 259.687 126.209V119.554C259.687 119.106 260.05 118.742 260.498 118.742Z" fill="#0B1E8D"/>
<path d="M244.943 118.742H256.438C256.886 118.742 257.249 119.106 257.249 119.554V126.209C257.249 126.657 256.886 127.02 256.438 127.02H244.943C244.495 127.02 244.132 126.657 244.132 126.209V119.554C244.132 119.106 244.495 118.742 244.943 118.742Z" fill="#0B1E8D"/>
<path d="M229.395 118.742H240.891C241.338 118.742 241.701 119.106 241.701 119.554V126.209C241.701 126.657 241.338 127.02 240.891 127.02H229.395C228.948 127.02 228.585 126.657 228.585 126.209V119.554C228.585 119.106 228.948 118.742 229.395 118.742Z" fill="#0B1E8D"/>
<path d="M213.841 118.742H225.337C225.785 118.742 226.147 119.106 226.147 119.554V126.209C226.147 126.657 225.785 127.02 225.337 127.02H213.841C213.394 127.02 213.031 126.657 213.031 126.209V119.554C213.031 119.106 213.394 118.742 213.841 118.742Z" fill="#0B1E8D"/>
<path opacity="0.3" d="M288.264 136.335H324.941C325.297 138.217 325.261 140.219 324.401 142.079C324.236 142.43 324.05 142.765 323.848 143.089H288.264L283.981 138.411L213.376 116.762L283.981 132.04L289.877 136.335H288.264Z" fill="white"/>
<path opacity="0.4" d="M283.997 139.539V140.913L239.915 127.168L283.997 139.539Z" fill="white"/>
<path opacity="0.4" d="M249.14 147.602H242.279L210.117 137.551L249.14 147.602Z" fill="white"/>
<path opacity="0.4" d="M237.991 147.603H233.799L214.149 141.418L237.991 147.603Z" fill="white"/>
<path opacity="0.1" d="M286.23 118.742H291.258L298.903 126.401C296.05 125.792 293.306 124.744 290.776 123.301L286.225 118.742H286.23Z" fill="white"/>
<path opacity="0.1" d="M299.369 118.742L309.167 123.943L312.239 127.02H304.764C303.855 127.02 302.945 126.977 302.047 126.889L293.914 118.742H299.369Z" fill="white"/>
<path opacity="0.1" d="M266.845 118.744L272.804 124.712V126.205C272.804 126.655 272.442 127.017 271.993 127.017H270.082L261.818 118.738H266.845V118.744Z" fill="white"/>
<path opacity="0.1" d="M269.496 118.746H271.993C272.442 118.746 272.804 119.108 272.804 119.558V122.06L269.496 118.746Z" fill="white"/>
<path opacity="0.1" d="M274.924 119.562C274.924 119.112 275.286 118.75 275.735 118.75H279.557L282.964 122.162V126.216C282.964 126.666 282.602 127.028 282.153 127.028H277.767L274.93 124.187V119.562H274.924Z" fill="white"/>
<path opacity="0.1" d="M235.173 118.742H240.206L241.701 120.24V125.281L235.173 118.742Z" fill="white"/>
<path opacity="0.1" d="M244.132 119.562C244.132 119.112 244.494 118.75 244.943 118.75H252.917L257.249 123.089V126.216C257.249 126.666 256.888 127.028 256.438 127.028H251.121L244.132 120.028V119.562Z" fill="white"/>
<path opacity="0.1" d="M244.131 126.213V122.68L248.469 127.025H244.942C244.493 127.025 244.131 126.662 244.131 126.213Z" fill="white"/>
<path opacity="0.1" d="M259.688 125.523L261.188 127.027H260.504C260.055 127.027 259.693 126.665 259.693 126.215V125.529L259.688 125.523Z" fill="white"/>
<path opacity="0.1" d="M225.337 118.742C225.786 118.742 226.147 119.104 226.147 119.554V126.209C226.147 126.658 225.786 127.02 225.337 127.02H224.269L216.005 118.742H225.337Z" fill="white"/>
<path opacity="0.1" d="M213.031 123.461V119.561C213.031 119.254 213.207 118.99 213.453 118.848L221.613 127.022H216.586L213.031 123.461Z" fill="white"/>
<path opacity="0.1" d="M228.58 121.266L234.33 127.026H229.396C228.947 127.026 228.585 126.664 228.585 126.214V121.271L228.58 121.266Z" fill="white"/>
<path fill-rule="evenodd" clip-rule="evenodd" d="M308.262 140.485C308.391 140.234 308.489 139.968 308.554 139.694C308.619 139.44 308.647 139.178 308.639 138.917C308.633 138.707 308.574 138.502 308.465 138.32C308.358 138.153 308.203 138.021 308.018 137.94C307.824 137.852 307.579 137.809 307.284 137.809C307.017 137.805 306.753 137.849 306.503 137.94C306.269 138.028 306.056 138.159 305.873 138.324C305.682 138.498 305.521 138.701 305.398 138.925C305.262 139.172 305.161 139.436 305.097 139.708C305.03 139.965 305 140.229 305.007 140.494C305.011 140.704 305.067 140.908 305.172 141.091C305.275 141.256 305.429 141.386 305.614 141.462C305.808 141.546 306.053 141.588 306.348 141.588C306.629 141.593 306.91 141.548 307.175 141.457C307.411 141.375 307.627 141.247 307.81 141.082C307.996 140.909 308.149 140.707 308.262 140.485ZM307.528 139.31C307.516 139.44 307.496 139.571 307.467 139.699L307.459 139.693C307.427 139.824 307.386 139.953 307.336 140.078C307.291 140.192 307.23 140.3 307.157 140.399C307.092 140.488 307.009 140.564 306.912 140.621C306.816 140.676 306.705 140.704 306.593 140.702C306.49 140.707 306.389 140.683 306.302 140.63C306.228 140.579 306.175 140.506 306.151 140.422C306.12 140.316 306.111 140.206 306.123 140.096C306.135 139.95 306.161 139.805 306.198 139.662C306.231 139.535 306.277 139.411 306.334 139.291C306.382 139.181 306.446 139.076 306.522 138.98C306.59 138.894 306.675 138.822 306.771 138.767C306.861 138.716 306.963 138.69 307.067 138.69C307.173 138.684 307.277 138.713 307.363 138.772C307.434 138.828 307.484 138.904 307.505 138.989C307.531 139.094 307.539 139.202 307.528 139.31ZM302.508 141.535C302.549 141.54 302.59 141.532 302.626 141.513V141.517C302.647 141.493 302.66 141.463 302.664 141.431L302.983 140.12H304.418C304.483 140.12 304.531 140.08 304.549 139.998L304.681 139.455C304.695 139.397 304.7 139.36 304.69 139.347C304.681 139.334 304.653 139.324 304.611 139.324H303.176L303.256 138.999C303.266 138.963 303.278 138.928 303.294 138.895C303.308 138.86 303.329 138.828 303.355 138.8C303.389 138.768 303.429 138.744 303.473 138.728C303.531 138.707 303.594 138.699 303.656 138.701H305.001C305.033 138.704 305.065 138.696 305.091 138.678C305.113 138.653 305.128 138.621 305.133 138.588L305.274 137.995C305.293 137.936 305.293 137.9 305.283 137.887C305.274 137.874 305.246 137.869 305.204 137.869H303.548C303.374 137.866 303.203 137.893 303.04 137.95C302.899 138.001 302.77 138.076 302.659 138.172C302.556 138.264 302.469 138.373 302.405 138.493C302.339 138.61 302.291 138.735 302.259 138.864L301.633 141.431C301.614 141.499 301.647 141.535 301.732 141.535H302.508ZM315.605 139.532C315.689 139.568 315.765 139.623 315.826 139.69C315.881 139.755 315.922 139.828 315.948 139.907C315.974 139.986 315.987 140.069 315.986 140.152C315.985 140.237 315.974 140.322 315.953 140.404C315.914 140.57 315.843 140.726 315.742 140.866C315.642 141.004 315.517 141.125 315.375 141.223C315.229 141.324 315.066 141.402 314.895 141.454C314.718 141.508 314.534 141.536 314.349 141.535H312.928C312.777 141.535 312.689 141.508 312.66 141.454C312.632 141.399 312.632 141.313 312.66 141.187L313.385 138.212C313.403 138.117 313.447 138.028 313.512 137.955C313.568 137.896 313.671 137.869 313.822 137.869H315.238C315.389 137.868 315.539 137.886 315.685 137.923C315.807 137.952 315.92 138.01 316.014 138.09C316.102 138.17 316.165 138.272 316.194 138.384C316.225 138.526 316.22 138.674 316.18 138.814C316.142 138.961 316.069 139.097 315.968 139.212C315.869 139.334 315.747 139.435 315.606 139.51V139.532H315.605ZM314.17 139.216H314.739C314.813 139.214 314.886 139.195 314.95 139.161C315.02 139.125 315.068 139.057 315.091 138.958C315.115 138.859 315.101 138.818 315.063 138.773C315.015 138.727 314.948 138.704 314.88 138.709H314.292L314.17 139.216ZM314.903 140.342C314.931 140.258 314.919 140.167 314.87 140.093C314.824 140.029 314.739 139.998 314.621 139.998H313.981L313.812 140.68H314.452C314.516 140.682 314.58 140.671 314.64 140.649C314.689 140.628 314.733 140.599 314.771 140.563C314.805 140.531 314.834 140.494 314.856 140.454C314.874 140.418 314.889 140.38 314.898 140.341L314.903 140.342ZM317.175 141.533H318.859L318.852 141.532C318.917 141.532 318.965 141.491 318.983 141.41L319.129 140.817C319.144 140.758 319.144 140.722 319.134 140.709C319.124 140.696 319.096 140.691 319.054 140.691H317.671L317.545 140.682C317.51 140.678 317.478 140.665 317.45 140.645C317.424 140.623 317.407 140.593 317.403 140.559C317.397 140.506 317.402 140.452 317.417 140.401L317.511 140.008H318.974C319.043 140.008 319.087 139.968 319.106 139.886L319.237 139.339C319.252 139.305 319.255 139.267 319.247 139.231C319.237 139.218 319.209 139.208 319.167 139.208H317.704L317.756 138.987C317.766 138.951 317.779 138.916 317.794 138.883C317.81 138.848 317.832 138.815 317.86 138.788C317.894 138.756 317.933 138.731 317.978 138.716C318.036 138.695 318.099 138.686 318.161 138.689H319.464C319.496 138.693 319.528 138.684 319.554 138.666C319.578 138.641 319.594 138.61 319.6 138.576L319.746 137.983C319.761 137.924 319.761 137.888 319.751 137.875C319.742 137.861 319.713 137.857 319.671 137.857H318.063C317.888 137.854 317.714 137.883 317.55 137.943C317.41 137.993 317.281 138.068 317.169 138.165C317.066 138.257 316.98 138.365 316.915 138.486C316.85 138.603 316.801 138.728 316.769 138.856L316.36 140.534C316.332 140.649 316.318 140.768 316.318 140.886C316.318 140.999 316.347 141.109 316.403 141.207C316.464 141.31 316.556 141.392 316.667 141.442C316.789 141.501 316.959 141.533 317.175 141.533ZM322.938 138.699H322.007L321.343 141.425C321.339 141.456 321.326 141.487 321.305 141.511C321.27 141.531 321.229 141.539 321.188 141.534H320.411C320.327 141.534 320.294 141.497 320.313 141.425L320.976 138.7H320.069C319.994 138.7 319.965 138.659 319.984 138.578L320.125 137.99C320.129 137.95 320.148 137.911 320.177 137.882C320.206 137.867 320.238 137.861 320.271 137.864H323.145C323.175 137.86 323.205 137.866 323.23 137.882C323.244 137.895 323.244 137.931 323.23 137.99L323.089 138.578C323.07 138.659 323.022 138.7 322.943 138.7L322.938 138.699ZM309.622 141.423L310.087 139.547V139.546H310.13L310.403 140.198L310.897 141.292C310.915 141.337 310.941 141.379 310.972 141.418C310.994 141.448 311.023 141.472 311.056 141.49C311.09 141.507 311.127 141.518 311.165 141.522L311.301 141.531H311.583C311.749 141.531 311.866 141.492 311.936 141.414C312.01 141.328 312.062 141.227 312.087 141.12L312.873 137.973C312.892 137.901 312.859 137.864 312.774 137.864H311.998C311.957 137.859 311.916 137.867 311.88 137.887C311.859 137.912 311.845 137.941 311.838 137.973L311.373 139.863H311.335L311.067 139.225L310.563 138.104C310.541 138.06 310.514 138.017 310.484 137.978C310.461 137.948 310.432 137.923 310.399 137.905C310.367 137.889 310.332 137.878 310.296 137.874L310.154 137.864H309.872C309.721 137.864 309.608 137.896 309.538 137.95C309.468 138.005 309.415 138.118 309.373 138.281L308.592 141.423C308.573 141.495 308.606 141.531 308.691 141.531H309.462C309.503 141.537 309.544 141.529 309.58 141.509C309.602 141.484 309.616 141.455 309.622 141.423Z" fill="white"/>
<g style="mix-blend-mode:screen" opacity="0.55">
<path d="M451.253 221.586C383.685 240.008 265.301 272.187 264.15 271.869C262.535 271.419 282.015 262.278 280.985 261.698C279.956 261.122 225.615 275.183 221.613 273.502C219.32 272.538 256.782 261.253 289.181 251.789C343.606 240.551 397.647 230.446 451.253 221.586Z" fill="white"/>
</g>
<path opacity="0.75" d="M226.957 269.373C226.957 269.373 413.41 228.69 428.837 227.721C444.264 226.753 282.683 264.567 282.683 264.567C282.683 264.567 308.548 255.023 311.773 255.004C314.998 254.985 226.957 269.373 226.957 269.373Z" fill="white"/>
<path opacity="0.75" d="M306.008 267.727C306.008 267.727 466.704 242.232 474.563 243.95C482.421 245.668 351.217 271.87 351.217 271.87C351.217 271.87 394.563 260.43 390.454 260.22C386.34 260.009 306.008 267.732 306.008 267.732V267.727Z" fill="white"/>
<path d="M244.623 260.796L251.658 259.242L258.702 257.721L272.795 254.707L286.902 251.763L301.019 248.851C319.844 244.99 338.697 241.264 357.573 237.66C376.455 234.089 395.345 230.555 414.292 227.326C419.024 226.493 423.765 225.716 428.502 224.925C433.243 224.134 437.975 223.329 442.726 222.594L449.845 221.484C452.218 221.119 454.591 220.731 456.969 220.399L464.102 219.359L471.235 218.344L464.13 219.537L457.02 220.707C454.647 221.087 452.284 221.517 449.92 221.924L442.82 223.16C440.456 223.572 438.083 223.956 435.719 224.386L428.628 225.65C423.901 226.497 419.169 227.326 414.446 228.21L400.274 230.808L386.11 233.452L371.947 236.116L357.793 238.807L343.639 241.508L329.49 244.241L301.196 249.727L244.623 260.796Z" fill="white"/>
</g>
</g>
<defs>
<clipPath id="clip0_986_22193">
<rect width="860" height="250" fill="white" transform="translate(-4)"/>
</clipPath>
</defs>
</svg>
