<svg viewBox="0 0 730 302" fill="none" xmlns="http://www.w3.org/2000/svg">
<path d="M72 212.5C72 212.5 61.4426 213.631 57.0369 218.037C52.6311 222.443 51.5 233 51.5 233C51.5 233 50.3689 222.443 45.9631 218.037C41.5574 213.631 31 212.5 31 212.5C31 212.5 41.5574 211.369 45.9631 206.963C50.3689 202.557 51.5 192 51.5 192C51.5 192 52.6311 202.557 57.0369 206.963C61.4426 211.369 72 212.5 72 212.5Z" fill="white"/>
<path d="M114 237.5C114 237.5 107.305 238.19 104.511 240.876C101.717 243.563 101 250 101 250C101 250 100.283 243.563 97.4888 240.876C94.6949 238.19 88 237.5 88 237.5C88 237.5 94.6949 236.81 97.4888 234.124C100.283 231.437 101 225 101 225C101 225 101.717 231.437 104.511 234.124C107.305 236.81 114 237.5 114 237.5Z" fill="white"/>
<path d="M26 259.5C26 259.5 19.3051 260.19 16.5112 262.876C13.7173 265.563 13 272 13 272C13 272 12.2827 265.563 9.48882 262.876C6.69492 260.19 1.36096e-06 259.5 1.36096e-06 259.5C1.36096e-06 259.5 6.69492 258.81 9.48882 256.124C12.2827 253.437 13 247 13 247C13 247 13.7173 253.437 16.5112 256.124C19.3051 258.81 26 259.5 26 259.5Z" fill="white"/>
<path d="M72 292.5C72 292.5 66.8501 293.024 64.7009 295.066C62.5518 297.108 62 302 62 302C62 302 61.4482 297.108 59.2991 295.066C57.1499 293.024 52 292.5 52 292.5C52 292.5 57.1499 291.976 59.2991 289.934C61.4482 287.892 62 283 62 283C62 283 62.5518 287.892 64.7009 289.934C66.8501 291.976 72 292.5 72 292.5Z" fill="white"/>
<path d="M709 20.5C709 20.5 698.443 21.6311 694.037 26.0369C689.631 30.4426 688.5 41 688.5 41C688.5 41 687.369 30.4426 682.963 26.0369C678.557 21.6311 668 20.5 668 20.5C668 20.5 678.557 19.3689 682.963 14.9631C687.369 10.5574 688.5 -8.96083e-07 688.5 -8.96083e-07C688.5 -8.96083e-07 689.631 10.5574 694.037 14.9631C698.443 19.3689 709 20.5 709 20.5Z" fill="white"/>
<path d="M730 66.5C730 66.5 723.305 67.1897 720.511 69.8761C717.717 72.5626 717 79 717 79C717 79 716.283 72.5626 713.489 69.8761C710.695 67.1897 704 66.5 704 66.5C704 66.5 710.695 65.8103 713.489 63.1239C716.283 60.4374 717 54 717 54C717 54 717.717 60.4374 720.511 63.1239C723.305 65.8103 730 66.5 730 66.5Z" fill="white"/>
<path d="M730 109.5C730 109.5 724.85 110.024 722.701 112.066C720.552 114.108 720 119 720 119C720 119 719.448 114.108 717.299 112.066C715.15 110.024 710 109.5 710 109.5C710 109.5 715.15 108.976 717.299 106.934C719.448 104.892 720 100 720 100C720 100 720.552 104.892 722.701 106.934C724.85 108.976 730 109.5 730 109.5Z" fill="white"/>
<path d="M606 29.5C606 29.5 600.85 30.0242 598.701 32.0659C596.552 34.1076 596 39 596 39C596 39 595.448 34.1076 593.299 32.0659C591.15 30.0242 586 29.5 586 29.5C586 29.5 591.15 28.9758 593.299 26.9341C595.448 24.8924 596 20 596 20C596 20 596.552 24.8924 598.701 26.9341C600.85 28.9758 606 29.5 606 29.5Z" fill="white"/>
<path d="M662 79.5C662 79.5 655.305 80.1897 652.511 82.8761C649.717 85.5626 649 92 649 92C649 92 648.283 85.5626 645.489 82.8761C642.695 80.1897 636 79.5 636 79.5C636 79.5 642.695 78.8103 645.489 76.1239C648.283 73.4374 649 67 649 67C649 67 649.717 73.4374 652.511 76.1239C655.305 78.8103 662 79.5 662 79.5Z" fill="white"/>
</svg>
