<svg viewBox="0 0 102 72" fill="none" xmlns="http://www.w3.org/2000/svg">
<path d="M72.7827 16.0435C72.7827 16.0435 64.5204 16.9287 61.0724 20.3767C57.6244 23.8247 56.7392 32.087 56.7392 32.087C56.7392 32.087 55.854 23.8247 52.406 20.3767C48.958 16.9287 40.6958 16.0435 40.6958 16.0435C40.6958 16.0435 48.958 15.1583 52.406 11.7103C55.854 8.26229 56.7392 -7.01283e-07 56.7392 -7.01283e-07C56.7392 -7.01283e-07 57.6244 8.26229 61.0724 11.7103C64.5204 15.1583 72.7827 16.0435 72.7827 16.0435Z" fill="white"/>
<path d="M101.739 42.6537C101.739 42.6537 96.4998 43.1935 94.3132 45.2959C92.1267 47.3983 91.5653 52.4363 91.5653 52.4363C91.5653 52.4363 91.004 47.3983 88.8175 45.2959C86.6309 43.1935 81.3914 42.6537 81.3914 42.6537C81.3914 42.6537 86.6309 42.1139 88.8175 40.0115C91.004 37.9091 91.5653 32.8711 91.5653 32.8711C91.5653 32.8711 92.1267 37.9091 94.3132 40.0115C96.4998 42.1139 101.739 42.6537 101.739 42.6537Z" fill="white"/>
<path d="M15.6521 31.6965C15.6521 31.6965 11.6217 32.1067 9.93977 33.7046C8.25782 35.3024 7.82601 39.1313 7.82601 39.1313C7.82601 39.1313 7.39421 35.3024 5.71226 33.7046C4.03031 32.1067 -7.56653e-05 31.6965 -7.56653e-05 31.6965C-7.56653e-05 31.6965 4.03031 31.2863 5.71226 29.6884C7.39421 28.0906 7.82601 24.2617 7.82601 24.2617C7.82601 24.2617 8.25782 28.0906 9.93977 29.6884C11.6217 31.2863 15.6521 31.6965 15.6521 31.6965Z" fill="white"/>
<path d="M56.3479 62.2162C56.3479 62.2162 51.1084 62.756 48.9219 64.8584C46.7353 66.9608 46.174 71.9988 46.174 71.9988C46.174 71.9988 45.6126 66.9608 43.4261 64.8584C41.2396 62.756 36.0001 62.2162 36.0001 62.2162C36.0001 62.2162 41.2396 61.6764 43.4261 59.574C45.6126 57.4716 46.174 52.4336 46.174 52.4336C46.174 52.4336 46.7353 57.4716 48.9219 59.574C51.1084 61.6764 56.3479 62.2162 56.3479 62.2162Z" fill="white"/>
</svg>
