<svg viewBox="0 0 41 40" xmlns="http://www.w3.org/2000/svg">
<path d="M26 20.75C26.4142 20.75 26.75 20.4142 26.75 20C26.75 19.5858 26.4142 19.25 26 19.25V20.75ZM15.4697 19.4697C15.1768 19.7626 15.1768 20.2374 15.4697 20.5303L20.2426 25.3033C20.5355 25.5962 21.0104 25.5962 21.3033 25.3033C21.5962 25.0104 21.5962 24.5355 21.3033 24.2426L17.0607 20L21.3033 15.7574C21.5962 15.4645 21.5962 14.9896 21.3033 14.6967C21.0104 14.4038 20.5355 14.4038 20.2426 14.6967L15.4697 19.4697ZM26 19.25H16V20.75H26V19.25Z" />
</svg>
