<svg viewBox="0 0 285 284" xmlns="http://www.w3.org/2000/svg">
<path opacity="0.1" d="M77.521 281.886C74.7649 283.384 71.5704 283.984 68.3759 283.624H8.11855C1.5416 283.624 -1.02655 280.808 0.476752 275.594L49.0209 77.1832C51.5264 67.2357 55.2846 57.5878 60.3583 48.5392C65.3693 39.2508 72.0715 30.8613 80.0891 23.7303C88.7331 16.2996 98.7552 10.4869 109.654 6.59179C122.307 2.15736 135.649 0.0599892 149.116 0.299688L277.648 0.299688C280.905 0.299688 283.098 0.659237 283.849 1.67796C284.601 2.69668 284.601 5.51315 283.098 10.0674L272.136 55.85C271.76 58.4267 270.633 60.8837 268.879 62.8612C266.874 64.2394 264.369 64.8387 261.926 64.599H157.509C152.686 64.4192 147.8 65.0784 143.29 66.6964C139.845 67.8949 136.776 69.8125 134.145 72.2694C132.141 74.4267 130.512 76.8836 129.385 79.5802C128.195 82.157 127.193 84.8536 126.441 87.6101L120.24 112.779L231.609 112.779C234.867 112.779 237.059 113.498 237.811 114.516C238.562 115.535 238.187 118.352 237.059 122.906L226.849 164.853C225.408 171.145 221.713 174.261 216.639 174.261H105.269L80.465 275.594C80.1518 278.051 79.1496 280.328 77.521 282.246" />
</svg>
