<svg viewBox="0 0 10 13" xmlns="http://www.w3.org/2000/svg">
<path d="M4.5573 0.014411C2.83599 0.220229 1.46363 1.49325 1.17197 3.1525C1.1277 3.40151 1.11989 3.56414 1.11989 4.15872V4.86765H0.677194C0.330849 4.86765 0.216269 4.87527 0.156375 4.90576C-0.0102878 4.98962 0.000128598 4.75585 0.000128598 8.53426C0.000128598 10.7398 0.010545 12.023 0.0261696 12.1094C0.109501 12.5414 0.468867 12.892 0.908959 12.9733C1.10166 13.0089 8.90094 13.0089 9.08844 12.9733C9.53113 12.892 9.8905 12.5414 9.97383 12.1119C9.98946 12.0255 9.99987 10.7322 9.99987 8.53426C9.99987 4.75585 10.0103 4.98962 9.84363 4.90576C9.78373 4.87527 9.66915 4.86765 9.32281 4.86765H8.88011V4.15872C8.88011 3.56414 8.8723 3.40151 8.82803 3.1525C8.61709 1.94808 7.83847 0.934239 6.69006 0.370146C6.4635 0.258344 5.96612 0.100803 5.69009 0.0525255C5.40103 0.00424671 4.82032 -0.0160809 4.5573 0.014411ZM5.61196 1.70415C6.22132 1.87694 6.7161 2.28603 6.99214 2.8425C7.18484 3.23889 7.19526 3.28463 7.20567 4.12315L7.21869 4.86765H5H2.78131L2.79433 4.12315C2.80474 3.28463 2.81516 3.23889 3.00786 2.8425C3.32296 2.20726 3.9193 1.77022 4.65366 1.64063C4.88542 1.59997 5.35416 1.63046 5.61196 1.70415ZM5.31249 7.08337C5.83592 7.23583 6.17966 7.76689 6.09372 8.28524C6.05726 8.49868 5.93487 8.73754 5.78644 8.87983L5.65623 9.0018L5.74738 9.79458C5.84633 10.6585 5.84633 10.689 5.70571 10.7805C5.64582 10.8211 5.5703 10.8262 5 10.8262C4.4297 10.8262 4.35418 10.8211 4.29429 10.7805C4.15367 10.689 4.15367 10.6585 4.25262 9.79458L4.34377 9.0018L4.21356 8.87983C3.97919 8.65622 3.8594 8.29795 3.90628 7.97525C4.00003 7.32476 4.67449 6.89788 5.31249 7.08337Z" />
</svg>
