<svg viewBox="0 0 126 22" xmlns="http://www.w3.org/2000/svg">
<path fill-rule="evenodd" clip-rule="evenodd" d="M38.6769 15.576C39.4295 14.1138 39.9987 12.5658 40.375 10.9727C40.756 9.49236 40.9207 7.97146 40.8736 6.45055C40.8407 5.22751 40.4926 4.03605 39.8576 2.97548C39.2367 2.00517 38.3288 1.23795 37.2516 0.764075C36.1227 0.254098 34.6927 0.00136543 32.9757 0.00136543C31.4187 -0.0211999 29.8759 0.236045 28.4223 0.764075C27.0582 1.27857 25.8117 2.03676 24.7486 3.00256C23.6338 4.01349 22.6977 5.19591 21.978 6.50019C21.183 7.93535 20.595 9.4698 20.2234 11.0539C19.833 12.5477 19.6589 14.0867 19.7013 15.6301C19.7201 16.8487 20.0494 18.0401 20.6609 19.1052C21.263 20.0665 22.1614 20.8202 23.2386 21.2625C24.3676 21.7544 25.7976 21.9981 27.5145 21.9981C29.1562 22.0252 30.7931 21.7634 32.3407 21.2354C33.7143 20.757 34.9749 20.0123 36.0427 19.0511C37.1246 18.0446 38.0183 16.8712 38.6769 15.576ZM34.3963 8.73868C34.3258 9.49688 34.2082 10.2551 34.0388 10.9997L33.9918 10.9681C33.8083 11.7308 33.5684 12.48 33.2768 13.2066C33.0134 13.87 32.6606 14.4974 32.2325 15.075C31.8562 15.594 31.3717 16.0363 30.8072 16.3658C30.2475 16.6862 29.5983 16.8532 28.9445 16.8396C28.3471 16.8712 27.7544 16.7268 27.2464 16.4199C26.8183 16.1221 26.5079 15.6978 26.3667 15.2104C26.188 14.5921 26.1362 13.9513 26.2021 13.3149C26.2774 12.462 26.4279 11.618 26.6396 10.7876C26.8324 10.0475 27.1005 9.32538 27.4345 8.63037C27.7168 7.985 28.0884 7.37573 28.5305 6.81611C28.9304 6.31967 29.4243 5.89995 29.984 5.57953C30.5062 5.28166 31.1036 5.12822 31.7104 5.13273C32.3266 5.09663 32.9334 5.26361 33.4367 5.6066C33.846 5.93155 34.1376 6.37383 34.2599 6.87027C34.4151 7.47953 34.4622 8.11136 34.3963 8.73868ZM5.13009 21.683C5.36999 21.71 5.60989 21.6649 5.81687 21.5521V21.5792C5.93917 21.4347 6.01443 21.2632 6.03795 21.0782L7.9007 13.4466H16.2643C16.6453 13.4466 16.9228 13.2119 17.031 12.738L17.7978 9.57889C17.8824 9.2359 17.9106 9.02378 17.8542 8.94706C17.7977 8.87034 17.6331 8.81618 17.3885 8.81618H9.02494L9.49063 6.92069C9.54708 6.71309 9.62234 6.51 9.71171 6.31594C9.79638 6.11285 9.91868 5.92781 10.0692 5.76534C10.2668 5.58031 10.4973 5.43589 10.756 5.34563C11.0947 5.22377 11.4616 5.17413 11.8238 5.18767H19.6652C19.8487 5.20572 20.0368 5.16059 20.1873 5.05679C20.319 4.90786 20.4037 4.72282 20.4319 4.52876L21.2551 1.08077C21.368 0.737776 21.368 0.525662 21.3116 0.448939C21.2551 0.372217 21.0905 0.345139 20.8459 0.345139H11.1934C10.1821 0.327086 9.18017 0.485044 8.22998 0.819011C7.4115 1.11236 6.65887 1.55013 6.00973 2.10975C5.40763 2.64681 4.90431 3.27864 4.52799 3.97816C4.14698 4.65964 3.86474 5.38624 3.67659 6.13541L0.0310484 21.0782C-0.0818456 21.4708 0.111016 21.683 0.604927 21.683H5.13009ZM81.4832 10.0244C81.9771 10.2366 82.4192 10.5525 82.772 10.9451C83.0919 11.3197 83.3318 11.7484 83.487 12.2088C83.6375 12.6691 83.7128 13.1475 83.7081 13.6304C83.7034 14.1268 83.6375 14.6233 83.5152 15.1016C83.2894 16.0629 82.8708 16.9746 82.2828 17.7869C81.6995 18.5903 80.9751 19.2943 80.1425 19.8675C79.2911 20.4542 78.3456 20.9055 77.3437 21.2078C76.3135 21.5238 75.2411 21.6862 74.1638 21.6817H65.8802C65.0006 21.6817 64.4832 21.5238 64.3185 21.2078C64.1539 20.8919 64.1539 20.391 64.3185 19.6553L68.5427 2.34318C68.6461 1.78808 68.9049 1.27358 69.2812 0.844842C69.6105 0.501849 70.2126 0.343891 71.0922 0.343891H79.3476C80.2272 0.339378 81.1021 0.443179 81.9535 0.659806C82.6638 0.831303 83.3224 1.16527 83.8727 1.63463C84.3855 2.09496 84.7477 2.69069 84.917 3.34509C85.1005 4.17098 85.0722 5.02846 84.837 5.84533C84.616 6.6983 84.1926 7.4926 83.6046 8.16054C83.026 8.86909 82.311 9.4603 81.4926 9.89807V10.0244H81.4832ZM73.1196 8.1831H76.4358C76.8686 8.17408 77.2919 8.06576 77.6683 7.86719C78.0775 7.65507 78.355 7.26244 78.4914 6.68476C78.6279 6.10709 78.5479 5.8679 78.3268 5.60614C78.0446 5.33987 77.6542 5.20447 77.259 5.23606H73.8299L73.1196 8.1831ZM77.3954 14.7361C77.5554 14.2487 77.4848 13.7206 77.2026 13.2874C76.9298 12.9173 76.4358 12.7368 75.7491 12.7368H72.0189L71.031 16.7083H74.7612C75.1376 16.7173 75.5092 16.6541 75.8573 16.5233C76.1442 16.4014 76.4029 16.2344 76.624 16.0223C76.8216 15.8373 76.9909 15.6252 77.1179 15.3905C77.2261 15.1829 77.3108 14.9617 77.3625 14.7316L77.3954 14.7361ZM90.6438 21.6824H100.461L100.419 21.6734C100.8 21.6734 101.077 21.4387 101.185 20.9648L102.037 17.5168C102.121 17.1738 102.121 16.9617 102.065 16.885C102.008 16.8083 101.844 16.7812 101.599 16.7812H93.5367L92.7982 16.7271C92.5959 16.7045 92.4077 16.6323 92.2478 16.5149C92.0973 16.3841 91.9985 16.208 91.975 16.014C91.9373 15.7071 91.9656 15.3912 92.0549 15.0933L92.6053 12.8052H101.133C101.533 12.8052 101.792 12.5705 101.9 12.0966L102.667 8.91492C102.752 8.71183 102.77 8.4952 102.723 8.28309C102.667 8.20636 102.502 8.15221 102.258 8.15221H93.7295L94.0306 6.86147C94.087 6.65387 94.1623 6.45078 94.2517 6.25672C94.3457 6.05363 94.4727 5.86408 94.6374 5.70612C94.835 5.52109 95.0654 5.37667 95.3242 5.28641C95.6628 5.16455 96.0298 5.11039 96.392 5.12845H103.989C104.172 5.15101 104.36 5.10137 104.511 4.99757C104.652 4.84864 104.746 4.66811 104.784 4.46954L105.635 1.02155C105.72 0.678555 105.72 0.466441 105.663 0.389719C105.607 0.312996 105.442 0.285918 105.198 0.285918H95.8181C94.802 0.272379 93.786 0.439362 92.8311 0.786869C92.0126 1.08022 91.26 1.51799 90.6108 2.07761C90.0087 2.61466 89.5054 3.2465 89.1291 3.94602C88.7481 4.6275 88.4659 5.3541 88.2777 6.10327L85.8928 15.8651C85.7282 16.5375 85.6482 17.228 85.6482 17.9185C85.6482 18.5729 85.8175 19.2138 86.1421 19.7869C86.4996 20.3826 87.0359 20.861 87.6803 21.1544C88.3953 21.4974 89.3831 21.6824 90.6438 21.6824ZM124.237 5.18353H118.809L114.942 21.0515C114.914 21.232 114.839 21.408 114.721 21.5525C114.514 21.6653 114.274 21.7149 114.035 21.6833H109.509C109.015 21.6833 108.823 21.4712 108.936 21.0515L112.802 5.18804H107.51C107.073 5.18804 106.908 4.95336 107.016 4.47949L107.839 1.05858C107.863 0.823899 107.971 0.598246 108.141 0.426749C108.31 0.341 108.498 0.304896 108.691 0.322948H125.446C125.62 0.300383 125.794 0.336487 125.94 0.426749C126.02 0.503471 126.02 0.715585 125.94 1.05858L125.117 4.47949C125.009 4.95336 124.731 5.18804 124.266 5.18804L124.237 5.18353ZM46.6036 21.0445L49.3177 10.1274V10.1229H49.567L51.157 13.9139L54.0358 20.2818C54.1439 20.5436 54.2945 20.7918 54.4732 21.0174C54.6049 21.1889 54.7743 21.3288 54.9671 21.4372C55.1647 21.5364 55.3764 21.5996 55.5975 21.6222L56.3924 21.6763H58.0388C59.0078 21.6763 59.6899 21.4462 60.0944 20.9904C60.5272 20.4939 60.8282 19.9072 60.974 19.2799L65.5557 0.965845C65.6685 0.546129 65.4757 0.334015 64.9818 0.334015H60.4566C60.2167 0.302423 59.9768 0.347554 59.7698 0.464894C59.6475 0.609312 59.5629 0.780809 59.5252 0.965845L56.8111 11.9642H56.59L55.0283 8.25446L52.093 1.72855C51.9613 1.47131 51.8061 1.22309 51.6273 0.992924C51.4956 0.821427 51.3263 0.677008 51.1334 0.573208C50.9453 0.478433 50.743 0.41525 50.5313 0.388172L49.7081 0.334015H48.0618C47.1821 0.334015 46.5236 0.519051 46.1144 0.834966C45.7051 1.15088 45.3994 1.80979 45.1548 2.75754L40.6014 21.0445C40.4885 21.4642 40.6813 21.6763 41.1752 21.6763H45.6722C45.9121 21.7079 46.152 21.6628 46.359 21.5455C46.486 21.4011 46.5706 21.2296 46.6036 21.0445Z" />
</svg>
