<svg viewBox="0 0 1440 460" xmlns="http://www.w3.org/2000/svg">
<g clip-path="url(#clip0_877_12405)">
<path d="M940.008 268.352C939.801 267.589 941.694 266.73 942.409 266.205C944.174 264.933 946.671 263.947 948.801 262.882C955.598 265.326 1040.39 213.314 1037.66 205.797C1041.41 203.921 1044.14 201.615 1047.58 199.548C1050.6 197.719 1053.4 195.747 1056.53 193.982C1058.34 192.965 1060.33 192.09 1062.14 191.072C1064.42 189.8 1066.41 188.337 1068.65 187.049C1070.05 186.254 1071.67 185.682 1072.99 184.823C1074.32 183.949 1075.74 183.138 1077.25 182.375C1078.32 181.834 1079.35 181.214 1080.46 180.737C1081.37 180.339 1082.24 180.117 1082.99 179.624C1084.66 178.526 1086.6 177.668 1088.41 176.634C1089.51 176.014 1090.53 175.489 1091.8 175.012C1092.21 174.853 1092.56 174.631 1092.98 174.472C1093.33 174.344 1093.76 174.281 1094.09 174.154C1094.31 174.074 1094.36 173.788 1094.65 173.724C1096.63 173.215 1100.04 175.283 1101.26 175.919C1103.98 177.318 1106.38 178.813 1109.32 180.069C1111.93 181.182 1114.49 182.343 1117.07 183.488C1121.49 185.443 1125.89 187.399 1130.38 189.307C1132.87 190.373 1135.13 191.645 1137.66 192.678C1140.27 193.744 1142.7 194.984 1145.07 196.24C1148.31 197.973 1151.52 199.659 1154.69 201.44C1157.34 202.951 1160.14 204.525 1163.04 205.86C1166.9 207.657 1170.99 209.247 1174.69 211.156C1178.17 212.952 1181.69 213.906 1186.22 214.495C1187.95 214.717 1189.67 214.908 1191.36 215.274C1192.26 215.465 1193.17 215.751 1194.11 215.846C1195.33 215.958 1196.37 216.069 1197.56 216.244C1199.53 216.546 1201.52 218.009 1203 218.788C1205.19 219.933 1207.34 221.062 1209.98 221.809C1211.34 222.191 1212.68 222.429 1213.9 222.97C1214.73 223.336 1215.53 223.686 1216.48 223.924C1218.12 224.338 1219.6 224.497 1221.38 224.528C1223.1 224.544 1224.77 224.385 1226.48 224.401C1227.85 224.401 1229.3 224.147 1230.63 224.226C1231.83 224.29 1232.46 224.719 1233.29 225.228C1234.88 226.198 1236.48 227.168 1238.14 228.09C1240.41 229.362 1243.07 230.221 1245.9 230.889C1247.63 231.302 1249.41 231.652 1251.26 231.827C1254.02 232.081 1256.96 232.097 1259.72 231.827C1261.34 231.652 1262.94 231.366 1264.58 231.175C1267.38 230.857 1270.21 230.746 1273.02 230.459C1275.33 230.237 1277.65 230.062 1279.99 229.967C1282.1 229.887 1284.22 230.571 1286.14 231.064C1288.85 231.747 1291.18 232.018 1294.13 231.859C1297.78 231.668 1301.27 231.207 1304.99 231.302C1308.26 231.382 1311.79 231.366 1315.04 231.7C1318.25 232.034 1321.43 232.765 1324.48 233.465C1328.63 234.403 1332.57 235.675 1336.85 236.391C1340.38 236.979 1343.77 237.265 1347.39 237.345C1354.2 237.52 1361.26 238.219 1367.88 239.332C1371.39 239.937 1374.89 240.732 1378.51 240.954C1381.17 241.113 1383.86 241.018 1386.5 241.352C1388.79 241.654 1391.06 242.465 1393.35 242.608C1395.18 242.719 1397.28 242.512 1399.04 242.846C1398.96 243.069 1394.76 244.071 1394.48 244.166C1389.23 245.756 1382.97 246.138 1377.35 247.013C1366.51 248.698 1356.38 251.513 1345.52 253.198C1340.51 253.914 1335.58 254.804 1330.75 255.854C1323.97 257.682 1317.12 259.399 1310.19 261.037C1303.25 262.23 1296.3 263.407 1289.36 264.551C1285.94 265.331 1282.53 266.11 1279.12 266.889C1272.9 268.606 1266.36 269.735 1259.52 270.292C1252 270.816 1244.59 271.612 1237.28 272.693C1233.7 273.202 1230.11 273.695 1226.51 274.203C1218.72 274.967 1210.88 274.951 1203 274.156C1195.67 273.551 1004.14 308.311 997.602 306.355C991.639 304.654 985.771 302.857 979.983 300.933C977.662 299.995 975.34 299.073 973.019 298.135C968.916 296.067 965.021 293.873 961.363 291.52C956.816 288.801 952.331 286.161 948.467 283.076C946.718 281.582 944.922 280.087 943.109 278.624C941.9 277.718 941.248 276.7 941.153 275.571C940.93 273.981 941.28 272.327 939.992 268.384L940.008 268.352Z" />
<path d="M1087.42 187.055C1087.15 187.23 1086.88 187.405 1086.61 187.579C1086.95 187.42 1087.23 187.246 1087.42 187.055Z" fill="#F9BFBC"/>
<path d="M1163.62 241.451C1165.39 240.497 1167.01 239.464 1168.55 238.414C1166.68 239.336 1164.96 240.322 1163.62 241.451Z" fill="#F9BFBC"/>
<path d="M1080.48 191.251C1082.58 190.09 1084.64 188.866 1086.61 187.578C1085.84 187.944 1084.79 188.246 1084.18 188.548C1082.67 189.327 1081.97 190.472 1080.46 191.235L1080.48 191.251Z" fill="#F9BFBC"/>
<path d="M1092.18 177.464C1091.35 178.275 1090.33 179.039 1089.4 179.802C1089.87 179.865 1092.59 178.625 1093.1 178.434C1094.33 177.973 1095.38 177.369 1096.81 177.162C1094.82 177.56 1093.32 179.134 1092.18 180.152C1090.99 181.217 1090.14 182.426 1089.16 183.57C1088.6 184.222 1087.71 184.493 1087.65 185.24C1087.6 185.765 1087.85 186.48 1087.52 186.957C1087.49 186.989 1087.46 187.037 1087.42 187.069C1089.36 185.781 1091.23 184.461 1092.91 183.109C1093.63 182.553 1094.82 181.599 1096.28 181.758C1097.7 181.901 1097.81 182.314 1097.22 182.887C1097.82 183.125 1099.46 183.173 1099.61 183.586C1099.78 184.079 1098 184.779 1097.46 185.017C1095.39 185.956 1092.93 186.576 1091.15 187.737C1090.11 188.42 1089.51 189.231 1088.39 189.883C1085.48 191.553 1083.66 193.652 1081.1 195.464C1079.16 196.848 1077.39 198.088 1075.05 199.217C1074.32 199.567 1071.87 200.696 1071.87 201.443C1073.1 201.284 1074.02 200.601 1074.99 200.155C1076.5 199.456 1078 198.772 1079.46 198.04C1082.96 196.275 1086.65 194.51 1089.75 192.491C1090.43 192.046 1091.03 191.744 1091.78 191.457C1092.62 191.123 1093.44 190.662 1094.45 190.487C1095.69 191.394 1099.64 189.152 1100.72 188.897C1100.91 189.39 1098.57 190.328 1098.33 190.44C1096.6 191.33 1094.93 192.268 1093.28 193.207C1091.58 194.176 1089.79 194.987 1088.7 196.212C1087.84 197.166 1086.93 198.104 1085.77 198.947C1084.53 199.837 1082.5 200.473 1081.51 201.459C1082.32 201.411 1082.99 200.855 1083.56 200.553C1085.17 199.726 1086.79 198.915 1088.38 198.088C1089.64 197.436 1091 196.975 1092.35 196.403C1091.15 197.468 1089.41 198.184 1088.05 199.154C1086.84 200.012 1085.8 201.046 1084.71 201.968C1082.23 204.051 1079.38 205.943 1076.93 208.058C1073.94 210.634 1070.67 213.131 1067.45 215.611C1069.58 214.625 1071.59 213.48 1073.69 212.479C1076.99 210.889 1080.43 209.378 1083.69 207.74C1084.63 207.279 1085.45 206.659 1086.49 206.261C1087 206.071 1087.6 205.991 1088.05 205.737C1086.45 206.786 1085.14 207.979 1083.85 209.171C1083.45 209.537 1080.97 211.191 1081.06 211.715C1082.83 211.318 1084.53 210.253 1085.98 209.585C1088.16 208.583 1090.13 207.486 1092.77 206.977C1097.71 206.007 1100.43 202.954 1105.36 201.984C1106.22 201.841 1107.09 201.73 1107.97 201.634C1108.94 201.3 1109.83 200.903 1110.67 200.442C1112.41 199.551 1113.95 198.502 1115.78 197.675C1116.84 197.198 1117.86 196.959 1119.04 196.641C1119.88 196.419 1120.88 195.751 1121.88 195.878C1121.9 196.752 1120.05 197.85 1119.48 198.549C1118.96 199.201 1119.42 200.664 1119.47 201.411C1119.56 202.795 1119.85 204.21 1119.74 205.593C1119.66 206.579 1119.04 207.343 1118.77 208.313C1118.05 210.904 1118.48 213.942 1118.38 216.565C1118.29 219.507 1118.05 222.465 1118.03 225.406C1120.63 223.8 1123.2 221.844 1126.94 221.161C1128.64 220.906 1130.39 220.827 1132.15 220.938C1133.84 220.795 1135.37 220.429 1136.72 219.825C1138.32 219.253 1140.06 218.887 1141.93 218.76C1143.44 218.712 1144.92 218.839 1146.37 219.125C1149.42 219.316 1151.9 218.155 1154.8 217.853C1157.01 217.631 1159.25 217.853 1161.49 217.662C1165.23 217.36 1168.93 216.899 1172.65 216.533C1175.33 216.279 1178.16 215.818 1180.88 215.77C1181.07 216.565 1180 217.44 1179.43 218.076C1181.43 217.233 1183.55 215.738 1186.15 215.818C1187.46 215.866 1189.08 216.215 1190.34 216.343C1191.77 216.502 1193.15 216.613 1194.6 216.661C1193.53 217.837 1192.13 218.76 1191.62 220.111C1190.88 222.083 1189.34 223.498 1187.27 225.056C1183.32 228.014 1179.11 230.844 1175.06 233.754C1172.88 235.313 1170.81 236.903 1168.6 238.413C1171.35 237.062 1174.45 235.885 1177.19 234.724C1182.8 232.307 1188.32 229.795 1193.95 227.41C1196.75 226.217 1200.08 224.611 1203.39 223.927C1201.91 226.615 1197.67 228.571 1195.14 230.86C1198.59 229.429 1202.06 227.998 1205.52 226.583C1206.7 226.106 1208.18 225.311 1209.64 225.215C1210.74 225.136 1213.9 225.406 1214.32 225.422C1216.56 225.502 1219.77 225.215 1221.74 225.947C1221.52 226.678 1221.06 227.33 1220.37 227.919C1223.03 226.662 1225.67 225.374 1228.67 224.42C1228.93 224.866 1229.36 224.882 1230.12 225.041C1230.39 226.217 1229.71 227.251 1228.07 228.109C1226.37 229.811 1224.37 231.369 1222.08 232.768C1215.29 237.284 1207.88 241.546 1200.31 245.585C1206.78 242.214 1213.49 239.018 1220.44 235.996C1223.78 233.723 1227.78 232.164 1232.44 231.337C1232.67 232.021 1232.97 232.689 1233.33 233.341C1234.24 233.595 1235.18 233.691 1236.18 233.627C1237.83 233.707 1239.69 234.072 1241.38 234.104C1241.35 234.104 1241.33 234.072 1241.3 234.056C1241.4 234.056 1241.95 234.088 1242.05 234.104C1241.82 234.104 1241.6 234.104 1241.36 234.104C1242.24 234.693 1241.24 235.678 1240.57 236.076C1239.87 236.473 1239.53 236.791 1239.01 237.237C1238.41 237.761 1237.59 238.016 1236.86 238.445C1235.5 239.24 1234.43 240.226 1233.21 241.069C1232.33 241.673 1230.42 242.166 1229.93 242.882C1230.79 242.993 1232.71 242.166 1233.38 241.927C1235.94 241.021 1238.55 240.131 1241.25 239.399C1243.64 238.747 1245.75 237.92 1248.22 237.38C1250 236.982 1251.78 236.155 1253.64 235.981C1254.1 235.933 1254.55 236.012 1254.97 235.965C1255.28 235.933 1255.37 235.758 1255.71 235.71C1256.66 235.599 1257.49 235.79 1258.19 236.155C1259.7 236.95 1262.4 237.65 1264.45 237.428C1267.11 237.141 1268.94 235.44 1271.45 234.852C1272.77 234.533 1274.14 234.39 1275.41 234.025C1277.89 233.325 1279.81 231.655 1281.99 230.574C1282.25 230.447 1282.52 230.32 1282.79 230.193C1281.9 230.018 1280.99 229.922 1280.1 229.954C1277.76 230.049 1275.44 230.224 1273.13 230.447C1270.32 230.717 1267.49 230.829 1264.69 231.162C1263.07 231.353 1261.46 231.639 1259.82 231.814C1257.09 232.101 1254.15 232.085 1251.37 231.814C1249.52 231.639 1247.74 231.29 1246.01 230.876C1243.16 230.208 1240.52 229.35 1238.25 228.078C1236.59 227.155 1234.99 226.17 1233.4 225.215C1232.55 224.707 1231.93 224.277 1230.74 224.214C1229.39 224.15 1227.96 224.404 1226.59 224.389C1224.87 224.389 1223.2 224.532 1221.49 224.516C1219.72 224.5 1218.23 224.325 1216.59 223.912C1215.65 223.673 1214.84 223.323 1214.01 222.957C1212.79 222.417 1211.44 222.178 1210.09 221.797C1207.45 221.065 1205.3 219.936 1203.11 218.775C1201.61 217.996 1199.64 216.533 1197.67 216.231C1196.47 216.056 1195.44 215.945 1194.22 215.834C1193.26 215.754 1192.37 215.452 1191.47 215.261C1189.78 214.912 1188.06 214.705 1186.33 214.482C1181.8 213.894 1178.28 212.94 1174.8 211.143C1171.1 209.235 1166.99 207.629 1163.15 205.848C1160.25 204.512 1157.47 202.922 1154.8 201.427C1151.63 199.646 1148.42 197.961 1145.18 196.228C1142.81 194.972 1140.38 193.747 1137.77 192.666C1135.24 191.632 1132.98 190.36 1130.49 189.295C1126 187.387 1121.6 185.431 1117.18 183.475C1114.6 182.33 1112.04 181.169 1109.43 180.056C1106.49 178.8 1104.07 177.305 1101.37 175.906C1100.35 175.381 1097.86 173.887 1095.9 173.664C1095.33 174.189 1094.77 174.714 1094.25 175.238C1093.52 175.954 1093.04 176.765 1092.31 177.48L1092.18 177.464Z" fill="#CDCDCD"/>
<path d="M1241.22 234.039C1241.22 234.039 1241.27 234.071 1241.3 234.087C1241.52 234.087 1241.76 234.087 1241.98 234.087C1241.89 234.087 1241.33 234.055 1241.23 234.039H1241.22Z" fill="#F9BFBC"/>
<path d="M1398.78 228.91C1400.24 228.274 1401.74 227.575 1403.22 226.875C1402.74 227.066 1402.28 227.273 1401.82 227.479C1400.94 227.877 1399.48 228.417 1398.77 228.926L1398.78 228.91Z" fill="#F9BFBC"/>
<mask id="mask0_877_12405" style="mask-type:luminance" maskUnits="userSpaceOnUse" x="-420" y="-120" width="1386" height="509">
<path d="M965.411 -120H-420V388.864H965.411V-120Z" fill="white"/>
</mask>
<g mask="url(#mask0_877_12405)">
<path d="M492.618 244.966C488.54 244.998 485.189 243.891 481.68 242.722C476.369 240.983 471.058 239.118 466.158 237C457.718 233.364 449.182 229.697 441.09 225.778C434.641 222.648 428.16 219.582 421.743 216.42C414.756 213.006 407.422 209.94 400.404 206.557C396.295 204.566 392.66 202.416 388.613 200.393C383.081 197.611 377.011 195.303 371.226 192.743C366.042 190.435 362.059 187.495 356.558 185.409C352.417 183.828 349.098 181.489 345.715 179.371C342.238 177.221 338.033 175.387 334.05 173.586C330.889 172.163 327.506 171.057 324.598 169.444C321.184 167.548 317.928 165.714 314.166 164.102C307.749 161.32 301.11 158.38 295.452 155.029C290.33 151.994 286.252 148.801 279.93 146.747C277.053 145.83 275.062 143.048 271.553 144.565C265.451 147.189 260.204 151.425 255.399 154.808C247.464 160.372 238.012 164.861 229.793 170.266C220.214 176.589 211.268 183.259 200.551 188.886C195.841 191.352 191.099 193.786 185.915 195.872C177.632 199.192 169.16 202.005 161.984 206.209C153.038 211.457 144.218 216.325 134.26 220.909C127.369 224.102 120.446 227.232 113.744 230.583C104.07 235.388 94.7764 239.908 86.5256 245.662C80.2663 250.024 75.3348 254.387 67.5898 257.769C64.1756 259.255 61.457 261.025 58.3906 262.701C59.5919 262.954 61.8996 262.669 63.0376 262.606C67.7162 262.416 72.2368 262.479 76.9155 262.543C91.2358 262.796 105.398 264.629 119.687 265.293C129.961 265.767 140.33 265.577 150.635 265.736C164.671 265.957 178.676 265.641 192.743 265.356C212.849 264.945 232.954 264.503 253.059 263.775C267.822 263.238 282.016 262.796 296.779 263.112C325.483 263.712 354.756 265.103 383.492 262.543C401.005 260.994 418.139 258.18 435.715 256.979C443.524 256.441 451.3 256.189 459.14 255.714C467.897 255.177 476.685 254.039 485.442 253.754C487.149 253.691 488.729 253.754 490.405 253.533C492.839 253.217 495.083 252.427 492.649 244.966H492.618Z" fill="#CDCDCD"/>
<path d="M255.937 220.405C256.822 220.499 257.676 220.594 258.561 220.689C267.191 221.638 275.885 223.028 284.673 223.408C282.934 223.123 279.994 220.468 279.109 219.836C276.138 217.718 273.103 215.694 270.922 213.229C273.577 211.616 280.374 213.102 283.345 213.576C285.242 213.893 287.929 214.43 289.921 213.829C289.826 213.323 289.352 212.818 289.004 212.407C303.387 216.453 317.487 220.752 331.522 225.241C330.448 223.756 326.812 222.017 324.884 220.942C321.786 219.203 318.846 217.496 315.874 215.663C311.354 212.881 306.707 210.162 302.218 207.349C298.804 205.199 293.177 202.733 290.648 200.015C292.165 200.268 293.398 200.931 294.631 201.469C299.531 203.587 304.684 205.294 310.216 206.748C324.631 210.542 339.71 214.62 352.292 220.341C349.541 219.014 347.139 217.433 344.547 215.979C340.595 213.798 336.075 212.185 332.028 210.099C327.666 207.855 323.272 205.705 318.972 203.429C313.978 200.868 309.078 198.276 304.273 195.621C300.827 195.178 299.373 194.356 299.91 193.123C309.71 197.264 319.352 201.564 329.341 205.547C328.993 205.389 337.086 209.056 339.647 208.835C336.802 205.705 330.542 203.555 325.895 201.595C320.174 199.161 309.331 195.115 309.71 190.31C309.805 189.108 310.469 187.781 309.331 186.801C308.161 186.263 306.991 185.694 305.822 185.157C303.229 184.05 300.764 182.849 298.424 181.585C296.749 180.7 294.22 179.625 293.272 178.329C302.376 181.079 311.417 184.051 319.858 187.496C326.717 190.278 333.229 193.882 340.722 196.032C342.365 196.506 343.788 196.853 345.653 196.632C343.44 195.21 340.627 194.04 338.066 192.839C335.664 191.701 333.356 190.626 331.175 189.393C326.401 186.643 321.154 184.43 316.064 181.901C312.523 180.131 309.805 178.265 306.738 176.274C304.367 174.756 301.396 173.713 298.93 172.227C295.737 170.299 292.45 168.718 288.846 167.075C288.498 166.917 287.897 166.6 287.234 166.253C288.814 166.569 290.49 166.822 291.849 167.169C295.073 167.991 297.855 169.92 301.333 170.362C300.606 169.54 298.108 169.003 296.907 168.371C294.03 166.853 292.228 164.957 289.699 163.281C283.819 159.361 278.224 155.252 273.166 150.889C274.905 151.49 277.023 151.964 278.73 152.628C280.374 153.26 286.222 156.864 287.992 156.01C286.443 154.272 284.294 152.723 282.207 151.142C279.836 149.309 277.908 147.412 275.442 145.641C274.683 145.104 273.893 144.598 273.071 144.124C275.695 143.84 277.497 145.926 279.931 146.716C286.254 148.771 290.332 151.964 295.453 154.999C301.111 158.35 307.75 161.29 314.167 164.071C317.929 165.715 321.185 167.517 324.599 169.414C327.508 171.026 330.89 172.133 334.051 173.555C338.035 175.357 342.239 177.191 345.716 179.34C349.131 181.427 352.418 183.798 356.559 185.378C362.06 187.465 366.043 190.405 371.228 192.712C377.013 195.273 383.082 197.581 388.614 200.362C392.661 202.386 396.296 204.535 400.406 206.527C407.424 209.909 414.789 212.944 421.744 216.39C428.161 219.551 434.642 222.617 441.091 225.747C449.184 229.667 457.719 233.334 466.159 236.97C471.091 239.088 476.402 240.953 481.681 242.691C485.19 243.861 488.541 244.967 492.619 244.936C495.053 252.396 492.809 253.187 490.374 253.503C488.699 253.724 487.118 253.661 485.411 253.724C476.623 253.977 467.835 255.147 459.11 255.684C451.302 256.158 443.493 256.411 435.685 256.948C418.109 258.181 400.975 260.963 383.462 262.512C354.726 265.073 325.421 263.682 296.749 263.081C281.986 262.765 267.792 263.208 253.029 263.745C234.03 264.441 214.999 264.852 195.969 265.263C209.436 254.451 222.966 243.735 237.223 233.271C242.945 228.687 249.172 224.388 255.906 220.373L255.937 220.405Z" />
<path d="M287.202 166.317C285.558 166.001 283.978 165.59 282.84 164.989C284.01 164.831 285.811 165.621 287.202 166.317Z" fill="#F9BFBC"/>
<path d="M1056.08 309.139C1056.49 307.621 1052.73 305.914 1051.3 304.871C1047.79 302.342 1042.83 300.382 1038.6 298.296C1032.59 295.293 867.92 187.811 861.946 184.807C854.485 181.077 849.048 176.493 842.22 172.384C836.213 168.748 830.649 164.828 824.422 161.319C820.818 159.296 816.867 157.558 813.263 155.534C808.742 153.005 804.791 150.097 800.333 147.536C797.551 145.956 794.327 144.818 791.703 143.111C789.048 141.372 786.234 139.76 783.231 138.242C781.113 137.168 779.058 135.935 776.845 134.986C775.043 134.196 773.305 133.753 771.819 132.773C768.5 130.592 764.643 128.885 761.039 126.83C758.858 125.598 756.835 124.554 754.306 123.606C753.484 123.29 752.788 122.847 751.966 122.531C751.271 122.278 750.417 122.152 749.754 121.899C749.311 121.741 749.216 121.172 748.647 121.045C744.696 120.034 737.931 124.143 735.496 125.408C730.091 128.19 725.317 131.161 719.469 133.659C714.284 135.871 709.195 138.179 704.074 140.455C695.285 144.344 686.529 148.232 677.614 152.025C672.651 154.143 668.162 156.672 663.136 158.727C657.951 160.845 653.115 163.311 648.404 165.808C641.956 169.254 635.57 172.605 629.279 176.146C624 179.149 618.436 182.278 612.682 184.934C605.001 188.506 596.876 191.667 589.511 195.461C582.587 199.033 575.601 200.93 566.592 202.099C563.146 202.542 559.732 202.921 556.381 203.648C554.579 204.028 552.777 204.597 550.912 204.786C548.478 205.008 546.423 205.229 544.052 205.577C540.132 206.177 536.181 209.086 533.241 210.635C528.878 212.911 524.61 215.155 519.363 216.641C516.644 217.4 513.989 217.874 511.555 218.949C509.911 219.676 508.33 220.371 506.433 220.845C503.177 221.667 500.237 221.984 496.697 222.047C493.283 222.078 489.963 221.762 486.549 221.794C483.831 221.794 480.954 221.288 478.298 221.446C475.928 221.573 474.663 222.426 473.019 223.438C469.858 225.366 466.665 227.294 463.377 229.128C458.857 231.657 453.578 233.364 447.951 234.692C444.505 235.514 440.964 236.209 437.297 236.557C431.797 237.063 425.948 237.094 420.479 236.557C417.255 236.209 414.062 235.64 410.806 235.261C405.242 234.628 399.615 234.407 394.02 233.838C389.436 233.396 384.821 233.048 380.174 232.858C375.969 232.7 371.765 234.059 367.94 235.039C362.566 236.399 357.919 236.936 352.07 236.62C344.799 236.241 337.876 235.324 330.479 235.514C323.967 235.672 316.949 235.64 310.5 236.304C304.114 236.968 297.792 238.422 291.722 239.813C283.472 241.678 275.632 244.207 267.128 245.63C260.11 246.799 253.377 247.368 246.169 247.526C232.639 247.874 218.603 249.265 205.452 251.478C198.466 252.679 191.511 254.26 184.304 254.702C179.024 255.018 173.682 254.829 168.434 255.493C163.882 256.093 159.362 257.705 154.809 257.99C151.174 258.211 147.001 257.8 143.492 258.464C143.65 258.907 151.996 260.898 152.565 261.088C162.997 264.249 175.452 265.008 186.611 266.747C208.171 270.097 228.308 275.693 249.899 279.044C259.857 280.466 269.657 282.237 279.267 284.323C292.734 287.958 306.359 291.373 320.142 294.629C333.925 297 347.739 299.339 361.554 301.615C368.351 303.164 375.116 304.713 381.912 306.262C394.273 309.676 407.265 311.921 420.859 313.027C435.811 314.07 450.543 315.651 465.084 317.8C472.197 318.812 479.342 319.792 486.486 320.804C501.976 322.321 517.561 322.289 533.241 320.709C547.814 319.508 928.585 388.612 941.577 384.724C953.432 381.341 965.097 377.769 976.604 373.944C981.219 372.079 985.834 370.245 990.45 368.38C998.606 364.271 1006.35 359.908 1013.62 355.23C1022.66 349.824 1031.58 344.576 1039.26 338.443C1042.74 335.472 1046.31 332.5 1049.91 329.592C1052.32 327.79 1053.61 325.767 1053.8 323.522C1054.24 320.361 1053.55 317.073 1056.11 309.234L1056.08 309.139Z" />
<path d="M763 147.535C763.537 147.883 764.075 148.231 764.612 148.578C763.948 148.262 763.379 147.915 763 147.535Z" fill="#F9BFBC"/>
<path d="M611.511 255.679C608.002 253.782 604.777 251.727 601.711 249.641C605.441 251.474 608.855 253.434 611.511 255.679Z" fill="#F9BFBC"/>
<path d="M776.812 155.881C772.639 153.573 768.529 151.139 764.609 148.578C766.158 149.305 768.245 149.906 769.446 150.507C772.449 152.056 773.84 154.332 776.843 155.849L776.812 155.881Z" fill="#F9BFBC"/>
<path d="M753.546 128.442C755.19 130.054 757.213 131.572 759.079 133.089C758.13 133.215 752.725 130.75 751.713 130.37C749.279 129.454 747.192 128.252 744.347 127.841C748.299 128.632 751.27 131.761 753.546 133.785C755.917 135.903 757.593 138.305 759.553 140.581C760.659 141.877 762.43 142.415 762.556 143.9C762.651 144.944 762.145 146.366 762.809 147.315C762.872 147.378 762.935 147.473 762.999 147.536C759.142 144.975 755.443 142.352 752.092 139.664C750.67 138.558 748.299 136.661 745.39 136.977C742.577 137.262 742.356 138.084 743.525 139.222C742.324 139.696 739.068 139.791 738.784 140.613C738.436 141.593 741.976 142.984 743.051 143.458C747.161 145.323 752.061 146.556 755.601 148.864C757.656 150.223 758.857 151.835 761.07 153.131C766.855 156.451 770.491 160.623 775.58 164.227C779.437 166.977 782.946 169.443 787.593 171.688C789.047 172.383 793.915 174.628 793.915 176.113C791.481 175.797 789.648 174.438 787.719 173.553C784.716 172.162 781.745 170.803 778.836 169.348C771.882 165.839 764.548 162.33 758.383 158.316C757.024 157.431 755.823 156.83 754.337 156.261C752.661 155.597 751.049 154.68 749.026 154.333C746.56 156.134 738.72 151.677 736.571 151.171C736.191 152.151 740.838 154.016 741.312 154.238C744.758 156.008 748.078 157.873 751.365 159.738C754.748 161.667 758.288 163.279 760.47 165.713C762.177 167.61 763.979 169.475 766.286 171.15C768.752 172.921 772.798 174.185 774.758 176.145C773.146 176.05 771.818 174.944 770.68 174.343C767.487 172.699 764.263 171.087 761.102 169.443C758.604 168.147 755.886 167.23 753.199 166.092C755.601 168.21 759.047 169.633 761.766 171.561C764.168 173.268 766.223 175.323 768.404 177.157C773.336 181.298 778.994 185.06 783.863 189.264C789.806 194.385 796.318 199.349 802.704 204.28C798.468 202.32 794.484 200.044 790.312 198.052C783.736 194.891 776.908 191.888 770.427 188.632C768.562 187.715 766.918 186.482 764.864 185.692C763.852 185.313 762.651 185.155 761.766 184.649C764.927 186.735 767.551 189.106 770.111 191.477C770.902 192.204 775.833 195.492 775.643 196.535C772.135 195.745 768.752 193.627 765.875 192.299C761.544 190.307 757.624 188.126 752.377 187.115C742.545 185.186 737.14 179.117 727.34 177.188C725.633 176.904 723.894 176.682 722.155 176.493C720.227 175.829 718.457 175.039 716.781 174.122C713.336 172.352 710.269 170.265 706.634 168.621C704.516 167.673 702.493 167.199 700.153 166.566C698.478 166.124 696.486 164.796 694.495 165.049C694.463 166.788 698.13 168.969 699.268 170.36C700.311 171.656 699.395 174.564 699.3 176.05C699.11 178.8 698.541 181.614 698.762 184.364C698.92 186.324 700.153 187.842 700.691 189.77C702.113 194.923 701.26 200.961 701.449 206.177C701.639 212.025 702.113 217.905 702.145 223.753C696.992 220.56 691.871 216.672 684.442 215.313C681.059 214.807 677.582 214.649 674.073 214.87C670.722 214.586 667.687 213.859 665 212.657C661.807 211.519 658.362 210.792 654.632 210.539C651.628 210.444 648.688 210.697 645.812 211.266C639.742 211.646 634.811 209.338 629.057 208.737C624.663 208.295 620.206 208.737 615.748 208.358C608.319 207.757 600.954 206.841 593.556 206.114C588.246 205.608 582.619 204.691 577.213 204.596C576.833 206.177 578.952 207.915 580.09 209.18C576.106 207.504 571.902 204.533 566.718 204.691C564.125 204.786 560.901 205.481 558.404 205.734C555.558 206.05 552.808 206.272 549.931 206.366C552.049 208.706 554.831 210.539 555.843 213.226C557.329 217.146 560.395 219.96 564.505 223.058C572.345 228.938 580.722 234.565 588.783 240.35C593.114 243.448 597.223 246.609 601.618 249.612C596.149 246.925 589.984 244.586 584.547 242.278C573.388 237.473 562.418 232.478 551.227 227.736C545.664 225.365 539.025 222.173 532.45 220.813C535.39 226.156 543.83 230.044 548.857 234.596C541.997 231.751 535.105 228.906 528.214 226.093C525.874 225.144 522.934 223.564 520.026 223.374C517.845 223.216 511.554 223.753 510.732 223.785C506.275 223.943 499.889 223.374 495.969 224.828C496.412 226.282 497.328 227.578 498.688 228.748C493.409 226.251 488.161 223.69 482.186 221.793C481.68 222.678 480.827 222.71 479.309 223.026C478.772 225.365 480.131 227.42 483.387 229.127C486.77 232.51 490.753 235.608 495.305 238.39C508.804 247.368 523.535 255.84 538.583 263.869C525.716 257.167 512.376 250.813 498.561 244.807C491.923 240.286 483.956 237.188 474.694 235.545C474.251 236.904 473.651 238.232 472.924 239.528C471.122 240.034 469.257 240.223 467.265 240.097C463.977 240.255 460.279 240.982 456.928 241.045C456.991 241.045 457.023 240.982 457.086 240.95C456.896 240.95 455.79 241.014 455.6 241.045C456.043 241.045 456.485 241.045 456.96 241.045C455.221 242.215 457.212 244.175 458.54 244.965C459.931 245.755 460.595 246.388 461.638 247.273C462.839 248.316 464.452 248.822 465.906 249.675C468.624 251.256 470.743 253.216 473.177 254.891C474.915 256.093 478.709 257.073 479.689 258.495C477.982 258.716 474.157 257.073 472.829 256.598C467.739 254.797 462.555 253.026 457.181 251.572C452.439 250.276 448.235 248.632 443.335 247.557C439.794 246.767 436.253 245.123 432.555 244.775C431.638 244.681 430.753 244.839 429.899 244.744C429.299 244.681 429.109 244.333 428.445 244.238C426.548 244.017 424.905 244.396 423.514 245.123C420.51 246.704 415.136 248.095 411.058 247.652C405.779 247.083 402.144 243.701 397.149 242.531C394.525 241.899 391.807 241.614 389.278 240.887C384.346 239.496 380.521 236.177 376.19 234.027C375.684 233.774 375.147 233.521 374.609 233.269C376.38 232.921 378.182 232.731 379.952 232.794C384.599 232.984 389.214 233.332 393.798 233.774C399.393 234.312 405.02 234.533 410.584 235.197C413.809 235.576 417.002 236.145 420.258 236.493C425.695 237.062 431.543 237.03 437.075 236.493C440.742 236.145 444.283 235.45 447.729 234.628C453.387 233.3 458.635 231.593 463.156 229.064C466.443 227.231 469.636 225.271 472.797 223.374C474.473 222.362 475.706 221.509 478.077 221.382C480.764 221.256 483.609 221.762 486.327 221.73C489.741 221.73 493.061 222.015 496.475 221.983C499.984 221.951 502.955 221.604 506.212 220.782C508.077 220.308 509.689 219.612 511.333 218.885C513.767 217.81 516.454 217.336 519.141 216.577C524.389 215.123 528.656 212.879 533.019 210.571C535.99 209.022 539.91 206.114 543.83 205.513C546.201 205.165 548.256 204.944 550.69 204.723C552.587 204.565 554.357 203.964 556.159 203.585C559.51 202.889 562.924 202.478 566.37 202.036C575.379 200.866 582.366 198.969 589.289 195.397C596.654 191.604 604.81 188.411 612.461 184.87C618.214 182.215 623.746 179.053 629.057 176.082C635.348 172.541 641.734 169.19 648.183 165.745C652.893 163.247 657.729 160.813 662.914 158.663C667.94 156.609 672.429 154.08 677.392 151.962C686.307 148.168 695.064 144.28 703.852 140.391C708.973 138.115 714.063 135.808 719.247 133.595C725.095 131.097 729.9 128.126 735.274 125.344C737.298 124.301 742.261 121.329 746.149 120.887C747.287 121.93 748.394 122.973 749.437 124.016C750.891 125.439 751.839 127.051 753.294 128.474L753.546 128.442Z" fill="#CDCDCD"/>
<path d="M457.244 240.953C457.244 240.953 457.149 241.016 457.086 241.048C456.643 241.048 456.169 241.048 455.727 241.048C455.916 241.048 457.023 240.985 457.212 240.953H457.244Z" fill="#F9BFBC"/>
<path d="M382.574 260.585C379.665 259.321 376.694 257.93 373.754 256.539C374.702 256.918 375.619 257.329 376.536 257.74C378.274 258.531 381.183 259.605 382.605 260.617L382.574 260.585Z" fill="#F9BFBC"/>
</g>
<path d="M-274 262H-93.2989L1026.03 253L1579.62 242L1745 262V460H-274V262Z" />
</g>
<defs>
<clipPath id="clip0_877_12405">
<rect width="1988" height="460" fill="white" transform="translate(-274)"/>
</clipPath>
</defs>
</svg>
