<svg viewBox="0 0 13 12" xmlns="http://www.w3.org/2000/svg">
<path d="M5.94254 0.389018C6.14879 -0.129673 6.85124 -0.129672 7.05749 0.389019L8.27475 3.45043C8.36175 3.66909 8.55835 3.8185 8.78402 3.83743L11.9436 4.10239C12.479 4.14729 12.696 4.8461 12.2882 5.21157L9.88089 7.36856C9.70896 7.52265 9.63382 7.76441 9.68636 7.99474L10.4218 11.2199C10.5464 11.7663 9.97816 12.1983 9.51982 11.9055L6.81474 10.1771C6.62152 10.0537 6.37851 10.0537 6.1853 10.1771L3.4802 11.9055C3.02187 12.1983 2.45358 11.7663 2.57819 11.2199L3.31366 7.99474C3.36619 7.76441 3.2911 7.52265 3.11916 7.36856L0.711838 5.21157C0.303969 4.8461 0.521041 4.14729 1.05638 4.10239L4.21602 3.83743C4.44171 3.8185 4.6383 3.66909 4.72525 3.45043L5.94254 0.389018Z" />
</svg>
