<svg viewBox="0 0 1354 407" fill="none" xmlns="http://www.w3.org/2000/svg">
<g filter="url(#filter0_d_877_12596)">
<path d="M1341 209L1341.81 211.19L1344 212L1341.81 212.81L1341 215L1340.19 212.81L1338 212L1340.19 211.19L1341 209Z" fill="#D9D9D9"/>
</g>
<circle opacity="0.2" cx="1341" cy="212" r="8" fill="url(#paint0_radial_877_12596)"/>
<g filter="url(#filter1_d_877_12596)">
<path d="M189 337L189.81 339.19L192 340L189.81 340.81L189 343L188.19 340.81L186 340L188.19 339.19L189 337Z" fill="#D9D9D9"/>
</g>
<circle opacity="0.2" cx="189" cy="340" r="8" fill="url(#paint1_radial_877_12596)"/>
<g filter="url(#filter2_d_877_12596)">
<path d="M1255 357L1255.81 359.19L1258 360L1255.81 360.81L1255 363L1254.19 360.81L1252 360L1254.19 359.19L1255 357Z" fill="#D9D9D9"/>
</g>
<circle opacity="0.2" cx="1255" cy="360" r="8" fill="url(#paint2_radial_877_12596)"/>
<g filter="url(#filter3_d_877_12596)">
<path d="M8 318L8.81027 320.19L11 321L8.81027 321.81L8 324L7.18973 321.81L5 321L7.18973 320.19L8 318Z" fill="#D9D9D9"/>
</g>
<circle opacity="0.2" cx="8" cy="321" r="8" fill="url(#paint3_radial_877_12596)"/>
<g filter="url(#filter4_d_877_12596)">
<path d="M1346 368L1346.81 370.19L1349 371L1346.81 371.81L1346 374L1345.19 371.81L1343 371L1345.19 370.19L1346 368Z" fill="#D9D9D9"/>
</g>
<circle opacity="0.2" cx="1346" cy="371" r="8" fill="url(#paint4_radial_877_12596)"/>
<path opacity="0.4" d="M900 5C901.333 5 901.333 0 900 0C898.667 0 898.667 5 900 5Z" fill="#F7EDE5"/>
<path opacity="0.6" d="M550 32C551.333 32 551.333 27 550 27C548.667 27 548.667 32 550 32Z" fill="#F7EDE5"/>
<path opacity="0.5" d="M1216 56C1217.33 56 1217.33 54 1216 54C1214.67 54 1214.67 56 1216 56Z" fill="#F7EDE5"/>
<path d="M1350 81C1351.33 81 1351.33 79 1350 79C1348.67 79 1348.67 81 1350 81Z" fill="#F7EDE5"/>
<path d="M41 147C42.3333 147 42.3333 145 41 145C39.6667 145 39.6667 147 41 147Z" fill="#F7EDE5"/>
<path d="M210 161C211.333 161 211.333 159 210 159C208.667 159 208.667 161 210 161Z" fill="#F7EDE5"/>
<path d="M21 248C22.3333 248 22.3333 246 21 246C19.6667 246 19.6667 248 21 248Z" fill="#F7EDE5"/>
<path d="M39 266C40.3333 266 40.3333 264 39 264C37.6667 264 37.6667 266 39 266Z" fill="#F7EDE5"/>
<path d="M104 282C105.333 282 105.333 280 104 280C102.667 280 102.667 282 104 282Z" fill="#F7EDE5"/>
<path d="M22.5 407C25.8333 407 25.8333 402 22.5 402C19.1667 402 19.1667 407 22.5 407Z" fill="#F7EDE5"/>
<path opacity="0.3" d="M159.5 229C162.833 229 162.833 224 159.5 224C156.167 224 156.167 229 159.5 229Z" fill="#F7EDE5"/>
<defs>
<filter id="filter0_d_877_12596" x="1334" y="209" width="14" height="14" filterUnits="userSpaceOnUse" color-interpolation-filters="sRGB">
<feFlood flood-opacity="0" result="BackgroundImageFix"/>
<feColorMatrix in="SourceAlpha" type="matrix" values="0 0 0 0 0 0 0 0 0 0 0 0 0 0 0 0 0 0 127 0" result="hardAlpha"/>
<feOffset dy="4"/>
<feGaussianBlur stdDeviation="2"/>
<feComposite in2="hardAlpha" operator="out"/>
<feColorMatrix type="matrix" values="0 0 0 0 0 0 0 0 0 0 0 0 0 0 0 0 0 0 0.25 0"/>
<feBlend mode="normal" in2="BackgroundImageFix" result="effect1_dropShadow_877_12596"/>
<feBlend mode="normal" in="SourceGraphic" in2="effect1_dropShadow_877_12596" result="shape"/>
</filter>
<filter id="filter1_d_877_12596" x="182" y="337" width="14" height="14" filterUnits="userSpaceOnUse" color-interpolation-filters="sRGB">
<feFlood flood-opacity="0" result="BackgroundImageFix"/>
<feColorMatrix in="SourceAlpha" type="matrix" values="0 0 0 0 0 0 0 0 0 0 0 0 0 0 0 0 0 0 127 0" result="hardAlpha"/>
<feOffset dy="4"/>
<feGaussianBlur stdDeviation="2"/>
<feComposite in2="hardAlpha" operator="out"/>
<feColorMatrix type="matrix" values="0 0 0 0 0 0 0 0 0 0 0 0 0 0 0 0 0 0 0.25 0"/>
<feBlend mode="normal" in2="BackgroundImageFix" result="effect1_dropShadow_877_12596"/>
<feBlend mode="normal" in="SourceGraphic" in2="effect1_dropShadow_877_12596" result="shape"/>
</filter>
<filter id="filter2_d_877_12596" x="1248" y="357" width="14" height="14" filterUnits="userSpaceOnUse" color-interpolation-filters="sRGB">
<feFlood flood-opacity="0" result="BackgroundImageFix"/>
<feColorMatrix in="SourceAlpha" type="matrix" values="0 0 0 0 0 0 0 0 0 0 0 0 0 0 0 0 0 0 127 0" result="hardAlpha"/>
<feOffset dy="4"/>
<feGaussianBlur stdDeviation="2"/>
<feComposite in2="hardAlpha" operator="out"/>
<feColorMatrix type="matrix" values="0 0 0 0 0 0 0 0 0 0 0 0 0 0 0 0 0 0 0.25 0"/>
<feBlend mode="normal" in2="BackgroundImageFix" result="effect1_dropShadow_877_12596"/>
<feBlend mode="normal" in="SourceGraphic" in2="effect1_dropShadow_877_12596" result="shape"/>
</filter>
<filter id="filter3_d_877_12596" x="1" y="318" width="14" height="14" filterUnits="userSpaceOnUse" color-interpolation-filters="sRGB">
<feFlood flood-opacity="0" result="BackgroundImageFix"/>
<feColorMatrix in="SourceAlpha" type="matrix" values="0 0 0 0 0 0 0 0 0 0 0 0 0 0 0 0 0 0 127 0" result="hardAlpha"/>
<feOffset dy="4"/>
<feGaussianBlur stdDeviation="2"/>
<feComposite in2="hardAlpha" operator="out"/>
<feColorMatrix type="matrix" values="0 0 0 0 0 0 0 0 0 0 0 0 0 0 0 0 0 0 0.25 0"/>
<feBlend mode="normal" in2="BackgroundImageFix" result="effect1_dropShadow_877_12596"/>
<feBlend mode="normal" in="SourceGraphic" in2="effect1_dropShadow_877_12596" result="shape"/>
</filter>
<filter id="filter4_d_877_12596" x="1339" y="368" width="14" height="14" filterUnits="userSpaceOnUse" color-interpolation-filters="sRGB">
<feFlood flood-opacity="0" result="BackgroundImageFix"/>
<feColorMatrix in="SourceAlpha" type="matrix" values="0 0 0 0 0 0 0 0 0 0 0 0 0 0 0 0 0 0 127 0" result="hardAlpha"/>
<feOffset dy="4"/>
<feGaussianBlur stdDeviation="2"/>
<feComposite in2="hardAlpha" operator="out"/>
<feColorMatrix type="matrix" values="0 0 0 0 0 0 0 0 0 0 0 0 0 0 0 0 0 0 0.25 0"/>
<feBlend mode="normal" in2="BackgroundImageFix" result="effect1_dropShadow_877_12596"/>
<feBlend mode="normal" in="SourceGraphic" in2="effect1_dropShadow_877_12596" result="shape"/>
</filter>
<radialGradient id="paint0_radial_877_12596" cx="0" cy="0" r="1" gradientUnits="userSpaceOnUse" gradientTransform="translate(1341 212) rotate(90) scale(8)">
<stop stop-color="white"/>
<stop offset="1" stop-color="white" stop-opacity="0"/>
</radialGradient>
<radialGradient id="paint1_radial_877_12596" cx="0" cy="0" r="1" gradientUnits="userSpaceOnUse" gradientTransform="translate(189 340) rotate(90) scale(8)">
<stop stop-color="white"/>
<stop offset="1" stop-color="white" stop-opacity="0"/>
</radialGradient>
<radialGradient id="paint2_radial_877_12596" cx="0" cy="0" r="1" gradientUnits="userSpaceOnUse" gradientTransform="translate(1255 360) rotate(90) scale(8)">
<stop stop-color="#D9D9D9"/>
<stop offset="1" stop-color="#000340"/>
</radialGradient>
<radialGradient id="paint3_radial_877_12596" cx="0" cy="0" r="1" gradientUnits="userSpaceOnUse" gradientTransform="translate(8 321) rotate(90) scale(8)">
<stop stop-color="white"/>
<stop offset="1" stop-color="white" stop-opacity="0"/>
</radialGradient>
<radialGradient id="paint4_radial_877_12596" cx="0" cy="0" r="1" gradientUnits="userSpaceOnUse" gradientTransform="translate(1346 371) rotate(90) scale(8)">
<stop stop-color="white"/>
<stop offset="1" stop-color="white" stop-opacity="0"/>
</radialGradient>
</defs>
</svg>
