<svg viewBox="0 0 141 120" xmlns="http://www.w3.org/2000/svg">
<path fill-rule="evenodd" clip-rule="evenodd" d="M23.0805 98.7288C23.3361 98.54 23.626 98.3836 23.9451 98.269C24.9854 97.8954 26.0854 98.0572 26.8919 98.609L129.066 61.8238C129.24 60.7939 130.004 59.8609 131.135 59.4546C131.743 59.2365 132.37 59.2008 132.948 59.3188L131.369 55.1766C131.018 55.5738 130.555 55.8959 130.005 56.0935C128.373 56.6794 126.595 55.9485 126.032 54.4609C125.47 52.9734 126.336 51.2925 127.968 50.7066C128.513 50.5109 129.074 50.4621 129.601 50.5394L128.086 46.565C127.752 46.9027 127.332 47.1767 126.843 47.3523C125.211 47.9382 123.433 47.2073 122.87 45.7197C122.308 44.2322 123.174 42.5513 124.806 41.9654C125.29 41.7917 125.787 41.7337 126.261 41.777L124.797 37.9382C124.485 38.2221 124.107 38.4534 123.676 38.6082C122.045 39.1941 120.266 38.4632 119.704 36.9756C119.141 35.4881 120.008 33.8072 121.639 33.2213C122.065 33.0684 122.501 33.0051 122.923 33.0217L121.505 29.3026C121.219 29.5371 120.885 29.7295 120.51 29.8641C118.878 30.45 117.099 29.719 116.537 28.2315C115.974 26.7439 116.841 25.0631 118.473 24.4772C118.842 24.3444 119.22 24.2793 119.588 24.2752L118.21 20.6587C117.954 20.8481 117.663 21.0051 117.343 21.1199C116.302 21.4939 115.201 21.3315 114.394 20.7783L62.8797 39.3247L12.2211 57.5631C12.0464 58.5923 11.2829 59.5245 10.152 59.9306C9.54539 60.1484 8.91843 60.1842 8.3412 60.0668L9.9183 64.2036C10.269 63.8069 10.7318 63.4852 11.2815 63.2878C12.9132 62.7019 14.6919 63.4328 15.2544 64.9204C15.8169 66.4079 14.9502 68.0888 13.3186 68.6747C12.7741 68.8702 12.2133 68.9191 11.6867 68.8422L13.2035 72.8208C13.5375 72.4824 13.9583 72.2078 14.4482 72.0319C16.0798 71.446 17.8585 72.177 18.421 73.6645C18.9835 75.1521 18.1168 76.8329 16.4852 77.4188C16.0006 77.5928 15.503 77.6507 15.0282 77.6071L16.4936 81.4509C16.8059 81.1665 17.184 80.9349 17.6157 80.7799C19.2473 80.194 21.026 80.9249 21.5885 82.4124C22.151 83.9 21.2843 85.5809 19.6527 86.1668C19.2262 86.3199 18.7897 86.3831 18.3675 86.3663L19.7838 90.0813C20.0695 89.8474 20.4034 89.6554 20.7776 89.5211C22.4092 88.9352 24.1879 89.6661 24.7504 91.1536C25.3129 92.6412 24.4462 94.3221 22.8146 94.908C22.4456 95.0405 22.0691 95.1056 21.7009 95.1099L23.0805 98.7288Z" />
<path d="M47.5498 77.4496L43.2874 79.0351L38.2794 65.3069L38.0431 63.7446L40.9424 62.6661L44.7445 74.6754L44.8743 74.6271L44.9019 61.1933L47.931 60.0665L48.1673 61.6289L47.5498 77.4496Z" fill="white"/>
<path d="M55.104 74.6396L52.0965 75.7583L49.665 59.4215L52.6724 58.3028L55.104 74.6396Z" fill="white"/>
<path d="M57.7964 73.6381L55.3649 57.3013L60.7524 55.2973C61.5024 55.0183 62.2139 55.0328 62.8868 55.3408C63.5596 55.6488 64.0329 56.1706 64.3065 56.9062C64.3816 57.1082 64.4378 57.3254 64.475 57.5579L65.1865 62.3178C65.3457 63.408 65.2136 64.311 64.7902 65.0268C64.3812 65.7372 63.6719 66.2802 62.6622 66.6558L60.0658 67.6216L60.8039 72.5194L57.7964 73.6381ZM61.3507 63.9909C61.6536 63.8782 61.8648 63.7176 61.9843 63.5089C62.0983 63.2859 62.1297 62.9951 62.0784 62.6365L61.5791 59.374C61.5436 59.1901 61.5151 59.0694 61.4936 59.0117C61.3112 58.5212 60.9459 58.378 60.3978 58.5819L58.7751 59.1855L59.5982 64.6428L61.3507 63.9909Z" fill="white"/>
<path d="M72.8481 61.9309L66.8331 64.1683L66.371 61.1383L72.4076 58.8928L72.8481 61.9309Z" fill="white"/>
<path d="M80.3374 65.2534L77.3515 66.3641L75.3846 53.1303L72.3987 54.241L71.9341 51.1379L80.9133 47.7979L81.2638 50.1306L80.6422 51.1746L78.3704 52.0196L80.3374 65.2534Z" fill="white"/>
<path d="M87.5464 45.3305L90.6405 44.1796L90.8768 45.742L89.6307 58.1512C89.4954 59.5973 89.1736 60.7186 88.6653 61.5152C88.1661 62.292 87.3251 62.9004 86.1423 63.3404L84.8441 63.8233L84.3689 60.6257L84.9531 60.4084C85.3137 60.2743 85.5709 60.1047 85.7245 59.8998C85.8728 59.6804 85.9998 59.3376 86.1055 58.8714L86.1166 58.7687L81.4216 49.2591L81.1853 47.6967L84.0846 46.6183L87.1143 54.4321L87.3307 54.3516L87.5464 45.3305Z" fill="white"/>
<path d="M94.5838 59.9541L92.1522 43.6173L97.5397 41.6133C98.2897 41.3343 99.0012 41.3488 99.6741 41.6568C100.347 41.9648 100.82 42.4866 101.094 43.2222C101.169 43.4242 101.225 43.6414 101.262 43.8739L101.974 48.6338C102.133 49.724 102.001 50.627 101.578 51.3428C101.169 52.0532 100.459 52.5962 99.4495 52.9718L96.8531 53.9376L97.5912 58.8354L94.5838 59.9541ZM98.138 50.3069C98.441 50.1942 98.6521 50.0336 98.7716 49.825C98.8856 49.6019 98.917 49.3111 98.8658 48.9525L98.3665 45.69C98.3309 45.5061 98.3024 45.3854 98.2809 45.3277C98.0985 44.8372 97.7332 44.694 97.1851 44.8979L95.5624 45.5015L96.3855 50.9588L98.138 50.3069Z" fill="white"/>
</svg>
