<svg viewBox="0 0 375 387" fill="none" xmlns="http://www.w3.org/2000/svg">
<g clip-path="url(#clip0_907_26554)">
<mask id="mask0_907_26554" style="mask-type:luminance" maskUnits="userSpaceOnUse" x="-67" y="-40" width="646" height="431">
<path d="M579 -40H-67V390.667H579V-40Z" fill="white"/>
</mask>
<g mask="url(#mask0_907_26554)">
<path d="M588.228 137.858V350.297L156.093 399.776L94.0771 376.688L225.211 233.595L251.301 205.128L258.652 197.109C258.652 197.109 263.028 193.289 269.849 187.544C290.401 170.257 294.891 166.326 341.034 132.927C341.181 132.919 347.049 134.457 347.187 134.465C360.59 139.598 393.959 145.601 408.154 146.122C409.48 146.17 410.634 146.14 411.582 146.01C412.008 145.954 412.396 145.877 412.736 145.782C412.934 145.726 413.162 145.619 413.425 145.472C413.455 145.455 413.485 145.438 413.516 145.42C413.653 145.343 413.791 145.248 413.942 145.145C413.994 145.106 414.05 145.067 414.106 145.029C415.1 144.314 416.392 143.142 417.934 141.588C418.162 141.359 418.399 141.118 418.636 140.873C418.847 140.653 419.062 140.429 419.278 140.201C419.467 140.007 419.657 139.805 419.851 139.598C420.643 138.749 421.491 137.828 422.383 136.837C422.491 136.712 422.603 136.587 422.719 136.463C425.079 133.818 427.74 130.717 430.626 127.268C456.108 96.8326 499.046 39.7348 504.442 40.2258C505.269 40.3033 506.983 41.6169 509.378 43.8951C512.457 46.815 516.66 51.3198 521.527 56.8108C527.681 63.7445 534.903 72.2502 542.281 81.1133C564.546 107.858 588.224 137.867 588.224 137.867L588.228 137.858Z" fill="#EDF6FF"/>
<g style="mix-blend-mode:multiply" opacity="0.25">
<path d="M401.194 237.117L344.786 270.042L260.341 266.179V208.78C260.341 208.78 255.789 207.449 251.31 205.123L258.661 197.104C258.661 197.104 263.037 193.284 269.858 187.539C275.914 192.492 283.825 199.339 285.41 202.513C288.05 207.789 300.255 229.232 304.544 229.232C308.834 229.232 316.086 227.582 316.086 227.582L322.357 227.914C322.357 227.914 333.571 226.596 341.16 227.582C348.748 228.573 354.024 232.199 359.299 231.209C364.575 230.222 401.194 237.117 401.194 237.117Z" fill="#ADCAFF"/>
</g>
<path d="M320.923 264.795L320.841 264.864L276.664 300.751L260.604 319.115L256.129 324.231L228.033 291.466L226.323 289.476L213.377 274.377L161.047 271.595L79.5562 267.258L103.85 203.481L103.966 203.179C103.966 203.179 109.143 196.612 115.435 188.812C122.429 180.139 130.805 169.941 134.974 165.556C142.894 157.223 160.048 118.734 164.006 118.734C167.963 118.734 190.393 166.896 194.355 168.873C195.044 169.221 196.225 170.616 197.112 171.158C199.214 172.433 200.271 174.197 202.605 176.212C204.371 177.732 207.128 178.459 208.42 180.173C209.277 179.428 210.16 178.67 211.056 177.908C211.198 177.787 211.34 177.667 211.478 177.546C220.061 170.259 225.523 161.65 227.874 162.589C231.186 163.911 248.52 175.957 256.259 183.774C258.808 186.349 260.781 188.567 261.651 189.984C263.89 193.623 284.777 220.591 299.674 239.734C304.812 246.332 309.235 252 311.94 255.462C312.4 256.057 312.814 256.582 313.171 257.039C313.899 257.969 317.534 261.526 319.554 263.486C320.368 264.274 320.919 264.804 320.919 264.804L320.923 264.795Z" fill="#EAF5FF"/>
<g style="mix-blend-mode:multiply" opacity="0.25">
<path d="M320.846 264.867L276.668 300.754L260.609 319.118L228.042 291.469L226.268 289.966L226.332 289.479L229.015 269.165C229.015 269.165 246.117 263.161 254.226 261.908C262.336 260.659 278.826 262.83 283.447 261.908C287.629 261.077 308.124 256.344 311.949 255.461C312.41 256.055 312.823 256.581 313.18 257.037C313.908 257.967 317.543 261.525 319.563 263.484C319.989 263.945 320.416 264.41 320.846 264.871V264.867Z" fill="#1A7EBF"/>
</g>
<path d="M271.038 328.177C251.805 344.478 232.265 357.811 212.424 368.28C184.513 383.018 156.007 392.096 126.946 395.835C65.5714 403.729 1.70343 387.803 -64.3479 351.006C-68.3144 348.797 -72.2851 346.51 -76.2688 344.15L-122.979 264.528L-174.228 173.576C-174.228 173.576 -166.777 179.988 -157.897 188.063C-130.722 122.16 -37.1254 56.0687 -31.9316 62.6492C-22.0349 75.1816 -8.83925 99.5918 -1.5825 106.19C5.67422 112.787 30.5586 155.558 69.667 136.814C73.6248 139.838 84.8437 162.224 88.1426 165.548C88.3838 165.79 88.7498 166.22 89.2279 166.806C95.2486 174.261 163.714 119.083 163.714 119.083L128.832 215.777L141.067 225.949C141.067 225.949 141.115 225.954 141.209 225.962C141.903 226.035 145.09 226.38 149.676 226.931C156.524 227.754 166.494 229.042 175.934 230.592C176.029 230.605 176.124 230.622 176.218 230.639C176.257 230.644 176.296 230.652 176.335 230.657C176.434 230.674 176.528 230.691 176.632 230.704C187.975 232.586 198.423 234.843 201.615 237.112C207.545 241.337 225.693 261.802 234.427 271.798C234.931 272.375 236.339 274.417 238.333 277.41C247.937 291.811 271.034 328.168 271.034 328.168L271.038 328.177Z" fill="#EAF5FF"/>
<path d="M596.808 131.258L593.509 326.199L583.319 326.871L401.19 338.869L161.537 383.293C161.537 383.293 179.354 369.83 203.587 351.578C253.932 313.662 331.982 255.074 335.544 253.567C339.622 251.84 354.316 250.66 364.144 248.688C367.043 248.111 369.519 247.46 371.168 246.711C377.193 243.976 395.936 226.694 408.171 221.461C410.678 220.389 412.913 219.82 414.709 219.992C415.454 220.061 416.345 220.083 417.349 220.057H417.366C418.757 220.018 420.376 219.893 422.164 219.695C437.267 218.011 464.313 211.047 468.146 207.176C469.429 205.884 472.935 202.451 477.453 198.028C477.453 198.028 477.453 198.028 477.457 198.024C489.24 186.495 507.875 168.218 511.691 163.506C512.156 162.929 513.211 162.201 514.735 161.357C530.468 152.64 596.799 131.258 596.799 131.258H596.808Z" fill="#A5C4FF"/>
<path d="M141.068 225.953C141.068 225.953 141.111 226 141.188 226.091L141.068 226.926V225.953Z" fill="#7AB0D8"/>
<path d="M176.047 230.615C176.009 230.607 175.974 230.602 175.939 230.594C176.034 230.607 176.13 230.624 176.225 230.641C176.164 230.633 176.104 230.62 176.047 230.615Z" fill="#C9E5FF"/>
<path d="M124.314 360.617C124.189 358.743 123.663 356.87 122.626 355.294C121.971 354.424 121.222 353.636 120.662 352.693C119.486 350.931 118.138 349.277 116.476 347.951C115.817 347.374 115.042 346.943 114.378 346.37C113.724 345.823 113.19 345.134 112.47 344.674C112.479 344.682 112.492 344.686 112.501 344.695C112.462 344.669 112.427 344.639 112.393 344.609C112.32 344.531 112.277 344.432 112.251 344.329C112.251 344.342 112.255 344.355 112.259 344.368C112.242 344.286 112.229 344.2 112.229 344.114C112.229 344.127 112.229 344.139 112.229 344.152C112.229 344.079 112.238 344.01 112.251 343.937C112.264 343.872 112.281 343.812 112.302 343.748C112.32 343.696 112.346 343.644 112.371 343.597C112.552 343.265 112.849 343.011 112.992 342.658C113.267 341.715 112.789 340.746 112.548 339.841C111.85 337.537 110.653 335.423 109.899 333.14C109.525 332.184 109.141 331.232 108.732 330.289C108.439 329.66 108.035 329.027 108.073 328.308C108.241 327.399 109.258 326.827 109.232 325.84C109.141 323.747 108.043 321.852 107.531 319.846C106.837 317.865 106.381 315.815 105.795 313.799C105.39 312.464 104.843 311.181 104.339 309.88C104.008 309.234 103.448 307.218 102.78 307.038C102.126 306.878 101.859 307.623 101.626 308.097C101.566 308.226 101.506 308.36 101.445 308.489C100.976 309.523 100.528 310.569 100.072 311.611C99.1973 313.648 98.224 315.647 97.4832 317.74C96.6994 320.104 95.6357 322.369 94.9036 324.755C94.5203 326.159 93.8527 328.028 95.7778 328.541C95.7649 328.536 95.752 328.532 95.739 328.528C95.8812 328.545 95.9027 328.657 95.8726 328.782C95.8726 328.769 95.8726 328.756 95.8726 328.743C95.0198 331.263 93.6848 333.623 92.6512 336.077C91.2644 339.213 89.4944 342.167 88.1679 345.328C86.8415 348.356 89.3178 347.537 88.0689 350.617C87.1128 353.003 85.7777 355.212 84.602 357.494C83.7364 359.277 82.5348 361.125 82.8277 363.197C83.1937 366.323 87.4013 368.321 89.8777 369.704C91.174 370.384 92.4358 371.138 93.7838 371.719C95.1232 372.318 96.5487 372.701 97.9484 373.136C100.097 373.843 102.307 374.303 104.546 374.558C106.002 374.725 107.47 374.803 108.943 374.803C111.299 374.945 113.564 374.217 115.644 373.158C117.75 372.215 119.43 370.613 120.881 368.847C121.497 368.102 122.122 367.352 122.574 366.495C123.056 365.591 123.353 364.605 123.681 363.64C123.986 362.667 124.37 361.672 124.309 360.634L124.314 360.617Z" fill="#70A1FF"/>
<path d="M368.122 342.397C368.023 340.941 367.619 339.49 366.813 338.262C366.305 337.586 365.724 336.975 365.289 336.242C364.376 334.877 363.329 333.589 362.037 332.56C361.525 332.112 360.922 331.776 360.409 331.333C359.901 330.911 359.488 330.372 358.928 330.015C358.936 330.019 358.945 330.028 358.954 330.032C358.923 330.011 358.893 329.989 358.867 329.968C358.811 329.907 358.777 329.83 358.755 329.748C358.755 329.757 358.755 329.769 358.76 329.778C358.747 329.713 358.738 329.649 358.738 329.584C358.738 329.593 358.738 329.606 358.738 329.614C358.738 329.558 358.747 329.502 358.755 329.451C358.764 329.403 358.781 329.352 358.794 329.304C358.807 329.266 358.824 329.223 358.846 329.184C358.988 328.925 359.216 328.727 359.328 328.456C359.544 327.724 359.173 326.97 358.984 326.268C358.441 324.477 357.515 322.84 356.925 321.066C356.632 320.325 356.335 319.584 356.016 318.852C355.793 318.361 355.474 317.87 355.504 317.315C355.637 316.608 356.421 316.165 356.404 315.398C356.335 313.77 355.478 312.302 355.086 310.743C354.548 309.201 354.195 307.612 353.738 306.048C353.424 305.01 352.997 304.016 352.61 303.004C352.356 302.5 351.917 300.936 351.4 300.799C350.892 300.674 350.685 301.255 350.504 301.621C350.457 301.72 350.409 301.823 350.366 301.927C350 302.728 349.651 303.542 349.298 304.352C348.622 305.936 347.864 307.487 347.287 309.11C346.68 310.949 345.853 312.706 345.284 314.558C344.987 315.648 344.466 317.104 345.965 317.495C345.956 317.495 345.947 317.487 345.935 317.483C346.047 317.495 346.059 317.582 346.038 317.676C346.038 317.668 346.038 317.655 346.038 317.646C345.375 319.606 344.341 321.436 343.536 323.344C342.459 325.777 341.085 328.073 340.056 330.527C339.027 332.879 340.952 332.241 339.978 334.632C339.238 336.484 338.2 338.202 337.287 339.972C336.615 341.359 335.68 342.793 335.909 344.399C336.193 346.828 339.462 348.379 341.382 349.451C342.39 349.981 343.372 350.566 344.419 351.014C345.461 351.479 346.563 351.777 347.653 352.112C349.324 352.659 351.038 353.021 352.774 353.219C353.906 353.348 355.043 353.409 356.184 353.409C358.015 353.516 359.772 352.952 361.387 352.13C363.023 351.398 364.328 350.153 365.457 348.783C365.935 348.206 366.421 347.625 366.77 346.957C367.145 346.255 367.373 345.489 367.627 344.739C367.864 343.981 368.161 343.211 368.118 342.405L368.122 342.397Z" fill="#85AFFF"/>
<path d="M9.43978 278.051H6.0332V292.125H9.43978V278.051Z" fill="#6F828C"/>
<path d="M33.5311 278.051H30.1245V292.125H33.5311V278.051Z" fill="#6F828C"/>
<path d="M57.6222 278.051H54.2156V292.125H57.6222V278.051Z" fill="#6F828C"/>
<path d="M81.7149 278.051H78.3083V292.125H81.7149V278.051Z" fill="#6F828C"/>
<path d="M105.804 278.051H102.398V292.125H105.804V278.051Z" fill="#6F828C"/>
<path d="M129.895 278.051H126.489V292.125H129.895V278.051Z" fill="#6F828C"/>
<path d="M153.983 278.051H150.576V292.125H153.983V278.051Z" fill="#6F828C"/>
<path d="M178.076 278.051H174.669V292.125H178.076V278.051Z" fill="#6F828C"/>
<path d="M202.167 278.051H198.76V292.125H202.167V278.051Z" fill="#6F828C"/>
<path d="M226.258 278.051H222.852V292.125H226.258V278.051Z" fill="#6F828C"/>
<path d="M250.351 278.051H246.944V292.125H250.351V278.051Z" fill="#6F828C"/>
<path d="M274.442 278.051H271.035V292.125H274.442V278.051Z" fill="#6F828C"/>
<path d="M298.533 278.051H295.126V292.125H298.533V278.051Z" fill="#6F828C"/>
<path d="M322.624 278.051H319.218V292.125H322.624V278.051Z" fill="#6F828C"/>
<path d="M346.717 278.051H343.311V292.125H346.717V278.051Z" fill="#6F828C"/>
<path d="M370.806 278.051H367.4V292.125H370.806V278.051Z" fill="#6F828C"/>
<g style="mix-blend-mode:multiply" opacity="0.15">
<path d="M9.43978 278.051H6.0332V284.046H9.43978V278.051Z" fill="#3E484E"/>
<path d="M33.5311 278.051H30.1245V284.046H33.5311V278.051Z" fill="#3E484E"/>
<path d="M57.6222 278.051H54.2156V284.046H57.6222V278.051Z" fill="#3E484E"/>
<path d="M81.7149 278.051H78.3083V284.046H81.7149V278.051Z" fill="#3E484E"/>
<path d="M105.804 278.051H102.398V284.046H105.804V278.051Z" fill="#3E484E"/>
<path d="M129.895 278.051H126.489V284.046H129.895V278.051Z" fill="#3E484E"/>
<path d="M153.983 278.051H150.576V284.046H153.983V278.051Z" fill="#3E484E"/>
<path d="M178.076 278.051H174.669V284.046H178.076V278.051Z" fill="#3E484E"/>
<path d="M202.167 278.051H198.76V284.046H202.167V278.051Z" fill="#3E484E"/>
<path d="M226.258 278.051H222.852V284.046H226.258V278.051Z" fill="#3E484E"/>
<path d="M250.351 278.051H246.944V284.046H250.351V278.051Z" fill="#3E484E"/>
<path d="M274.442 278.051H271.035V284.046H274.442V278.051Z" fill="#3E484E"/>
<path d="M298.533 278.051H295.126V284.046H298.533V278.051Z" fill="#3E484E"/>
<path d="M322.624 278.051H319.218V284.046H322.624V278.051Z" fill="#3E484E"/>
<path d="M346.717 278.051H343.311V284.046H346.717V278.051Z" fill="#3E484E"/>
<path d="M370.806 278.051H367.4V284.046H370.806V278.051Z" fill="#3E484E"/>
</g>
<path d="M658.297 288.254H-147.536V298.254H658.297V288.254Z" fill="#60717A"/>
<path d="M664.921 278.012H-140.912V281.268H664.921V278.012Z" fill="#8FA9B5"/>
<path d="M7.25457 298H-70.5669V302.996H7.25457V298Z" fill="#6F828C"/>
<path d="M7.05706 298H-70.7644V302.996H7.05706V298Z" fill="#6F828C"/>
<path d="M2.88384 302.996L0.786491 304.534L-10.8717 313.104H-52.642L-64.4681 304.534L-66.5913 302.996H2.88384Z" fill="#60717A"/>
<path d="M202.584 300.027H173.359V504.271H202.584V300.027Z" fill="#758A94"/>
<path d="M209.157 313.332H167.184V324.202H209.157V313.332Z" fill="#6F828C"/>
<path d="M206.048 324.199H170.29V328.148H206.048V324.199Z" fill="#60717A"/>
<path d="M227.082 298.227H149.261V303.222H227.082V298.227Z" fill="#6F828C"/>
<path d="M208.955 313.332H166.987V324.202H208.955V313.332Z" fill="#8FA9B5"/>
<path d="M226.883 298.227H149.062V303.222H226.883V298.227Z" fill="#8FA9B5"/>
<path d="M222.71 303.223L220.613 304.76L208.955 313.33H167.184L155.358 304.76L153.235 303.223H222.71Z" fill="#60717A"/>
<g style="mix-blend-mode:multiply" opacity="0.15">
<path d="M206.048 324.199H170.29V325.577H206.048V324.199Z" fill="#3E484E"/>
</g>
<g style="mix-blend-mode:multiply" opacity="0.15">
<path d="M209.156 313.332H200.952V324.202H209.156V313.332Z" fill="#3E484E"/>
</g>
<path d="M448.28 298.242H370.458V303.238H448.28V298.242Z" fill="#6F828C"/>
<path d="M448.082 298.242H370.261V303.238H448.082V298.242Z" fill="#8FA9B5"/>
<path d="M443.909 303.238L441.812 304.78L430.153 313.346H388.383L376.557 304.78L374.434 303.238H443.909Z" fill="#60717A"/>
<g style="mix-blend-mode:multiply" opacity="0.15">
<path d="M435.937 303.238H374.434L376.557 304.78H433.84L422.182 313.346H430.153L441.812 304.78L443.909 303.238H435.937Z" fill="#3E484E"/>
</g>
<rect x="86.489" y="250.816" width="1.73905" height="12.0152" fill="#233498"/>
<rect x="148.779" y="250.816" width="1.73905" height="12.0152" fill="#233498"/>
<path d="M110.512 271.102L111.849 275.322H126.306L128.357 271.102H110.512Z" fill="#6E88D4"/>
<rect x="88.231" y="242.574" width="60.5563" height="28.4218" rx="8" fill="#E80024"/>
<path d="M144.27 243.68H134.956C133.779 243.68 132.815 244.337 132.815 245.151V271.188H146.411V245.151C146.411 244.342 145.454 243.68 144.27 243.68Z" fill="#FF6353"/>
<path d="M138.19 271.625H134.554V275.099H138.19V271.625Z" fill="#4D62A0"/>
<path d="M102.348 245.082H91.8754C91.4676 245.082 91.137 245.412 91.137 245.819V251.863C91.137 252.271 91.4676 252.601 91.8754 252.601H102.348C102.756 252.601 103.086 252.271 103.086 251.863V245.819C103.086 245.412 102.756 245.082 102.348 245.082Z" fill="#0B1E8D"/>
<path d="M116.517 245.082H106.045C105.637 245.082 105.306 245.412 105.306 245.819V251.863C105.306 252.271 105.637 252.601 106.045 252.601H116.517C116.925 252.601 117.255 252.271 117.255 251.863V245.819C117.255 245.412 116.925 245.082 116.517 245.082Z" fill="#0B1E8D"/>
<path d="M130.682 245.082H120.21C119.802 245.082 119.472 245.412 119.472 245.819V251.863C119.472 252.271 119.802 252.601 120.21 252.601H130.682C131.09 252.601 131.421 252.271 131.421 251.863V245.819C131.421 245.412 131.09 245.082 130.682 245.082Z" fill="#0B1E8D"/>
<path d="M144.851 245.082H134.379C133.971 245.082 133.641 245.412 133.641 245.819V251.863C133.641 252.271 133.971 252.601 134.379 252.601H144.851C145.259 252.601 145.59 252.271 145.59 251.863V245.819C145.59 245.412 145.259 245.082 144.851 245.082Z" fill="#0B1E8D"/>
<path d="M99.8357 274.473C99.8357 276.251 98.3938 277.691 96.6127 277.691C94.8315 277.691 93.3896 276.251 93.3896 274.473C93.3896 272.694 94.8315 271.254 96.6127 271.254C98.3938 271.254 99.8357 272.694 99.8357 274.473Z" fill="#2238B3"/>
<path d="M98.718 274.474C98.718 275.635 97.775 276.576 96.6125 276.576C95.45 276.576 94.5071 275.635 94.5071 274.474C94.5071 273.313 95.45 272.371 96.6125 272.371C97.775 272.371 98.718 273.313 98.718 274.474Z" fill="#4D62A0"/>
<path d="M110.312 274.473C110.312 276.251 108.87 277.691 107.089 277.691C105.308 277.691 103.866 276.251 103.866 274.473C103.866 272.694 105.308 271.254 107.089 271.254C108.87 271.254 110.312 272.694 110.312 274.473Z" fill="#2238B3"/>
<path d="M109.201 274.474C109.201 275.635 108.258 276.576 107.096 276.576C105.933 276.576 104.99 275.635 104.99 274.474C104.99 273.313 105.933 272.371 107.096 272.371C108.258 272.371 109.201 273.313 109.201 274.474Z" fill="#4D62A0"/>
<path d="M103.725 271.625H99.9299V275.099H103.725V271.625Z" fill="#4D62A0"/>
<path d="M106.841 275.638H96.3238C95.6553 275.638 95.1165 275.1 95.1165 274.432C95.1165 273.765 95.6553 273.227 96.3238 273.227H106.841C107.51 273.227 108.049 273.765 108.049 274.432C108.049 275.1 107.51 275.638 106.841 275.638Z" fill="#738BD3"/>
<path d="M134.374 274.473C134.374 276.251 132.932 277.691 131.151 277.691C129.37 277.691 127.928 276.251 127.928 274.473C127.928 272.694 129.37 271.254 131.151 271.254C132.932 271.254 134.374 272.694 134.374 274.473Z" fill="#2238B3"/>
<path d="M133.256 274.474C133.256 275.635 132.313 276.576 131.151 276.576C129.988 276.576 129.045 275.635 129.045 274.474C129.045 273.313 129.988 272.371 131.151 272.371C132.313 272.371 133.256 273.313 133.256 274.474Z" fill="#4D62A0"/>
<path d="M144.852 274.473C144.852 276.251 143.41 277.691 141.629 277.691C139.848 277.691 138.406 276.251 138.406 274.473C138.406 272.694 139.848 271.254 141.629 271.254C143.41 271.254 144.852 272.694 144.852 274.473Z" fill="#2238B3"/>
<path d="M143.739 274.474C143.739 275.635 142.797 276.576 141.634 276.576C140.472 276.576 139.529 275.635 139.529 274.474C139.529 273.313 140.472 272.371 141.634 272.371C142.797 272.371 143.739 273.313 143.739 274.474Z" fill="#4D62A0"/>
<path d="M141.379 275.478H130.862C130.193 275.478 129.655 274.94 129.655 274.272C129.655 273.605 130.193 273.066 130.862 273.066H141.379C142.048 273.066 142.587 273.605 142.587 274.272C142.587 274.94 142.048 275.478 141.379 275.478Z" fill="#738BD3"/>
<path opacity="0.1" d="M96.5635 245.079L91.1353 250.5V251.855C91.1353 252.264 91.4645 252.593 91.8737 252.593H93.6149L101.144 245.074H96.5635V245.079Z" fill="white"/>
<path opacity="0.1" d="M94.1487 245.078H91.8737C91.4645 245.078 91.1353 245.407 91.1353 245.816V248.088L94.1487 245.078Z" fill="white"/>
<path opacity="0.1" d="M125.419 245.082H120.834L119.472 246.442V251.021L125.419 245.082Z" fill="white"/>
<path opacity="0.1" d="M117.255 245.823C117.255 245.415 116.925 245.086 116.516 245.086H109.252L105.305 249.027V251.867C105.305 252.276 105.635 252.605 106.044 252.605H110.888L117.255 246.247V245.823Z" fill="white"/>
<path opacity="0.1" d="M117.255 251.861V248.652L113.303 252.599H116.516C116.925 252.599 117.255 252.27 117.255 251.861Z" fill="white"/>
<path opacity="0.1" d="M103.085 251.238L101.718 252.604H102.342C102.751 252.604 103.08 252.275 103.08 251.866V251.243L103.085 251.238Z" fill="white"/>
<path opacity="0.1" d="M134.381 245.078C133.972 245.078 133.643 245.407 133.643 245.816V251.859C133.643 252.268 133.972 252.597 134.381 252.597H135.354L142.883 245.078H134.381Z" fill="white"/>
<path opacity="0.1" d="M145.591 249.362V245.82C145.591 245.541 145.431 245.301 145.207 245.172L137.773 252.596H142.353L145.591 249.362Z" fill="white"/>
<path opacity="0.1" d="M131.426 247.371L126.187 252.603H130.682C131.091 252.603 131.421 252.274 131.421 251.865V247.376L131.426 247.371Z" fill="white"/>
<path d="M48.2222 271.102L49.5593 275.322H64.0162L66.0668 271.102H48.2222Z" fill="#6E88D4"/>
<rect x="25.9404" y="242.594" width="60.5563" height="28.4218" rx="8" fill="#E80024"/>
<path d="M81.9794 243.68H72.6651C71.488 243.68 70.5242 244.337 70.5242 245.151V271.188H84.1204V245.151C84.1204 244.342 83.1639 243.68 81.9794 243.68Z" fill="#FF6353"/>
<path d="M75.9034 271.625H72.2668V275.099H75.9034V271.625Z" fill="#4D62A0"/>
<path d="M40.0609 245.082H29.5885C29.1807 245.082 28.8501 245.412 28.8501 245.819V251.863C28.8501 252.271 29.1807 252.601 29.5885 252.601H40.0609C40.4687 252.601 40.7993 252.271 40.7993 251.863V245.819C40.7993 245.412 40.4687 245.082 40.0609 245.082Z" fill="#0B1E8D"/>
<path d="M54.2298 245.082H43.7574C43.3496 245.082 43.019 245.412 43.019 245.819V251.863C43.019 252.271 43.3496 252.601 43.7574 252.601H54.2298C54.6376 252.601 54.9682 252.271 54.9682 251.863V245.819C54.9682 245.412 54.6376 245.082 54.2298 245.082Z" fill="#0B1E8D"/>
<path d="M68.3956 245.082H57.9232C57.5154 245.082 57.1848 245.412 57.1848 245.819V251.863C57.1848 252.271 57.5154 252.601 57.9232 252.601H68.3956C68.8034 252.601 69.134 252.271 69.134 251.863V245.819C69.134 245.412 68.8034 245.082 68.3956 245.082Z" fill="#0B1E8D"/>
<path d="M82.5645 245.082H72.0922C71.6844 245.082 71.3538 245.412 71.3538 245.819V251.863C71.3538 252.271 71.6844 252.601 72.0922 252.601H82.5645C82.9724 252.601 83.303 252.271 83.303 251.863V245.819C83.303 245.412 82.9724 245.082 82.5645 245.082Z" fill="#0B1E8D"/>
<path d="M37.5484 274.473C37.5484 276.251 36.1065 277.691 34.3253 277.691C32.5442 277.691 31.1023 276.251 31.1023 274.473C31.1023 272.694 32.5442 271.254 34.3253 271.254C36.1065 271.254 37.5484 272.694 37.5484 274.473Z" fill="#2238B3"/>
<path d="M36.4306 274.474C36.4306 275.635 35.4877 276.576 34.3252 276.576C33.1627 276.576 32.2197 275.635 32.2197 274.474C32.2197 273.313 33.1627 272.371 34.3252 272.371C35.4877 272.371 36.4306 273.313 36.4306 274.474Z" fill="#4D62A0"/>
<path d="M48.0249 274.473C48.0249 276.251 46.5831 277.691 44.8019 277.691C43.0207 277.691 41.5789 276.251 41.5789 274.473C41.5789 272.694 43.0207 271.254 44.8019 271.254C46.5831 271.254 48.0249 272.694 48.0249 274.473Z" fill="#2238B3"/>
<path d="M46.914 274.474C46.914 275.635 45.9711 276.576 44.8086 276.576C43.6461 276.576 42.7031 275.635 42.7031 274.474C42.7031 273.313 43.6461 272.371 44.8086 272.371C45.9711 272.371 46.914 273.313 46.914 274.474Z" fill="#4D62A0"/>
<path d="M41.4372 271.625H37.6426V275.099H41.4372V271.625Z" fill="#4D62A0"/>
<path d="M44.5538 275.638H34.0365C33.3679 275.638 32.8291 275.1 32.8291 274.432C32.8291 273.765 33.3679 273.227 34.0365 273.227H44.5538C45.2223 273.227 45.7612 273.765 45.7612 274.432C45.7612 275.1 45.2223 275.638 44.5538 275.638Z" fill="#738BD3"/>
<path d="M72.087 274.473C72.087 276.251 70.6451 277.691 68.8639 277.691C67.0828 277.691 65.6409 276.251 65.6409 274.473C65.6409 272.694 67.0828 271.254 68.8639 271.254C70.6451 271.254 72.087 272.694 72.087 274.473Z" fill="#2238B3"/>
<path d="M70.9692 274.47C70.9692 275.631 70.0262 276.572 68.8638 276.572C67.7013 276.572 66.7583 275.631 66.7583 274.47C66.7583 273.309 67.7013 272.367 68.8638 272.367C70.0262 272.367 70.9692 273.309 70.9692 274.47Z" fill="#4D62A0"/>
<path d="M82.5652 274.473C82.5652 276.251 81.1233 277.691 79.3422 277.691C77.561 277.691 76.1191 276.251 76.1191 274.473C76.1191 272.694 77.561 271.254 79.3422 271.254C81.1233 271.254 82.5652 272.694 82.5652 274.473Z" fill="#2238B3"/>
<path d="M81.4526 274.47C81.4526 275.631 80.5096 276.572 79.3472 276.572C78.1847 276.572 77.2417 275.631 77.2417 274.47C77.2417 273.309 78.1847 272.367 79.3472 272.367C80.5096 272.367 81.4526 273.309 81.4526 274.47Z" fill="#4D62A0"/>
<path d="M79.0923 275.478H68.5751C67.9065 275.478 67.3677 274.94 67.3677 274.272C67.3677 273.605 67.9065 273.066 68.5751 273.066H79.0923C79.7609 273.066 80.2997 273.605 80.2997 274.272C80.2997 274.94 79.7609 275.478 79.0923 275.478Z" fill="#738BD3"/>
<path opacity="0.1" d="M34.2801 245.079L28.8518 250.5V251.855C28.8518 252.264 29.1811 252.593 29.5902 252.593H31.3315L38.8602 245.074H34.2801V245.079Z" fill="white"/>
<path opacity="0.1" d="M31.8653 245.078H29.5902C29.1811 245.078 28.8518 245.407 28.8518 245.816V248.088L31.8653 245.078Z" fill="white"/>
<path opacity="0.1" d="M63.132 245.082H58.5469L57.1848 246.442V251.021L63.132 245.082Z" fill="white"/>
<path opacity="0.1" d="M54.9673 245.823C54.9673 245.415 54.638 245.086 54.2288 245.086H46.9645L43.0181 249.027V251.867C43.0181 252.276 43.3474 252.605 43.7565 252.605H48.601L54.9673 246.247V245.823Z" fill="white"/>
<path opacity="0.1" d="M54.9673 251.861V248.652L51.0159 252.599H54.2289C54.638 252.599 54.9673 252.27 54.9673 251.861Z" fill="white"/>
<path opacity="0.1" d="M40.7983 251.238L39.4314 252.604H40.055C40.4641 252.604 40.7933 252.275 40.7933 251.866V251.243L40.7983 251.238Z" fill="white"/>
<path opacity="0.1" d="M72.0936 245.078C71.6845 245.078 71.3552 245.407 71.3552 245.816V251.859C71.3552 252.268 71.6845 252.597 72.0936 252.597H73.0665L80.5953 245.078H72.0936Z" fill="white"/>
<path opacity="0.1" d="M83.3035 249.362V245.82C83.3035 245.541 83.1438 245.301 82.9193 245.172L75.4854 252.596H80.0655L83.3035 249.362Z" fill="white"/>
<path opacity="0.1" d="M69.1388 247.371L63.9001 252.603H68.3954C68.8046 252.603 69.1339 252.274 69.1339 251.865V247.376L69.1388 247.371Z" fill="white"/>
<rect x="24.1997" y="250.816" width="1.73905" height="12.0152" fill="#233498"/>
<path d="M-14.0706 271.102L-12.7334 275.322H1.72351L3.77408 271.102H-14.0706Z" fill="#6E88D4"/>
<rect x="-36.3521" y="242.594" width="60.5563" height="28.4218" rx="8" fill="#E80024"/>
<path d="M19.6869 243.68H10.3727C9.1955 243.68 8.2317 244.337 8.2317 245.151V271.188H21.8279V245.151C21.8279 244.342 20.8714 243.68 19.6869 243.68Z" fill="#FF6353"/>
<path d="M13.6112 271.625H9.97461V275.099H13.6112V271.625Z" fill="#4D62A0"/>
<path d="M6.10336 245.082H-4.36901C-4.77682 245.082 -5.10742 245.412 -5.10742 245.819V251.863C-5.10742 252.271 -4.77682 252.601 -4.36901 252.601H6.10336C6.51117 252.601 6.84177 252.271 6.84177 251.863V245.819C6.84177 245.412 6.51117 245.082 6.10336 245.082Z" fill="#0B1E8D"/>
<path d="M20.2723 245.082H9.79993C9.39212 245.082 9.06152 245.412 9.06152 245.819V251.863C9.06152 252.271 9.39212 252.601 9.79993 252.601H20.2723C20.6801 252.601 21.0107 252.271 21.0107 251.863V245.819C21.0107 245.412 20.6801 245.082 20.2723 245.082Z" fill="#0B1E8D"/>
<path d="M9.79471 274.473C9.79471 276.251 8.35282 277.691 6.57167 277.691C4.79051 277.691 3.34863 276.251 3.34863 274.473C3.34863 272.694 4.79051 271.254 6.57167 271.254C8.35282 271.254 9.79471 272.694 9.79471 274.473Z" fill="#2238B3"/>
<path d="M8.67697 274.47C8.67697 275.631 7.734 276.572 6.57152 276.572C5.40903 276.572 4.46606 275.631 4.46606 274.47C4.46606 273.309 5.40903 272.367 6.57152 272.367C7.734 272.367 8.67697 273.309 8.67697 274.47Z" fill="#4D62A0"/>
<path d="M20.273 274.473C20.273 276.251 18.8311 277.691 17.0499 277.691C15.2688 277.691 13.8269 276.251 13.8269 274.473C13.8269 272.694 15.2688 271.254 17.0499 271.254C18.8311 271.254 20.273 272.694 20.273 274.473Z" fill="#2238B3"/>
<path d="M19.1604 274.47C19.1604 275.631 18.2174 276.572 17.0549 276.572C15.8924 276.572 14.9495 275.631 14.9495 274.47C14.9495 273.309 15.8924 272.367 17.0549 272.367C18.2174 272.367 19.1604 273.309 19.1604 274.47Z" fill="#4D62A0"/>
<path d="M16.8001 275.478H6.28284C5.61428 275.478 5.07544 274.94 5.07544 274.272C5.07544 273.605 5.61428 273.066 6.28284 273.066H16.8001C17.4687 273.066 18.0075 273.605 18.0075 274.272C18.0075 274.94 17.4687 275.478 16.8001 275.478Z" fill="#738BD3"/>
<path opacity="0.1" d="M0.839737 245.082H-3.74536L-5.10742 246.442V251.021L0.839737 245.082Z" fill="white"/>
<path opacity="0.1" d="M9.8014 245.078C9.39228 245.078 9.06299 245.407 9.06299 245.816V251.859C9.06299 252.268 9.39228 252.597 9.8014 252.597H10.7743L18.303 245.078H9.8014Z" fill="white"/>
<path opacity="0.1" d="M21.0112 249.362V245.82C21.0112 245.541 20.8516 245.301 20.6271 245.172L13.1931 252.596H17.7732L21.0112 249.362Z" fill="white"/>
<path opacity="0.1" d="M6.84659 247.371L1.60791 252.603H6.1032C6.51232 252.603 6.84161 252.274 6.84161 251.865V247.376L6.84659 247.371Z" fill="white"/>
<path d="M160.883 271.152H164.637V275.039H160.883V271.152Z" fill="#4D62A0"/>
<path d="M164.763 274.409C164.763 276.211 166.219 277.67 168.018 277.67C169.817 277.67 171.273 276.211 171.273 274.409C171.273 272.607 169.817 271.148 168.018 271.148C166.219 271.148 164.763 272.607 164.763 274.409Z" fill="#0B1E8D"/>
<path d="M165.892 274.411C165.892 275.588 166.845 276.542 168.019 276.542C169.193 276.542 170.145 275.588 170.145 274.411C170.145 273.235 169.193 272.281 168.019 272.281C166.845 272.281 165.892 273.235 165.892 274.411Z" fill="#4D62A0"/>
<path d="M154.181 274.409C154.181 276.211 155.638 277.67 157.437 277.67C159.236 277.67 160.692 276.211 160.692 274.409C160.692 272.607 159.236 271.148 157.437 271.148C155.638 271.148 154.181 272.607 154.181 274.409Z" fill="#0B1E8D"/>
<path d="M155.302 274.411C155.302 275.588 156.255 276.542 157.429 276.542C158.603 276.542 159.555 275.588 159.555 274.411C159.555 273.235 158.603 272.281 157.429 272.281C156.255 272.281 155.302 273.235 155.302 274.411Z" fill="#4D62A0"/>
<path d="M157.687 275.748H168.31C168.985 275.748 169.529 275.203 169.529 274.526C169.529 273.85 168.985 273.305 168.31 273.305H157.687C157.012 273.305 156.467 273.85 156.467 274.526C156.467 275.203 157.012 275.748 157.687 275.748Z" fill="#738BD3"/>
<path d="M226.106 271.152H229.86V275.039H226.106V271.152Z" fill="#4D62A0"/>
<path d="M229.986 274.409C229.986 276.211 231.442 277.67 233.241 277.67C235.04 277.67 236.496 276.211 236.496 274.409C236.496 272.607 235.04 271.148 233.241 271.148C231.442 271.148 229.986 272.607 229.986 274.409Z" fill="#0B1E8D"/>
<path d="M231.115 274.411C231.115 275.588 232.068 276.542 233.242 276.542C234.416 276.542 235.368 275.588 235.368 274.411C235.368 273.235 234.416 272.281 233.242 272.281C232.068 272.281 231.115 273.235 231.115 274.411Z" fill="#4D62A0"/>
<path d="M219.404 274.409C219.404 276.211 220.861 277.67 222.66 277.67C224.459 277.67 225.915 276.211 225.915 274.409C225.915 272.607 224.459 271.148 222.66 271.148C220.861 271.148 219.404 272.607 219.404 274.409Z" fill="#0B1E8D"/>
<path d="M220.525 274.411C220.525 275.588 221.478 276.542 222.652 276.542C223.826 276.542 224.779 275.588 224.779 274.411C224.779 273.235 223.826 272.281 222.652 272.281C221.478 272.281 220.525 273.235 220.525 274.411Z" fill="#4D62A0"/>
<path d="M222.91 275.748H233.533C234.208 275.748 234.752 275.203 234.752 274.526C234.752 273.85 234.208 273.305 233.533 273.305H222.91C222.235 273.305 221.691 273.85 221.691 274.526C221.691 275.203 222.235 275.748 222.91 275.748Z" fill="#738BD3"/>
<path d="M248.583 271.152L252.589 275.428H239.401L237.325 271.152H248.583Z" fill="#6E88D4"/>
<path d="M218.727 271.152L217.376 275.428H173.231L171.16 271.152H218.727Z" fill="#6E88D4"/>
<path d="M153.078 271.208H249.511C252.257 271.208 254.749 269.236 255.905 266.156C257.483 261.948 256.122 256.947 252.813 254.777L236.38 244C234.954 243.065 233.361 242.574 231.747 242.574H155.272C152.649 242.574 150.524 245.204 150.524 248.451V268.042C150.524 269.792 151.668 271.208 153.082 271.208H153.078Z" fill="#E80024"/>
<path d="M217.264 243.699H210.884C210.078 243.699 209.418 244.355 209.418 245.168V271.154H218.73V245.168C218.73 244.36 218.075 243.699 217.264 243.699Z" fill="#FF6353"/>
<path d="M247.228 252.254H237.835C230.946 252.254 224.345 249.513 219.472 244.637H232.871L247.228 252.254Z" fill="#0B1E8D"/>
<path d="M211.126 244.633H217.026C217.438 244.633 217.772 244.967 217.772 245.38V251.503C217.772 251.915 217.438 252.25 217.026 252.25H211.126C210.714 252.25 210.38 251.915 210.38 251.503V245.38C210.38 244.967 210.714 244.633 211.126 244.633Z" fill="#0B1E8D"/>
<path d="M197.107 244.633H207.685C208.097 244.633 208.43 244.967 208.43 245.38V251.503C208.43 251.915 208.097 252.25 207.685 252.25H197.107C196.695 252.25 196.362 251.915 196.362 251.503V245.38C196.362 244.967 196.695 244.633 197.107 244.633Z" fill="#0B1E8D"/>
<path d="M182.796 244.633H193.373C193.785 244.633 194.119 244.967 194.119 245.38V251.503C194.119 251.915 193.785 252.25 193.373 252.25H182.796C182.384 252.25 182.05 251.915 182.05 251.503V245.38C182.05 244.967 182.384 244.633 182.796 244.633Z" fill="#0B1E8D"/>
<path d="M168.489 244.633H179.067C179.479 244.633 179.812 244.967 179.812 245.38V251.503C179.812 251.915 179.479 252.25 179.067 252.25H168.489C168.078 252.25 167.744 251.915 167.744 251.503V245.38C167.744 244.967 168.078 244.633 168.489 244.633Z" fill="#0B1E8D"/>
<path d="M154.178 244.633H164.755C165.167 244.633 165.501 244.967 165.501 245.38V251.503C165.501 251.915 165.167 252.25 164.755 252.25H154.178C153.766 252.25 153.432 251.915 153.432 251.503V245.38C153.432 244.967 153.766 244.633 154.178 244.633Z" fill="#0B1E8D"/>
<path opacity="0.3" d="M222.656 260.823H256.404C256.731 262.554 256.698 264.397 255.906 266.108C255.755 266.431 255.584 266.739 255.397 267.037H222.656L218.716 262.732L153.75 242.812L218.716 256.87L224.14 260.823H222.656Z" fill="white"/>
<path opacity="0.4" d="M218.73 263.77V265.034L178.169 252.387L218.73 263.77Z" fill="white"/>
<path opacity="0.4" d="M186.657 271.19H180.344L150.751 261.941L186.657 271.19Z" fill="white"/>
<path opacity="0.4" d="M176.398 271.188H172.541L154.46 265.496L176.398 271.188Z" fill="white"/>
<path opacity="0.1" d="M220.785 244.633H225.411L232.446 251.679C229.82 251.119 227.296 250.155 224.967 248.828L220.78 244.633H220.785Z" fill="white"/>
<path opacity="0.1" d="M232.874 244.633L241.889 249.418L244.716 252.25H237.838C237.001 252.25 236.165 252.21 235.338 252.129L227.855 244.633H232.874Z" fill="white"/>
<path opacity="0.1" d="M202.947 244.634L208.429 250.126V251.499C208.429 251.913 208.097 252.246 207.683 252.246H205.925L198.321 244.629H202.947V244.634Z" fill="white"/>
<path opacity="0.1" d="M205.386 244.633H207.683C208.097 244.633 208.429 244.966 208.429 245.38V247.682L205.386 244.633Z" fill="white"/>
<path opacity="0.1" d="M210.382 245.384C210.382 244.97 210.714 244.637 211.127 244.637H214.645L217.779 247.776V251.507C217.779 251.921 217.446 252.254 217.033 252.254H212.997L210.387 249.639V245.384H210.382Z" fill="white"/>
<path opacity="0.1" d="M173.806 244.633H178.437L179.812 246.011V250.65L173.806 244.633Z" fill="white"/>
<path opacity="0.1" d="M182.05 245.384C182.05 244.97 182.382 244.637 182.796 244.637H190.133L194.119 248.629V251.507C194.119 251.921 193.786 252.254 193.373 252.254H188.48L182.05 245.813V245.384Z" fill="white"/>
<path opacity="0.1" d="M182.049 251.501V248.25L186.04 252.248H182.795C182.382 252.248 182.049 251.915 182.049 251.501Z" fill="white"/>
<path opacity="0.1" d="M196.362 250.871L197.743 252.254H197.113C196.7 252.254 196.367 251.921 196.367 251.507V250.876L196.362 250.871Z" fill="white"/>
<path opacity="0.1" d="M164.754 244.633C165.168 244.633 165.5 244.966 165.5 245.38V251.503C165.5 251.917 165.168 252.25 164.754 252.25H163.772L156.168 244.633H164.754Z" fill="white"/>
<path opacity="0.1" d="M153.432 248.976V245.387C153.432 245.104 153.594 244.862 153.82 244.73L161.329 252.252H156.703L153.432 248.976Z" fill="white"/>
<path opacity="0.1" d="M167.739 246.953L173.03 252.253H168.49C168.077 252.253 167.744 251.92 167.744 251.506V246.958L167.739 246.953Z" fill="white"/>
<path fill-rule="evenodd" clip-rule="evenodd" d="M241.058 264.642C241.177 264.411 241.267 264.166 241.326 263.914C241.386 263.68 241.412 263.44 241.405 263.199C241.4 263.006 241.345 262.818 241.244 262.65C241.146 262.497 241.003 262.375 240.833 262.3C240.655 262.22 240.429 262.18 240.158 262.18C239.912 262.176 239.669 262.217 239.44 262.3C239.224 262.382 239.028 262.502 238.86 262.654C238.684 262.814 238.536 263.001 238.422 263.207C238.297 263.434 238.204 263.677 238.146 263.927C238.084 264.163 238.056 264.407 238.063 264.651C238.066 264.843 238.118 265.032 238.215 265.2C238.31 265.352 238.451 265.471 238.621 265.541C238.8 265.619 239.025 265.657 239.296 265.657C239.555 265.662 239.814 265.62 240.058 265.537C240.275 265.461 240.474 265.344 240.642 265.192C240.813 265.032 240.954 264.847 241.058 264.642ZM240.382 263.561C240.371 263.681 240.353 263.801 240.326 263.919L240.319 263.914C240.29 264.034 240.252 264.153 240.206 264.268C240.164 264.372 240.108 264.472 240.041 264.563C239.982 264.645 239.905 264.715 239.816 264.767C239.728 264.818 239.625 264.844 239.522 264.842C239.428 264.847 239.334 264.824 239.254 264.776C239.186 264.729 239.137 264.661 239.115 264.584C239.087 264.487 239.079 264.385 239.089 264.285C239.101 264.15 239.125 264.016 239.158 263.885C239.189 263.768 239.231 263.654 239.284 263.544C239.328 263.442 239.387 263.346 239.457 263.257C239.52 263.179 239.598 263.112 239.686 263.062C239.768 263.015 239.863 262.99 239.959 262.991C240.056 262.985 240.152 263.012 240.231 263.066C240.296 263.117 240.342 263.187 240.361 263.266C240.385 263.362 240.393 263.462 240.382 263.561ZM235.763 265.608C235.801 265.612 235.839 265.605 235.871 265.587V265.592C235.891 265.569 235.903 265.542 235.906 265.512L236.2 264.306H237.52C237.58 264.306 237.624 264.269 237.641 264.194L237.762 263.694C237.776 263.64 237.78 263.607 237.771 263.595C237.762 263.582 237.736 263.574 237.698 263.574H236.378L236.451 263.274C236.46 263.241 236.472 263.209 236.486 263.179C236.5 263.146 236.519 263.117 236.543 263.092C236.574 263.062 236.61 263.039 236.651 263.025C236.704 263.006 236.762 262.998 236.82 263H238.057C238.086 263.003 238.116 262.996 238.14 262.979C238.16 262.956 238.174 262.927 238.178 262.896L238.308 262.351C238.326 262.297 238.326 262.263 238.317 262.251C238.308 262.239 238.282 262.235 238.243 262.235H236.72C236.56 262.232 236.402 262.257 236.252 262.31C236.123 262.356 236.004 262.425 235.902 262.514C235.807 262.598 235.727 262.698 235.668 262.809C235.608 262.917 235.563 263.032 235.534 263.15L234.958 265.512C234.94 265.574 234.971 265.608 235.049 265.608H235.763ZM247.813 263.765C247.891 263.798 247.961 263.848 248.017 263.91C248.067 263.97 248.105 264.037 248.13 264.11C248.154 264.183 248.165 264.259 248.165 264.335C248.164 264.413 248.154 264.492 248.134 264.568C248.099 264.72 248.032 264.864 247.94 264.992C247.848 265.119 247.733 265.23 247.602 265.321C247.468 265.414 247.318 265.485 247.16 265.533C246.998 265.583 246.828 265.609 246.658 265.608H245.351C245.212 265.608 245.13 265.583 245.104 265.533C245.078 265.483 245.078 265.404 245.104 265.287L245.771 262.55C245.787 262.463 245.828 262.381 245.888 262.314C245.94 262.259 246.035 262.234 246.174 262.234H247.476C247.615 262.234 247.753 262.25 247.888 262.284C248 262.311 248.104 262.364 248.191 262.438C248.272 262.511 248.329 262.605 248.355 262.709C248.384 262.839 248.38 262.975 248.343 263.104C248.308 263.239 248.241 263.365 248.148 263.47C248.057 263.582 247.944 263.676 247.815 263.745V263.765H247.813ZM246.493 263.474H247.017C247.085 263.472 247.152 263.455 247.211 263.424C247.276 263.39 247.32 263.328 247.341 263.237C247.363 263.146 247.35 263.108 247.315 263.066C247.271 263.024 247.209 263.003 247.147 263.008H246.606L246.493 263.474ZM247.168 264.51C247.194 264.433 247.182 264.349 247.138 264.281C247.095 264.222 247.017 264.194 246.908 264.194H246.32L246.164 264.822H246.753C246.812 264.823 246.871 264.813 246.926 264.792C246.971 264.773 247.012 264.747 247.047 264.713C247.078 264.684 247.104 264.65 247.125 264.613C247.142 264.58 247.155 264.545 247.163 264.509L247.168 264.51ZM249.258 265.605H250.808L250.801 265.604C250.861 265.604 250.905 265.567 250.922 265.492L251.057 264.947C251.07 264.893 251.07 264.859 251.061 264.847C251.052 264.835 251.026 264.831 250.987 264.831H249.715L249.598 264.822C249.567 264.818 249.537 264.807 249.512 264.789C249.488 264.768 249.472 264.74 249.469 264.709C249.463 264.661 249.467 264.611 249.481 264.564L249.568 264.202H250.914C250.977 264.202 251.018 264.165 251.035 264.09L251.156 263.587C251.169 263.555 251.172 263.521 251.165 263.487C251.156 263.475 251.13 263.466 251.091 263.466H249.745L249.793 263.262C249.802 263.23 249.814 263.197 249.828 263.167C249.843 263.135 249.863 263.105 249.889 263.08C249.92 263.05 249.956 263.028 249.997 263.013C250.051 262.994 250.108 262.986 250.166 262.988H251.365C251.394 262.992 251.423 262.984 251.447 262.968C251.469 262.944 251.484 262.916 251.49 262.884L251.624 262.339C251.638 262.285 251.638 262.251 251.629 262.239C251.62 262.227 251.594 262.223 251.555 262.223H250.075C249.915 262.221 249.754 262.247 249.604 262.302C249.474 262.348 249.356 262.418 249.253 262.506C249.158 262.591 249.079 262.691 249.019 262.801C248.959 262.909 248.915 263.024 248.885 263.142L248.509 264.686C248.483 264.792 248.47 264.901 248.47 265.01C248.47 265.114 248.497 265.215 248.548 265.306C248.604 265.4 248.689 265.476 248.791 265.522C248.904 265.576 249.059 265.605 249.258 265.605ZM254.561 263H253.704L253.094 265.509C253.09 265.537 253.078 265.565 253.059 265.588C253.027 265.606 252.989 265.613 252.951 265.608H252.237C252.159 265.608 252.128 265.575 252.146 265.509L252.756 263.001H251.921C251.852 263.001 251.826 262.964 251.843 262.889L251.973 262.348C251.977 262.311 251.994 262.275 252.021 262.248C252.047 262.234 252.077 262.229 252.108 262.232H254.752C254.779 262.228 254.807 262.234 254.83 262.248C254.843 262.26 254.843 262.294 254.83 262.348L254.7 262.889C254.683 262.964 254.639 263.001 254.566 263.001L254.561 263ZM242.309 265.506L242.737 263.78V263.779H242.776L243.027 264.379L243.482 265.386C243.499 265.427 243.522 265.466 243.551 265.502C243.571 265.529 243.598 265.551 243.629 265.568C243.66 265.584 243.693 265.594 243.728 265.597L243.854 265.606H244.113C244.266 265.606 244.374 265.57 244.438 265.498C244.506 265.419 244.554 265.326 244.577 265.227L245.3 262.332C245.318 262.265 245.287 262.232 245.209 262.232H244.495C244.457 262.227 244.419 262.234 244.387 262.253C244.367 262.275 244.354 262.303 244.348 262.332L243.92 264.071H243.885L243.638 263.484L243.175 262.452C243.154 262.412 243.13 262.372 243.102 262.336C243.081 262.309 243.054 262.286 243.024 262.27C242.994 262.255 242.962 262.245 242.929 262.24L242.799 262.232H242.539C242.4 262.232 242.296 262.261 242.231 262.311C242.167 262.361 242.119 262.465 242.08 262.615L241.361 265.506C241.343 265.572 241.374 265.606 241.452 265.606H242.162C242.199 265.611 242.237 265.604 242.27 265.585C242.29 265.562 242.303 265.535 242.309 265.506Z" fill="white"/>
<path d="M384.985 326.138C383.839 324.644 384.722 323.305 385.066 321.716C385.54 319.64 384.218 318.287 383.008 316.819C381.703 315.075 380.549 313.227 379.287 311.453C378.968 310.833 378.016 310.225 378.507 309.476C379.257 308.24 379.993 306.806 379.67 305.324C379.429 303.985 378.766 302.775 378.305 301.509C377.478 299.545 376.755 297.538 375.971 295.557C375.536 294.618 375.191 293.623 374.838 292.633C374.412 291.444 373.972 290.26 373.348 289.183C373.197 288.92 373.034 288.666 372.857 288.421C372.189 287.727 371.759 287.852 371.423 288.279C371.156 288.619 370.945 289.149 370.721 289.609C369.58 291.728 368.757 293.993 367.719 296.16C367.047 297.529 366.509 298.959 365.897 300.359C365.243 301.935 364.257 303.709 364.795 305.449C365.256 307.017 367.396 306.733 367.685 307.392C367.663 309.153 366.63 310.665 365.712 312.094C364.653 313.955 363.301 315.604 362.047 317.331C359.864 320.424 357.413 323.141 362.017 325.488C362.077 325.54 362.129 325.6 362.159 325.678C362.151 325.665 362.146 325.647 362.138 325.635C361.866 327.116 360.824 328.408 360.238 329.799C358.847 332.874 357.405 335.919 355.923 338.951C355.015 341.07 351.737 345.777 356.113 345.923C359.567 346.13 362.896 344.838 366.203 344.024C368.895 343.421 371.677 343.292 374.356 342.599C376.983 342 379.545 341.147 382.039 340.135C382.452 339.967 382.861 339.795 383.271 339.618C384.588 339.054 386.178 338.477 386.776 337.06C387.439 335.135 387.741 333.033 387.741 331.001C387.517 329.08 385.872 327.775 384.989 326.151L384.985 326.138Z" fill="#70A1FF"/>
<path d="M350.178 453.779H-64.3433V324.402C37.9142 331.534 190.013 388.615 350.178 453.779Z" fill="#BED9FF"/>
<path d="M151.585 392.303C150.806 393.952 149.135 394.77 147.636 395.645C146.03 396.661 144.187 397.135 142.373 397.621C141.555 397.875 140.72 398.082 139.884 398.276C138.528 398.59 137.162 398.857 135.814 399.193C133.652 399.762 131.555 400.55 129.38 401.062C126.727 401.644 124.053 402.178 121.361 402.548C117.132 402.996 112.86 403.117 108.609 403.211C106.921 403.173 105.22 403.082 103.566 402.716C101.757 402.389 100.452 401.403 100.978 399.409C101.718 396.695 103.153 394.198 104.72 391.881C105.84 390.162 107.309 388.694 108.407 386.967C108.42 386.945 108.433 386.919 108.45 386.898C106.912 387.104 103.962 387.294 103.411 385.438C103.234 383.728 104.587 380.967 105.315 379.387C106.899 376.359 108.334 373.25 110.06 370.296C111.271 368.125 112.756 366.032 113.446 363.62C113.441 363.633 113.437 363.646 113.437 363.659C113.484 363.508 113.484 363.396 113.454 363.314C113.334 362.983 112.67 363.147 112.3 363.125C111.8 363.155 111.301 363.233 110.801 363.293C110.573 363.323 110.345 363.345 110.116 363.358C109.384 363.375 108.312 363.138 108.105 362.333C108.334 361.109 109.07 360.016 109.548 358.87C110.358 357.014 111.249 355.196 112.016 353.323C112.576 351.902 113.153 350.485 113.906 349.154C114.949 347.091 116.469 345.347 117.744 343.439C117.791 343.344 117.838 343.245 117.877 343.142C117.907 343.06 117.929 342.978 117.946 342.892C117.968 342.793 117.959 342.703 117.933 342.617C117.864 342.406 117.67 342.255 117.425 342.276C117.352 342.272 117.274 342.263 117.188 342.263C115.775 342.195 112.903 342.449 112.67 340.89C112.756 338.926 113.73 337.113 114.415 335.3C115.543 332.483 116.409 329.567 117.416 326.708C118.295 324.231 119.359 321.824 120.289 319.374C120.401 319.029 120.508 318.689 120.62 318.344C121.219 316.479 121.792 314.593 121.951 312.642C122.037 310.786 121.904 308.921 121.869 307.065C121.856 306.471 121.848 305.872 121.861 305.278C121.865 304.946 121.874 304.61 121.895 304.279C121.947 303.861 121.908 303.357 122.175 303.017H122.179C122.227 302.961 122.283 302.913 122.343 302.875C122.636 302.685 123.019 302.672 123.329 302.866C123.807 304.218 123.601 305.709 123.769 307.121C124.044 310.541 123.889 314.038 124.802 317.371C126.198 322.698 129.604 327.134 132.309 331.837C133.093 333.207 134.273 334.288 135.134 335.601C135.608 336.501 136.323 337.948 135.354 338.745C134.854 339.081 134.217 338.973 133.648 339.033C133.149 339.059 132.662 339.176 132.205 339.378C131.964 339.503 131.693 339.628 131.542 339.869C131.542 339.869 131.541 339.869 131.538 339.869C131.512 339.908 131.495 339.951 131.486 339.994C131.409 342.401 133.411 344.826 134.354 346.992C134.815 347.897 135.444 348.702 135.982 349.555C137.072 351.471 138.239 353.349 139.54 355.136C140.586 356.514 143.588 359.486 140.866 360.653C140.108 360.851 139.324 360.653 138.558 360.666C138.054 360.705 137.584 360.894 137.089 360.976C136.615 361.071 136.112 361.002 135.659 361.183C135.586 361.217 135.517 361.26 135.453 361.308C135.379 361.359 135.31 361.415 135.246 361.48C135.194 361.532 135.147 361.592 135.104 361.656C134.712 363.03 136.628 364.589 137.352 365.657C138.299 366.915 139.113 368.271 139.914 369.632C141.947 372.815 145.392 374.701 147.64 377.725C149.634 380.003 147.933 380.412 145.763 380.765C145.771 380.765 145.776 380.765 145.784 380.756C145.461 380.83 145.276 381.105 145.392 381.433C145.392 381.42 145.388 381.402 145.388 381.394C145.72 382.238 146.262 383 146.745 383.763C147.111 384.4 147.52 385.007 148.032 385.533C149.51 386.911 151.917 388.612 151.99 390.726C152.012 391.235 151.895 391.76 151.603 392.316L151.585 392.303Z" fill="#70A1FF"/>
<path d="M267.326 374.023C266.546 375.673 264.875 376.491 263.372 377.365C261.766 378.381 259.927 378.855 258.109 379.342C257.287 379.592 256.456 379.803 255.62 379.996C254.264 380.311 252.898 380.578 251.546 380.914C249.388 381.482 247.291 382.27 245.112 382.783C242.459 383.364 239.785 383.898 237.093 384.269C232.864 384.717 228.592 384.837 224.341 384.932C222.653 384.893 220.951 384.803 219.298 384.437C217.489 384.109 216.184 383.123 216.709 381.133C217.45 378.425 218.884 375.922 220.448 373.605C221.567 371.883 223.036 370.418 224.134 368.691C224.147 368.67 224.16 368.644 224.177 368.623C222.644 368.829 219.69 369.019 219.138 367.163C218.962 365.453 220.31 362.692 221.042 361.112C222.627 358.084 224.061 354.975 225.788 352.02C227.002 349.85 228.484 347.757 229.173 345.345C229.169 345.358 229.169 345.375 229.164 345.388C229.212 345.233 229.216 345.125 229.182 345.044C229.061 344.712 228.398 344.876 228.027 344.854C227.528 344.884 227.028 344.962 226.529 345.022C226.3 345.048 226.072 345.074 225.844 345.087C225.112 345.104 224.039 344.867 223.833 344.057C224.061 342.834 224.802 341.736 225.28 340.595C226.089 338.739 226.981 336.921 227.743 335.048C228.307 333.627 228.876 332.21 229.629 330.879C230.672 328.816 232.196 327.068 233.471 325.164C233.518 325.069 233.566 324.97 233.6 324.867C233.63 324.785 233.652 324.703 233.669 324.617C233.691 324.518 233.686 324.428 233.656 324.341C233.592 324.135 233.393 323.98 233.148 324.001C233.075 323.997 232.997 323.988 232.911 323.988C231.499 323.919 228.626 324.173 228.393 322.614C228.48 320.651 229.453 318.838 230.138 317.024C231.266 314.208 232.132 311.292 233.139 308.433C234.018 305.961 235.082 303.553 236.012 301.094C236.124 300.75 236.232 300.409 236.344 300.065C236.938 298.2 237.511 296.314 237.67 294.363C237.752 292.507 237.623 290.646 237.592 288.786C237.58 288.191 237.571 287.597 237.584 287.003C237.584 286.667 237.597 286.335 237.618 286.003C237.67 285.586 237.631 285.082 237.898 284.742H237.903C237.95 284.686 238.01 284.638 238.07 284.6C238.363 284.406 238.751 284.397 239.052 284.587C239.535 285.939 239.324 287.429 239.492 288.842C239.767 292.261 239.612 295.758 240.525 299.091C241.921 304.419 245.323 308.855 248.032 313.558C248.816 314.931 249.996 316.008 250.861 317.322C251.335 318.222 252.05 319.669 251.077 320.465C250.577 320.801 249.94 320.694 249.367 320.75C248.872 320.776 248.385 320.892 247.928 321.094C247.683 321.219 247.416 321.344 247.265 321.585C247.265 321.585 247.265 321.587 247.265 321.589C247.244 321.628 247.222 321.671 247.214 321.714C247.136 324.122 249.139 326.546 250.082 328.713C250.543 329.617 251.167 330.422 251.705 331.279C252.799 333.196 253.966 335.074 255.267 336.861C256.318 338.239 259.315 341.211 256.593 342.378C255.835 342.576 255.052 342.378 254.285 342.391C253.781 342.425 253.312 342.619 252.821 342.701C252.347 342.796 251.843 342.727 251.391 342.912C251.318 342.946 251.249 342.989 251.18 343.032C251.107 343.084 251.038 343.14 250.973 343.205C250.922 343.256 250.87 343.321 250.831 343.386C250.439 344.759 252.356 346.318 253.079 347.386C254.022 348.648 254.841 350.001 255.637 351.361C257.67 354.544 261.115 356.43 263.364 359.449C265.358 361.728 263.656 362.137 261.486 362.49C261.49 362.486 261.499 362.486 261.507 362.481C261.184 362.559 260.999 362.834 261.115 363.162C261.115 363.145 261.111 363.132 261.107 363.119C261.438 363.963 261.981 364.725 262.463 365.487C262.834 366.125 263.239 366.732 263.751 367.262C265.228 368.64 267.636 370.341 267.713 372.456C267.735 372.964 267.619 373.493 267.326 374.045V374.023Z" fill="#70A1FF"/>
<path d="M308.515 360.353C307.735 362.002 306.064 362.821 304.565 363.695C302.959 364.707 301.116 365.185 299.303 365.672C298.484 365.922 297.649 366.133 296.813 366.322C295.457 366.636 294.092 366.903 292.744 367.239C290.582 367.808 288.484 368.596 286.314 369.108C283.657 369.694 280.986 370.224 278.295 370.594C274.066 371.042 269.793 371.163 265.543 371.258C263.855 371.219 262.153 371.128 260.5 370.762C258.687 370.439 257.386 369.449 257.911 367.459C258.652 364.746 260.086 362.248 261.654 359.931C262.769 358.208 264.242 356.744 265.34 355.017C265.353 354.996 265.37 354.97 265.383 354.948C263.846 355.155 260.896 355.349 260.345 353.488C260.168 351.783 261.52 349.018 262.248 347.437C263.833 344.41 265.267 341.3 266.994 338.346C268.209 336.175 269.69 334.082 270.379 331.671C270.375 331.684 270.371 331.701 270.371 331.714C270.418 331.559 270.418 331.451 270.388 331.369C270.267 331.038 269.604 331.201 269.234 331.18C268.73 331.21 268.234 331.287 267.735 331.348C267.507 331.373 267.278 331.399 267.05 331.412C266.318 331.425 265.246 331.193 265.039 330.383C265.267 329.16 266.008 328.066 266.482 326.92C267.291 325.064 268.183 323.247 268.949 321.373C269.513 319.952 270.086 318.535 270.84 317.209C271.882 315.146 273.402 313.402 274.677 311.494C274.729 311.395 274.772 311.3 274.811 311.197C274.841 311.115 274.862 311.033 274.88 310.947C274.901 310.848 274.893 310.753 274.867 310.671C274.802 310.465 274.604 310.314 274.358 310.331C274.285 310.323 274.208 310.318 274.126 310.318C272.709 310.249 269.836 310.503 269.608 308.944C269.694 306.981 270.668 305.167 271.352 303.354C272.481 300.538 273.351 297.622 274.354 294.763C275.237 292.29 276.292 289.883 277.227 287.428C277.334 287.088 277.446 286.743 277.558 286.399C278.157 284.534 278.73 282.652 278.889 280.697C278.971 278.836 278.842 276.976 278.807 275.12C278.794 274.525 278.786 273.931 278.799 273.333C278.803 273.001 278.816 272.665 278.833 272.333C278.885 271.916 278.846 271.412 279.113 271.072H279.117C279.165 271.016 279.221 270.968 279.285 270.929C279.574 270.74 279.961 270.727 280.267 270.921C280.745 272.273 280.539 273.768 280.707 275.176C280.982 278.595 280.827 282.092 281.74 285.426C283.14 290.753 286.542 295.189 289.247 299.892C290.03 301.261 291.21 302.342 292.072 303.651C292.546 304.552 293.26 305.999 292.291 306.795C291.792 307.131 291.15 307.024 290.582 307.08C290.082 307.105 289.6 307.222 289.139 307.424C288.898 307.549 288.626 307.674 288.476 307.915C288.476 307.915 288.474 307.916 288.471 307.919C288.446 307.958 288.433 308.001 288.42 308.044C288.347 310.452 290.345 312.872 291.292 315.043C291.753 315.947 292.378 316.748 292.916 317.605C294.005 319.526 295.177 321.399 296.473 323.187C297.52 324.565 300.526 327.536 297.8 328.703C297.042 328.901 296.258 328.703 295.491 328.716C294.992 328.751 294.518 328.945 294.023 329.026C293.549 329.117 293.045 329.048 292.593 329.233C292.52 329.268 292.451 329.311 292.386 329.354C292.313 329.405 292.244 329.461 292.179 329.526C292.128 329.578 292.08 329.642 292.037 329.707C291.645 331.081 293.562 332.64 294.285 333.708C295.229 334.965 296.047 336.322 296.844 337.678C298.876 340.861 302.322 342.747 304.57 345.771C306.564 348.049 304.863 348.458 302.688 348.811C302.696 348.807 302.701 348.807 302.709 348.803C302.386 348.876 302.197 349.156 302.317 349.483C302.317 349.47 302.313 349.453 302.313 349.44C302.645 350.284 303.187 351.046 303.67 351.813C304.036 352.45 304.445 353.058 304.957 353.583C306.435 354.961 308.842 356.662 308.915 358.777C308.937 359.285 308.82 359.815 308.528 360.366L308.515 360.353Z" fill="#5A8CFF"/>
<path d="M280.172 303.122C279.633 304.409 277.984 304.883 277.286 306.098C276.774 306.993 276.847 308.178 276.18 308.957C275.895 309.293 275.508 309.513 275.129 309.732C274.788 309.926 274.448 310.12 274.108 310.314C272.691 310.245 269.819 310.499 269.59 308.94C269.676 306.976 270.65 305.163 271.335 303.35C272.463 300.533 273.333 297.618 274.336 294.758C275.219 292.286 276.274 289.879 277.209 287.424C277.316 287.084 277.428 286.739 277.54 286.395C277.605 287.902 277.394 289.414 276.912 290.839C276.498 292.045 275.9 293.19 275.624 294.435C275.404 295.439 275.404 296.481 275.323 297.51C275.081 300.576 274.138 303.539 273.199 306.472C274.715 305.887 276.167 305.116 277.497 304.185C278.307 303.621 279.207 302.962 280.176 303.139L280.172 303.122Z" fill="#70A1FF"/>
<path d="M281.099 325.026C279.941 325.689 278.778 326.352 277.619 327.016C277.163 327.274 276.698 327.541 276.185 327.657C275.75 327.761 275.289 327.752 274.855 327.868C273.244 328.286 272.253 330.241 270.591 330.293C270.195 330.306 269.799 330.203 269.407 330.254C268.73 330.34 268.214 330.853 267.727 331.348C267.499 331.374 267.27 331.4 267.042 331.413C266.31 331.426 265.238 331.193 265.031 330.383C265.259 329.16 266 328.066 266.474 326.921C267.283 325.065 268.175 323.247 268.941 321.374C269.506 319.953 270.078 318.536 270.832 317.209C271.874 315.146 273.395 313.402 274.669 311.494C274.721 311.395 274.764 311.301 274.803 311.197C274.833 311.115 274.855 311.034 274.872 310.948C274.893 310.848 274.885 310.754 274.859 310.672C276.022 310.866 274.958 315.026 274.527 316.107C273.567 318.523 272.606 320.939 271.646 323.355C271.435 323.88 271.224 324.432 271.31 324.992C271.401 325.547 271.913 326.077 272.464 325.969C272.938 325.874 273.218 325.392 273.614 325.116C273.864 324.94 274.161 324.849 274.454 324.768C276.81 324.1 279.265 323.79 281.711 323.846C282.055 324.229 281.547 324.776 281.099 325.03V325.026Z" fill="#70A1FF"/>
<path d="M287.439 347.666C286.306 348.476 285.01 349.169 284.312 350.37C284.127 350.689 283.989 351.038 283.735 351.305C282.861 352.248 281.302 351.714 280.032 351.925C279.308 352.046 278.653 352.429 277.943 352.619C276.621 352.976 275.212 352.649 273.856 352.821C271.69 353.097 269.812 354.63 267.633 354.772C267.069 354.806 266.496 354.75 265.94 354.845C265.729 354.88 265.527 354.936 265.329 355.004C265.342 354.983 265.359 354.957 265.372 354.936C263.834 355.142 260.884 355.336 260.333 353.476C260.156 351.77 261.509 349.005 262.236 347.425C263.821 344.397 265.255 341.288 266.982 338.333C268.197 336.163 269.678 334.07 270.367 331.658C270.363 331.671 270.359 331.688 270.359 331.701C270.406 331.546 270.406 331.438 270.376 331.357C270.63 331.249 270.897 331.189 271.16 331.253C271.819 331.408 272.077 332.209 272.146 332.881C272.572 337.11 270.247 341.059 269.007 345.121C268.813 345.754 268.645 346.426 268.8 347.072C268.955 347.718 269.558 348.295 270.212 348.208C270.548 348.165 270.837 347.963 271.147 347.825C272.236 347.334 273.554 347.653 274.653 347.184C275.169 346.964 275.609 346.576 276.134 346.374C276.659 346.176 277.232 346.167 277.792 346.154C281.797 346.064 288.994 343.665 289.631 344.311C290.273 344.953 288.567 346.848 287.439 347.653V347.666Z" fill="#70A1FF"/>
<path d="M581.928 311.602V451.801H-64.072V436.017C157.618 376.068 373.963 331.653 581.928 311.602Z" fill="#EDF6FF"/>
<g style="mix-blend-mode:screen" opacity="0.55">
<path d="M372.629 339.258C310.458 356.209 201.529 385.817 200.47 385.524C198.984 385.111 216.908 376.7 215.961 376.166C215.013 375.636 165.013 388.573 161.331 387.027C159.22 386.14 193.691 375.757 223.502 367.049C273.58 356.708 323.304 347.41 372.629 339.258Z" fill="white"/>
</g>
<path opacity="0.75" d="M166.248 383.229C166.248 383.229 337.808 345.795 352.003 344.904C366.197 344.012 217.523 378.806 217.523 378.806C217.523 378.806 241.321 370.024 244.289 370.007C247.256 369.99 166.248 383.229 166.248 383.229Z" fill="white"/>
<path opacity="0.75" d="M238.984 381.712C238.984 381.712 386.845 358.254 394.076 359.834C401.307 361.415 280.582 385.524 280.582 385.524C280.582 385.524 320.466 374.998 316.685 374.804C312.9 374.61 238.984 381.716 238.984 381.716V381.712Z" fill="white"/>
<path d="M182.502 375.335L188.975 373.905L195.457 372.505L208.424 369.732L221.404 367.023L234.393 364.344C251.715 360.791 269.062 357.363 286.431 354.047C303.804 350.761 321.185 347.51 338.619 344.538C342.973 343.771 347.336 343.056 351.694 342.329C356.057 341.601 360.411 340.86 364.782 340.184L371.332 339.163C373.516 338.827 375.699 338.47 377.887 338.164L384.45 337.208L391.014 336.273L384.476 337.372L377.934 338.448C375.751 338.797 373.576 339.193 371.401 339.568L364.868 340.705C362.693 341.084 360.51 341.437 358.335 341.833L351.81 342.996C347.46 343.776 343.106 344.538 338.761 345.352L325.72 347.742L312.688 350.175L299.656 352.626L286.633 355.102L273.61 357.587L260.591 360.102L234.557 365.15L182.502 375.335Z" fill="white"/>
<path d="M65.3584 379.036C63.92 377.812 62.4988 376.564 61.0345 375.371C60.5866 375.005 60.1645 374.604 59.7511 374.203C59.3032 373.725 58.6529 373.321 58.4806 372.657C58.416 372.339 58.5366 372.016 58.6271 371.714C58.7821 371.081 59.2817 370.668 59.6951 370.211C60.0353 369.686 59.8674 369.005 59.6693 368.445C59.4453 367.804 58.9673 367.33 58.4203 366.942C58.2696 366.818 58.0672 366.615 57.9337 366.469C57.404 365.715 56.4307 365.198 56.1981 364.281C56.1852 364.147 56.1981 364.01 56.2153 363.885V363.911C56.2412 363.605 56.3876 363.26 56.7149 363.183L56.6934 363.191C56.7666 363.17 56.8398 363.144 56.913 363.127H56.9044C61.2068 362.532 57.7097 360.478 56.0603 359.126C54.932 358.053 53.8165 356.899 53.1145 355.474C52.938 355.017 52.8174 354.509 52.8432 354.018C52.8734 353.579 53.0801 353.002 53.6012 352.993H53.5883C54.4927 352.924 55.3971 353.264 56.2972 353.088C57.0681 352.967 57.236 352.442 56.758 351.843C56.4694 351.365 56 350.84 55.5952 350.517C54.8243 349.897 53.95 349.432 53.1145 348.91C52.9681 348.811 52.8389 348.725 52.7269 348.635C52.6451 348.57 52.5719 348.501 52.4987 348.424C52.4771 348.394 52.4169 348.325 52.3996 348.295C53.1404 348.282 53.851 348.092 54.5443 347.847C55.2377 347.597 55.9096 347.283 56.5857 347.015C58.3213 346.555 60.0526 347.386 61.7925 347.244C62.7744 347.196 64.0707 346.486 63.7606 345.336C63.5194 344.548 62.6236 344.259 61.9906 343.854C60.7503 343.127 59.4669 342.369 58.0414 342.11C57.4643 341.972 56.8699 341.817 56.3058 341.632C54.9319 341.176 53.4117 341.016 52.2704 340.047C52.1455 339.948 52.012 339.819 51.9001 339.703C51.6072 339.35 51.1421 338.742 51.1335 338.277C51.801 338.239 52.503 338.161 53.0198 337.709C54.3635 337.976 56.1938 338.764 57.2963 337.588C57.9165 336.654 56.4134 335.633 55.8191 335.039C54.0534 333.613 52.2403 332.244 50.4358 330.865C48.3815 329.315 44.794 327.196 44.2729 324.522C44.26 324.367 44.26 324.199 44.3117 324.048C44.3117 324.048 44.3117 324.039 44.3117 324.035C44.3117 324.035 44.3117 324.039 44.3117 324.044C44.428 323.695 44.6132 323.669 44.9189 323.833C45.6855 324.203 46.5985 324.513 47.4082 324.087C47.981 323.811 48.2006 323.195 48.6011 322.756C48.6657 322.687 48.7433 322.623 48.8251 322.567L48.8165 322.575C48.9457 322.493 49.0964 322.446 49.2514 322.437H49.2428C49.3634 322.437 49.4883 322.442 49.6089 322.467C49.6434 322.476 49.7166 322.493 49.751 322.502C51.3273 323.135 52.9724 324.819 54.7726 323.91C55.9053 323.299 55.3454 322.123 54.8157 321.309C54.4194 320.65 53.9543 320.021 53.4677 319.423C51.2153 316.666 48.3686 314.5 46.0516 311.826C45.1644 310.831 43.8293 309.388 43.614 308.036C43.614 307.92 43.6054 307.782 43.6915 307.696C44.2514 307.709 44.794 308.019 45.3668 307.971C46.3229 307.864 46.0301 307.097 45.552 306.58C44.5959 305.383 43.0929 304.87 42.1024 303.669C41.8009 303.299 41.7923 302.907 42.1584 302.571C42.4684 302.295 42.8216 302.084 43.0843 301.761C43.1403 301.714 43.2049 301.666 43.2738 301.64C43.7389 301.619 44.2385 301.796 44.6778 301.567C45.8018 300.96 43.571 298.957 43.1489 298.32C42.2876 297.118 41.2023 295.969 40.8018 294.517C40.7673 294.354 40.7372 294.186 40.7501 294.022C40.7501 294.022 40.7501 294.018 40.7501 294.013V294.022C40.7544 293.893 40.8104 293.759 40.9353 293.708C41.297 293.587 41.7363 293.596 42.0162 293.311C42.7355 292.489 40.005 290.4 39.4667 289.75C39.1695 289.457 38.8638 289.164 38.5795 288.858C38.4288 288.466 38.1876 287.98 38.3771 287.575C38.39 287.545 38.4073 287.519 38.4245 287.489L38.446 287.472L38.4719 287.459L38.4934 287.45C39.7466 287.764 43.2092 288.845 42.0076 286.283C41.2669 285.129 40.1515 284.302 39.2384 283.29C38.7518 282.764 38.2695 282.204 37.7699 281.688C36.9559 280.598 36.2496 279.414 35.8706 278.113C35.8319 277.98 35.7974 277.846 35.763 277.708C35.7328 277.295 35.7328 276.843 35.8922 276.472L35.9137 276.455C36.9731 276.705 38.1403 277.2 39.1695 276.597C39.6304 276.326 40.3754 275.779 39.9921 275.189C39.1997 274.117 38.1187 273.328 37.0507 272.558C36.1463 271.929 35.0653 271.27 34.6949 270.159C34.5743 269.814 34.4796 269.44 34.5356 269.073C34.5399 269.039 34.5485 269.005 34.5571 268.966C34.5657 268.957 34.57 268.936 34.5872 268.931C35.5218 268.949 36.4434 269.228 37.3737 269.056C38.2996 268.57 37.9809 267.773 37.2961 266.993C36.5209 266.115 35.2806 265.258 34.837 264.879C32.1195 262.635 33.166 254.612 31.9688 251.046C31.6544 250.322 31.5295 248.561 30.7758 248.285C29.936 248.664 30.2892 250.921 30.2203 251.739C30.1126 255.107 30.483 258.397 30.4399 261.765C30.3753 266.502 30.1686 268.272 26.5338 271.675C25.7457 272.394 24.9618 273.126 24.1953 273.867C24.1436 273.914 24.0876 273.962 24.0445 274.013C24.0445 274.013 24.0402 274.017 24.0359 274.022C23.0195 275.068 21.818 275.999 21.1246 277.303C20.9222 277.846 20.6724 278.496 21.271 278.884C23.0152 279.926 22.8257 279.039 24.8499 280.788C24.6733 282.054 24.2383 283.268 23.7646 284.453C23.7344 284.53 23.7 284.608 23.6698 284.685C23.6698 284.685 23.6698 284.685 23.6698 284.689C23.1057 285.96 22.3606 287.183 21.4605 288.247C21.4261 288.285 21.3313 288.402 21.284 288.462C20.9308 288.897 20.582 289.349 20.2331 289.784C15.4786 295.193 25.6897 292.773 20.6164 296.253C19.669 296.895 18.6526 297.416 17.7568 298.139C16.4519 299.108 15.457 301.162 17.985 301.025C18.0927 301.033 18.2047 301.033 18.308 301.046C18.2908 301.055 18.2564 301.076 18.2391 301.085H18.2434C17.4252 301.498 17.0117 302.407 16.4217 303.079C15.5862 304.044 13.8851 306.817 15.4829 307.717C15.9135 307.885 16.3873 307.803 16.8395 307.808C17.3563 307.821 17.8558 308.088 18.364 308.165C18.3554 308.182 18.3425 308.2 18.3339 308.221C17.2658 310.021 16.3614 311.92 15.2245 313.678C13.5535 316.425 11.5767 319.026 10.2632 321.977C9.92297 322.567 10.3752 322.778 10.8877 322.519C11.7145 322.14 12.6362 322.033 13.5276 322.192C14.8627 322.312 15.8619 323.583 17.2831 323.29L17.3003 323.299C17.3003 323.299 17.296 323.312 17.2917 323.316C16.6887 324.143 15.9351 324.862 15.2115 325.568C14.8283 326.076 13.2736 327.106 13.4975 327.717C13.9152 328.665 14.8541 329.436 15.0005 330.499C15.0091 330.624 15.0005 330.771 14.979 330.891C14.9618 330.982 14.9402 331.081 14.9101 331.176C14.8886 331.232 14.8627 331.292 14.8369 331.348C14.8369 331.352 14.8326 331.361 14.8283 331.365C14.7938 331.438 14.755 331.512 14.7077 331.58C14.3416 332.145 13.7602 332.575 13.3209 333.058C12.3692 334.078 11.5552 335.245 10.5604 336.214C9.6818 337.003 8.6525 337.61 7.817 338.454C6.03835 340.194 5.15118 341.003 8.31227 341.486C9.87559 341.766 11.2753 342.502 12.8989 342.597C12.929 342.812 12.8515 343.032 12.7654 343.226C12.2313 344.152 11.1288 344.539 10.2718 345.073C8.23475 346.227 5.87901 346.748 3.93239 348.071C1.50343 349.651 -0.589606 351.68 -2.44147 353.876C-2.81185 354.32 -2.56637 355.047 -1.99789 355.159C-1.34327 355.289 -0.533622 355.168 0.0391645 354.867C3.79027 354.195 7.48539 356.128 11.2236 355.228C11.1504 355.379 11.0642 355.517 10.9695 355.672C10.0134 357.089 8.84199 358.385 7.43371 359.358C6.31398 360.129 5.12964 360.831 4.10896 361.74C2.80835 362.924 1.73168 364.371 0.805751 365.87C-0.055582 367.218 0.392313 368.166 2.04607 367.761C2.90741 367.554 3.7429 367.722 4.60854 367.666C4.39751 367.998 4.10035 368.372 3.83334 368.695C3.44574 369.165 2.972 369.638 2.48104 369.992C2.01592 370.323 1.4819 370.625 1.01248 370.943C-0.128791 371.74 -0.985823 372.825 -1.71796 373.932C-1.7481 374.936 0.052084 374.901 0.771297 375.086C1.17182 375.134 1.49482 375.203 1.37854 375.694V375.685C1.08999 376.637 0.0951509 377.154 -0.654209 377.726C-1.51985 378.364 -2.29505 379.122 -3.07455 379.858C-3.97465 380.707 -4.93934 381.551 -5.9428 382.274C-7.23049 383.269 -8.61723 384.148 -9.74989 385.323C-10.1978 385.784 -10.6069 386.495 -10.0298 386.977C-8.68184 387.847 -6.38207 386.521 -4.89197 386.327C-2.38118 385.991 0.288954 386.043 2.73945 385.56C1.8049 386.882 0.340631 387.8 -0.929835 388.79C-1.64044 389.363 -2.07541 389.863 -2.42425 390.763C-2.54484 391.59 -1.92037 391.701 -1.36912 391.999C-0.723117 392.313 -0.0512743 392.412 0.611953 392.645C1.85658 393.067 3.20026 392.989 4.48795 393.067H4.47503C4.86694 393.075 5.26746 393.093 5.65937 393.097H5.64645C7.90745 393.157 10.1684 393.153 12.4251 393.166C13.2606 393.179 14.1177 393.144 14.9402 392.993C16.5466 392.696 18.1142 392.244 19.6905 391.818C20.8231 391.482 21.9859 391.133 23.1746 391.133C23.2564 391.133 23.3382 391.133 23.4201 391.137C26.4821 391.249 29.2298 392.993 32.2746 393.222C34.9275 393.295 37.5502 392.744 40.1601 392.317C42.055 391.994 43.9715 391.779 45.8664 391.443C47.5589 391.124 49.2558 390.776 50.9698 390.59H50.9612C52.1025 390.483 53.2653 390.397 54.4108 390.384C56.4737 390.366 58.4591 391.008 60.4918 391.271C61.6417 391.404 62.8777 391.357 64.0621 391.465C65.0139 391.534 68.3817 391.869 67.2059 390.086C66.2154 388.187 62.3653 387.055 60.6727 385.655C60.466 385.478 60.2894 385.289 60.1516 385.061C60.0913 384.944 59.9966 384.789 60.0698 384.664C60.5435 384.44 61.0388 384.298 61.5513 384.229C63.3601 384.087 65.2981 384.953 67.1284 384.539C67.7916 384.415 68.3644 383.881 68.3601 383.179C68.4764 381.8 66.3532 379.923 65.3627 379.027L65.3584 379.036ZM18.7947 307.808L18.7689 307.894C18.7689 307.894 18.7559 307.894 18.7516 307.894L18.7947 307.808ZM38.8293 289.444C38.8293 289.444 38.8379 289.44 38.8422 289.435C38.9068 289.513 38.9714 289.595 39.0403 289.672C38.9714 289.595 38.9025 289.517 38.8336 289.444H38.8293Z" fill="#70A1FF"/>
<g style="mix-blend-mode:multiply" opacity="0.35">
<path d="M26.8522 288.559C26.8522 288.559 26.8565 288.555 26.8608 288.551C26.8694 288.538 26.8781 288.529 26.8824 288.516C26.8738 288.529 26.8608 288.546 26.8522 288.559ZM65.3538 379.034C63.9154 377.811 62.4942 376.562 61.0256 375.369C60.7974 375.184 60.5777 374.99 60.3581 374.792C60.1471 374.598 59.9446 374.4 59.7422 374.206C59.2943 373.728 58.644 373.323 58.4675 372.66C58.4029 372.341 58.5277 372.022 58.6182 371.721C58.7732 371.088 59.2728 370.674 59.6862 370.218C60.0265 369.693 59.8585 369.012 59.6604 368.452C59.4408 367.811 58.9584 367.337 58.4158 366.945C58.265 366.82 58.0626 366.618 57.9291 366.475C57.6191 366.036 57.1582 365.674 56.7792 365.27C56.5122 364.981 56.2883 364.671 56.1892 364.292C56.1763 364.158 56.1849 364.021 56.2065 363.896V363.922C56.2194 363.732 56.2797 363.53 56.4046 363.383C56.4821 363.293 56.5811 363.224 56.706 363.194L56.6845 363.202C56.7577 363.181 56.8309 363.155 56.9041 363.138H56.8955C61.1979 362.543 57.7009 360.489 56.0514 359.137C55.6854 358.792 55.3236 358.435 54.9791 358.069C54.5958 357.66 54.2254 357.233 53.8938 356.781C53.5966 356.376 53.3339 355.95 53.11 355.498C52.9291 355.037 52.8042 354.524 52.8343 354.025V354.033C52.8645 353.594 53.0669 353.026 53.5794 353.009C54.4838 352.94 55.3882 353.28 56.2883 353.103C57.0592 352.983 57.2314 352.457 56.7491 351.859C56.4605 351.381 55.9911 350.855 55.5863 350.532C54.8456 349.934 54.0058 349.486 53.2004 348.982C53.1703 348.965 53.1358 348.943 53.1057 348.921C52.9592 348.822 52.83 348.736 52.7181 348.646C52.6362 348.581 52.563 348.512 52.4898 348.435C52.4683 348.405 52.4037 348.336 52.3908 348.306C53.8766 348.275 55.2288 347.561 56.5768 347.027C58.3167 346.566 60.0437 347.397 61.7836 347.25C62.7698 347.203 64.0661 346.493 63.7517 345.347C63.5149 344.559 62.6191 344.27 61.9817 343.865C60.7414 343.138 59.458 342.38 58.0325 342.121C57.4554 341.988 56.8611 341.828 56.2969 341.643C55.6121 341.415 54.8886 341.26 54.1909 341.045C53.4976 340.825 52.83 340.545 52.2616 340.058C52.1367 339.959 52.0032 339.83 51.8912 339.714C51.6069 339.369 51.159 338.792 51.1246 338.331C51.1246 338.318 51.1246 338.301 51.1246 338.288C51.7921 338.25 52.4941 338.172 53.0109 337.72C54.3546 337.987 56.1849 338.775 57.2874 337.599C57.9076 336.665 56.4003 335.644 55.8102 335.05C54.0402 333.62 52.2314 332.255 50.4269 330.877C48.9282 329.744 46.6155 328.314 45.2675 326.583C44.7679 325.937 44.4019 325.256 44.2598 324.529C44.2598 324.529 44.2598 324.529 44.2598 324.524V324.533C44.2468 324.378 44.2468 324.21 44.2985 324.063C44.2985 324.063 44.2985 324.055 44.2985 324.05C44.2985 324.05 44.2985 324.055 44.2985 324.059C44.4148 323.71 44.6043 323.684 44.9101 323.848C45.6767 324.218 46.5897 324.529 47.3993 324.102C47.9721 323.831 48.1917 323.211 48.5923 322.771C48.6569 322.702 48.7301 322.642 48.8076 322.591C48.9368 322.509 49.0875 322.461 49.2426 322.453H49.234C49.3546 322.453 49.4751 322.457 49.5957 322.479C49.6302 322.487 49.7034 322.504 49.7422 322.513C51.3184 323.146 52.9635 324.83 54.7637 323.921C55.8964 323.31 55.3365 322.134 54.8068 321.32C54.4106 320.661 53.9455 320.032 53.4588 319.434C51.2064 316.677 48.3597 314.511 46.0427 311.837C45.8188 311.587 45.5604 311.303 45.3063 311.001C44.5483 310.114 43.7645 309.05 43.6095 308.051C43.6095 307.935 43.6008 307.797 43.687 307.711C44.2468 307.724 44.7895 308.034 45.3623 307.987C46.3183 307.879 46.0255 307.112 45.5475 306.596C44.712 305.553 43.463 305.028 42.4983 304.115C42.3562 303.981 42.2184 303.839 42.0935 303.684C42.0203 303.594 41.9643 303.503 41.9256 303.413C41.805 303.129 41.8696 302.84 42.1495 302.586C42.4596 302.31 42.8127 302.099 43.0754 301.776C43.1314 301.729 43.196 301.682 43.2649 301.656C43.73 301.634 44.2296 301.811 44.6689 301.583C45.7972 300.975 43.5621 298.973 43.14 298.335C42.7912 297.844 42.4036 297.366 42.0375 296.871C41.5078 296.148 41.0298 295.394 40.7929 294.533C40.7584 294.369 40.7283 294.205 40.7412 294.037C40.7412 294.037 40.7412 294.033 40.7412 294.029V294.037C40.7455 293.917 40.7929 293.788 40.9049 293.732C40.9135 293.727 40.9178 293.723 40.9264 293.719C41.2882 293.598 41.7275 293.607 42.0074 293.322C42.7266 292.5 39.9962 290.411 39.4578 289.761C39.4105 289.718 39.3674 289.67 39.32 289.623C39.0702 289.377 38.8118 289.128 38.5707 288.869C38.4113 288.452 38.1443 287.922 38.4156 287.5L38.4372 287.483L38.463 287.47L38.4845 287.461C39.7378 287.775 43.2003 288.856 41.9988 286.294C41.258 285.14 40.1426 284.313 39.2296 283.301C38.7429 282.775 38.2606 282.216 37.761 281.699C36.8652 280.497 36.0986 279.179 35.7541 277.719C35.724 277.306 35.724 276.854 35.8833 276.483L35.9048 276.466C35.9436 276.475 35.9781 276.483 36.0168 276.492C37.0461 276.746 38.1658 277.19 39.165 276.608C39.6258 276.337 40.3709 275.79 39.9876 275.196C39.699 274.804 39.3674 274.446 39.0142 274.119C38.407 273.55 37.7222 273.055 37.0504 272.564C36.146 271.935 35.065 271.277 34.6947 270.165C34.5612 269.786 34.4621 269.373 34.5568 268.977C34.5568 268.973 34.5698 268.96 34.5698 268.951L34.5827 268.938C35.5172 268.951 36.4389 269.235 37.3691 269.063C39.3416 268.029 35.6723 265.6 34.8325 264.885C32.5543 262.917 33.0021 257.805 32.5887 254.976C32.4294 252.909 32.0116 250.897 31.3268 248.934C31.2536 249.222 31.2924 249.524 31.2278 249.812C31.2278 249.816 31.2278 249.821 31.2235 249.825C31.301 253.301 31.7489 256.737 32.4035 260.148C32.6619 262.258 32.4466 264.395 32.7179 266.513C32.7567 266.892 32.7954 267.276 32.8213 267.655C32.8256 267.728 32.8299 267.801 32.8342 267.874C32.8557 268.279 32.8729 268.68 32.9117 269.084C32.9505 269.485 33.0151 269.881 33.1313 270.273C33.1959 270.523 33.2605 270.773 33.3381 271.022C33.3338 271.01 33.3294 270.992 33.3208 270.979C33.5232 271.531 33.618 272.129 33.5232 272.715C33.3984 273.533 32.8729 274.205 32.5715 274.967C32.5586 274.998 32.5456 275.028 32.537 275.062C32.5284 275.079 32.5198 275.101 32.5155 275.122C32.5155 275.131 32.5155 275.135 32.5155 275.144C32.5155 275.204 32.4724 275.269 32.4595 275.329C32.425 275.428 32.3992 275.527 32.3777 275.631V275.635C32.3648 275.7 32.3561 275.768 32.3561 275.837C32.3561 275.837 32.3561 275.837 32.3561 275.842C32.3217 276.134 32.4983 276.363 32.5887 276.63C32.8686 277.594 32.9461 278.641 32.7782 279.632C32.8772 279.705 32.9849 279.774 33.0753 279.86C34.8411 281.341 33.9755 283.253 32.481 284.533C30.6163 285.846 28.3983 286.832 26.8565 288.559C26.8091 288.628 26.7618 288.701 26.7273 288.775C26.7359 288.762 26.7402 288.744 26.7489 288.732C26.2191 289.627 26.357 290.764 26.9599 291.587C27.9074 292.797 32.3949 290.088 32.7911 292.663C32.9117 292.715 32.8557 292.87 32.7437 292.892C32.6791 293.098 32.5026 293.271 32.326 293.396C32.0977 293.559 31.8695 293.723 31.624 293.861C31.4819 294.227 31.2622 294.571 30.9479 294.813C32.7523 297.956 39.0013 294.627 34.7291 302.384C34.3889 304.279 34.8583 306.217 35.0909 308.094C34.9918 309.322 34.2898 310.743 33.0667 311.182C31.2106 311.746 29.3329 312.229 27.4379 312.677C27.1537 312.965 26.8479 313.271 26.4603 313.413C26.7273 314.068 27.4379 314.029 27.9935 314.287C29.1606 314.752 29.4793 316.083 30.1468 317.018C31.0598 317.87 33.3897 317.677 34.643 317.849C35.9565 317.952 36.8265 319.468 36.1934 320.64C35.2244 323.073 32.5542 323.762 30.4095 324.808H30.4009L30.3923 324.817C29.686 325.196 28.7945 325.592 28.5361 326.415C29.2855 327.272 30.6335 327.289 31.6369 327.746C32.9418 327.672 34.2812 327.354 35.6206 327.608C36.7576 327.81 37.8342 327.84 38.9669 327.651C41.3399 327.849 39.8885 329.864 38.7042 330.635C38.7042 330.635 38.6999 330.64 38.6956 330.64C38.0969 331.101 37.494 331.557 36.8394 331.936C36.8265 331.945 36.8135 331.949 36.8006 331.958C36.146 332.332 35.4742 332.672 34.7506 332.896C33.5232 333.284 32.2829 333.62 31.034 333.917C31.0254 333.917 31.0125 333.921 30.9995 333.926H30.9952C29.6085 334.124 28.5964 335.063 27.3475 335.605C25.7196 336.329 23.7816 336.544 22.4034 337.733C22.2872 337.883 22.046 338 22.0589 338.206C24.9444 338.99 28.1184 337.772 30.9134 339.051C32.3303 339.309 33.3338 340.455 34.6947 340.799C36.3872 341.075 38.2218 340.778 39.6947 341.859C41.9902 343.904 43.0496 342.66 45.4096 343.443C47.3433 345.17 42.817 346.449 41.6672 346.906C41.7274 346.893 41.7834 346.876 41.8437 346.863C39.5052 347.483 37.2399 348.331 34.9143 348.995C32.9505 349.77 31.133 350.859 29.307 351.91C30.8531 351.962 32.3992 351.984 33.9195 352.263C35.444 352.354 37.0978 352.216 38.3639 353.232C39.2511 353.887 40.0651 354.654 41.0901 355.093C43.3468 356.049 48.8808 357.802 46.5122 361.066C44.0186 363.495 40.289 363.202 37.0719 363.345C32.7997 363.939 28.5103 364.408 24.2682 365.214C24.1132 365.377 24.2036 365.61 24.3414 365.752C27.4035 367.479 31.2192 366.997 34.5439 367.978C37.1452 369.296 47.0634 369.998 39.8583 373.422C39.8627 373.422 39.867 373.422 39.8713 373.418L39.7464 373.482V373.478C39.3157 373.633 38.9281 373.836 38.5793 374.124C39.2511 374.705 39.2468 375.705 39.1305 376.51C38.7817 377.479 37.9204 378.155 37.3346 378.982C36.0168 381.157 33.3294 381.101 31.2493 382.044C31.0426 382.156 30.8531 382.294 30.6593 382.427C29.6343 383.203 28.6266 384.017 27.4638 384.581C26.0684 385.36 24.4749 386.062 23.6825 387.539C23.2992 389.051 22.425 390.265 21.344 391.351C21.9469 391.213 22.5585 391.131 23.17 391.131C23.2432 391.131 23.3164 391.131 23.3853 391.131C24.9702 391.161 26.5034 391.708 27.9892 392.203C29.5654 392.806 31.2795 392.69 32.8772 393.228C35.3923 393.19 37.8687 392.686 40.345 392.277C42.171 391.975 44.01 391.764 45.8317 391.441C47.5242 391.123 49.221 390.774 50.9351 390.588H50.9265C52.0678 390.481 53.2306 390.395 54.3761 390.382C56.439 390.365 58.4244 391.006 60.4571 391.269C61.607 391.402 62.843 391.355 64.0274 391.458C64.9791 391.527 68.347 391.868 67.1669 390.08C66.1764 388.181 62.3262 387.048 60.6337 385.649C60.427 385.472 60.2504 385.283 60.1126 385.054C60.0523 384.938 59.9576 384.783 60.0308 384.658C60.5045 384.434 60.9998 384.292 61.5123 384.223C63.3211 384.081 65.2591 384.947 67.0894 384.533C67.7526 384.408 68.3254 383.874 68.3211 383.172C68.4374 381.794 66.3099 379.917 65.3237 379.021L65.3538 379.034Z" fill="#4286B8"/>
</g>
</g>
<g filter="url(#filter0_d_907_26554)">
<path d="M87.355 101.076L85.6918 101.691L85.0763 103.354L84.4609 101.691L82.7977 101.076L84.4609 100.46L85.0763 98.7969L85.6918 100.46L87.355 101.076Z" fill="#D9D9D9"/>
</g>
<circle opacity="0.2" cx="85.0764" cy="101.076" r="6.07639" transform="rotate(90 85.0764 101.076)" fill="url(#paint0_radial_907_26554)"/>
<g filter="url(#filter1_d_907_26554)">
<path d="M99.5979 41.0755L97.9347 41.691L97.3193 43.3542L96.7038 41.691L95.0406 41.0755L96.7038 40.4601L97.3193 38.7969L97.9347 40.4601L99.5979 41.0755Z" fill="#D9D9D9"/>
</g>
<circle opacity="0.2" cx="97.3194" cy="41.0764" r="6.07639" transform="rotate(90 97.3194 41.0764)" fill="url(#paint1_radial_907_26554)"/>
<path d="M229.481 66.1424C229.481 67.1551 231 67.1551 231 66.1424C231 65.1296 229.481 65.1296 229.481 66.1424Z" fill="#F7EDE5"/>
<path d="M152.767 50.947C152.767 51.9598 154.286 51.9598 154.286 50.947C154.286 49.9343 152.767 49.9343 152.767 50.947Z" fill="#F7EDE5"/>
<path d="M139.094 64.6228C139.094 65.6356 140.613 65.6356 140.613 64.6228C140.613 63.6101 139.094 63.6101 139.094 64.6228Z" fill="#F7EDE5"/>
<path d="M126.944 113.994C126.944 115.007 128.463 115.007 128.463 113.994C128.463 112.981 126.944 112.981 126.944 113.994Z" fill="#F7EDE5"/>
<path d="M32.0001 52.0903C32.0001 54.6221 35.7979 54.6221 35.7979 52.0903C35.7979 49.5584 32.0001 49.5584 32.0001 52.0903Z" fill="#F7EDE5"/>
<g filter="url(#filter2_d_907_26554)">
<path d="M288.016 16.8552L287.4 15.5309L285.993 15.1366L287.318 14.5204L287.712 13.114L288.328 14.4383L289.735 14.8325L288.41 15.4487L288.016 16.8552Z" fill="#D9D9D9"/>
</g>
<circle opacity="0.2" cx="287.863" cy="14.9836" r="5.00475" transform="rotate(175.353 287.863 14.9836)" fill="url(#paint2_radial_907_26554)"/>
<g filter="url(#filter3_d_907_26554)">
<path d="M338.089 22.9021L337.473 21.5778L336.067 21.1835L337.391 20.5673L337.785 19.1608L338.401 20.4851L339.808 20.8794L338.484 21.4956L338.089 22.9021Z" fill="#D9D9D9"/>
</g>
<circle opacity="0.2" cx="337.937" cy="21.0305" r="5.00475" transform="rotate(175.353 337.937 21.0305)" fill="url(#paint3_radial_907_26554)"/>
<path d="M326.18 131.198C325.348 131.266 325.45 132.513 326.281 132.445C327.112 132.378 327.011 131.131 326.18 131.198Z" fill="#F7EDE5"/>
<path d="M220.093 131.034C219.261 131.102 219.363 132.349 220.194 132.281C221.025 132.214 220.924 130.966 220.093 131.034Z" fill="#F7EDE5"/>
<path d="M333.532 67.206C332.701 67.2735 332.802 68.5206 333.634 68.453C334.465 68.3854 334.364 67.1384 333.532 67.206Z" fill="#F7EDE5"/>
<path d="M321.395 56.8974C320.564 56.9649 320.665 58.212 321.497 58.1444C322.328 58.0769 322.227 56.8298 321.395 56.8974Z" fill="#F7EDE5"/>
<path d="M280.053 50.2177C279.222 50.2853 279.323 51.5323 280.155 51.4648C280.986 51.3972 280.885 50.1501 280.053 50.2177Z" fill="#F7EDE5"/>
</g>
<defs>
<filter id="filter0_d_907_26554" x="78.7976" y="98.7969" width="12.5574" height="12.5586" filterUnits="userSpaceOnUse" color-interpolation-filters="sRGB">
<feFlood flood-opacity="0" result="BackgroundImageFix"/>
<feColorMatrix in="SourceAlpha" type="matrix" values="0 0 0 0 0 0 0 0 0 0 0 0 0 0 0 0 0 0 127 0" result="hardAlpha"/>
<feOffset dy="4"/>
<feGaussianBlur stdDeviation="2"/>
<feComposite in2="hardAlpha" operator="out"/>
<feColorMatrix type="matrix" values="0 0 0 0 0 0 0 0 0 0 0 0 0 0 0 0 0 0 0.25 0"/>
<feBlend mode="normal" in2="BackgroundImageFix" result="effect1_dropShadow_907_26554"/>
<feBlend mode="normal" in="SourceGraphic" in2="effect1_dropShadow_907_26554" result="shape"/>
</filter>
<filter id="filter1_d_907_26554" x="91.0405" y="38.7969" width="12.5574" height="12.5586" filterUnits="userSpaceOnUse" color-interpolation-filters="sRGB">
<feFlood flood-opacity="0" result="BackgroundImageFix"/>
<feColorMatrix in="SourceAlpha" type="matrix" values="0 0 0 0 0 0 0 0 0 0 0 0 0 0 0 0 0 0 127 0" result="hardAlpha"/>
<feOffset dy="4"/>
<feGaussianBlur stdDeviation="2"/>
<feComposite in2="hardAlpha" operator="out"/>
<feColorMatrix type="matrix" values="0 0 0 0 0 0 0 0 0 0 0 0 0 0 0 0 0 0 0.25 0"/>
<feBlend mode="normal" in2="BackgroundImageFix" result="effect1_dropShadow_907_26554"/>
<feBlend mode="normal" in="SourceGraphic" in2="effect1_dropShadow_907_26554" result="shape"/>
</filter>
<filter id="filter2_d_907_26554" x="281.993" y="13.1133" width="11.7412" height="11.7422" filterUnits="userSpaceOnUse" color-interpolation-filters="sRGB">
<feFlood flood-opacity="0" result="BackgroundImageFix"/>
<feColorMatrix in="SourceAlpha" type="matrix" values="0 0 0 0 0 0 0 0 0 0 0 0 0 0 0 0 0 0 127 0" result="hardAlpha"/>
<feOffset dy="4"/>
<feGaussianBlur stdDeviation="2"/>
<feComposite in2="hardAlpha" operator="out"/>
<feColorMatrix type="matrix" values="0 0 0 0 0 0 0 0 0 0 0 0 0 0 0 0 0 0 0.25 0"/>
<feBlend mode="normal" in2="BackgroundImageFix" result="effect1_dropShadow_907_26554"/>
<feBlend mode="normal" in="SourceGraphic" in2="effect1_dropShadow_907_26554" result="shape"/>
</filter>
<filter id="filter3_d_907_26554" x="332.067" y="19.1602" width="11.7412" height="11.7422" filterUnits="userSpaceOnUse" color-interpolation-filters="sRGB">
<feFlood flood-opacity="0" result="BackgroundImageFix"/>
<feColorMatrix in="SourceAlpha" type="matrix" values="0 0 0 0 0 0 0 0 0 0 0 0 0 0 0 0 0 0 127 0" result="hardAlpha"/>
<feOffset dy="4"/>
<feGaussianBlur stdDeviation="2"/>
<feComposite in2="hardAlpha" operator="out"/>
<feColorMatrix type="matrix" values="0 0 0 0 0 0 0 0 0 0 0 0 0 0 0 0 0 0 0.25 0"/>
<feBlend mode="normal" in2="BackgroundImageFix" result="effect1_dropShadow_907_26554"/>
<feBlend mode="normal" in="SourceGraphic" in2="effect1_dropShadow_907_26554" result="shape"/>
</filter>
<radialGradient id="paint0_radial_907_26554" cx="0" cy="0" r="1" gradientUnits="userSpaceOnUse" gradientTransform="translate(85.0764 101.076) rotate(90) scale(6.07639)">
<stop stop-color="white"/>
<stop offset="1" stop-color="white" stop-opacity="0"/>
</radialGradient>
<radialGradient id="paint1_radial_907_26554" cx="0" cy="0" r="1" gradientUnits="userSpaceOnUse" gradientTransform="translate(97.3194 41.0764) rotate(90) scale(6.07639)">
<stop stop-color="white"/>
<stop offset="1" stop-color="white" stop-opacity="0"/>
</radialGradient>
<radialGradient id="paint2_radial_907_26554" cx="0" cy="0" r="1" gradientUnits="userSpaceOnUse" gradientTransform="translate(287.863 14.9836) rotate(90) scale(5.00475)">
<stop stop-color="white"/>
<stop offset="1" stop-color="white" stop-opacity="0"/>
</radialGradient>
<radialGradient id="paint3_radial_907_26554" cx="0" cy="0" r="1" gradientUnits="userSpaceOnUse" gradientTransform="translate(337.937 21.0305) rotate(90) scale(5.00475)">
<stop stop-color="white"/>
<stop offset="1" stop-color="white" stop-opacity="0"/>
</radialGradient>
<clipPath id="clip0_907_26554">
<rect width="375" height="391" fill="white"/>
</clipPath>
</defs>
</svg>
