<svg viewBox="0 0 375 378" fill="none" xmlns="http://www.w3.org/2000/svg">
<mask id="mask0_990_8194" style="mask-type:luminance" maskUnits="userSpaceOnUse" x="-67" y="-40" width="646" height="431">
<path d="M579 -40H-67V391H579V-40Z" fill="white"/>
</mask>
<g mask="url(#mask0_990_8194)">
<path d="M588.23 138V350.604L156.094 400.121L94.0784 377.015L225.212 233.811L251.302 205.322L258.653 197.297C258.653 197.297 263.029 193.474 269.851 187.724C290.402 170.424 294.892 166.49 341.035 133.065C341.182 133.057 347.05 134.596 347.188 134.605C360.591 139.741 393.96 145.749 408.155 146.271C409.481 146.318 410.636 146.288 411.583 146.159C412.009 146.103 412.397 146.025 412.737 145.93C412.935 145.874 413.164 145.767 413.426 145.62C413.456 145.603 413.487 145.586 413.517 145.568C413.655 145.491 413.792 145.396 413.943 145.292C413.995 145.254 414.051 145.215 414.107 145.176C415.102 144.461 416.394 143.288 417.935 141.732C418.164 141.504 418.4 141.263 418.637 141.017C418.848 140.797 419.064 140.573 419.279 140.345C419.469 140.151 419.658 139.948 419.852 139.741C420.644 138.892 421.493 137.97 422.384 136.978C422.492 136.853 422.604 136.728 422.72 136.603C425.08 133.957 427.742 130.854 430.627 127.402C456.11 96.9429 499.047 39.8009 504.443 40.2922C505.27 40.3698 506.984 41.6843 509.379 43.9643C512.458 46.8865 516.661 51.3948 521.528 56.89C527.682 63.8291 534.904 72.3414 542.282 81.2114C564.547 107.976 588.225 138.009 588.225 138.009L588.23 138Z" fill="#EDF6FF"/>
<g style="mix-blend-mode:multiply" opacity="0.25">
<path d="M401.197 237.332L344.789 270.281L260.344 266.415V208.972C260.344 208.972 255.791 207.64 251.312 205.313L258.664 197.287C258.664 197.287 263.04 193.464 269.861 187.715C275.916 192.671 283.828 199.524 285.413 202.701C288.053 207.98 300.258 229.44 304.547 229.44C308.837 229.44 316.089 227.789 316.089 227.789L322.36 228.121C322.36 228.121 333.574 226.802 341.162 227.789C348.751 228.781 354.026 232.41 359.302 231.418C364.578 230.431 401.197 237.332 401.197 237.332Z" fill="#ADCAFF"/>
</g>
<path d="M320.926 265.033L320.844 265.102L276.666 301.017L260.607 319.395L256.132 324.515L228.035 291.725L226.326 289.734L213.38 274.623L161.049 271.839L79.5586 267.498L103.853 203.672L103.969 203.37C103.969 203.37 109.145 196.797 115.437 188.992C122.431 180.311 130.808 170.105 134.977 165.718C142.897 157.378 160.05 118.859 164.008 118.859C167.966 118.859 190.395 167.058 194.357 169.036C195.046 169.386 196.228 170.781 197.115 171.324C199.216 172.6 200.274 174.365 202.608 176.382C204.374 177.903 207.131 178.63 208.423 180.346C209.28 179.6 210.163 178.842 211.058 178.079C211.2 177.958 211.343 177.837 211.48 177.717C220.064 170.424 225.525 161.808 227.877 162.748C231.188 164.071 248.522 176.126 256.261 183.949C258.811 186.526 260.783 188.746 261.653 190.164C263.893 193.806 284.78 220.795 299.677 239.953C304.814 246.556 309.237 252.228 311.942 255.693C312.403 256.288 312.816 256.814 313.174 257.271C313.902 258.202 317.536 261.762 319.556 263.723C320.37 264.512 320.921 265.042 320.921 265.042L320.926 265.033Z" fill="#EAF5FF"/>
<g style="mix-blend-mode:multiply" opacity="0.25">
<path d="M320.848 265.104L276.67 301.02L260.611 319.398L228.044 291.727L226.27 290.223L226.334 289.736L229.017 269.406C229.017 269.406 246.119 263.398 254.228 262.143C262.338 260.894 278.828 263.066 283.449 262.143C287.631 261.312 308.126 256.575 311.951 255.691C312.411 256.286 312.825 256.812 313.182 257.269C313.91 258.2 317.545 261.76 319.565 263.721C319.991 264.182 320.418 264.648 320.848 265.109V265.104Z" fill="#1A7EBF"/>
</g>
<path d="M271.039 328.461C251.806 344.774 232.266 358.118 212.426 368.596C184.514 383.344 156.008 392.43 126.947 396.171C65.5726 404.071 1.70465 388.133 -64.3467 351.308C-68.3131 349.097 -72.2839 346.808 -76.2676 344.447L-122.978 264.763L-174.227 173.74C-174.227 173.74 -166.776 180.158 -157.896 188.239C-130.72 122.284 -37.1242 56.142 -31.9304 62.7277C-22.0337 75.2698 -8.83803 99.6989 -1.58128 106.302C5.67545 112.905 30.5598 155.709 69.6682 136.95C73.6261 139.976 84.8449 162.379 88.1438 165.707C88.385 165.948 88.7511 166.379 89.2291 166.965C95.2498 174.426 163.715 119.206 163.715 119.206L128.833 215.974L141.068 226.154C141.068 226.154 141.116 226.159 141.211 226.167C141.904 226.24 145.091 226.585 149.677 227.137C156.525 227.96 166.495 229.249 175.935 230.8C176.03 230.813 176.125 230.831 176.219 230.848C176.258 230.852 176.297 230.861 176.336 230.865C176.435 230.882 176.53 230.9 176.633 230.912C187.977 232.796 198.425 235.054 201.616 237.326C207.546 241.554 225.694 262.035 234.428 272.038C234.932 272.616 236.341 274.659 238.335 277.654C247.938 292.067 271.035 328.452 271.035 328.452L271.039 328.461Z" fill="#EAF5FF"/>
<path d="M596.81 131.391L593.511 326.483L583.321 327.155L401.192 339.163L161.539 383.62C161.539 383.62 179.356 370.147 203.589 351.882C253.934 313.936 331.984 255.303 335.546 253.795C339.624 252.066 354.318 250.885 364.146 248.911C367.045 248.334 369.521 247.683 371.17 246.933C377.195 244.196 395.938 226.9 408.173 221.664C410.68 220.59 412.915 220.021 414.711 220.194C415.456 220.263 416.347 220.284 417.351 220.258H417.368C418.759 220.22 420.378 220.095 422.166 219.896C437.269 218.211 464.315 211.242 468.148 207.367C469.431 206.074 472.937 202.639 477.455 198.213C477.455 198.213 477.455 198.213 477.459 198.209C489.242 186.671 507.877 168.379 511.693 163.664C512.158 163.086 513.213 162.358 514.737 161.513C530.47 152.79 596.801 131.391 596.801 131.391H596.81Z" fill="#A5C4FF"/>
<path d="M141.07 226.16C141.07 226.16 141.113 226.208 141.191 226.298L141.07 227.133V226.16Z" fill="#7AB0D8"/>
<path d="M176.049 230.826C176.011 230.818 175.976 230.813 175.941 230.805C176.036 230.818 176.132 230.835 176.227 230.852C176.166 230.844 176.106 230.831 176.049 230.826Z" fill="#C9E5FF"/>
<path d="M124.316 360.932C124.191 359.057 123.666 357.182 122.628 355.605C121.973 354.734 121.224 353.945 120.664 353.001C119.488 351.239 118.14 349.584 116.478 348.256C115.819 347.678 115.044 347.247 114.381 346.674C113.726 346.127 113.192 345.437 112.473 344.976C112.482 344.985 112.494 344.989 112.503 344.998C112.464 344.972 112.43 344.942 112.395 344.911C112.322 344.834 112.279 344.735 112.253 344.631C112.253 344.644 112.258 344.657 112.262 344.67C112.245 344.588 112.232 344.502 112.232 344.416C112.232 344.429 112.232 344.442 112.232 344.455C112.232 344.381 112.24 344.312 112.253 344.239C112.266 344.174 112.283 344.114 112.305 344.049C112.322 343.998 112.348 343.946 112.374 343.899C112.555 343.567 112.852 343.312 112.994 342.959C113.27 342.015 112.792 341.045 112.55 340.14C111.853 337.834 110.655 335.718 109.902 333.434C109.527 332.477 109.144 331.525 108.735 330.581C108.442 329.951 108.037 329.318 108.076 328.598C108.244 327.689 109.26 327.115 109.234 326.128C109.144 324.034 108.046 322.137 107.533 320.129C106.84 318.146 106.383 316.095 105.798 314.078C105.393 312.742 104.846 311.457 104.342 310.156C104.01 309.509 103.45 307.492 102.783 307.311C102.128 307.152 101.861 307.897 101.629 308.371C101.568 308.501 101.508 308.634 101.448 308.763C100.978 309.798 100.531 310.845 100.074 311.888C99.1997 313.927 98.2264 315.927 97.4857 318.021C96.7019 320.388 95.6381 322.655 94.906 325.042C94.5227 326.447 93.8552 328.318 95.7802 328.831C95.7673 328.827 95.7544 328.822 95.7415 328.818C95.8836 328.835 95.9051 328.947 95.875 329.072C95.875 329.059 95.875 329.046 95.875 329.033C95.0223 331.555 93.6872 333.917 92.6536 336.373C91.2669 339.511 89.4968 342.468 88.1704 345.631C86.8439 348.661 89.3202 347.842 88.0713 350.924C87.1152 353.312 85.7802 355.523 84.6044 357.807C83.7388 359.591 82.5372 361.44 82.8301 363.513C83.1962 366.642 87.4038 368.642 89.8801 370.026C91.1764 370.707 92.4383 371.461 93.7863 372.043C95.1256 372.642 96.5511 373.026 97.9508 373.461C100.1 374.168 102.309 374.629 104.549 374.883C106.004 375.051 107.473 375.129 108.946 375.129C111.301 375.271 113.567 374.543 115.647 373.482C117.753 372.539 119.432 370.935 120.884 369.168C121.5 368.423 122.124 367.673 122.576 366.815C123.059 365.91 123.356 364.923 123.683 363.957C123.989 362.983 124.372 361.988 124.312 360.949L124.316 360.932Z" fill="#70A1FF"/>
<path d="M368.124 342.691C368.025 341.234 367.62 339.781 366.815 338.553C366.307 337.876 365.725 337.264 365.29 336.532C364.377 335.165 363.331 333.877 362.039 332.846C361.526 332.398 360.923 332.062 360.411 331.618C359.903 331.196 359.489 330.657 358.929 330.299C358.938 330.304 358.946 330.312 358.955 330.317C358.925 330.295 358.895 330.273 358.869 330.252C358.813 330.192 358.778 330.114 358.757 330.032C358.757 330.041 358.757 330.054 358.761 330.062C358.748 329.998 358.74 329.933 358.74 329.868C358.74 329.877 358.74 329.89 358.74 329.898C358.74 329.842 358.748 329.786 358.757 329.735C358.766 329.687 358.783 329.636 358.796 329.588C358.809 329.549 358.826 329.506 358.847 329.467C358.99 329.209 359.218 329.011 359.33 328.739C359.545 328.006 359.175 327.252 358.985 326.55C358.443 324.757 357.517 323.119 356.927 321.343C356.634 320.602 356.337 319.86 356.018 319.128C355.794 318.636 355.475 318.145 355.505 317.589C355.639 316.882 356.423 316.438 356.406 315.671C356.337 314.042 355.48 312.572 355.088 311.012C354.549 309.469 354.196 307.879 353.74 306.314C353.425 305.275 352.999 304.28 352.611 303.267C352.357 302.763 351.918 301.198 351.401 301.06C350.893 300.935 350.686 301.517 350.505 301.883C350.458 301.983 350.411 302.086 350.368 302.189C350.002 302.991 349.653 303.806 349.3 304.616C348.623 306.202 347.865 307.754 347.288 309.379C346.681 311.219 345.854 312.977 345.286 314.831C344.989 315.921 344.467 317.378 345.966 317.77C345.958 317.77 345.949 317.761 345.936 317.757C346.048 317.77 346.061 317.856 346.039 317.951C346.039 317.943 346.039 317.93 346.039 317.921C345.376 319.882 344.343 321.714 343.537 323.623C342.461 326.058 341.087 328.355 340.057 330.812C339.028 333.165 340.953 332.528 339.98 334.92C339.239 336.773 338.201 338.493 337.288 340.264C336.616 341.652 335.682 343.087 335.91 344.695C336.194 347.126 339.463 348.677 341.384 349.75C342.392 350.28 343.374 350.867 344.42 351.315C345.462 351.78 346.565 352.078 347.654 352.414C349.325 352.961 351.039 353.323 352.775 353.522C353.908 353.651 355.045 353.711 356.186 353.711C358.016 353.819 359.773 353.254 361.388 352.431C363.025 351.698 364.33 350.453 365.458 349.082C365.936 348.505 366.423 347.923 366.772 347.255C367.146 346.552 367.375 345.785 367.629 345.035C367.866 344.277 368.163 343.505 368.12 342.699L368.124 342.691Z" fill="#85AFFF"/>
<path d="M9.43782 278.297H6.03125V292.382H9.43782V278.297Z" fill="#6F828C"/>
<path d="M33.5316 278.297H30.125V292.382H33.5316V278.297Z" fill="#6F828C"/>
<path d="M57.6217 278.297H54.2151V292.382H57.6217V278.297Z" fill="#6F828C"/>
<path d="M81.7152 278.297H78.3086V292.382H81.7152V278.297Z" fill="#6F828C"/>
<path d="M105.805 278.297H102.398V292.382H105.805V278.297Z" fill="#6F828C"/>
<path d="M129.895 278.297H126.488V292.382H129.895V278.297Z" fill="#6F828C"/>
<path d="M153.981 278.297H150.574V292.382H153.981V278.297Z" fill="#6F828C"/>
<path d="M178.075 278.297H174.668V292.382H178.075V278.297Z" fill="#6F828C"/>
<path d="M202.168 278.297H198.762V292.382H202.168V278.297Z" fill="#6F828C"/>
<path d="M226.258 278.297H222.852V292.382H226.258V278.297Z" fill="#6F828C"/>
<path d="M250.352 278.297H246.945V292.382H250.352V278.297Z" fill="#6F828C"/>
<path d="M274.442 278.297H271.035V292.382H274.442V278.297Z" fill="#6F828C"/>
<path d="M298.532 278.297H295.125V292.382H298.532V278.297Z" fill="#6F828C"/>
<path d="M322.625 278.297H319.219V292.382H322.625V278.297Z" fill="#6F828C"/>
<path d="M346.715 278.297H343.309V292.382H346.715V278.297Z" fill="#6F828C"/>
<path d="M370.805 278.297H367.398V292.382H370.805V278.297Z" fill="#6F828C"/>
<g style="mix-blend-mode:multiply" opacity="0.15">
<path d="M9.43782 278.297H6.03125V284.296H9.43782V278.297Z" fill="#3E484E"/>
<path d="M33.5316 278.297H30.125V284.296H33.5316V278.297Z" fill="#3E484E"/>
<path d="M57.6217 278.297H54.2151V284.296H57.6217V278.297Z" fill="#3E484E"/>
<path d="M81.7152 278.297H78.3086V284.296H81.7152V278.297Z" fill="#3E484E"/>
<path d="M105.805 278.297H102.398V284.296H105.805V278.297Z" fill="#3E484E"/>
<path d="M129.895 278.297H126.488V284.296H129.895V278.297Z" fill="#3E484E"/>
<path d="M153.981 278.297H150.574V284.296H153.981V278.297Z" fill="#3E484E"/>
<path d="M178.075 278.297H174.668V284.296H178.075V278.297Z" fill="#3E484E"/>
<path d="M202.168 278.297H198.762V284.296H202.168V278.297Z" fill="#3E484E"/>
<path d="M226.258 278.297H222.852V284.296H226.258V278.297Z" fill="#3E484E"/>
<path d="M250.352 278.297H246.945V284.296H250.352V278.297Z" fill="#3E484E"/>
<path d="M274.442 278.297H271.035V284.296H274.442V278.297Z" fill="#3E484E"/>
<path d="M298.532 278.297H295.125V284.296H298.532V278.297Z" fill="#3E484E"/>
<path d="M322.625 278.297H319.219V284.296H322.625V278.297Z" fill="#3E484E"/>
<path d="M346.715 278.297H343.309V284.296H346.715V278.297Z" fill="#3E484E"/>
<path d="M370.805 278.297H367.398V284.296H370.805V278.297Z" fill="#3E484E"/>
</g>
<path d="M658.298 288.512H-147.535V298.52H658.298V288.512Z" fill="#60717A"/>
<path d="M664.923 278.262H-140.91V281.52H664.923V278.262Z" fill="#8FA9B5"/>
<path d="M7.25896 298.266H-70.5625V303.265H7.25896V298.266Z" fill="#6F828C"/>
<path d="M7.05975 298.266H-70.7617V303.265H7.05975V298.266Z" fill="#6F828C"/>
<path d="M2.88531 303.27L0.787956 304.808L-10.8702 313.385H-52.6405L-64.4667 304.808L-66.5898 303.27H2.88531Z" fill="#60717A"/>
<path d="M202.584 300.289H173.359V504.691H202.584V300.289Z" fill="#758A94"/>
<path d="M209.156 313.605H167.184V324.484H209.156V313.605Z" fill="#6F828C"/>
<path d="M206.047 324.48H170.289V328.433H206.047V324.48Z" fill="#60717A"/>
<path d="M227.083 298.492H149.262V303.492H227.083V298.492Z" fill="#6F828C"/>
<path d="M208.957 313.605H166.988V324.484H208.957V313.605Z" fill="#8FA9B5"/>
<path d="M226.884 298.492H149.062V303.492H226.884V298.492Z" fill="#8FA9B5"/>
<path d="M222.71 303.496L220.612 305.035L208.954 313.612H167.184L155.358 305.035L153.234 303.496H222.71Z" fill="#60717A"/>
<g style="mix-blend-mode:multiply" opacity="0.15">
<path d="M206.047 324.48H170.289V325.86H206.047V324.48Z" fill="#3E484E"/>
</g>
<g style="mix-blend-mode:multiply" opacity="0.15">
<path d="M209.157 313.605H200.953V324.484H209.157V313.605Z" fill="#3E484E"/>
</g>
<path d="M448.282 298.508H370.461V303.507H448.282V298.508Z" fill="#6F828C"/>
<path d="M448.083 298.508H370.262V303.507H448.083V298.508Z" fill="#8FA9B5"/>
<path d="M443.909 303.504L441.811 305.047L430.153 313.619H388.383L376.557 305.047L374.434 303.504H443.909Z" fill="#60717A"/>
<g style="mix-blend-mode:multiply" opacity="0.15">
<path d="M435.937 303.504H374.434L376.557 305.047H433.84L422.182 313.619H430.153L441.811 305.047L443.909 303.504H435.937Z" fill="#3E484E"/>
</g>
<rect x="86.4922" y="251.047" width="1.73905" height="12.0245" fill="#233498"/>
<rect x="148.781" y="251.047" width="1.73905" height="12.0245" fill="#233498"/>
<path d="M110.516 271.344L111.853 275.567H126.31L128.36 271.344H110.516Z" fill="#6E88D4"/>
<rect x="88.2344" y="242.797" width="60.5563" height="28.4438" rx="8" fill="#E80024"/>
<path d="M144.273 243.906H134.959C133.782 243.906 132.818 244.564 132.818 245.379V271.436H146.414V245.379C146.414 244.569 145.458 243.906 144.273 243.906Z" fill="#FF6353"/>
<path d="M138.195 271.875H134.559V275.351H138.195V271.875Z" fill="#4D62A0"/>
<path d="M102.351 245.309H91.879C91.4712 245.309 91.1406 245.639 91.1406 246.047V252.095C91.1406 252.503 91.4712 252.833 91.879 252.833H102.351C102.759 252.833 103.09 252.503 103.09 252.095V246.047C103.09 245.639 102.759 245.309 102.351 245.309Z" fill="#0B1E8D"/>
<path d="M116.523 245.309H106.051C105.643 245.309 105.312 245.639 105.312 246.047V252.095C105.312 252.503 105.643 252.833 106.051 252.833H116.523C116.931 252.833 117.262 252.503 117.262 252.095V246.047C117.262 245.639 116.931 245.309 116.523 245.309Z" fill="#0B1E8D"/>
<path d="M130.687 245.309H120.215C119.807 245.309 119.477 245.639 119.477 246.047V252.095C119.477 252.503 119.807 252.833 120.215 252.833H130.687C131.095 252.833 131.426 252.503 131.426 252.095V246.047C131.426 245.639 131.095 245.309 130.687 245.309Z" fill="#0B1E8D"/>
<path d="M144.855 245.309H134.383C133.975 245.309 133.645 245.639 133.645 246.047V252.095C133.645 252.503 133.975 252.833 134.383 252.833H144.855C145.263 252.833 145.594 252.503 145.594 252.095V246.047C145.594 245.639 145.263 245.309 144.855 245.309Z" fill="#0B1E8D"/>
<path d="M99.8406 274.717C99.8406 276.497 98.3987 277.939 96.6176 277.939C94.8364 277.939 93.3945 276.497 93.3945 274.717C93.3945 272.937 94.8364 271.496 96.6176 271.496C98.3987 271.496 99.8406 272.937 99.8406 274.717Z" fill="#2238B3"/>
<path d="M98.7226 274.718C98.7226 275.879 97.7797 276.822 96.6172 276.822C95.4547 276.822 94.5117 275.879 94.5117 274.718C94.5117 273.556 95.4547 272.613 96.6172 272.613C97.7797 272.613 98.7226 273.556 98.7226 274.718Z" fill="#4D62A0"/>
<path d="M110.317 274.717C110.317 276.497 108.875 277.939 107.094 277.939C105.313 277.939 103.871 276.497 103.871 274.717C103.871 272.937 105.313 271.496 107.094 271.496C108.875 271.496 110.317 272.937 110.317 274.717Z" fill="#2238B3"/>
<path d="M109.207 274.718C109.207 275.879 108.264 276.822 107.102 276.822C105.939 276.822 104.996 275.879 104.996 274.718C104.996 273.556 105.939 272.613 107.102 272.613C108.264 272.613 109.207 273.556 109.207 274.718Z" fill="#4D62A0"/>
<path d="M103.728 271.871H99.9336V275.348H103.728V271.871Z" fill="#4D62A0"/>
<path d="M106.846 275.878H96.3285C95.6599 275.878 95.1211 275.34 95.1211 274.672C95.1211 274.003 95.6599 273.465 96.3285 273.465H106.846C107.514 273.465 108.053 274.003 108.053 274.672C108.053 275.34 107.514 275.878 106.846 275.878Z" fill="#738BD3"/>
<path d="M134.38 274.721C134.38 276.501 132.938 277.942 131.157 277.942C129.375 277.942 127.934 276.501 127.934 274.721C127.934 272.941 129.375 271.5 131.157 271.5C132.938 271.5 134.38 272.941 134.38 274.721Z" fill="#2238B3"/>
<path d="M133.262 274.721C133.262 275.883 132.319 276.826 131.156 276.826C129.994 276.826 129.051 275.883 129.051 274.721C129.051 273.56 129.994 272.617 131.156 272.617C132.319 272.617 133.262 273.56 133.262 274.721Z" fill="#4D62A0"/>
<path d="M144.856 274.721C144.856 276.501 143.414 277.942 141.633 277.942C139.852 277.942 138.41 276.501 138.41 274.721C138.41 272.941 139.852 271.5 141.633 271.5C143.414 271.5 144.856 272.941 144.856 274.721Z" fill="#2238B3"/>
<path d="M143.746 274.721C143.746 275.883 142.803 276.826 141.641 276.826C140.478 276.826 139.535 275.883 139.535 274.721C139.535 273.56 140.478 272.617 141.641 272.617C142.803 272.617 143.746 273.56 143.746 274.721Z" fill="#4D62A0"/>
<path d="M141.385 275.726H130.868C130.199 275.726 129.66 275.187 129.66 274.519C129.66 273.851 130.199 273.312 130.868 273.312H141.385C142.053 273.312 142.592 273.851 142.592 274.519C142.592 275.187 142.053 275.726 141.385 275.726Z" fill="#738BD3"/>
<path opacity="0.1" d="M96.5689 245.306L91.1406 250.731V252.087C91.1406 252.496 91.4699 252.825 91.879 252.825H93.6203L101.149 245.301H96.5689V245.306Z" fill="white"/>
<path opacity="0.1" d="M94.1541 245.309H91.879C91.4699 245.309 91.1406 245.638 91.1406 246.047V248.32L94.1541 245.309Z" fill="white"/>
<path opacity="0.1" d="M125.424 245.309H120.839L119.477 246.67V251.252L125.424 245.309Z" fill="white"/>
<path opacity="0.1" d="M117.262 246.054C117.262 245.646 116.932 245.316 116.523 245.316H109.259L105.312 249.261V252.103C105.312 252.512 105.642 252.841 106.051 252.841H110.895L117.262 246.478V246.054Z" fill="white"/>
<path opacity="0.1" d="M117.26 252.094V248.883L113.309 252.832H116.522C116.931 252.832 117.26 252.503 117.26 252.094Z" fill="white"/>
<path opacity="0.1" d="M103.09 251.469L101.723 252.835H102.346C102.755 252.835 103.085 252.506 103.085 252.097V251.474L103.09 251.469Z" fill="white"/>
<path opacity="0.1" d="M134.387 245.309C133.978 245.309 133.648 245.638 133.648 246.047V252.095C133.648 252.504 133.978 252.833 134.387 252.833H135.36L142.888 245.309H134.387Z" fill="white"/>
<path opacity="0.1" d="M145.595 249.596V246.051C145.595 245.771 145.436 245.532 145.211 245.402L137.777 252.832H142.357L145.595 249.596Z" fill="white"/>
<path opacity="0.1" d="M131.43 247.598L126.191 252.833H130.687C131.096 252.833 131.425 252.504 131.425 252.095V247.603L131.43 247.598Z" fill="white"/>
<path d="M48.2227 271.344L49.5598 275.567H64.0167L66.0673 271.344H48.2227Z" fill="#6E88D4"/>
<rect x="25.9414" y="242.812" width="60.5563" height="28.4438" rx="8" fill="#E80024"/>
<path d="M81.9804 243.898H72.6661C71.489 243.898 70.5252 244.556 70.5252 245.371V271.428H84.1213V245.371C84.1213 244.562 83.1649 243.898 81.9804 243.898Z" fill="#FF6353"/>
<path d="M75.9061 271.875H72.2695V275.351H75.9061V271.875Z" fill="#4D62A0"/>
<path d="M40.0623 245.309H29.59C29.1822 245.309 28.8516 245.639 28.8516 246.047V252.095C28.8516 252.503 29.1822 252.833 29.59 252.833H40.0623C40.4702 252.833 40.8007 252.503 40.8007 252.095V246.047C40.8007 245.639 40.4702 245.309 40.0623 245.309Z" fill="#0B1E8D"/>
<path d="M54.2303 245.309H43.7579C43.3501 245.309 43.0195 245.639 43.0195 246.047V252.095C43.0195 252.503 43.3501 252.833 43.7579 252.833H54.2303C54.6381 252.833 54.9687 252.503 54.9687 252.095V246.047C54.9687 245.639 54.6381 245.309 54.2303 245.309Z" fill="#0B1E8D"/>
<path d="M68.3983 245.309H57.9259C57.5181 245.309 57.1875 245.639 57.1875 246.047V252.095C57.1875 252.503 57.5181 252.833 57.9259 252.833H68.3983C68.8061 252.833 69.1367 252.503 69.1367 252.095V246.047C69.1367 245.639 68.8061 245.309 68.3983 245.309Z" fill="#0B1E8D"/>
<path d="M82.5663 245.309H72.0939C71.6861 245.309 71.3555 245.639 71.3555 246.047V252.095C71.3555 252.503 71.6861 252.833 72.0939 252.833H82.5663C82.9741 252.833 83.3047 252.503 83.3047 252.095V246.047C83.3047 245.639 82.9741 245.309 82.5663 245.309Z" fill="#0B1E8D"/>
<path d="M37.5516 274.717C37.5516 276.497 36.1097 277.939 34.3285 277.939C32.5474 277.939 31.1055 276.497 31.1055 274.717C31.1055 272.937 32.5474 271.496 34.3285 271.496C36.1097 271.496 37.5516 272.937 37.5516 274.717Z" fill="#2238B3"/>
<path d="M36.4336 274.718C36.4336 275.879 35.4906 276.822 34.3281 276.822C33.1656 276.822 32.2227 275.879 32.2227 274.718C32.2227 273.556 33.1656 272.613 34.3281 272.613C35.4906 272.613 36.4336 273.556 36.4336 274.718Z" fill="#4D62A0"/>
<path d="M48.0281 274.717C48.0281 276.497 46.5862 277.939 44.8051 277.939C43.0239 277.939 41.582 276.497 41.582 274.717C41.582 272.937 43.0239 271.496 44.8051 271.496C46.5862 271.496 48.0281 272.937 48.0281 274.717Z" fill="#2238B3"/>
<path d="M46.9179 274.718C46.9179 275.879 45.975 276.822 44.8125 276.822C43.65 276.822 42.707 275.879 42.707 274.718C42.707 273.556 43.65 272.613 44.8125 272.613C45.975 272.613 46.9179 273.556 46.9179 274.718Z" fill="#4D62A0"/>
<path d="M41.4392 271.871H37.6445V275.348H41.4392V271.871Z" fill="#4D62A0"/>
<path d="M44.5567 275.878H34.0394C33.3709 275.878 32.832 275.34 32.832 274.672C32.832 274.003 33.3709 273.465 34.0394 273.465H44.5567C45.2253 273.465 45.7641 274.003 45.7641 274.672C45.7641 275.34 45.2253 275.878 44.5567 275.878Z" fill="#738BD3"/>
<path d="M72.0867 274.721C72.0867 276.501 70.6448 277.942 68.8637 277.942C67.0825 277.942 65.6406 276.501 65.6406 274.721C65.6406 272.941 67.0825 271.5 68.8637 271.5C70.6448 271.5 72.0867 272.941 72.0867 274.721Z" fill="#2238B3"/>
<path d="M70.9726 274.721C70.9726 275.883 70.0297 276.826 68.8672 276.826C67.7047 276.826 66.7617 275.883 66.7617 274.721C66.7617 273.56 67.7047 272.617 68.8672 272.617C70.0297 272.617 70.9726 273.56 70.9726 274.721Z" fill="#4D62A0"/>
<path d="M82.5672 274.721C82.5672 276.501 81.1253 277.942 79.3441 277.942C77.563 277.942 76.1211 276.501 76.1211 274.721C76.1211 272.941 77.563 271.5 79.3441 271.5C81.1253 271.5 82.5672 272.941 82.5672 274.721Z" fill="#2238B3"/>
<path d="M81.4531 274.721C81.4531 275.883 80.5101 276.826 79.3476 276.826C78.1852 276.826 77.2422 275.883 77.2422 274.721C77.2422 273.56 78.1852 272.617 79.3476 272.617C80.5101 272.617 81.4531 273.56 81.4531 274.721Z" fill="#4D62A0"/>
<path d="M79.0958 275.726H68.5785C67.9099 275.726 67.3711 275.187 67.3711 274.519C67.3711 273.851 67.9099 273.312 68.5785 273.312H79.0958C79.7643 273.312 80.3032 273.851 80.3032 274.519C80.3032 275.187 79.7643 275.726 79.0958 275.726Z" fill="#738BD3"/>
<path opacity="0.1" d="M34.2798 245.306L28.8516 250.731V252.087C28.8516 252.496 29.1808 252.825 29.59 252.825H31.3312L38.8599 245.301H34.2798V245.306Z" fill="white"/>
<path opacity="0.1" d="M31.865 245.309H29.59C29.1808 245.309 28.8516 245.638 28.8516 246.047V248.32L31.865 245.309Z" fill="white"/>
<path opacity="0.1" d="M63.1347 245.309H58.5496L57.1875 246.67V251.252L63.1347 245.309Z" fill="white"/>
<path opacity="0.1" d="M54.9687 246.054C54.9687 245.646 54.6394 245.316 54.2303 245.316H46.966L43.0195 249.261V252.103C43.0195 252.512 43.3488 252.841 43.7579 252.841H48.6025L54.9687 246.478V246.054Z" fill="white"/>
<path opacity="0.1" d="M54.9671 252.094V248.883L51.0156 252.832H54.2287C54.6378 252.832 54.9671 252.503 54.9671 252.094Z" fill="white"/>
<path opacity="0.1" d="M40.8005 251.469L39.4336 252.835H40.0572C40.4663 252.835 40.7955 252.506 40.7955 252.097V251.474L40.8005 251.469Z" fill="white"/>
<path opacity="0.1" d="M72.0939 245.301C71.6848 245.301 71.3555 245.63 71.3555 246.039V252.087C71.3555 252.496 71.6848 252.825 72.0939 252.825H73.0668L80.5955 245.301H72.0939Z" fill="white"/>
<path opacity="0.1" d="M83.3025 249.588V246.043C83.3025 245.764 83.1428 245.524 82.9183 245.395L75.4844 252.824H80.0645L83.3025 249.588Z" fill="white"/>
<path opacity="0.1" d="M69.141 247.598L63.9023 252.833H68.3976C68.8068 252.833 69.136 252.504 69.136 252.095V247.603L69.141 247.598Z" fill="white"/>
<rect x="24.2031" y="251.047" width="1.73905" height="12.0245" fill="#233498"/>
<path d="M-14.0703 271.344L-12.7332 275.567H1.72375L3.77433 271.344H-14.0703Z" fill="#6E88D4"/>
<rect x="-36.3516" y="242.812" width="60.5563" height="28.4438" rx="8" fill="#E80024"/>
<path d="M19.6874 243.898H10.3731C9.19599 243.898 8.23219 244.556 8.23219 245.371V271.428H21.8284V245.371C21.8284 244.562 20.8719 243.898 19.6874 243.898Z" fill="#FF6353"/>
<path d="M13.6131 271.875H9.97656V275.351H13.6131V271.875Z" fill="#4D62A0"/>
<path d="M6.10532 245.309H-4.36706C-4.77487 245.309 -5.10547 245.639 -5.10547 246.047V252.095C-5.10547 252.503 -4.77487 252.833 -4.36706 252.833H6.10532C6.51312 252.833 6.84373 252.503 6.84373 252.095V246.047C6.84373 245.639 6.51312 245.309 6.10532 245.309Z" fill="#0B1E8D"/>
<path d="M20.2733 245.309H9.80091C9.3931 245.309 9.0625 245.639 9.0625 246.047V252.095C9.0625 252.503 9.3931 252.833 9.80091 252.833H20.2733C20.6811 252.833 21.0117 252.503 21.0117 252.095V246.047C21.0117 245.639 20.6811 245.309 20.2733 245.309Z" fill="#0B1E8D"/>
<path d="M9.79374 274.721C9.79374 276.501 8.35184 277.942 6.57069 277.942C4.78954 277.942 3.34766 276.501 3.34766 274.721C3.34766 272.941 4.78954 271.5 6.57069 271.5C8.35184 271.5 9.79374 272.941 9.79374 274.721Z" fill="#2238B3"/>
<path d="M8.67965 274.721C8.67965 275.883 7.73669 276.826 6.5742 276.826C5.41171 276.826 4.46875 275.883 4.46875 274.721C4.46875 273.56 5.41171 272.617 6.5742 272.617C7.73669 272.617 8.67965 273.56 8.67965 274.721Z" fill="#4D62A0"/>
<path d="M20.2742 274.721C20.2742 276.501 18.8323 277.942 17.0512 277.942C15.27 277.942 13.8281 276.501 13.8281 274.721C13.8281 272.941 15.27 271.5 17.0512 271.5C18.8323 271.5 20.2742 272.941 20.2742 274.721Z" fill="#2238B3"/>
<path d="M19.1601 274.721C19.1601 275.883 18.2172 276.826 17.0547 276.826C15.8922 276.826 14.9492 275.883 14.9492 274.721C14.9492 273.56 15.8922 272.617 17.0547 272.617C18.2172 272.617 19.1601 273.56 19.1601 274.721Z" fill="#4D62A0"/>
<path d="M16.8028 275.726H6.28552C5.61697 275.726 5.07812 275.187 5.07812 274.519C5.07812 273.851 5.61697 273.312 6.28552 273.312H16.8028C17.4714 273.312 18.0102 273.851 18.0102 274.519C18.0102 275.187 17.4714 275.726 16.8028 275.726Z" fill="#738BD3"/>
<path opacity="0.1" d="M0.84169 245.309H-3.74341L-5.10547 246.67V251.252L0.84169 245.309Z" fill="white"/>
<path opacity="0.1" d="M9.80091 245.301C9.39179 245.301 9.0625 245.63 9.0625 246.039V252.087C9.0625 252.496 9.39179 252.825 9.80091 252.825H10.7738L18.3025 245.301H9.80091Z" fill="white"/>
<path opacity="0.1" d="M21.0095 249.588V246.043C21.0095 245.764 20.8499 245.524 20.6253 245.395L13.1914 252.824H17.7715L21.0095 249.588Z" fill="white"/>
<path opacity="0.1" d="M6.84806 247.598L1.60938 252.833H6.10467C6.51378 252.833 6.84308 252.504 6.84308 252.095V247.603L6.84806 247.598Z" fill="white"/>
<path d="M160.886 271.402H164.641V275.292H160.886V271.402Z" fill="#4D62A0"/>
<path d="M164.767 274.658C164.767 276.461 166.223 277.921 168.022 277.921C169.821 277.921 171.277 276.461 171.277 274.658C171.277 272.854 169.821 271.395 168.022 271.395C166.223 271.395 164.767 272.854 164.767 274.658Z" fill="#0B1E8D"/>
<path d="M165.895 274.659C165.895 275.836 166.848 276.791 168.022 276.791C169.196 276.791 170.148 275.836 170.148 274.659C170.148 273.482 169.196 272.527 168.022 272.527C166.848 272.527 165.895 273.482 165.895 274.659Z" fill="#4D62A0"/>
<path d="M154.185 274.658C154.185 276.461 155.641 277.921 157.44 277.921C159.239 277.921 160.695 276.461 160.695 274.658C160.695 272.854 159.239 271.395 157.44 271.395C155.641 271.395 154.185 272.854 154.185 274.658Z" fill="#0B1E8D"/>
<path d="M155.306 274.659C155.306 275.836 156.258 276.791 157.432 276.791C158.606 276.791 159.559 275.836 159.559 274.659C159.559 273.482 158.606 272.527 157.432 272.527C156.258 272.527 155.306 273.482 155.306 274.659Z" fill="#4D62A0"/>
<path d="M157.693 275.996H168.316C168.991 275.996 169.535 275.45 169.535 274.773C169.535 274.096 168.991 273.551 168.316 273.551H157.693C157.018 273.551 156.474 274.096 156.474 274.773C156.474 275.45 157.018 275.996 157.693 275.996Z" fill="#738BD3"/>
<path d="M226.109 271.402H229.863V275.292H226.109V271.402Z" fill="#4D62A0"/>
<path d="M229.989 274.658C229.989 276.461 231.446 277.921 233.245 277.921C235.044 277.921 236.5 276.461 236.5 274.658C236.5 272.854 235.044 271.395 233.245 271.395C231.446 271.395 229.989 272.854 229.989 274.658Z" fill="#0B1E8D"/>
<path d="M231.118 274.659C231.118 275.836 232.07 276.791 233.245 276.791C234.419 276.791 235.371 275.836 235.371 274.659C235.371 273.482 234.419 272.527 233.245 272.527C232.07 272.527 231.118 273.482 231.118 274.659Z" fill="#4D62A0"/>
<path d="M219.407 274.658C219.407 276.461 220.864 277.921 222.663 277.921C224.462 277.921 225.918 276.461 225.918 274.658C225.918 272.854 224.462 271.395 222.663 271.395C220.864 271.395 219.407 272.854 219.407 274.658Z" fill="#0B1E8D"/>
<path d="M220.528 274.659C220.528 275.836 221.481 276.791 222.655 276.791C223.829 276.791 224.781 275.836 224.781 274.659C224.781 273.482 223.829 272.527 222.655 272.527C221.481 272.527 220.528 273.482 220.528 274.659Z" fill="#4D62A0"/>
<path d="M222.916 275.996H233.538C234.214 275.996 234.758 275.45 234.758 274.773C234.758 274.096 234.214 273.551 233.538 273.551H222.916C222.24 273.551 221.696 274.096 221.696 274.773C221.696 275.45 222.24 275.996 222.916 275.996Z" fill="#738BD3"/>
<path d="M248.584 271.398L252.59 275.677H239.402L237.326 271.398H248.584Z" fill="#6E88D4"/>
<path d="M218.73 271.398L217.38 275.677H173.235L171.164 271.398H218.73Z" fill="#6E88D4"/>
<path d="M153.079 271.453H249.513C252.258 271.453 254.751 269.479 255.907 266.397C257.484 262.186 256.123 257.181 252.814 255.009L236.382 244.224C234.956 243.288 233.362 242.797 231.748 242.797H155.273C152.65 242.797 150.526 245.429 150.526 248.678V268.285C150.526 270.036 151.67 271.453 153.083 271.453H153.079Z" fill="#E80024"/>
<path d="M217.268 243.922H210.888C210.082 243.922 209.422 244.579 209.422 245.392V271.398H218.734V245.392C218.734 244.584 218.079 243.922 217.268 243.922Z" fill="#FF6353"/>
<path d="M247.23 252.482H237.837C230.949 252.482 224.347 249.739 219.475 244.859H232.874L247.23 252.482Z" fill="#0B1E8D"/>
<path d="M211.127 244.859H217.028C217.44 244.859 217.773 245.194 217.773 245.607V251.735C217.773 252.148 217.44 252.482 217.028 252.482H211.127C210.715 252.482 210.381 252.148 210.381 251.735V245.607C210.381 245.194 210.715 244.859 211.127 244.859Z" fill="#0B1E8D"/>
<path d="M197.111 244.859H207.688C208.1 244.859 208.434 245.194 208.434 245.607V251.735C208.434 252.148 208.1 252.482 207.688 252.482H197.111C196.699 252.482 196.365 252.148 196.365 251.735V245.607C196.365 245.194 196.699 244.859 197.111 244.859Z" fill="#0B1E8D"/>
<path d="M182.798 244.859H193.375C193.787 244.859 194.121 245.194 194.121 245.607V251.735C194.121 252.148 193.787 252.482 193.375 252.482H182.798C182.386 252.482 182.052 252.148 182.052 251.735V245.607C182.052 245.194 182.386 244.859 182.798 244.859Z" fill="#0B1E8D"/>
<path d="M168.493 244.859H179.071C179.482 244.859 179.816 245.194 179.816 245.607V251.735C179.816 252.148 179.482 252.482 179.071 252.482H168.493C168.081 252.482 167.748 252.148 167.748 251.735V245.607C167.748 245.194 168.081 244.859 168.493 244.859Z" fill="#0B1E8D"/>
<path d="M154.181 244.859H164.758C165.17 244.859 165.504 245.194 165.504 245.607V251.735C165.504 252.148 165.17 252.482 164.758 252.482H154.181C153.769 252.482 153.435 252.148 153.435 251.735V245.607C153.435 245.194 153.769 244.859 154.181 244.859Z" fill="#0B1E8D"/>
<path opacity="0.3" d="M222.659 261.055H256.406C256.734 262.788 256.7 264.632 255.909 266.345C255.758 266.668 255.587 266.976 255.4 267.274H222.659L218.718 262.967L153.752 243.031L218.718 257.1L224.143 261.055H222.659Z" fill="white"/>
<path opacity="0.4" d="M218.734 264.009V265.275L178.173 252.617L218.734 264.009Z" fill="white"/>
<path opacity="0.4" d="M186.66 271.435H180.347L150.755 262.18L186.66 271.435Z" fill="white"/>
<path opacity="0.4" d="M176.402 271.434H172.545L154.464 265.738L176.402 271.434Z" fill="white"/>
<path opacity="0.1" d="M220.789 244.863H225.415L232.449 251.915C229.824 251.355 227.299 250.39 224.971 249.061L220.783 244.863H220.789Z" fill="white"/>
<path opacity="0.1" d="M232.877 244.863L241.892 249.652L244.719 252.486H237.84C237.004 252.486 236.167 252.446 235.341 252.365L227.858 244.863H232.877Z" fill="white"/>
<path opacity="0.1" d="M202.951 244.861L208.434 250.357V251.731C208.434 252.145 208.101 252.478 207.688 252.478H205.929L198.325 244.855H202.951V244.861Z" fill="white"/>
<path opacity="0.1" d="M205.39 244.863H207.688C208.101 244.863 208.434 245.197 208.434 245.611V247.914L205.39 244.863Z" fill="white"/>
<path opacity="0.1" d="M210.384 245.607C210.384 245.193 210.716 244.859 211.13 244.859H214.647L217.781 248.002V251.735C217.781 252.149 217.449 252.482 217.035 252.482H212.999L210.389 249.866V245.607H210.384Z" fill="white"/>
<path opacity="0.1" d="M173.81 244.859H178.441L179.816 246.238V250.881L173.81 244.859Z" fill="white"/>
<path opacity="0.1" d="M182.052 245.611C182.052 245.197 182.385 244.863 182.798 244.863H190.135L194.121 248.859V251.739C194.121 252.153 193.789 252.486 193.375 252.486H188.482L182.052 246.04V245.611Z" fill="white"/>
<path opacity="0.1" d="M182.052 251.738V248.484L186.043 252.485H182.798C182.385 252.485 182.052 252.152 182.052 251.738Z" fill="white"/>
<path opacity="0.1" d="M196.365 251.102L197.746 252.486H197.116C196.703 252.486 196.37 252.152 196.37 251.738V251.107L196.365 251.102Z" fill="white"/>
<path opacity="0.1" d="M164.758 244.863C165.171 244.863 165.504 245.197 165.504 245.611V251.739C165.504 252.153 165.171 252.486 164.758 252.486H163.775L156.171 244.863H164.758Z" fill="white"/>
<path opacity="0.1" d="M153.436 249.205V245.614C153.436 245.331 153.597 245.088 153.824 244.957L161.332 252.484H156.706L153.436 249.205Z" fill="white"/>
<path opacity="0.1" d="M167.74 247.184L173.031 252.488H168.491C168.078 252.488 167.745 252.154 167.745 251.74V247.189L167.74 247.184Z" fill="white"/>
<path fill-rule="evenodd" clip-rule="evenodd" d="M241.062 264.878C241.181 264.647 241.271 264.402 241.33 264.15C241.39 263.916 241.416 263.675 241.409 263.435C241.404 263.241 241.349 263.053 241.249 262.885C241.151 262.731 241.007 262.61 240.837 262.535C240.659 262.454 240.433 262.414 240.162 262.414C239.917 262.411 239.673 262.451 239.444 262.535C239.229 262.616 239.032 262.736 238.864 262.889C238.688 263.049 238.54 263.236 238.427 263.443C238.301 263.67 238.208 263.912 238.15 264.163C238.088 264.399 238.061 264.643 238.067 264.887C238.07 265.08 238.122 265.268 238.219 265.437C238.314 265.589 238.456 265.708 238.626 265.778C238.804 265.856 239.03 265.895 239.301 265.895C239.56 265.899 239.818 265.857 240.062 265.774C240.279 265.698 240.478 265.58 240.646 265.428C240.817 265.269 240.958 265.083 241.062 264.878ZM240.387 263.797C240.376 263.917 240.357 264.037 240.33 264.154L240.323 264.149C240.294 264.27 240.256 264.389 240.21 264.504C240.168 264.609 240.113 264.708 240.045 264.799C239.986 264.881 239.909 264.951 239.82 265.003C239.732 265.054 239.629 265.081 239.526 265.078C239.432 265.083 239.338 265.061 239.258 265.012C239.191 264.965 239.142 264.898 239.119 264.821C239.091 264.723 239.083 264.621 239.093 264.521C239.105 264.386 239.129 264.252 239.162 264.121C239.193 264.004 239.235 263.89 239.288 263.78C239.332 263.677 239.391 263.581 239.461 263.492C239.524 263.414 239.602 263.348 239.69 263.297C239.773 263.25 239.867 263.225 239.963 263.226C240.06 263.22 240.156 263.247 240.235 263.301C240.3 263.353 240.346 263.423 240.365 263.501C240.39 263.597 240.397 263.697 240.387 263.797ZM235.767 265.845C235.805 265.849 235.842 265.842 235.875 265.824V265.829C235.894 265.806 235.906 265.779 235.91 265.749L236.204 264.542H237.524C237.584 264.542 237.628 264.505 237.645 264.43L237.766 263.93C237.779 263.876 237.784 263.842 237.775 263.83C237.766 263.818 237.74 263.809 237.701 263.809H236.381L236.455 263.509C236.464 263.477 236.476 263.444 236.49 263.414C236.503 263.382 236.523 263.352 236.546 263.327C236.577 263.297 236.614 263.274 236.655 263.26C236.708 263.241 236.766 263.233 236.823 263.235H238.061C238.09 263.238 238.119 263.231 238.143 263.214C238.164 263.191 238.177 263.162 238.182 263.131L238.312 262.585C238.33 262.531 238.33 262.498 238.321 262.485C238.312 262.473 238.286 262.469 238.247 262.469H236.724C236.564 262.466 236.406 262.491 236.256 262.544C236.127 262.59 236.008 262.66 235.906 262.748C235.811 262.833 235.731 262.933 235.672 263.044C235.612 263.152 235.567 263.267 235.537 263.385L234.962 265.749C234.944 265.811 234.975 265.845 235.053 265.845H235.767ZM247.818 264C247.896 264.034 247.966 264.084 248.022 264.146C248.072 264.205 248.11 264.273 248.135 264.346C248.158 264.419 248.17 264.495 248.17 264.571C248.169 264.65 248.158 264.728 248.139 264.804C248.103 264.956 248.037 265.1 247.945 265.229C247.853 265.356 247.738 265.467 247.607 265.558C247.472 265.651 247.323 265.722 247.165 265.77C247.002 265.82 246.833 265.846 246.663 265.845H245.356C245.217 265.845 245.135 265.82 245.109 265.77C245.083 265.72 245.083 265.641 245.109 265.524L245.776 262.785C245.792 262.697 245.833 262.616 245.893 262.548C245.945 262.494 246.04 262.469 246.178 262.469H247.481C247.62 262.468 247.758 262.485 247.893 262.519C248.005 262.546 248.109 262.599 248.196 262.673C248.276 262.746 248.334 262.84 248.36 262.944C248.389 263.074 248.385 263.21 248.348 263.339C248.313 263.474 248.246 263.6 248.153 263.706C248.062 263.818 247.949 263.911 247.82 263.98V264H247.818ZM246.498 263.709H247.022C247.09 263.708 247.157 263.691 247.216 263.659C247.281 263.626 247.325 263.563 247.346 263.472C247.368 263.381 247.355 263.343 247.32 263.301C247.276 263.259 247.214 263.238 247.152 263.243H246.61L246.498 263.709ZM247.173 264.746C247.198 264.669 247.187 264.585 247.143 264.517C247.1 264.458 247.022 264.43 246.913 264.43H246.325L246.169 265.058H246.757C246.817 265.059 246.876 265.049 246.93 265.029C246.976 265.009 247.017 264.983 247.051 264.949C247.083 264.92 247.109 264.887 247.129 264.849C247.146 264.817 247.16 264.782 247.168 264.745L247.173 264.746ZM249.261 265.846H250.81L250.804 265.845C250.864 265.845 250.908 265.808 250.925 265.733L251.059 265.187C251.073 265.133 251.073 265.099 251.064 265.087C251.055 265.075 251.029 265.071 250.99 265.071H249.718L249.601 265.062C249.569 265.059 249.539 265.047 249.514 265.029C249.49 265.008 249.475 264.98 249.471 264.95C249.465 264.901 249.47 264.851 249.484 264.804L249.571 264.442H250.917C250.98 264.442 251.021 264.405 251.038 264.33L251.159 263.826C251.172 263.794 251.175 263.76 251.168 263.726C251.159 263.714 251.133 263.706 251.094 263.706H249.748L249.796 263.501C249.805 263.469 249.816 263.436 249.831 263.406C249.845 263.374 249.865 263.344 249.891 263.319C249.923 263.289 249.959 263.267 250 263.252C250.053 263.233 250.111 263.224 250.168 263.227H251.367C251.396 263.231 251.426 263.223 251.45 263.207C251.472 263.183 251.487 263.154 251.493 263.123L251.627 262.577C251.64 262.523 251.64 262.49 251.632 262.478C251.623 262.465 251.597 262.461 251.558 262.461H250.078C249.917 262.459 249.757 262.485 249.606 262.54C249.477 262.587 249.358 262.656 249.256 262.745C249.161 262.83 249.081 262.93 249.022 263.04C248.962 263.148 248.917 263.263 248.888 263.382L248.511 264.926C248.485 265.032 248.473 265.142 248.473 265.251C248.473 265.354 248.499 265.456 248.551 265.546C248.607 265.641 248.692 265.716 248.793 265.763C248.906 265.817 249.062 265.846 249.261 265.846ZM254.563 263.231H253.706L253.096 265.742C253.091 265.77 253.08 265.798 253.061 265.821C253.028 265.839 252.99 265.847 252.953 265.842H252.238C252.16 265.842 252.13 265.808 252.148 265.742L252.758 263.232H251.923C251.854 263.232 251.828 263.195 251.845 263.12L251.975 262.578C251.979 262.541 251.996 262.506 252.022 262.478C252.049 262.465 252.079 262.459 252.109 262.462H254.754C254.781 262.458 254.809 262.464 254.832 262.478C254.844 262.491 254.844 262.524 254.832 262.578L254.702 263.12C254.685 263.195 254.641 263.232 254.567 263.232L254.563 263.231ZM242.312 265.747L242.74 264.02V264.019H242.779L243.03 264.619L243.485 265.626C243.502 265.668 243.525 265.707 243.554 265.743C243.574 265.77 243.601 265.792 243.632 265.809C243.663 265.825 243.696 265.835 243.731 265.839L243.857 265.847H244.116C244.269 265.847 244.377 265.811 244.441 265.739C244.509 265.66 244.557 265.567 244.58 265.468L245.303 262.57C245.321 262.504 245.29 262.47 245.212 262.47H244.498C244.46 262.465 244.422 262.472 244.39 262.491C244.37 262.514 244.357 262.541 244.351 262.57L243.923 264.31H243.888L243.641 263.723L243.178 262.691C243.157 262.65 243.133 262.611 243.105 262.575C243.084 262.547 243.057 262.525 243.027 262.508C242.997 262.493 242.965 262.483 242.932 262.479L242.802 262.47H242.542C242.403 262.47 242.299 262.5 242.234 262.55C242.17 262.6 242.122 262.704 242.083 262.854L241.364 265.747C241.346 265.814 241.377 265.847 241.455 265.847H242.165C242.202 265.852 242.24 265.845 242.273 265.826C242.293 265.804 242.306 265.776 242.312 265.747Z" fill="white"/>
<path d="M384.985 326.426C383.84 324.93 384.723 323.59 385.067 321.999C385.541 319.922 384.219 318.569 383.009 317.099C381.704 315.353 380.549 313.504 379.288 311.729C378.969 311.108 378.017 310.5 378.508 309.75C379.257 308.513 379.994 307.078 379.671 305.596C379.43 304.255 378.767 303.044 378.306 301.777C377.479 299.812 376.755 297.803 375.971 295.821C375.536 294.881 375.192 293.885 374.839 292.894C374.412 291.704 373.973 290.519 373.349 289.442C373.198 289.179 373.034 288.925 372.858 288.679C372.19 287.985 371.76 288.11 371.424 288.537C371.157 288.877 370.946 289.407 370.722 289.868C369.58 291.989 368.758 294.256 367.72 296.424C367.048 297.795 366.51 299.225 365.898 300.626C365.244 302.204 364.257 303.979 364.796 305.721C365.256 307.289 367.397 307.005 367.685 307.664C367.664 309.427 366.63 310.94 365.713 312.371C364.654 314.233 363.301 315.884 362.048 317.612C359.865 320.706 357.414 323.426 362.018 325.775C362.078 325.827 362.13 325.887 362.16 325.965C362.151 325.952 362.147 325.935 362.138 325.922C361.867 327.404 360.825 328.697 360.239 330.089C358.848 333.167 357.405 336.214 355.924 339.248C355.015 341.369 351.738 346.079 356.113 346.226C359.567 346.433 362.896 345.14 366.204 344.325C368.896 343.722 371.678 343.593 374.356 342.899C376.984 342.3 379.546 341.446 382.04 340.433C382.453 340.265 382.862 340.093 383.271 339.916C384.589 339.352 386.178 338.774 386.777 337.356C387.44 335.429 387.742 333.326 387.742 331.292C387.518 329.37 385.872 328.064 384.99 326.439L384.985 326.426Z" fill="#70A1FF"/>
<path d="M350.177 454.164H-64.3438V324.688C37.9137 331.825 190.012 388.95 350.177 454.164Z" fill="#BED9FF"/>
<path d="M151.588 392.638C150.809 394.288 149.138 395.107 147.639 395.982C146.033 396.999 144.189 397.473 142.376 397.96C141.558 398.215 140.723 398.422 139.887 398.616C138.53 398.93 137.165 399.197 135.817 399.534C133.655 400.103 131.558 400.891 129.383 401.404C126.73 401.986 124.056 402.52 121.364 402.891C117.135 403.339 112.863 403.46 108.612 403.555C106.924 403.516 105.223 403.426 103.569 403.059C101.76 402.732 100.455 401.745 100.981 399.749C101.721 397.034 103.156 394.534 104.723 392.215C105.843 390.496 107.311 389.026 108.41 387.298C108.423 387.276 108.435 387.25 108.453 387.229C106.915 387.435 103.965 387.625 103.414 385.767C103.237 384.056 104.59 381.294 105.317 379.712C106.902 376.682 108.336 373.57 110.063 370.614C111.274 368.441 112.759 366.347 113.448 363.933C113.444 363.946 113.44 363.959 113.44 363.972C113.487 363.821 113.487 363.709 113.457 363.627C113.336 363.295 112.673 363.459 112.303 363.437C111.803 363.468 111.304 363.545 110.804 363.605C110.576 363.636 110.348 363.657 110.119 363.67C109.387 363.687 108.315 363.45 108.108 362.644C108.336 361.42 109.073 360.326 109.551 359.179C110.361 357.321 111.252 355.503 112.019 353.628C112.579 352.205 113.156 350.787 113.909 349.456C114.951 347.391 116.472 345.646 117.747 343.736C117.794 343.642 117.841 343.542 117.88 343.439C117.91 343.357 117.932 343.275 117.949 343.189C117.97 343.09 117.962 342.999 117.936 342.913C117.867 342.702 117.673 342.551 117.428 342.573C117.355 342.568 117.277 342.56 117.191 342.56C115.778 342.491 112.906 342.745 112.673 341.185C112.759 339.219 113.733 337.405 114.417 335.59C115.546 332.772 116.411 329.854 117.419 326.992C118.298 324.514 119.362 322.104 120.292 319.652C120.404 319.307 120.511 318.967 120.623 318.622C121.222 316.756 121.795 314.868 121.954 312.916C122.04 311.058 121.907 309.192 121.872 307.334C121.859 306.739 121.851 306.14 121.864 305.545C121.868 305.214 121.877 304.877 121.898 304.545C121.95 304.127 121.911 303.623 122.178 303.283H122.182C122.23 303.227 122.286 303.179 122.346 303.14C122.639 302.951 123.022 302.938 123.332 303.132C123.81 304.485 123.604 305.976 123.772 307.39C124.047 310.812 123.892 314.312 124.805 317.648C126.2 322.979 129.607 327.419 132.312 332.125C133.095 333.496 134.276 334.578 135.137 335.892C135.611 336.793 136.325 338.241 135.356 339.038C134.857 339.375 134.22 339.267 133.651 339.327C133.151 339.353 132.665 339.469 132.208 339.672C131.967 339.797 131.696 339.922 131.545 340.163C131.545 340.163 131.544 340.163 131.541 340.163C131.515 340.202 131.498 340.245 131.489 340.288C131.412 342.698 133.414 345.124 134.357 347.292C134.818 348.197 135.447 349.003 135.985 349.857C137.075 351.774 138.242 353.654 139.543 355.442C140.589 356.822 143.591 359.795 140.869 360.963C140.111 361.162 139.327 360.963 138.561 360.976C138.057 361.015 137.587 361.205 137.092 361.287C136.618 361.381 136.114 361.313 135.662 361.494C135.589 361.528 135.52 361.571 135.456 361.619C135.382 361.67 135.313 361.726 135.249 361.791C135.197 361.843 135.15 361.903 135.107 361.968C134.715 363.343 136.631 364.903 137.355 365.972C138.302 367.23 139.116 368.588 139.917 369.95C141.95 373.135 145.395 375.023 147.643 378.048C149.637 380.328 147.936 380.738 145.766 381.091C145.774 381.091 145.779 381.091 145.787 381.082C145.464 381.156 145.279 381.432 145.395 381.759C145.395 381.746 145.391 381.729 145.391 381.72C145.723 382.565 146.265 383.328 146.748 384.091C147.114 384.729 147.523 385.336 148.035 385.862C149.512 387.241 151.92 388.944 151.993 391.06C152.015 391.569 151.898 392.095 151.606 392.651L151.588 392.638Z" fill="#70A1FF"/>
<path d="M267.327 374.342C266.548 375.993 264.877 376.812 263.374 377.687C261.767 378.704 259.929 379.178 258.111 379.665C257.289 379.915 256.457 380.126 255.622 380.32C254.265 380.635 252.9 380.902 251.548 381.238C249.39 381.807 247.293 382.596 245.114 383.109C242.461 383.691 239.786 384.225 237.095 384.596C232.865 385.044 228.593 385.165 224.343 385.26C222.654 385.221 220.953 385.13 219.299 384.764C217.491 384.437 216.186 383.45 216.711 381.458C217.452 378.747 218.886 376.243 220.449 373.924C221.569 372.2 223.038 370.735 224.136 369.007C224.149 368.985 224.162 368.959 224.179 368.938C222.646 369.145 219.691 369.334 219.14 367.477C218.964 365.766 220.312 363.003 221.044 361.421C222.628 358.391 224.063 355.279 225.79 352.323C227.004 350.15 228.486 348.056 229.175 345.642C229.17 345.655 229.17 345.672 229.166 345.685C229.213 345.53 229.218 345.422 229.183 345.34C229.063 345.009 228.399 345.172 228.029 345.151C227.529 345.181 227.03 345.259 226.53 345.319C226.302 345.345 226.074 345.371 225.846 345.384C225.113 345.401 224.041 345.164 223.834 344.354C224.063 343.129 224.803 342.03 225.281 340.888C226.091 339.031 226.983 337.212 227.745 335.337C228.309 333.915 228.877 332.497 229.631 331.165C230.673 329.1 232.198 327.351 233.473 325.446C233.52 325.351 233.567 325.252 233.602 325.148C233.632 325.066 233.654 324.984 233.671 324.898C233.692 324.799 233.688 324.709 233.658 324.622C233.593 324.415 233.395 324.26 233.15 324.282C233.076 324.278 232.999 324.269 232.913 324.269C231.5 324.2 228.628 324.454 228.395 322.894C228.481 320.929 229.455 319.114 230.139 317.3C231.268 314.481 232.133 311.563 233.141 308.701C234.02 306.227 235.083 303.818 236.014 301.357C236.126 301.012 236.233 300.672 236.345 300.327C236.94 298.461 237.512 296.573 237.672 294.62C237.754 292.763 237.624 290.901 237.594 289.039C237.581 288.444 237.573 287.849 237.586 287.255C237.586 286.918 237.598 286.587 237.62 286.255C237.672 285.837 237.633 285.332 237.9 284.992H237.904C237.952 284.936 238.012 284.888 238.072 284.85C238.365 284.656 238.753 284.647 239.054 284.837C239.536 286.19 239.325 287.681 239.493 289.095C239.769 292.517 239.614 296.017 240.527 299.353C241.922 304.684 245.325 309.124 248.034 313.83C248.817 315.205 249.997 316.282 250.863 317.597C251.337 318.498 252.052 319.946 251.078 320.743C250.579 321.079 249.941 320.972 249.369 321.028C248.873 321.054 248.387 321.17 247.93 321.373C247.685 321.498 247.418 321.623 247.267 321.864C247.267 321.864 247.267 321.865 247.267 321.868C247.245 321.907 247.224 321.95 247.215 321.993C247.138 324.403 249.14 326.829 250.083 328.997C250.544 329.902 251.169 330.708 251.707 331.566C252.801 333.484 253.968 335.363 255.269 337.151C256.32 338.531 259.317 341.505 256.595 342.673C255.837 342.871 255.053 342.673 254.287 342.686C253.783 342.72 253.313 342.914 252.823 342.996C252.349 343.091 251.845 343.022 251.393 343.207C251.319 343.242 251.251 343.285 251.182 343.328C251.108 343.379 251.04 343.435 250.975 343.5C250.923 343.552 250.872 343.617 250.833 343.681C250.441 345.056 252.357 346.616 253.081 347.685C254.024 348.948 254.842 350.301 255.639 351.663C257.672 354.848 261.117 356.736 263.365 359.757C265.359 362.037 263.658 362.447 261.488 362.8C261.492 362.796 261.5 362.796 261.509 362.792C261.186 362.869 261.001 363.145 261.117 363.473C261.117 363.455 261.113 363.443 261.109 363.43C261.44 364.274 261.983 365.037 262.465 365.8C262.836 366.438 263.24 367.046 263.753 367.576C265.23 368.955 267.637 370.657 267.715 372.774C267.737 373.282 267.62 373.812 267.327 374.364V374.342Z" fill="#70A1FF"/>
<path d="M308.518 360.661C307.738 362.311 306.067 363.13 304.569 364.005C302.962 365.018 301.119 365.496 299.306 365.984C298.488 366.233 297.652 366.445 296.817 366.634C295.46 366.949 294.095 367.216 292.747 367.552C290.585 368.121 288.488 368.91 286.317 369.423C283.66 370.009 280.99 370.539 278.298 370.91C274.069 371.358 269.797 371.479 265.546 371.574C263.858 371.535 262.157 371.444 260.503 371.078C258.69 370.755 257.389 369.763 257.915 367.772C258.655 365.057 260.089 362.557 261.657 360.238C262.772 358.514 264.245 357.049 265.344 355.321C265.356 355.299 265.374 355.273 265.387 355.252C263.849 355.458 260.899 355.652 260.348 353.791C260.171 352.084 261.524 349.317 262.251 347.735C263.836 344.705 265.27 341.593 266.997 338.637C268.212 336.464 269.693 334.37 270.382 331.956C270.378 331.969 270.374 331.986 270.374 331.999C270.421 331.844 270.421 331.736 270.391 331.654C270.27 331.322 269.607 331.486 269.237 331.465C268.733 331.495 268.238 331.572 267.738 331.633C267.51 331.659 267.281 331.685 267.053 331.697C266.321 331.71 265.249 331.478 265.042 330.667C265.27 329.443 266.011 328.349 266.485 327.202C267.294 325.345 268.186 323.526 268.952 321.651C269.517 320.229 270.089 318.811 270.843 317.483C271.885 315.419 273.406 313.673 274.68 311.764C274.732 311.665 274.775 311.57 274.814 311.466C274.844 311.384 274.866 311.303 274.883 311.216C274.904 311.117 274.896 311.022 274.87 310.94C274.805 310.734 274.607 310.583 274.362 310.6C274.288 310.591 274.211 310.587 274.129 310.587C272.712 310.518 269.84 310.772 269.611 309.212C269.698 307.247 270.671 305.432 271.356 303.618C272.484 300.799 273.354 297.881 274.357 295.019C275.24 292.545 276.295 290.136 277.23 287.679C277.338 287.339 277.45 286.994 277.562 286.649C278.16 284.783 278.733 282.9 278.892 280.943C278.974 279.081 278.845 277.219 278.81 275.361C278.798 274.767 278.789 274.172 278.802 273.573C278.806 273.241 278.819 272.905 278.836 272.573C278.888 272.155 278.849 271.651 279.116 271.31H279.121C279.168 271.254 279.224 271.207 279.288 271.168C279.577 270.978 279.965 270.965 280.27 271.159C280.748 272.513 280.542 274.008 280.71 275.417C280.985 278.84 280.83 282.339 281.743 285.675C283.143 291.007 286.545 295.446 289.25 300.153C290.034 301.523 291.214 302.605 292.075 303.915C292.549 304.816 293.264 306.264 292.295 307.061C291.795 307.398 291.153 307.29 290.585 307.346C290.085 307.372 289.603 307.488 289.142 307.691C288.901 307.816 288.63 307.941 288.479 308.182C288.479 308.182 288.477 308.184 288.475 308.186C288.449 308.225 288.436 308.268 288.423 308.311C288.35 310.721 290.348 313.143 291.295 315.315C291.756 316.22 292.381 317.022 292.919 317.88C294.009 319.802 295.18 321.677 296.476 323.465C297.523 324.845 300.529 327.818 297.803 328.986C297.045 329.185 296.261 328.986 295.494 328.999C294.995 329.034 294.521 329.228 294.026 329.31C293.552 329.4 293.048 329.331 292.596 329.517C292.523 329.551 292.454 329.594 292.389 329.637C292.316 329.689 292.247 329.745 292.183 329.81C292.131 329.861 292.084 329.926 292.041 329.991C291.649 331.366 293.565 332.926 294.289 333.995C295.232 335.253 296.05 336.611 296.847 337.969C298.88 341.154 302.325 343.041 304.573 346.067C306.567 348.347 304.866 348.756 302.691 349.11C302.7 349.106 302.704 349.106 302.712 349.101C302.389 349.174 302.2 349.455 302.321 349.782C302.321 349.769 302.316 349.752 302.316 349.739C302.648 350.584 303.19 351.347 303.673 352.114C304.039 352.752 304.448 353.36 304.961 353.885C306.438 355.265 308.845 356.967 308.918 359.083C308.94 359.592 308.824 360.122 308.531 360.674L308.518 360.661Z" fill="#5A8CFF"/>
<path d="M280.175 303.381C279.637 304.669 277.987 305.143 277.29 306.359C276.777 307.255 276.85 308.441 276.183 309.221C275.899 309.557 275.511 309.777 275.132 309.997C274.792 310.19 274.452 310.384 274.111 310.578C272.695 310.509 269.822 310.764 269.594 309.203C269.68 307.238 270.653 305.424 271.338 303.609C272.466 300.79 273.336 297.872 274.34 295.011C275.223 292.537 276.278 290.127 277.212 287.671C277.32 287.33 277.432 286.985 277.544 286.641C277.608 288.149 277.397 289.662 276.915 291.089C276.502 292.295 275.903 293.442 275.627 294.687C275.408 295.692 275.408 296.735 275.326 297.765C275.085 300.833 274.142 303.799 273.203 306.734C274.719 306.148 276.17 305.376 277.501 304.445C278.31 303.881 279.211 303.221 280.18 303.398L280.175 303.381Z" fill="#70A1FF"/>
<path d="M281.103 325.307C279.945 325.97 278.782 326.634 277.624 327.298C277.167 327.556 276.702 327.824 276.189 327.94C275.754 328.043 275.294 328.035 274.859 328.151C273.248 328.569 272.257 330.526 270.595 330.578C270.199 330.591 269.803 330.487 269.411 330.539C268.735 330.625 268.218 331.138 267.731 331.634C267.503 331.66 267.275 331.685 267.046 331.698C266.314 331.711 265.242 331.479 265.035 330.668C265.263 329.444 266.004 328.349 266.478 327.203C267.288 325.345 268.179 323.527 268.946 321.652C269.51 320.229 270.083 318.811 270.836 317.484C271.878 315.419 273.399 313.674 274.673 311.765C274.725 311.665 274.768 311.571 274.807 311.467C274.837 311.385 274.859 311.303 274.876 311.217C274.897 311.118 274.889 311.023 274.863 310.941C276.026 311.135 274.962 315.299 274.531 316.381C273.571 318.799 272.611 321.216 271.65 323.634C271.439 324.16 271.228 324.712 271.314 325.272C271.405 325.828 271.917 326.358 272.468 326.251C272.942 326.156 273.222 325.673 273.618 325.397C273.868 325.22 274.165 325.13 274.458 325.048C276.814 324.38 279.269 324.07 281.715 324.126C282.059 324.509 281.551 325.057 281.103 325.311V325.307Z" fill="#70A1FF"/>
<path d="M287.442 347.964C286.31 348.774 285.013 349.468 284.316 350.67C284.13 350.989 283.993 351.338 283.738 351.606C282.864 352.55 281.305 352.015 280.035 352.226C279.311 352.347 278.657 352.731 277.946 352.92C276.624 353.278 275.216 352.95 273.859 353.123C271.693 353.399 269.815 354.933 267.636 355.075C267.072 355.11 266.499 355.054 265.943 355.149C265.732 355.183 265.53 355.239 265.332 355.308C265.345 355.286 265.362 355.261 265.375 355.239C263.837 355.446 260.887 355.64 260.336 353.778C260.159 352.071 261.512 349.304 262.24 347.722C263.824 344.692 265.259 341.581 266.986 338.624C268.2 336.452 269.682 334.357 270.371 331.943C270.366 331.956 270.362 331.974 270.362 331.987C270.409 331.831 270.409 331.724 270.379 331.642C270.633 331.534 270.9 331.474 271.163 331.538C271.822 331.693 272.08 332.495 272.149 333.168C272.576 337.4 270.25 341.352 269.01 345.417C268.816 346.05 268.648 346.722 268.803 347.369C268.958 348.015 269.561 348.593 270.216 348.507C270.551 348.464 270.84 348.261 271.15 348.123C272.24 347.632 273.558 347.951 274.656 347.481C275.173 347.261 275.612 346.873 276.137 346.671C276.663 346.472 277.235 346.464 277.795 346.451C281.8 346.36 288.997 343.96 289.634 344.606C290.276 345.248 288.571 347.145 287.442 347.951V347.964Z" fill="#70A1FF"/>
<path d="M581.93 311.875V452.183H-64.0703V436.387C157.62 376.391 373.965 331.942 581.93 311.875Z" fill="#EDF6FF"/>
<g style="mix-blend-mode:screen" opacity="0.55">
<path d="M372.629 339.551C310.458 356.515 201.529 386.146 200.47 385.853C198.984 385.439 216.908 377.022 215.961 376.487C215.013 375.957 165.013 388.905 161.331 387.357C159.22 386.469 193.691 376.078 223.502 367.363C273.58 357.015 323.304 347.71 372.629 339.551Z" fill="white"/>
</g>
<path opacity="0.75" d="M166.25 383.559C166.25 383.559 337.81 346.097 352.005 345.204C366.2 344.312 217.525 379.133 217.525 379.133C217.525 379.133 241.324 370.345 244.291 370.327C247.258 370.31 166.25 383.559 166.25 383.559Z" fill="white"/>
<path opacity="0.75" d="M238.984 382.038C238.984 382.038 386.845 358.561 394.076 360.143C401.307 361.725 280.582 385.852 280.582 385.852C280.582 385.852 320.466 375.318 316.685 375.124C312.9 374.931 238.984 382.042 238.984 382.042V382.038Z" fill="white"/>
<path d="M182.504 375.658L188.977 374.227L195.458 372.826L208.426 370.051L221.406 367.34L234.395 364.659C251.716 361.103 269.064 357.672 286.432 354.354C303.805 351.065 321.187 347.811 338.621 344.837C342.975 344.07 347.337 343.355 351.696 342.626C356.058 341.898 360.412 341.157 364.784 340.48L371.334 339.458C373.517 339.122 375.701 338.765 377.889 338.459L384.452 337.502L391.015 336.566L384.478 337.665L377.936 338.743C375.753 339.092 373.578 339.489 371.403 339.864L364.87 341.001C362.695 341.381 360.511 341.734 358.336 342.131L351.812 343.294C347.462 344.074 343.108 344.837 338.763 345.652L325.722 348.044L312.69 350.479L299.658 352.931L286.635 355.41L273.611 357.897L260.592 360.414L234.559 365.465L182.504 375.658Z" fill="white"/>
<path d="M65.3599 379.348C63.9214 378.124 62.5002 376.874 61.036 375.68C60.5881 375.314 60.166 374.913 59.7526 374.512C59.3047 374.033 58.6544 373.628 58.4821 372.965C58.4175 372.646 58.5381 372.322 58.6285 372.021C58.7836 371.387 59.2831 370.973 59.6966 370.517C60.0368 369.991 59.8688 369.31 59.6707 368.749C59.4468 368.107 58.9688 367.633 58.4218 367.245C58.2711 367.12 58.0687 366.918 57.9352 366.771C57.4054 366.017 56.4321 365.5 56.1996 364.582C56.1866 364.448 56.1996 364.31 56.2168 364.185V364.211C56.2426 363.905 56.3891 363.56 56.7164 363.483L56.6948 363.491C56.768 363.47 56.8413 363.444 56.9145 363.427H56.9059C61.2082 362.832 57.7112 360.776 56.0618 359.423C54.9334 358.349 53.818 357.194 53.116 355.768C52.9394 355.311 52.8188 354.802 52.8447 354.311C52.8748 353.871 53.0815 353.294 53.6026 353.285H53.5897C54.4941 353.216 55.3985 353.557 56.2986 353.38C57.0695 353.259 57.2375 352.733 56.7594 352.134C56.4709 351.656 56.0015 351.13 55.5966 350.807C54.8257 350.186 53.9515 349.721 53.116 349.199C52.9696 349.1 52.8404 349.014 52.7284 348.923C52.6466 348.859 52.5734 348.79 52.5001 348.712C52.4786 348.682 52.4183 348.613 52.4011 348.583C53.1418 348.57 53.8524 348.38 54.5458 348.135C55.2392 347.885 55.911 347.57 56.5872 347.303C58.3227 346.842 60.054 347.674 61.7939 347.531C62.7759 347.484 64.0722 346.773 63.7621 345.622C63.5209 344.833 62.6251 344.544 61.992 344.139C60.7517 343.411 59.4683 342.652 58.0428 342.394C57.4657 342.256 56.8714 342.101 56.3072 341.915C54.9334 341.458 53.4132 341.299 52.2719 340.329C52.147 340.23 52.0135 340.101 51.9015 339.984C51.6087 339.631 51.1435 339.023 51.1349 338.558C51.8025 338.519 52.5044 338.441 53.0212 337.989C54.3649 338.256 56.1953 339.045 57.2978 337.868C57.9179 336.933 56.4149 335.912 55.8206 335.317C54.0548 333.89 52.2417 332.52 50.4372 331.14C48.383 329.589 44.7955 327.468 44.2744 324.792C44.2615 324.637 44.2615 324.468 44.3132 324.318C44.3132 324.318 44.3132 324.309 44.3132 324.305C44.3132 324.305 44.3132 324.309 44.3132 324.313C44.4294 323.964 44.6146 323.938 44.9204 324.102C45.687 324.473 46.6 324.783 47.4097 324.356C47.9824 324.081 48.2021 323.464 48.6026 323.025C48.6672 322.956 48.7447 322.891 48.8266 322.835L48.8179 322.844C48.9471 322.762 49.0979 322.714 49.2529 322.706H49.2443C49.3649 322.706 49.4898 322.71 49.6104 322.736C49.6448 322.744 49.718 322.762 49.7525 322.77C51.3287 323.404 52.9739 325.089 54.7741 324.18C55.9067 323.568 55.3468 322.391 54.8171 321.576C54.4209 320.917 53.9558 320.288 53.4691 319.689C51.2168 316.93 48.37 314.762 46.0531 312.086C45.1659 311.09 43.8308 309.646 43.6155 308.293C43.6155 308.177 43.6069 308.039 43.693 307.953C44.2529 307.965 44.7955 308.276 45.3683 308.228C46.3244 308.121 46.0315 307.353 45.5535 306.836C44.5974 305.638 43.0944 305.125 42.1039 303.923C41.8024 303.552 41.7938 303.16 42.1598 302.824C42.4699 302.548 42.8231 302.337 43.0858 302.013C43.1418 301.966 43.2064 301.919 43.2753 301.893C43.7404 301.871 44.2399 302.048 44.6792 301.819C45.8033 301.212 43.5724 299.208 43.1504 298.57C42.289 297.367 41.2037 296.216 40.8032 294.764C40.7688 294.6 40.7386 294.432 40.7515 294.268C40.7515 294.268 40.7515 294.264 40.7515 294.26V294.268C40.7559 294.139 40.8118 294.005 40.9367 293.954C41.2985 293.833 41.7378 293.842 42.0177 293.557C42.7369 292.734 40.0065 290.644 39.4682 289.993C39.171 289.7 38.8652 289.407 38.581 289.101C38.4303 288.708 38.1891 288.221 38.3786 287.816C38.3915 287.786 38.4087 287.76 38.426 287.73L38.4475 287.713L38.4733 287.7L38.4949 287.691C39.7481 288.006 43.2107 289.088 42.0091 286.523C41.2684 285.368 40.1529 284.541 39.2399 283.528C38.7533 283.002 38.2709 282.442 37.7713 281.924C36.9574 280.834 36.2511 279.649 35.8721 278.347C35.8333 278.214 35.7989 278.08 35.7644 277.942C35.7343 277.528 35.7343 277.076 35.8936 276.705L35.9152 276.688C36.9746 276.938 38.1417 277.433 39.171 276.83C39.6318 276.558 40.3769 276.011 39.9936 275.421C39.2011 274.347 38.1202 273.559 37.0521 272.787C36.1477 272.158 35.0667 271.499 34.6964 270.387C34.5758 270.042 34.481 269.667 34.537 269.3C34.5413 269.266 34.5499 269.232 34.5586 269.193C34.5672 269.184 34.5715 269.163 34.5887 269.158C35.5233 269.175 36.4449 269.456 37.3751 269.283C38.3011 268.796 37.9824 267.999 37.2976 267.219C36.5224 266.339 35.2821 265.482 34.8385 265.103C32.121 262.857 33.1675 254.827 31.9703 251.259C31.6559 250.535 31.531 248.772 30.7773 248.496C29.9375 248.875 30.2907 251.134 30.2218 251.953C30.1141 255.323 30.4845 258.616 30.4414 261.986C30.3768 266.727 30.1701 268.499 26.5352 271.904C25.7471 272.623 24.9633 273.356 24.1967 274.098C24.145 274.145 24.0891 274.192 24.046 274.244C24.046 274.244 24.0417 274.248 24.0374 274.253C23.021 275.3 21.8194 276.231 21.1261 277.537C20.9237 278.08 20.6739 278.731 21.2725 279.119C23.0167 280.162 22.8272 279.274 24.8513 281.024C24.6748 282.291 24.2398 283.506 23.7661 284.691C23.7359 284.769 23.7015 284.847 23.6713 284.924C23.6713 284.924 23.6713 284.924 23.6713 284.929C23.1071 286.2 22.3621 287.424 21.462 288.489C21.4275 288.527 21.3328 288.644 21.2854 288.704C20.9323 289.139 20.5834 289.592 20.2346 290.027C15.48 295.441 25.6911 293.018 20.6179 296.501C19.6704 297.143 18.654 297.665 17.7583 298.389C16.4533 299.358 15.4585 301.414 17.9865 301.276C18.0942 301.285 18.2061 301.285 18.3095 301.298C18.2923 301.307 18.2578 301.328 18.2406 301.337H18.2449C17.4266 301.75 17.0132 302.66 16.4232 303.332C15.5877 304.298 13.8866 307.073 15.4843 307.974C15.915 308.142 16.3887 308.06 16.8409 308.065C17.3577 308.078 17.8573 308.345 18.3655 308.422C18.3569 308.44 18.344 308.457 18.3353 308.478C17.2673 310.28 16.3629 312.181 15.2259 313.939C13.555 316.689 11.5782 319.292 10.2647 322.245C9.92443 322.835 10.3766 323.046 10.8891 322.788C11.716 322.408 12.6376 322.301 13.5291 322.46C14.8642 322.581 15.8633 323.852 17.2845 323.559L17.3018 323.568C17.3018 323.568 17.2974 323.581 17.2931 323.585C16.6902 324.412 15.9365 325.132 15.213 325.839C14.8297 326.348 13.275 327.378 13.499 327.99C13.9167 328.938 14.8556 329.709 15.002 330.774C15.0106 330.899 15.002 331.046 14.9805 331.166C14.9632 331.257 14.9417 331.356 14.9115 331.451C14.89 331.507 14.8642 331.567 14.8383 331.623C14.8383 331.627 14.834 331.636 14.8297 331.64C14.7953 331.714 14.7565 331.787 14.7091 331.856C14.3431 332.42 13.7617 332.851 13.3224 333.334C12.3706 334.356 11.5567 335.524 10.5618 336.493C9.68326 337.282 8.65396 337.89 7.81847 338.735C6.03981 340.476 5.15265 341.286 8.31374 341.769C9.87706 342.049 11.2767 342.786 12.9003 342.881C12.9305 343.096 12.853 343.316 12.7668 343.51C12.2328 344.437 11.1303 344.825 10.2733 345.359C8.23622 346.514 5.88047 347.036 3.93386 348.359C1.5049 349.941 -0.588141 351.971 -2.44001 354.169C-2.81038 354.613 -2.5649 355.341 -1.99642 355.453C-1.34181 355.582 -0.532157 355.462 0.0406294 355.16C3.79174 354.488 7.48686 356.423 11.225 355.522C11.1518 355.673 11.0657 355.811 10.971 355.966C10.0149 357.384 8.84345 358.681 7.43517 359.655C6.31544 360.427 5.13111 361.129 4.11043 362.039C2.80981 363.224 1.73315 364.672 0.807216 366.172C-0.0541172 367.521 0.393778 368.469 2.04754 368.064C2.90887 367.857 3.74436 368.025 4.61 367.969C4.39898 368.301 4.10181 368.676 3.8348 368.999C3.4472 369.469 2.97347 369.943 2.48251 370.297C2.01739 370.629 1.48337 370.93 1.01394 371.249C-0.127326 372.047 -0.984358 373.133 -1.71649 374.24C-1.74664 375.245 0.0535488 375.21 0.772761 375.395C1.17328 375.443 1.49628 375.512 1.38 376.003V375.995C1.09146 376.947 0.0966158 377.464 -0.652744 378.037C-1.51838 378.675 -2.29358 379.434 -3.07309 380.171C-3.97318 381.02 -4.93788 381.865 -5.94133 382.589C-7.22902 383.584 -8.61577 384.464 -9.74842 385.64C-10.1963 386.101 -10.6055 386.813 -10.0284 387.295C-8.68037 388.166 -6.38061 386.838 -4.8905 386.645C-2.37972 386.308 0.290419 386.36 2.74091 385.877C1.80637 387.201 0.342096 388.119 -0.92837 389.11C-1.63897 389.683 -2.07394 390.183 -2.42278 391.084C-2.54337 391.911 -1.91891 392.023 -1.36765 392.321C-0.721652 392.635 -0.0498095 392.735 0.613418 392.967C1.85804 393.39 3.20172 393.312 4.48942 393.39H4.4765C4.8684 393.398 5.26892 393.416 5.66083 393.42H5.64791C7.90891 393.48 10.1699 393.476 12.4266 393.489C13.2621 393.502 14.1191 393.467 14.9417 393.316C16.5481 393.019 18.1157 392.566 19.692 392.14C20.8246 391.804 21.9874 391.454 23.176 391.454C23.2579 391.454 23.3397 391.454 23.4215 391.459C26.4836 391.571 29.2312 393.316 32.276 393.545C34.9289 393.618 37.5517 393.066 40.1615 392.64C42.0565 392.316 43.9729 392.101 45.8679 391.765C47.5604 391.446 49.2572 391.097 50.9713 390.911H50.9627C52.1039 390.804 53.2667 390.717 54.4123 390.705C56.4752 390.687 58.4606 391.329 60.4933 391.592C61.6432 391.726 62.8792 391.679 64.0635 391.786C65.0153 391.855 68.3831 392.191 67.2074 390.407C66.2169 388.506 62.3667 387.373 60.6742 385.972C60.4675 385.795 60.2909 385.606 60.1531 385.377C60.0928 385.261 59.9981 385.106 60.0713 384.981C60.545 384.757 61.0403 384.615 61.5528 384.546C63.3616 384.403 65.2996 385.27 67.1299 384.856C67.7931 384.731 68.3659 384.196 68.3616 383.494C68.4779 382.115 66.3547 380.236 65.3642 379.339L65.3599 379.348ZM18.7962 308.065L18.7703 308.151C18.7703 308.151 18.7574 308.151 18.7531 308.151L18.7962 308.065ZM38.8308 289.687C38.8308 289.687 38.8394 289.682 38.8437 289.678C38.9083 289.756 38.9729 289.838 39.0418 289.915C38.9729 289.838 38.904 289.76 38.8351 289.687H38.8308Z" fill="#70A1FF"/>
<g style="mix-blend-mode:multiply" opacity="0.35">
<path d="M26.852 288.797C26.852 288.797 26.8563 288.793 26.8606 288.788C26.8692 288.775 26.8778 288.767 26.8821 288.754C26.8735 288.767 26.8606 288.784 26.852 288.797ZM65.3536 379.341C63.9151 378.117 62.494 376.867 61.0254 375.674C60.7971 375.488 60.5775 375.294 60.3578 375.096C60.1468 374.902 59.9444 374.704 59.742 374.51C59.2941 374.032 58.6438 373.626 58.4672 372.963C58.4026 372.644 58.5275 372.325 58.6179 372.023C58.773 371.389 59.2726 370.976 59.686 370.519C60.0262 369.993 59.8583 369.312 59.6602 368.752C59.4405 368.11 58.9582 367.635 58.4155 367.243C58.2648 367.118 58.0624 366.916 57.9289 366.773C57.6188 366.334 57.158 365.972 56.779 365.567C56.512 365.278 56.288 364.968 56.189 364.588C56.1761 364.455 56.1847 364.317 56.2062 364.192V364.218C56.2191 364.028 56.2794 363.825 56.4043 363.679C56.4818 363.588 56.5809 363.519 56.7058 363.489L56.6843 363.498C56.7575 363.476 56.8307 363.45 56.9039 363.433H56.8953C61.1976 362.838 57.7006 360.783 56.0512 359.429C55.6851 359.084 55.3234 358.727 54.9788 358.36C54.5955 357.951 54.2251 357.524 53.8935 357.072C53.5964 356.667 53.3337 356.24 53.1097 355.787C52.9288 355.326 52.8039 354.813 52.8341 354.313V354.322C52.8642 353.882 53.0667 353.313 53.5792 353.296C54.4836 353.227 55.388 353.568 56.288 353.391C57.0589 353.27 57.2312 352.744 56.7489 352.145C56.4603 351.667 55.9909 351.141 55.5861 350.818C54.8453 350.219 54.0055 349.771 53.2002 349.266C53.17 349.249 53.1356 349.227 53.1054 349.206C52.959 349.107 52.8298 349.021 52.7178 348.93C52.636 348.865 52.5628 348.796 52.4896 348.719C52.468 348.689 52.4034 348.62 52.3905 348.59C53.8763 348.559 55.2286 347.844 56.5766 347.31C58.3165 346.848 60.0435 347.68 61.7833 347.534C62.7696 347.486 64.0659 346.775 63.7515 345.629C63.5146 344.84 62.6189 344.551 61.9815 344.146C60.7411 343.418 59.4577 342.659 58.0322 342.4C57.4552 342.267 56.8608 342.107 56.2967 341.922C55.6119 341.694 54.8884 341.538 54.1907 341.323C53.4973 341.103 52.8298 340.823 52.2613 340.336C52.1364 340.237 52.0029 340.107 51.8909 339.991C51.6067 339.646 51.1588 339.069 51.1243 338.608C51.1243 338.595 51.1243 338.577 51.1243 338.564C51.7919 338.526 52.4939 338.448 53.0107 337.996C54.3543 338.263 56.1847 339.052 57.2872 337.875C57.9073 336.94 56.4 335.918 55.81 335.323C54.04 333.892 52.2312 332.526 50.4267 331.147C48.9279 330.013 46.6153 328.583 45.2673 326.85C44.7677 326.203 44.4016 325.522 44.2595 324.794C44.2595 324.794 44.2595 324.794 44.2595 324.79V324.798C44.2466 324.643 44.2466 324.475 44.2983 324.329C44.2983 324.329 44.2983 324.32 44.2983 324.316C44.2983 324.316 44.2983 324.32 44.2983 324.324C44.4146 323.975 44.6041 323.949 44.9098 324.113C45.6764 324.484 46.5894 324.794 47.3991 324.367C47.9719 324.096 48.1915 323.475 48.592 323.036C48.6566 322.967 48.7298 322.906 48.8074 322.855C48.9366 322.773 49.0873 322.725 49.2423 322.717H49.2337C49.3543 322.717 49.4749 322.721 49.5955 322.743C49.6299 322.751 49.7031 322.768 49.7419 322.777C51.3181 323.411 52.9633 325.096 54.7635 324.186C55.8961 323.574 55.3363 322.398 54.8066 321.583C54.4103 320.924 53.9452 320.294 53.4586 319.695C51.2062 316.937 48.3595 314.769 46.0425 312.092C45.8185 311.843 45.5601 311.558 45.306 311.256C44.5481 310.368 43.7643 309.304 43.6092 308.304C43.6092 308.188 43.6006 308.05 43.6867 307.964C44.2466 307.976 44.7892 308.287 45.362 308.239C46.3181 308.132 46.0253 307.364 45.5472 306.847C44.7117 305.804 43.4628 305.278 42.4981 304.365C42.356 304.231 42.2182 304.089 42.0933 303.934C42.0201 303.843 41.9641 303.753 41.9253 303.662C41.8047 303.378 41.8693 303.089 42.1493 302.835C42.4593 302.559 42.8125 302.348 43.0752 302.024C43.1312 301.977 43.1958 301.93 43.2647 301.904C43.7298 301.882 44.2294 302.059 44.6687 301.83C45.797 301.223 43.5618 299.219 43.1398 298.581C42.791 298.089 42.4033 297.611 42.0373 297.115C41.5076 296.391 41.0295 295.637 40.7927 294.775C40.7582 294.611 40.7281 294.447 40.741 294.279C40.741 294.279 40.741 294.275 40.741 294.271V294.279C40.7453 294.159 40.7927 294.029 40.9046 293.973C40.9132 293.969 40.9175 293.965 40.9262 293.96C41.2879 293.84 41.7272 293.848 42.0071 293.564C42.7264 292.741 39.9959 290.65 39.4576 289.999C39.4102 289.956 39.3671 289.909 39.3198 289.861C39.07 289.616 38.8116 289.366 38.5704 289.107C38.4111 288.689 38.1441 288.159 38.4154 287.737L38.4369 287.719L38.4627 287.706L38.4843 287.698C39.7375 288.013 43.2001 289.094 41.9985 286.53C41.2578 285.375 40.1423 284.547 39.2293 283.534C38.7427 283.009 38.2603 282.448 37.7608 281.931C36.865 280.729 36.0984 279.41 35.7539 277.949C35.7237 277.535 35.7237 277.082 35.8831 276.712L35.9046 276.694C35.9433 276.703 35.9778 276.712 36.0166 276.72C37.0459 276.975 38.1656 277.419 39.1647 276.837C39.6256 276.565 40.3706 276.018 39.9873 275.423C39.6988 275.031 39.3671 274.673 39.014 274.345C38.4068 273.777 37.722 273.281 37.0502 272.79C36.1458 272.16 35.0648 271.501 34.6944 270.389C34.5609 270.01 34.4619 269.596 34.5566 269.199C34.5566 269.195 34.5695 269.182 34.5695 269.173L34.5824 269.161C35.517 269.174 36.4386 269.458 37.3689 269.286C39.3413 268.251 35.672 265.82 34.8322 265.105C32.554 263.135 33.0019 258.019 32.5885 255.188C32.4291 253.119 32.0114 251.106 31.3266 249.141C31.2534 249.429 31.2922 249.731 31.2276 250.02C31.2276 250.024 31.2276 250.028 31.2232 250.033C31.3008 253.511 31.7487 256.95 32.4033 260.364C32.6617 262.476 32.4463 264.614 32.7177 266.734C32.7564 267.113 32.7952 267.497 32.821 267.876C32.8253 267.949 32.8296 268.023 32.8339 268.096C32.8555 268.501 32.8727 268.902 32.9115 269.307C32.9502 269.708 33.0148 270.104 33.1311 270.497C33.1957 270.747 33.2603 270.997 33.3378 271.247C33.3335 271.234 33.3292 271.216 33.3206 271.204C33.523 271.755 33.6177 272.354 33.523 272.94C33.3981 273.759 32.8727 274.432 32.5712 275.195C32.5583 275.225 32.5454 275.255 32.5368 275.289C32.5282 275.307 32.5196 275.328 32.5152 275.35C32.5152 275.358 32.5152 275.363 32.5152 275.371C32.5152 275.432 32.4722 275.496 32.4593 275.557C32.4248 275.656 32.399 275.755 32.3774 275.858V275.863C32.3645 275.927 32.3559 275.996 32.3559 276.065C32.3559 276.065 32.3559 276.065 32.3559 276.069C32.3214 276.363 32.498 276.591 32.5885 276.858C32.8684 277.824 32.9459 278.871 32.7779 279.862C32.877 279.936 32.9847 280.005 33.0751 280.091C34.8408 281.573 33.9752 283.487 32.4808 284.767C30.616 286.082 28.3981 287.069 26.8563 288.797C26.8089 288.866 26.7615 288.939 26.7271 289.012C26.7357 289 26.74 288.982 26.7486 288.969C26.2189 289.866 26.3567 291.004 26.9596 291.827C27.9071 293.038 32.3947 290.327 32.7909 292.904C32.9115 292.956 32.8555 293.111 32.7435 293.133C32.6789 293.34 32.5023 293.512 32.3257 293.637C32.0975 293.801 31.8692 293.965 31.6238 294.103C31.4816 294.469 31.262 294.814 30.9476 295.055C32.7521 298.201 39.0011 294.87 34.7289 302.632C34.3886 304.528 34.8581 306.468 35.0906 308.347C34.9916 309.575 34.2896 310.998 33.0665 311.437C31.2103 312.002 29.3326 312.485 27.4377 312.933C27.1534 313.222 26.8477 313.528 26.4601 313.67C26.7271 314.325 27.4377 314.286 27.9932 314.545C29.1604 315.01 29.479 316.342 30.1466 317.277C31.0596 318.131 33.3895 317.937 34.6427 318.109C35.9563 318.213 36.8262 319.73 36.1931 320.902C35.2241 323.337 32.554 324.027 30.4093 325.074H30.4007L30.3921 325.083C29.6858 325.462 28.7943 325.859 28.5359 326.682C29.2852 327.54 30.6332 327.557 31.6367 328.014C32.9416 327.94 34.281 327.621 35.6203 327.876C36.7573 328.078 37.834 328.108 38.9666 327.919C41.3396 328.117 39.8883 330.134 38.7039 330.906C38.7039 330.906 38.6996 330.91 38.6953 330.91C38.0967 331.371 37.4938 331.828 36.8391 332.207C36.8262 332.216 36.8133 332.22 36.8004 332.229C36.1458 332.604 35.4739 332.944 34.7504 333.168C33.523 333.556 32.2827 333.892 31.0337 334.19C31.0251 334.19 31.0122 334.194 30.9993 334.198H30.995C29.6082 334.397 28.5962 335.336 27.3472 335.879C25.7193 336.603 23.7813 336.819 22.4032 338.009C22.2869 338.159 22.0457 338.276 22.0587 338.483C24.9441 339.267 28.1181 338.047 30.9132 339.327C32.3301 339.586 33.3335 340.732 34.6944 341.077C36.3869 341.353 38.2216 341.056 39.6945 342.138C41.9899 344.185 43.0494 342.939 45.4094 343.724C47.3431 345.452 42.8168 346.732 41.6669 347.189C41.7272 347.176 41.7832 347.159 41.8435 347.146C39.505 347.766 37.2397 348.615 34.9141 349.279C32.9502 350.055 31.1328 351.145 29.3068 352.197C30.8529 352.249 32.399 352.27 33.9192 352.55C35.4438 352.641 37.0975 352.503 38.3637 353.52C39.2509 354.175 40.0648 354.943 41.0898 355.382C43.3465 356.339 48.8806 358.093 46.5119 361.36C44.0184 363.791 40.2888 363.498 37.0717 363.64C32.7995 364.235 28.51 364.705 24.268 365.511C24.1129 365.674 24.2034 365.907 24.3412 366.049C27.4032 367.778 31.2189 367.295 34.5437 368.278C37.1449 369.597 47.0632 370.299 39.8581 373.725C39.8624 373.725 39.8667 373.725 39.871 373.721L39.7461 373.786V373.782C39.3155 373.937 38.9279 374.139 38.579 374.428C39.2509 375.01 39.2466 376.01 39.1303 376.816C38.7814 377.786 37.9201 378.462 37.3344 379.29C36.0166 381.466 33.3292 381.41 31.2491 382.354C31.0424 382.466 30.8529 382.604 30.6591 382.738C29.6341 383.514 28.6263 384.328 27.4635 384.893C26.0682 385.673 24.4747 386.375 23.6823 387.854C23.299 389.367 22.4247 390.582 21.3438 391.668C21.9467 391.53 22.5582 391.448 23.1698 391.448C23.243 391.448 23.3162 391.448 23.3851 391.448C24.97 391.478 26.5031 392.026 27.9889 392.521C29.5652 393.125 31.2792 393.008 32.877 393.547C35.3921 393.508 37.8684 393.004 40.3448 392.595C42.1708 392.293 44.0097 392.082 45.8315 391.759C47.524 391.44 49.2208 391.09 50.9349 390.905H50.9262C52.0675 390.797 53.2303 390.711 54.3759 390.698C56.4388 390.681 58.4242 391.323 60.4569 391.586C61.6068 391.72 62.8428 391.672 64.0271 391.776C64.9789 391.845 68.3467 392.185 67.1667 390.397C66.1761 388.496 62.326 387.362 60.6335 385.962C60.4268 385.785 60.2502 385.595 60.1124 385.367C60.0521 385.25 59.9573 385.095 60.0305 384.97C60.5043 384.746 60.9995 384.604 61.512 384.535C63.3208 384.393 65.2588 385.259 67.0892 384.845C67.7524 384.72 68.3252 384.186 68.3209 383.483C68.4371 382.104 66.3097 380.225 65.3234 379.328L65.3536 379.341Z" fill="#4286B8"/>
</g>
</g>
</svg>
