<svg viewBox="0 0 244 208" fill="none" xmlns="http://www.w3.org/2000/svg">
<path d="M212.459 123.22C212.737 121.799 213.484 120.524 214.703 119.395C215.981 118.226 217.79 117.03 220.13 115.808C222.126 114.729 223.507 113.843 224.272 113.152C225.098 112.42 225.625 111.47 225.853 110.303C226.12 108.932 225.883 107.725 225.142 106.681C224.4 105.638 223.347 104.98 221.982 104.709C219.252 104.166 216.777 105.677 214.558 109.243L206.93 103.93C208.735 100.335 211.14 97.8339 214.146 96.4279C217.161 94.9712 220.489 94.6047 224.129 95.3285C226.909 95.8813 229.328 96.9423 231.385 98.5113C233.442 100.08 234.929 102.011 235.847 104.302C236.775 106.543 236.981 108.983 236.466 111.622C236.05 113.754 235.173 115.557 233.835 117.031C232.547 118.515 230.603 120 228.002 121.486C225.572 122.901 223.899 123.939 222.982 124.601C222.116 125.272 221.583 126.115 221.385 127.13C221.296 127.587 221.242 128.13 221.225 128.759L212.58 127.04C212.261 125.712 212.221 124.438 212.459 123.22ZM213.43 147.298C211.407 146.896 209.843 145.899 208.735 144.308C207.638 142.666 207.287 140.83 207.684 138.8C208.07 136.821 209.08 135.281 210.712 134.182C212.345 133.083 214.172 132.735 216.195 133.137C218.217 133.539 219.751 134.556 220.798 136.188C221.896 137.83 222.251 139.64 221.865 141.62C221.468 143.65 220.454 145.215 218.821 146.314C217.249 147.372 215.452 147.7 213.43 147.298Z" fill="#E80024"/>
<path d="M77.4424 149.542C67.7403 156.038 60.8574 154.247 45.516 149.783C36.4708 147.153 18.7653 140.13 13.1689 137.077C7.59934 134.031 4.41298 136.161 4.19869 142.018C3.9844 147.874 4.74329 153.533 9.86036 156.228C14.9774 158.922 44.1452 166.956 48.4703 167.773C52.7614 168.609 59.6583 171.639 82.1417 156.489L229.369 57.1278L224.67 50.1813L77.4424 149.542Z" fill="#CC0000"/>
<path d="M4.70702 144.418C4.92131 138.561 8.08069 136.424 13.6769 139.477C19.2464 142.523 36.9855 149.526 45.9966 152.175C61.3304 156.666 68.2471 158.437 77.9491 151.942L225.173 52.5842L228.595 57.6373L229.365 57.1262L224.666 50.1799L77.4416 149.538C67.7397 156.033 60.857 154.242 45.5159 149.778C36.4709 147.148 18.7658 140.126 13.1695 137.073C7.60009 134.027 4.41381 136.157 4.19952 142.014C4.10226 144.743 4.22152 147.417 4.87741 149.803C4.64887 148.077 4.61711 146.26 4.68016 144.411L4.70702 144.418Z" fill="#FF3333"/>
<path d="M223.975 49.049L220.208 51.5938L226.337 60.6593L230.103 58.1145L223.975 49.049Z" fill="#FF1700"/>
<path d="M222.338 54.7395L122.918 120.104L221.528 53.5743L222.338 54.7395Z" fill="white"/>
<path d="M40.1726 166.918C30.5964 164.347 17.6582 160.586 11.8947 158.379C11.3994 158.188 11.1044 157.678 11.2208 157.136L14.9202 138.355C15.0061 138.034 15.1994 137.741 15.4981 137.592C15.7288 137.482 16.0257 137.447 16.2671 137.511C16.3208 137.526 16.4012 137.547 16.4548 137.562C23.4073 140.806 37.7436 146.435 45.848 148.812C48.0333 149.456 50.3598 150.109 52.4789 150.678C53.23 150.88 53.9543 151.074 54.6785 151.269C54.9736 151.348 55.2132 151.527 55.3437 151.792C55.501 152.064 55.5296 152.387 55.4312 152.648L50.3125 168.349C50.1425 168.878 49.5987 169.191 49.0551 169.074C48.7868 169.002 48.5454 168.937 48.2969 168.899C47.0951 168.662 44.1569 167.931 40.2138 166.872L40.1726 166.918Z" fill="#A2C3FF"/>
<path d="M45.8355 150.675C37.9923 148.397 23.5884 142.808 16.282 139.383L12.5826 158.162C21.2178 161.457 44.9282 167.938 48.7819 168.685C49.0233 168.75 49.2987 168.795 49.567 168.867L54.6854 153.166C52.0424 152.514 49.1329 151.676 45.8283 150.702L45.8355 150.675Z" fill="#1D64E4"/>
<path d="M23.9959 144.321C23.8525 144.747 23.7329 145.196 23.5937 145.608C23.4406 146.017 23.3056 146.415 23.1748 146.8C23.0579 147.189 22.9118 147.523 22.7977 147.852C22.6696 148.177 22.5778 148.483 22.4664 148.752C22.3551 149.022 22.2563 149.249 22.1839 149.44C22.035 149.834 21.9542 150.052 21.9542 150.052C21.9542 150.052 22.1004 149.869 22.3524 149.536C22.4763 149.376 22.6308 149.165 22.7937 148.927C22.9566 148.688 23.118 148.403 23.3018 148.095C23.4856 147.787 23.6958 147.442 23.8503 147.079C24.0229 146.707 24.2136 146.325 24.3987 145.912C24.5699 145.494 24.7411 145.076 24.9067 144.626C25.0682 144.19 25.2059 143.732 25.3576 143.278C25.3827 143.194 25.4077 143.111 25.4328 143.028C25.1208 142.903 24.8088 142.779 24.4968 142.655C24.4634 142.766 24.4342 142.863 24.4008 142.974C24.2672 143.418 24.1476 143.867 24.0001 144.307L23.9959 144.321Z" fill="#A2C3FF"/>
<path d="M16.581 149.27C16.7439 149.031 16.9054 148.746 17.0795 148.42C17.2494 148.108 17.4596 147.762 17.6142 147.4C17.7868 147.028 17.9776 146.646 18.1488 146.228C18.3061 145.806 18.4774 145.388 18.6291 144.934C18.7906 144.498 18.9284 144.04 19.0662 143.581C19.204 143.123 19.3418 142.665 19.4337 142.208C19.5533 141.759 19.6312 141.298 19.7286 140.873C19.7453 140.817 19.7523 140.744 19.755 140.684C19.4848 140.572 19.2187 140.446 18.9484 140.335C18.915 140.446 18.8816 140.557 18.8482 140.668C18.7229 141.085 18.5934 141.515 18.4737 141.964C18.368 142.417 18.2065 142.853 18.0729 143.297C17.9392 143.741 17.8335 144.194 17.672 144.63C17.5425 145.061 17.4089 145.505 17.2837 145.922C17.1444 146.334 17.0094 146.733 16.8925 147.122C16.7756 147.511 16.6391 147.863 16.525 148.193C16.4108 148.522 16.3009 148.837 16.2076 149.097C16.1561 149.217 16.1046 149.338 16.0711 149.449C16.1687 149.479 16.2662 149.508 16.3637 149.537C16.4208 149.449 16.4919 149.364 16.5531 149.261L16.581 149.27Z" fill="#A2C3FF"/>
<path d="M21.2742 143.15C21.1406 143.594 21.0209 144.043 20.8734 144.483C20.73 144.909 20.6103 145.358 20.4851 145.775C20.332 146.183 20.2109 146.586 20.08 146.97C19.9631 147.359 19.8309 147.698 19.7028 148.023C19.5887 148.352 19.4829 148.653 19.3854 148.927C19.2741 149.196 19.1892 149.428 19.0987 149.628C18.9539 150.008 18.869 150.24 18.869 150.24C18.869 150.24 19.0152 150.057 19.2672 149.724C19.3953 149.551 19.5457 149.354 19.7086 149.115C19.8715 148.876 20.0331 148.592 20.2029 148.28C20.3867 147.971 20.5969 147.626 20.7556 147.25C20.9283 146.877 21.119 146.496 21.3042 146.082C21.4615 145.66 21.6327 145.242 21.7983 144.792C21.9598 144.356 22.0976 143.898 22.2493 143.444C22.3871 142.985 22.5249 142.527 22.6306 142.074C22.6473 142.019 22.664 141.963 22.6807 141.907C22.3826 141.787 22.0887 141.653 21.7906 141.533C21.7613 141.63 21.7321 141.728 21.7071 141.811C21.5874 142.26 21.4399 142.7 21.3062 143.144L21.2742 143.15Z" fill="#A2C3FF"/>
<path d="M32.7955 146.228C32.7106 146.46 32.6216 146.706 32.5409 146.924C32.4241 147.312 32.2641 147.643 32.1361 147.968C32.0081 148.292 31.9024 148.594 31.7911 148.863C31.6659 149.128 31.581 149.36 31.4948 149.546C31.332 149.936 31.2514 150.154 31.2514 150.154C31.2514 150.154 31.4114 149.975 31.6632 149.642C31.787 149.483 31.9554 149.276 32.114 149.051C32.2908 148.817 32.4522 148.532 32.6358 148.224C32.8195 147.916 33.0393 147.589 33.2118 147.217C33.3329 146.965 33.4678 146.718 33.5931 146.453C33.3286 146.374 33.0641 146.294 32.7857 146.21L32.7955 146.228Z" fill="#A2C3FF"/>
<path d="M29.0142 148.588C29.177 148.349 29.3524 148.069 29.536 147.761C29.7197 147.453 29.9396 147.125 30.0982 146.749C30.2846 146.381 30.4753 145.999 30.6603 145.586C30.7327 145.395 30.8273 145.182 30.9038 144.978C30.6115 144.889 30.3191 144.801 30.017 144.695C29.9586 144.889 29.9043 145.07 29.832 145.26C29.6789 145.668 29.544 146.067 29.3993 146.447C29.2825 146.836 29.1225 147.167 29.0084 147.496C28.8804 147.821 28.7747 148.122 28.6633 148.391C28.5381 148.656 28.4533 148.888 28.367 149.074C28.2042 149.464 28.1235 149.682 28.1235 149.682C28.1235 149.682 28.2836 149.503 28.5355 149.17C28.6593 149.011 28.8235 148.818 28.9863 148.579L29.0142 148.588Z" fill="#A2C3FF"/>
<path d="M27.2719 143.747C27.2301 143.886 27.1884 144.025 27.1467 144.164C26.9894 144.586 26.8698 145.034 26.7307 145.447C26.5776 145.855 26.4426 146.254 26.3118 146.638C26.1949 147.027 26.0488 147.362 25.9208 147.687C25.7928 148.011 25.687 148.313 25.5896 148.586C25.4783 148.856 25.3795 149.083 25.3072 149.274C25.1485 149.65 25.0776 149.886 25.0776 149.886C25.0776 149.886 25.2376 149.707 25.4896 149.374C25.6134 149.215 25.768 149.004 25.9308 148.765C26.0937 148.526 26.269 148.246 26.4527 147.938C26.6365 147.63 26.8466 147.284 27.015 146.926C27.1876 146.554 27.3922 146.176 27.5772 145.763C27.7484 145.345 27.9195 144.927 28.0851 144.477C28.1269 144.338 28.1644 144.213 28.2201 144.078C27.918 143.972 27.62 143.852 27.3039 143.742L27.2719 143.747Z" fill="#A2C3FF"/>
<path d="M173.301 148.814C169.028 144.797 159.809 138.968 156.303 136.809C162.898 130.748 166.544 121.715 165.336 112.171C164.872 108.502 163.711 105.088 162.039 102.046L162.387 101.837C163.339 101.28 163.664 100.072 163.107 99.1203L157.209 88.9261C156.651 87.974 155.421 87.6489 154.469 88.2062L148.152 91.8752C147.2 92.4325 146.875 93.6401 147.432 94.5921L153.354 104.786C153.911 105.738 155.119 106.064 156.071 105.506L156.721 105.135C157.998 107.503 158.904 110.127 159.252 112.96C160.831 125.221 152.17 136.437 139.909 137.993C132.339 138.968 125.186 136.019 120.449 130.748L120.635 130.516C121.355 129.68 121.262 128.426 120.403 127.706L111.439 120.066C110.603 119.346 109.349 119.439 108.629 120.298L103.892 125.848C103.172 126.684 103.265 127.938 104.124 128.658L113.088 136.298C113.924 137.018 115.178 136.925 115.898 136.066L116.455 135.415C122.493 141.755 131.34 145.261 140.698 144.054C144.925 143.52 148.779 142.057 152.17 139.92C156.187 142.428 164.291 147.653 168.216 151.345C171.072 154.039 171.908 156.222 169.493 158.312L173.858 154.527C176.273 152.437 175.902 151.74 173.324 148.768L173.301 148.814Z" fill="#334466"/>
<path d="M161.964 96.6598L160.339 77.4093C160.339 77.4093 159.224 73.7635 164.31 71.7664C169.395 69.7694 183.026 64.6607 183.026 64.6607C183.026 64.6607 186.928 62.7333 185.952 61.5722C184.977 60.4344 185.488 53.793 185 52.214C184.513 50.6349 178.08 39.8834 178.08 39.8834C178.08 39.8834 175.619 40.5336 174.272 38.0953C172.925 35.6803 171.857 34.4264 171.857 34.4264C171.857 34.4264 149.169 21.91 133.89 26.2292C133.449 25.7415 131.893 24.6501 131.893 24.6501C131.893 24.6501 102.912 24.1393 83.1277 40.8355C63.3662 57.5317 61.5318 72.4631 61.0441 77.8969C60.5565 83.3307 61.4621 88.393 67.3139 94.1751C68.2427 98.0299 72.2368 109.71 75.3949 113.937C75.3717 115.144 74.9305 119.672 74.9305 119.672L80.9217 126.035L85.473 135.184C85.473 135.184 85.4731 136.786 87.3772 136.786C89.2814 136.786 95.0403 137.646 97.1534 137.715C99.2666 137.785 116.938 136.554 116.218 120.764C115.429 116.003 113.478 103.092 113.455 102.79C113.455 102.488 111.945 95.9632 116.241 93.8036C120.514 91.644 131.382 87.1158 131.382 87.1158C131.382 87.1158 135.515 84.1667 140.09 90.5061C144.664 96.8456 148.844 103.115 148.844 103.115C148.844 103.115 151.074 105.391 154.116 104.021C157.134 102.651 159.967 101.281 159.967 101.281C159.967 101.281 162.243 99.6322 162.011 96.6598H161.964Z" fill="#E80024"/>
<path d="M125.349 75.7123C120.403 74.6673 103.219 83.4218 101.361 79.7528C103.01 85.9994 111.555 92.1299 110.696 94.8003C109.837 97.4708 111.137 103.137 111.555 108.013C111.973 112.913 115.689 121.946 113.32 126.358C112.043 128.75 111.579 131.095 111.416 132.744C114.319 130.213 116.432 126.428 116.176 120.785C115.387 116.025 113.436 103.114 113.413 102.812C113.413 102.51 111.904 95.9846 116.2 93.825C120.472 91.6654 131.34 87.1372 131.34 87.1372C131.34 87.1372 133.662 85.4885 136.751 87.323C133.848 83.1432 128.739 76.4322 125.349 75.7123Z" fill="#4D0000"/>
<path d="M131.036 39.2118C132.173 40.5819 131.732 43.3685 131.732 43.3685C131.732 43.3685 130.989 48.7558 130.85 50.1027C130.71 51.4727 130.85 51.5192 131.709 52.0765C140.092 47.6644 175.551 40.4193 177.943 39.9317C177.432 40.0246 175.412 40.2103 174.251 38.1204C172.904 35.7054 171.836 34.4514 171.836 34.4514C171.836 34.4514 149.148 21.9351 133.869 26.2543C133.242 26.4168 132.847 26.7651 132.847 26.7651C132.847 26.7651 131.082 37.7721 131.012 39.1886L131.036 39.2118Z" fill="#CC0000"/>
<path d="M114.173 51.7487C114.614 47.8707 114.522 46.0827 107.207 49.3801C103.445 51.0521 98.6381 53.5368 95.0852 55.9053C86.7023 61.5017 79.1553 74.7379 80.9665 78.6391C82.2669 81.4489 82.5688 77.7799 85.4947 73.8555C88.7225 69.5596 96.1301 64.7295 99.9616 62.8021C114.498 55.4177 113.569 57.229 114.196 51.7487H114.173Z" fill="#CCDCFF"/>
<path d="M90.9287 112.846C85.2395 109.664 67.2893 94.1758 67.2893 94.1758C68.2182 98.0305 72.2122 109.711 75.3703 113.937C75.3703 113.937 86.238 118.303 90.023 119.603C93.8081 120.88 93.9707 120.277 94.6209 117.722C95.2711 115.191 96.6412 116.004 90.9287 112.823V112.846Z" fill="#CC0000"/>
<path d="M104.882 124.063C104.79 122.53 103.466 121.346 101.91 121.439C100.378 121.532 99.1932 122.855 99.2861 124.388C99.379 125.92 100.703 127.105 102.258 127.012C103.814 126.919 104.975 125.595 104.882 124.04V124.063Z" fill="#CCDCFF"/>
<path d="M158.158 91.5742C158.065 90.1577 156.857 89.0663 155.441 89.136C154.024 89.2289 152.933 90.4364 153.002 91.8761C153.095 93.2926 154.303 94.384 155.743 94.2911C157.159 94.1982 158.25 92.9907 158.158 91.551V91.5742Z" fill="#CCDCFF"/>
<path d="M155.163 84.7227C155.07 83.3062 153.862 82.2147 152.446 82.2844C151.029 82.3773 149.938 83.5848 150.008 85.0013C150.1 86.4178 151.308 87.5092 152.724 87.4396C154.141 87.3467 155.232 86.1392 155.163 84.7227Z" fill="#CCDCFF"/>
<path d="M133.05 44.3428C133.422 43.0424 133.143 42.0903 135.813 41.7884C138.484 41.4865 148.167 40.5809 153.601 42.0671C157.27 43.0888 154.6 43.7158 153.578 43.9016C152.556 44.0873 137.648 47.9421 134.908 48.6387C132.168 49.3354 132.26 48.662 132.4 47.5705C132.562 46.4791 133.073 44.3195 133.073 44.3195L133.05 44.3428Z" fill="#CCDCFF"/>
<path d="M67.644 94.5938C67.644 94.5938 83.9687 109.386 88.7987 112.056C92.6071 114.146 91.9337 114.471 91.655 115.238C91.3531 116.004 90.4475 116.538 89.4025 116.399C88.3808 116.259 82.7379 114.332 81.4608 113.519C80.1836 112.706 75.818 106.808 75.0517 105.717C74.3086 104.649 68.8748 96.7069 67.644 94.5938Z" fill="#CCDCFF"/>
<path d="M94.5032 93.0609C94.5032 93.0609 81.8243 84.7011 79.9898 83.0524C78.1553 81.4269 75.6241 76.7594 80.1988 69.2124C84.7734 61.6655 93.551 53.3754 103.234 49.033C112.918 44.6674 123.832 41.5789 129.335 40.3714C129.289 39.5586 128.337 38.3047 128.337 38.3047C128.337 38.3047 112.268 39.9999 101.446 45.2247C88.9068 51.2855 78.132 61.5261 73.1858 69.793C68.2397 78.0598 72.257 80.1962 75.8331 83.4704C79.4092 86.7446 94.5032 93.0376 94.5032 93.0376V93.0609Z" fill="#4D0000"/>
<path d="M178.083 39.9062C178.083 39.9062 177.387 40.0688 176.551 39.9062C147.849 44.597 122.607 54.8376 108.558 63.8011C92.907 73.8096 90.6777 74.5991 103.38 82.1228C105.563 83.4 121.028 73.6006 126.044 77.2231C129.225 79.522 132.523 82.982 135.658 86.8368C136.981 87.3244 138.467 88.3926 140.047 90.5522C141.556 92.6654 143.042 94.7553 144.319 96.613C139.814 88.8803 133.684 80.0097 127.182 75.4815C121.353 71.4177 104.146 80.985 102.962 79.9168C95.0202 72.7414 98.2479 72.811 121.609 60.8752C135.565 53.7462 157.788 46.5244 180.034 43.2501C178.942 41.3692 178.083 39.9527 178.083 39.9527V39.9062Z" fill="#CC0000"/>
<path d="M178.081 39.9062C178.081 39.9062 177.384 40.0688 176.548 39.9062C173.994 40.3242 171.486 40.8119 169.001 41.2995C146.453 46.594 127.156 54.8609 115.545 62.2917C110.878 65.2641 107.441 67.4237 105.212 69.1885C108.858 67.2147 114.222 64.6371 121.629 60.8752C133.38 54.8609 151.028 48.8001 169.605 45.0846C172.995 44.2951 176.409 43.5752 179.869 42.925C178.87 41.2066 178.104 39.9527 178.104 39.9527L178.081 39.9062Z" fill="#4D0000"/>
<path d="M133.407 37.2584C133.779 37.9551 134.081 38.6517 133.523 39.3948C142.394 38.1641 162.922 35.7723 173.302 36.5386C172.443 35.1685 171.815 34.4719 171.815 34.4719C161.645 33.2644 140.258 35.958 133.384 37.2584H133.407Z" fill="#800000"/>
<path d="M130.268 31.2219C130.431 30.7575 130.524 30.2698 130.593 29.7821C131.127 25.9042 132.753 25.3236 122.744 26.7866C85.3811 32.2901 68.0579 61.6652 68.4759 64.3357C68.8939 67.0061 79.7848 41.2768 123.743 34.0085C125.903 33.6601 129.432 33.4279 130.268 31.2219Z" fill="#CC0000"/>
<path d="M122.489 28.4127C128.247 27.5768 130.291 27.391 130.918 28.0412C131.359 25.7423 131.034 25.5333 122.767 26.764C104.515 29.4577 91.0467 37.8406 82.0833 46.0378C91.3951 38.4212 104.794 30.9671 122.512 28.4127H122.489Z" fill="white"/>
<path d="M156.558 31.6638C156.326 30.1079 150.52 27.2053 141.882 26.8802C139.351 26.7873 133.87 26.23 133.034 30.4098C132.431 33.3822 137.052 32.2675 139.026 32.1282C154.027 31.1065 156.86 33.7537 156.535 31.6638H156.558Z" fill="#FF3333"/>
<path d="M176.206 47.0356C175.625 46.5247 173.28 45.6655 174.998 45.3636C177.39 44.9224 178.528 46.4551 179.132 47.1285C181.222 49.4506 181.198 51.4244 180.432 51.7263C179.41 52.1443 180.618 50.7975 176.206 47.0356ZM177.646 52.1443C178.203 51.7495 177.065 49.8918 173.698 48.0806C172.723 47.5465 171.538 46.3622 168.612 47.1053C164.827 48.0573 170.006 48.8236 170.888 49.1952C177.413 52.005 176.902 52.7016 177.646 52.1443ZM173.396 52.9803C173.582 52.4926 170.958 51.2851 166.29 50.3795C159.649 49.0791 159.045 49.3113 151.428 52.3301C150.267 52.7945 156.514 52.4926 162.087 52.423C170.586 52.3301 173.164 53.6305 173.396 52.9803Z" fill="#CC0000"/>
<path d="M174.55 47.1293C173.969 46.6185 171.624 45.7593 173.342 45.4574C175.734 45.0162 176.872 46.5488 177.499 47.2222C179.566 49.5444 179.542 51.5182 178.799 51.8201C177.778 52.2381 179.008 50.8912 174.573 47.1293H174.55ZM176.013 52.2381C176.57 51.8433 175.432 49.9856 172.042 48.1743C171.067 47.6402 169.906 46.4559 166.98 47.199C163.195 48.1511 168.373 48.9174 169.255 49.2889C175.781 52.0987 175.27 52.7954 176.013 52.2381ZM171.763 53.0508C171.926 52.5632 169.325 51.3556 164.657 50.45C158.016 49.1496 157.412 49.3818 149.796 52.4006C148.658 52.865 154.881 52.5632 160.454 52.4935C168.953 52.4006 171.531 53.701 171.763 53.0508Z" fill="#1A2233"/>
<path d="M141.347 27.9932C147.083 28.0396 151.402 29.2704 154.978 30.0599C152.679 28.6434 147.989 27.1108 141.882 26.9018C139.745 26.8321 135.449 26.4141 133.708 28.8756C136.262 27.7842 139.559 27.97 141.347 27.9932Z" fill="white"/>
<path d="M117.194 59.2496C132.915 50.2397 151.956 46.2456 162.035 42.4141C155.3 43.9931 134.889 48.6606 118.378 57.4848C112.666 60.55 99.9869 68.2595 95.8999 72.9038C102.263 67.8183 112.526 61.9201 117.194 59.2496Z" fill="white"/>
<path d="M137.705 64.0786C150.825 59.0627 167.382 55.6956 175.138 53.6289C169.983 54.2094 150.477 58.0178 137.124 63.0568C132.596 64.752 128.323 66.7258 124.538 69.791C129.902 66.8419 133.943 65.4951 137.705 64.0786Z" fill="white"/>
<path d="M92.9979 94.4545C89.654 93.0148 82.7573 88.6956 79.158 87.8828C82.4786 90.2282 85.6367 92.5039 87.7731 93.665C99.3141 100.004 97.5958 100.655 96.0632 104.486C95.6684 105.461 95.2969 106.321 94.9253 107.064C96.5741 107.83 98.246 107.017 100.15 102.257C101.242 99.5632 101.543 98.1467 92.9979 94.4313V94.4545Z" fill="#CC0000"/>
<path d="M74.9611 83.4703C79.2802 87.2554 83.3208 89.206 86.5254 90.994C83.8549 90.5296 79.3499 88.5558 74.636 84.6546C72.9873 83.2845 69.504 80.7302 69.8291 77.7578C71.0134 80.2657 73.6142 82.3092 74.9378 83.4935L74.9611 83.4703Z" fill="white"/>
<path d="M184.772 63.6396C185.655 63.0126 186.491 62.1999 185.98 61.5961C185.005 60.4583 185.515 53.8169 185.028 52.2379C177.225 52.0289 144.576 61.2246 137.447 64.1969C152.378 61.3871 182.682 52.7952 184.772 63.6628V63.6396Z" fill="#4D0000"/>
<path d="M164.799 152.973C162.709 150.952 159.435 148.491 156.602 146.494C164.102 140.735 168.7 131.516 168.12 121.368C167.911 117.56 166.959 113.961 165.426 110.686L165.821 110.501C166.843 110.013 167.261 108.759 166.773 107.737L161.409 96.7999C160.898 95.7781 159.667 95.3601 158.645 95.8478L151.865 99.1685C150.843 99.6793 150.425 100.91 150.913 101.932L156.277 112.869C156.788 113.891 158.018 114.309 159.04 113.821L159.737 113.473C160.898 116.004 161.618 118.767 161.803 121.716C162.547 134.465 152.817 145.402 140.068 146.145C132.196 146.61 125.044 143.057 120.516 137.275L120.725 137.066C121.514 136.253 121.514 134.953 120.702 134.14L111.994 125.618C111.181 124.828 109.88 124.828 109.068 125.641L103.773 131.028C102.984 131.841 102.984 133.141 103.796 133.954L112.504 142.476C113.317 143.266 114.617 143.266 115.43 142.453L116.034 141.826C121.816 148.793 130.687 153.042 140.417 152.485C144.248 152.253 147.847 151.301 151.122 149.768L160.433 156.711C163.104 159.591 167.052 160.403 169.467 158.313L173.832 154.528C171.417 156.618 167.632 155.666 164.799 152.926V152.973Z" fill="#1A2233"/>
</svg>
