<svg viewBox="0 0 287 186" fill="none" xmlns="http://www.w3.org/2000/svg">
<path d="M65.4662 27.3125H268.936C278.77 27.3125 286.781 35.2935 286.781 45.1576V167.742C286.781 177.576 278.8 185.557 268.966 185.557H65.4363C55.6021 185.557 47.6211 177.576 47.6211 167.742V45.1576C47.6211 35.3234 55.6021 27.3125 65.4662 27.3125Z" fill="#E80024"/>
<path d="M265.98 32.0938H68.3685C60.1803 32.0938 53.5425 38.7316 53.5425 46.9198V165.977C53.5425 174.165 60.1803 180.803 68.3685 180.803H265.98C274.168 180.803 280.806 174.165 280.806 165.977V46.9198C280.806 38.7316 274.168 32.0938 265.98 32.0938Z" fill="#CCDCFF"/>
<path d="M262.146 68.2634C259.725 68.5922 255.6 71.5813 251.505 73.9128C253.508 65.6927 254.763 57.3531 254.793 48.864C254.793 48.5949 254.404 48.5949 254.404 48.864C254.345 57.5623 252.94 65.9916 250.817 74.2715C245.766 77.0514 240.953 78.5161 239.698 72.2389C238.682 67.1574 240.176 61.4781 240.983 56.4564C241.581 52.7797 242.478 48.6249 241.94 44.7988C244.391 45.2472 246.872 45.6955 249.353 46.0542C249.502 46.0542 249.562 45.845 249.413 45.8151C246.902 45.3069 244.361 44.7689 241.85 44.2308C241.76 43.8124 241.671 43.364 241.551 42.9754C241.491 42.8259 241.342 42.7363 241.192 42.7662C240.385 42.9456 239.638 43.2444 238.951 43.633C229.595 41.6901 220.179 39.9564 210.554 40.0461C210.404 40.0461 210.404 40.2852 210.554 40.2852C211.421 40.2852 212.258 40.345 213.125 40.3749C211.899 40.7634 210.793 41.6901 209.866 42.5569C207.326 44.9781 205.383 48.0271 203.29 50.807C201.258 53.5271 199.255 56.1874 195.997 57.4129C194.891 57.8314 193.964 57.9509 193.157 57.7716C192.858 57.383 192.589 56.9645 192.32 56.546C191.693 55.5895 191.065 54.6031 190.437 53.6466C189.66 47.8477 191.722 41.6004 189.451 36.0108C189.361 35.8314 189.182 35.7417 189.002 35.8314C185.655 37.4455 183.114 40.2852 180.424 42.7662C178.57 41.6004 176.358 40.8831 174.176 41.451C171.456 42.1684 170.051 45.1874 169.155 47.5787C169.095 47.7281 169.214 47.9074 169.364 47.9373C173.22 48.6547 176.418 46.8912 179.347 44.4999C179.736 44.1711 180.125 43.8423 180.483 43.5135C181.589 44.2309 182.606 45.0678 183.413 45.8151C185.894 48.0868 187.926 50.8368 189.779 53.6466C189.899 54.3939 190.049 55.1411 190.288 55.8585C190.736 57.2335 191.693 58.1601 192.978 58.3993C193.277 58.758 193.576 59.1167 193.875 59.4455C193.725 59.3558 193.606 59.2961 193.456 59.2064C188.793 56.845 183.801 56.546 178.69 57.2634C173.07 58.0704 167.989 58.8477 162.399 57.4129C159.231 56.6058 156.002 55.2906 152.744 56.4863C149.546 57.652 147.304 60.97 146.019 63.9591C144.405 67.8151 143.598 71.9699 142.193 75.8857C140.997 79.2933 138.905 83.5976 134.989 83.5378C134.81 77.2009 135.736 70.864 135.318 64.527C135.288 63.8694 135.198 63.2118 135.138 62.5542C137.41 59.3857 139.682 56.2471 142.103 53.1683C144.674 49.8803 147.424 46.7118 150.353 43.7227C151.788 42.258 153.282 40.9129 154.837 39.5678C155.853 38.701 156.869 37.8939 157.945 37.0868C158.125 37.6248 157.945 38.0732 157.318 38.4319C156.929 38.9102 156.929 38.9102 156.6 39.4782C156.54 39.5678 156.66 39.6276 156.72 39.5379C157.347 38.5216 158.304 37.8341 158.513 36.6384C158.513 36.5488 158.424 36.4292 158.334 36.5189C151.13 41.5705 145.361 48.296 140.07 55.2308C138.367 57.4428 136.693 59.6846 135.049 61.9563C134.66 59.3857 133.913 56.9048 132.448 54.7227C130.475 51.7336 127.127 50.2688 123.72 49.7009C121 49.2525 118.28 48.6847 115.589 48.0868C119.236 44.3205 123.301 41.0025 127.845 38.5814C128.114 38.4319 127.845 38.0135 127.606 38.1629C122.913 40.6439 118.788 44.1113 115.051 47.9673C112.002 47.3096 108.954 46.5922 105.905 45.9645C101.72 45.0977 97.7145 44.4102 93.7389 45.9645C97.8041 41.9591 102.258 38.402 107.489 35.6222C107.668 35.5325 107.489 35.2934 107.339 35.3831C101.869 38.2526 97.1166 42.0787 92.7525 46.383C92.633 46.4428 92.5134 46.5026 92.3639 46.5624C90.3313 47.6086 88.6275 49.2227 87.0732 50.8966C86.9835 50.7472 86.8938 50.5976 86.7743 50.4482C86.565 50.1493 86.1466 50.4183 86.296 50.7471C86.3857 50.9564 86.5053 51.1955 86.5949 51.4047C85.6085 52.4808 84.652 53.5868 83.6656 54.6629C83.1574 55.2308 82.6194 55.7987 82.0814 56.3368C81.9917 56.4264 81.9319 56.2471 81.8422 55.9482C81.7525 55.1112 81.6629 54.3042 81.5732 53.4672C81.5433 53.1085 81.0053 53.1085 81.0053 53.4672C81.0053 54.4536 81.065 55.2906 81.3042 56.1873C81.4237 57.114 81.5134 58.0107 81.633 58.9373C77.7172 63.7797 73.9509 68.7715 70.1846 73.7036C70.095 73.7932 70.2743 73.9427 70.364 73.8232C74.3395 69.3395 78.0161 64.4971 81.7227 59.7743C82.2607 64.1385 82.8585 68.5026 83.6955 72.8368C84.7118 78.0976 85.9672 83.6275 88.2389 88.5894C87.402 87.9617 86.565 87.334 85.7281 86.7063C85.0705 85.4508 84.4129 84.2253 83.6955 83.0895C81.6928 79.8313 78.7036 75.0188 74.3096 75.1981C74.1004 75.1981 73.921 75.4373 74.0705 75.6466C77.1493 80.1303 81.1846 83.8368 85.4292 87.2145C87.4618 90.921 89.4346 95.0459 92.6628 97.7361C92.8123 97.8557 92.9917 97.8259 93.1112 97.6764C93.3504 97.3476 93.5596 97.0487 93.7688 96.7199C94.6656 97.4671 95.652 98.1247 96.7579 98.5731C97.0569 98.6927 97.3857 98.7824 97.6846 98.872C97.4753 98.8122 96.8476 100.127 96.7579 100.247C96.0704 101.413 95.4427 102.608 94.815 103.804C93.6792 106.046 92.6927 108.377 91.7661 110.709C90.9292 112.801 90.152 114.924 89.4047 117.076C88.4482 117.494 87.5216 118.032 86.6547 118.72C80.3477 123.771 77.5678 133.755 77.508 141.557C77.508 141.796 77.8368 141.975 78.0161 141.766C83.8748 134.712 86.864 126.163 89.9129 117.614C96.6384 114.953 105.785 116.179 110.508 109.693C112.301 107.242 112.72 104.013 110.747 101.592C109.94 100.576 108.864 99.7986 107.668 99.141C108.535 97.9753 109.402 96.8096 110.269 95.6438C114.902 89.4862 119.685 83.4481 124.318 77.2906C124.916 77.8286 125.483 78.3667 126.051 78.9047C128.174 80.8775 131.103 84.0161 134.301 84.2851C134.331 85.2715 134.421 86.2579 134.511 87.2443C131.85 87.1546 129.22 87.0949 126.56 87.3041C123.541 87.5732 120.432 88.2606 118.011 90.2334C115.44 92.3258 114.902 95.8231 115.141 98.9318C115.5 103.236 118.848 107.152 121.598 110.261C122.225 110.978 122.913 111.695 123.57 112.383C122.435 113.339 121.299 114.326 120.193 115.342C117.263 114.296 114.274 113.25 111.195 113.698C108.535 114.087 106.742 115.492 105.098 117.524C101.451 122.068 99.3884 128.016 98.0433 133.725C93.3802 137.193 88.508 140.421 83.277 142.902C78.883 144.994 72.9346 147.146 68.3613 144.396C66.4482 143.231 65.2825 141.258 64.5053 139.225C64.4455 139.106 64.2662 139.165 64.2961 139.285C68.5107 150.494 81.2145 144.905 88.6574 140.57C91.8259 138.747 94.8748 136.714 97.8639 134.562C97.7743 135.011 97.6547 135.429 97.565 135.877C96.3096 141.826 95.4128 148.94 97.7444 154.739C103.483 169.116 124.198 146.877 130.057 142.693C133.106 140.511 136.185 138.358 139.383 136.415C139.024 139.674 138.815 142.962 139.024 146.19C139.024 146.339 139.233 146.339 139.263 146.19C139.502 142.782 139.742 139.405 140.07 136.027C141.834 134.981 143.657 133.994 145.54 133.127C146.437 134.293 147.274 135.489 148.111 136.714C146.856 140.78 145.57 144.875 144.464 149C135.049 151.839 125.752 155.127 116.396 157.997C110.03 159.94 103.573 161.883 97.027 163.168C95.3829 163.497 93.6792 163.766 91.9455 163.945C88.9563 163.856 85.9672 163.676 82.9781 163.377C82.8585 163.377 82.7987 163.437 82.7987 163.527C80.8259 163.078 78.9428 162.301 77.2689 161.135C77.1194 161.016 76.9699 161.285 77.1194 161.375C81.4237 164.453 86.8639 164.842 92.0052 164.364C114.483 165.021 136.573 159.88 158.752 156.084C158.812 156.203 158.872 156.293 158.932 156.413C158.483 157.519 158.065 158.654 157.617 159.76C156.301 163.198 154.777 166.815 154.538 170.521C154.538 170.731 154.807 170.91 154.986 170.79C157.826 168.698 160.456 166.337 162.937 163.856C166.614 170.282 170.888 176.29 176.747 181.043C176.866 181.163 177.076 180.983 176.926 180.864C171.337 175.842 167.182 169.744 163.505 163.288C166.375 160.358 169.095 157.25 171.725 154.081C173.818 153.812 175.88 153.543 177.972 153.304C178.152 153.304 178.152 153.005 177.972 153.005C176.03 153.154 174.087 153.334 172.144 153.543C172.951 152.587 173.758 151.6 174.535 150.644C176.358 148.432 178.212 146.19 180.065 144.008C181.32 143.828 182.546 143.649 183.801 143.44C183.981 143.44 183.921 143.111 183.771 143.141C182.695 143.261 181.589 143.38 180.513 143.5C181.739 142.065 182.964 140.66 184.25 139.255C184.877 138.568 185.505 137.94 186.163 137.282C186.222 141.646 186.432 145.981 186.88 150.315C187.358 154.679 188.106 159.013 189.481 163.198C190.467 166.217 191.991 169.894 194.682 171.777C194.831 171.896 194.981 171.657 194.861 171.538C189.391 165.171 188.016 156.771 187.209 148.641C186.82 144.695 186.641 140.75 186.611 136.774C188.375 135.011 190.198 133.307 192.021 131.573C194.921 133.217 197.94 134.682 201.078 135.847C201.228 135.907 201.347 135.638 201.198 135.578C198.179 134.293 195.279 132.769 192.47 131.155C193.486 130.198 194.502 129.212 195.489 128.225C197.013 126.701 198.448 125.087 199.823 123.473C201.766 124.907 203.559 126.492 205.084 128.285C205.203 128.405 205.413 128.255 205.293 128.106C203.828 126.193 202.065 124.549 200.122 123.114C201.975 120.932 203.798 118.69 205.592 116.418C208.282 113.07 210.076 109.155 212.706 105.807C212.856 105.956 213.035 106.106 213.184 106.255C213.304 106.375 213.483 106.195 213.364 106.076C213.214 105.896 213.035 105.747 212.885 105.568C212.975 105.448 213.035 105.358 213.154 105.239C213.603 104.701 214.111 104.193 214.619 103.714C214.679 103.804 214.709 103.894 214.769 103.983C214.858 104.163 215.067 104.163 215.217 104.043C215.486 103.804 215.755 103.535 216.024 103.296C216.233 104.252 216.502 106.076 216.532 106.435C216.741 109.424 216.353 112.413 215.845 115.342C214.888 120.633 213.184 125.744 211.869 130.945C211.779 131.244 212.138 131.453 212.377 131.244C218.804 124.937 223.407 116.448 225.709 107.421C229.445 111.875 233.152 116.299 236.29 121.201C238.293 124.339 240.057 127.747 241.88 131.155C240.027 130.796 238.173 131.155 236.529 132.619C233.271 135.549 235.663 142.274 236.739 145.622C237.097 146.758 237.516 147.864 237.934 148.94C236.709 149.687 235.543 150.494 234.437 151.331C228.698 143.141 225.201 133.127 220.508 124.519C220.388 124.309 220.059 124.399 220.059 124.638C220.627 136.864 224.065 148.85 223.437 161.106C223.168 161.375 222.899 161.614 222.66 161.883C221.823 162.72 220.986 163.587 220.149 164.453C219.342 163.736 218.535 162.989 217.758 162.241C217.309 161.434 216.921 160.597 216.532 159.79C214.44 155.426 212.945 150.793 210.673 146.519C210.524 146.22 210.076 146.519 210.225 146.758C212.437 150.883 213.902 155.964 216.084 160.478C211.481 155.426 207.804 149.388 205.353 143.141C205.293 142.991 205.054 143.051 205.114 143.201C207.535 149.837 211.69 156.801 217.1 162.421C217.698 163.497 218.356 164.543 219.103 165.5C218.654 165.948 218.206 166.426 217.758 166.875C217.04 167.622 216.293 168.339 215.576 169.087C215.785 168.758 216.024 168.429 216.293 168.1C216.353 168.04 216.263 167.921 216.203 168.01C215.576 168.758 215.097 169.595 214.44 170.282C214.32 170.402 214.5 170.551 214.619 170.462C216.263 169.057 217.877 167.532 219.521 165.948C220.418 167.024 221.375 168.01 222.51 168.847C222.63 168.937 222.839 168.847 222.869 168.698C222.959 168.369 223.019 168.04 223.078 167.682C229.355 172.315 236.709 174.975 244.63 174.019C244.75 174.019 244.869 173.869 244.779 173.779C244.032 172.793 243.464 172.106 242.358 171.508C242.298 171.478 242.239 171.567 242.298 171.597C242.807 171.837 243.255 172.165 243.644 172.524C245.317 174.019 243.285 173.75 242.747 173.75C241.701 173.75 240.684 173.72 239.638 173.63C237.396 173.421 235.214 172.913 233.092 172.225C229.535 171.059 226.247 169.176 223.228 166.964C223.557 165.171 223.796 163.377 223.915 161.584C227.263 158.236 230.671 154.918 234.347 152.108C236.828 155.635 239.728 158.804 243.345 161.405C243.524 161.554 243.853 161.315 243.763 161.106C242.149 157.13 240.266 153.304 238.682 149.299C238.682 149.269 238.682 149.239 238.652 149.209C242.418 146.967 246.513 145.413 251.057 145.054C252.073 146.13 253.119 147.146 254.285 148.073C254.494 148.252 254.793 148.133 254.823 147.864C254.883 146.937 254.793 145.981 254.554 145.054C254.913 145.054 255.301 145.084 255.66 145.144C255.839 145.144 255.869 144.875 255.69 144.845C255.271 144.755 254.853 144.695 254.434 144.606C253.418 140.929 250.578 137.312 248.217 134.921C246.782 133.456 244.869 132.111 242.866 131.483C241.222 128.524 239.578 125.535 237.845 122.636C240.206 125.176 242.956 127.299 246.304 128.494C246.453 128.554 246.633 128.434 246.663 128.285C247.589 124.16 248.127 119.437 246.304 115.462C244.959 112.532 242.508 110.35 239.578 109.125C243.374 99.2307 247.201 89.1872 250.04 78.9345C254.135 76.0052 258.35 73.046 261.668 69.3992C261.877 69.1601 262.057 68.921 262.266 68.6819C262.385 68.5025 262.206 68.2036 261.997 68.2335L262.146 68.2634ZM179.347 43.8123C177.584 45.3368 175.641 46.682 173.369 47.3396C173.25 47.3695 169.693 47.9673 169.991 47.1602C170.53 45.6956 171.337 44.3205 172.472 43.2146C174.684 41.0624 177.524 41.8096 179.975 43.2743C179.766 43.4537 179.587 43.633 179.377 43.8123H179.347ZM189.66 52.5406C187.239 48.9836 184.549 45.6058 180.962 43.1846C182.038 42.1982 183.084 41.152 184.16 40.1656C185.027 39.3585 185.924 38.5814 186.88 37.864C187.328 37.5053 188.883 36.1901 189.122 36.8477C190.915 41.8694 189.271 47.3395 189.66 52.5406ZM190.706 55.1711C190.885 55.4401 191.065 55.7091 191.214 56.008C191.513 56.4863 191.812 56.9346 192.141 57.383C191.483 56.9346 191.005 56.1874 190.706 55.1711ZM75.027 75.8259C79.6004 76.1248 82.6194 82.1628 84.6221 85.6003C84.6819 85.69 84.7417 85.8096 84.8015 85.8992C81.1547 82.94 77.7172 79.652 75.027 75.8259ZM78.2553 140.66C78.4346 136.475 79.4509 132.32 80.9455 128.405C82.5596 124.22 85.0705 119.975 89.1955 117.972C86.3558 125.953 83.546 134.024 78.2553 140.66ZM220.747 166.606C220.478 166.307 220.269 166.008 220.029 165.709C220.089 165.619 220.179 165.559 220.269 165.47C221.076 166.187 221.913 166.875 222.779 167.502C222.391 168.758 221.345 167.233 220.777 166.606H220.747ZM223.527 162.271C223.407 163.766 223.198 165.26 222.929 166.755C222.241 166.247 221.584 165.709 220.956 165.171C220.896 165.111 220.807 165.051 220.747 164.991C221.673 164.065 222.6 163.138 223.527 162.212C223.527 162.212 223.527 162.241 223.527 162.271ZM233.331 152.407C230.073 154.948 227.084 157.758 224.154 160.657C224.752 149.059 221.464 137.372 220.747 125.804C225.23 134.233 228.698 143.799 234.198 151.75C233.899 151.959 233.63 152.168 233.361 152.407H233.331ZM242.956 160.388C239.788 157.967 237.157 155.068 234.885 151.899C235.991 151.062 237.127 150.285 238.263 149.568C239.728 153.214 241.432 156.771 242.926 160.388H242.956ZM254.315 147.266C253.508 146.578 252.73 145.831 252.013 145.054C252.671 145.054 253.328 145.024 254.016 145.054C254.195 145.801 254.315 146.549 254.315 147.266ZM247.888 135.399C250.13 137.581 252.82 141.078 253.866 144.576C253.059 144.486 252.252 144.456 251.415 144.486C248.934 141.736 246.932 138.568 245.078 135.339C244.48 134.293 243.913 133.247 243.315 132.201C245.048 132.888 246.603 134.174 247.858 135.399H247.888ZM250.578 144.516C246.364 144.815 242.239 146.519 238.532 148.761C236.918 144.606 234.885 139.434 235.991 135.04C236.559 132.769 238.921 131.663 241.133 131.693C241.521 131.693 241.94 131.752 242.328 131.842C244.749 136.326 247.26 140.78 250.608 144.486L250.578 144.516ZM240.326 43.6629C241.073 43.364 241.192 43.6031 241.252 44.1412C240.804 44.0515 240.355 43.9618 239.907 43.8722C240.027 43.8124 240.176 43.7526 240.296 43.6928L240.326 43.6629ZM238.233 44.1113C233.72 47.1901 231.388 54.1548 228.937 58.4591C227.323 61.2689 224.692 65.3341 220.896 64.7064C217.399 64.1384 217.907 58.8178 218.087 56.3069C218.385 52.0624 221.165 43.0053 215.845 40.5542C223.437 41.152 230.82 42.6765 238.263 44.1113H238.233ZM135.736 84.2253C139.054 83.7172 140.818 80.8775 142.043 78.0079C143.687 74.2715 144.524 70.2362 145.809 66.3803C147.125 62.3748 149.636 57.8613 154.059 56.7852C157.796 55.8885 162.16 58.2498 165.807 58.7879C173.877 59.9835 181.619 56.0977 189.63 58.3694C195.937 60.1629 200.63 64.8259 203.529 70.565C205.891 75.2281 207.176 80.3096 208.432 85.3612C204.994 86.8259 201.407 88.0215 197.79 88.978C196.894 89.2172 195.997 89.3965 195.1 89.6057C195.1 88.3204 195.07 87.0351 194.891 85.7497C194.682 84.3747 194.353 83.0297 193.875 81.7145C193.665 79.652 193.546 77.5596 193.546 75.4672C193.546 75.1085 193.008 75.0188 192.918 75.3775C192.709 76.3639 192.53 77.3503 192.32 78.3068C190.198 74.5107 187 71.2227 183.443 68.8314C184.877 64.6466 185.415 60.0134 181.38 58.6085C179.258 57.8612 177.644 59.0868 176.089 60.4618C174.535 61.8667 173.13 63.4808 171.845 65.1547C168.617 65.1248 165.388 65.7824 162.399 67.0976C158.872 65.6927 155.046 66.9781 152.176 69.7281C151.1 70.7444 150.263 71.9699 149.576 73.2851C147.453 72.7471 145.242 73.046 144.136 75.1981C143.568 76.2742 143.358 77.5596 143.329 78.9047C142.163 81.6846 141.176 84.5243 140.309 87.4237C139.562 87.4237 138.845 87.3638 138.098 87.334C137.141 87.3041 136.214 87.2742 135.258 87.2145C135.258 87.0052 135.228 86.8258 135.198 86.6166C135.138 85.8394 135.079 85.0623 135.049 84.2851C135.288 84.2851 135.497 84.2851 135.736 84.2253ZM198.627 62.883C199.345 63.152 200.122 63.3612 200.929 63.4808C203.948 63.9591 206.967 63.4808 209.866 64.7362C211.869 65.6329 213.752 66.7389 215.516 68.0243C218.804 70.4454 221.345 73.584 223.168 77.1112C220.807 78.7552 218.445 80.2199 215.934 81.6546C213.663 82.9699 211.331 84.1357 208.94 85.1819C206.877 76.8123 204.695 68.4727 198.627 62.8531V62.883ZM159.559 145.054C160.038 140.391 161.114 135.758 162.877 131.453C166.076 134.114 164.641 140.271 163.445 144.277C162.13 144.516 160.845 144.785 159.559 145.084V145.054ZM163.326 144.695C163.326 144.695 163.266 144.934 163.236 145.024C162.399 145.114 161.562 145.203 160.755 145.293C161.622 145.084 162.489 144.875 163.356 144.665L163.326 144.695ZM144.973 108.467C144.733 109.394 144.524 110.35 144.285 111.307C141.415 113.788 138.546 116.269 135.557 118.57C135.676 117.464 135.766 116.358 135.886 115.252C136.842 114.595 137.769 113.818 138.665 112.891C140.339 111.187 141.804 109.155 143.059 107.002C143.329 106.913 143.568 106.853 143.837 106.763C144.853 107.271 145.809 107.839 146.736 108.527C146.796 108.706 146.886 108.886 146.945 109.035C146.318 109.543 145.69 110.081 145.092 110.589C144.973 110.679 144.883 110.769 144.763 110.888C144.943 110.111 145.122 109.334 145.301 108.587C145.361 108.348 145.002 108.258 144.943 108.497L144.973 108.467ZM144.136 77.7389C144.225 76.7525 144.494 75.796 145.002 74.959C145.929 73.4944 147.543 73.315 149.277 73.7634C147.962 76.4237 147.244 79.4726 146.856 82.3422C146.617 84.1357 146.497 85.959 146.497 87.7824C146.348 87.7824 146.198 87.7824 146.049 87.7824C145.062 85.9291 144.674 83.5378 144.345 81.6546C144.136 80.5188 144.016 79.2634 144.106 78.0378C144.106 78.0378 144.106 78.008 144.106 77.9781C144.106 77.9183 144.106 77.8585 144.106 77.8286L144.136 77.7389ZM191.693 118.421C191.065 118.152 190.437 117.913 189.809 117.674C189.002 116.986 188.195 116.299 187.388 115.641C188.524 115.641 189.66 115.641 190.796 115.641C191.304 116.657 191.842 117.703 192.41 118.72C192.171 118.6 191.932 118.511 191.693 118.391V118.421ZM192.709 119.228C193.068 119.886 193.456 120.513 193.875 121.141C192.769 120.214 191.693 119.258 190.587 118.301C191.304 118.6 192.021 118.899 192.709 119.228ZM174.116 114.505C174.116 114.505 174.356 114.505 174.475 114.535C171.755 115.671 168.796 116.149 165.926 115.611C161.144 114.714 158.424 110.53 158.005 105.956C157.945 105.329 157.945 104.671 158.005 104.073C161.801 103.924 165.627 104.282 169.424 105.508C173.28 106.763 176.807 108.646 180.184 110.888C179.736 111.307 179.288 111.695 178.809 112.054C177.733 112.891 176.538 113.608 175.282 114.206C174.894 114.176 174.535 114.117 174.146 114.117C173.877 114.117 173.877 114.505 174.146 114.535L174.116 114.505ZM157.258 129.451C156.69 125.864 155.853 122.337 154.598 118.929C154.747 118.57 154.867 118.182 154.986 117.823C155.106 117.883 155.195 117.973 155.315 118.032C156.839 120.035 158.693 121.799 160.964 122.875C160.097 125.057 159.261 127.239 158.483 129.451C158.095 129.451 157.676 129.451 157.258 129.451ZM158.274 129.989C158.035 130.617 157.826 131.274 157.587 131.932C157.497 131.274 157.437 130.617 157.318 129.959C157.646 129.959 157.945 129.959 158.274 129.959V129.989ZM156.511 118.69C157.766 119.318 159.051 119.796 160.307 120.065C160.636 120.782 160.964 121.47 161.263 122.187C161.203 122.187 161.174 122.247 161.144 122.277C159.35 121.44 157.796 120.184 156.481 118.66L156.511 118.69ZM155.793 117.793C155.614 117.554 155.434 117.315 155.255 117.076C155.733 115.761 156.242 114.445 156.75 113.13C157.886 115.282 159.021 117.375 160.008 119.437C158.543 119.108 157.138 118.54 155.793 117.823V117.793ZM154.956 116.627C153.282 114.176 152.027 111.367 151.04 108.856C150.801 108.228 150.562 107.6 150.353 106.973C151.1 106.345 151.877 105.747 152.625 105.119C153.85 107.63 155.165 110.141 156.481 112.592C155.972 113.937 155.464 115.282 154.956 116.627ZM147.603 99.0514C147.962 100.935 148.41 102.818 148.978 104.701C148.111 104.91 147.274 105.119 146.437 105.329C146.079 103.027 146.557 100.905 147.633 99.0514H147.603ZM146.407 107.57C145.809 107.182 145.182 106.793 144.524 106.464C145.002 106.315 145.511 106.195 145.989 106.046C146.108 106.554 146.228 107.062 146.407 107.57ZM147.932 90.5025C148.111 92.3857 148.53 94.2688 149.068 96.1818C148.888 96.3612 148.709 96.5405 148.53 96.7199C148.32 96.959 148.111 97.228 147.902 97.4671C147.483 94.9862 147.244 92.5052 147.155 90.0242C147.394 90.2036 147.663 90.3829 147.932 90.5025ZM147.155 89.1873C147.155 88.9183 147.155 88.6492 147.155 88.3802C147.394 88.3802 147.603 88.4101 147.842 88.44C147.842 88.8884 147.842 89.3367 147.902 89.7851C147.663 89.6356 147.424 89.4563 147.184 89.2171L147.155 89.1873ZM190.646 101.592C190.646 101.921 190.706 102.22 190.736 102.519C189.809 104.163 188.703 105.777 187.478 107.301C187.209 106.733 186.97 106.165 186.701 105.598C186.342 104.85 186.013 104.073 185.655 103.326C186.103 101.712 186.222 100.038 185.924 98.3041C185.356 95.016 182.905 92.7443 180.035 91.3095C180.005 91.2199 179.945 91.16 179.915 91.0704C181.918 91.1003 183.921 91.1003 185.953 91.0704C187.179 91.0405 188.375 90.9508 189.57 90.8313C189.839 90.9508 190.138 91.0704 190.407 91.19C190.228 94.6573 190.377 98.0949 190.676 101.592H190.646ZM166.554 85.7796C168.497 85.6003 170.47 85.6302 172.413 85.8096C171.486 86.8558 170.589 87.872 169.663 88.8584C169.603 88.9182 169.543 88.9781 169.513 89.008C169.394 89.008 169.274 89.008 169.155 89.008C168.318 87.902 167.451 86.8258 166.584 85.7497L166.554 85.7796ZM168.856 89.6954C168.856 89.6954 168.706 89.8449 168.616 89.9346C168.019 89.8748 167.421 89.815 166.823 89.7552C167.481 89.7253 168.168 89.6955 168.826 89.6656C168.826 89.6656 168.826 89.6655 168.826 89.6954H168.856ZM169.991 89.6656C172.233 89.6955 174.625 89.9645 176.866 90.5922C174.535 90.4726 172.233 90.2932 169.902 90.0541C169.872 89.9943 169.812 89.9345 169.782 89.8747C169.842 89.7851 169.932 89.7253 169.991 89.6656ZM178.241 91.0405C178.66 91.19 179.108 91.3693 179.497 91.5786C180.663 93.94 181.769 96.3313 182.875 98.7226C183.622 100.307 184.339 101.891 185.057 103.475C184.369 105.568 183.114 107.57 181.679 109.244C177.913 102.997 174.445 96.5106 170.261 90.5623C172.921 90.8014 175.581 90.9509 178.241 91.0405ZM180.394 92.0269C181.5 92.6546 182.546 93.4318 183.413 94.3584C185.684 96.8095 186.043 99.7388 185.326 102.579C183.712 99.0513 182.068 95.5242 180.394 92.0269ZM179.736 90.7117C179.078 89.3666 178.421 88.0514 177.733 86.7362C181.53 87.6329 185.236 89.0079 188.703 90.4726C185.744 90.7416 182.725 90.8014 179.736 90.7117ZM179.049 90.7117C178.869 90.7117 178.69 90.7117 178.511 90.7117C178.152 90.5622 177.793 90.4426 177.434 90.3231C175.312 89.6655 172.981 89.247 170.559 89.1275C171.516 88.1111 172.472 87.0351 173.369 85.9889C174.565 86.1384 175.76 86.3476 176.986 86.6166C177.703 87.9916 178.391 89.3666 179.078 90.7416L179.049 90.7117ZM173.728 85.5106C174.266 84.853 174.834 84.2253 175.342 83.5378C175.79 84.3449 176.209 85.1818 176.657 85.9889C175.671 85.7797 174.714 85.6302 173.728 85.5106ZM172.801 85.391C170.589 85.1519 168.377 85.122 166.195 85.391C164.82 83.8068 163.386 82.2525 161.831 80.8177C161.831 80.8177 161.771 80.7878 161.771 80.7579C162.549 79.6221 163.296 78.4563 164.043 77.3503C165.239 75.5568 166.464 73.7932 167.69 72.0297C170.589 75.2579 172.861 79.084 174.983 82.8802C174.296 83.747 173.578 84.584 172.831 85.421L172.801 85.391ZM165.418 85.4807C165 85.5405 164.611 85.6003 164.193 85.6601C163.894 85.7198 164.043 86.1384 164.312 86.1085C164.79 86.0188 165.269 85.959 165.777 85.8992C166.345 86.5568 166.913 87.2443 167.451 87.9318C167.75 88.2905 168.019 88.6791 168.318 89.0677C166.763 89.0677 165.179 89.2172 163.625 89.4563C161.114 89.1574 158.603 88.8585 156.122 88.5894C155.614 88.5297 155.136 88.4998 154.627 88.44C156.391 86.9753 157.975 85.152 159.38 83.6873C160.097 82.94 160.725 82.1329 161.323 81.296C162.758 82.6112 164.103 84.0161 165.388 85.5106L165.418 85.4807ZM150.981 90.622C152.027 90.2633 153.013 89.6655 153.94 88.978C156.54 89.2172 159.141 89.4862 161.742 89.7552C157.078 90.7416 152.684 92.7144 149.486 95.7633C149.038 94.1193 148.709 92.4753 148.559 90.7715C149.277 90.9509 150.084 90.9508 150.951 90.6519L150.981 90.622ZM148.5 90.084C148.47 89.546 148.44 89.0079 148.41 88.4698C149.905 88.5894 151.429 88.7389 152.924 88.8584C151.459 89.8747 149.905 90.5323 148.5 90.0541V90.084ZM157.258 84.8829C156.361 85.7797 155.076 87.1846 153.641 88.3204C151.877 88.1411 150.144 87.9916 148.41 87.8721C148.41 87.6927 148.41 87.5133 148.41 87.334C148.5 82.8204 150.144 78.6356 152.804 75.1981C154.538 76.1248 156.092 77.2307 156.989 77.8286C158.334 78.7253 159.619 79.7416 160.815 80.8177C159.709 82.2525 158.543 83.6275 157.258 84.8829ZM148.051 98.3638C148.41 97.8258 148.799 97.3177 149.247 96.8394C149.994 99.2606 150.981 101.682 152.117 104.103C151.25 104.252 150.413 104.432 149.546 104.611C148.918 102.579 148.41 100.486 148.051 98.3938V98.3638ZM152.236 104.671C151.519 105.239 150.801 105.807 150.114 106.405C149.994 106.016 149.875 105.598 149.725 105.179C150.562 105 151.399 104.82 152.236 104.671ZM149.665 96.3911C150.622 95.4346 151.698 94.5975 152.864 93.8801C156.301 91.7579 160.307 90.5623 164.342 90.0242C164.641 90.0242 164.94 90.084 165.239 90.1139C166.225 90.2036 167.212 90.3232 168.168 90.4128C166.225 92.4156 164.193 94.3884 162.1 96.2715C160.905 96.8693 159.948 97.7362 159.231 98.8123C158.214 99.6791 157.198 100.576 156.182 101.413C155.195 102.25 154.179 103.087 153.163 103.894C152.983 103.894 152.774 103.954 152.595 103.983C151.429 101.502 150.413 98.9617 149.665 96.3911ZM158.394 100.367C158.005 101.323 157.736 102.369 157.587 103.445C156.481 103.505 155.405 103.595 154.299 103.744C155.674 102.638 157.049 101.502 158.394 100.367ZM172.562 106.046C167.78 103.924 162.937 103.206 158.005 103.415C158.184 102.07 158.573 100.755 159.231 99.6492C160.426 98.603 161.652 97.5568 162.877 96.4808C163.804 96.1221 164.82 95.9427 165.986 95.9726C166.285 95.9726 166.285 95.5242 165.986 95.5242C165.179 95.4943 164.432 95.5541 163.744 95.7036C165.597 94.0297 167.421 92.296 169.184 90.5025C169.274 90.5025 169.334 90.5025 169.424 90.5025C173.818 96.5704 177.375 103.266 181.231 109.723C180.991 109.962 180.782 110.231 180.543 110.44C178.032 108.766 175.402 107.242 172.592 106.016L172.562 106.046ZM181.53 110.29C181.858 110.829 182.187 111.367 182.516 111.875C182.008 111.516 181.53 111.157 181.021 110.829C181.201 110.649 181.38 110.47 181.559 110.29H181.53ZM181.978 109.842C183.472 108.198 184.668 106.285 185.385 104.252C185.953 105.478 186.491 106.674 187.059 107.869C185.894 109.274 184.608 110.619 183.233 111.875C182.815 111.187 182.396 110.53 181.978 109.842ZM187.299 108.407C188.076 110.081 188.853 111.725 189.66 113.399C189.929 113.967 190.228 114.565 190.527 115.133C189.271 115.133 187.986 115.133 186.731 115.133C185.804 114.386 184.847 113.638 183.891 112.921C183.771 112.742 183.652 112.532 183.532 112.353C184.907 111.127 186.163 109.812 187.328 108.437L187.299 108.407ZM187.717 107.899C188.883 106.464 189.929 105 190.826 103.505C191.364 107.421 192.529 111.247 193.456 115.073C192.769 115.073 192.081 115.103 191.394 115.133C191.274 115.133 191.184 115.133 191.065 115.133C189.869 112.742 188.793 110.29 187.717 107.899ZM191.095 91.5486C192.141 91.997 193.157 92.5052 194.174 93.0134C193.785 95.4047 193.038 97.796 192.021 100.008C191.782 100.516 191.513 101.054 191.244 101.562C190.856 98.1845 190.826 94.8367 191.065 91.5486H191.095ZM191.125 90.9807C191.125 90.9807 191.125 90.8014 191.125 90.6819C192.201 90.5623 193.277 90.3829 194.353 90.2036C194.353 90.353 194.413 90.5025 194.443 90.6519C194.413 91.2498 194.323 91.8476 194.233 92.4454C193.187 91.9373 192.141 91.459 191.095 90.9807H191.125ZM191.184 90.2334C191.483 86.8856 191.991 83.5378 192.619 80.19C192.858 80.6683 193.038 81.1466 193.217 81.6248C193.486 84.3449 193.845 87.0351 194.293 89.7253C193.247 89.9047 192.201 90.084 191.184 90.2036V90.2334ZM190.706 87.6031C190.587 88.4998 190.497 89.4263 190.437 90.3231C190.228 90.3231 190.019 90.353 189.809 90.3829C185.924 88.6791 181.709 87.1248 177.405 86.1683C176.866 85.1519 176.358 84.1356 175.79 83.1492C175.79 83.1193 175.731 83.0596 175.731 83.0297C177.674 80.4591 179.407 77.7688 180.842 74.9291C181.47 73.6737 182.456 71.6411 183.263 69.4291C187 71.8802 190.108 75.3476 192.171 79.2335C191.633 82.0133 191.095 84.7933 190.736 87.6031H190.706ZM182.905 68.4428C179.676 66.3803 176.179 65.3341 172.682 65.1547C174.236 63.152 175.97 61.2091 178.002 59.7743C179.198 58.9374 180.184 58.7281 181.559 59.3259C183.592 60.2226 183.891 62.5542 183.741 64.4971C183.652 65.8123 183.353 67.1276 182.934 68.4428H182.905ZM182.695 69.0705C181.948 71.1927 180.932 73.2254 179.975 75.1683C178.72 77.6792 177.106 80.0704 175.342 82.3422C173.28 78.6357 170.978 74.6601 168.049 71.4617C168.945 70.1764 169.872 68.8613 170.828 67.6058C171.277 66.9781 171.755 66.3803 172.233 65.7526C175.97 65.902 179.527 67.1276 182.695 69.1004V69.0705ZM169.394 68.4128C168.766 69.2498 168.198 70.1167 167.6 70.9536C166.554 69.8775 165.418 68.8612 164.193 68.0243C163.834 67.7552 163.445 67.546 163.057 67.3666C165.508 66.3802 168.078 65.7824 170.709 65.6927C170.948 65.6927 171.157 65.6927 171.396 65.6927C170.709 66.5895 170.051 67.4862 169.394 68.3829V68.4128ZM167.002 71.2824C167.002 71.2824 167.152 71.4617 167.242 71.5514C165.269 74.4807 163.356 77.4699 161.233 80.2797C158.812 78.1275 156.092 76.2145 153.163 74.7199C155.584 71.671 158.812 69.2199 162.399 67.6656C164.193 68.4726 165.717 69.9074 167.032 71.2824H167.002ZM152.684 74.5107C152.057 74.2118 151.399 73.9128 150.742 73.6438C150.562 73.5541 150.353 73.4943 150.174 73.4346C150.951 72.0596 151.907 70.8042 153.073 69.7281C155.016 67.9645 157.915 66.6792 160.576 67.1275C160.964 67.1873 161.323 67.3069 161.682 67.4265C158.244 69.0406 155.106 71.4617 152.684 74.5405V74.5107ZM152.326 74.9291C152.057 75.2579 151.818 75.6166 151.578 75.9454C148.918 79.8313 147.812 83.8068 147.782 87.8122C147.543 87.8122 147.334 87.7824 147.125 87.7525C147.125 87.603 147.125 87.4536 147.125 87.3041C147.184 82.9101 147.782 77.9481 149.905 73.9128C150.712 74.1818 151.549 74.5405 152.326 74.9291ZM145.062 86.9155C145.152 87.1846 145.271 87.4237 145.391 87.6628C143.837 87.5731 142.282 87.4835 140.728 87.3938C141.475 84.8232 142.342 82.2823 143.358 79.7715C143.538 82.3122 144.345 84.9427 145.092 86.8856L145.062 86.9155ZM145.69 88.2905C145.929 88.709 146.198 89.0976 146.497 89.4563C146.587 92.3856 146.915 95.3149 147.424 98.1845C145.899 100.516 145.481 103.027 145.869 105.508C145.152 105.687 144.405 105.897 143.687 106.106C143.657 106.106 143.598 106.076 143.568 106.046C145.002 103.356 146.019 100.426 146.587 97.5568C146.646 97.2579 146.318 97.0785 146.108 97.2579C143.358 99.4698 140.429 100.217 138.307 97.6166C138.934 94.3584 139.682 91.1302 140.579 87.9318C142.282 88.0215 144.016 88.1411 145.72 88.2607L145.69 88.2905ZM137.858 97.0785C137.739 96.9291 137.649 96.7498 137.53 96.5704C136.065 93.94 135.587 90.7416 135.288 87.7226C136.902 87.7823 138.516 87.8421 140.13 87.9318C139.233 90.9508 138.486 93.9997 137.858 97.0785ZM138.098 98.4535C138.337 98.6926 138.576 98.9318 138.845 99.141C141.146 100.875 143.717 99.7389 145.809 98.2144C145.212 100.845 144.225 103.416 142.94 105.807C141.117 105.03 139.204 104.492 137.201 104.073C137.47 102.19 137.769 100.337 138.098 98.4834V98.4535ZM142.701 106.195C142.701 106.195 142.611 106.345 142.581 106.405C140.549 107.032 138.546 107.72 136.573 108.497C136.752 107.152 136.902 105.807 137.111 104.462C139.024 104.85 140.907 105.388 142.701 106.195ZM142.103 107.242C141.296 108.587 140.399 109.872 139.413 111.098C138.337 112.413 137.171 113.519 135.915 114.445C136.095 112.682 136.304 110.948 136.513 109.185C138.426 108.467 140.309 107.839 142.103 107.271V107.242ZM135.975 108.766C133.584 109.752 131.252 110.858 129.011 112.114C128.353 112.502 127.666 112.891 127.008 113.339C126.5 112.742 125.992 112.114 125.513 111.486C126.44 110.679 127.396 109.902 128.383 109.185C128.532 109.065 128.383 108.796 128.233 108.915C127.217 109.603 126.201 110.35 125.244 111.098C124.945 110.709 124.646 110.29 124.348 109.872C123.032 108.019 121.986 105.956 121.239 103.804C121.119 103.475 125.573 103.535 126.081 103.535C129.549 103.535 133.106 103.714 136.543 104.372C136.334 105.837 136.125 107.301 135.945 108.766H135.975ZM129.1 116.538C128.233 115.79 127.396 115.013 126.56 114.206C126.649 114.146 126.739 114.087 126.829 114.027C127.576 114.894 128.323 115.701 129.1 116.538ZM126.53 113.668C126.53 113.668 126.32 113.818 126.201 113.877C125.663 113.369 125.125 112.831 124.587 112.293C124.736 112.144 124.916 111.994 125.065 111.875C125.543 112.473 126.021 113.1 126.5 113.668H126.53ZM128.771 117.016C127.486 117.076 126.141 116.956 124.706 116.627C124.407 116.568 124.138 116.478 123.839 116.388C124.527 115.731 125.274 115.133 126.051 114.535C126.948 115.372 127.845 116.179 128.771 116.986V117.016ZM129.399 117.554C130.565 118.54 131.731 119.527 132.896 120.454C130.087 122.456 127.098 124.28 123.839 125.326C122.225 125.834 120.521 126.073 118.848 125.625C118.041 125.415 120.312 120.693 120.551 120.304C121.329 119.049 122.255 117.883 123.301 116.837C123.301 116.837 123.301 116.837 123.331 116.837C125.454 117.464 127.456 117.703 129.339 117.524L129.399 117.554ZM130.714 117.375C132.299 117.076 133.823 116.448 135.258 115.551C135.168 116.687 135.079 117.793 134.989 118.929C134.481 119.318 133.943 119.706 133.405 120.095C132.508 119.198 131.611 118.271 130.714 117.375ZM130.206 116.867C129.22 115.82 128.233 114.774 127.307 113.668C129.937 111.935 132.926 110.559 135.886 109.394C135.676 111.217 135.497 113.011 135.318 114.834C133.733 115.85 132.03 116.568 130.206 116.867ZM146.557 106.225C146.557 106.225 146.527 106.046 146.497 105.926C147.364 105.687 148.231 105.478 149.098 105.269C149.247 105.777 149.426 106.285 149.576 106.763C148.888 107.301 148.201 107.869 147.543 108.437C147.424 108.348 147.304 108.258 147.214 108.168C146.945 107.54 146.736 106.883 146.587 106.225H146.557ZM148.021 109.513C149.994 111.217 151.459 113.339 152.625 115.641C150.532 113.877 148.799 111.665 147.663 109.214C147.782 109.334 147.902 109.424 148.021 109.513ZM148.021 108.826C148.589 108.348 149.187 107.839 149.755 107.361C150.652 109.932 151.758 112.443 153.103 114.804C153.551 115.581 154.03 116.358 154.538 117.106C154.179 116.867 153.79 116.627 153.432 116.358C153.282 116 153.133 115.641 152.953 115.282C151.668 112.592 149.964 110.5 147.992 108.856L148.021 108.826ZM154.538 117.554C154.448 117.793 154.358 118.032 154.299 118.271C154.149 117.883 154 117.494 153.82 117.106C154.059 117.255 154.299 117.405 154.538 117.584V117.554ZM156.481 129.451C154.388 129.63 152.296 130.108 150.622 130.587C151.788 126.94 152.983 123.293 154.269 119.676C155.345 122.875 155.972 126.282 156.481 129.451ZM156.57 129.959C156.75 131.095 156.899 132.231 157.049 133.396C155.823 137.133 154.717 140.959 153.88 144.785C152.296 141.945 150.652 139.165 148.828 136.505C149.157 135.399 149.486 134.293 149.815 133.187C150.024 132.5 150.233 131.842 150.443 131.155C152.415 130.527 154.508 130.049 156.57 129.929V129.959ZM157.198 134.652C157.587 138.209 157.856 141.766 158.125 145.323C157.288 145.502 156.451 145.712 155.584 145.921C155.255 145.981 154.926 146.04 154.568 146.07C154.448 145.861 154.328 145.652 154.209 145.443C155.076 141.796 156.062 138.209 157.198 134.682V134.652ZM157.706 133.068C158.035 132.051 158.394 131.035 158.722 129.989C159.44 130.049 160.127 130.168 160.815 130.347C161.443 130.527 161.951 130.736 162.429 131.035C160.636 135.519 159.5 140.271 158.992 145.114C158.902 145.114 158.812 145.144 158.693 145.174C158.424 141.138 158.184 137.073 157.706 133.068ZM162.758 130.228C162.758 130.228 162.698 130.407 162.668 130.497C161.622 129.839 160.337 129.54 158.962 129.421C159.709 127.269 160.516 125.117 161.353 122.994C161.532 123.054 161.682 123.144 161.861 123.203C162.07 123.263 162.309 123.054 162.22 122.845C161.861 121.948 161.443 121.051 161.024 120.184C163.953 120.723 166.883 120.573 169.722 119.886C166.674 122.636 164.372 126.372 162.758 130.228ZM160.725 119.527C158.364 114.625 155.405 109.782 152.983 104.761C153.133 104.641 153.252 104.521 153.402 104.432C154.777 104.223 156.152 104.073 157.527 104.013C157.377 105.867 157.617 107.75 158.214 109.483C160.785 116.956 169.184 117.375 175.402 114.565C176.597 114.684 177.793 114.834 179.019 115.043C178.75 115.223 178.481 115.432 178.182 115.611H178.122C175.312 116.119 172.891 117.315 170.799 118.959C167.511 119.915 164.103 120.184 160.695 119.527H160.725ZM176.179 114.206C177.733 113.429 179.258 112.383 180.603 111.127C181.231 111.546 181.858 111.994 182.486 112.443C181.559 113.25 180.573 113.967 179.557 114.685C178.451 114.475 177.315 114.326 176.179 114.176V114.206ZM182.905 112.771C182.905 112.771 183.144 112.951 183.263 113.04C183.682 113.698 184.13 114.356 184.549 115.043C183.622 115.043 182.695 115.103 181.769 115.163C181.26 115.043 180.752 114.924 180.244 114.834C181.141 114.176 182.038 113.489 182.875 112.771H182.905ZM184.937 115.581C185.057 115.731 185.146 115.88 185.266 116.059C184.728 115.91 184.22 115.761 183.682 115.641C184.1 115.641 184.519 115.641 184.937 115.611V115.581ZM184.758 114.206C185.116 114.475 185.475 114.774 185.804 115.043C185.655 115.043 185.475 115.043 185.326 115.043C185.146 114.774 184.937 114.475 184.758 114.206ZM186.462 115.581C187.029 116.059 187.597 116.538 188.165 117.016C187.538 116.777 186.88 116.568 186.222 116.358C186.043 116.089 185.864 115.82 185.655 115.551C185.924 115.551 186.193 115.551 186.432 115.551L186.462 115.581ZM188.853 117.584C190.826 119.258 192.799 120.962 194.712 122.636C194.771 123.831 194.771 125.057 194.682 126.282C191.603 123.413 188.943 120.214 186.551 116.837C187.328 117.076 188.106 117.345 188.853 117.614V117.584ZM193.606 119.587C193.875 119.736 194.174 119.856 194.443 120.005C194.502 120.364 194.532 120.722 194.592 121.081C194.263 120.603 193.934 120.095 193.606 119.587ZM193.277 119.049C192.589 117.943 191.962 116.777 191.364 115.611C192.111 115.611 192.858 115.611 193.606 115.581C193.904 116.926 194.174 118.242 194.383 119.587C194.024 119.407 193.635 119.228 193.277 119.079V119.049ZM191.394 102.519C193.008 99.6193 194.174 96.4807 194.741 93.2525C194.801 93.2823 194.891 93.3123 194.951 93.372C195.638 97.228 196.415 101.054 197.043 104.91C197.491 107.69 197.82 110.47 198.029 113.28C198.179 115.193 196.385 114.864 194.921 114.983C194.682 114.983 194.443 114.983 194.203 115.013C193.247 110.858 191.991 106.763 191.394 102.549V102.519ZM92.7226 47.0107C97.8938 44.1412 103.992 46.0542 109.402 47.2499C111.166 47.6385 112.899 48.027 114.663 48.4156C111.853 51.3748 109.282 54.5433 106.861 57.6819C105.098 59.9835 103.394 62.3449 101.72 64.7661C100.285 61.8667 97.8938 59.4754 94.815 58.3694C94.6656 58.3097 94.5161 58.4291 94.4563 58.5786C94.277 59.1764 94.1574 59.8042 94.0378 60.402C91.8259 57.8613 89.8531 55.0216 87.9998 52.152C89.5243 50.3884 91.0786 48.6846 92.6927 47.0107H92.7226ZM94.2172 64.4971C95.5623 66.2607 97.0569 67.9047 98.7009 69.3395C97.4753 71.2824 96.3096 73.2552 95.2036 75.228C94.6656 71.671 94.1574 68.0841 94.2471 64.4971H94.2172ZM95.383 80.9373C94.9944 81.296 94.6058 81.6846 94.2172 82.0432C94.008 82.2525 91.7063 83.209 91.7362 83.209C92.2145 82.2824 92.6927 81.3259 93.171 80.3693C93.7389 79.2634 94.3069 78.1873 94.9047 77.1112C94.9047 77.2308 94.9346 77.3802 94.9645 77.4998C95.1139 78.6357 95.2634 79.8014 95.4128 80.9373H95.383ZM98.6112 68.5025C96.9971 67.0378 95.5623 65.3341 94.2471 63.5705C94.277 62.9428 94.3368 62.315 94.3965 61.6873C95.1139 62.4645 95.8313 63.2416 96.6085 63.9889C97.7743 65.065 98.9998 65.9916 100.285 66.7987C99.8367 67.4862 99.3884 68.1737 98.94 68.8612C98.8204 68.7416 98.7009 68.652 98.5813 68.5324L98.6112 68.5025ZM94.5161 60.9101C94.546 60.7009 94.5759 60.4917 94.6357 60.2824C94.8449 59.1466 95.084 58.9971 96.1601 59.5651C96.9971 59.9835 97.7145 60.5813 98.402 61.209C99.6574 62.3449 100.584 63.8096 101.331 65.3041C101.092 65.6329 100.883 65.9617 100.644 66.3204C98.3721 64.8259 96.3395 62.9726 94.5161 60.94V60.9101ZM100.883 67.1275C101.331 67.3966 101.78 67.6357 102.258 67.8748C102.497 68.8612 102.617 69.8476 102.617 70.834C102.617 71.9101 101.989 71.1329 101.421 70.7444C100.733 70.296 100.106 69.7879 99.4781 69.2797C99.9264 68.5623 100.375 67.815 100.853 67.0976L100.883 67.1275ZM101.212 66.6493C101.361 66.44 101.511 66.2009 101.66 65.9917C101.81 66.3803 101.959 66.7688 102.079 67.1873C101.78 67.0079 101.511 66.8585 101.212 66.6792V66.6493ZM93.9183 61.1493C93.8286 61.7172 93.7688 62.2852 93.709 62.8531C91.8259 60.1629 90.2118 57.2335 88.7471 54.2743C90.3313 56.6656 92.0351 58.9672 93.9183 61.1194V61.1493ZM91.1982 47.9972C90.0324 49.2227 88.8966 50.4781 87.7607 51.7336C87.671 51.5841 87.5813 51.4645 87.4917 51.3151C88.6275 50.1194 89.8531 48.9836 91.1982 47.9972ZM82.1411 57.1439C82.1411 57.1439 82.2009 57.1438 82.2308 57.084C83.8748 55.4101 85.3694 53.5868 86.9835 51.8531C87.0732 52.0324 87.133 52.1819 87.2226 52.3613C87.1928 52.3912 87.1629 52.451 87.1031 52.4809C85.4591 54.364 83.8449 56.3069 82.2607 58.2498C82.2308 57.8613 82.171 57.5026 82.1411 57.114V57.1439ZM85.5786 78.0378C84.0243 71.8205 83.1275 65.4537 82.3504 59.1167C84.0243 56.9944 85.6982 54.902 87.4319 52.8694C89.1955 56.5759 91.1982 60.402 93.6792 63.7797C93.4699 67.8748 94.1574 72.0297 94.7552 76.0351C93.44 78.4563 92.1846 80.9074 91.0786 83.4182C91.0188 83.5677 91.0786 83.8069 91.2879 83.777C93.0514 83.5379 94.2471 82.4916 95.4427 81.296C95.6819 83.6275 95.8313 85.959 95.7416 88.2905C95.6819 89.8747 95.383 91.459 94.9645 92.9834C92.9618 91.7579 91.0188 90.4427 89.1058 89.0677C87.4319 85.3612 86.3857 81.2362 85.5786 78.0378ZM92.7226 96.8095C90.1221 94.4481 88.2987 91.16 86.565 87.9019C87.3422 88.5296 88.1493 89.1275 88.9563 89.7552C89.6139 91.0704 90.3612 92.3558 91.1683 93.5813C91.8558 94.5677 92.633 95.4943 93.4998 96.3013C93.2009 96.7497 92.902 97.0188 92.6927 96.8394L92.7226 96.8095ZM93.7688 95.8829C92.1248 94.3883 90.7797 92.4454 89.7036 90.2933C91.3476 91.4889 93.0215 92.6547 94.7552 93.671C94.546 94.2688 94.1574 95.1954 93.7987 95.8829H93.7688ZM90.3911 116.657C92.6031 110.44 94.9346 104.282 98.4916 98.7524C98.5813 98.603 98.4916 98.3639 98.3123 98.334C96.7281 97.9454 95.3531 97.1981 94.1574 96.2117C94.5759 95.4644 94.9047 94.7172 95.2036 93.94C96.19 94.5079 97.2063 95.0758 98.2226 95.5541C101.152 96.9589 104.291 97.9155 107.13 99.41C106.443 100.367 105.755 101.323 105.068 102.31C103.573 104.432 102.138 106.644 100.793 108.856C99.8666 110.38 98.6112 111.665 97.5351 113.07C96.758 114.087 96.459 115.073 97.3558 115.073C94.9645 115.432 92.5732 115.82 90.3911 116.657ZM108.774 100.397C113.108 103.236 111.913 108.228 108.356 111.247C105.456 113.728 101.72 114.415 97.9835 114.983C98.0732 114.983 98.1628 114.924 98.2525 114.894C98.3422 114.894 98.3123 114.744 98.2226 114.774C95.8014 115.372 98.94 111.935 99.4482 111.307C100.554 109.962 101.421 108.557 102.378 107.062C103.992 104.521 105.725 102.04 107.489 99.5894C107.937 99.8285 108.386 100.098 108.804 100.367L108.774 100.397ZM123.69 77.7091C118.489 84.883 112.78 91.728 107.549 98.872C105.636 97.8557 103.483 97.1384 101.63 96.3911C99.4482 95.5242 97.3857 94.4481 95.4128 93.2824C96.6683 89.3367 96.3993 84.9427 95.9509 80.7879C95.9509 80.7879 95.9808 80.7579 96.0107 80.7579C96.1003 80.6683 96.0107 80.5786 95.9509 80.5487C95.8014 79.1737 95.5922 77.7688 95.383 76.3639C95.7715 75.6764 96.1601 74.959 96.5786 74.2715C97.4454 72.7769 98.3422 71.2824 99.2688 69.8177C100.345 70.7145 101.511 71.5215 102.766 72.209C102.975 72.3286 103.185 72.209 103.185 71.9699C103.304 70.7145 103.185 69.459 102.945 68.2335C105.576 69.4889 108.386 70.3857 111.285 71.103C114.304 71.8503 117.293 72.5976 120.133 73.9427C121.657 74.69 123.002 75.7661 124.288 76.9319C124.108 77.171 123.929 77.44 123.75 77.6791L123.69 77.7091ZM122.195 74.5704C117.712 71.2824 111.614 70.864 106.473 69.1901C105.157 68.7716 103.932 68.2036 102.736 67.6058C102.557 66.8884 102.318 66.171 102.019 65.4835C103.095 63.8693 104.201 62.2553 105.337 60.671C108.296 56.546 111.554 52.3613 115.201 48.5651C116.187 48.7744 117.174 49.0135 118.16 49.1928C120.85 49.7607 123.63 50.0596 126.261 50.8368C130.445 52.1221 132.986 55.4998 134.092 59.5949C134.361 60.5813 134.57 61.5379 134.72 62.5243C131.312 67.1574 127.964 71.8504 124.587 76.4835C123.839 75.8259 123.032 75.1682 122.225 74.5405L122.195 74.5704ZM134.451 83.1791C134.451 83.1791 134.451 83.4482 134.451 83.5677C134.152 83.5378 133.823 83.4781 133.494 83.3884C131.163 82.7607 129.22 80.8177 127.516 79.2335C126.619 78.4264 125.752 77.5894 124.856 76.7824C125.513 75.8856 126.201 75.0188 126.858 74.1221C129.549 70.5351 132.149 66.8585 134.75 63.2118C135.587 69.758 134.271 76.6628 134.451 83.1791ZM116.038 99.6492C115.081 95.584 116.695 91.3394 120.432 89.3965C123.81 87.6329 128.084 87.6329 131.79 87.6628C132.777 87.6628 133.733 87.6927 134.72 87.7226C134.869 89.2171 135.108 90.7117 135.437 92.2062C135.826 94.0595 136.454 96.3313 137.679 97.9454C137.29 99.9481 136.932 101.951 136.633 103.954C131.462 102.997 125.902 102.997 120.791 102.997C120.611 102.997 120.462 103.176 120.521 103.356C121.388 106.345 122.943 109.035 124.766 111.516C124.587 111.666 124.407 111.815 124.198 111.964C124.079 111.815 123.929 111.695 123.81 111.576C120.581 108.258 117.084 104.282 116.008 99.6492H116.038ZM121.687 114.894C122.524 114.176 123.331 113.429 124.168 112.712C124.676 113.25 125.214 113.758 125.723 114.266C124.856 114.894 124.049 115.551 123.271 116.269C122.524 116.03 121.777 115.79 121 115.521C121.239 115.312 121.448 115.133 121.687 114.924V114.894ZM103.633 121.081C104.948 118.72 106.652 116.239 109.073 114.924C112.301 113.16 116.367 114.415 119.954 115.701C119.266 116.329 118.549 116.956 117.861 117.554C112.421 122.337 106.921 127.059 101.182 131.483C100.464 132.051 99.7172 132.619 98.9699 133.157C100.046 128.943 101.57 124.818 103.663 121.081H103.633ZM139.712 135.399C134.062 138.657 128.831 142.842 124.049 146.967C120.521 149.986 116.935 152.975 112.989 155.456C109.91 157.399 105.905 159.581 102.168 158.415C96.459 156.622 96.9971 147.027 97.3857 142.513C97.6248 139.703 98.0732 136.864 98.7308 134.054C106.383 128.494 113.497 122.127 120.551 115.91C121.329 116.179 122.076 116.478 122.793 116.717C120.282 119.198 118.399 122.217 118.16 125.864C118.16 126.013 118.25 126.133 118.399 126.163C121.329 127.119 124.377 126.013 127.038 124.758C129.28 123.712 131.402 122.337 133.435 120.872C133.644 120.932 133.823 120.782 133.823 120.603C134.212 120.334 134.57 120.035 134.929 119.766C134.78 121.799 134.66 123.831 134.57 125.834C134.57 126.013 134.81 125.983 134.839 125.834C135.049 123.682 135.258 121.53 135.467 119.377C136.184 118.809 136.902 118.271 137.619 117.703C139.801 115.97 141.924 114.146 144.016 112.293C142.85 117.195 141.804 122.097 140.967 127.059C139.592 125.744 138.127 124.489 136.543 123.323C136.334 123.174 136.125 123.532 136.334 123.682C137.948 124.877 139.473 126.193 140.877 127.568C140.877 127.568 140.877 127.568 140.877 127.597C140.459 130.138 140.04 132.739 139.712 135.369V135.399ZM140.369 135.04C140.608 132.709 140.907 130.347 141.266 128.016C142.701 129.451 144.046 130.975 145.301 132.559C143.627 133.277 141.983 134.114 140.369 135.04ZM141.356 127.478C141.356 127.329 141.415 127.149 141.445 127C142.282 121.948 143.328 116.896 144.524 111.905C145.271 111.277 145.989 110.619 146.736 109.992C146.886 109.842 147.065 109.723 147.214 109.573C148.53 112.233 150.652 114.655 153.073 116.538C153.432 117.345 153.761 118.182 154.059 119.049C152.684 122.934 151.369 126.85 150.114 130.796C150.024 130.796 149.905 130.856 149.815 130.886C148.44 131.304 147.065 131.812 145.72 132.38C144.345 130.676 142.88 129.032 141.326 127.508L141.356 127.478ZM146.198 132.888C147.364 132.35 148.649 131.842 149.964 131.394C149.785 131.962 149.606 132.53 149.426 133.127C149.127 134.084 148.828 135.07 148.53 136.027C147.782 134.951 147.005 133.905 146.228 132.888H146.198ZM148.679 137.222C150.502 139.972 152.117 142.872 153.701 145.801C153.671 145.951 153.641 146.13 153.611 146.279C152.296 146.489 151.011 146.728 149.695 146.997C149.396 147.057 149.396 147.386 149.576 147.565C148.171 147.953 146.736 148.372 145.331 148.79C146.497 144.964 147.573 141.078 148.709 137.252L148.679 137.222ZM132.209 160.269C119.924 162.421 107.519 164.005 95.084 163.945C101.361 162.989 107.519 161.195 113.617 159.402C123.959 156.383 134.152 152.915 144.464 149.777C144.076 151.241 143.687 152.736 143.329 154.201C143.299 154.35 143.508 154.41 143.568 154.26C144.106 152.706 144.614 151.152 145.092 149.568C147.872 148.731 150.652 147.924 153.462 147.146C153.342 147.744 153.223 148.342 153.103 148.94C153.073 149.179 153.402 149.269 153.462 149.03C153.611 148.342 153.761 147.684 153.91 146.997C154.03 146.967 154.179 146.907 154.328 146.877C155.793 149.687 157.228 152.557 158.663 155.396C149.815 156.861 141.027 158.654 132.209 160.209V160.269ZM154.986 146.758C154.986 146.758 155.076 146.758 155.136 146.728C156.152 146.578 157.198 146.429 158.244 146.309C158.424 148.581 158.573 150.853 158.812 153.125C158.842 153.483 159.38 153.483 159.38 153.125C159.261 150.823 159.32 148.492 159.53 146.16C160.695 146.011 161.891 145.891 163.057 145.771C163.057 145.831 163.027 145.891 162.997 145.951C162.011 149.119 160.785 152.228 159.559 155.337C159.559 155.337 159.5 155.337 159.47 155.337C157.975 152.467 156.511 149.597 155.016 146.788L154.986 146.758ZM155.375 169.804C155.674 167.203 156.6 164.633 157.497 162.212C158.125 160.478 158.782 158.774 159.47 157.04C160.546 159.133 161.652 161.225 162.818 163.288C160.486 165.619 158.035 167.831 155.375 169.834V169.804ZM163.386 162.69C162.16 160.508 160.994 158.296 159.828 156.084C159.858 155.994 159.888 155.934 159.918 155.845C163.625 155.217 167.331 154.619 171.038 154.111C168.587 157.07 166.046 159.94 163.356 162.69H163.386ZM171.486 153.603C167.69 154.051 163.924 154.589 160.187 155.187C160.606 154.111 161.024 153.035 161.443 151.959C162.19 150.016 163.057 147.894 163.774 145.682C168.975 145.174 174.176 144.785 179.347 144.097C176.687 147.236 174.116 150.434 171.486 153.603ZM186.79 135.907C186.79 133.426 186.82 130.915 186.91 128.434C188.464 129.391 190.019 130.318 191.573 131.214C189.989 132.769 188.375 134.323 186.79 135.907ZM191.991 130.796C190.288 129.809 188.614 128.793 186.91 127.777C186.94 126.581 186.97 125.356 187.03 124.16C187.03 123.891 186.611 123.891 186.611 124.16C186.551 125.266 186.491 126.402 186.462 127.508C182.068 124.818 177.674 122.127 173.011 119.915C172.771 119.796 172.562 120.155 172.801 120.274C177.524 122.546 181.948 125.415 186.432 128.165C186.342 130.886 186.282 133.635 186.282 136.385C184.01 138.687 181.858 141.108 179.736 143.559C174.475 144.068 169.214 144.426 163.953 144.964C163.983 144.815 164.043 144.665 164.073 144.516C164.91 144.337 165.717 144.157 166.554 143.978C166.733 143.948 166.644 143.679 166.464 143.709C165.717 143.828 164.94 143.978 164.193 144.097C165.209 140.72 165.777 137.193 165 133.994C164.671 132.589 163.983 131.573 163.057 130.856C164.073 128.494 165.269 126.252 166.703 124.16C167.989 122.307 169.453 120.752 171.097 119.527C173.519 118.78 175.88 117.674 178.092 116.328C179.198 116.059 180.334 115.88 181.559 115.79C181.828 115.79 182.097 115.761 182.337 115.731C183.383 115.97 184.459 116.239 185.505 116.568C188.165 120.424 191.125 124.07 194.652 127.269C194.891 127.478 195.19 127.329 195.22 127.03C195.369 125.774 195.399 124.489 195.339 123.263C195.608 123.383 195.877 123.054 195.668 122.755C195.549 122.576 195.429 122.396 195.279 122.247C195.25 121.649 195.19 121.051 195.1 120.454C196.595 121.261 198.029 122.157 199.404 123.114C197.013 125.774 194.472 128.255 191.902 130.766L191.991 130.796ZM204.546 117.046C203.051 119.049 201.467 120.962 199.823 122.785C198.328 121.739 196.744 120.812 195.13 120.005C194.921 118.54 194.652 117.076 194.323 115.611C195.728 115.551 197.103 115.402 198.508 115.163C198.627 115.163 198.747 115.013 198.717 114.864C198.358 107.75 196.923 100.755 195.638 93.7607C201.706 96.8693 207.565 100.725 212.467 105.388C209.448 108.945 207.236 113.369 204.546 117.016V117.046ZM212.676 105.149C207.834 100.157 201.766 96.2715 195.519 93.103C195.369 92.2362 195.19 91.3693 195.04 90.4726C195.04 90.353 195.04 90.2335 195.04 90.084C198.179 89.4862 201.258 88.6492 204.337 87.5731C205.741 87.0949 207.146 86.5269 208.551 85.959C210.016 91.9073 211.451 97.8558 214.5 103.206C213.842 103.804 213.244 104.462 212.646 105.119L212.676 105.149ZM216.682 102.1C216.682 102.1 216.682 102.07 216.682 102.04C216.652 101.861 216.413 101.742 216.233 101.861C215.755 102.19 215.337 102.549 214.918 102.907C214.709 102.608 214.559 102.07 214.29 101.592C211.809 96.8693 210.434 91.3095 209.089 85.7497C213.095 84.016 216.951 81.9536 220.597 79.652C221.584 79.0243 222.51 78.3068 223.467 77.6492C224.812 80.3992 225.769 83.3884 226.336 86.4373C225.141 89.3666 223.676 92.1764 222.092 94.8666C221.673 95.5541 221.255 96.2117 220.807 96.8992C219.043 95.016 217.07 93.3422 214.828 92.0568C214.559 91.9074 214.26 92.2062 214.41 92.4753C215.875 94.8367 217.459 97.0786 219.163 99.2606C218.774 99.7688 218.385 100.277 217.967 100.785C217.578 101.263 217.16 101.712 216.741 102.16L216.682 102.1ZM224.663 105.06C223.048 103.146 221.434 101.203 219.88 99.2008C220.209 98.7524 220.538 98.3041 220.836 97.8557C222.271 99.44 223.586 101.174 224.812 102.967C224.633 103.685 224.573 104.402 224.663 105.03V105.06ZM219.491 98.6927C218.146 96.9291 216.831 95.1356 215.635 93.2525C217.399 94.4182 218.983 95.8231 220.418 97.3775C220.119 97.8258 219.82 98.2443 219.491 98.6927ZM221.195 97.3475C222.69 95.0758 223.975 92.6845 225.141 90.353C225.589 89.4264 226.038 88.4699 226.486 87.5134C226.576 88.1112 226.665 88.709 226.725 89.3367C227.084 92.4454 227.084 95.6437 226.785 98.8421C226.097 99.9182 225.44 101.114 225.021 102.31C223.826 100.576 222.57 98.9318 221.165 97.4074L221.195 97.3475ZM226.725 85.3612C226.127 82.5514 225.201 79.8313 223.915 77.2906C225.021 76.5433 226.127 75.8558 227.442 75.4074C229.116 74.8693 228.907 75.7362 228.817 77.0215C228.728 78.3069 228.459 79.5922 228.13 80.8476C227.771 82.3721 227.263 83.8666 226.725 85.3313V85.3612ZM212.915 130.049C215.247 121.201 218.654 111.994 216.831 102.788C217.788 101.831 218.684 100.815 219.521 99.7389C221.434 102.19 223.437 104.581 225.41 106.973C223.228 115.641 218.894 123.891 212.915 130.078V130.049ZM225.709 105.807C225.5 105.448 225.38 105.03 225.32 104.551C225.32 104.282 225.32 103.983 225.32 103.714C225.529 104.043 225.739 104.342 225.948 104.671C225.858 105.06 225.798 105.448 225.709 105.807ZM225.44 102.848C225.679 101.831 226.127 100.845 226.695 99.9481C226.546 101.263 226.366 102.549 226.097 103.864C225.888 103.535 225.649 103.206 225.44 102.877V102.848ZM226.366 105.358C226.785 106.046 227.233 106.733 227.652 107.421C227.054 107.182 226.516 106.853 226.127 106.435C226.217 106.076 226.307 105.717 226.366 105.358ZM226.934 107.78C226.934 107.78 227.084 107.839 227.173 107.869C227.472 107.989 227.771 108.079 228.07 108.138C228.817 109.364 229.535 110.559 230.252 111.755C229.176 110.41 228.04 109.095 226.934 107.75V107.78ZM239.967 109.932C245.347 112.682 247.29 117.494 246.932 123.353C246.842 124.758 246.603 126.133 246.334 127.508C246.214 128.136 244.152 126.88 243.733 126.641C241.85 125.595 240.206 124.13 238.711 122.576C235.603 119.348 233.211 115.462 230.88 111.636C230.222 110.559 229.535 109.454 228.877 108.318C232.225 108.945 235.752 108.288 238.98 109.483C237.934 112.413 236.888 115.342 235.932 118.301C235.872 118.451 236.111 118.511 236.171 118.361C237.247 115.492 238.353 112.592 239.459 109.663C239.608 109.723 239.788 109.812 239.937 109.872L239.967 109.932ZM239.19 108.975C238.383 108.676 237.576 108.437 236.739 108.288C234.826 107.959 231.179 108.377 228.489 107.69C227.861 106.644 227.203 105.568 226.516 104.521C226.875 102.668 227.144 100.815 227.323 98.9617C227.771 98.334 228.25 97.7362 228.698 97.1981C233.69 91.0405 240.445 86.228 246.722 81.5052C247.589 80.8476 248.486 80.2199 249.383 79.5623C246.483 89.4862 242.717 99.2307 239.22 109.005L239.19 108.975ZM249.652 78.546C248.695 79.2634 247.739 79.9509 246.812 80.6683C240.595 85.3313 234.198 90.0541 229.027 95.8829C228.578 96.3911 228.01 97.0785 227.413 97.9155C227.652 94.7171 227.592 91.5188 227.203 88.4101C227.114 87.7824 227.024 87.1247 226.904 86.497C228.429 82.8204 229.595 78.8449 229.385 74.959C229.385 74.8096 229.266 74.6601 229.116 74.6601C227.024 74.7797 225.35 75.6764 223.646 76.8123C222.122 73.9427 220.149 71.3123 217.698 69.1004C214.709 66.3803 210.733 63.8694 206.668 63.2716C203.649 62.8531 200.72 63.2715 197.88 61.9563C197.282 61.6873 196.744 61.3287 196.206 60.97C196.206 60.97 196.176 60.9699 196.146 60.94C195.22 60.2525 194.413 59.4455 193.695 58.5488C193.904 58.5488 194.114 58.5487 194.323 58.4889C197.432 58.0107 199.644 56.2172 201.616 53.9156C204.038 51.1058 206.04 47.9673 208.402 45.0977C210.046 43.1249 213.005 39.4781 215.875 41.3015C218.894 43.2145 218.385 47.2498 218.087 50.2688C217.728 53.7063 217.1 57.2336 217.459 60.701C217.698 62.9129 218.684 64.9455 221.046 65.364C223.736 65.8123 226.008 63.6602 227.532 61.7172C229.774 58.8178 231.298 55.3803 233.032 52.152C234.557 49.3422 236.32 46.0542 239.13 44.3205C239.877 44.47 240.624 44.6194 241.342 44.7389C241.342 44.7688 241.342 44.7988 241.342 44.8585C241.461 45.6955 241.461 46.5325 241.432 47.3396C241.432 49.6412 241.073 51.9427 240.744 54.1846C240.116 58.459 239.279 62.7335 238.951 67.0379C238.652 71.2227 239.16 78.277 245.138 77.3205C247.081 77.0216 248.874 76.1547 250.608 75.1683C250.309 76.3042 250.01 77.44 249.682 78.546H249.652ZM256.138 73.6139C254.255 75.0786 252.372 76.5134 250.459 77.9482C250.758 76.8721 251.027 75.796 251.296 74.7498C252.043 74.3014 252.76 73.8232 253.478 73.3748C255.869 71.8504 258.499 69.728 261.339 69.0405C259.845 70.7742 257.902 72.209 256.108 73.6438L256.138 73.6139Z" fill="white"/>
<path d="M266.661 86.4685L267.408 86.1396V32.0664H264.927V84.5256C256.438 88.5011 250.998 97.0201 250.998 106.466C250.998 115.911 256.438 124.4 264.927 128.406V180.805H267.408V126.792L266.661 126.463C258.65 123.025 253.479 115.194 253.479 106.496C253.479 97.7972 258.65 89.9358 266.661 86.4983V86.4685Z" fill="#CC0000"/>
<path d="M187.152 181.28C183.715 173.269 175.883 168.098 167.185 168.098C158.487 168.098 150.625 173.269 147.218 181.28L144.946 180.294C148.772 171.386 157.5 165.617 167.215 165.617C176.929 165.617 185.658 171.386 189.484 180.294L187.182 181.28H187.152Z" fill="#CC0000"/>
<path d="M69.4348 84.4942V31.9453H66.9539V86.1083L67.7011 86.4371C75.712 89.8746 80.8832 97.7061 80.8832 106.434C80.8832 115.163 75.712 122.994 67.7011 126.402L66.9539 126.73V180.744H69.4348V128.345C77.9239 124.369 83.3641 115.85 83.3641 106.404C83.3641 96.9588 77.9239 88.4697 69.4348 84.4642V84.4942Z" fill="#CC0000"/>
<path d="M231.272 75.8265C221.767 75.8265 214.025 68.0847 214.025 58.5792C214.025 49.0738 221.767 41.332 231.272 41.332C240.778 41.332 248.519 49.0738 248.519 58.5792C248.519 68.0847 240.778 75.8265 231.272 75.8265ZM231.272 43.813C223.142 43.813 216.506 50.4189 216.506 58.5792C216.506 66.7396 223.112 73.3455 231.272 73.3455C239.432 73.3455 246.038 66.7396 246.038 58.5792C246.038 50.4189 239.432 43.813 231.272 43.813Z" fill="#CC0000"/>
<path d="M233.728 58.5799C233.728 57.2348 232.622 56.1289 231.277 56.1289C229.932 56.1289 228.826 57.2348 228.826 58.5799C228.826 59.925 229.932 61.031 231.277 61.031C232.622 61.031 233.728 59.925 233.728 58.5799Z" fill="#CC0000"/>
<path d="M231.272 171.537C221.767 171.537 214.025 163.796 214.025 154.29C214.025 144.785 221.767 137.043 231.272 137.043C240.778 137.043 248.519 144.785 248.519 154.29C248.519 163.796 240.778 171.537 231.272 171.537ZM231.272 139.524C223.142 139.524 216.506 146.13 216.506 154.29C216.506 162.451 223.112 169.057 231.272 169.057C239.432 169.057 246.038 162.451 246.038 154.29C246.038 146.13 239.432 139.524 231.272 139.524Z" fill="#CC0000"/>
<path d="M233.728 154.291C233.728 152.946 232.622 151.84 231.277 151.84C229.932 151.84 228.826 152.946 228.826 154.291C228.826 155.636 229.932 156.742 231.277 156.742C232.622 156.742 233.728 155.636 233.728 154.291Z" fill="#CC0000"/>
<path d="M103.097 75.8265C93.5917 75.8265 85.8499 68.0847 85.8499 58.5792C85.8499 49.0738 93.5917 41.332 103.097 41.332C112.603 41.332 120.344 49.0738 120.344 58.5792C120.344 68.0847 112.603 75.8265 103.097 75.8265ZM103.097 43.813C94.9667 43.813 88.3308 50.4189 88.3308 58.5792C88.3308 66.7396 94.9368 73.3455 103.097 73.3455C111.257 73.3455 117.863 66.7396 117.863 58.5792C117.863 50.4189 111.257 43.813 103.097 43.813Z" fill="#CC0000"/>
<path d="M105.543 58.5799C105.543 57.2348 104.437 56.1289 103.092 56.1289C101.747 56.1289 100.641 57.2348 100.641 58.5799C100.641 59.925 101.747 61.031 103.092 61.031C104.437 61.031 105.543 59.925 105.543 58.5799Z" fill="#CC0000"/>
<path d="M103.097 171.537C93.5917 171.537 85.8499 163.796 85.8499 154.29C85.8499 144.785 93.5917 137.043 103.097 137.043C112.603 137.043 120.344 144.785 120.344 154.29C120.344 163.796 112.603 171.537 103.097 171.537ZM103.097 139.524C94.9667 139.524 88.3308 146.13 88.3308 154.29C88.3308 162.451 94.9368 169.057 103.097 169.057C111.257 169.057 117.863 162.451 117.863 154.29C117.863 146.13 111.257 139.524 103.097 139.524Z" fill="#CC0000"/>
<path d="M105.543 154.291C105.543 152.946 104.437 151.84 103.092 151.84C101.747 151.84 100.641 152.946 100.641 154.291C100.641 155.636 101.747 156.742 103.092 156.742C104.437 156.742 105.543 155.636 105.543 154.291Z" fill="#CC0000"/>
<path d="M202.994 32.0938H200.513V180.803H202.994V32.0938Z" fill="#6091F4"/>
<path d="M168.405 32.0938H165.924V166.873H168.405V32.0938Z" fill="#CC0000"/>
<path d="M133.858 32.0938H131.377V180.803H133.858V32.0938Z" fill="#6091F4"/>
<path d="M171.252 106.436C171.252 104.194 169.428 102.371 167.186 102.371C164.944 102.371 163.121 104.194 163.121 106.436C163.121 108.678 164.944 110.501 167.186 110.501C169.428 110.501 171.252 108.678 171.252 106.436Z" fill="#CCDCFF"/>
<path d="M169.636 106.435C169.636 105.09 168.53 103.984 167.184 103.984C165.839 103.984 164.733 105.09 164.733 106.435C164.733 107.781 165.839 108.887 167.184 108.887C168.53 108.887 169.636 107.781 169.636 106.435Z" fill="#4D6699"/>
<path d="M167.185 127.869C155.378 127.869 145.783 118.274 145.783 106.467C145.783 94.6602 155.378 85.0352 167.185 85.0352C178.992 85.0352 188.587 94.6303 188.587 106.467C188.587 118.304 178.992 127.869 167.185 127.869ZM167.185 87.5162C156.753 87.5162 148.264 96.0053 148.264 106.437C148.264 116.869 156.753 125.358 167.185 125.358C177.617 125.358 186.106 116.869 186.106 106.437C186.106 96.0053 177.617 87.5162 167.185 87.5162Z" fill="#6091F4"/>
<path d="M115.533 0.466962L2.5989 20.8321C1.16356 21.091 0.209826 22.4644 0.468657 23.8997L12.7628 92.0768C13.0217 93.5121 14.3951 94.4659 15.8304 94.2071L128.765 73.8419C130.2 73.5831 131.154 72.2097 130.895 70.7743L118.601 2.59723C118.342 1.16189 116.969 0.20813 115.533 0.466962Z" fill="#6091F4"/>
<path d="M6.5537 22.8807L113.528 2.35528L5.14192 21.9003C3.76863 22.1479 2.86084 23.4552 3.11115 24.8432L14.9101 90.2737L4.52026 25.8088C4.27261 24.4355 5.18041 23.1283 6.5537 22.8807Z" fill="white"/>
<path d="M126.861 68.8475C127.108 70.2208 126.201 71.528 124.827 71.7757L17.8527 92.3011L126.239 72.7561C127.612 72.5084 128.535 71.1985 128.285 69.8105L116.486 4.37996L126.875 68.8449L126.861 68.8475Z" fill="#ADC9FF"/>
<path d="M51.2105 24.0654L14.0874 30.7597C13.0761 30.942 12.4042 31.9096 12.5865 32.9209L21.2433 80.9269C21.4257 81.9382 22.3933 82.6101 23.4046 82.4278L60.5276 75.7335C61.5389 75.5511 62.2109 74.5835 62.0285 73.5722L53.3717 25.5662C53.1893 24.5549 52.2217 23.883 51.2105 24.0654Z" fill="#1A2233"/>
<path d="M71.499 20.4073L108.253 13.7795C109.257 13.5984 110.216 14.2642 110.397 15.2683L119.056 63.2891C119.237 64.2932 118.574 65.2665 117.555 65.4503L80.8162 72.0754C79.812 72.2564 78.8387 71.5934 78.6549 70.5745L69.9955 22.5537C69.8144 21.5496 70.4774 20.5762 71.4963 20.3925L71.499 20.4073Z" fill="#1A2233"/>
<path d="M65.2422 44.9073C64.1938 45.0963 63.1976 44.3916 63.0112 43.358C62.8248 42.3243 63.5242 41.2987 64.5578 41.1123C65.5915 40.9259 66.6024 41.6279 66.7915 42.6763C66.9805 43.7247 66.2758 44.7209 65.2422 44.9073Z" fill="white"/>
<path d="M66.8 53.5479C65.7516 53.7369 64.7555 53.0323 64.5691 51.9986C64.3827 50.9649 65.082 49.9393 66.1157 49.7529C67.1494 49.5665 68.1603 50.2685 68.3493 51.3169C68.5384 52.3653 67.8337 53.3615 66.8 53.5479Z" fill="white"/>
<path d="M32.2895 31.2423L15.2637 34.3125L19.154 55.8864L36.1798 52.8162L32.2895 31.2423Z" fill="#26334D"/>
<path d="M36.4025 54.0587L19.3767 57.1289L23.2671 78.7028L40.2929 75.6326L36.4025 54.0587Z" fill="#334466"/>
<path d="M51.3483 27.8048L34.3225 30.875L38.2129 52.4489L55.2387 49.3787L51.3483 27.8048Z" fill="#26334D"/>
<path d="M55.4638 50.6212L38.438 53.6914L42.3283 75.2653L59.3542 72.1951L55.4638 50.6212Z" fill="#334466"/>
<path d="M89.5046 20.9259L72.4788 23.9961L76.3691 45.57L93.3949 42.4998L89.5046 20.9259Z" fill="#26334D"/>
<path d="M93.6203 43.7384L76.5945 46.8086L80.4848 68.3825L97.5107 65.3123L93.6203 43.7384Z" fill="#334466"/>
<path d="M108.584 17.4845L91.5583 20.5547L95.4487 42.1286L112.475 39.0584L108.584 17.4845Z" fill="#26334D"/>
<path d="M112.697 40.3009L95.6714 43.3711L99.5617 64.945L116.588 61.8748L112.697 40.3009Z" fill="#334466"/>
<mask id="mask0_907_26419" style="mask-type:luminance" maskUnits="userSpaceOnUse" x="15" y="31" width="26" height="48">
<path d="M36.1786 52.8162L19.1528 55.8864L15.2625 34.3125L32.2883 31.2423L36.1786 52.8162ZM36.4023 54.0566L19.3765 57.1268L23.2669 78.7007L40.2927 75.6305L36.4023 54.0566Z" fill="white"/>
</mask>
<g mask="url(#mask0_907_26419)">
<path d="M20.6448 48.8621C20.1842 46.3075 20.2367 44.3159 20.8199 42.8996C21.403 41.4832 22.8122 40.5887 25.0714 40.1813C27.3307 39.7739 28.9809 40.1319 30.0342 41.238C31.0875 42.344 31.8323 44.1917 32.2957 46.7611L34.7854 60.5678C35.2647 63.2258 35.2308 65.3208 34.6837 66.8526C34.1366 68.3845 32.7113 69.358 30.4077 69.7734C28.1041 70.1888 26.4311 69.7892 25.3982 68.5422C24.368 67.3101 23.6044 65.359 23.1198 62.6715L20.6301 48.8647L20.6448 48.8621ZM28.8822 47.1937C28.3762 44.3881 27.514 42.9884 26.2806 42.9974C26.0833 43.0024 25.8148 43.0356 25.4752 43.0969C25.1356 43.1581 24.7918 43.2811 24.5057 43.4699C24.2048 43.6614 23.9787 44.0986 23.8301 44.7962C23.6814 45.4939 23.7403 46.581 24.0065 48.0577L26.5708 62.2778C27.0395 64.8768 27.6466 66.3834 28.3869 66.7683C28.7597 66.9755 29.1823 67.0365 29.6548 66.9513C30.1274 66.8661 30.4496 66.7928 30.6336 66.7139C30.8376 66.6618 31.0378 66.5038 31.2542 66.2665C31.8645 65.5924 31.9366 63.9632 31.4733 61.3938L28.9143 47.2032L28.8822 47.1937Z" fill="white"/>
</g>
<mask id="mask1_907_26419" style="mask-type:luminance" maskUnits="userSpaceOnUse" x="34" y="27" width="26" height="49">
<path d="M55.2377 49.3826L38.2119 52.4528L34.3215 30.8789L51.3473 27.8087L55.2377 49.3826ZM55.4614 50.623L38.4356 53.6932L42.3259 75.2671L59.3518 72.1969L55.4614 50.623Z" fill="white"/>
</mask>
<g mask="url(#mask1_907_26419)">
<path d="M39.8238 45.5613C39.3631 43.0067 39.4157 41.0152 39.9988 39.5988C40.582 38.1824 41.9911 37.2879 44.2504 36.8805C46.5097 36.4731 48.1599 36.8312 49.2131 37.9372C50.2664 39.0432 51.0113 40.891 51.4746 43.4603L53.9643 57.2671C54.4437 59.925 54.4097 62.02 53.8626 63.5518C53.3155 65.0837 51.8902 66.0573 49.5867 66.4726C47.2831 66.888 45.6101 66.4884 44.5772 65.2415C43.5469 64.0093 42.7834 62.0582 42.2988 59.3707L39.809 45.564L39.8238 45.5613ZM48.0611 43.8929C47.5552 41.0873 46.6929 39.6876 45.4595 39.6966C45.2622 39.7017 44.9938 39.7348 44.6542 39.7961C44.3145 39.8573 43.9708 39.9803 43.6846 40.1691C43.3837 40.3606 43.1577 40.7978 43.009 41.4955C42.8604 42.1931 42.9192 43.2802 43.1855 44.7569L45.7498 58.9771C46.2184 61.576 46.8256 63.0827 47.5658 63.4675C47.9386 63.6748 48.3613 63.7358 48.8338 63.6505C49.3063 63.5653 49.6285 63.492 49.8125 63.4131C50.0166 63.3611 50.2168 63.203 50.4332 62.9657C51.0434 62.2916 51.1156 60.6624 50.6523 58.093L48.0933 43.9024L48.0611 43.8929Z" fill="white"/>
</g>
<path d="M78.1124 38.8347C77.6517 36.2801 77.7043 34.2886 78.2874 32.8722C78.8706 31.4558 80.2797 30.5614 82.539 30.154C84.7982 29.7466 86.4485 30.1046 87.5017 31.2106C88.555 32.3167 89.2999 34.1644 89.7632 36.7338L92.2529 50.5405C92.7322 53.1985 92.6983 55.2934 92.1512 56.8253C91.6041 58.3571 90.1788 59.3307 87.8752 59.7461C85.5717 60.1615 83.8987 59.7618 82.8657 58.5149C81.8355 57.2827 81.072 55.3316 80.5873 52.6441L78.0976 38.8374L78.1124 38.8347ZM86.3497 37.1664C85.8438 34.3607 84.9815 32.9611 83.7481 32.97C83.5508 32.9751 83.2824 33.0083 82.9427 33.0695C82.6031 33.1308 82.2594 33.2537 81.9732 33.4426C81.6723 33.634 81.4462 34.0712 81.2976 34.7689C81.149 35.4665 81.2078 36.5537 81.4741 38.0303L84.0384 52.2505C84.507 54.8494 85.1141 56.3561 85.8544 56.741C86.2272 56.9482 86.6498 57.0092 87.1224 56.924C87.5949 56.8388 87.9171 56.7655 88.1011 56.6865C88.3052 56.6345 88.5053 56.4764 88.7218 56.2392C89.332 55.565 89.4042 53.9358 88.9408 51.3665L86.3819 37.1758L86.3497 37.1664Z" fill="white"/>
<path d="M97.2928 35.5261C96.8321 32.9715 96.8847 30.98 97.4678 29.5636C98.051 28.1473 99.4601 27.2528 101.719 26.8454C103.979 26.438 105.629 26.796 106.682 27.902C107.735 29.0081 108.48 30.8558 108.944 33.4252L111.433 47.2319C111.913 49.8899 111.879 51.9848 111.332 53.5167C110.785 55.0485 109.359 56.0221 107.056 56.4375C104.752 56.8529 103.079 56.4532 102.046 55.2063C101.016 53.9741 100.252 52.023 99.7678 49.3355L97.278 35.5288L97.2928 35.5261ZM105.53 33.8578C105.024 31.0521 104.162 29.6525 102.929 29.6614C102.731 29.6665 102.463 29.6997 102.123 29.7609C101.784 29.8222 101.44 29.9451 101.154 30.134C100.853 30.3254 100.627 30.7626 100.478 31.4603C100.329 32.158 100.388 33.2451 100.654 34.7217L103.219 48.9419C103.687 51.5408 104.295 53.0475 105.035 53.4324C105.408 53.6396 105.83 53.7006 106.303 53.6154C106.775 53.5302 107.098 53.4569 107.282 53.3779C107.486 53.3259 107.686 53.1678 107.902 52.9306C108.512 52.2564 108.585 50.6272 108.121 48.0579L105.562 33.8672L105.53 33.8578Z" fill="white"/>
</svg>
