<svg viewBox="0 0 251 201" fill="none" xmlns="http://www.w3.org/2000/svg">
<path d="M127.912 82.8008C81.589 99.9143 44.0669 112.181 52.7619 130.612L67.3668 161.523C58.6506 143.091 96.194 130.825 142.517 113.711L127.912 82.8008Z" fill="#4D0000"/>
<path d="M108.14 92.1296L123.447 122.806C170.939 103.907 204.124 77.1421 200.383 69.6376L185.055 38.9609C188.797 46.4654 155.611 73.2304 108.119 92.1509L108.14 92.1296Z" fill="#4D0000"/>
<path d="M170.546 66.5123C203.476 110.476 219.59 154.057 206.516 163.857L160.341 198.445C145.418 209.628 106.62 183.054 73.6899 139.09C40.7597 95.1268 26.1548 50.4192 41.0786 39.237L87.2531 4.62739C100.327 -5.173 137.616 22.5274 170.567 66.491L170.546 66.5123Z" fill="#1A2233"/>
<path d="M87.6526 8.4534C101.577 -1.98476 138.695 24.015 170.52 66.5117C202.366 109.008 216.865 151.909 202.94 162.347C189.015 172.785 151.918 146.807 120.073 104.31C88.2266 61.8134 73.7067 18.8916 87.6526 8.4534Z" fill="#334466"/>
<path d="M89.3788 17.9142C100.327 9.70827 129.473 30.1382 154.495 63.536C179.496 96.9339 190.912 130.651 179.963 138.835C169.015 147.041 139.869 126.611 114.847 93.2348C89.8252 59.8369 78.4304 26.1202 89.3788 17.9142Z" fill="white"/>
<path d="M87.2372 4.62739C100.312 -5.173 137.6 22.5274 170.551 66.491C203.481 110.455 219.596 154.035 206.521 163.836C193.447 173.636 156.159 145.936 123.229 101.972C90.2773 58.0087 74.1842 14.4278 87.2585 4.62739H87.2372Z" fill="#1A2233"/>
<path d="M147.076 195.513C147.076 195.513 146.587 195.215 145.694 194.726C145.248 194.492 144.716 194.195 144.078 193.876C143.462 193.536 142.803 193.11 142.038 192.707C141.293 192.281 140.507 191.856 139.657 191.325C138.827 190.814 137.956 190.262 137.02 189.73C136.106 189.178 135.213 188.54 134.257 187.966C133.279 187.392 132.343 186.754 131.408 186.116C130.451 185.478 129.473 184.905 128.559 184.267C127.645 183.608 126.71 183.034 125.817 182.438C124.031 181.248 122.394 180.1 120.927 179.186C118.1 177.251 116.059 176.082 116.059 176.082C116.059 176.082 116.442 176.528 117.122 177.273C117.802 178.017 118.801 179.08 120.056 180.27C120.694 180.865 121.395 181.503 122.139 182.141C122.904 182.8 123.67 183.523 124.541 184.16C125.413 184.819 126.285 185.521 127.199 186.201C128.113 186.882 129.091 187.498 130.047 188.157C131.025 188.795 132.003 189.411 133.002 189.985C134.002 190.559 134.98 191.091 135.936 191.601C136.914 192.09 137.892 192.515 138.806 192.94C139.699 193.387 140.613 193.663 141.442 193.982C142.271 194.28 143.015 194.556 143.696 194.747C144.376 194.917 144.971 195.066 145.46 195.173C146.459 195.406 147.033 195.513 147.033 195.513H147.076Z" fill="#334466"/>
<path d="M153.248 191.092C153.248 191.092 152.759 190.794 151.866 190.305C151.42 190.05 150.889 189.752 150.251 189.433C149.634 189.093 148.975 188.668 148.231 188.243C147.508 187.818 146.7 187.393 145.871 186.861C145.042 186.351 144.171 185.798 143.257 185.267C142.364 184.693 141.45 184.055 140.493 183.481C139.536 182.907 138.601 182.248 137.665 181.61C136.709 180.972 135.731 180.398 134.838 179.739C133.924 179.08 132.988 178.485 132.117 177.89C130.48 176.806 128.992 175.743 127.631 174.871C125.123 173.17 123.316 172.107 123.188 172.044C122.72 171.703 122.699 171.874 123.273 172.49C123.847 173.107 124.91 174.297 126.356 175.721C126.993 176.317 127.674 176.954 128.439 177.613C129.183 178.272 129.948 178.995 130.82 179.633C131.67 180.292 132.542 181.015 133.477 181.674C134.392 182.354 135.369 182.992 136.326 183.651C137.304 184.289 138.261 184.927 139.26 185.479C140.238 186.075 141.237 186.606 142.194 187.116C143.172 187.605 144.149 188.052 145.042 188.456C145.935 188.902 146.849 189.2 147.678 189.497C148.508 189.795 149.252 190.071 149.932 190.284C150.612 190.475 151.207 190.603 151.696 190.73C152.674 190.964 153.248 191.07 153.248 191.07V191.092Z" fill="#334466"/>
<path d="M159.406 186.693C159.406 186.693 158.917 186.375 158.025 185.886C157.578 185.631 157.047 185.333 156.43 185.014C155.814 184.674 155.155 184.249 154.411 183.824C153.667 183.377 152.88 182.952 152.051 182.42C151.222 181.91 150.35 181.336 149.436 180.805C148.543 180.231 147.65 179.593 146.694 179.019C145.737 178.445 144.823 177.786 143.866 177.148C142.931 176.51 141.953 175.936 141.06 175.256C140.146 174.597 139.232 174.002 138.339 173.407C136.851 172.407 135.49 171.43 134.257 170.643C132.11 169.155 130.473 168.219 130.239 168.049C129.325 167.39 128.9 167.284 129.346 167.773C129.814 168.262 130.962 169.58 132.599 171.217C133.237 171.812 133.917 172.45 134.661 173.109C135.405 173.768 136.17 174.491 137.042 175.15C137.892 175.809 138.764 176.532 139.678 177.212C140.571 177.914 141.57 178.551 142.506 179.21C143.483 179.848 144.44 180.486 145.439 181.06C146.417 181.655 147.416 182.187 148.352 182.718C149.33 183.228 150.286 183.653 151.179 184.079C152.072 184.525 152.986 184.844 153.815 185.142C154.644 185.46 155.388 185.737 156.069 185.928C156.749 186.119 157.344 186.268 157.833 186.396C158.811 186.651 159.385 186.757 159.385 186.757L159.406 186.693Z" fill="#334466"/>
<path d="M165.545 182.268C165.545 182.268 165.056 181.97 164.163 181.46C163.716 181.205 163.185 180.886 162.568 180.567C161.952 180.227 161.293 179.802 160.57 179.355C159.847 178.909 159.061 178.484 158.232 177.931C157.403 177.421 156.552 176.847 155.638 176.315C154.745 175.741 153.852 175.082 152.896 174.508C151.939 173.934 151.025 173.275 150.089 172.616C149.154 171.978 148.176 171.383 147.283 170.724C146.39 170.065 145.455 169.47 144.583 168.853C143.265 167.939 142.011 167.068 140.884 166.324C139.077 165.069 137.674 164.24 137.313 163.985C135.91 162.965 135.102 162.603 135.442 162.965C135.782 163.326 137.015 164.772 138.843 166.621C139.481 167.216 140.161 167.875 140.906 168.513C141.65 169.172 142.394 169.916 143.265 170.554C144.137 171.234 144.987 171.936 145.901 172.638C146.794 173.339 147.772 173.956 148.708 174.636C149.686 175.274 150.642 175.933 151.62 176.507C152.598 177.102 153.576 177.633 154.533 178.186C155.51 178.696 156.467 179.143 157.36 179.568C158.232 180.014 159.167 180.333 159.975 180.652C160.783 180.971 161.548 181.247 162.228 181.46C162.909 181.651 163.504 181.8 163.993 181.928C164.971 182.162 165.545 182.289 165.545 182.289V182.268Z" fill="#334466"/>
<path d="M171.708 177.87C171.708 177.87 171.22 177.552 170.348 177.041C169.901 176.786 169.391 176.467 168.753 176.149C168.158 175.787 167.499 175.362 166.755 174.915C166.032 174.469 165.246 174.023 164.417 173.47C163.609 172.938 162.737 172.386 161.823 171.833C160.93 171.259 160.037 170.6 159.102 170.005C158.145 169.409 157.231 168.75 156.296 168.091C155.36 167.454 154.404 166.858 153.49 166.178C152.597 165.498 151.661 164.903 150.79 164.286C149.62 163.478 148.515 162.692 147.495 161.99C146.028 160.97 144.837 160.226 144.348 159.907C142.477 158.567 141.266 157.908 141.5 158.163C141.733 158.397 143.03 159.97 145.071 162.033C145.688 162.628 146.368 163.287 147.112 163.946C147.856 164.605 148.6 165.349 149.472 166.008C150.322 166.688 151.172 167.411 152.086 168.091C152.979 168.793 153.957 169.431 154.893 170.111C155.849 170.749 156.806 171.429 157.784 172.003C158.762 172.598 159.74 173.151 160.696 173.682C161.653 174.193 162.61 174.66 163.524 175.086C164.395 175.532 165.31 175.872 166.139 176.191C166.946 176.531 167.712 176.808 168.371 177.02C169.051 177.233 169.646 177.36 170.135 177.509C171.113 177.764 171.687 177.87 171.687 177.87H171.708Z" fill="#334466"/>
<path d="M177.876 173.447C177.876 173.447 177.387 173.128 176.494 172.618C176.069 172.363 175.538 172.044 174.921 171.725C174.326 171.364 173.667 170.939 172.944 170.492C172.221 170.046 171.435 169.599 170.605 169.025C169.798 168.494 168.926 167.92 168.033 167.367C167.14 166.772 166.269 166.134 165.312 165.518C164.355 164.922 163.462 164.242 162.527 163.583C161.592 162.924 160.635 162.329 159.742 161.648C158.849 160.968 157.935 160.373 157.063 159.756C156.043 159.034 155.065 158.332 154.151 157.716C153.003 156.908 152.025 156.291 151.43 155.866C149.113 154.187 147.497 153.251 147.624 153.379C147.731 153.506 149.113 155.186 151.345 157.46C151.961 158.077 152.642 158.715 153.386 159.374C154.13 160.033 154.874 160.777 155.724 161.436C156.575 162.116 157.425 162.839 158.339 163.541C159.232 164.263 160.189 164.901 161.124 165.581C162.081 166.24 163.037 166.899 164.015 167.473C164.993 168.09 165.971 168.621 166.906 169.195C167.863 169.706 168.82 170.173 169.713 170.599C170.584 171.066 171.498 171.385 172.306 171.725C173.114 172.065 173.879 172.342 174.538 172.554C175.219 172.767 175.793 172.916 176.303 173.043C177.281 173.298 177.855 173.426 177.855 173.426L177.876 173.447Z" fill="#334466"/>
<path d="M184.027 169.047C184.027 169.047 183.538 168.728 182.667 168.218C182.22 167.963 181.689 167.644 181.072 167.304C180.477 166.921 179.818 166.517 179.095 166.05C178.372 165.603 177.586 165.135 176.778 164.583C175.97 164.03 175.098 163.456 174.206 162.903C173.313 162.308 172.441 161.649 171.506 161.054C170.57 160.458 169.656 159.757 168.721 159.098C167.785 158.439 166.829 157.822 165.936 157.142C165.043 156.462 164.129 155.845 163.257 155.229C162.386 154.591 161.535 153.996 160.749 153.422C159.962 152.848 159.175 152.316 158.474 151.849C155.689 149.829 153.669 148.617 153.669 148.617C153.669 148.617 155.136 150.445 157.56 152.912C158.176 153.528 158.857 154.187 159.579 154.846C160.323 155.505 161.046 156.249 161.918 156.929C162.747 157.61 163.597 158.354 164.511 159.034C165.383 159.757 166.361 160.416 167.296 161.096C168.253 161.734 169.188 162.414 170.166 163.01C171.144 163.626 172.122 164.179 173.058 164.753C174.014 165.263 174.971 165.731 175.864 166.177C176.735 166.645 177.628 166.985 178.457 167.325C179.265 167.644 180.009 167.942 180.69 168.154C181.37 168.367 181.965 168.516 182.454 168.664C183.432 168.92 184.006 169.047 184.006 169.047H184.027Z" fill="#334466"/>
<path d="M41.0858 54.0156C41.0858 54.0156 41.2346 54.5896 41.4472 55.5675C41.5535 56.0565 41.6811 56.673 41.8086 57.3533C41.9574 58.0336 42.1913 58.7989 42.3614 59.628C42.5739 60.4571 42.744 61.35 43.0204 62.2854C43.2755 63.2208 43.5518 64.2199 43.807 65.2616C44.0833 66.2821 44.4447 67.345 44.7211 68.408C44.9975 69.4922 45.3376 70.5764 45.699 71.6606C46.0391 72.7448 46.2943 73.8503 46.6769 74.9132C47.0383 75.9761 47.3359 77.0391 47.6548 78.0595C48.2926 80.1004 48.9304 81.9924 49.3981 83.6506C50.461 86.9245 50.9925 89.1992 50.9925 89.1992C50.9925 89.1992 50.6736 88.7103 50.1421 87.8387C49.6106 86.967 48.8878 85.7128 48.08 84.1821C47.6973 83.4168 47.2722 82.5664 46.8683 81.6523C46.4643 80.7594 45.9754 79.8028 45.614 78.7823C45.2313 77.7619 44.7849 76.7202 44.4022 75.6573C43.9983 74.5943 43.6794 73.4676 43.318 72.3621C42.9991 71.2567 42.659 70.1299 42.4039 69.0245C42.1275 67.919 41.8936 66.8135 41.6811 65.7506C41.4897 64.6664 41.3622 63.6247 41.2134 62.6468C41.0433 61.6689 41.022 60.6909 40.9583 59.8193C40.8945 58.9477 40.8519 58.1399 40.8732 57.4383C40.8732 56.7368 40.9157 56.1203 40.9583 55.61C41.022 54.5896 41.0646 54.0156 41.0646 54.0156H41.0858Z" fill="#4D6699"/>
<path d="M47.0356 49.3377C47.0356 49.3377 47.1844 49.8904 47.4183 50.8896C47.5245 51.3785 47.6521 51.9738 47.8009 52.6753C47.9497 53.3556 48.1623 54.0997 48.3537 54.95C48.5662 55.7791 48.7363 56.672 49.034 57.6074C49.2891 58.5428 49.5867 59.542 49.8205 60.5624C50.0969 61.5828 50.4796 62.6245 50.7559 63.7087C51.0323 64.7929 51.3937 65.8771 51.7551 66.9401C52.0952 68.0243 52.3716 69.1298 52.7543 70.1927C53.1369 71.2557 53.4346 72.2974 53.7535 73.339C54.3487 75.2098 54.9439 76.9531 55.3691 78.4837C56.3045 81.3749 56.8147 83.4158 56.836 83.5434C57.0273 84.0748 56.8573 84.0536 56.4321 83.3308C56.0069 82.608 55.1565 81.2474 54.1999 79.4616C53.8172 78.6963 53.392 77.8459 52.9668 76.9531C52.5417 76.0389 52.074 75.1035 51.6913 74.0831C51.2874 73.0627 50.841 72.0422 50.4583 70.958C50.0544 69.8951 49.7355 68.7896 49.3528 67.6842C49.0127 66.5787 48.6725 65.4732 48.4174 64.3465C48.1411 63.241 47.9072 62.1356 47.6734 61.0726C47.4821 59.9884 47.3332 58.9467 47.1844 57.9475C47.0143 56.9696 46.9718 55.9917 46.9081 55.1201C46.8443 54.2485 46.8018 53.4406 46.8018 52.7391C46.8018 52.0376 46.8443 51.421 46.8655 50.9108C46.9293 49.8904 46.9718 49.3164 46.9718 49.3164L47.0356 49.3377Z" fill="#4D6699"/>
<path d="M53.0102 44.658C53.0102 44.658 53.159 45.2107 53.3928 46.2099C53.4991 46.6988 53.6479 47.3153 53.7755 47.9956C53.9456 48.6759 54.1582 49.4412 54.3495 50.2703C54.5621 51.0994 54.7534 51.9711 55.0298 52.9277C55.3061 53.8631 55.6038 54.8623 55.8589 55.8827C56.1565 56.9031 56.5179 57.9448 56.8155 59.029C57.0919 60.1133 57.4746 61.1762 57.836 62.2604C58.1761 63.3446 58.4737 64.4501 58.8564 65.4918C59.2178 66.5547 59.5367 67.6177 59.8556 68.6168C60.4083 70.3176 60.961 71.8907 61.3649 73.3151C62.1728 75.8024 62.6405 77.6094 62.7255 77.8858C63.1082 78.97 63.0869 79.3951 62.7255 78.8211C62.3854 78.2472 61.4287 76.7803 60.3445 74.7394C59.9406 73.9528 59.5154 73.1237 59.1115 72.2096C58.6863 71.3167 58.1974 70.3813 57.836 69.3609C57.432 68.3617 56.9856 67.32 56.6029 66.2358C56.1778 65.1729 55.8589 64.0674 55.4762 62.962C55.1361 61.8565 54.7959 60.751 54.5195 59.6243C54.2219 58.5188 53.9881 57.4134 53.7542 56.3504C53.5417 55.2875 53.3928 54.2458 53.244 53.2466C53.0739 52.2687 53.0314 51.2908 52.9676 50.4404C52.9039 49.5688 52.8401 48.761 52.8401 48.0594C52.8401 47.3579 52.8826 46.7414 52.9039 46.2311C52.9464 45.2107 52.9889 44.6367 52.9889 44.6367L53.0102 44.658Z" fill="#4D6699"/>
<path d="M58.9594 40.0039C58.9594 40.0039 59.1082 40.5566 59.342 41.5558C59.4696 42.0448 59.5971 42.64 59.7459 43.3416C59.8948 44.0219 60.1286 44.7659 60.3412 45.595C60.5538 46.4241 60.7664 47.2957 61.0427 48.2524C61.3191 49.1878 61.6167 50.1657 61.8718 51.2074C62.1695 52.2278 62.5521 53.2695 62.8498 54.3537C63.1261 55.4379 63.5088 56.5009 63.8914 57.5851C64.2316 58.6693 64.5292 59.7535 64.9331 60.8164C65.3158 61.8581 65.6347 62.9211 65.9748 63.9415C66.4638 65.4722 66.974 66.8965 67.3567 68.1933C68.0582 70.2767 68.4621 71.8711 68.6109 72.275C69.1849 73.8907 69.3125 74.7836 69.0574 74.3584C68.8023 73.912 67.7606 72.3388 66.5063 70.0641C66.1024 69.2775 65.6772 68.4484 65.252 67.5555C64.8268 66.6627 64.3379 65.7273 63.9552 64.7068C63.5513 63.7077 63.0836 62.666 62.7009 61.603C62.2758 60.5401 61.9356 59.4346 61.553 58.3291C61.2128 57.2237 60.8514 56.1182 60.575 55.0127C60.2774 53.9073 60.0223 52.8018 59.7885 51.7389C59.5759 50.6759 59.4271 49.613 59.257 48.6351C59.0657 47.6571 59.0232 46.7005 58.9594 45.8289C58.8956 44.9572 58.8318 44.1494 58.8105 43.4479C58.8105 42.7463 58.8318 42.1298 58.8743 41.6196C58.9168 40.5992 58.9594 40.0252 58.9594 40.0252V40.0039Z" fill="#4D6699"/>
<path d="M64.9371 35.3516C64.9371 35.3516 65.1072 35.9043 65.341 36.8822C65.4686 37.3712 65.6174 37.9664 65.745 38.668C65.915 39.3482 66.1276 40.0923 66.3615 40.9214C66.574 41.7505 66.7866 42.6221 67.0843 43.5575C67.3606 44.4929 67.6583 45.4708 67.9346 46.5125C68.2535 47.533 68.6149 48.5746 68.9338 49.6376C69.2314 50.7005 69.6141 51.7847 69.9755 52.8477C70.3369 53.9319 70.6345 55.0161 71.0384 56.0791C71.4211 57.1208 71.74 58.1837 72.1014 59.2041C72.5478 60.5647 72.9942 61.8402 73.3556 63.0095C73.9296 64.7102 74.3123 66.0708 74.4824 66.6023C75.2477 68.7707 75.5453 70.11 75.354 69.8336C75.1839 69.536 74.0359 67.8565 72.6329 65.3267C72.2289 64.5614 71.8038 63.711 71.3786 62.8182C70.9534 61.9253 70.4645 60.9899 70.0605 59.9907C69.6566 58.9915 69.1889 57.9499 68.8062 56.8869C68.381 55.824 68.0409 54.7185 67.6583 53.613C67.3181 52.5076 66.9355 51.4021 66.6591 50.2966C66.3615 49.1912 66.1063 48.0857 65.8512 47.044C65.6386 45.981 65.4686 44.9394 65.3198 43.9402C65.1072 42.9623 65.0647 42.0056 64.9796 41.134C64.8946 40.2624 64.8308 39.4545 64.8308 38.753C64.8308 38.0514 64.8521 37.4349 64.8733 36.946C64.9159 35.9256 64.9584 35.3516 64.9584 35.3516H64.9371Z" fill="#4D6699"/>
<path d="M70.8939 30.6758C70.8939 30.6758 71.064 31.2285 71.3191 32.2277C71.4466 32.7166 71.5954 33.3119 71.7442 33.9922C71.9356 34.6725 72.1482 35.4165 72.382 36.2456C72.5946 37.0747 72.8284 37.9464 73.1261 38.8817C73.4237 39.8171 73.7213 40.7951 73.9977 41.8155C74.3166 42.8359 74.6992 43.8776 74.9969 44.9406C75.2945 46.0248 75.6984 47.0877 76.0598 48.1507C76.4212 49.2349 76.7401 50.3191 77.1228 51.3608C77.5054 52.4237 77.8456 53.4654 78.1857 54.4858C78.5896 55.6763 78.9723 56.8031 79.3337 57.8448C79.7802 59.1628 80.1203 60.2895 80.3329 60.9698C81.2895 63.6697 81.736 65.4767 81.6509 65.3279C81.5659 65.1791 80.3329 63.3933 78.781 60.6084C78.377 59.8431 77.9306 59.014 77.5054 58.1211C77.0803 57.2282 76.57 56.2928 76.1661 55.2937C75.7622 54.2945 75.2945 53.2741 74.8906 52.2111C74.4441 51.1482 74.104 50.0427 73.7001 48.9585C73.3599 47.853 72.9773 46.7476 72.7009 45.6421C72.382 44.5366 72.1482 43.4312 71.8718 42.3895C71.6592 41.3265 71.4679 40.2848 71.2978 39.2857C71.1065 38.3078 71.0215 37.3511 70.9577 36.4795C70.8726 35.6079 70.8089 34.8 70.7876 34.0985C70.7876 33.3969 70.7876 32.7804 70.8088 32.2702C70.8301 31.2498 70.8726 30.6758 70.8726 30.6758H70.8939Z" fill="#4D6699"/>
<path d="M76.8702 25.9961C76.8702 25.9961 77.0403 26.5488 77.2954 27.548C77.4229 28.037 77.5717 28.6322 77.7206 29.3125C77.9119 29.9715 78.1245 30.7368 78.3583 31.5659C78.5922 32.395 78.826 33.2667 79.1237 34.2021C79.4213 35.1375 79.7189 36.1154 80.0165 37.1358C80.3354 38.1562 80.7181 39.1767 81.0582 40.2609C81.3771 41.3238 81.781 42.3868 82.1424 43.471C82.5038 44.5552 82.8227 45.6394 83.2266 46.6811C83.6305 47.7228 83.9494 48.7857 84.3109 49.7849C84.651 50.7841 85.0124 51.762 85.3313 52.6974C85.6714 53.6328 85.9478 54.5044 86.2241 55.3335C87.3721 58.5648 87.9674 60.8396 87.9674 60.8396C87.9674 60.8396 86.6281 58.9263 84.9273 55.9075C84.5234 55.1422 84.077 54.3131 83.6305 53.4202C83.2054 52.5273 82.6952 51.5919 82.2913 50.5927C81.8661 49.5936 81.3984 48.5731 80.9945 47.5102C80.548 46.4685 80.2079 45.363 79.804 44.2788C79.4426 43.1733 79.0599 42.0679 78.7623 40.9624C78.4434 39.8569 78.1882 38.7727 77.9119 37.7098C77.678 36.6468 77.508 35.6052 77.3379 34.6272C77.1466 33.6493 77.0615 32.6927 76.9765 31.8211C76.8915 30.9494 76.8064 30.1416 76.7852 29.44C76.7852 28.7385 76.7852 28.122 76.7852 27.6118C76.8064 26.5913 76.8489 26.0174 76.8489 26.0174L76.8702 25.9961Z" fill="#4D6699"/>
<path d="M94.4186 1.92805C107.217 -7.65975 143.697 19.4454 175.926 62.4736C208.154 105.481 223.907 148.126 211.109 157.714C198.311 167.302 161.831 140.196 129.602 97.1895C97.3736 54.1826 81.6207 11.5371 94.4186 1.94931V1.92805Z" fill="#334466"/>
<path d="M13.1593 163.881C31.1231 151.678 43.3258 146.661 41.1574 142.324L27.5942 115.793C29.7413 120.087 17.7087 124.977 0 137.073C1.63694 140.347 14.0522 136.606 16.8159 142.516C19.6008 148.489 10.9909 159.969 13.1593 163.881Z" fill="#800000"/>
<path d="M28.8875 117.727C28.8875 117.727 37.795 135.542 41.0051 141.963C37.0084 137.158 32.459 145.598 29.6528 141.07C25.6349 133.013 14.729 111.18 14.729 111.18L28.8875 117.706V117.727Z" fill="#4D0000"/>
<path d="M237.967 43.1094C218.345 55.6947 205.037 60.9882 207.163 65.3463L220.471 92.005C218.345 87.6894 231.462 82.5235 250.829 70.0445C249.235 66.7706 234.353 66.9619 232.589 63.3904C231.122 60.4142 240.115 47.0423 237.946 43.1094H237.967Z" fill="#800000"/>
<path d="M219.27 90.0702C219.27 90.0702 210.49 72.1914 207.343 65.7286C211.404 70.5332 216.591 61.9233 219.397 66.4727C223.351 74.5724 231.855 92.6213 231.855 92.6213L219.27 90.0702Z" fill="#4D0000"/>
<path d="M151.111 130.225C104.788 147.339 60.1864 146.276 51.4702 127.844L66.0751 158.755C74.7913 177.187 119.393 178.249 165.716 161.136C212.039 144.023 242.525 115.174 233.808 96.7426L219.204 65.832C227.92 84.2636 197.434 113.091 151.111 130.225Z" fill="#CC0000"/>
<path d="M91.2877 57.1189C43.7952 76.0182 10.9926 103.697 14.7342 111.202L30.0406 141.878C26.299 134.374 59.1016 106.695 106.594 87.7956C154.087 68.8751 196.945 62.7738 200.708 70.2782L185.38 39.6015C181.638 32.0971 138.759 38.1984 91.2665 57.1189H91.2877Z" fill="#CC0000"/>
<path d="M71.3537 74.8867C71.2687 74.6528 71.3537 74.4402 71.5663 74.3127C72.5442 73.8025 73.0119 73.5474 73.9473 73.0584C74.2237 72.9096 74.3937 72.9946 74.4788 73.2285C77.0086 79.5849 78.2629 82.7738 80.7927 89.1302C80.8777 89.364 80.8352 89.5766 80.5588 89.7042C79.6022 90.1931 79.1345 90.4482 78.1778 90.9585C77.944 91.086 77.7526 91.001 77.6463 90.7671C76.6472 88.2373 76.137 86.983 75.1378 84.4532C73.9473 85.091 73.3308 85.4099 72.119 86.0689C73.1395 88.5987 73.6497 89.853 74.6701 92.3616C74.7764 92.5954 74.6701 92.808 74.4575 92.9356C73.5008 93.4458 73.0119 93.7009 72.0552 94.2323C71.7789 94.3812 71.5875 94.3174 71.5025 94.0835C68.8664 87.8121 67.5484 84.6658 64.9122 78.3944C64.806 78.1606 64.8697 77.948 65.1886 77.7779C66.209 77.2039 66.7192 76.9275 67.7184 76.3748C67.9523 76.2473 68.1648 76.311 68.2711 76.5449C69.3128 79.096 69.823 80.3715 70.8647 82.9438C72.0978 82.2848 72.693 81.9659 73.9048 81.3281C72.8844 78.7558 72.3741 77.4803 71.3537 74.9079V74.8867Z" fill="white"/>
<path d="M78.029 75.0987C77.1361 72.8665 77.8164 71.0807 80.0061 70.0178C81.0478 69.5076 81.5792 69.2525 82.6209 68.7635C84.8319 67.7218 86.4901 68.3808 87.3617 70.613C88.9136 74.5247 89.7002 76.5018 91.2521 80.4134C92.145 82.6456 91.4221 84.3676 89.2325 85.4305C88.1908 85.9195 87.6593 86.1746 86.6176 86.6848C84.4279 87.7478 82.791 87.1525 81.9194 84.9203C80.3675 80.9874 79.5809 79.0316 78.029 75.1199V75.0987ZM87.5105 82.5818C88.127 82.2842 88.3184 81.8378 88.0633 81.1787C86.7027 77.7348 86.0011 76.0128 84.6406 72.5689C84.3854 71.9524 83.939 71.7823 83.3225 72.0586C82.7272 72.335 82.4296 72.4838 81.8344 72.7814C81.2391 73.0791 81.0265 73.568 81.2816 74.1845C82.6422 77.6285 83.3225 79.3505 84.7043 82.7944C84.9594 83.4322 85.4059 83.581 86.0224 83.2834C86.6176 82.9858 86.9153 82.8369 87.5318 82.5606L87.5105 82.5818Z" fill="white"/>
<path d="M100.329 68.0404C100.414 68.2743 100.329 68.4869 100.095 68.5719C99.1814 68.9333 98.7349 69.1246 97.842 69.486C97.5869 69.5923 97.3956 69.486 97.3106 69.2734C96.9917 68.4869 96.8429 68.1042 96.5452 67.3176C96.2901 66.7011 95.8225 66.5098 95.2059 66.7649C94.5894 67.02 94.2918 67.1476 93.6753 67.4239C93.0375 67.7003 92.8462 68.168 93.1013 68.7845C94.4619 72.2497 95.1634 73.9717 96.524 77.4156C96.7791 78.0534 97.2468 78.2235 97.8633 77.9684C98.4798 77.7133 98.7774 77.5857 99.3939 77.3306C100.01 77.0755 100.223 76.6291 99.9679 75.97C99.6491 75.1622 99.5002 74.7583 99.1601 73.9504C99.0751 73.7166 99.1176 73.5252 99.3939 73.4189C100.287 73.0363 100.755 72.8662 101.647 72.5048C101.881 72.3985 102.094 72.5048 102.179 72.7387C102.583 73.7591 102.795 74.2906 103.199 75.311C104.092 77.5432 103.327 79.2226 101.095 80.158C100.032 80.6045 99.479 80.8383 98.416 81.2848C96.1838 82.2414 94.5044 81.6037 93.6115 79.3715C92.0596 75.4598 91.273 73.4827 89.7211 69.5711C88.8283 67.3389 89.5723 65.5956 91.8045 64.639C92.8674 64.1713 93.3989 63.9587 94.4831 63.5123C96.7153 62.5769 98.416 63.2784 99.2877 65.5319C99.6916 66.5523 99.9042 67.0625 100.308 68.1042L100.329 68.0404Z" fill="white"/>
<path d="M114.802 74.8229C114.505 74.9292 114.313 74.8654 114.101 74.6741C111.932 72.7608 110.869 71.8041 108.701 69.9121C108.616 70.7199 108.552 71.1238 108.467 71.9317C109.105 73.5686 109.445 74.3765 110.083 75.9921C110.21 76.311 110.104 76.5449 109.785 76.6512C108.85 77.0126 108.382 77.1826 107.468 77.544C107.149 77.6716 106.915 77.5653 106.788 77.2677C104.3 70.9963 103.046 67.85 100.559 61.5573C100.431 61.2384 100.537 61.0258 100.856 60.8983C101.792 60.5369 102.238 60.3668 103.174 60.0054C103.492 59.8778 103.726 60.0054 103.854 60.303C104.832 62.7691 105.321 64.0233 106.299 66.4894C106.788 63.4068 107.043 61.8762 107.553 58.8149C107.595 58.5598 107.702 58.3472 107.957 58.2622C108.977 57.9008 109.509 57.7094 110.529 57.3693C110.891 57.2417 111.167 57.4543 111.103 57.8157C110.572 61.2384 110.295 62.9391 109.764 66.4043C112.868 69.1255 114.42 70.5073 117.545 73.271C117.842 73.5261 117.778 73.8025 117.396 73.9513C116.354 74.3127 115.844 74.4828 114.802 74.8654V74.8229Z" fill="white"/>
<path d="M123.925 56.2021C124.01 56.4359 123.989 56.6273 123.691 56.7336C121.225 57.4564 120.013 57.839 117.568 58.6256C118.142 60.0925 118.44 60.8153 119.014 62.2822C120.864 61.6869 121.799 61.3893 123.67 60.8365C123.925 60.7515 124.116 60.8578 124.223 61.1129C124.605 62.0483 124.775 62.516 125.158 63.4727C125.264 63.7278 125.158 63.9191 124.924 64.0041C123.053 64.5569 122.118 64.8545 120.268 65.4497C120.821 66.8528 121.097 67.5544 121.671 68.9787C124.116 68.1921 125.328 67.8307 127.794 67.0867C128.092 67.0016 128.241 67.0867 128.347 67.3418C128.729 68.2984 128.921 68.7661 129.282 69.7228C129.389 69.9566 129.346 70.1267 129.027 70.2117C125.371 71.296 123.542 71.8699 119.928 73.0605C119.716 73.1242 119.503 73.0605 119.418 72.8053C116.888 66.4489 115.634 63.2601 113.104 56.9036C113.019 56.6698 113.104 56.4785 113.317 56.3934C116.931 55.1817 118.759 54.6077 122.437 53.5447C122.734 53.4597 122.883 53.566 122.99 53.7998C123.372 54.7565 123.564 55.2242 123.925 56.1808V56.2021Z" fill="white"/>
<path d="M136.998 49.4825C137.402 49.3762 137.7 49.5675 137.657 49.9077C137.253 54.4146 137.041 56.668 136.679 61.1324C137.593 63.4497 138.061 64.5976 138.975 66.9149C139.103 67.2337 138.975 67.4463 138.635 67.5314C137.615 67.7865 137.126 67.9353 136.127 68.1904C135.786 68.2754 135.531 68.1691 135.425 67.8503C134.511 65.5543 134.043 64.3851 133.15 62.0891C129.706 58.6451 128.006 56.9231 124.604 53.5005C124.328 53.2453 124.413 52.9477 124.796 52.8414C125.795 52.5651 126.284 52.4162 127.304 52.1399C127.602 52.0548 127.836 52.1399 128.027 52.3525C130.131 54.4784 131.216 55.5413 133.342 57.6672C133.533 54.9035 133.639 53.5005 133.852 50.7368C133.852 50.4604 134.001 50.2691 134.32 50.1841C135.382 49.8864 135.914 49.7589 136.998 49.4612V49.4825Z" fill="white"/>
</svg>
