<svg viewBox="0 0 327 222" fill="none" xmlns="http://www.w3.org/2000/svg">
<path d="M182.102 129.281H120.05L109.813 148.351H192.34L182.102 129.281Z" fill="#8DB0F8"/>
<path d="M162.622 129.282C163.657 120.31 175.483 109.837 170.457 104.732C166.687 100.903 151.091 105.82 151.091 105.858C151.091 105.858 135.495 100.903 131.725 104.732C126.699 109.837 138.488 120.31 139.56 129.282C139.967 132.735 128.399 134.049 129.729 137.765C131.54 142.871 151.091 141.407 151.128 141.407C151.128 141.407 170.679 142.871 172.527 137.765C173.82 134.087 162.289 132.735 162.696 129.282H162.622Z" fill="#4D6699"/>
<path d="M142.487 137.767C141.97 134.088 146.59 132.737 146.442 129.283C146.035 120.312 141.268 109.839 143.3 104.733C143.559 104.095 143.929 103.72 144.372 103.532C142.081 103.082 139.789 103.157 138.828 104.733C135.65 109.839 143.116 120.312 143.781 129.283C144.04 132.737 136.722 134.051 137.572 137.767C138.348 141.296 144.483 141.671 148.216 141.596C145.887 141.521 142.931 140.808 142.487 137.767Z" fill="#7399E6"/>
<path d="M158.364 129.283C159.029 120.312 166.494 109.839 163.316 104.733C162.318 103.157 160.064 103.082 157.772 103.532C158.216 103.757 158.622 104.133 158.844 104.733C160.877 109.839 156.109 120.312 155.703 129.283C155.555 132.737 160.175 134.051 159.657 137.767C159.214 140.808 156.257 141.521 153.929 141.596C157.661 141.709 163.796 141.296 164.572 137.767C165.422 134.088 158.105 132.737 158.364 129.283Z" fill="#1A2233"/>
<path d="M107.551 87.4279C94.7639 95.0106 65.2716 74.0642 53.3712 53.4557C37.849 26.5033 47.9385 15.0917 55.367 10.6997C62.9433 6.19509 75.4351 8.71018 80.1287 15.6548C81.607 17.8695 85.5984 25.7525 74.4372 34.7617C72.2567 36.526 69.0414 36.1506 67.3044 33.9359C65.5674 31.7211 65.937 28.4552 68.1175 26.691C70.8523 24.5137 72.3306 22.3741 71.7393 21.4731C70.187 19.1833 63.5347 17.7569 60.4672 19.5587C53.1126 23.9131 53.7038 33.5605 62.1302 48.2004C67.0826 56.7591 75.7307 65.6557 85.3028 71.9996C95.4292 78.719 101.416 79.0944 102.451 78.4937C104.853 77.0673 107.995 77.8932 109.399 80.3331C110.804 82.7731 109.991 85.9264 107.588 87.3904L107.551 87.4279Z" fill="#8DB0F8"/>
<path d="M195.924 87.4279C208.711 95.0106 238.241 74.0642 250.104 53.4557C265.626 26.5033 255.537 15.0917 248.108 10.6997C240.532 6.19509 228.04 8.71018 223.347 15.6548C221.868 17.8695 217.877 25.7525 229.038 34.7617C231.218 36.526 234.434 36.1506 236.171 33.9359C237.908 31.7211 237.538 28.4552 235.358 26.691C232.623 24.5137 231.145 22.3741 231.736 21.4731C233.288 19.1833 239.941 17.7569 243.008 19.5587C250.363 23.9131 249.808 33.5605 241.345 48.2004C236.393 56.7591 227.744 65.6557 218.172 71.9996C208.046 78.719 202.059 79.0944 201.024 78.4937C198.622 77.0673 195.48 77.8932 194.076 80.3331C192.672 82.7731 193.485 85.9264 195.887 87.3904L195.924 87.4279Z" fill="#8DB0F8"/>
<path d="M76.6926 9.12109C76.6926 63.3639 109.992 107.359 151.089 107.359C192.186 107.359 225.485 63.3639 225.485 9.12109H76.6926Z" fill="#8DB0F8"/>
<path d="M216.609 11.598C216.609 5.92973 185.602 1.3125 147.387 1.3125C109.173 1.3125 78.1655 5.92973 78.1655 11.598C78.1655 17.2663 109.173 21.8834 147.387 21.8834C185.602 21.8834 216.609 17.2663 216.609 11.598Z" fill="white"/>
<path d="M225.485 9.12182C225.485 4.0917 192.186 0 151.089 0C109.992 0 76.6926 4.0917 76.6926 9.12182C76.6926 14.1519 109.992 18.2436 151.089 18.2436C192.186 18.2436 225.485 14.1519 225.485 9.12182Z" fill="#7399E6"/>
<path d="M216.941 8.37227C216.941 4.35568 187.449 1.08984 151.045 1.08984C114.642 1.08984 85.1497 4.35568 85.1497 8.37227C85.1497 12.3889 114.642 15.6547 151.045 15.6547C187.449 15.6547 216.941 12.3889 216.941 8.37227Z" fill="#2238B3"/>
<path d="M193.386 26.9881C193.386 26.9881 193.778 27.047 194.483 27.1332C195.163 27.2199 196.155 27.3006 197.329 27.3445C197.902 27.3335 198.555 27.3875 199.207 27.3749C199.884 27.3619 200.588 27.3484 201.318 27.3344C202.775 27.2066 204.336 27.0104 205.896 26.781C206.675 26.633 207.456 26.5515 208.208 26.3376C208.961 26.1569 209.713 25.943 210.439 25.7296C211.165 25.5161 211.839 25.3037 212.486 25.0918C212.823 24.9856 213.134 24.8799 213.445 24.7742C213.755 24.6352 214.04 24.4968 214.324 24.3916C215.436 23.9048 216.366 23.4215 216.985 23.0439C217.63 22.699 217.964 22.4599 217.964 22.4599C217.964 22.4599 217.547 22.4679 216.87 22.4809C216.167 22.5277 215.204 22.6127 214.06 22.8009C213.489 22.9116 212.864 22.9568 212.187 23.0363C211.537 23.1153 210.835 23.1953 210.107 23.309C209.379 23.4228 208.651 23.5365 207.898 23.6839C207.144 23.8314 206.39 23.9124 205.61 24.0271C204.077 24.2893 202.57 24.5842 201.142 24.9108C200.415 25.0578 199.714 25.2043 199.065 25.3497C198.416 25.4952 197.793 25.6733 197.196 25.8178C196.054 26.1057 195.096 26.4233 194.422 26.669C193.749 26.9146 193.387 27.0546 193.387 27.0546L193.386 26.9881Z" fill="#1A2233"/>
<path d="M216.972 29.3115C216.972 29.3115 216.578 29.3404 215.894 29.439C215.553 29.4883 215.132 29.5605 214.659 29.6124C214.186 29.6642 213.66 29.717 213.081 29.7922C212.529 29.8669 211.872 29.9223 211.214 29.9991C210.557 30.0758 209.874 30.1744 209.138 30.2527C208.428 30.3304 207.665 30.4305 206.929 30.5301C206.167 30.6089 205.404 30.709 204.642 30.8091C203.118 31.0307 201.567 31.2102 200.148 31.4511C199.439 31.5502 198.729 31.6493 198.073 31.7688C197.416 31.8882 196.786 32.0072 196.208 32.1038C195.052 32.2969 194.108 32.5074 193.426 32.6701C192.77 32.8323 192.376 32.9253 192.376 32.9253C192.376 32.9253 192.772 32.9604 193.458 33.0114C194.144 33.0623 195.146 33.1071 196.332 33.1057C197.518 33.1257 198.887 33.0566 200.362 33.0069C201.835 32.8932 203.414 32.7773 204.965 32.5552C205.753 32.4332 206.515 32.3331 207.277 32.2116C208.038 32.0688 208.8 31.9259 209.509 31.7841C210.244 31.6418 210.925 31.4577 211.581 31.2955C212.237 31.112 212.84 30.9722 213.416 30.7688C213.966 30.5873 214.489 30.4062 214.934 30.2481C215.379 30.09 215.719 29.9125 216.032 29.7783C216.633 29.4889 216.972 29.3115 216.972 29.3115Z" fill="#1A2233"/>
<path d="M215.956 35.0774C215.956 35.0774 215.573 35.1378 214.909 35.2831C214.576 35.3425 214.194 35.4558 213.733 35.5177C213.273 35.5796 212.787 35.6684 212.251 35.7848C210.052 36.1451 207.138 36.6252 204.197 37.1058C203.482 37.2521 202.74 37.3458 202.025 37.4921C201.309 37.6119 200.594 37.7582 199.904 37.904C199.214 38.0233 198.55 38.1686 197.911 38.2869C197.272 38.4317 196.685 38.5755 196.149 38.6918C195.05 38.925 194.132 39.1812 193.494 39.379C192.857 39.5768 192.5 39.6897 192.5 39.6897C192.5 39.6897 192.886 39.7353 193.554 39.8019C194.222 39.8686 195.172 39.9299 196.3 39.9347C197.429 39.9661 198.761 39.8874 200.17 39.8074C200.887 39.7406 201.604 39.6738 202.346 39.58C203.088 39.4862 203.83 39.3925 204.571 39.2457C205.312 39.0989 206.053 38.9786 206.794 38.8054C207.534 38.6321 208.223 38.4333 208.912 38.261C209.601 38.0887 210.264 37.864 210.875 37.6402C211.486 37.4164 212.073 37.2196 212.606 36.9443C213.14 36.6954 213.623 36.4741 214.029 36.2542C214.462 36.0604 214.765 35.816 215.069 35.6246C215.627 35.2693 215.955 35.0244 215.955 35.0244L215.956 35.0774Z" fill="#1A2233"/>
<path d="M213.846 41.8975C213.846 41.8975 213.468 41.9574 212.864 42.1008C212.562 42.1593 212.186 42.2984 211.757 42.3593C211.328 42.4202 210.85 42.5085 210.346 42.6236C209.843 42.7387 209.263 42.8025 208.658 42.9195C208.054 43.0366 207.424 43.1541 206.769 43.2457C205.458 43.4817 204.073 43.7192 202.687 43.9566C201.301 44.2204 199.89 44.4584 198.581 44.7471C197.926 44.8651 197.297 45.0089 196.693 45.1259C196.088 45.243 195.535 45.4117 195.007 45.5273C193.949 45.7584 193.069 46.0125 192.466 46.2086C191.863 46.4047 191.511 46.5168 191.511 46.5168C191.511 46.5168 191.867 46.5891 192.499 46.6296C193.132 46.6965 194.044 46.7581 195.131 46.7899C196.219 46.8217 197.481 46.7447 198.819 46.6663C199.501 46.6005 200.182 46.5347 200.888 46.4421C201.594 46.3494 202.3 46.2568 203.03 46.111C203.735 45.9657 204.44 45.8204 205.146 45.6751C205.85 45.5034 206.529 45.3059 207.183 45.1352C207.837 44.9645 208.464 44.7153 209.041 44.4934C209.644 44.271 210.196 44.0759 210.697 43.8027C211.198 43.5559 211.648 43.3101 212.049 43.1179C212.45 42.9257 212.748 42.6565 213.023 42.4931C213.547 42.1141 213.846 41.8975 213.846 41.8975Z" fill="#1A2233"/>
<path d="M211.68 48.7973C211.68 48.7973 211.33 48.8555 210.756 49.0211C210.456 49.0784 210.107 49.2139 209.707 49.2731C209.307 49.3581 208.857 49.444 208.357 49.5566C207.883 49.6687 207.307 49.7313 206.757 49.8449C206.182 49.959 205.607 50.0731 204.982 50.1881C204.357 50.3031 203.732 50.4182 203.082 50.5595C202.432 50.6492 201.757 50.791 201.107 50.9065C199.782 51.1638 198.457 51.3953 197.233 51.6764C196.607 51.7914 196.008 51.9317 195.433 52.0458C194.859 52.1856 194.334 52.3245 193.835 52.4371C192.835 52.6624 192.012 52.91 191.438 53.0756C190.864 53.2412 190.515 53.3767 190.515 53.3767C190.515 53.3767 190.868 53.4472 191.471 53.4871C192.074 53.5528 192.928 53.6136 193.983 53.6449C195.037 53.6761 196.215 53.602 197.493 53.5259C198.144 53.4619 198.795 53.3979 199.471 53.3076C200.146 53.2174 200.822 53.1271 201.497 52.9854C202.172 52.8436 202.846 52.7019 203.521 52.5601C204.17 52.3931 204.819 52.2003 205.443 52.0081C206.067 51.8415 206.664 51.5982 207.212 51.3816C207.76 51.1393 208.283 50.9489 208.78 50.7075C209.252 50.4666 209.674 50.2267 210.047 50.0135C210.445 49.8256 210.691 49.5633 210.963 49.3777C211.458 49.0076 211.73 48.7706 211.73 48.7706L211.68 48.7973Z" fill="#1A2233"/>
<path d="M208.494 55.6821C208.494 55.6821 208.167 55.7451 207.613 55.8691C207.336 55.9311 207.009 56.0318 206.605 56.0773C206.227 56.1412 205.773 56.2066 205.345 56.2904C204.891 56.3747 204.361 56.4227 203.832 56.5273C203.302 56.613 202.748 56.7181 202.142 56.7864C201.562 56.8732 200.957 56.9604 200.352 57.0664C199.722 57.1541 199.091 57.2418 198.486 57.3478C197.856 57.4544 197.226 57.5421 196.62 57.6293C196.015 57.7165 195.385 57.823 194.805 57.9286C194.2 58.0158 193.646 58.1209 193.091 58.2072C192.536 58.2934 192.033 58.4164 191.554 58.5012C190.596 58.6707 189.816 58.8557 189.262 58.9797C188.708 59.1037 188.381 59.2044 188.381 59.2044C188.381 59.2044 188.71 59.2547 189.293 59.2813C189.875 59.3268 190.685 59.3679 191.671 59.3868C192.658 59.4056 193.795 59.346 195.033 59.2844C195.639 59.235 196.27 59.1851 196.926 59.1158C197.557 59.047 198.213 58.9777 198.869 58.8707C199.524 58.7636 200.154 58.6571 200.784 58.5316C201.414 58.4062 202.018 58.2623 202.622 58.1185C203.227 57.9746 203.78 57.8129 204.308 57.6327C204.835 57.4526 205.313 57.3112 205.765 57.1136C206.216 56.9349 206.617 56.7383 206.968 56.5804C207.32 56.4414 207.569 56.2288 207.794 56.1111C208.244 55.838 208.494 55.6632 208.494 55.6632L208.494 55.6821Z" fill="#1A2233"/>
<path d="M201.011 62.6568C201.011 62.6568 200.768 62.6972 200.336 62.8097C200.132 62.8553 199.88 62.9674 199.581 62.976C199.299 63.0112 198.974 63.065 198.647 63.1427C198.319 63.2204 197.923 63.216 197.537 63.2859C197.132 63.3532 196.73 63.3966 196.288 63.4347C195.847 63.4729 195.403 63.5349 194.958 63.597C194.497 63.6325 194.037 63.668 193.573 63.7275C193.106 63.8108 192.648 63.8225 192.184 63.8819C191.723 63.9174 191.276 64.0034 190.834 64.0416C190.393 64.0797 189.968 64.1444 189.566 64.1878C189.163 64.2311 188.774 64.3249 188.431 64.3761C187.723 64.476 187.13 64.6153 186.702 64.7039C186.294 64.7951 186.044 64.8833 186.044 64.8833C186.044 64.8833 186.269 64.9864 186.691 65.0917C187.091 65.2183 187.686 65.371 188.382 65.5129C189.097 65.6574 189.922 65.7194 190.825 65.7917C191.28 65.804 191.737 65.7924 192.215 65.7834C192.692 65.7744 193.169 65.7654 193.656 65.6846C194.139 65.6278 194.622 65.571 195.089 65.4876C195.556 65.4043 196.03 65.2731 196.48 65.1632C196.931 65.0533 197.368 64.893 197.767 64.7275C198.165 64.562 198.541 64.4177 198.903 64.2231C199.266 64.0284 199.57 63.8259 199.848 63.6686C200.126 63.5113 200.313 63.2931 200.491 63.1466C200.85 62.8298 201.033 62.6355 201.033 62.6355L201.011 62.6568Z" fill="#1A2233"/>
<path d="M192.377 148.352H109.813V222.002H192.377V148.352Z" fill="#5C86DD"/>
<path d="M179.887 159.461H122.27V210.888H179.887V159.461Z" fill="#CCDCFF"/>
<path d="M172.559 166.035H129.577V173.731H172.559V166.035Z" fill="#4D6699"/>
<path d="M172.559 181.344H129.577V189.039H172.559V181.344Z" fill="#4D6699"/>
<path d="M172.559 196.625H129.577V204.32H172.559V196.625Z" fill="#4D6699"/>
<path d="M11.4868 102.646C19.7107 113.84 23.9624 119.361 32.6632 130.334C27.9743 143.493 25.489 150.065 20.2446 163.132C45.2734 159.619 57.7113 157.394 82.3425 151.982C79.7178 140.044 78.3807 134.084 75.756 122.146C73.1226 110.183 71.7942 104.248 69.1609 92.2855C46.3033 97.3126 34.7571 99.3999 11.5115 102.637L11.4868 102.646Z" fill="#DA1E0B"/>
<path d="M287.809 6.64662C288.127 20.5679 288.138 27.5797 287.944 41.6208C299.651 49.0961 305.615 52.7532 317.714 59.8388C295.803 72.5169 284.622 78.4385 261.868 89.3704C256.699 78.3105 254.102 72.7848 248.907 61.7335C243.705 50.6568 241.141 45.148 235.938 34.0713C257.056 23.9299 267.449 18.45 287.809 6.64662Z" fill="#E80024"/>
<path d="M40.0952 111.864C51.3541 104.573 58.6626 100.126 69.4804 92.5616C70.4473 97.363 72.6319 103.33 73.6074 108.156C61.6441 110.953 55.412 115.046 43.3563 117.478L40.0952 111.864Z" fill="#870202"/>
<path d="M238.475 36.1875C250.113 36.0002 255.963 35.7963 267.744 35.134C258.262 40.2812 253.461 42.7617 243.833 47.5618C241.683 43.0256 240.633 40.749 238.475 36.1875Z" fill="#870202"/>
<path d="M299.039 85.8571C219.117 126.328 138.319 154.328 50.623 171.858C46.3441 147.707 44.1878 135.623 39.9089 111.472C121.43 95.1713 196.585 69.1531 270.899 31.5036C282.168 53.2348 287.795 64.1173 299.064 85.8485L299.039 85.8571Z" fill="#E80024"/>
<g opacity="0.8">
<path d="M72.5975 130.287C72.6939 130.734 72.4833 131.089 72.013 131.167C70.2811 131.511 69.4071 131.7 67.6752 132.045C67.1556 132.139 66.8798 131.896 66.7833 131.449C66.492 129.941 66.3419 129.174 66.0506 127.665C65.8128 126.477 65.054 125.948 63.8665 126.189C62.7036 126.422 62.1013 126.517 60.9384 126.75C59.6929 126.982 59.2063 127.743 59.4441 128.932C60.6758 135.649 61.2959 139.021 62.5523 145.73C62.7825 146.977 63.5575 147.472 64.7944 147.214C66.0152 146.989 66.609 146.869 67.8298 146.645C69.0506 146.42 69.6038 145.693 69.365 144.42C69.0565 142.861 68.8979 142.069 68.5894 140.509C68.4929 140.063 68.6789 139.716 69.1986 139.621C70.9552 139.268 71.8377 139.104 73.5943 138.752C74.056 138.648 74.4145 138.892 74.4862 139.347C74.8911 141.353 75.0851 142.33 75.5147 144.328C76.4028 148.651 74.4368 151.476 70.0078 152.329C67.8635 152.76 66.7995 152.958 64.6628 153.33C60.1672 154.149 57.3165 152.254 56.5519 147.888C55.2262 140.243 54.5429 136.442 53.2172 128.797C52.4525 124.431 54.3787 121.732 58.6595 120.93C60.7135 120.559 61.7197 120.353 63.7404 119.965C67.9633 119.155 70.7549 120.957 71.6269 125.314C72.0233 127.295 72.2258 128.298 72.6554 130.295L72.5975 130.287Z" fill="white"/>
<path d="M86.9369 115.724C86.8404 115.278 87.051 114.923 87.488 114.828C89.3509 114.382 90.2742 114.176 92.1124 113.738C92.6482 113.609 92.9486 113.844 93.0451 114.291C95.9813 126.518 97.4698 132.61 100.406 144.837C100.511 145.309 100.341 145.622 99.7808 145.759C97.8438 146.231 96.8711 146.454 94.9255 146.9C94.4638 147.003 94.0978 146.819 93.9928 146.347C92.8666 141.485 92.3073 139.025 91.1811 134.162C88.7986 134.703 87.6197 134.97 85.2372 135.511C86.3139 140.39 86.8647 142.825 87.9501 147.73C88.0551 148.202 87.8359 148.532 87.3495 148.643C85.3954 149.065 84.4226 149.288 82.4685 149.709C81.8995 149.821 81.6076 149.611 81.5026 149.14C78.896 136.827 77.589 130.7 74.991 118.413C74.8945 117.966 75.0557 117.628 75.6 117.525C77.4554 117.138 78.4034 116.923 80.2502 116.511C80.7119 116.408 81.0371 116.634 81.1335 117.081C82.236 122.036 82.7792 124.53 83.8817 129.485C86.2396 128.953 87.4185 128.687 89.7763 128.154C88.6244 123.216 88.0565 120.73 86.9293 115.784L86.9369 115.724Z" fill="white"/>
<path d="M123.009 139.653C122.589 139.798 122.273 139.597 122.086 139.21C120.869 137.089 120.261 136.028 119.044 133.907C115.557 134.857 113.818 135.345 110.314 136.246C110.344 138.692 110.343 139.907 110.348 142.362C110.362 142.809 110.183 143.097 109.771 143.183C107.916 143.655 107.009 143.911 105.146 144.358C104.635 144.478 104.318 144.277 104.352 143.728C104.465 130.726 104.444 124.238 104.235 111.263C104.212 110.791 104.433 110.545 104.836 110.434C107.318 109.774 108.563 109.457 111.035 108.772C111.439 108.661 111.755 108.777 111.983 109.207C118.259 120.537 121.446 126.186 127.985 137.397C128.256 137.868 128.119 138.198 127.542 138.369C125.729 138.883 124.831 139.165 123.009 139.653ZM109.984 117.466C110.164 122.713 110.23 125.345 110.361 130.61C112.694 130.001 113.831 129.693 116.156 129.059C113.651 124.446 112.415 122.105 109.959 117.475L109.984 117.466Z" fill="white"/>
<path d="M147.12 97.6383C147.688 97.4419 148.088 97.6428 148.285 98.2243C152.228 109.998 154.203 115.898 158.145 127.672C158.343 128.253 158.124 128.668 157.531 128.873C155.826 129.462 154.961 129.761 153.247 130.325C152.654 130.53 152.221 130.312 152.023 129.731C149.744 122.693 148.609 119.187 146.33 112.149C146.207 112.192 146.133 112.217 146.034 112.252C146.641 119.895 146.919 123.726 147.452 131.395C147.467 131.927 147.231 132.29 146.688 132.478C145.592 132.829 145.039 132.991 143.968 133.333C143.424 133.521 143 133.329 142.713 132.891C138.769 126.316 136.842 122.999 132.996 116.389C132.873 116.432 132.798 116.458 132.675 116.5C134.805 123.589 135.866 127.121 137.997 134.21C138.195 134.792 137.952 135.215 137.35 135.394C135.643 135.899 134.795 136.164 133.063 136.678C132.462 136.857 132.054 136.631 131.881 136.041C128.408 124.105 126.664 118.154 123.191 106.217C122.994 105.636 123.237 105.213 123.814 105.042C126.147 104.349 127.326 103.998 129.65 103.279C130.169 103.1 130.568 103.301 130.855 103.739C135.257 111.173 137.503 114.86 142.028 122.252C141.55 113.603 141.265 109.266 140.654 100.635C140.639 100.104 140.85 99.7484 141.369 99.569C143.676 98.8001 144.846 98.424 147.145 97.6297L147.12 97.6383Z" fill="white"/>
<path d="M152.724 96.4685C152.57 96.0137 152.731 95.6757 153.175 95.5221C157.372 94.0715 159.453 93.2956 163.6 91.7777C167.672 90.2854 170.648 91.6563 172.186 95.7821C173.468 99.2343 174.109 100.96 175.416 104.404C176.945 108.505 175.553 111.555 171.358 113.174C169.113 114.035 167.986 114.453 165.723 115.263C166.981 118.808 167.59 120.602 168.848 124.147C169.003 124.602 168.866 124.931 168.381 125.127C166.579 125.75 165.69 126.057 163.888 126.68C163.419 126.842 163.053 126.658 162.907 126.229C158.844 114.338 156.804 108.41 152.741 96.519L152.724 96.4685ZM168.128 107.883C169.338 107.465 169.665 106.561 169.263 105.458C168.331 102.873 167.86 101.568 166.928 98.9826C166.533 97.8205 165.71 97.4275 164.534 97.8624C162.798 98.5188 161.918 98.8512 160.183 99.5076C161.595 103.507 162.306 105.52 163.719 109.52C165.504 108.846 166.392 108.539 168.144 107.849L168.128 107.883Z" fill="white"/>
<path d="M186.702 118.145C186.185 118.324 185.878 118.149 185.708 117.728C181.239 105.997 179.009 100.145 174.54 88.414C174.394 87.9851 174.497 87.6394 174.956 87.4522C176.727 86.7544 177.629 86.4138 179.417 85.6822C179.86 85.5288 180.207 85.6622 180.386 86.1078C184.953 97.8044 187.249 103.606 191.817 115.303C191.971 115.757 191.818 116.12 191.384 116.299C189.523 117.056 188.58 117.439 186.711 118.17L186.702 118.145Z" fill="white"/>
<path d="M186.98 89.8659C185.334 85.7484 186.594 82.7156 190.599 81.021C192.507 80.2204 193.469 79.8033 195.368 78.9774C199.364 77.2576 202.396 78.4681 204.157 82.5176C207.228 89.6148 208.768 93.1761 211.872 100.29C213.633 104.34 212.357 107.491 208.172 109.304C206.174 110.164 205.163 110.598 203.156 111.433C198.963 113.221 195.823 111.935 194.185 107.843C191.303 100.652 189.862 97.0567 186.98 89.8659ZM204.819 104.139C205.979 103.654 206.357 102.817 205.855 101.664C203.199 95.3831 201.863 92.2596 199.215 86.004C198.747 84.8674 197.891 84.5419 196.781 85.0103C195.671 85.4787 195.145 85.717 194.035 86.1854C192.925 86.6537 192.555 87.5155 193.024 88.6521C195.606 94.9586 196.917 98.0907 199.499 104.397C199.976 105.559 200.832 105.884 201.983 105.374C203.117 104.897 203.668 104.65 204.828 104.165L204.819 104.139Z" fill="white"/>
<path d="M222.994 66.2207C223.421 66.0165 223.77 66.15 223.974 66.5878C229.397 77.9285 232.087 83.5778 237.51 94.9184C237.705 95.331 237.561 95.7196 237.142 95.9491C235.77 96.6211 235.079 96.9444 233.682 97.625C233.279 97.8206 232.981 97.7543 232.63 97.4521C226.293 92.5262 223.162 90.0504 216.973 84.989C219.922 91.4808 221.384 94.7309 224.333 101.223C224.537 101.661 224.434 102.007 223.932 102.237C222.263 103.011 221.449 103.377 219.78 104.152C219.328 104.364 218.946 104.214 218.775 103.793C213.69 92.3075 211.164 86.5732 206.078 75.0878C205.883 74.6752 206.027 74.2866 206.454 74.0824C207.795 73.478 208.436 73.1717 209.776 72.5674C210.154 72.3802 210.437 72.4803 210.788 72.7826C216.902 77.8696 220.009 80.3539 226.279 85.3307C223.256 78.8645 221.754 75.6567 218.731 69.1905C218.527 68.7526 218.605 68.4149 219.082 68.1936C220.644 67.4281 221.433 67.0706 223.011 66.2712L222.994 66.2207Z" fill="white"/>
<path d="M238.511 58.3314C242.38 56.3166 245.492 57.274 247.541 61.1963C248.108 62.2989 248.404 62.846 248.972 63.9486C249.192 64.3526 249.122 64.7156 248.654 64.9621C246.97 65.8546 246.132 66.3135 244.448 67.206C244.029 67.4355 243.656 67.3105 243.436 66.9065C243.088 66.2078 242.91 65.8458 242.529 65.1304C241.971 64.053 241.148 63.7443 240.023 64.3309C239.111 64.8154 238.668 65.0534 237.747 65.5126C236.712 66.0398 236.384 66.9436 236.927 68.0548C237.631 69.4774 237.987 70.2014 238.715 71.6155C243.418 70.8372 245.794 70.4395 250.521 69.5684C251.362 69.4469 251.986 69.7395 252.417 70.5222C254.06 73.6533 254.864 75.2105 256.506 78.3416C258.555 82.2639 257.504 85.5072 253.446 87.6155C251.523 88.6186 250.538 89.1287 248.615 90.1319C244.598 92.1979 241.328 91.1821 239.403 87.2172C238.869 86.1312 238.597 85.5756 238.063 84.4897C237.851 84.0267 237.979 83.6719 238.406 83.4677C240.123 82.5919 241.003 82.175 242.711 81.274C243.18 81.0275 243.495 81.1443 243.732 81.5988C244.08 82.2975 244.258 82.6595 244.605 83.3581C245.181 84.4861 246.085 84.7101 247.17 84.1659C248.09 83.7067 248.55 83.4348 249.495 82.9671C250.595 82.389 250.94 81.5357 250.364 80.4078C249.517 78.7243 249.06 77.8658 248.213 76.1823C243.478 77.0281 241.126 77.4173 236.406 78.145C235.515 78.2836 234.883 77.9656 234.492 77.1406C233.059 74.2195 232.372 72.7631 230.939 69.8421C229.013 65.8771 230.091 62.7096 233.919 60.7372C235.776 59.7849 236.687 59.3004 238.544 58.3481L238.511 58.3314Z" fill="white"/>
</g>
</svg>
