<svg viewBox="0 0 525 233" fill="none" xmlns="http://www.w3.org/2000/svg">
<path d="M506.861 207.643C507.253 207.207 507.645 206.772 508.037 206.38L507.079 205.421L514.485 198.015L515.052 198.581C515.444 198.145 515.836 197.71 516.184 197.274L515.705 196.795L523.112 189.388C523.417 189.083 523.591 188.865 523.591 188.865L523.373 186.6L523.068 186.905L515.662 179.498L522.197 172.963L521.761 168.301L515.662 162.202L520.759 157.105L520.541 154.883L514.398 161.026L506.992 153.619L514.398 146.213L520.28 152.094L520.018 149.393L515.618 144.949L519.321 141.246L519.147 138.981L514.442 143.686L507.035 136.279L514.442 128.873L518.624 133.055L518.406 130.354L515.662 127.609L517.927 125.344L517.709 123.078L514.398 126.389L506.992 118.983L514.398 111.576L516.882 114.06L516.664 111.359L515.618 110.313L516.489 109.442L516.315 107.22L514.398 109.093L506.992 101.687L514.398 94.2801L515.226 95.1079L514.877 91.361L514.398 91.8403L506.992 84.4338L513.701 77.7679L513.309 73.4548L506.992 67.1374L512.263 61.8658L512.046 59.6438L505.728 65.9175L498.322 58.5111L505.728 51.1046L511.784 57.1605L511.566 54.4594L506.948 49.8411L510.826 45.9636L510.608 43.6981L505.728 48.5777L498.322 41.1711L505.728 33.7647L510.129 38.165L509.911 35.4638L506.992 32.5447L509.431 30.1049L509.214 27.8831L505.728 31.3248L498.322 23.9184L505.728 16.5119L507.558 18.3418C506.992 16.7298 506.251 15.1613 505.38 13.7236L498.322 6.66566L498.714 6.27344C498.235 5.9249 497.799 5.5764 497.276 5.22786L497.102 5.44577L496.274 4.61798C494.793 3.74663 493.268 3.00598 491.656 2.4396L495.882 6.66566L488.475 14.0721L481.069 6.66566L486.558 1.1761C485.818 1.08896 485.077 1.00175 484.336 0.958181L479.849 5.44577L475.274 0.871094H472.835L478.629 6.66566L471.223 14.0721L463.816 6.66566L469.611 0.871094H467.171L462.596 5.44577L458.022 0.871094H455.582L461.376 6.66566L453.97 14.0721L446.563 6.66566L452.358 0.871094H449.918L445.343 5.44577L440.769 0.871094H438.329L444.124 6.66566L436.717 14.0721L429.311 6.66566L435.105 0.871094H432.665L428.091 5.44577L423.516 0.871094H421.076L426.871 6.66566L419.464 14.0721L412.058 6.66566L417.852 0.871094H415.412L410.838 5.44577L406.263 0.871094H403.823L409.618 6.66566L402.211 14.0721L394.805 6.66566L400.6 0.871094H398.16L393.585 5.44577L389.01 0.871094H386.571L392.365 6.66566L384.959 14.0721L377.552 6.66566L383.347 0.871094H380.907L376.332 5.44577L371.758 0.871094H369.318L375.112 6.66566L367.706 14.0721L360.299 6.66566L366.094 0.871094H363.654L359.08 5.44577L354.505 0.871094H352.065L357.86 6.66566L350.453 14.0721L343.047 6.66566L348.841 0.871094H346.401L341.827 5.44577L337.252 0.871094H334.812L340.607 6.66566L333.2 14.0721L325.794 6.66566L331.588 0.871094H329.149L324.574 5.44577L319.999 0.871094H317.56L323.354 6.66566L315.948 14.0721L308.541 6.66566L314.336 0.871094H311.896L307.321 5.44577L302.747 0.871094H300.307L306.101 6.66566L298.695 14.0721L291.288 6.66566L297.083 0.871094H294.643L290.068 5.44577L285.494 0.871094H283.054L288.849 6.66566L281.442 14.0721L274.036 6.66566L279.83 0.871094H277.39L272.816 5.44577L268.241 0.871094H265.801L271.596 6.66566L264.189 14.0721L256.783 6.66566L262.577 0.871094H260.137L255.563 5.44577L250.988 0.871094H248.548L254.343 6.66566L246.936 14.0721L239.53 6.66566L245.324 0.871094H242.885L238.31 5.44577L233.735 0.871094H231.296L237.09 6.66566L229.684 14.0721L222.277 6.66566L228.072 0.871094H225.632L221.057 5.44577L216.57 0.958181C215.829 0.958181 215.089 1.08896 214.348 1.1761L219.837 6.66566L212.431 14.0721L205.024 6.66566L209.251 2.4396C207.639 3.00598 206.07 3.74663 204.632 4.61798L203.805 5.44577L203.587 5.22786C203.107 5.5764 202.628 5.9249 202.149 6.27344L202.541 6.66566L195.483 13.7236C194.612 15.2049 193.871 16.7297 193.305 18.3852L195.135 16.5555L202.541 23.962L195.135 31.3684L191.649 27.9266L191.475 30.1485L193.915 32.5883L190.996 35.5074L190.734 38.2086L195.135 33.8082L202.541 41.2148L195.135 48.6212L190.255 43.7416L190.037 46.0072L193.915 49.8847L189.297 54.5028L189.079 57.204L195.135 51.1482L202.541 58.5546L195.135 65.9611L188.817 59.6874L188.643 61.9094L193.915 67.181L187.597 73.4984L187.205 77.8115L193.871 84.4774L186.465 91.8839L185.985 91.4046L185.637 95.1515L186.465 94.3237L193.871 101.73L186.465 109.137L184.591 107.263L184.417 109.485L185.288 110.357L184.243 111.402L183.981 114.103L186.465 111.62L193.871 119.026L186.465 126.433L183.153 123.122L182.936 125.387L185.201 127.653L182.456 130.398L182.239 133.099L186.421 128.916L193.828 136.323L186.421 143.729L181.716 139.024L181.498 141.29L185.201 144.993L180.801 149.437L180.583 152.138L186.465 146.256L193.871 153.663L186.465 161.069L180.322 154.926L180.104 157.148L185.201 162.246L179.102 168.345L178.71 173.007L185.245 179.542L177.838 186.948L177.533 186.644L177.315 188.909C177.315 188.909 177.49 189.127 177.795 189.475L185.201 196.838L184.722 197.317C185.114 197.753 185.463 198.189 185.855 198.625L186.421 198.058L193.828 205.465L192.869 206.423C193.261 206.859 193.653 207.294 194.045 207.687L195.047 206.685L202.454 214.091L201.147 215.398C201.583 215.834 201.975 216.269 202.367 216.618L203.674 215.311L206.157 217.794V215.355L204.894 214.091L206.157 212.828V210.388L203.674 212.871L196.267 205.465L203.674 198.058L206.157 200.542V198.102L204.894 196.838L206.157 195.575V193.135L203.674 195.618L196.267 188.212L203.674 180.805L206.157 183.289V180.849L204.894 179.585L206.157 178.322V175.882L203.674 178.366L196.267 170.959L203.674 163.553L206.68 166.559H209.12L204.894 162.333L212.3 154.926L219.707 162.333L215.481 166.559H217.92L220.927 163.553L223.933 166.559H226.373L222.146 162.333L229.553 154.926L236.96 162.333L232.733 166.559H235.173L238.179 163.553L241.186 166.559H243.625L239.399 162.333L246.806 154.926L254.212 162.333L249.986 166.559H252.426L255.432 163.553L258.438 166.559H260.878L256.652 162.333L264.059 154.926L271.465 162.333L267.239 166.559H269.679L272.685 163.553L275.691 166.559H278.131L273.905 162.333L281.311 154.926L288.718 162.333L284.492 166.559H286.932L289.938 163.553L292.944 166.559H295.384L291.158 162.333L298.564 154.926L305.971 162.333L301.745 166.559H304.184L307.191 163.553L310.197 166.559H312.636L308.41 162.333L315.817 154.926L323.223 162.333L318.997 166.559H321.437L324.443 163.553L327.449 166.559H329.889L325.663 162.333L333.07 154.926L340.476 162.333L336.25 166.559H338.69L341.696 163.553L344.702 166.559H347.142L342.916 162.333L350.322 154.926L357.729 162.333L353.503 166.559H355.943L358.949 163.553L361.955 166.559H364.395L360.169 162.333L367.575 154.926L374.982 162.333L370.756 166.559H373.195L376.202 163.553L379.208 166.559H381.648L377.421 162.333L384.828 154.926L392.235 162.333L388.008 166.559H390.448L393.454 163.553L396.461 166.559H398.9L394.674 162.333L402.081 154.926L409.487 162.333L405.261 166.559H407.701L410.707 163.553L413.713 166.559H416.153L411.927 162.333L419.334 154.926L426.74 162.333L422.514 166.559H424.954L427.96 163.553L430.966 166.559H433.406L429.18 162.333L436.586 154.926L443.993 162.333L439.767 166.559H442.207L445.213 163.553L448.219 166.559H450.659L446.433 162.333L453.839 154.926L461.246 162.333L457.02 166.559H459.459L462.466 163.553L465.472 166.559H467.911L463.685 162.333L471.092 154.926L478.498 162.333L474.272 166.559H476.712L479.718 163.553L482.724 166.559H485.164L480.938 162.333L488.345 154.926L495.751 162.333L491.525 166.559H493.965L496.971 163.553L504.378 170.959L496.971 178.366L494.488 175.882V178.322L495.751 179.585L494.488 180.849V183.289L496.971 180.805L504.378 188.212L496.971 195.618L494.488 193.135V195.575L495.751 196.838L494.488 198.102V200.542L496.971 198.058L504.378 205.465L496.971 212.871L494.488 210.388V212.828L495.751 214.091L494.488 215.355V217.794L496.971 215.311L498.278 216.618C498.67 216.226 499.062 215.79 499.498 215.355L498.191 214.047L505.597 206.641L506.643 207.643H506.861ZM521.892 188.125L514.485 195.531L507.079 188.125L514.485 180.718L521.892 188.125ZM521.892 170.828L514.485 178.235L507.079 170.828L514.485 163.422L521.892 170.828ZM513.265 144.906L505.859 152.312L498.452 144.906L505.859 137.499L513.265 144.906ZM220.622 25.1383L228.028 32.5447L220.622 39.9513L213.215 32.5447L220.622 25.1383ZM211.995 31.3248L204.589 23.9184L211.995 16.5119L219.402 23.9184L211.995 31.3248ZM487.343 32.5447L479.936 39.9513L472.53 32.5447L479.936 25.1383L487.343 32.5447ZM481.156 23.9184L488.563 16.5119L495.969 23.9184L488.563 31.3248L481.156 23.9184ZM237.918 42.4346L245.324 49.8411L237.918 57.2476L230.511 49.8411L237.918 42.4346ZM229.292 48.6212L221.885 41.2148L229.292 33.8082L236.698 41.2148L229.292 48.6212ZM470.09 49.8411L462.683 57.2476L455.277 49.8411L462.683 42.4346L470.09 49.8411ZM463.903 41.2148L471.31 33.8082L478.716 41.2148L471.31 48.6212L463.903 41.2148ZM255.258 59.731L262.664 67.1374L255.258 74.544L247.851 67.1374L255.258 59.731ZM246.632 65.9175L239.225 58.5111L246.632 51.1046L254.038 58.5111L246.632 65.9175ZM452.837 67.1374L445.431 74.544L438.024 67.1374L445.431 59.731L452.837 67.1374ZM446.65 58.5111L454.057 51.1046L461.463 58.5111L454.057 65.9175L446.65 58.5111ZM262.708 84.4338L255.301 91.8403L247.895 84.4338L255.301 77.0274L262.708 84.4338ZM256.521 75.8075L263.928 68.4009L271.334 75.8075L263.928 83.2139L256.521 75.8075ZM263.928 85.6537L271.334 93.0602L263.928 100.467L256.521 93.0602L263.928 85.6537ZM265.148 84.4338L272.554 77.0274L279.961 84.4338L272.554 91.8403L265.148 84.4338ZM273.774 75.8075L281.181 68.4009L288.587 75.8075L281.181 83.2139L273.774 75.8075ZM281.181 85.6537L288.587 93.0602L281.181 100.467L273.774 93.0602L281.181 85.6537ZM282.401 84.4338L289.807 77.0274L297.214 84.4338L289.807 91.8403L282.401 84.4338ZM291.027 75.8075L298.433 68.4009L305.84 75.8075L298.433 83.2139L291.027 75.8075ZM298.433 85.6537L305.84 93.0602L298.433 100.467L291.027 93.0602L298.433 85.6537ZM299.653 84.4338L307.06 77.0274L314.466 84.4338L307.06 91.8403L299.653 84.4338ZM308.28 75.8075L315.686 68.4009L323.093 75.8075L315.686 83.2139L308.28 75.8075ZM315.686 85.6537L323.093 93.0602L315.686 100.467L308.28 93.0602L315.686 85.6537ZM316.906 84.4338L324.313 77.0274L331.719 84.4338L324.313 91.8403L316.906 84.4338ZM325.533 75.8075L332.939 68.4009L340.345 75.8075L332.939 83.2139L325.533 75.8075ZM332.939 85.6537L340.345 93.0602L332.939 100.467L325.533 93.0602L332.939 85.6537ZM334.159 84.4338L341.565 77.0274L348.972 84.4338L341.565 91.8403L334.159 84.4338ZM342.785 75.8075L350.192 68.4009L357.598 75.8075L350.192 83.2139L342.785 75.8075ZM350.192 85.6537L357.598 93.0602L350.192 100.467L342.785 93.0602L350.192 85.6537ZM351.412 84.4338L358.818 77.0274L366.225 84.4338L358.818 91.8403L351.412 84.4338ZM360.038 75.8075L367.445 68.4009L374.851 75.8075L367.445 83.2139L360.038 75.8075ZM367.445 85.6537L374.851 93.0602L367.445 100.467L360.038 93.0602L367.445 85.6537ZM368.664 84.4338L376.071 77.0274L383.477 84.4338L376.071 91.8403L368.664 84.4338ZM377.291 75.8075L384.697 68.4009L392.104 75.8075L384.697 83.2139L377.291 75.8075ZM384.697 85.6537L392.104 93.0602L384.697 100.467L377.291 93.0602L384.697 85.6537ZM385.917 84.4338L393.324 77.0274L400.73 84.4338L393.324 91.8403L385.917 84.4338ZM394.544 75.8075L401.95 68.4009L409.357 75.8075L401.95 83.2139L394.544 75.8075ZM401.95 85.6537L409.357 93.0602L401.95 100.467L394.544 93.0602L401.95 85.6537ZM403.17 84.4338L410.576 77.0274L417.983 84.4338L410.576 91.8403L403.17 84.4338ZM411.796 75.8075L419.203 68.4009L426.609 75.8075L419.203 83.2139L411.796 75.8075ZM419.203 85.6537L426.609 93.0602L419.203 100.467L411.796 93.0602L419.203 85.6537ZM420.423 84.4338L427.829 77.0274L435.236 84.4338L427.829 91.8403L420.423 84.4338ZM429.049 75.8075L436.456 68.4009L443.862 75.8075L436.456 83.2139L429.049 75.8075ZM436.456 85.6537L443.862 93.0602L436.456 100.467L429.049 93.0602L436.456 85.6537ZM437.676 84.4338L445.082 77.0274L452.489 84.4338L445.082 91.8403L437.676 84.4338ZM453.752 85.6537L461.158 93.0602L453.752 100.467L446.346 93.0602L453.752 85.6537ZM454.972 84.4338L462.378 77.0274L469.785 84.4338L462.378 91.8403L454.972 84.4338ZM453.752 83.2139L446.346 75.8075L453.752 68.4009L461.158 75.8075L453.752 83.2139ZM436.456 65.9175L429.049 58.5111L436.456 51.1046L443.862 58.5111L436.456 65.9175ZM435.236 67.1374L427.829 74.544L420.423 67.1374L427.829 59.731L435.236 67.1374ZM419.159 65.9175L411.753 58.5111L419.159 51.1046L426.566 58.5111L419.159 65.9175ZM417.939 67.1374L410.533 74.544L403.126 67.1374L410.533 59.731L417.939 67.1374ZM401.863 65.9175L394.456 58.5111L401.863 51.1046L409.269 58.5111L401.863 65.9175ZM400.643 67.1374L393.237 74.544L385.83 67.1374L393.237 59.731L400.643 67.1374ZM384.567 65.9175L377.16 58.5111L384.567 51.1046L391.973 58.5111L384.567 65.9175ZM383.347 67.1374L375.94 74.544L368.534 67.1374L375.94 59.731L383.347 67.1374ZM367.27 65.9175L359.864 58.5111L367.27 51.1046L374.677 58.5111L367.27 65.9175ZM366.05 67.1374L358.644 74.544L351.237 67.1374L358.644 59.731L366.05 67.1374ZM349.974 65.9175L342.567 58.5111L349.974 51.1046L357.38 58.5111L349.974 65.9175ZM348.754 67.1374L341.348 74.544L333.941 67.1374L341.348 59.731L348.754 67.1374ZM332.678 65.9175L325.271 58.5111L332.678 51.1046L340.084 58.5111L332.678 65.9175ZM331.458 67.1374L324.051 74.544L316.645 67.1374L324.051 59.731L331.458 67.1374ZM315.381 65.9175L307.975 58.5111L315.381 51.1046L322.788 58.5111L315.381 65.9175ZM314.161 67.1374L306.755 74.544L299.348 67.1374L306.755 59.731L314.161 67.1374ZM298.085 65.9175L290.678 58.5111L298.085 51.1046L305.491 58.5111L298.085 65.9175ZM296.865 67.1374L289.458 74.544L282.052 67.1374L289.458 59.731L296.865 67.1374ZM280.789 65.9175L273.382 58.5111L280.789 51.1046L288.195 58.5111L280.789 65.9175ZM279.569 67.1374L272.162 74.544L264.756 67.1374L272.162 59.731L279.569 67.1374ZM263.492 65.9175L256.086 58.5111L263.492 51.1046L270.899 58.5111L263.492 65.9175ZM253.646 75.7638L246.239 83.1704L238.833 75.7638L246.239 68.3573L253.646 75.7638ZM245.019 84.3903L237.613 91.7967L230.207 84.3903L237.613 76.9837L245.019 84.3903ZM246.239 85.6102L253.646 93.0166L246.239 100.423L238.833 93.0166L246.239 85.6102ZM245.019 101.687L237.613 109.093L230.207 101.687L237.613 94.2801L245.019 101.687ZM246.239 102.907L253.646 110.313L246.239 117.719L238.833 110.313L246.239 102.907ZM247.459 101.687L254.866 94.2801L262.272 101.687L254.866 109.093L247.459 101.687ZM263.536 102.907L270.942 110.313L263.536 117.719L256.129 110.313L263.536 102.907ZM264.756 101.687L272.162 94.2801L279.569 101.687L272.162 109.093L264.756 101.687ZM280.832 102.907L288.239 110.313L280.832 117.719L273.426 110.313L280.832 102.907ZM282.052 101.687L289.458 94.2801L296.865 101.687L289.458 109.093L282.052 101.687ZM298.128 102.907L305.535 110.313L298.128 117.719L290.722 110.313L298.128 102.907ZM299.348 101.687L306.755 94.2801L314.161 101.687L306.755 109.093L299.348 101.687ZM315.425 102.907L322.831 110.313L315.425 117.719L308.018 110.313L315.425 102.907ZM316.645 101.687L324.051 94.2801L331.458 101.687L324.051 109.093L316.645 101.687ZM332.721 102.907L340.128 110.313L332.721 117.719L325.315 110.313L332.721 102.907ZM333.941 101.687L341.348 94.2801L348.754 101.687L341.348 109.093L333.941 101.687ZM350.017 102.907L357.424 110.313L350.017 117.719L342.611 110.313L350.017 102.907ZM351.237 101.687L358.644 94.2801L366.05 101.687L358.644 109.093L351.237 101.687ZM367.314 102.907L374.72 110.313L367.314 117.719L359.907 110.313L367.314 102.907ZM368.534 101.687L375.94 94.2801L383.347 101.687L375.94 109.093L368.534 101.687ZM384.61 102.907L392.017 110.313L384.61 117.719L377.204 110.313L384.61 102.907ZM385.83 101.687L393.237 94.2801L400.643 101.687L393.237 109.093L385.83 101.687ZM401.907 102.907L409.313 110.313L401.907 117.719L394.5 110.313L401.907 102.907ZM403.126 101.687L410.533 94.2801L417.939 101.687L410.533 109.093L403.126 101.687ZM419.203 102.907L426.609 110.313L419.203 117.719L411.796 110.313L419.203 102.907ZM420.423 101.687L427.829 94.2801L435.236 101.687L427.829 109.093L420.423 101.687ZM436.499 102.907L443.906 110.313L436.499 117.719L429.093 110.313L436.499 102.907ZM437.719 101.687L445.126 94.2801L452.532 101.687L445.126 109.093L437.719 101.687ZM453.796 102.907L461.202 110.313L453.796 117.719L446.389 110.313L453.796 102.907ZM455.015 101.687L462.422 94.2801L469.828 101.687L462.422 109.093L455.015 101.687ZM471.092 102.907L478.498 110.313L471.092 117.719L463.685 110.313L471.092 102.907ZM472.312 101.687L479.718 94.2801L487.125 101.687L479.718 109.093L472.312 101.687ZM471.092 100.467L463.685 93.0602L471.092 85.6537L478.498 93.0602L471.092 100.467ZM472.312 84.3903L479.718 76.9837L487.125 84.3903L479.718 91.7967L472.312 84.3903ZM471.092 83.1704L463.685 75.7638L471.092 68.3573L478.498 75.7638L471.092 83.1704ZM462.466 74.544L455.059 67.1374L462.466 59.731L469.872 67.1374L462.466 74.544ZM463.685 58.4675L471.092 51.0609L478.498 58.4675L471.092 65.874L463.685 58.4675ZM453.839 48.6212L446.433 41.2148L453.839 33.8082L461.246 41.2148L453.839 48.6212ZM452.619 49.8411L445.213 57.2476L437.806 49.8411L445.213 42.4346L452.619 49.8411ZM436.543 48.6212L429.136 41.2148L436.543 33.8082L443.949 41.2148L436.543 48.6212ZM435.323 49.8411L427.916 57.2476L420.51 49.8411L427.916 42.4346L435.323 49.8411ZM419.246 48.6212L411.84 41.2148L419.246 33.8082L426.653 41.2148L419.246 48.6212ZM418.027 49.8411L410.62 57.2476L403.214 49.8411L410.62 42.4346L418.027 49.8411ZM401.95 48.6212L394.544 41.2148L401.95 33.8082L409.357 41.2148L401.95 48.6212ZM400.73 49.8411L393.324 57.2476L385.917 49.8411L393.324 42.4346L400.73 49.8411ZM384.654 48.6212L377.247 41.2148L384.654 33.8082L392.06 41.2148L384.654 48.6212ZM383.434 49.8411L376.027 57.2476L368.621 49.8411L376.027 42.4346L383.434 49.8411ZM367.357 48.6212L359.951 41.2148L367.357 33.8082L374.764 41.2148L367.357 48.6212ZM366.137 49.8411L358.731 57.2476L351.325 49.8411L358.731 42.4346L366.137 49.8411ZM350.061 48.6212L342.655 41.2148L350.061 33.8082L357.468 41.2148L350.061 48.6212ZM348.841 49.8411L341.435 57.2476L334.028 49.8411L341.435 42.4346L348.841 49.8411ZM332.765 48.6212L325.358 41.2148L332.765 33.8082L340.171 41.2148L332.765 48.6212ZM331.545 49.8411L324.138 57.2476L316.732 49.8411L324.138 42.4346L331.545 49.8411ZM315.468 48.6212L308.062 41.2148L315.468 33.8082L322.875 41.2148L315.468 48.6212ZM314.248 49.8411L306.842 57.2476L299.435 49.8411L306.842 42.4346L314.248 49.8411ZM298.172 48.6212L290.765 41.2148L298.172 33.8082L305.579 41.2148L298.172 48.6212ZM296.952 49.8411L289.546 57.2476L282.139 49.8411L289.546 42.4346L296.952 49.8411ZM280.876 48.6212L273.469 41.2148L280.876 33.8082L288.282 41.2148L280.876 48.6212ZM279.656 49.8411L272.249 57.2476L264.843 49.8411L272.249 42.4346L279.656 49.8411ZM263.579 48.6212L256.173 41.2148L263.579 33.8082L270.986 41.2148L263.579 48.6212ZM262.359 49.8411L254.953 57.2476L247.546 49.8411L254.953 42.4346L262.359 49.8411ZM246.283 48.6212L238.876 41.2148L246.283 33.8082L253.689 41.2148L246.283 48.6212ZM236.437 58.4675L229.03 65.874L221.624 58.4675L229.03 51.0609L236.437 58.4675ZM237.657 59.6874L245.063 67.0939L237.657 74.5004L230.25 67.0939L237.657 59.6874ZM236.437 75.7638L229.03 83.1704L221.624 75.7638L229.03 68.3573L236.437 75.7638ZM227.81 84.3903L220.404 91.7967L212.997 84.3903L220.404 76.9837L227.81 84.3903ZM229.03 85.6102L236.437 93.0166L229.03 100.423L221.624 93.0166L229.03 85.6102ZM227.81 101.687L220.404 109.093L212.997 101.687L220.404 94.2801L227.81 101.687ZM229.03 102.907L236.437 110.313L229.03 117.719L221.624 110.313L229.03 102.907ZM227.81 118.983L220.404 126.389L212.997 118.983L220.404 111.576L227.81 118.983ZM229.03 120.203L236.437 127.609L229.03 135.016L221.624 127.609L229.03 120.203ZM230.25 118.983L237.657 111.576L245.063 118.983L237.657 126.389L230.25 118.983ZM246.327 120.203L253.733 127.609L246.327 135.016L238.92 127.609L246.327 120.203ZM247.546 118.983L254.953 111.576L262.359 118.983L254.953 126.389L247.546 118.983ZM263.623 120.203L271.029 127.609L263.623 135.016L256.216 127.609L263.623 120.203ZM264.843 118.983L272.249 111.576L279.656 118.983L272.249 126.389L264.843 118.983ZM280.919 120.203L288.326 127.609L280.919 135.016L273.513 127.609L280.919 120.203ZM282.139 118.983L289.546 111.576L296.952 118.983L289.546 126.389L282.139 118.983ZM298.216 120.203L305.622 127.609L298.216 135.016L290.809 127.609L298.216 120.203ZM299.435 118.983L306.842 111.576L314.248 118.983L306.842 126.389L299.435 118.983ZM315.512 120.203L322.918 127.609L315.512 135.016L308.105 127.609L315.512 120.203ZM316.732 118.983L324.138 111.576L331.545 118.983L324.138 126.389L316.732 118.983ZM332.808 120.203L340.215 127.609L332.808 135.016L325.402 127.609L332.808 120.203ZM334.028 118.983L341.435 111.576L348.841 118.983L341.435 126.389L334.028 118.983ZM350.105 120.203L357.511 127.609L350.105 135.016L342.698 127.609L350.105 120.203ZM351.325 118.983L358.731 111.576L366.137 118.983L358.731 126.389L351.325 118.983ZM367.401 120.203L374.807 127.609L367.401 135.016L359.994 127.609L367.401 120.203ZM368.621 118.983L376.027 111.576L383.434 118.983L376.027 126.389L368.621 118.983ZM384.697 120.203L392.104 127.609L384.697 135.016L377.291 127.609L384.697 120.203ZM385.917 118.983L393.324 111.576L400.73 118.983L393.324 126.389L385.917 118.983ZM401.994 120.203L409.4 127.609L401.994 135.016L394.587 127.609L401.994 120.203ZM403.214 118.983L410.62 111.576L418.027 118.983L410.62 126.389L403.214 118.983ZM419.29 120.203L426.696 127.609L419.29 135.016L411.883 127.609L419.29 120.203ZM420.51 118.983L427.916 111.576L435.323 118.983L427.916 126.389L420.51 118.983ZM436.586 120.203L443.993 127.609L436.586 135.016L429.18 127.609L436.586 120.203ZM437.806 118.983L445.213 111.576L452.619 118.983L445.213 126.389L437.806 118.983ZM453.883 120.203L461.289 127.609L453.883 135.016L446.476 127.609L453.883 120.203ZM455.103 118.983L462.509 111.576L469.916 118.983L462.509 126.389L455.103 118.983ZM471.179 120.203L478.586 127.609L471.179 135.016L463.773 127.609L471.179 120.203ZM472.399 118.983L479.805 111.576L487.212 118.983L479.805 126.389L472.399 118.983ZM488.475 120.203L495.882 127.609L488.475 135.016L481.069 127.609L488.475 120.203ZM489.695 118.983L497.102 111.576L504.508 118.983L497.102 126.389L489.695 118.983ZM488.475 117.763L481.069 110.357L488.475 102.95L495.882 110.357L488.475 117.763ZM489.695 101.687L497.102 94.2801L504.508 101.687L497.102 109.093L489.695 101.687ZM488.475 100.467L481.069 93.0602L488.475 85.6537L495.882 93.0602L488.475 100.467ZM489.695 84.3903L497.102 76.9837L504.508 84.3903L497.102 91.7967L489.695 84.3903ZM488.475 83.1704L481.069 75.7638L488.475 68.3573L495.882 75.7638L488.475 83.1704ZM479.849 74.544L472.442 67.1374L479.849 59.731L487.255 67.1374L479.849 74.544ZM481.069 58.4675L488.475 51.0609L495.882 58.4675L488.475 65.874L481.069 58.4675ZM479.849 57.2476L472.442 49.8411L479.849 42.4346L487.255 49.8411L479.849 57.2476ZM481.069 41.1711L488.475 33.7647L495.882 41.1711L488.475 48.5777L481.069 41.1711ZM471.223 31.2813L463.816 23.8748L471.223 16.4684L478.629 23.8748L471.223 31.2813ZM470.003 32.5012L462.596 39.9076L455.19 32.5012L462.596 25.0947L470.003 32.5012ZM453.926 31.2813L446.52 23.8748L453.926 16.4684L461.333 23.8748L453.926 31.2813ZM452.706 32.5012L445.3 39.9076L437.893 32.5012L445.3 25.0947L452.706 32.5012ZM436.63 31.2813L429.223 23.8748L436.63 16.4684L444.036 23.8748L436.63 31.2813ZM435.41 32.5012L428.004 39.9076L420.597 32.5012L428.004 25.0947L435.41 32.5012ZM419.334 31.2813L411.927 23.8748L419.334 16.4684L426.74 23.8748L419.334 31.2813ZM418.114 32.5012L410.707 39.9076L403.301 32.5012L410.707 25.0947L418.114 32.5012ZM402.037 31.2813L394.631 23.8748L402.037 16.4684L409.444 23.8748L402.037 31.2813ZM400.817 32.5012L393.411 39.9076L386.004 32.5012L393.411 25.0947L400.817 32.5012ZM384.741 31.2813L377.334 23.8748L384.741 16.4684L392.147 23.8748L384.741 31.2813ZM383.521 32.5012L376.114 39.9076L368.708 32.5012L376.114 25.0947L383.521 32.5012ZM367.445 31.2813L360.038 23.8748L367.445 16.4684L374.851 23.8748L367.445 31.2813ZM366.225 32.5012L358.818 39.9076L351.412 32.5012L358.818 25.0947L366.225 32.5012ZM350.148 31.2813L342.742 23.8748L350.148 16.4684L357.555 23.8748L350.148 31.2813ZM348.928 32.5012L341.522 39.9076L334.115 32.5012L341.522 25.0947L348.928 32.5012ZM332.852 31.2813L325.445 23.8748L332.852 16.4684L340.258 23.8748L332.852 31.2813ZM331.632 32.5012L324.225 39.9076L316.819 32.5012L324.225 25.0947L331.632 32.5012ZM315.555 31.2813L308.149 23.8748L315.555 16.4684L322.962 23.8748L315.555 31.2813ZM314.336 32.5012L306.929 39.9076L299.523 32.5012L306.929 25.0947L314.336 32.5012ZM298.259 31.2813L290.853 23.8748L298.259 16.4684L305.666 23.8748L298.259 31.2813ZM297.039 32.5012L289.633 39.9076L282.226 32.5012L289.633 25.0947L297.039 32.5012ZM280.963 31.2813L273.556 23.8748L280.963 16.4684L288.369 23.8748L280.963 31.2813ZM279.743 32.5012L272.336 39.9076L264.93 32.5012L272.336 25.0947L279.743 32.5012ZM263.666 31.2813L256.26 23.8748L263.666 16.4684L271.073 23.8748L263.666 31.2813ZM262.447 32.5012L255.04 39.9076L247.634 32.5012L255.04 25.0947L262.447 32.5012ZM246.37 31.2813L238.964 23.8748L246.37 16.4684L253.777 23.8748L246.37 31.2813ZM245.15 32.5012L237.744 39.9076L230.337 32.5012L237.744 25.0947L245.15 32.5012ZM229.074 31.2813L221.667 23.8748L229.074 16.4684L236.48 23.8748L229.074 31.2813ZM219.227 41.1711L211.821 48.5777L204.414 41.1711L211.821 33.7647L219.227 41.1711ZM220.447 42.391L227.854 49.7976L220.447 57.204L213.041 49.7976L220.447 42.391ZM219.227 58.4675L211.821 65.874L204.414 58.4675L211.821 51.0609L219.227 58.4675ZM220.447 59.6874L227.854 67.0939L220.447 74.5004L213.041 67.0939L220.447 59.6874ZM219.227 75.7638L211.821 83.1704L204.414 75.7638L211.821 68.3573L219.227 75.7638ZM210.601 84.3903L203.195 91.7967L195.788 84.3903L203.195 76.9837L210.601 84.3903ZM211.821 85.6102L219.227 93.0166L211.821 100.423L204.414 93.0166L211.821 85.6102ZM210.601 101.687L203.195 109.093L195.788 101.687L203.195 94.2801L210.601 101.687ZM211.821 102.907L219.227 110.313L211.821 117.719L204.414 110.313L211.821 102.907ZM210.601 118.983L203.195 126.389L195.788 118.983L203.195 111.576L210.601 118.983ZM211.821 120.203L219.227 127.609L211.821 135.016L204.414 127.609L211.821 120.203ZM210.601 136.279L203.195 143.686L195.788 136.279L203.195 128.873L210.601 136.279ZM211.821 137.499L219.227 144.906L211.821 152.312L204.414 144.906L211.821 137.499ZM213.041 136.279L220.447 128.873L227.854 136.279L220.447 143.686L213.041 136.279ZM229.117 137.499L236.524 144.906L229.117 152.312L221.711 144.906L229.117 137.499ZM230.337 136.279L237.744 128.873L245.15 136.279L237.744 143.686L230.337 136.279ZM246.414 137.499L253.82 144.906L246.414 152.312L239.007 144.906L246.414 137.499ZM247.634 136.279L255.04 128.873L262.447 136.279L255.04 143.686L247.634 136.279ZM263.71 137.499L271.117 144.906L263.71 152.312L256.303 144.906L263.71 137.499ZM264.93 136.279L272.336 128.873L279.743 136.279L272.336 143.686L264.93 136.279ZM281.006 137.499L288.413 144.906L281.006 152.312L273.6 144.906L281.006 137.499ZM282.226 136.279L289.633 128.873L297.039 136.279L289.633 143.686L282.226 136.279ZM298.303 137.499L305.709 144.906L298.303 152.312L290.896 144.906L298.303 137.499ZM299.523 136.279L306.929 128.873L314.336 136.279L306.929 143.686L299.523 136.279ZM315.599 137.499L323.006 144.906L315.599 152.312L308.193 144.906L315.599 137.499ZM316.819 136.279L324.225 128.873L331.632 136.279L324.225 143.686L316.819 136.279ZM332.895 137.499L340.302 144.906L332.895 152.312L325.489 144.906L332.895 137.499ZM334.115 136.279L341.522 128.873L348.928 136.279L341.522 143.686L334.115 136.279ZM350.192 137.499L357.598 144.906L350.192 152.312L342.785 144.906L350.192 137.499ZM351.412 136.279L358.818 128.873L366.225 136.279L358.818 143.686L351.412 136.279ZM367.488 137.499L374.895 144.906L367.488 152.312L360.082 144.906L367.488 137.499ZM368.708 136.279L376.114 128.873L383.521 136.279L376.114 143.686L368.708 136.279ZM384.784 137.499L392.191 144.906L384.784 152.312L377.378 144.906L384.784 137.499ZM386.004 136.279L393.411 128.873L400.817 136.279L393.411 143.686L386.004 136.279ZM402.081 137.499L409.487 144.906L402.081 152.312L394.674 144.906L402.081 137.499ZM403.301 136.279L410.707 128.873L418.114 136.279L410.707 143.686L403.301 136.279ZM419.377 137.499L426.784 144.906L419.377 152.312L411.971 144.906L419.377 137.499ZM420.597 136.279L428.004 128.873L435.41 136.279L428.004 143.686L420.597 136.279ZM436.673 137.499L444.08 144.906L436.673 152.312L429.267 144.906L436.673 137.499ZM437.893 136.279L445.3 128.873L452.706 136.279L445.3 143.686L437.893 136.279ZM453.97 137.499L461.376 144.906L453.97 152.312L446.563 144.906L453.97 137.499ZM455.19 136.279L462.596 128.873L470.003 136.279L462.596 143.686L455.19 136.279ZM471.266 137.499L478.673 144.906L471.266 152.312L463.86 144.906L471.266 137.499ZM472.486 136.279L479.893 128.873L487.299 136.279L479.893 143.686L472.486 136.279ZM488.563 137.499L495.969 144.906L488.563 152.312L481.156 144.906L488.563 137.499ZM489.782 136.279L497.189 128.873L504.595 136.279L497.189 143.686L489.782 136.279ZM513.265 127.653L505.859 135.059L498.452 127.653L505.859 120.246L513.265 127.653ZM513.265 110.357L505.859 117.763L498.452 110.357L505.859 102.95L513.265 110.357ZM513.265 93.0602L505.859 100.467L498.452 93.0602L505.859 85.6537L513.265 93.0602ZM513.265 75.7638L505.859 83.1704L498.452 75.7638L505.859 68.3573L513.265 75.7638ZM504.639 67.1374L497.232 74.544L489.826 67.1374L497.232 59.731L504.639 67.1374ZM504.639 49.8411L497.232 57.2476L489.826 49.8411L497.232 42.4346L504.639 49.8411ZM504.639 32.5447L497.232 39.9513L489.826 32.5447L497.232 25.1383L504.639 32.5447ZM497.232 7.84194L504.639 15.2485L497.232 22.6549L489.826 15.2485L497.232 7.84194ZM479.936 7.84194L487.343 15.2485L479.936 22.6549L472.53 15.2485L479.936 7.84194ZM462.64 7.84194L470.046 15.2485L462.64 22.6549L455.233 15.2485L462.64 7.84194ZM445.343 7.84194L452.75 15.2485L445.343 22.6549L437.937 15.2485L445.343 7.84194ZM428.047 7.84194L435.454 15.2485L428.047 22.6549L420.641 15.2485L428.047 7.84194ZM410.751 7.84194L418.157 15.2485L410.751 22.6549L403.344 15.2485L410.751 7.84194ZM393.454 7.84194L400.861 15.2485L393.454 22.6549L386.048 15.2485L393.454 7.84194ZM376.158 7.84194L383.565 15.2485L376.158 22.6549L368.752 15.2485L376.158 7.84194ZM358.862 7.84194L366.268 15.2485L358.862 22.6549L351.455 15.2485L358.862 7.84194ZM341.565 7.84194L348.972 15.2485L341.565 22.6549L334.159 15.2485L341.565 7.84194ZM324.269 7.84194L331.675 15.2485L324.269 22.6549L316.863 15.2485L324.269 7.84194ZM306.973 7.84194L314.379 15.2485L306.973 22.6549L299.566 15.2485L306.973 7.84194ZM289.676 7.84194L297.083 15.2485L289.676 22.6549L282.27 15.2485L289.676 7.84194ZM272.38 7.84194L279.786 15.2485L272.38 22.6549L264.973 15.2485L272.38 7.84194ZM255.084 7.84194L262.49 15.2485L255.084 22.6549L247.677 15.2485L255.084 7.84194ZM237.787 7.84194L245.194 15.2485L237.787 22.6549L230.381 15.2485L237.787 7.84194ZM220.491 7.84194L227.897 15.2485L220.491 22.6549L213.084 15.2485L220.491 7.84194ZM195.788 15.2485L203.195 7.84194L210.601 15.2485L203.195 22.6549L195.788 15.2485ZM195.788 32.5447L203.195 25.1383L210.601 32.5447L203.195 39.9513L195.788 32.5447ZM195.788 49.8411L203.195 42.4346L210.601 49.8411L203.195 57.2476L195.788 49.8411ZM203.195 59.6874L210.601 67.0939L203.195 74.5004L195.788 67.0939L203.195 59.6874ZM187.118 75.7638L194.525 68.3573L201.931 75.7638L194.525 83.1704L187.118 75.7638ZM187.118 93.0602L194.525 85.6537L201.931 93.0602L194.525 100.467L187.118 93.0602ZM187.118 110.357L194.525 102.95L201.931 110.357L194.525 117.763L187.118 110.357ZM187.118 127.653L194.525 120.246L201.931 127.653L194.525 135.059L187.118 127.653ZM187.118 144.949L194.525 137.543L201.931 144.949L194.525 152.356L187.118 144.949ZM178.492 170.872L185.898 163.465L193.305 170.872L185.898 178.278L178.492 170.872ZM178.492 188.168L185.898 180.762L193.305 188.168L185.898 195.575L178.492 188.168ZM201.975 196.795L194.568 204.201L187.162 196.795L194.568 189.388L201.975 196.795ZM201.975 179.498L194.568 186.905L187.162 179.498L194.568 172.092L201.975 179.498ZM194.568 169.652L187.162 162.246L194.568 154.839L201.975 162.246L194.568 169.652ZM203.195 161.026L195.788 153.619L203.195 146.213L210.601 153.619L203.195 161.026ZM220.491 161.026L213.084 153.619L220.491 146.213L227.897 153.619L220.491 161.026ZM237.787 161.026L230.381 153.619L237.787 146.213L245.194 153.619L237.787 161.026ZM255.084 161.026L247.677 153.619L255.084 146.213L262.49 153.619L255.084 161.026ZM272.38 161.026L264.973 153.619L272.38 146.213L279.786 153.619L272.38 161.026ZM289.676 161.026L282.27 153.619L289.676 146.213L297.083 153.619L289.676 161.026ZM306.973 161.026L299.566 153.619L306.973 146.213L314.379 153.619L306.973 161.026ZM324.269 161.026L316.863 153.619L324.269 146.213L331.675 153.619L324.269 161.026ZM341.565 161.026L334.159 153.619L341.565 146.213L348.972 153.619L341.565 161.026ZM358.862 161.026L351.455 153.619L358.862 146.213L366.268 153.619L358.862 161.026ZM376.158 161.026L368.752 153.619L376.158 146.213L383.565 153.619L376.158 161.026ZM393.454 161.026L386.048 153.619L393.454 146.213L400.861 153.619L393.454 161.026ZM410.751 161.026L403.344 153.619L410.751 146.213L418.157 153.619L410.751 161.026ZM428.047 161.026L420.641 153.619L428.047 146.213L435.454 153.619L428.047 161.026ZM445.343 161.026L437.937 153.619L445.343 146.213L452.75 153.619L445.343 161.026ZM462.64 161.026L455.233 153.619L462.64 146.213L470.046 153.619L462.64 161.026ZM479.936 161.026L472.53 153.619L479.936 146.213L487.343 153.619L479.936 161.026ZM489.782 153.619L497.189 146.213L504.595 153.619L497.189 161.026L489.782 153.619ZM498.409 162.246L505.815 154.839L513.222 162.246L505.815 169.652L498.409 162.246ZM498.409 179.542L505.815 172.135L513.222 179.542L505.815 186.948L498.409 179.542ZM498.409 196.838L505.815 189.432L513.222 196.838L505.815 204.245L498.409 196.838Z" fill="#6291EF"/>
<path d="M494.828 220.713L493.869 220.626V219.755V167.3H206.715V220.452L206.279 220.539C206.279 220.539 205.931 220.713 205.713 220.713C204.319 220.713 194.429 210.17 176.261 189.388L176 189.127V188.778L190.421 27.1425C190.421 12.1988 202.62 0 217.651 0H482.89C497.921 0 510.12 12.1989 510.12 27.2298L524.541 189.171L524.28 189.432C506.112 210.214 496.178 220.757 494.784 220.757L494.828 220.713ZM204.972 165.557H495.569V218.23C499.664 214.527 513.736 198.799 522.755 188.517L508.377 27.2298C508.377 13.0703 496.919 1.65546 482.847 1.65546H217.607C203.535 1.65546 192.12 13.0702 192.12 27.1425L177.743 188.517C186.761 198.799 200.834 214.527 204.929 218.23V165.557H204.972Z" fill="#334466"/>
<path d="M501.747 220.67C499.961 220.67 498.218 219.885 497.042 218.36C495.037 215.746 495.517 212 498.131 209.995C507.149 203.068 511.767 195.923 511.767 188.822C511.767 185.293 510.635 182.504 508.238 180.152C495.037 167.168 448.551 167.822 394.745 168.606C380.455 168.824 365.685 169.042 350.306 169.042C334.926 169.042 320.157 168.824 305.867 168.606C252.061 167.822 205.574 167.168 192.373 180.152C189.933 182.548 188.844 185.293 188.844 188.822C188.844 195.923 193.419 203.068 202.437 209.995C205.051 212 205.531 215.746 203.526 218.317C201.522 220.931 197.776 221.41 195.205 219.406C183.093 210.083 176.95 199.801 176.95 188.778C176.95 182.025 179.346 176.231 184.052 171.612C200.782 155.1 244.959 155.754 306.085 156.625C320.331 156.843 335.057 157.061 350.349 157.061C365.642 157.061 380.367 156.843 394.614 156.625C455.739 155.754 499.917 155.1 516.647 171.612C521.352 176.231 523.749 182.025 523.749 188.778C523.749 199.801 517.605 210.083 505.494 219.406C504.405 220.234 503.141 220.626 501.878 220.626L501.747 220.67Z" fill="#800000"/>
<path d="M356.19 9.23438H344.296V162.244H356.19V9.23438Z" fill="#800000"/>
<path d="M482.898 0.781891H217.658C203.107 0.781891 191.3 12.6322 191.3 27.1403V219.709C191.474 221.626 194.655 223.151 198.532 223.151C202.41 223.151 205.59 221.626 205.765 219.709V219.535V27.0966C205.765 20.5615 211.08 15.2899 217.571 15.2899H482.811C489.346 15.2899 494.618 20.6051 494.618 27.0966V219.666C494.792 221.583 497.973 223.107 501.85 223.107C505.728 223.107 508.908 221.583 509.082 219.666V27.0966C509.082 12.5451 497.275 0.738281 482.724 0.738281L482.898 0.781891Z" fill="#CC0000"/>
<path d="M198.209 30.628C198.209 17.9934 208.491 7.71141 221.126 7.71141H486.365C491.811 7.71141 496.778 9.62831 500.743 12.8087C496.516 7.58063 490.112 4.26953 482.923 4.26953H217.684C205.049 4.26953 194.767 14.5515 194.767 27.1861V218.927C195.246 219.232 196.466 219.668 198.209 219.711V30.628Z" fill="#FF3333"/>
<path d="M501.612 219.711V30.6272C501.612 25.5298 499.085 21.0422 495.251 18.2539C497.081 20.7808 498.17 23.8306 498.17 27.1417V218.883C498.649 219.188 499.869 219.624 501.612 219.667V219.711Z" fill="#FF3333"/>
<path d="M186.814 130.074C186.814 112.134 170.597 97.5703 150.617 97.5703C130.636 97.5703 114.42 112.134 114.42 130.074C114.42 148.014 143.933 130.812 150.617 131.235C158.074 131.727 186.814 148.014 186.814 130.074Z" fill="#1A2233"/>
<path d="M94.3948 71.5778C94.3948 93.1411 119.546 110.624 150.607 110.624C181.668 110.624 206.82 93.1411 206.82 71.5778C206.82 50.0144 161.055 45.8635 150.607 45.8987C140.089 45.9338 94.3948 49.9792 94.3948 71.5778Z" fill="#CC0000"/>
<path d="M158.128 64.5409C154.786 51.5255 127.735 47.2691 97.6588 54.9728C67.5827 62.6765 46.1952 79.3855 49.2555 92.4713C59.9845 138.518 97.5885 96.5869 107.649 93.9838C117.815 91.3456 161.47 77.5563 158.128 64.5409Z" fill="#CC0000"/>
<path d="M135.276 64.5409C138.617 51.5255 165.668 47.2691 195.745 54.9728C225.821 62.6765 247.173 79.3855 244.148 92.4713C233.419 138.518 195.815 96.5869 185.754 93.9838C175.588 91.3456 131.969 77.5563 135.276 64.5409Z" fill="#CC0000"/>
<path d="M150.607 73.3327C159.296 73.3327 192.679 75.3377 203.443 84.941C205.624 80.7901 206.82 76.2874 206.82 71.6089C206.82 50.0455 161.055 45.8947 150.607 45.9299C140.089 45.9651 94.3948 50.0104 94.3948 71.6089C94.3948 76.2874 95.5909 80.7901 97.7718 84.941C108.501 75.3729 141.813 73.3678 150.607 73.3327Z" fill="#E80024"/>
<path d="M121.053 55.6403C121.053 76.6409 150.601 100.737 150.601 100.737C150.601 100.737 180.115 76.6409 180.115 55.6403C180.115 34.6398 156.054 37.6298 150.601 37.7001C145.078 37.7353 121.053 34.6398 121.053 55.6403Z" fill="#1A2233"/>
<path d="M175.197 40.7961C175.197 40.5147 175.197 40.2333 175.197 39.987C175.197 26.3736 164.187 15.3633 150.574 15.3633C136.96 15.3633 125.95 26.3736 125.95 39.987C125.95 40.2684 125.95 40.5499 125.95 40.7961C126.02 42.8012 126.302 44.7359 126.829 46.5651C127.216 48.4294 127.638 50.1531 127.779 51.4898C128.096 55.0778 128.236 62.465 129.468 65.842C130.664 69.0783 134.85 73.7919 136.608 76.7819C138.367 79.7719 139.423 87.2646 142.026 89.5159C143.679 90.9582 148.358 91.7321 150.538 91.7321C152.719 91.7321 157.398 90.9582 159.051 89.5159C161.689 87.2646 162.745 79.7719 164.468 76.7819C166.227 73.7919 170.413 69.0783 171.609 65.842C172.841 62.465 172.981 55.0778 173.298 51.4898C173.439 50.1179 173.825 48.4294 174.248 46.5651C174.775 44.7007 175.057 42.766 175.127 40.7961H175.197Z" fill="#CC0000"/>
<path d="M127.357 39.987C127.357 40.2684 127.357 40.5499 127.357 40.7961C127.427 42.8012 127.708 44.7359 128.201 46.5651C128.588 48.4294 128.975 50.1531 129.08 51.4898C129.362 55.0778 130.523 61.0931 131.719 64.47C132.844 67.7063 139.844 73.4402 141.498 76.4302C143.151 79.4203 147.83 89.4104 144.769 90.7823C146.774 91.3803 149.201 91.732 150.608 91.732C152.227 91.732 155.146 91.3099 157.222 90.536C154.795 88.2847 157.714 79.4554 159.367 76.4653C161.021 73.4753 168.373 67.7415 169.498 64.5053C170.659 61.1283 171.82 55.113 172.137 51.525C172.242 50.1531 172.629 48.4647 173.016 46.6003C173.509 44.7359 173.79 42.8011 173.86 40.8312C173.86 40.5498 173.86 40.2685 173.86 40.0222C173.86 26.4088 163.448 15.3984 150.608 15.3984C137.769 15.3984 127.357 26.4088 127.357 40.0222V39.987Z" fill="#FF3333"/>
<path d="M169.604 35.9431C169.604 27.4303 162.393 19.7617 155.463 19.7617C150.046 19.7617 153.106 27.7821 153.106 36.2949C153.106 44.8076 150.187 51.3856 157.081 51.3856C163.976 51.3856 169.604 44.491 169.604 35.9431Z" fill="#CC0000"/>
<path d="M170.52 38.0901C164.716 36.859 137.208 36.7183 130.665 38.0901C125.987 39.0751 126.796 41.6782 126.901 42.6983C127.183 45.3366 129.786 50.6131 130.067 53.2513C130.173 54.3066 131.333 57.4374 134.816 58.5983C138.685 59.935 146.53 66.3723 150.646 66.3371C154.761 66.3371 163.204 59.6888 166.475 58.5983C169.958 57.4023 171.118 54.2715 171.224 53.2513C171.505 50.6131 174.108 45.3366 174.39 42.6983C174.495 41.6782 175.269 39.0751 170.626 38.0901H170.52Z" fill="#4D6699"/>
<path d="M150.569 60.919C147.579 60.919 141.81 58.8083 138.011 57.4364C137.237 57.155 136.534 56.9088 135.936 56.6978C133.473 55.8183 132.735 53.4615 132.7 53.0394L129.569 42.4863C129.569 42.4863 129.569 42.2753 129.534 42.1346C129.393 41.1497 129.323 40.5868 131.644 40.0591C133.262 39.7073 141.775 39.1094 149.795 39.1094C157.816 39.1094 167.982 39.7073 169.53 40.0591C171.851 40.5516 171.781 41.1497 171.64 42.1346C171.64 42.2753 171.64 42.3808 171.605 42.4863L168.474 53.0394C168.439 53.4615 167.7 55.8183 165.238 56.6978C164.746 56.8737 164.183 57.0847 163.514 57.3309C160.067 58.5973 153.63 60.9541 150.605 60.9541L150.569 60.919Z" fill="#1A2233"/>
<path d="M155.188 15.3631C155.293 14.9761 154.942 14.554 154.449 14.4485C151.389 13.8505 149.806 13.8505 146.781 14.4485C146.288 14.554 145.936 14.9761 146.042 15.3631C146.323 16.4887 146.464 17.0516 146.71 18.1772C146.816 18.5642 147.203 18.8104 147.59 18.7401C149.982 18.2828 151.248 18.2828 153.64 18.7401C154.027 18.8104 154.449 18.5642 154.519 18.1772C154.801 17.0516 154.941 16.4887 155.188 15.3631Z" fill="#4D0000"/>
<path d="M131.897 22.9974C131.65 22.7511 131.193 22.8214 130.912 23.1732C129.188 25.1431 128.52 26.304 127.675 28.8015C127.535 29.2236 127.675 29.6457 128.027 29.7512C128.977 30.0327 129.434 30.1734 130.384 30.4548C130.701 30.5603 131.052 30.3493 131.158 30.0327C131.826 28.098 132.354 27.1834 133.726 25.6004C133.937 25.3542 133.937 24.932 133.726 24.721C133.022 24.0526 132.67 23.7008 131.967 23.0325L131.897 22.9974Z" fill="#4D0000"/>
<path d="M169.32 22.9974C169.567 22.7511 170.024 22.8214 170.305 23.1732C172.029 25.1431 172.697 26.304 173.541 28.8015C173.682 29.2236 173.542 29.6457 173.19 29.7512C172.24 30.0327 171.783 30.1734 170.833 30.4548C170.516 30.5603 170.165 30.3493 170.059 30.0327C169.391 28.098 168.863 27.1834 167.491 25.6004C167.28 25.3542 167.28 24.932 167.491 24.721C168.195 24.0526 168.546 23.7008 169.25 23.0325L169.32 22.9974Z" fill="#4D0000"/>
<path d="M175.937 43.0449C175.937 43.0449 175.866 43.0449 175.831 43.0449C175.374 43.0097 175.022 42.5877 175.092 42.0952C175.092 41.9897 175.092 41.8841 175.128 41.7786C175.304 40.5826 175.55 38.8941 171.716 38.085C165.735 36.8186 136.504 36.6076 129.468 38.085C125.669 38.8941 125.88 40.5474 126.056 41.7786C126.056 41.8841 126.056 42.0248 126.091 42.0952C126.126 42.5525 125.81 42.9746 125.317 43.0449C124.86 43.0801 124.438 42.7635 124.403 42.3062C124.403 42.2359 124.403 42.1303 124.403 42.06C124.227 40.8288 123.77 37.6278 129.152 36.5021C136.328 34.9895 166.052 35.2006 172.103 36.5021C177.485 37.6278 177.027 40.864 176.851 42.06C176.851 42.1655 176.851 42.2359 176.816 42.3062C176.781 42.7284 176.394 43.0801 175.972 43.0801L175.937 43.0449Z" fill="#CCDCFF"/>
<path d="M161.058 40.726H140.128C137.419 40.726 135.203 38.5099 135.203 35.8012C135.203 35.3439 135.59 34.957 136.048 34.957C136.505 34.957 136.892 35.3439 136.892 35.8012C136.892 37.5953 138.334 39.0376 140.128 39.0376H161.058C162.852 39.0376 164.295 37.5953 164.295 35.8012C164.295 35.3439 164.681 34.957 165.139 34.957C165.596 34.957 165.983 35.3439 165.983 35.8012C165.983 38.5099 163.767 40.726 161.058 40.726Z" fill="#CCDCFF"/>
<path d="M150.55 59.5813C145.379 59.5813 136.303 58.4908 131.801 57.0486C127.228 55.5712 125.785 51.5962 125.645 50.3298C125.574 49.8725 125.926 49.4504 126.383 49.3801C126.841 49.3449 127.263 49.6615 127.333 50.1188C127.439 50.9278 128.529 54.1641 132.328 55.3953C136.62 56.7672 145.625 57.8576 150.55 57.8576H150.62C155.228 57.8576 165.113 56.6265 168.912 55.3953C172.711 54.1641 173.802 50.8927 173.907 50.1188C173.942 49.6615 174.365 49.3097 174.857 49.3801C175.314 49.4153 175.666 49.8373 175.596 50.3298C175.455 51.5962 174.013 55.5712 169.44 57.0486C165.43 58.3501 155.439 59.5813 150.62 59.5813H150.55Z" fill="#CCDCFF"/>
<path d="M150.537 60.2845C150.08 60.2845 149.693 59.8976 149.693 59.4403V35.4146C149.693 34.9573 150.08 34.5703 150.537 34.5703C150.994 34.5703 151.381 34.9573 151.381 35.4146V59.4403C151.381 59.8976 150.994 60.2845 150.537 60.2845Z" fill="#CCDCFF"/>
<path d="M150.533 50.611C141.317 50.611 133.121 45.1235 129.638 36.5755C129.462 36.1534 129.638 35.6609 130.095 35.4851C130.517 35.3092 131.01 35.4851 131.186 35.9424C134.422 43.822 142.02 48.9226 150.533 48.9226C159.046 48.9226 166.644 43.822 169.88 35.9424C170.056 35.5203 170.549 35.3092 171.006 35.4851C171.428 35.6609 171.639 36.1534 171.463 36.5755C167.981 45.0883 159.749 50.611 150.568 50.611H150.533Z" fill="#CCDCFF"/>
<path d="M150.582 56.6602C146.361 56.6602 138.974 54.4793 134.085 53.0019C133.17 52.7205 132.291 52.4742 131.587 52.2631C126.944 50.9264 125.466 47.3384 125.326 46.1776C125.255 45.7203 125.607 45.2981 126.064 45.2277C126.521 45.1574 126.944 45.5092 127.014 45.9665C127.084 46.6701 128.21 49.5193 132.044 50.6098C132.783 50.8208 133.627 51.0672 134.577 51.3486C139.361 52.7908 146.607 54.9366 150.582 54.9366C154.628 54.9366 162.402 52.6149 167.045 51.243C167.854 50.9968 168.593 50.7857 169.156 50.6098C172.99 49.5193 174.116 46.6701 174.186 45.9665C174.256 45.5092 174.679 45.1574 175.136 45.2277C175.593 45.2981 175.945 45.7203 175.875 46.1776C175.734 47.3384 174.256 50.9264 169.613 52.2631C169.05 52.439 168.312 52.6501 167.502 52.8964C162.789 54.3034 154.839 56.6602 150.547 56.6602H150.582Z" fill="#CCDCFF"/>
<path d="M215.776 206.583C214.299 200.708 211.52 196.311 209.515 196.803C207.51 197.296 207.088 202.467 208.565 208.376C210.008 214.251 214.827 218.156 214.827 218.156C214.827 218.156 217.254 212.492 215.776 206.583Z" fill="#4D6699"/>
<path d="M221.343 198.773C219.865 192.898 213.92 189.31 208.046 190.752C202.171 192.23 198.583 198.175 200.026 204.049C201.503 209.924 207.061 211.999 212.971 210.557C218.845 209.079 222.82 204.647 221.378 198.773H221.343Z" fill="#1A2233"/>
<path d="M168.294 99.8686L200.726 91.8123C205.745 90.5657 210.859 93.6449 212.105 98.6634L233.823 186.094C235.07 191.113 231.991 196.227 226.972 197.474L194.54 205.53C189.522 206.776 184.407 203.697 183.161 198.679L161.443 111.248C160.196 106.23 163.275 101.115 168.294 99.8686Z" fill="#4D0000"/>
<path d="M200.403 194.834C200.895 196.769 199.875 198.668 198.187 199.09L193.227 200.322C191.538 200.744 189.744 199.512 189.287 197.578L187.88 191.95C187.387 190.015 188.407 188.115 190.096 187.693L195.056 186.462C196.744 186.04 198.538 187.271 198.996 189.206L200.403 194.834ZM212.679 185.829C212.187 183.894 210.428 182.663 208.74 183.085L203.78 184.316C202.091 184.738 201.071 186.638 201.564 188.572L202.971 194.201C203.463 196.136 205.222 197.367 206.91 196.945L211.87 195.713C213.559 195.291 214.579 193.392 214.087 191.457L212.679 185.829ZM226.363 182.417C225.871 180.482 224.112 179.251 222.423 179.673L217.463 180.904C215.775 181.326 214.755 183.226 215.247 185.16L216.654 190.789C217.147 192.723 218.906 193.955 220.594 193.532L225.554 192.301C227.243 191.879 228.263 189.98 227.77 188.045L226.363 182.417Z" fill="#800000"/>
<path d="M196.245 178.158C196.737 180.093 195.717 181.992 194.029 182.415L189.069 183.646C187.38 184.068 185.586 182.837 185.129 180.902L183.722 175.274C183.23 173.339 184.25 171.439 185.938 171.017L190.898 169.786C192.587 169.364 194.381 170.595 194.838 172.53L196.245 178.158ZM208.522 169.153C208.029 167.218 206.27 165.987 204.582 166.409L199.622 167.64C197.933 168.062 196.913 169.962 197.406 171.897L198.813 177.525C199.305 179.46 201.064 180.691 202.753 180.269L207.713 179.038C209.401 178.615 210.386 176.716 209.929 174.781L208.522 169.153ZM222.205 165.741C221.713 163.806 219.954 162.575 218.266 162.997L213.306 164.228C211.617 164.65 210.597 166.55 211.09 168.485L212.497 174.113C212.989 176.048 214.748 177.279 216.436 176.857L221.396 175.625C223.085 175.203 224.105 173.304 223.613 171.369L222.205 165.741Z" fill="#800000"/>
<path d="M192.136 161.486C192.628 163.421 191.608 165.321 189.92 165.743L184.96 166.974C183.271 167.396 181.477 166.165 181.02 164.23L179.613 158.602C179.12 156.667 180.14 154.768 181.829 154.345L186.789 153.114C188.477 152.692 190.271 153.923 190.729 155.858L192.136 161.486ZM204.412 152.481C203.92 150.546 202.161 149.315 200.473 149.737L195.513 150.968C193.824 151.39 192.804 153.29 193.297 155.225L194.704 160.853C195.196 162.788 196.955 164.019 198.643 163.597L203.603 162.366C205.292 161.944 206.312 160.044 205.819 158.109L204.412 152.481ZM218.096 149.069C217.604 147.134 215.845 145.903 214.156 146.325L209.196 147.556C207.508 147.978 206.488 149.878 206.98 151.813L208.387 157.441C208.88 159.376 210.639 160.607 212.327 160.185L217.287 158.954C218.976 158.531 219.961 156.632 219.503 154.697L218.096 149.069Z" fill="#800000"/>
<path d="M187.988 144.814C188.48 146.749 187.495 148.649 185.772 149.071L180.812 150.302C179.123 150.724 177.329 149.493 176.872 147.558L175.465 141.93C174.972 139.995 175.992 138.096 177.681 137.674L182.641 136.442C184.329 136.02 186.123 137.252 186.581 139.186L187.988 144.814ZM200.264 135.809C199.772 133.874 198.013 132.643 196.325 133.065L191.365 134.297C189.676 134.719 188.656 136.618 189.149 138.553L190.556 144.181C191.048 146.116 192.807 147.347 194.495 146.925L199.455 145.694C201.144 145.272 202.164 143.372 201.671 141.437L200.264 135.809ZM213.948 132.397C213.456 130.462 211.697 129.231 210.008 129.653L205.048 130.884C203.36 131.307 202.34 133.206 202.832 135.141L204.239 140.769C204.732 142.704 206.491 143.935 208.179 143.513L213.139 142.282C214.828 141.86 215.813 139.96 215.355 138.025L213.948 132.397Z" fill="#800000"/>
<path d="M211.191 121.35C211.684 123.284 210.663 125.184 208.975 125.606L176.683 133.626C174.994 134.048 173.2 132.817 172.743 130.882L171.336 125.254C170.843 123.319 171.863 121.42 173.552 120.998L205.844 112.977C207.533 112.555 209.327 113.787 209.784 115.721L211.191 121.35Z" fill="#800000"/>
<path d="M207.043 104.678C207.536 106.612 206.516 108.512 204.827 108.934L172.535 116.954C170.846 117.376 169.052 116.145 168.595 114.211L167.188 108.582C166.695 106.648 167.716 104.748 169.404 104.326L201.696 96.3056C203.385 95.8835 205.179 97.1146 205.636 99.0494L207.043 104.678Z" fill="#800000"/>
<path d="M85.4696 206.586C86.947 200.712 89.7259 196.315 91.731 196.807C93.7361 197.3 94.1582 202.471 92.6808 208.38C91.2385 214.255 86.4193 218.16 86.4193 218.16C86.4193 218.16 83.9921 212.496 85.4696 206.586Z" fill="#4D6699"/>
<path d="M79.9099 198.777C81.3873 192.902 87.3322 189.314 93.2067 190.756C99.0812 192.234 102.669 198.179 101.227 204.053C99.7496 209.928 94.1916 212.003 88.2819 210.561C82.4074 209.083 78.4325 204.651 79.8748 198.777H79.9099Z" fill="#1A2233"/>
<path d="M67.4253 186.253C66.1941 191.283 69.2544 196.384 74.2847 197.65L106.718 205.706C111.748 206.972 116.849 203.876 118.115 198.846L139.819 111.397C141.05 106.366 137.99 101.266 132.96 99.9993L100.527 91.9438C95.4964 90.6774 90.3957 93.773 89.1293 98.8033L67.4253 186.253Z" fill="#4D0000"/>
<path d="M102.221 189.206C102.713 187.271 104.472 186.04 106.161 186.462L111.121 187.693C112.809 188.115 113.829 190.015 113.337 191.949L111.93 197.578C111.437 199.512 109.678 200.744 107.99 200.321L103.03 199.09C101.341 198.668 100.321 196.769 100.814 194.834L102.221 189.206ZM87.13 191.422C86.6375 193.356 87.6577 195.256 89.3462 195.678L94.306 196.909C95.9945 197.332 97.7886 196.1 98.2459 194.166L99.6529 188.537C100.145 186.603 99.1253 184.703 97.4368 184.281L92.4768 183.05C90.7884 182.628 88.9944 183.859 88.5371 185.794L87.13 191.422ZM73.4462 188.01C72.9537 189.944 73.9739 191.844 75.6623 192.266L80.6223 193.497C82.3108 193.919 84.1048 192.688 84.5621 190.753L85.9691 185.125C86.4616 183.19 85.4415 181.291 83.753 180.869L78.7931 179.638C77.1046 179.215 75.3105 180.447 74.8532 182.381L73.4462 188.01Z" fill="#800000"/>
<path d="M106.374 172.534C106.866 170.599 108.625 169.368 110.313 169.79L115.273 171.021C116.962 171.443 117.982 173.343 117.49 175.278L116.082 180.906C115.59 182.841 113.831 184.072 112.143 183.65L107.183 182.418C105.494 181.996 104.474 180.097 104.967 178.162L106.374 172.534ZM91.2828 174.75C90.7904 176.685 91.8105 178.584 93.499 179.006L98.4589 180.238C100.147 180.66 101.941 179.428 102.399 177.494L103.806 171.865C104.298 169.931 103.278 168.031 101.59 167.609L96.6297 166.378C94.9412 165.956 93.1472 167.187 92.6899 169.122L91.2828 174.75ZM77.599 171.338C77.1065 173.273 78.1267 175.172 79.8152 175.594L84.7751 176.825C86.4636 177.248 88.2576 176.016 88.7149 174.082L90.122 168.453C90.6144 166.519 89.5944 164.619 87.9059 164.197L82.946 162.966C81.2575 162.544 79.4635 163.775 79.0062 165.71L77.599 171.338Z" fill="#800000"/>
<path d="M110.517 155.858C111.009 153.923 112.768 152.692 114.457 153.114L119.417 154.345C121.105 154.768 122.125 156.667 121.633 158.602L120.226 164.23C119.733 166.165 117.974 167.396 116.286 166.974L111.326 165.743C109.638 165.321 108.617 163.421 109.11 161.486L110.517 155.858ZM95.4261 158.074C94.9336 160.009 95.9537 161.908 97.6422 162.331L102.602 163.562C104.291 163.984 106.085 162.753 106.542 160.818L107.949 155.19C108.441 153.255 107.421 151.355 105.733 150.933L100.773 149.702C99.0845 149.28 97.2904 150.511 96.8331 152.446L95.4261 158.074ZM81.7423 154.662C81.2499 156.597 82.2699 158.496 83.9584 158.918L88.9183 160.15C90.6068 160.572 92.4009 159.341 92.8582 157.406L94.2653 151.778C94.7577 149.843 93.7376 147.943 92.0491 147.521L87.0892 146.29C85.4007 145.868 83.6067 147.099 83.1494 149.034L81.7423 154.662Z" fill="#800000"/>
<path d="M114.626 139.221C115.119 137.287 116.878 136.055 118.566 136.478L123.526 137.709C125.215 138.131 126.235 140.03 125.742 141.965L124.335 147.593C123.843 149.528 122.084 150.759 120.395 150.337L115.435 149.106C113.747 148.684 112.727 146.784 113.219 144.85L114.626 139.221ZM99.5355 141.437C99.0431 143.372 100.063 145.272 101.752 145.694L106.712 146.925C108.4 147.347 110.194 146.116 110.651 144.181L112.058 138.553C112.551 136.618 111.531 134.719 109.842 134.297L104.882 133.065C103.194 132.643 101.4 133.874 100.943 135.809L99.5355 141.437ZM85.8517 138.025C85.3592 139.96 86.3794 141.86 88.0679 142.282L93.0278 143.513C94.7163 143.935 96.5103 142.704 96.9676 140.769L98.3746 135.141C98.8671 133.206 97.847 131.307 96.1585 130.884L91.1986 129.653C89.5102 129.231 87.7161 130.462 87.2588 132.397L85.8517 138.025Z" fill="#800000"/>
<path d="M91.4117 115.756C91.9042 113.822 93.663 112.59 95.3515 113.013L127.644 121.033C129.332 121.455 130.352 123.355 129.86 125.289L128.453 130.918C127.96 132.852 126.202 134.083 124.513 133.661L92.2207 125.641C90.5322 125.219 89.5121 123.319 90.0045 121.385L91.4117 115.756Z" fill="#800000"/>
<path d="M95.5598 99.0845C96.0523 97.1498 97.8111 95.9186 99.4996 96.3407L131.792 104.361C133.48 104.783 134.5 106.683 134.008 108.618L132.601 114.246C132.108 116.181 130.35 117.412 128.661 116.99L96.3689 108.969C94.6804 108.547 93.6603 106.648 94.1527 104.713L95.5598 99.0845Z" fill="#800000"/>
<path d="M162.508 206.021C172.745 214.991 180.941 213.971 199.303 211.087C210.103 209.398 231.596 203.981 238.49 201.308C245.385 198.634 248.727 201.589 248.093 208.378C247.46 215.167 245.772 221.57 239.44 223.926C233.143 226.283 198.283 231.138 193.183 231.454C188.117 231.771 179.71 234.233 156.036 213.338L0.976562 76.3597L7.44908 69.043L162.508 206.021Z" fill="#1A2233"/>
<path d="M247.179 211.083C247.812 204.294 244.47 201.339 237.576 204.012C230.681 206.686 209.188 212.103 198.389 213.792C180.026 216.676 171.795 217.661 161.559 208.726L6.49934 71.7477L1.78567 77.0945L0.976562 76.3911L7.44908 69.0742L162.508 206.053C172.745 215.023 180.941 214.003 199.303 211.118C210.103 209.43 231.596 204.012 238.49 201.339C245.385 198.666 248.727 201.62 248.093 208.41C247.812 211.575 247.249 214.671 246.159 217.309C246.686 215.339 246.968 213.264 247.179 211.118V211.083Z" fill="#7399E6"/>
<path d="M8.42946 67.8734L0 77.418L3.98132 80.9342L12.4108 71.3896L8.42946 67.8734Z" fill="#4D6699"/>
<path d="M202.958 231.593C214.39 230.08 229.868 227.653 236.868 226C237.466 225.859 237.888 225.296 237.853 224.663L236.376 202.431C236.376 202.044 236.165 201.693 235.813 201.446C235.531 201.271 235.215 201.2 234.933 201.235C234.863 201.235 234.793 201.235 234.722 201.271C226.21 203.979 208.832 208.306 199.159 209.819C196.52 210.241 193.741 210.663 191.244 210.979C190.329 211.085 189.485 211.226 188.606 211.296C188.254 211.331 187.937 211.542 187.761 211.788C187.55 212.07 187.48 212.422 187.55 212.773L191.103 231.698C191.209 232.332 191.807 232.789 192.475 232.719C192.792 232.719 193.073 232.683 193.354 232.648C194.762 232.578 198.279 232.156 202.993 231.523L202.958 231.593Z" fill="#7399E6"/>
<path d="M198.802 212.001C208.194 210.524 225.607 206.267 234.577 203.418L236.054 225.685C225.607 228.182 197.254 232.122 192.716 232.369C192.435 232.369 192.118 232.404 191.802 232.439L188.249 213.514C191.38 213.162 194.862 212.634 198.837 212.001H198.802Z" fill="#CCDCFF"/>
<path d="M211.852 213.334C212.028 214.354 212.134 215.339 212.31 216.289C212.486 217.239 212.626 218.153 212.802 219.033C212.943 219.912 213.119 220.721 213.259 221.495C213.435 222.269 213.541 222.973 213.682 223.606C213.822 224.239 213.963 224.767 214.069 225.224C214.28 226.139 214.35 226.666 214.35 226.666C214.35 226.666 214.069 226.209 213.646 225.4C213.435 224.978 213.154 224.485 212.873 223.922C212.591 223.324 212.345 222.656 212.063 221.917C211.782 221.179 211.43 220.334 211.184 219.49C210.938 218.611 210.621 217.696 210.375 216.711C210.164 215.726 209.918 214.741 209.742 213.721C209.531 212.701 209.39 211.646 209.214 210.59C209.214 210.415 209.179 210.203 209.144 210.028C209.883 209.887 210.586 209.711 211.325 209.535C211.325 209.781 211.395 210.028 211.43 210.274C211.571 211.294 211.676 212.349 211.852 213.334Z" fill="#7399E6"/>
<path d="M226.38 226.844C226.134 226.246 225.852 225.578 225.571 224.804C225.29 224.065 224.973 223.221 224.727 222.341C224.48 221.462 224.199 220.547 223.953 219.562C223.742 218.577 223.531 217.593 223.355 216.572C223.144 215.552 223.038 214.497 222.897 213.442C222.792 212.386 222.616 211.331 222.581 210.311C222.475 209.256 222.475 208.235 222.405 207.25C222.405 207.11 222.405 206.969 222.405 206.828C223.038 206.652 223.671 206.512 224.305 206.336C224.305 206.582 224.375 206.828 224.41 207.11C224.516 208.06 224.692 209.08 224.762 210.1C224.832 211.12 225.043 212.14 225.149 213.16C225.254 214.18 225.36 215.236 225.536 216.221C225.712 217.241 225.817 218.226 225.958 219.175C226.134 220.125 226.274 221.075 226.415 221.954C226.556 222.834 226.697 223.678 226.837 224.417C226.978 225.191 227.119 225.894 227.224 226.527C227.295 226.844 227.365 227.09 227.4 227.372C227.189 227.407 226.943 227.442 226.732 227.477C226.626 227.266 226.521 227.055 226.415 226.809L226.38 226.844Z" fill="#7399E6"/>
<path d="M233.594 225.927C233.594 225.927 233.594 226.102 233.629 226.208C233.243 226.278 232.82 226.384 232.398 226.454C232.398 226.384 232.398 226.349 232.328 226.313C232.047 225.54 231.73 224.731 231.519 223.851C231.273 222.972 230.991 222.057 230.78 221.072C230.604 220.087 230.358 219.102 230.182 218.082C229.971 217.062 229.866 216.007 229.725 214.951C229.619 213.896 229.479 212.841 229.408 211.821C229.338 210.765 229.303 209.745 229.268 208.76C229.197 207.775 229.268 206.826 229.268 205.911C229.268 205.594 229.268 205.313 229.268 205.032C229.795 204.891 230.288 204.75 230.78 204.609C230.815 204.996 230.886 205.418 230.921 205.841C231.026 206.72 231.132 207.67 231.237 208.655C231.343 209.605 231.484 210.625 231.589 211.645C231.66 212.665 231.835 213.685 231.976 214.705C232.082 215.725 232.187 216.781 232.363 217.801C232.539 218.786 232.609 219.806 232.75 220.756C232.926 221.705 233.067 222.62 233.172 223.535C233.313 224.414 233.454 225.258 233.594 225.997V225.927Z" fill="#7399E6"/>
<path d="M218.3 211.717C218.441 212.737 218.511 213.792 218.722 214.777C218.898 215.762 219.003 216.782 219.144 217.732C219.32 218.682 219.461 219.632 219.601 220.511C219.742 221.391 219.918 222.2 220.059 222.974C220.199 223.747 220.34 224.451 220.446 225.084C220.586 225.717 220.727 226.245 220.833 226.702C221.008 227.617 221.114 228.109 221.114 228.109C221.114 228.109 220.833 227.652 220.41 226.843C220.199 226.421 219.953 225.928 219.672 225.366C219.426 224.768 219.144 224.099 218.863 223.361C218.581 222.622 218.23 221.778 218.018 220.898C217.772 220.019 217.491 219.104 217.245 218.119C217.034 217.169 216.822 216.149 216.611 215.129C216.4 214.109 216.26 213.054 216.119 211.998C216.013 210.943 215.837 209.888 215.767 208.868C215.767 208.727 215.767 208.621 215.767 208.481C216.471 208.305 217.174 208.129 217.878 207.988C217.878 208.199 217.948 208.41 217.948 208.657C218.018 209.677 218.23 210.697 218.37 211.717H218.3Z" fill="#7399E6"/>
<path d="M192.05 213.016C192.156 213.579 192.261 214.106 192.367 214.634C192.508 215.513 192.719 216.322 192.895 217.096C193.07 217.835 193.176 218.574 193.352 219.172C193.528 219.805 193.633 220.332 193.774 220.79C193.985 221.704 194.091 222.232 194.091 222.232C194.091 222.232 193.809 221.775 193.352 220.966C193.141 220.544 192.859 220.051 192.578 219.488C192.297 218.925 192.015 218.222 191.699 217.483C191.417 216.744 191.03 215.935 190.784 215.056C190.608 214.458 190.397 213.86 190.221 213.227C190.819 213.156 191.452 213.051 192.086 212.98L192.05 213.016Z" fill="#7399E6"/>
<path d="M199.304 220.966C199.022 220.403 198.741 219.7 198.46 218.961C198.178 218.222 197.791 217.413 197.58 216.534C197.299 215.654 197.017 214.74 196.736 213.79C196.63 213.333 196.525 212.84 196.419 212.383C197.088 212.277 197.756 212.172 198.46 212.066C198.53 212.489 198.6 212.946 198.671 213.368C198.882 214.318 199.022 215.232 199.198 216.112C199.339 216.991 199.55 217.8 199.691 218.574C199.867 219.313 199.972 220.052 200.113 220.65C200.289 221.283 200.394 221.81 200.5 222.268C200.711 223.182 200.816 223.71 200.816 223.71C200.816 223.71 200.535 223.253 200.078 222.443C199.867 222.021 199.585 221.564 199.304 220.966Z" fill="#7399E6"/>
<path d="M204.846 210.906C204.917 211.223 204.952 211.54 204.987 211.856C205.163 212.841 205.269 213.861 205.444 214.811C205.655 215.761 205.796 216.675 205.937 217.555C206.078 218.434 206.253 219.243 206.429 220.017C206.605 220.791 206.711 221.494 206.851 222.128C207.027 222.761 207.133 223.288 207.238 223.746C207.45 224.66 207.52 225.188 207.52 225.188C207.52 225.188 207.238 224.731 206.816 223.922C206.605 223.5 206.324 223.007 206.042 222.444C205.761 221.881 205.48 221.178 205.198 220.439C204.917 219.7 204.565 218.891 204.319 218.012C204.072 217.133 203.756 216.218 203.51 215.268C203.299 214.318 203.052 213.298 202.841 212.278C202.771 211.962 202.736 211.68 202.665 211.364C203.369 211.223 204.073 211.082 204.811 210.941L204.846 210.906Z" fill="#7399E6"/>
<path d="M78.8741 143.794C78.7686 147.698 76.2006 150.829 73.1051 150.759L40.4963 149.985C37.4007 149.914 34.9735 146.678 35.079 142.773L36.6268 77.9778C36.7323 74.0732 39.3002 70.9425 42.3957 71.0129L75.0047 71.7868C78.1002 71.8571 80.5273 75.0934 80.4218 78.998L78.8741 143.794Z" fill="#800000"/>
<path d="M45.7696 87.8965C45.8047 86.0673 44.6791 84.5547 43.2368 84.5195C41.7946 84.5195 40.5985 85.9265 40.5281 87.7557C40.493 89.5849 41.6186 91.0976 43.0609 91.1328C44.5031 91.1328 45.6992 89.7257 45.7696 87.8965Z" fill="#4D0000"/>
<path d="M55.8579 88.1426C55.8931 86.3134 54.7674 84.8008 53.3252 84.7656C51.8829 84.7656 50.6869 86.1726 50.6517 88.0018C50.6165 89.831 51.7422 91.3437 53.1844 91.3789C54.6267 91.4141 55.8227 89.9718 55.8579 88.1426Z" fill="#4D0000"/>
<path d="M65.9719 88.3888C66.0071 86.5596 64.8814 85.0469 63.4392 85.0117C61.9969 85.0117 60.8009 86.4188 60.7657 88.248C60.7305 90.0772 61.8562 91.5898 63.2984 91.625C64.7407 91.625 65.9367 90.218 65.9719 88.3888Z" fill="#4D0000"/>
<path d="M76.1017 88.6354C76.1369 86.8062 75.0112 85.2936 73.569 85.2584C72.1267 85.2233 70.9308 86.6656 70.8604 88.4948C70.8252 90.3239 71.9508 91.8365 73.393 91.8717C74.8353 91.8717 76.0313 90.4646 76.0665 88.6354H76.1017Z" fill="#4D0000"/>
<path d="M45.3813 103.022C45.4165 101.192 44.2909 99.6797 42.8486 99.6445C41.4064 99.6445 40.2104 101.052 40.1752 102.881C40.1401 104.71 41.2657 106.223 42.708 106.258C44.1502 106.258 45.3462 104.851 45.3813 103.022Z" fill="#4D0000"/>
<path d="M55.5112 103.268C55.5463 101.438 54.4207 99.9258 52.9784 99.8906C51.5362 99.8906 50.3402 101.298 50.2698 103.127C50.2347 104.956 51.3603 106.469 52.8026 106.504C54.2448 106.504 55.4408 105.097 55.5112 103.268Z" fill="#4D0000"/>
<path d="M65.6105 103.518C65.6457 101.689 64.52 100.176 63.0778 100.141C61.6355 100.106 60.4396 101.548 60.3692 103.377C60.334 105.207 61.4597 106.719 62.9019 106.755C64.3442 106.755 65.5402 105.347 65.5754 103.518H65.6105Z" fill="#4D0000"/>
<path d="M75.6991 103.764C75.7343 101.934 74.6086 100.422 73.1664 100.387C71.7241 100.387 70.5282 101.829 70.493 103.623C70.4578 105.452 71.5835 106.965 73.0257 107C74.468 107 75.6639 105.593 75.6991 103.764Z" fill="#4D0000"/>
<path d="M45.038 118.146C45.0731 116.317 43.9475 114.805 42.5052 114.77C41.063 114.77 39.867 116.177 39.8319 118.006C39.7967 119.835 40.9223 121.348 42.3646 121.383C43.8068 121.383 45.0028 119.976 45.0732 118.146H45.038Z" fill="#4D0000"/>
<path d="M55.1617 118.393C55.1969 116.563 54.0712 115.051 52.629 115.016C51.1868 115.016 49.9908 116.458 49.9556 118.252C49.9205 120.081 51.0461 121.594 52.4884 121.629C53.9306 121.629 55.1266 120.222 55.1617 118.393Z" fill="#4D0000"/>
<path d="M65.2562 118.643C65.2914 116.813 64.1657 115.301 62.7235 115.266C61.2812 115.266 60.0853 116.673 60.0501 118.502C60.0149 120.331 61.1406 121.844 62.5829 121.879C64.0251 121.879 65.221 120.472 65.2562 118.643Z" fill="#4D0000"/>
<path d="M75.351 118.889C75.3862 117.059 74.2606 115.547 72.8183 115.512C71.3761 115.512 70.18 116.919 70.1448 118.748C70.1097 120.577 71.2353 122.09 72.6776 122.125C74.1198 122.125 75.3158 120.718 75.3862 118.889H75.351Z" fill="#4D0000"/>
<path d="M44.6804 133.275C44.7156 131.446 43.5899 129.934 42.1477 129.898C40.7054 129.898 39.5094 131.306 39.4742 133.135C39.439 134.964 40.5647 136.477 42.0069 136.512C43.4492 136.512 44.6452 135.105 44.6804 133.275Z" fill="#4D0000"/>
<path d="M54.7764 133.521C54.8116 131.692 53.6859 130.18 52.2437 130.145C50.8014 130.145 49.6053 131.552 49.535 133.381C49.4998 135.21 50.6255 136.723 52.0677 136.758C53.51 136.758 54.706 135.351 54.7412 133.521H54.7764Z" fill="#4D0000"/>
<path d="M64.8757 133.768C64.9108 131.938 63.7852 130.426 62.3429 130.391C60.9007 130.391 59.7047 131.798 59.6343 133.627C59.5992 135.456 60.7248 136.969 62.1671 137.004C63.6093 137.004 64.8053 135.597 64.8757 133.768Z" fill="#4D0000"/>
<path d="M75.0029 134.014C75.0381 132.185 73.9124 130.672 72.4702 130.637C71.0279 130.637 69.8319 132.044 69.7967 133.873C69.7615 135.702 70.8872 137.215 72.3294 137.25C73.7717 137.285 74.9677 135.843 75.0029 134.014Z" fill="#4D0000"/>
<path d="M263.09 129.232C255.316 139.363 240.788 141.262 230.657 133.488L228.616 131.94C218.486 124.166 216.586 109.638 224.36 99.5074L237.903 81.8838C245.677 71.7529 260.205 69.8534 270.336 77.6274L272.376 79.2103C282.507 86.9844 284.407 101.512 276.633 111.643L263.09 129.267V129.232Z" fill="#4D0000"/>
<path d="M257.527 114.811C251.899 122.128 248.557 130.289 247.467 138.098C253.447 137.394 259.145 134.369 263.085 129.233L276.628 111.61C279.829 107.459 281.377 102.534 281.412 97.6797C272.759 100.318 264.175 106.192 257.527 114.846V114.811Z" fill="#800000"/>
<path d="M237.902 81.8485L224.359 99.4721C220.419 104.608 218.942 110.905 219.821 116.849C227.103 113.789 234.103 108.442 239.731 101.125C246.38 92.472 249.827 82.6576 250.144 73.6172C245.43 74.9187 241.103 77.6625 237.902 81.8485Z" fill="#800000"/>
<path d="M280.681 91.7343C279.45 86.9151 276.636 82.4477 272.38 79.1763L270.339 77.5933C266.083 74.3218 261.053 72.774 256.058 72.8092C257.57 78.3671 260.525 83.1864 265.028 86.6337C269.53 90.0811 274.948 91.6991 280.681 91.7343Z" fill="#800000"/>
</svg>
