<svg viewBox="0 0 512 224" fill="none" xmlns="http://www.w3.org/2000/svg">
<path d="M494.09 207.643C494.483 207.207 494.875 206.772 495.267 206.38L494.308 205.421L501.715 198.015L502.281 198.581C502.673 198.145 503.065 197.71 503.414 197.274L502.935 196.795L510.341 189.388C510.646 189.083 510.82 188.865 510.82 188.865L510.603 186.6L510.298 186.905L502.891 179.498L509.426 172.963L508.991 168.301L502.891 162.202L507.989 157.105L507.771 154.883L501.628 161.026L494.221 153.619L501.628 146.213L507.509 152.094L507.248 149.393L502.848 144.949L506.551 141.246L506.376 138.981L501.671 143.686L494.265 136.279L501.671 128.873L505.854 133.055L505.636 130.354L502.891 127.609L505.157 125.344L504.939 123.078L501.628 126.389L494.221 118.983L501.628 111.576L504.111 114.06L503.893 111.359L502.848 110.313L503.719 109.442L503.545 107.22L501.628 109.093L494.221 101.687L501.628 94.2801L502.455 95.1079L502.107 91.361L501.628 91.8403L494.221 84.4338L500.931 77.7679L500.538 73.4548L494.221 67.1374L499.493 61.8658L499.275 59.6438L492.958 65.9175L485.551 58.5111L492.958 51.1046L499.014 57.1605L498.796 54.4594L494.178 49.8411L498.055 45.9636L497.837 43.6981L492.958 48.5777L485.551 41.1711L492.958 33.7647L497.358 38.165L497.14 35.4638L494.221 32.5447L496.661 30.1049L496.443 27.8831L492.958 31.3248L485.551 23.9184L492.958 16.5119L494.788 18.3418C494.221 16.7298 493.48 15.1613 492.609 13.7236L485.551 6.66566L485.943 6.27344C485.464 5.9249 485.028 5.5764 484.506 5.22786L484.331 5.44577L483.503 4.61798C482.022 3.74663 480.497 3.00598 478.885 2.4396L483.111 6.66566L475.705 14.0721L468.298 6.66566L473.788 1.1761C473.047 1.08896 472.307 1.00175 471.566 0.958181L467.079 5.44577L462.504 0.871094H460.064L465.859 6.66566L458.452 14.0721L451.046 6.66566L456.84 0.871094H454.4L449.826 5.44577L445.251 0.871094H442.811L448.606 6.66566L441.199 14.0721L433.793 6.66566L439.587 0.871094H437.148L432.573 5.44577L427.998 0.871094H425.559L431.353 6.66566L423.947 14.0721L416.54 6.66566L422.335 0.871094H419.895L415.32 5.44577L410.746 0.871094H408.306L414.1 6.66566L406.694 14.0721L399.287 6.66566L405.082 0.871094H402.642L398.067 5.44577L393.493 0.871094H391.053L396.847 6.66566L389.441 14.0721L382.035 6.66566L387.829 0.871094H385.389L380.815 5.44577L376.24 0.871094H373.8L379.595 6.66566L372.188 14.0721L364.782 6.66566L370.576 0.871094H368.136L363.562 5.44577L358.987 0.871094H356.547L362.342 6.66566L354.935 14.0721L347.529 6.66566L353.323 0.871094H350.884L346.309 5.44577L341.734 0.871094H339.295L345.089 6.66566L337.683 14.0721L330.276 6.66566L336.071 0.871094H333.631L329.056 5.44577L324.482 0.871094H322.042L327.836 6.66566L320.43 14.0721L313.023 6.66566L318.818 0.871094H316.378L311.803 5.44577L307.229 0.871094H304.789L310.584 6.66566L303.177 14.0721L295.771 6.66566L301.565 0.871094H299.125L294.551 5.44577L289.976 0.871094H287.536L293.331 6.66566L285.924 14.0721L278.518 6.66566L284.312 0.871094H281.873L277.298 5.44577L272.723 0.871094H270.284L276.078 6.66566L268.672 14.0721L261.265 6.66566L267.06 0.871094H264.62L260.045 5.44577L255.471 0.871094H253.031L258.825 6.66566L251.419 14.0721L244.012 6.66566L249.807 0.871094H247.367L242.792 5.44577L238.218 0.871094H235.778L241.572 6.66566L234.166 14.0721L226.759 6.66566L232.554 0.871094H230.114L225.54 5.44577L220.965 0.871094H218.525L224.32 6.66566L216.913 14.0721L209.507 6.66566L215.301 0.871094H212.861L208.287 5.44577L203.799 0.958181C203.059 0.958181 202.318 1.08896 201.577 1.1761L207.067 6.66566L199.66 14.0721L192.254 6.66566L196.48 2.4396C194.868 3.00598 193.3 3.74663 191.862 4.61798L191.034 5.44577L190.816 5.22786C190.337 5.5764 189.858 5.9249 189.378 6.27344L189.771 6.66566L182.713 13.7236C181.841 15.2049 181.101 16.7297 180.534 18.3852L182.364 16.5555L189.771 23.962L182.364 31.3684L178.879 27.9266L178.704 30.1485L181.144 32.5883L178.225 35.5074L177.964 38.2086L182.364 33.8082L189.771 41.2148L182.364 48.6212L177.485 43.7416L177.267 46.0072L181.144 49.8847L176.526 54.5028L176.308 57.204L182.364 51.1482L189.771 58.5546L182.364 65.9611L176.047 59.6874L175.872 61.9094L181.144 67.181L174.827 73.4984L174.435 77.8115L181.101 84.4774L173.694 91.8839L173.215 91.4046L172.866 95.1515L173.694 94.3237L181.101 101.73L173.694 109.137L171.821 107.263L171.646 109.485L172.518 110.357L171.472 111.402L171.211 114.103L173.694 111.62L181.101 119.026L173.694 126.433L170.383 123.122L170.165 125.387L172.431 127.653L169.686 130.398L169.468 133.099L173.651 128.916L181.057 136.323L173.651 143.729L168.945 139.024L168.727 141.29L172.431 144.993L168.03 149.437L167.812 152.138L173.694 146.256L181.101 153.663L173.694 161.069L167.551 154.926L167.333 157.148L172.431 162.246L166.331 168.345L165.939 173.007L172.474 179.542L165.068 186.948L164.763 186.644L164.545 188.909C164.545 188.909 164.719 189.127 165.024 189.475L172.431 196.838L171.951 197.317C172.344 197.753 172.692 198.189 173.084 198.625L173.651 198.058L181.057 205.465L180.099 206.423C180.491 206.859 180.883 207.294 181.275 207.687L182.277 206.685L189.683 214.091L188.376 215.398C188.812 215.834 189.204 216.269 189.596 216.618L190.903 215.311L193.387 217.794V215.355L192.123 214.091L193.387 212.828V210.388L190.903 212.871L183.497 205.465L190.903 198.058L193.387 200.542V198.102L192.123 196.838L193.387 195.575V193.135L190.903 195.618L183.497 188.212L190.903 180.805L193.387 183.289V180.849L192.123 179.585L193.387 178.322V175.882L190.903 178.366L183.497 170.959L190.903 163.553L193.909 166.559H196.349L192.123 162.333L199.53 154.926L206.936 162.333L202.71 166.559H205.15L208.156 163.553L211.162 166.559H213.602L209.376 162.333L216.782 154.926L224.189 162.333L219.963 166.559H222.403L225.409 163.553L228.415 166.559H230.855L226.629 162.333L234.035 154.926L241.442 162.333L237.216 166.559H239.655L242.662 163.553L245.668 166.559H248.108L243.882 162.333L251.288 154.926L258.695 162.333L254.468 166.559H256.908L259.914 163.553L262.921 166.559H265.36L261.134 162.333L268.541 154.926L275.947 162.333L271.721 166.559H274.161L277.167 163.553L280.173 166.559H282.613L278.387 162.333L285.794 154.926L293.2 162.333L288.974 166.559H291.414L294.42 163.553L297.426 166.559H299.866L295.64 162.333L303.046 154.926L310.453 162.333L306.227 166.559H308.667L311.673 163.553L314.679 166.559H317.119L312.893 162.333L320.299 154.926L327.706 162.333L323.48 166.559H325.919L328.926 163.553L331.932 166.559H334.372L330.145 162.333L337.552 154.926L344.958 162.333L340.732 166.559H343.172L346.178 163.553L349.184 166.559H351.624L347.398 162.333L354.805 154.926L362.211 162.333L357.985 166.559H360.425L363.431 163.553L366.437 166.559H368.877L364.651 162.333L372.057 154.926L379.464 162.333L375.238 166.559H377.678L380.684 163.553L383.69 166.559H386.13L381.904 162.333L389.31 154.926L396.717 162.333L392.491 166.559H394.93L397.937 163.553L400.943 166.559H403.383L399.157 162.333L406.563 154.926L413.97 162.333L409.743 166.559H412.183L415.189 163.553L418.196 166.559H420.635L416.409 162.333L423.816 154.926L431.222 162.333L426.996 166.559H429.436L432.442 163.553L435.448 166.559H437.888L433.662 162.333L441.069 154.926L448.475 162.333L444.249 166.559H446.689L449.695 163.553L452.701 166.559H455.141L450.915 162.333L458.321 154.926L465.728 162.333L461.502 166.559H463.942L466.948 163.553L469.954 166.559H472.394L468.168 162.333L475.574 154.926L482.981 162.333L478.755 166.559H481.194L484.201 163.553L491.607 170.959L484.201 178.366L481.717 175.882V178.322L482.981 179.585L481.717 180.849V183.289L484.201 180.805L491.607 188.212L484.201 195.618L481.717 193.135V195.575L482.981 196.838L481.717 198.102V200.542L484.201 198.058L491.607 205.465L484.201 212.871L481.717 210.388V212.828L482.981 214.091L481.717 215.355V217.794L484.201 215.311L485.508 216.618C485.9 216.226 486.292 215.79 486.727 215.355L485.42 214.047L492.827 206.641L493.873 207.643H494.09ZM509.121 188.125L501.715 195.531L494.308 188.125L501.715 180.718L509.121 188.125ZM509.121 170.828L501.715 178.235L494.308 170.828L501.715 163.422L509.121 170.828ZM500.495 144.906L493.088 152.312L485.682 144.906L493.088 137.499L500.495 144.906ZM207.851 25.1383L215.258 32.5447L207.851 39.9513L200.445 32.5447L207.851 25.1383ZM199.225 31.3248L191.818 23.9184L199.225 16.5119L206.631 23.9184L199.225 31.3248ZM474.572 32.5447L467.166 39.9513L459.759 32.5447L467.166 25.1383L474.572 32.5447ZM468.385 23.9184L475.792 16.5119L483.199 23.9184L475.792 31.3248L468.385 23.9184ZM225.148 42.4346L232.554 49.8411L225.148 57.2476L217.741 49.8411L225.148 42.4346ZM216.521 48.6212L209.115 41.2148L216.521 33.8082L223.928 41.2148L216.521 48.6212ZM457.319 49.8411L449.913 57.2476L442.506 49.8411L449.913 42.4346L457.319 49.8411ZM451.133 41.2148L458.539 33.8082L465.946 41.2148L458.539 48.6212L451.133 41.2148ZM242.487 59.731L249.894 67.1374L242.487 74.544L235.081 67.1374L242.487 59.731ZM233.861 65.9175L226.454 58.5111L233.861 51.1046L241.268 58.5111L233.861 65.9175ZM440.067 67.1374L432.66 74.544L425.254 67.1374L432.66 59.731L440.067 67.1374ZM433.88 58.5111L441.286 51.1046L448.693 58.5111L441.286 65.9175L433.88 58.5111ZM249.937 84.4338L242.531 91.8403L235.124 84.4338L242.531 77.0274L249.937 84.4338ZM243.751 75.8075L251.157 68.4009L258.564 75.8075L251.157 83.2139L243.751 75.8075ZM251.157 85.6537L258.564 93.0602L251.157 100.467L243.751 93.0602L251.157 85.6537ZM252.377 84.4338L259.784 77.0274L267.19 84.4338L259.784 91.8403L252.377 84.4338ZM261.004 75.8075L268.41 68.4009L275.817 75.8075L268.41 83.2139L261.004 75.8075ZM268.41 85.6537L275.817 93.0602L268.41 100.467L261.004 93.0602L268.41 85.6537ZM269.63 84.4338L277.036 77.0274L284.443 84.4338L277.036 91.8403L269.63 84.4338ZM278.256 75.8075L285.663 68.4009L293.069 75.8075L285.663 83.2139L278.256 75.8075ZM285.663 85.6537L293.069 93.0602L285.663 100.467L278.256 93.0602L285.663 85.6537ZM286.883 84.4338L294.289 77.0274L301.696 84.4338L294.289 91.8403L286.883 84.4338ZM295.509 75.8075L302.916 68.4009L310.322 75.8075L302.916 83.2139L295.509 75.8075ZM302.916 85.6537L310.322 93.0602L302.916 100.467L295.509 93.0602L302.916 85.6537ZM304.136 84.4338L311.542 77.0274L318.949 84.4338L311.542 91.8403L304.136 84.4338ZM312.762 75.8075L320.168 68.4009L327.575 75.8075L320.168 83.2139L312.762 75.8075ZM320.168 85.6537L327.575 93.0602L320.168 100.467L312.762 93.0602L320.168 85.6537ZM321.388 84.4338L328.795 77.0274L336.201 84.4338L328.795 91.8403L321.388 84.4338ZM330.015 75.8075L337.421 68.4009L344.828 75.8075L337.421 83.2139L330.015 75.8075ZM337.421 85.6537L344.828 93.0602L337.421 100.467L330.015 93.0602L337.421 85.6537ZM338.641 84.4338L346.048 77.0274L353.454 84.4338L346.048 91.8403L338.641 84.4338ZM347.268 75.8075L354.674 68.4009L362.081 75.8075L354.674 83.2139L347.268 75.8075ZM354.674 85.6537L362.081 93.0602L354.674 100.467L347.268 93.0602L354.674 85.6537ZM355.894 84.4338L363.3 77.0274L370.707 84.4338L363.3 91.8403L355.894 84.4338ZM364.52 75.8075L371.927 68.4009L379.333 75.8075L371.927 83.2139L364.52 75.8075ZM371.927 85.6537L379.333 93.0602L371.927 100.467L364.52 93.0602L371.927 85.6537ZM373.147 84.4338L380.553 77.0274L387.96 84.4338L380.553 91.8403L373.147 84.4338ZM381.773 75.8075L389.18 68.4009L396.586 75.8075L389.18 83.2139L381.773 75.8075ZM389.18 85.6537L396.586 93.0602L389.18 100.467L381.773 93.0602L389.18 85.6537ZM390.399 84.4338L397.806 77.0274L405.212 84.4338L397.806 91.8403L390.399 84.4338ZM399.026 75.8075L406.432 68.4009L413.839 75.8075L406.432 83.2139L399.026 75.8075ZM406.432 85.6537L413.839 93.0602L406.432 100.467L399.026 93.0602L406.432 85.6537ZM407.652 84.4338L415.059 77.0274L422.465 84.4338L415.059 91.8403L407.652 84.4338ZM416.279 75.8075L423.685 68.4009L431.092 75.8075L423.685 83.2139L416.279 75.8075ZM423.685 85.6537L431.092 93.0602L423.685 100.467L416.279 93.0602L423.685 85.6537ZM424.905 84.4338L432.311 77.0274L439.718 84.4338L432.311 91.8403L424.905 84.4338ZM440.981 85.6537L448.388 93.0602L440.981 100.467L433.575 93.0602L440.981 85.6537ZM442.201 84.4338L449.608 77.0274L457.014 84.4338L449.608 91.8403L442.201 84.4338ZM440.981 83.2139L433.575 75.8075L440.981 68.4009L448.388 75.8075L440.981 83.2139ZM423.685 65.9175L416.279 58.5111L423.685 51.1046L431.092 58.5111L423.685 65.9175ZM422.465 67.1374L415.059 74.544L407.652 67.1374L415.059 59.731L422.465 67.1374ZM406.389 65.9175L398.982 58.5111L406.389 51.1046L413.795 58.5111L406.389 65.9175ZM405.169 67.1374L397.762 74.544L390.356 67.1374L397.762 59.731L405.169 67.1374ZM389.092 65.9175L381.686 58.5111L389.092 51.1046L396.499 58.5111L389.092 65.9175ZM387.873 67.1374L380.466 74.544L373.06 67.1374L380.466 59.731L387.873 67.1374ZM371.796 65.9175L364.39 58.5111L371.796 51.1046L379.203 58.5111L371.796 65.9175ZM370.576 67.1374L363.17 74.544L355.763 67.1374L363.17 59.731L370.576 67.1374ZM354.5 65.9175L347.093 58.5111L354.5 51.1046L361.906 58.5111L354.5 65.9175ZM353.28 67.1374L345.873 74.544L338.467 67.1374L345.873 59.731L353.28 67.1374ZM337.203 65.9175L329.797 58.5111L337.203 51.1046L344.61 58.5111L337.203 65.9175ZM335.983 67.1374L328.577 74.544L321.171 67.1374L328.577 59.731L335.983 67.1374ZM319.907 65.9175L312.501 58.5111L319.907 51.1046L327.314 58.5111L319.907 65.9175ZM318.687 67.1374L311.281 74.544L303.874 67.1374L311.281 59.731L318.687 67.1374ZM302.611 65.9175L295.204 58.5111L302.611 51.1046L310.017 58.5111L302.611 65.9175ZM301.391 67.1374L293.984 74.544L286.578 67.1374L293.984 59.731L301.391 67.1374ZM285.314 65.9175L277.908 58.5111L285.314 51.1046L292.721 58.5111L285.314 65.9175ZM284.094 67.1374L276.688 74.544L269.281 67.1374L276.688 59.731L284.094 67.1374ZM268.018 65.9175L260.612 58.5111L268.018 51.1046L275.425 58.5111L268.018 65.9175ZM266.798 67.1374L259.392 74.544L251.985 67.1374L259.392 59.731L266.798 67.1374ZM250.722 65.9175L243.315 58.5111L250.722 51.1046L258.128 58.5111L250.722 65.9175ZM240.875 75.7638L233.469 83.1704L226.062 75.7638L233.469 68.3573L240.875 75.7638ZM232.249 84.3903L224.842 91.7967L217.436 84.3903L224.842 76.9837L232.249 84.3903ZM233.469 85.6102L240.875 93.0166L233.469 100.423L226.062 93.0166L233.469 85.6102ZM232.249 101.687L224.842 109.093L217.436 101.687L224.842 94.2801L232.249 101.687ZM233.469 102.907L240.875 110.313L233.469 117.719L226.062 110.313L233.469 102.907ZM234.689 101.687L242.095 94.2801L249.502 101.687L242.095 109.093L234.689 101.687ZM250.765 102.907L258.172 110.313L250.765 117.719L243.359 110.313L250.765 102.907ZM251.985 101.687L259.392 94.2801L266.798 101.687L259.392 109.093L251.985 101.687ZM268.062 102.907L275.468 110.313L268.062 117.719L260.655 110.313L268.062 102.907ZM269.281 101.687L276.688 94.2801L284.094 101.687L276.688 109.093L269.281 101.687ZM285.358 102.907L292.764 110.313L285.358 117.719L277.951 110.313L285.358 102.907ZM286.578 101.687L293.984 94.2801L301.391 101.687L293.984 109.093L286.578 101.687ZM302.654 102.907L310.061 110.313L302.654 117.719L295.248 110.313L302.654 102.907ZM303.874 101.687L311.281 94.2801L318.687 101.687L311.281 109.093L303.874 101.687ZM319.951 102.907L327.357 110.313L319.951 117.719L312.544 110.313L319.951 102.907ZM321.171 101.687L328.577 94.2801L335.983 101.687L328.577 109.093L321.171 101.687ZM337.247 102.907L344.653 110.313L337.247 117.719L329.84 110.313L337.247 102.907ZM338.467 101.687L345.873 94.2801L353.28 101.687L345.873 109.093L338.467 101.687ZM354.543 102.907L361.95 110.313L354.543 117.719L347.137 110.313L354.543 102.907ZM355.763 101.687L363.17 94.2801L370.576 101.687L363.17 109.093L355.763 101.687ZM371.84 102.907L379.246 110.313L371.84 117.719L364.433 110.313L371.84 102.907ZM373.06 101.687L380.466 94.2801L387.873 101.687L380.466 109.093L373.06 101.687ZM389.136 102.907L396.543 110.313L389.136 117.719L381.729 110.313L389.136 102.907ZM390.356 101.687L397.762 94.2801L405.169 101.687L397.762 109.093L390.356 101.687ZM406.432 102.907L413.839 110.313L406.432 117.719L399.026 110.313L406.432 102.907ZM407.652 101.687L415.059 94.2801L422.465 101.687L415.059 109.093L407.652 101.687ZM423.729 102.907L431.135 110.313L423.729 117.719L416.322 110.313L423.729 102.907ZM424.949 101.687L432.355 94.2801L439.762 101.687L432.355 109.093L424.949 101.687ZM441.025 102.907L448.432 110.313L441.025 117.719L433.619 110.313L441.025 102.907ZM442.245 101.687L449.651 94.2801L457.058 101.687L449.651 109.093L442.245 101.687ZM458.321 102.907L465.728 110.313L458.321 117.719L450.915 110.313L458.321 102.907ZM459.541 101.687L466.948 94.2801L474.354 101.687L466.948 109.093L459.541 101.687ZM458.321 100.467L450.915 93.0602L458.321 85.6537L465.728 93.0602L458.321 100.467ZM459.541 84.3903L466.948 76.9837L474.354 84.3903L466.948 91.7967L459.541 84.3903ZM458.321 83.1704L450.915 75.7638L458.321 68.3573L465.728 75.7638L458.321 83.1704ZM449.695 74.544L442.289 67.1374L449.695 59.731L457.102 67.1374L449.695 74.544ZM450.915 58.4675L458.321 51.0609L465.728 58.4675L458.321 65.874L450.915 58.4675ZM441.069 48.6212L433.662 41.2148L441.069 33.8082L448.475 41.2148L441.069 48.6212ZM439.849 49.8411L432.442 57.2476L425.036 49.8411L432.442 42.4346L439.849 49.8411ZM423.772 48.6212L416.366 41.2148L423.772 33.8082L431.179 41.2148L423.772 48.6212ZM422.552 49.8411L415.146 57.2476L407.739 49.8411L415.146 42.4346L422.552 49.8411ZM406.476 48.6212L399.069 41.2148L406.476 33.8082L413.882 41.2148L406.476 48.6212ZM405.256 49.8411L397.85 57.2476L390.443 49.8411L397.85 42.4346L405.256 49.8411ZM389.18 48.6212L381.773 41.2148L389.18 33.8082L396.586 41.2148L389.18 48.6212ZM387.96 49.8411L380.553 57.2476L373.147 49.8411L380.553 42.4346L387.96 49.8411ZM371.883 48.6212L364.477 41.2148L371.883 33.8082L379.29 41.2148L371.883 48.6212ZM370.663 49.8411L363.257 57.2476L355.85 49.8411L363.257 42.4346L370.663 49.8411ZM354.587 48.6212L347.18 41.2148L354.587 33.8082L361.993 41.2148L354.587 48.6212ZM353.367 49.8411L345.961 57.2476L338.554 49.8411L345.961 42.4346L353.367 49.8411ZM337.291 48.6212L329.884 41.2148L337.291 33.8082L344.697 41.2148L337.291 48.6212ZM336.071 49.8411L328.664 57.2476L321.258 49.8411L328.664 42.4346L336.071 49.8411ZM319.994 48.6212L312.588 41.2148L319.994 33.8082L327.401 41.2148L319.994 48.6212ZM318.774 49.8411L311.368 57.2476L303.961 49.8411L311.368 42.4346L318.774 49.8411ZM302.698 48.6212L295.291 41.2148L302.698 33.8082L310.104 41.2148L302.698 48.6212ZM301.478 49.8411L294.071 57.2476L286.665 49.8411L294.071 42.4346L301.478 49.8411ZM285.401 48.6212L277.995 41.2148L285.401 33.8082L292.808 41.2148L285.401 48.6212ZM284.182 49.8411L276.775 57.2476L269.369 49.8411L276.775 42.4346L284.182 49.8411ZM268.105 48.6212L260.699 41.2148L268.105 33.8082L275.512 41.2148L268.105 48.6212ZM266.885 49.8411L259.479 57.2476L252.072 49.8411L259.479 42.4346L266.885 49.8411ZM250.809 48.6212L243.402 41.2148L250.809 33.8082L258.215 41.2148L250.809 48.6212ZM249.589 49.8411L242.182 57.2476L234.776 49.8411L242.182 42.4346L249.589 49.8411ZM233.512 48.6212L226.106 41.2148L233.512 33.8082L240.919 41.2148L233.512 48.6212ZM223.666 58.4675L216.26 65.874L208.853 58.4675L216.26 51.0609L223.666 58.4675ZM224.886 59.6874L232.293 67.0939L224.886 74.5004L217.48 67.0939L224.886 59.6874ZM223.666 75.7638L216.26 83.1704L208.853 75.7638L216.26 68.3573L223.666 75.7638ZM215.04 84.3903L207.633 91.7967L200.227 84.3903L207.633 76.9837L215.04 84.3903ZM216.26 85.6102L223.666 93.0166L216.26 100.423L208.853 93.0166L216.26 85.6102ZM215.04 101.687L207.633 109.093L200.227 101.687L207.633 94.2801L215.04 101.687ZM216.26 102.907L223.666 110.313L216.26 117.719L208.853 110.313L216.26 102.907ZM215.04 118.983L207.633 126.389L200.227 118.983L207.633 111.576L215.04 118.983ZM216.26 120.203L223.666 127.609L216.26 135.016L208.853 127.609L216.26 120.203ZM217.48 118.983L224.886 111.576L232.293 118.983L224.886 126.389L217.48 118.983ZM233.556 120.203L240.963 127.609L233.556 135.016L226.15 127.609L233.556 120.203ZM234.776 118.983L242.182 111.576L249.589 118.983L242.182 126.389L234.776 118.983ZM250.852 120.203L258.259 127.609L250.852 135.016L243.446 127.609L250.852 120.203ZM252.072 118.983L259.479 111.576L266.885 118.983L259.479 126.389L252.072 118.983ZM268.149 120.203L275.555 127.609L268.149 135.016L260.742 127.609L268.149 120.203ZM269.369 118.983L276.775 111.576L284.182 118.983L276.775 126.389L269.369 118.983ZM285.445 120.203L292.852 127.609L285.445 135.016L278.039 127.609L285.445 120.203ZM286.665 118.983L294.071 111.576L301.478 118.983L294.071 126.389L286.665 118.983ZM302.741 120.203L310.148 127.609L302.741 135.016L295.335 127.609L302.741 120.203ZM303.961 118.983L311.368 111.576L318.774 118.983L311.368 126.389L303.961 118.983ZM320.038 120.203L327.444 127.609L320.038 135.016L312.631 127.609L320.038 120.203ZM321.258 118.983L328.664 111.576L336.071 118.983L328.664 126.389L321.258 118.983ZM337.334 120.203L344.741 127.609L337.334 135.016L329.928 127.609L337.334 120.203ZM338.554 118.983L345.961 111.576L353.367 118.983L345.961 126.389L338.554 118.983ZM354.63 120.203L362.037 127.609L354.63 135.016L347.224 127.609L354.63 120.203ZM355.85 118.983L363.257 111.576L370.663 118.983L363.257 126.389L355.85 118.983ZM371.927 120.203L379.333 127.609L371.927 135.016L364.52 127.609L371.927 120.203ZM373.147 118.983L380.553 111.576L387.96 118.983L380.553 126.389L373.147 118.983ZM389.223 120.203L396.63 127.609L389.223 135.016L381.817 127.609L389.223 120.203ZM390.443 118.983L397.85 111.576L405.256 118.983L397.85 126.389L390.443 118.983ZM406.519 120.203L413.926 127.609L406.519 135.016L399.113 127.609L406.519 120.203ZM407.739 118.983L415.146 111.576L422.552 118.983L415.146 126.389L407.739 118.983ZM423.816 120.203L431.222 127.609L423.816 135.016L416.409 127.609L423.816 120.203ZM425.036 118.983L432.442 111.576L439.849 118.983L432.442 126.389L425.036 118.983ZM441.112 120.203L448.519 127.609L441.112 135.016L433.706 127.609L441.112 120.203ZM442.332 118.983L449.739 111.576L457.145 118.983L449.739 126.389L442.332 118.983ZM458.409 120.203L465.815 127.609L458.409 135.016L451.002 127.609L458.409 120.203ZM459.628 118.983L467.035 111.576L474.441 118.983L467.035 126.389L459.628 118.983ZM475.705 120.203L483.111 127.609L475.705 135.016L468.298 127.609L475.705 120.203ZM476.925 118.983L484.331 111.576L491.738 118.983L484.331 126.389L476.925 118.983ZM475.705 117.763L468.298 110.357L475.705 102.95L483.111 110.357L475.705 117.763ZM476.925 101.687L484.331 94.2801L491.738 101.687L484.331 109.093L476.925 101.687ZM475.705 100.467L468.298 93.0602L475.705 85.6537L483.111 93.0602L475.705 100.467ZM476.925 84.3903L484.331 76.9837L491.738 84.3903L484.331 91.7967L476.925 84.3903ZM475.705 83.1704L468.298 75.7638L475.705 68.3573L483.111 75.7638L475.705 83.1704ZM467.079 74.544L459.672 67.1374L467.079 59.731L474.485 67.1374L467.079 74.544ZM468.298 58.4675L475.705 51.0609L483.111 58.4675L475.705 65.874L468.298 58.4675ZM467.079 57.2476L459.672 49.8411L467.079 42.4346L474.485 49.8411L467.079 57.2476ZM468.298 41.1711L475.705 33.7647L483.111 41.1711L475.705 48.5777L468.298 41.1711ZM458.452 31.2813L451.046 23.8748L458.452 16.4684L465.859 23.8748L458.452 31.2813ZM457.232 32.5012L449.826 39.9076L442.419 32.5012L449.826 25.0947L457.232 32.5012ZM441.156 31.2813L433.749 23.8748L441.156 16.4684L448.562 23.8748L441.156 31.2813ZM439.936 32.5012L432.529 39.9076L425.123 32.5012L432.529 25.0947L439.936 32.5012ZM423.859 31.2813L416.453 23.8748L423.859 16.4684L431.266 23.8748L423.859 31.2813ZM422.639 32.5012L415.233 39.9076L407.827 32.5012L415.233 25.0947L422.639 32.5012ZM406.563 31.2813L399.157 23.8748L406.563 16.4684L413.97 23.8748L406.563 31.2813ZM405.343 32.5012L397.937 39.9076L390.53 32.5012L397.937 25.0947L405.343 32.5012ZM389.267 31.2813L381.86 23.8748L389.267 16.4684L396.673 23.8748L389.267 31.2813ZM388.047 32.5012L380.64 39.9076L373.234 32.5012L380.64 25.0947L388.047 32.5012ZM371.97 31.2813L364.564 23.8748L371.97 16.4684L379.377 23.8748L371.97 31.2813ZM370.75 32.5012L363.344 39.9076L355.937 32.5012L363.344 25.0947L370.75 32.5012ZM354.674 31.2813L347.268 23.8748L354.674 16.4684L362.081 23.8748L354.674 31.2813ZM353.454 32.5012L346.048 39.9076L338.641 32.5012L346.048 25.0947L353.454 32.5012ZM337.378 31.2813L329.971 23.8748L337.378 16.4684L344.784 23.8748L337.378 31.2813ZM336.158 32.5012L328.751 39.9076L321.345 32.5012L328.751 25.0947L336.158 32.5012ZM320.081 31.2813L312.675 23.8748L320.081 16.4684L327.488 23.8748L320.081 31.2813ZM318.861 32.5012L311.455 39.9076L304.048 32.5012L311.455 25.0947L318.861 32.5012ZM302.785 31.2813L295.378 23.8748L302.785 16.4684L310.191 23.8748L302.785 31.2813ZM301.565 32.5012L294.159 39.9076L286.752 32.5012L294.159 25.0947L301.565 32.5012ZM285.489 31.2813L278.082 23.8748L285.489 16.4684L292.895 23.8748L285.489 31.2813ZM284.269 32.5012L276.862 39.9076L269.456 32.5012L276.862 25.0947L284.269 32.5012ZM268.192 31.2813L260.786 23.8748L268.192 16.4684L275.599 23.8748L268.192 31.2813ZM266.972 32.5012L259.566 39.9076L252.159 32.5012L259.566 25.0947L266.972 32.5012ZM250.896 31.2813L243.489 23.8748L250.896 16.4684L258.302 23.8748L250.896 31.2813ZM249.676 32.5012L242.27 39.9076L234.863 32.5012L242.27 25.0947L249.676 32.5012ZM233.6 31.2813L226.193 23.8748L233.6 16.4684L241.006 23.8748L233.6 31.2813ZM232.38 32.5012L224.973 39.9076L217.567 32.5012L224.973 25.0947L232.38 32.5012ZM216.303 31.2813L208.897 23.8748L216.303 16.4684L223.71 23.8748L216.303 31.2813ZM206.457 41.1711L199.05 48.5777L191.644 41.1711L199.05 33.7647L206.457 41.1711ZM207.677 42.391L215.083 49.7976L207.677 57.204L200.27 49.7976L207.677 42.391ZM206.457 58.4675L199.05 65.874L191.644 58.4675L199.05 51.0609L206.457 58.4675ZM207.677 59.6874L215.083 67.0939L207.677 74.5004L200.27 67.0939L207.677 59.6874ZM206.457 75.7638L199.05 83.1704L191.644 75.7638L199.05 68.3573L206.457 75.7638ZM197.831 84.3903L190.424 91.7967L183.018 84.3903L190.424 76.9837L197.831 84.3903ZM199.05 85.6102L206.457 93.0166L199.05 100.423L191.644 93.0166L199.05 85.6102ZM197.831 101.687L190.424 109.093L183.018 101.687L190.424 94.2801L197.831 101.687ZM199.05 102.907L206.457 110.313L199.05 117.719L191.644 110.313L199.05 102.907ZM197.831 118.983L190.424 126.389L183.018 118.983L190.424 111.576L197.831 118.983ZM199.05 120.203L206.457 127.609L199.05 135.016L191.644 127.609L199.05 120.203ZM197.831 136.279L190.424 143.686L183.018 136.279L190.424 128.873L197.831 136.279ZM199.05 137.499L206.457 144.906L199.05 152.312L191.644 144.906L199.05 137.499ZM200.27 136.279L207.677 128.873L215.083 136.279L207.677 143.686L200.27 136.279ZM216.347 137.499L223.753 144.906L216.347 152.312L208.94 144.906L216.347 137.499ZM217.567 136.279L224.973 128.873L232.38 136.279L224.973 143.686L217.567 136.279ZM233.643 137.499L241.05 144.906L233.643 152.312L226.237 144.906L233.643 137.499ZM234.863 136.279L242.27 128.873L249.676 136.279L242.27 143.686L234.863 136.279ZM250.94 137.499L258.346 144.906L250.94 152.312L243.533 144.906L250.94 137.499ZM252.159 136.279L259.566 128.873L266.972 136.279L259.566 143.686L252.159 136.279ZM268.236 137.499L275.642 144.906L268.236 152.312L260.829 144.906L268.236 137.499ZM269.456 136.279L276.862 128.873L284.269 136.279L276.862 143.686L269.456 136.279ZM285.532 137.499L292.939 144.906L285.532 152.312L278.126 144.906L285.532 137.499ZM286.752 136.279L294.159 128.873L301.565 136.279L294.159 143.686L286.752 136.279ZM302.829 137.499L310.235 144.906L302.829 152.312L295.422 144.906L302.829 137.499ZM304.048 136.279L311.455 128.873L318.861 136.279L311.455 143.686L304.048 136.279ZM320.125 137.499L327.531 144.906L320.125 152.312L312.718 144.906L320.125 137.499ZM321.345 136.279L328.751 128.873L336.158 136.279L328.751 143.686L321.345 136.279ZM337.421 137.499L344.828 144.906L337.421 152.312L330.015 144.906L337.421 137.499ZM338.641 136.279L346.048 128.873L353.454 136.279L346.048 143.686L338.641 136.279ZM354.718 137.499L362.124 144.906L354.718 152.312L347.311 144.906L354.718 137.499ZM355.937 136.279L363.344 128.873L370.75 136.279L363.344 143.686L355.937 136.279ZM372.014 137.499L379.42 144.906L372.014 152.312L364.607 144.906L372.014 137.499ZM373.234 136.279L380.64 128.873L388.047 136.279L380.64 143.686L373.234 136.279ZM389.31 137.499L396.717 144.906L389.31 152.312L381.904 144.906L389.31 137.499ZM390.53 136.279L397.937 128.873L405.343 136.279L397.937 143.686L390.53 136.279ZM406.607 137.499L414.013 144.906L406.607 152.312L399.2 144.906L406.607 137.499ZM407.827 136.279L415.233 128.873L422.639 136.279L415.233 143.686L407.827 136.279ZM423.903 137.499L431.309 144.906L423.903 152.312L416.497 144.906L423.903 137.499ZM425.123 136.279L432.529 128.873L439.936 136.279L432.529 143.686L425.123 136.279ZM441.199 137.499L448.606 144.906L441.199 152.312L433.793 144.906L441.199 137.499ZM442.419 136.279L449.826 128.873L457.232 136.279L449.826 143.686L442.419 136.279ZM458.496 137.499L465.902 144.906L458.496 152.312L451.089 144.906L458.496 137.499ZM459.716 136.279L467.122 128.873L474.529 136.279L467.122 143.686L459.716 136.279ZM475.792 137.499L483.199 144.906L475.792 152.312L468.385 144.906L475.792 137.499ZM477.012 136.279L484.418 128.873L491.825 136.279L484.418 143.686L477.012 136.279ZM500.495 127.653L493.088 135.059L485.682 127.653L493.088 120.246L500.495 127.653ZM500.495 110.357L493.088 117.763L485.682 110.357L493.088 102.95L500.495 110.357ZM500.495 93.0602L493.088 100.467L485.682 93.0602L493.088 85.6537L500.495 93.0602ZM500.495 75.7638L493.088 83.1704L485.682 75.7638L493.088 68.3573L500.495 75.7638ZM491.868 67.1374L484.462 74.544L477.055 67.1374L484.462 59.731L491.868 67.1374ZM491.868 49.8411L484.462 57.2476L477.055 49.8411L484.462 42.4346L491.868 49.8411ZM491.868 32.5447L484.462 39.9513L477.055 32.5447L484.462 25.1383L491.868 32.5447ZM484.462 7.84194L491.868 15.2485L484.462 22.6549L477.055 15.2485L484.462 7.84194ZM467.166 7.84194L474.572 15.2485L467.166 22.6549L459.759 15.2485L467.166 7.84194ZM449.869 7.84194L457.276 15.2485L449.869 22.6549L442.463 15.2485L449.869 7.84194ZM432.573 7.84194L439.979 15.2485L432.573 22.6549L425.166 15.2485L432.573 7.84194ZM415.277 7.84194L422.683 15.2485L415.277 22.6549L407.87 15.2485L415.277 7.84194ZM397.98 7.84194L405.387 15.2485L397.98 22.6549L390.574 15.2485L397.98 7.84194ZM380.684 7.84194L388.09 15.2485L380.684 22.6549L373.277 15.2485L380.684 7.84194ZM363.388 7.84194L370.794 15.2485L363.388 22.6549L355.981 15.2485L363.388 7.84194ZM346.091 7.84194L353.498 15.2485L346.091 22.6549L338.685 15.2485L346.091 7.84194ZM328.795 7.84194L336.201 15.2485L328.795 22.6549L321.388 15.2485L328.795 7.84194ZM311.499 7.84194L318.905 15.2485L311.499 22.6549L304.092 15.2485L311.499 7.84194ZM294.202 7.84194L301.609 15.2485L294.202 22.6549L286.796 15.2485L294.202 7.84194ZM276.906 7.84194L284.312 15.2485L276.906 22.6549L269.499 15.2485L276.906 7.84194ZM259.609 7.84194L267.016 15.2485L259.609 22.6549L252.203 15.2485L259.609 7.84194ZM242.313 7.84194L249.72 15.2485L242.313 22.6549L234.907 15.2485L242.313 7.84194ZM225.017 7.84194L232.423 15.2485L225.017 22.6549L217.61 15.2485L225.017 7.84194ZM207.72 7.84194L215.127 15.2485L207.72 22.6549L200.314 15.2485L207.72 7.84194ZM183.018 15.2485L190.424 7.84194L197.831 15.2485L190.424 22.6549L183.018 15.2485ZM183.018 32.5447L190.424 25.1383L197.831 32.5447L190.424 39.9513L183.018 32.5447ZM183.018 49.8411L190.424 42.4346L197.831 49.8411L190.424 57.2476L183.018 49.8411ZM190.424 59.6874L197.831 67.0939L190.424 74.5004L183.018 67.0939L190.424 59.6874ZM174.348 75.7638L181.754 68.3573L189.161 75.7638L181.754 83.1704L174.348 75.7638ZM174.348 93.0602L181.754 85.6537L189.161 93.0602L181.754 100.467L174.348 93.0602ZM174.348 110.357L181.754 102.95L189.161 110.357L181.754 117.763L174.348 110.357ZM174.348 127.653L181.754 120.246L189.161 127.653L181.754 135.059L174.348 127.653ZM174.348 144.949L181.754 137.543L189.161 144.949L181.754 152.356L174.348 144.949ZM165.721 170.872L173.128 163.465L180.534 170.872L173.128 178.278L165.721 170.872ZM165.721 188.168L173.128 180.762L180.534 188.168L173.128 195.575L165.721 188.168ZM189.204 196.795L181.798 204.201L174.391 196.795L181.798 189.388L189.204 196.795ZM189.204 179.498L181.798 186.905L174.391 179.498L181.798 172.092L189.204 179.498ZM181.798 169.652L174.391 162.246L181.798 154.839L189.204 162.246L181.798 169.652ZM190.424 161.026L183.018 153.619L190.424 146.213L197.831 153.619L190.424 161.026ZM207.72 161.026L200.314 153.619L207.72 146.213L215.127 153.619L207.72 161.026ZM225.017 161.026L217.61 153.619L225.017 146.213L232.423 153.619L225.017 161.026ZM242.313 161.026L234.907 153.619L242.313 146.213L249.72 153.619L242.313 161.026ZM259.609 161.026L252.203 153.619L259.609 146.213L267.016 153.619L259.609 161.026ZM276.906 161.026L269.499 153.619L276.906 146.213L284.312 153.619L276.906 161.026ZM294.202 161.026L286.796 153.619L294.202 146.213L301.609 153.619L294.202 161.026ZM311.499 161.026L304.092 153.619L311.499 146.213L318.905 153.619L311.499 161.026ZM328.795 161.026L321.388 153.619L328.795 146.213L336.201 153.619L328.795 161.026ZM346.091 161.026L338.685 153.619L346.091 146.213L353.498 153.619L346.091 161.026ZM363.388 161.026L355.981 153.619L363.388 146.213L370.794 153.619L363.388 161.026ZM380.684 161.026L373.277 153.619L380.684 146.213L388.09 153.619L380.684 161.026ZM397.98 161.026L390.574 153.619L397.98 146.213L405.387 153.619L397.98 161.026ZM415.277 161.026L407.87 153.619L415.277 146.213L422.683 153.619L415.277 161.026ZM432.573 161.026L425.166 153.619L432.573 146.213L439.979 153.619L432.573 161.026ZM449.869 161.026L442.463 153.619L449.869 146.213L457.276 153.619L449.869 161.026ZM467.166 161.026L459.759 153.619L467.166 146.213L474.572 153.619L467.166 161.026ZM477.012 153.619L484.418 146.213L491.825 153.619L484.418 161.026L477.012 153.619ZM485.638 162.246L493.045 154.839L500.451 162.246L493.045 169.652L485.638 162.246ZM485.638 179.542L493.045 172.135L500.451 179.542L493.045 186.948L485.638 179.542ZM485.638 196.838L493.045 189.432L500.451 196.838L493.045 204.245L485.638 196.838Z" fill="#6291EF"/>
<path d="M482.057 220.713L481.099 220.626V219.755V167.3H193.945V220.452L193.509 220.539C193.509 220.539 193.16 220.713 192.943 220.713C191.548 220.713 181.659 210.17 163.491 189.388L163.229 189.127V188.778L177.65 27.1425C177.65 12.1988 189.849 0 204.88 0H470.12C485.151 0 497.35 12.1989 497.35 27.2298L511.77 189.171L511.509 189.432C493.341 210.214 483.408 220.757 482.014 220.757L482.057 220.713ZM192.202 165.557H482.798V218.23C486.893 214.527 500.966 198.799 509.984 188.517L495.607 27.2298C495.607 13.0703 484.149 1.65546 470.076 1.65546H204.837C190.764 1.65546 179.349 13.0702 179.349 27.1425L164.972 188.517C173.991 198.799 188.063 214.527 192.158 218.23V165.557H192.202Z" fill="#334466"/>
<path d="M488.976 220.67C487.19 220.67 485.447 219.885 484.271 218.36C482.267 215.746 482.746 212 485.36 209.995C494.379 203.068 498.997 195.923 498.997 188.822C498.997 185.293 497.864 182.504 495.468 180.152C482.267 167.168 435.78 167.822 381.974 168.606C367.684 168.824 352.915 169.042 337.535 169.042C322.156 169.042 307.386 168.824 293.096 168.606C239.29 167.822 192.804 167.168 179.603 180.152C177.163 182.548 176.074 185.293 176.074 188.822C176.074 195.923 180.648 203.068 189.667 209.995C192.281 212 192.76 215.746 190.756 218.317C188.752 220.931 185.005 221.41 182.435 219.406C170.323 210.083 164.18 199.801 164.18 188.778C164.18 182.025 166.576 176.231 171.281 171.612C188.011 155.1 232.189 155.754 293.314 156.625C307.561 156.843 322.287 157.061 337.579 157.061C352.871 157.061 367.597 156.843 381.844 156.625C442.969 155.754 487.147 155.1 503.876 171.612C508.582 176.231 510.978 182.025 510.978 188.778C510.978 199.801 504.835 210.083 492.723 219.406C491.634 220.234 490.371 220.626 489.107 220.626L488.976 220.67Z" fill="#800000"/>
<path d="M343.419 9.23438H331.525V162.244H343.419V9.23438Z" fill="#800000"/>
<path d="M470.128 0.781891H204.888C190.336 0.781891 178.53 12.6322 178.53 27.1403V219.709C178.704 221.626 181.884 223.151 185.762 223.151C189.639 223.151 192.82 221.626 192.994 219.709V219.535V27.0966C192.994 20.5615 198.309 15.2899 204.801 15.2899H470.041C476.576 15.2899 481.847 20.6051 481.847 27.0966V219.666C482.022 221.583 485.202 223.107 489.08 223.107C492.957 223.107 496.138 221.583 496.312 219.666V27.0966C496.312 12.5451 484.505 0.738281 469.953 0.738281L470.128 0.781891Z" fill="#CC0000"/>
<path d="M185.438 30.628C185.438 17.9934 195.72 7.71141 208.355 7.71141H473.595C479.041 7.71141 484.007 9.62831 487.972 12.8087C483.746 7.58063 477.342 4.26953 470.153 4.26953H204.913C192.279 4.26953 181.997 14.5515 181.997 27.1861V218.927C182.476 219.232 183.696 219.668 185.438 219.711V30.628Z" fill="#FF3333"/>
<path d="M488.841 219.711V30.6272C488.841 25.5298 486.314 21.0422 482.48 18.2539C484.31 20.7808 485.399 23.8306 485.399 27.1417V218.883C485.878 219.188 487.098 219.624 488.841 219.667V219.711Z" fill="#FF3333"/>
<path d="M169.507 129.175C169.507 112.919 154.813 99.7227 136.708 99.7227C118.603 99.7227 103.909 112.919 103.909 129.175C103.909 145.431 130.652 129.844 136.708 130.227C143.465 130.673 169.507 145.431 169.507 129.175Z" fill="#1A2233"/>
<path d="M85.7634 76.177C85.7634 95.7163 108.554 111.558 136.699 111.558C164.845 111.558 187.635 95.7163 187.635 76.177C187.635 56.6378 146.166 52.8765 136.699 52.9084C127.169 52.9403 85.7634 56.6059 85.7634 76.177Z" fill="#CC0000"/>
<path d="M143.514 69.8041C140.486 58.0105 115.974 54.1536 88.7212 61.1342C61.4683 68.1148 42.0884 83.2553 44.8615 95.1127C54.5833 136.837 88.6574 98.842 97.7736 96.4833C106.985 94.0927 146.542 81.5978 143.514 69.8041Z" fill="#CC0000"/>
<path d="M122.807 69.8041C125.835 58.0105 150.347 54.1536 177.6 61.1342C204.853 68.1148 224.2 83.2553 221.459 95.1127C211.737 136.837 177.663 98.842 168.547 96.4833C159.335 94.0927 119.811 81.5978 122.807 69.8041Z" fill="#CC0000"/>
<path d="M136.699 77.7623C144.572 77.7623 174.822 79.5791 184.575 88.2809C186.551 84.5197 187.635 80.4397 187.635 76.2004C187.635 56.6611 146.166 52.9 136.699 52.9318C127.169 52.9637 85.7634 56.6293 85.7634 76.2004C85.7634 80.4397 86.8472 84.5197 88.8235 88.2809C98.5453 79.611 128.731 77.7942 136.699 77.7623Z" fill="#E80024"/>
<path d="M109.919 61.73C109.919 80.7592 136.694 102.593 136.694 102.593C136.694 102.593 163.437 80.7592 163.437 61.73C163.437 42.7007 141.635 45.4101 136.694 45.4738C131.69 45.5057 109.919 42.7007 109.919 61.73Z" fill="#1A2233"/>
<path d="M158.981 48.2799C158.981 48.0249 158.981 47.7698 158.981 47.5467C158.981 35.2112 149.004 25.2344 136.669 25.2344C124.333 25.2344 114.356 35.2112 114.356 47.5467C114.356 47.8017 114.356 48.0567 114.356 48.2799C114.42 50.0967 114.675 51.8498 115.153 53.5073C115.504 55.1966 115.886 56.7585 116.014 57.9697C116.301 61.2209 116.428 67.9147 117.544 70.9747C118.628 73.9072 122.421 78.1783 124.014 80.8877C125.608 83.597 126.565 90.3863 128.923 92.4263C130.421 93.7332 134.661 94.4345 136.637 94.4345C138.613 94.4345 142.852 93.7332 144.351 92.4263C146.741 90.3863 147.697 83.597 149.259 80.8877C150.853 78.1783 154.646 73.9072 155.73 70.9747C156.846 67.9147 156.973 61.2209 157.26 57.9697C157.387 56.7266 157.738 55.1966 158.121 53.5073C158.599 51.8179 158.854 50.0648 158.917 48.2799H158.981Z" fill="#CC0000"/>
<path d="M115.631 47.5461C115.631 47.8011 115.631 48.0561 115.631 48.2793C115.695 50.0961 115.95 51.8492 116.396 53.5067C116.747 55.196 117.097 56.7579 117.193 57.9691C117.448 61.2203 118.5 66.6709 119.584 69.7309C120.604 72.6634 126.947 77.859 128.445 80.5684C129.943 83.2778 134.182 92.3301 131.409 93.5733C133.226 94.1151 135.425 94.4338 136.7 94.4338C138.167 94.4338 140.812 94.0514 142.693 93.3501C140.494 91.3101 143.139 83.3096 144.637 80.6002C146.135 77.8909 152.797 72.6953 153.817 69.7628C154.869 66.7028 155.921 61.2522 156.208 58.001C156.303 56.7579 156.654 55.2279 157.005 53.5386C157.451 51.8492 157.706 50.096 157.77 48.3111C157.77 48.0561 157.77 47.8011 157.77 47.578C157.77 35.2425 148.335 25.2656 136.7 25.2656C125.066 25.2656 115.631 35.2425 115.631 47.578V47.5461Z" fill="#FF3333"/>
<path d="M153.913 43.8792C153.913 36.1655 147.379 29.2168 141.099 29.2168C136.191 29.2168 138.964 36.4843 138.964 44.198C138.964 51.9117 136.318 57.8722 142.566 57.8722C148.813 57.8722 153.913 51.6248 153.913 43.8792Z" fill="#CC0000"/>
<path d="M154.743 45.8344C149.484 44.7188 124.558 44.5913 118.629 45.8344C114.39 46.7269 115.123 49.0856 115.218 50.01C115.473 52.4006 117.832 57.1818 118.087 59.5724C118.183 60.5286 119.235 63.3656 122.39 64.4174C125.896 65.6287 133.005 71.4617 136.734 71.4298C140.463 71.4298 148.113 65.4055 151.078 64.4174C154.233 63.3337 155.285 60.4968 155.381 59.5724C155.636 57.1818 157.994 52.4006 158.249 50.01C158.345 49.0856 159.046 46.7269 154.839 45.8344H154.743Z" fill="#4D6699"/>
<path d="M136.665 66.5241C133.955 66.5241 128.728 64.6116 125.286 63.3684C124.584 63.1134 123.947 62.8903 123.405 62.6991C121.174 61.9022 120.504 59.7666 120.472 59.3841L117.636 49.8217C117.636 49.8217 117.636 49.6305 117.604 49.503C117.476 48.6105 117.413 48.1004 119.516 47.6223C120.983 47.3036 128.696 46.7617 135.964 46.7617C143.231 46.7617 152.443 47.3036 153.845 47.6223C155.949 48.0685 155.885 48.6105 155.758 49.503C155.758 49.6305 155.758 49.726 155.726 49.8217L152.889 59.3841C152.857 59.7666 152.188 61.9022 149.957 62.6991C149.51 62.8585 149 63.0497 148.395 63.2728C145.271 64.4203 139.438 66.5559 136.697 66.5559L136.665 66.5241Z" fill="#1A2233"/>
<path d="M140.85 25.2351C140.945 24.8845 140.627 24.502 140.18 24.4064C137.407 23.8645 135.973 23.8645 133.232 24.4064C132.786 24.502 132.467 24.8845 132.562 25.2351C132.817 26.2551 132.945 26.7651 133.168 27.7851C133.264 28.1357 133.614 28.3589 133.965 28.2951C136.132 27.8808 137.28 27.8808 139.447 28.2951C139.798 28.3589 140.181 28.1357 140.244 27.7851C140.499 26.7651 140.627 26.2551 140.85 25.2351Z" fill="#4D0000"/>
<path d="M119.745 32.1438C119.522 31.9207 119.108 31.9844 118.853 32.3032C117.291 34.0881 116.685 35.14 115.92 37.4031C115.793 37.7856 115.92 38.1681 116.239 38.2637C117.1 38.5187 117.514 38.6463 118.375 38.9013C118.661 38.9969 118.98 38.8057 119.076 38.5188C119.681 36.7657 120.16 35.9369 121.403 34.5025C121.594 34.2794 121.594 33.8969 121.403 33.7057C120.765 33.1 120.446 32.7813 119.809 32.1756L119.745 32.1438Z" fill="#4D0000"/>
<path d="M153.656 32.1438C153.879 31.9207 154.293 31.9844 154.548 32.3032C156.11 34.0881 156.716 35.14 157.481 37.4031C157.608 37.7856 157.481 38.1681 157.162 38.2637C156.302 38.5187 155.887 38.6463 155.027 38.9013C154.74 38.9969 154.421 38.8057 154.325 38.5188C153.72 36.7657 153.242 35.9369 151.998 34.5025C151.807 34.2794 151.807 33.8969 151.998 33.7057C152.636 33.1 152.955 32.7813 153.592 32.1756L153.656 32.1438Z" fill="#4D0000"/>
<path d="M159.651 50.3159C159.651 50.3159 159.587 50.3159 159.555 50.3159C159.141 50.2841 158.822 49.9016 158.886 49.4553C158.886 49.3597 158.886 49.2641 158.918 49.1685C159.077 48.0847 159.3 46.5547 155.826 45.8216C150.407 44.6741 123.919 44.4828 117.544 45.8216C114.102 46.5547 114.293 48.0529 114.453 49.1685C114.453 49.2641 114.453 49.3916 114.485 49.4553C114.516 49.8697 114.23 50.2522 113.783 50.3159C113.369 50.3478 112.986 50.061 112.954 49.6466C112.954 49.5828 112.954 49.4872 112.954 49.4234C112.795 48.3078 112.381 45.4073 117.258 44.3873C123.76 43.0167 150.694 43.2079 156.177 44.3873C161.054 45.4073 160.639 48.3397 160.48 49.4234C160.48 49.5191 160.48 49.5828 160.448 49.6466C160.416 50.0291 160.065 50.3478 159.683 50.3478L159.651 50.3159Z" fill="#CCDCFF"/>
<path d="M146.169 48.2137H127.204C124.749 48.2137 122.741 46.2056 122.741 43.7513C122.741 43.3369 123.092 42.9863 123.506 42.9863C123.921 42.9863 124.271 43.3369 124.271 43.7513C124.271 45.3769 125.578 46.6838 127.204 46.6838H146.169C147.795 46.6838 149.102 45.3769 149.102 43.7513C149.102 43.3369 149.452 42.9863 149.867 42.9863C150.281 42.9863 150.632 43.3369 150.632 43.7513C150.632 46.2056 148.624 48.2137 146.169 48.2137Z" fill="#CCDCFF"/>
<path d="M136.647 65.3006C131.962 65.3006 123.738 64.3125 119.658 63.0056C115.514 61.6669 114.207 58.065 114.08 56.9176C114.016 56.5032 114.335 56.1207 114.749 56.057C115.164 56.0251 115.546 56.3119 115.61 56.7263C115.706 57.4594 116.694 60.3919 120.136 61.5075C124.025 62.7506 132.185 63.7387 136.647 63.7387H136.711C140.887 63.7387 149.843 62.6231 153.286 61.5075C156.728 60.3919 157.716 57.4276 157.812 56.7263C157.844 56.3119 158.227 55.9932 158.673 56.057C159.087 56.0888 159.406 56.4713 159.342 56.9176C159.215 58.065 157.908 61.6669 153.764 63.0056C150.13 64.185 141.078 65.3006 136.711 65.3006H136.647Z" fill="#CCDCFF"/>
<path d="M136.635 65.943C136.221 65.943 135.87 65.5924 135.87 65.1781V43.4076C135.87 42.9933 136.221 42.6426 136.635 42.6426C137.05 42.6426 137.4 42.9933 137.4 43.4076V65.1781C137.4 65.5924 137.05 65.943 136.635 65.943Z" fill="#CCDCFF"/>
<path d="M136.632 57.1712C128.281 57.1712 120.854 52.1988 117.698 44.4532C117.539 44.0707 117.698 43.6245 118.113 43.4651C118.495 43.3057 118.941 43.4651 119.101 43.8795C122.033 51.0194 128.918 55.6413 136.632 55.6413C144.346 55.6413 151.231 51.0194 154.163 43.8795C154.322 43.497 154.769 43.3057 155.183 43.4651C155.566 43.6245 155.757 44.0707 155.597 44.4532C152.442 52.1669 144.983 57.1712 136.664 57.1712H136.632Z" fill="#CCDCFF"/>
<path d="M136.677 62.6506C132.852 62.6506 126.158 60.6745 121.728 59.3357C120.899 59.0807 120.102 58.8575 119.464 58.6663C115.257 57.4551 113.918 54.2039 113.791 53.152C113.727 52.7377 114.046 52.3551 114.46 52.2913C114.874 52.2276 115.257 52.5464 115.321 52.9608C115.385 53.5983 116.404 56.1801 119.879 57.1682C120.548 57.3594 121.313 57.5826 122.174 57.8376C126.509 59.1445 133.075 61.0888 136.677 61.0888C140.342 61.0888 147.387 58.9851 151.594 57.742C152.327 57.5189 152.997 57.3276 153.507 57.1682C156.981 56.1801 158.001 53.5983 158.065 52.9608C158.129 52.5464 158.511 52.2276 158.925 52.2913C159.34 52.3551 159.658 52.7377 159.595 53.152C159.467 54.2039 158.129 57.4551 153.921 58.6663C153.411 58.8257 152.742 59.017 152.009 59.2401C147.737 60.5151 140.534 62.6506 136.645 62.6506H136.677Z" fill="#CCDCFF"/>
<path d="M195.751 198.503C194.412 193.18 191.894 189.195 190.077 189.642C188.26 190.088 187.878 194.773 189.217 200.128C190.524 205.451 194.89 208.99 194.89 208.99C194.89 208.99 197.09 203.858 195.751 198.503Z" fill="#4D6699"/>
<path d="M200.795 191.425C199.456 186.102 194.069 182.851 188.746 184.158C183.423 185.497 180.172 190.884 181.479 196.207C182.817 201.53 187.853 203.41 193.208 202.103C198.531 200.765 202.133 196.748 200.827 191.425H200.795Z" fill="#1A2233"/>
<path d="M152.725 101.798L182.113 94.4979C186.661 93.3683 191.295 96.1584 192.425 100.706L212.104 179.929C213.233 184.477 210.443 189.111 205.896 190.241L176.508 197.541C171.961 198.67 167.326 195.88 166.197 191.333L146.518 112.109C145.388 107.562 148.178 102.927 152.725 101.798Z" fill="#4D0000"/>
<path d="M181.82 187.856C182.267 189.609 181.342 191.331 179.812 191.713L175.318 192.829C173.788 193.211 172.162 192.095 171.748 190.342L170.473 185.242C170.027 183.489 170.951 181.768 172.481 181.386L176.975 180.27C178.505 179.888 180.131 181.003 180.545 182.756L181.82 187.856ZM192.945 179.696C192.499 177.943 190.905 176.827 189.375 177.21L184.88 178.326C183.35 178.708 182.426 180.429 182.872 182.182L184.147 187.282C184.594 189.036 186.187 190.151 187.717 189.769L192.212 188.653C193.742 188.27 194.666 186.549 194.22 184.796L192.945 179.696ZM205.344 176.604C204.898 174.851 203.304 173.736 201.774 174.118L197.28 175.234C195.75 175.616 194.825 177.337 195.272 179.091L196.547 184.191C196.993 185.944 198.587 187.059 200.117 186.677L204.611 185.561C206.141 185.179 207.065 183.457 206.619 181.704L205.344 176.604Z" fill="#800000"/>
<path d="M178.053 172.741C178.499 174.494 177.575 176.215 176.045 176.598L171.551 177.713C170.021 178.096 168.395 176.98 167.981 175.227L166.706 170.127C166.259 168.374 167.184 166.653 168.714 166.27L173.208 165.155C174.738 164.772 176.364 165.888 176.778 167.641L178.053 172.741ZM189.177 164.581C188.731 162.828 187.137 161.712 185.607 162.095L181.113 163.21C179.583 163.593 178.659 165.314 179.105 167.067L180.38 172.167C180.826 173.92 182.42 175.036 183.95 174.653L188.444 173.538C189.974 173.155 190.867 171.434 190.452 169.681L189.177 164.581ZM201.577 161.489C201.13 159.736 199.537 158.62 198.007 159.003L193.512 160.119C191.982 160.501 191.058 162.222 191.504 163.975L192.779 169.075C193.225 170.828 194.819 171.944 196.349 171.562L200.843 170.446C202.373 170.063 203.298 168.342 202.852 166.589L201.577 161.489Z" fill="#800000"/>
<path d="M174.329 157.632C174.776 159.385 173.851 161.106 172.321 161.488L167.827 162.604C166.297 162.986 164.671 161.871 164.257 160.118L162.982 155.018C162.536 153.265 163.46 151.543 164.99 151.161L169.485 150.045C171.014 149.663 172.64 150.778 173.054 152.532L174.329 157.632ZM185.454 149.472C185.008 147.718 183.414 146.603 181.884 146.985L177.389 148.101C175.859 148.483 174.935 150.205 175.381 151.958L176.656 157.058C177.103 158.811 178.696 159.927 180.226 159.544L184.721 158.428C186.251 158.046 187.175 156.325 186.729 154.571L185.454 149.472ZM197.853 146.38C197.407 144.627 195.813 143.511 194.283 143.894L189.789 145.009C188.259 145.392 187.334 147.113 187.781 148.866L189.056 153.966C189.502 155.719 191.096 156.835 192.626 156.452L197.12 155.337C198.65 154.954 199.542 153.233 199.128 151.48L197.853 146.38Z" fill="#800000"/>
<path d="M170.571 142.528C171.017 144.281 170.124 146.002 168.563 146.385L164.068 147.501C162.538 147.883 160.913 146.767 160.498 145.014L159.223 139.914C158.777 138.161 159.701 136.44 161.231 136.057L165.726 134.942C167.256 134.559 168.881 135.675 169.296 137.428L170.571 142.528ZM181.695 134.368C181.249 132.615 179.655 131.499 178.125 131.882L173.631 132.997C172.101 133.38 171.176 135.101 171.623 136.854L172.898 141.954C173.344 143.707 174.937 144.823 176.467 144.441L180.962 143.325C182.492 142.942 183.416 141.221 182.97 139.468L181.695 134.368ZM194.094 131.276C193.648 129.523 192.054 128.407 190.524 128.79L186.03 129.906C184.5 130.288 183.576 132.009 184.022 133.762L185.297 138.862C185.743 140.616 187.337 141.731 188.867 141.349L193.361 140.233C194.891 139.851 195.784 138.129 195.369 136.376L194.094 131.276Z" fill="#800000"/>
<path d="M191.596 121.267C192.042 123.02 191.118 124.741 189.588 125.124L160.327 132.391C158.797 132.774 157.171 131.658 156.757 129.905L155.482 124.805C155.036 123.052 155.96 121.331 157.49 120.948L186.751 113.681C188.281 113.298 189.907 114.414 190.321 116.167L191.596 121.267Z" fill="#800000"/>
<path d="M187.838 106.152C188.284 107.905 187.359 109.626 185.83 110.008L156.569 117.276C155.039 117.658 153.413 116.543 152.999 114.79L151.723 109.69C151.277 107.937 152.202 106.215 153.732 105.833L182.993 98.5654C184.523 98.1829 186.148 99.2985 186.563 101.052L187.838 106.152Z" fill="#800000"/>
<path d="M77.676 198.495C79.0148 193.172 81.5329 189.187 83.3497 189.634C85.1666 190.08 85.549 194.766 84.2103 200.121C82.9034 205.444 78.5366 208.982 78.5366 208.982C78.5366 208.982 76.3373 203.85 77.676 198.495Z" fill="#4D6699"/>
<path d="M72.6381 191.421C73.9768 186.098 79.3637 182.847 84.6867 184.154C90.0098 185.493 93.2611 190.88 91.9542 196.203C90.6154 201.526 85.5793 203.406 80.2243 202.099C74.9012 200.761 71.2994 196.745 72.6063 191.421H72.6381Z" fill="#1A2233"/>
<path d="M61.3255 180.073C60.2099 184.631 62.9829 189.253 67.541 190.4L96.9296 197.699C101.488 198.847 106.11 196.042 107.257 191.484L126.924 112.243C128.039 107.685 125.266 103.063 120.708 101.916L91.3197 94.6164C86.7616 93.4689 82.1397 96.2739 80.9922 100.832L61.3255 180.073Z" fill="#4D0000"/>
<path d="M92.8547 182.749C93.301 180.996 94.8948 179.88 96.4248 180.263L100.919 181.378C102.449 181.761 103.373 183.482 102.927 185.235L101.652 190.335C101.206 192.088 99.6122 193.204 98.0823 192.821L93.5879 191.706C92.0579 191.323 91.1335 189.602 91.5798 187.849L92.8547 182.749ZM79.1805 184.757C78.7343 186.51 79.6587 188.231 81.1887 188.614L85.6829 189.73C87.2129 190.112 88.8386 188.996 89.253 187.243L90.528 182.143C90.9742 180.39 90.0498 178.669 88.5198 178.286L84.0255 177.171C82.4955 176.788 80.8699 177.904 80.4555 179.657L79.1805 184.757ZM66.7812 181.665C66.335 183.418 67.2594 185.14 68.7893 185.522L73.2837 186.638C74.8137 187.02 76.4393 185.905 76.8537 184.151L78.1286 179.052C78.5749 177.298 77.6505 175.577 76.1205 175.195L71.6262 174.079C70.0963 173.697 68.4706 174.812 68.0562 176.565L66.7812 181.665Z" fill="#800000"/>
<path d="M96.6179 167.645C97.0641 165.892 98.6579 164.777 100.188 165.159L104.682 166.275C106.212 166.657 107.137 168.379 106.69 170.132L105.415 175.232C104.969 176.985 103.375 178.1 101.845 177.718L97.351 176.602C95.821 176.22 94.8966 174.499 95.3428 172.745L96.6179 167.645ZM82.9436 169.654C82.4974 171.407 83.4217 173.128 84.9517 173.51L89.4461 174.626C90.9761 175.009 92.6017 173.893 93.016 172.14L94.291 167.04C94.7373 165.287 93.8129 163.566 92.2829 163.183L87.7885 162.067C86.2585 161.685 84.6329 162.801 84.2186 164.554L82.9436 169.654ZM70.5443 166.562C70.098 168.315 71.0224 170.036 72.5524 170.419L77.0468 171.534C78.5767 171.917 80.2023 170.801 80.6167 169.048L81.8917 163.948C82.3379 162.195 81.4136 160.474 79.8837 160.091L75.3893 158.976C73.8593 158.593 72.2337 159.709 71.8193 161.462L70.5443 166.562Z" fill="#800000"/>
<path d="M100.372 152.53C100.818 150.777 102.412 149.662 103.942 150.044L108.437 151.16C109.967 151.542 110.891 153.263 110.445 155.016L109.17 160.116C108.723 161.87 107.13 162.985 105.6 162.603L101.105 161.487C99.5754 161.105 98.651 159.383 99.0972 157.63L100.372 152.53ZM86.6979 154.538C86.2517 156.291 87.176 158.013 88.706 158.395L93.2004 159.511C94.7304 159.893 96.356 158.778 96.7703 157.025L98.0453 151.925C98.4916 150.171 97.5672 148.45 96.0372 148.068L91.5429 146.952C90.0129 146.57 88.3873 147.685 87.9729 149.438L86.6979 154.538ZM74.2987 151.447C73.8524 153.2 74.7767 154.921 76.3067 155.303L80.8011 156.419C82.331 156.801 83.9567 155.686 84.3711 153.933L85.6461 148.833C86.0923 147.08 85.1679 145.358 83.638 144.976L79.1436 143.86C77.6136 143.478 75.988 144.593 75.5736 146.347L74.2987 151.447Z" fill="#800000"/>
<path d="M104.096 137.464C104.542 135.711 106.136 134.595 107.666 134.978L112.16 136.093C113.69 136.476 114.615 138.197 114.168 139.95L112.893 145.05C112.447 146.803 110.853 147.919 109.323 147.536L104.829 146.421C103.299 146.038 102.375 144.317 102.821 142.564L104.096 137.464ZM90.4216 139.472C89.9754 141.225 90.8998 142.946 92.4298 143.329L96.924 144.444C98.454 144.827 100.08 143.711 100.494 141.958L101.769 136.858C102.215 135.105 101.291 133.384 99.7609 133.001L95.2666 131.886C93.7366 131.503 92.111 132.619 91.6966 134.372L90.4216 139.472ZM78.0223 136.38C77.5761 138.133 78.5004 139.854 80.0304 140.237L84.5248 141.353C86.0548 141.735 87.6804 140.619 88.0947 138.866L89.3697 133.766C89.816 132.013 88.8916 130.292 87.3616 129.91L82.8673 128.794C81.3373 128.411 79.7116 129.527 79.2973 131.28L78.0223 136.38Z" fill="#800000"/>
<path d="M83.0604 116.196C83.5067 114.443 85.1004 113.327 86.6304 113.71L115.891 120.977C117.421 121.36 118.346 123.081 117.9 124.834L116.625 129.934C116.178 131.687 114.585 132.803 113.055 132.42L83.7935 125.153C82.2635 124.77 81.3391 123.049 81.7854 121.296L83.0604 116.196Z" fill="#800000"/>
<path d="M86.8191 101.087C87.2654 99.3336 88.8591 98.218 90.3891 98.6005L119.65 105.868C121.18 106.25 122.104 107.972 121.658 109.725L120.383 114.825C119.937 116.578 118.343 117.694 116.813 117.311L87.5523 110.044C86.0223 109.661 85.0979 107.94 85.5442 106.187L86.8191 101.087Z" fill="#800000"/>
<path d="M147.483 197.988C156.759 206.116 164.186 205.191 180.824 202.577C190.61 201.047 210.085 196.139 216.333 193.716C222.58 191.294 225.608 193.971 225.035 200.123C224.461 206.275 222.931 212.076 217.193 214.212C211.488 216.347 179.9 220.746 175.278 221.033C170.688 221.32 163.07 223.551 141.618 204.617L1.11438 80.4971L6.97932 73.8672L147.483 197.988Z" fill="#1A2233"/>
<path d="M224.206 202.581C224.78 196.429 221.751 193.751 215.504 196.174C209.257 198.596 189.781 203.505 179.996 205.035C163.357 207.649 155.898 208.541 146.623 200.445L6.11874 76.3249L1.84753 81.1698L1.11438 80.5323L6.97932 73.9023L147.483 198.023C156.759 206.151 164.186 205.226 180.824 202.613C190.61 201.083 210.085 196.174 216.333 193.751C222.58 191.329 225.608 194.006 225.035 200.158C224.78 203.027 224.27 205.832 223.281 208.223C223.76 206.438 224.015 204.557 224.206 202.613V202.581Z" fill="#7399E6"/>
<path d="M7.86769 72.8182L0.229492 81.4668L3.83709 84.6529L11.4753 76.0043L7.86769 72.8182Z" fill="#4D6699"/>
<path d="M184.136 221.157C194.495 219.786 208.52 217.587 214.863 216.088C215.405 215.961 215.787 215.451 215.755 214.877L214.417 194.732C214.417 194.382 214.225 194.063 213.907 193.84C213.652 193.68 213.365 193.617 213.11 193.649C213.046 193.649 212.982 193.649 212.919 193.681C205.205 196.135 189.459 200.055 180.693 201.426C178.303 201.809 175.784 202.191 173.521 202.478C172.693 202.574 171.928 202.701 171.131 202.765C170.812 202.797 170.525 202.988 170.366 203.211C170.175 203.466 170.111 203.785 170.175 204.104L173.394 221.252C173.49 221.826 174.031 222.24 174.637 222.177C174.924 222.177 175.179 222.145 175.434 222.113C176.709 222.049 179.896 221.667 184.168 221.093L184.136 221.157Z" fill="#7399E6"/>
<path d="M180.37 203.402C188.881 202.064 204.659 198.207 212.787 195.625L214.126 215.802C204.659 218.065 178.968 221.635 174.856 221.858C174.601 221.858 174.314 221.89 174.027 221.922L170.808 204.773C173.645 204.454 176.8 203.976 180.402 203.402H180.37Z" fill="#CCDCFF"/>
<path d="M192.195 204.62C192.355 205.545 192.45 206.437 192.61 207.298C192.769 208.158 192.896 208.987 193.056 209.784C193.183 210.581 193.343 211.314 193.47 212.015C193.63 212.716 193.725 213.354 193.853 213.928C193.98 214.501 194.108 214.979 194.203 215.394C194.395 216.223 194.458 216.701 194.458 216.701C194.458 216.701 194.203 216.286 193.821 215.553C193.63 215.171 193.375 214.724 193.12 214.214C192.865 213.673 192.641 213.067 192.386 212.398C192.131 211.728 191.813 210.963 191.59 210.198C191.366 209.401 191.08 208.573 190.856 207.68C190.665 206.788 190.442 205.895 190.283 204.971C190.091 204.046 189.964 203.09 189.805 202.134C189.805 201.975 189.773 201.783 189.741 201.624C190.41 201.496 191.048 201.337 191.717 201.178C191.717 201.401 191.781 201.624 191.813 201.847C191.94 202.771 192.036 203.728 192.195 204.62Z" fill="#7399E6"/>
<path d="M205.359 216.866C205.136 216.324 204.881 215.719 204.626 215.017C204.371 214.348 204.084 213.583 203.861 212.786C203.638 211.989 203.383 211.161 203.16 210.268C202.969 209.376 202.777 208.483 202.618 207.559C202.427 206.634 202.331 205.678 202.204 204.722C202.108 203.766 201.949 202.809 201.917 201.885C201.821 200.929 201.821 200.004 201.757 199.112C201.757 198.984 201.757 198.857 201.757 198.729C202.331 198.57 202.905 198.443 203.479 198.283C203.479 198.506 203.542 198.729 203.574 198.984C203.67 199.845 203.829 200.769 203.893 201.694C203.957 202.618 204.148 203.543 204.244 204.467C204.339 205.391 204.435 206.348 204.594 207.24C204.754 208.164 204.849 209.057 204.977 209.917C205.136 210.778 205.263 211.639 205.391 212.436C205.518 213.232 205.646 213.997 205.774 214.667C205.901 215.368 206.029 216.006 206.124 216.579C206.188 216.866 206.252 217.089 206.284 217.344C206.092 217.376 205.869 217.408 205.678 217.44C205.582 217.249 205.487 217.057 205.391 216.834L205.359 216.866Z" fill="#7399E6"/>
<path d="M211.896 216.033C211.896 216.033 211.896 216.192 211.928 216.288C211.577 216.352 211.195 216.447 210.812 216.511C210.812 216.447 210.812 216.415 210.749 216.384C210.494 215.682 210.207 214.949 210.016 214.152C209.792 213.355 209.537 212.527 209.346 211.634C209.187 210.742 208.964 209.849 208.804 208.925C208.613 208.001 208.517 207.044 208.39 206.088C208.294 205.132 208.167 204.176 208.103 203.251C208.039 202.295 208.007 201.371 207.976 200.478C207.912 199.586 207.976 198.725 207.976 197.896C207.976 197.609 207.976 197.354 207.976 197.099C208.454 196.972 208.9 196.844 209.346 196.717C209.378 197.067 209.442 197.45 209.474 197.832C209.569 198.629 209.665 199.49 209.761 200.382C209.856 201.243 209.984 202.167 210.079 203.092C210.143 204.016 210.302 204.941 210.43 205.865C210.526 206.789 210.621 207.745 210.78 208.67C210.94 209.562 211.004 210.487 211.131 211.347C211.291 212.208 211.418 213.037 211.514 213.865C211.641 214.662 211.769 215.427 211.896 216.097V216.033Z" fill="#7399E6"/>
<path d="M198.038 203.156C198.165 204.08 198.229 205.037 198.42 205.929C198.579 206.822 198.675 207.746 198.803 208.607C198.962 209.467 199.089 210.328 199.217 211.125C199.344 211.922 199.504 212.655 199.631 213.356C199.759 214.057 199.886 214.695 199.982 215.268C200.109 215.842 200.237 216.32 200.333 216.735C200.492 217.563 200.588 218.01 200.588 218.01C200.588 218.01 200.333 217.595 199.95 216.862C199.759 216.48 199.536 216.033 199.281 215.523C199.058 214.982 198.803 214.376 198.548 213.707C198.293 213.037 197.974 212.272 197.783 211.475C197.559 210.678 197.304 209.85 197.081 208.957C196.89 208.097 196.699 207.172 196.508 206.248C196.316 205.324 196.189 204.367 196.061 203.411C195.966 202.455 195.806 201.499 195.743 200.574C195.743 200.447 195.743 200.351 195.743 200.224C196.38 200.064 197.018 199.905 197.655 199.777C197.655 199.969 197.719 200.16 197.719 200.383C197.783 201.307 197.974 202.232 198.101 203.156H198.038Z" fill="#7399E6"/>
<path d="M174.252 204.331C174.348 204.841 174.443 205.319 174.539 205.797C174.666 206.594 174.858 207.327 175.017 208.028C175.176 208.698 175.272 209.367 175.431 209.909C175.591 210.483 175.686 210.961 175.814 211.375C176.005 212.204 176.101 212.682 176.101 212.682C176.101 212.682 175.846 212.268 175.431 211.534C175.24 211.152 174.985 210.706 174.73 210.196C174.475 209.686 174.22 209.048 173.933 208.379C173.678 207.709 173.328 206.976 173.105 206.179C172.945 205.638 172.754 205.096 172.595 204.522C173.136 204.458 173.71 204.363 174.284 204.299L174.252 204.331Z" fill="#7399E6"/>
<path d="M180.825 211.541C180.57 211.031 180.315 210.393 180.06 209.724C179.805 209.055 179.454 208.321 179.263 207.525C179.008 206.728 178.753 205.899 178.498 205.038C178.402 204.624 178.306 204.178 178.211 203.763C178.816 203.668 179.422 203.572 180.06 203.477C180.123 203.859 180.187 204.273 180.251 204.656C180.442 205.517 180.57 206.345 180.729 207.142C180.856 207.939 181.048 208.672 181.175 209.373C181.335 210.043 181.43 210.712 181.558 211.254C181.717 211.828 181.813 212.306 181.908 212.72C182.1 213.549 182.195 214.027 182.195 214.027C182.195 214.027 181.94 213.613 181.526 212.88C181.335 212.497 181.08 212.083 180.825 211.541Z" fill="#7399E6"/>
<path d="M185.847 202.426C185.911 202.713 185.943 203 185.974 203.286C186.134 204.179 186.229 205.103 186.389 205.964C186.58 206.825 186.708 207.653 186.835 208.45C186.963 209.247 187.122 209.98 187.281 210.681C187.441 211.383 187.536 212.02 187.664 212.594C187.823 213.168 187.919 213.646 188.015 214.06C188.206 214.889 188.269 215.367 188.269 215.367C188.269 215.367 188.015 214.953 187.632 214.219C187.441 213.837 187.186 213.391 186.931 212.881C186.676 212.371 186.421 211.733 186.166 211.064C185.911 210.394 185.592 209.661 185.369 208.865C185.146 208.068 184.859 207.239 184.636 206.378C184.445 205.518 184.221 204.593 184.03 203.669C183.966 203.382 183.934 203.127 183.871 202.84C184.508 202.713 185.146 202.585 185.815 202.458L185.847 202.426Z" fill="#7399E6"/>
<path d="M71.6997 141.616C71.6041 145.154 69.2772 147.991 66.4722 147.927L36.9243 147.226C34.1193 147.162 31.92 144.23 32.0156 140.692L33.4181 81.9782C33.5137 78.4401 35.8405 75.6033 38.6455 75.6671L68.1934 76.3683C70.9984 76.4321 73.1977 79.3645 73.1021 82.9026L71.6997 141.616Z" fill="#800000"/>
<path d="M41.7026 90.9584C41.7345 89.3009 40.7145 87.9303 39.4077 87.8984C38.1008 87.8984 37.017 89.1734 36.9532 90.8309C36.9214 92.4883 37.9414 93.859 39.2482 93.8909C40.5551 93.8909 41.6389 92.6159 41.7026 90.9584Z" fill="#4D0000"/>
<path d="M50.844 91.1849C50.8758 89.5275 49.8558 88.1569 48.549 88.125C47.2421 88.125 46.1583 89.3999 46.1265 91.0574C46.0946 92.7149 47.1146 94.0856 48.4214 94.1175C49.7283 94.1493 50.8121 92.8424 50.844 91.1849Z" fill="#4D0000"/>
<path d="M60.0086 91.4077C60.0405 89.7502 59.0205 88.3795 57.7136 88.3477C56.4068 88.3477 55.323 89.6227 55.2911 91.2802C55.2593 92.9377 56.2793 94.3083 57.5861 94.3401C58.893 94.3401 59.9768 93.0652 60.0086 91.4077Z" fill="#4D0000"/>
<path d="M69.1875 91.623C69.2194 89.9655 68.1994 88.5949 66.8925 88.5631C65.5857 88.5312 64.502 89.8381 64.4382 91.4956C64.4064 93.1531 65.4263 94.5237 66.7331 94.5555C68.04 94.5555 69.1238 93.2805 69.1556 91.623H69.1875Z" fill="#4D0000"/>
<path d="M41.3508 104.667C41.3827 103.01 40.3627 101.639 39.0558 101.607C37.749 101.607 36.6653 102.882 36.6334 104.54C36.6015 106.197 37.6215 107.568 38.9284 107.6C40.2353 107.6 41.3189 106.325 41.3508 104.667Z" fill="#4D0000"/>
<path d="M50.5298 104.894C50.5617 103.236 49.5417 101.866 48.2348 101.834C46.928 101.834 45.8443 103.109 45.7805 104.767C45.7486 106.424 46.7686 107.795 48.0755 107.826C49.3824 107.826 50.4661 106.551 50.5298 104.894Z" fill="#4D0000"/>
<path d="M59.6813 105.115C59.7132 103.458 58.6932 102.087 57.3863 102.055C56.0795 102.023 54.9958 103.33 54.932 104.988C54.9001 106.645 55.9201 108.016 57.227 108.048C58.5339 108.048 59.6176 106.773 59.6495 105.115H59.6813Z" fill="#4D0000"/>
<path d="M68.8227 105.337C68.8546 103.68 67.8346 102.309 66.5278 102.277C65.2209 102.277 64.1372 103.584 64.1053 105.21C64.0735 106.867 65.0935 108.238 66.4003 108.27C67.7072 108.27 68.7909 106.995 68.8227 105.337Z" fill="#4D0000"/>
<path d="M41.0398 118.369C41.0717 116.711 40.0517 115.34 38.7448 115.309C37.4379 115.309 36.3543 116.584 36.3224 118.241C36.2905 119.899 37.3105 121.269 38.6174 121.301C39.9242 121.301 41.0079 120.026 41.0717 118.369H41.0398Z" fill="#4D0000"/>
<path d="M50.2131 118.589C50.245 116.932 49.225 115.561 47.9181 115.529C46.6113 115.529 45.5276 116.836 45.4957 118.462C45.4638 120.119 46.4838 121.49 47.7907 121.522C49.0976 121.522 50.1812 120.247 50.2131 118.589Z" fill="#4D0000"/>
<path d="M59.3602 118.812C59.3921 117.155 58.3721 115.784 57.0652 115.752C55.7584 115.752 54.6747 117.027 54.6428 118.684C54.6109 120.342 55.6309 121.713 56.9378 121.744C58.2447 121.744 59.3283 120.469 59.3602 118.812Z" fill="#4D0000"/>
<path d="M68.5074 119.038C68.5393 117.381 67.5193 116.01 66.2124 115.979C64.9056 115.979 63.8218 117.254 63.7899 118.911C63.758 120.569 64.778 121.939 66.0849 121.971C67.3918 121.971 68.4755 120.696 68.5392 119.038H68.5074Z" fill="#4D0000"/>
<path d="M40.7158 132.078C40.7477 130.42 39.7277 129.049 38.4208 129.018C37.1139 129.018 36.0302 130.293 35.9983 131.95C35.9664 133.608 36.9864 134.978 38.2933 135.01C39.6001 135.01 40.6839 133.735 40.7158 132.078Z" fill="#4D0000"/>
<path d="M49.8641 132.298C49.896 130.641 48.876 129.27 47.5692 129.238C46.2623 129.238 45.1785 130.513 45.1147 132.171C45.0829 133.828 46.1029 135.199 47.4097 135.231C48.7166 135.231 49.8004 133.956 49.8322 132.298H49.8641Z" fill="#4D0000"/>
<path d="M59.0154 132.527C59.0473 130.869 58.0273 129.499 56.7204 129.467C55.4136 129.467 54.3299 130.742 54.2661 132.399C54.2342 134.057 55.2542 135.427 56.5611 135.459C57.868 135.459 58.9517 134.184 59.0154 132.527Z" fill="#4D0000"/>
<path d="M68.192 132.748C68.2239 131.09 67.2039 129.719 65.897 129.688C64.5901 129.688 63.5064 130.963 63.4745 132.62C63.4426 134.278 64.4626 135.648 65.7695 135.68C67.0763 135.712 68.1601 134.405 68.192 132.748Z" fill="#4D0000"/>
<path d="M238.623 128.423C231.579 137.603 218.414 139.324 209.234 132.28L207.386 130.877C198.206 123.833 196.485 110.669 203.529 101.489L215.801 85.5196C222.845 76.3397 236.009 74.6185 245.189 81.6628L247.038 83.0971C256.218 90.1414 257.939 103.306 250.895 112.486L238.623 128.455V128.423Z" fill="#4D0000"/>
<path d="M233.583 115.361C228.483 121.991 225.455 129.386 224.467 136.462C229.885 135.825 235.049 133.083 238.619 128.43L250.891 112.46C253.791 108.699 255.194 104.237 255.226 99.8379C247.384 102.228 239.607 107.552 233.583 115.393V115.361Z" fill="#800000"/>
<path d="M215.8 85.4977L203.528 101.467C199.958 106.121 198.619 111.826 199.416 117.213C206.014 114.44 212.357 109.595 217.457 102.965C223.482 95.124 226.605 86.2309 226.892 78.0391C222.621 79.2184 218.701 81.7046 215.8 85.4977Z" fill="#800000"/>
<path d="M254.563 94.4499C253.448 90.0831 250.898 86.0351 247.041 83.0707L245.192 81.6363C241.335 78.672 236.777 77.2694 232.251 77.3013C233.622 82.3375 236.299 86.7044 240.379 89.8282C244.459 92.9519 249.368 94.4181 254.563 94.4499Z" fill="#800000"/>
<path fill-rule="evenodd" clip-rule="evenodd" d="M133.469 105.461C133.567 105.271 133.641 105.069 133.69 104.861C133.74 104.669 133.761 104.47 133.755 104.272C133.751 104.113 133.705 103.958 133.623 103.819C133.542 103.693 133.423 103.593 133.283 103.531C133.136 103.465 132.95 103.432 132.726 103.432C132.523 103.429 132.322 103.462 132.132 103.531C131.955 103.598 131.792 103.697 131.654 103.823C131.509 103.955 131.387 104.109 131.293 104.279C131.189 104.466 131.113 104.666 131.064 104.872C131.013 105.067 130.991 105.267 130.996 105.468C130.999 105.627 131.041 105.782 131.121 105.921C131.2 106.046 131.317 106.145 131.457 106.202C131.604 106.266 131.79 106.298 132.014 106.298C132.228 106.302 132.441 106.268 132.643 106.199C132.822 106.136 132.986 106.039 133.125 105.914C133.266 105.783 133.383 105.63 133.469 105.461ZM132.911 104.57C132.902 104.669 132.886 104.768 132.864 104.865L132.858 104.861C132.834 104.96 132.803 105.058 132.765 105.153C132.731 105.239 132.685 105.321 132.629 105.396C132.58 105.464 132.517 105.521 132.443 105.564C132.37 105.606 132.286 105.628 132.201 105.626C132.123 105.63 132.045 105.611 131.979 105.571C131.923 105.532 131.883 105.477 131.865 105.414C131.841 105.333 131.835 105.25 131.843 105.167C131.853 105.055 131.873 104.946 131.9 104.837C131.925 104.741 131.96 104.647 132.004 104.556C132.041 104.472 132.089 104.393 132.147 104.32C132.199 104.255 132.263 104.2 132.336 104.159C132.404 104.12 132.482 104.1 132.561 104.1C132.641 104.096 132.72 104.118 132.786 104.162C132.839 104.205 132.877 104.262 132.893 104.327C132.913 104.406 132.92 104.489 132.911 104.57ZM129.097 106.261C129.128 106.265 129.159 106.259 129.186 106.244V106.248C129.202 106.229 129.212 106.207 129.215 106.183L129.458 105.188H130.548C130.597 105.188 130.633 105.158 130.647 105.096L130.747 104.684C130.758 104.639 130.762 104.612 130.755 104.602C130.747 104.592 130.726 104.585 130.694 104.585H129.604L129.665 104.338C129.672 104.311 129.682 104.284 129.694 104.259C129.705 104.233 129.721 104.208 129.74 104.187C129.766 104.163 129.796 104.144 129.83 104.133C129.874 104.117 129.922 104.11 129.969 104.112H130.991C131.015 104.114 131.039 104.108 131.059 104.095C131.076 104.076 131.087 104.051 131.091 104.026L131.198 103.577C131.213 103.532 131.213 103.505 131.205 103.495C131.198 103.485 131.176 103.481 131.145 103.481H129.887C129.755 103.479 129.624 103.499 129.501 103.543C129.394 103.581 129.296 103.638 129.211 103.711C129.133 103.781 129.067 103.863 129.018 103.954C128.969 104.043 128.932 104.138 128.907 104.235L128.432 106.183C128.418 106.234 128.443 106.261 128.507 106.261H129.097ZM139.046 104.742C139.111 104.77 139.168 104.811 139.214 104.862C139.256 104.911 139.287 104.967 139.307 105.027C139.327 105.087 139.337 105.149 139.336 105.212C139.336 105.277 139.327 105.341 139.311 105.404C139.282 105.529 139.227 105.648 139.151 105.754C139.075 105.858 138.98 105.95 138.872 106.025C138.761 106.101 138.638 106.16 138.507 106.199C138.373 106.241 138.233 106.262 138.093 106.261H137.013C136.899 106.261 136.831 106.241 136.81 106.199C136.788 106.158 136.788 106.093 136.81 105.997L137.36 103.741C137.374 103.669 137.407 103.602 137.456 103.546C137.499 103.501 137.578 103.481 137.692 103.481H138.768C138.883 103.48 138.997 103.494 139.108 103.522C139.2 103.544 139.286 103.588 139.358 103.649C139.425 103.709 139.472 103.787 139.494 103.872C139.518 103.98 139.514 104.091 139.483 104.198C139.455 104.309 139.399 104.412 139.323 104.499C139.247 104.592 139.154 104.669 139.048 104.726V104.742H139.046ZM137.957 104.502H138.389C138.445 104.501 138.5 104.487 138.549 104.461C138.603 104.433 138.639 104.382 138.657 104.307C138.674 104.232 138.664 104.201 138.635 104.167C138.598 104.132 138.547 104.114 138.496 104.118H138.049L137.957 104.502ZM138.514 105.356C138.535 105.293 138.525 105.224 138.489 105.167C138.453 105.119 138.389 105.096 138.299 105.096H137.813L137.684 105.613H138.17C138.22 105.614 138.268 105.606 138.313 105.589C138.351 105.573 138.384 105.551 138.413 105.524C138.439 105.5 138.461 105.472 138.478 105.441C138.492 105.414 138.503 105.386 138.509 105.356L138.514 105.356ZM140.24 106.257H141.519L141.514 106.256C141.564 106.256 141.6 106.225 141.614 106.163L141.725 105.714C141.736 105.669 141.736 105.642 141.728 105.632C141.721 105.622 141.7 105.618 141.668 105.618H140.617L140.521 105.611C140.495 105.608 140.47 105.599 140.449 105.583C140.43 105.566 140.417 105.543 140.414 105.518C140.409 105.478 140.412 105.437 140.424 105.398L140.496 105.1H141.607C141.659 105.1 141.693 105.069 141.707 105.008L141.807 104.593C141.818 104.567 141.82 104.538 141.814 104.511C141.807 104.501 141.785 104.494 141.754 104.494H140.642L140.682 104.325C140.689 104.298 140.699 104.272 140.71 104.247C140.723 104.22 140.739 104.195 140.761 104.175C140.786 104.151 140.816 104.132 140.85 104.12C140.894 104.104 140.942 104.097 140.989 104.1H141.979C142.003 104.103 142.028 104.096 142.047 104.083C142.066 104.063 142.078 104.04 142.083 104.014L142.194 103.564C142.205 103.52 142.205 103.492 142.197 103.482C142.19 103.472 142.169 103.469 142.137 103.469H140.914C140.782 103.467 140.65 103.489 140.525 103.534C140.419 103.572 140.321 103.629 140.236 103.702C140.158 103.772 140.092 103.854 140.043 103.946C139.993 104.034 139.956 104.129 139.932 104.227L139.621 105.499C139.6 105.586 139.589 105.676 139.589 105.766C139.589 105.851 139.611 105.935 139.654 106.01C139.7 106.087 139.77 106.15 139.854 106.188C139.947 106.233 140.076 106.257 140.24 106.257ZM144.618 104.109H143.91L143.406 106.177C143.403 106.2 143.393 106.223 143.378 106.242C143.351 106.257 143.319 106.263 143.288 106.259H142.699C142.634 106.259 142.609 106.231 142.624 106.177L143.128 104.109H142.438C142.381 104.109 142.36 104.079 142.374 104.017L142.481 103.571C142.484 103.541 142.498 103.511 142.52 103.489C142.542 103.478 142.567 103.473 142.592 103.476H144.775C144.798 103.473 144.821 103.477 144.84 103.489C144.85 103.499 144.85 103.527 144.84 103.571L144.732 104.017C144.718 104.079 144.682 104.109 144.621 104.109L144.618 104.109ZM134.502 106.181L134.855 104.758V104.758H134.888L135.095 105.252L135.47 106.081C135.484 106.115 135.504 106.148 135.527 106.177C135.544 106.2 135.566 106.218 135.592 106.232C135.617 106.245 135.645 106.253 135.674 106.256L135.777 106.263H135.992C136.118 106.263 136.207 106.233 136.26 106.174C136.316 106.109 136.355 106.033 136.374 105.951L136.971 103.564C136.986 103.51 136.961 103.482 136.897 103.482H136.307C136.276 103.478 136.244 103.484 136.217 103.499C136.201 103.518 136.19 103.54 136.186 103.564L135.832 104.998H135.803L135.6 104.514L135.217 103.664C135.2 103.63 135.18 103.598 135.156 103.568C135.139 103.546 135.117 103.527 135.092 103.513C135.067 103.501 135.041 103.493 135.014 103.489L134.906 103.482H134.692C134.577 103.482 134.491 103.506 134.438 103.547C134.385 103.589 134.345 103.674 134.313 103.798L133.72 106.181C133.705 106.235 133.73 106.263 133.794 106.263H134.38C134.412 106.267 134.443 106.261 134.47 106.246C134.486 106.227 134.497 106.205 134.502 106.181Z" fill="white"/>
</svg>
