<svg viewBox="0 0 1313 216" fill="none" xmlns="http://www.w3.org/2000/svg">
<path d="M1168 142C1168 142 1163.37 142.497 1161.43 144.431C1159.5 146.365 1159 151 1159 151C1159 151 1158.5 146.365 1156.57 144.431C1154.63 142.497 1150 142 1150 142C1150 142 1154.63 141.503 1156.57 139.569C1158.5 137.635 1159 133 1159 133C1159 133 1159.5 137.635 1161.43 139.569C1163.37 141.503 1168 142 1168 142Z" fill="#0756E4"/>
<path d="M1193 170.5C1193 170.5 1190.17 170.803 1188.99 171.985C1187.8 173.168 1187.5 176 1187.5 176C1187.5 176 1187.2 173.168 1186.01 171.985C1184.83 170.803 1182 170.5 1182 170.5C1182 170.5 1184.83 170.197 1186.01 169.015C1187.2 167.832 1187.5 165 1187.5 165C1187.5 165 1187.8 167.832 1188.99 169.015C1190.17 170.197 1193 170.5 1193 170.5Z" fill="#0756E4"/>
<path d="M1131 170.5C1131 170.5 1128.17 170.803 1126.99 171.985C1125.8 173.168 1125.5 176 1125.5 176C1125.5 176 1125.2 173.168 1124.01 171.985C1122.83 170.803 1120 170.5 1120 170.5C1120 170.5 1122.83 170.197 1124.01 169.015C1125.2 167.832 1125.5 165 1125.5 165C1125.5 165 1125.8 167.832 1126.99 169.015C1128.17 170.197 1131 170.5 1131 170.5Z" fill="#0756E4"/>
<path d="M1230 84.5C1230 84.5 1227.17 84.8035 1225.99 85.9855C1224.8 87.1675 1224.5 90 1224.5 90C1224.5 90 1224.2 87.1675 1223.01 85.9855C1221.83 84.8035 1219 84.5 1219 84.5C1219 84.5 1221.83 84.1965 1223.01 83.0145C1224.2 81.8325 1224.5 79 1224.5 79C1224.5 79 1224.8 81.8325 1225.99 83.0145C1227.17 84.1965 1230 84.5 1230 84.5Z" fill="#0756E4"/>
<path d="M1092 79.5C1092 79.5 1089.17 79.8035 1087.99 80.9855C1086.8 82.1675 1086.5 85 1086.5 85C1086.5 85 1086.2 82.1675 1085.01 80.9855C1083.83 79.8035 1081 79.5 1081 79.5C1081 79.5 1083.83 79.1965 1085.01 78.0145C1086.2 76.8325 1086.5 74 1086.5 74C1086.5 74 1086.8 76.8325 1087.99 78.0145C1089.17 79.1965 1092 79.5 1092 79.5Z" fill="#0756E4"/>
<path d="M1075 82.5C1075 82.5 1073.71 82.6379 1073.18 83.1752C1072.64 83.7125 1072.5 85 1072.5 85C1072.5 85 1072.36 83.7125 1071.82 83.1752C1071.29 82.6379 1070 82.5 1070 82.5C1070 82.5 1071.29 82.3621 1071.82 81.8248C1072.36 81.2875 1072.5 80 1072.5 80C1072.5 80 1072.64 81.2875 1073.18 81.8248C1073.71 82.3621 1075 82.5 1075 82.5Z" fill="#0756E4"/>
<path d="M1150 79.5C1150 79.5 1148.71 79.6379 1148.18 80.1752C1147.64 80.7125 1147.5 82 1147.5 82C1147.5 82 1147.36 80.7125 1146.82 80.1752C1146.29 79.6379 1145 79.5 1145 79.5C1145 79.5 1146.29 79.3621 1146.82 78.8248C1147.36 78.2875 1147.5 77 1147.5 77C1147.5 77 1147.64 78.2875 1148.18 78.8248C1148.71 79.3621 1150 79.5 1150 79.5Z" fill="#0756E4"/>
<path d="M1243 76.5C1243 76.5 1241.71 76.6379 1241.18 77.1752C1240.64 77.7125 1240.5 79 1240.5 79C1240.5 79 1240.36 77.7125 1239.82 77.1752C1239.29 76.6379 1238 76.5 1238 76.5C1238 76.5 1239.29 76.3621 1239.82 75.8248C1240.36 75.2875 1240.5 74 1240.5 74C1240.5 74 1240.64 75.2875 1241.18 75.8248C1241.71 76.3621 1243 76.5 1243 76.5Z" fill="#0756E4"/>
<path d="M1260 2.5C1260 2.5 1258.71 2.63794 1258.18 3.17523C1257.64 3.71252 1257.5 5 1257.5 5C1257.5 5 1257.36 3.71252 1256.82 3.17523C1256.29 2.63794 1255 2.5 1255 2.5C1255 2.5 1256.29 2.36206 1256.82 1.82477C1257.36 1.28748 1257.5 -1.09278e-07 1257.5 -1.09278e-07C1257.5 -1.09278e-07 1257.64 1.28748 1258.18 1.82477C1258.71 2.36206 1260 2.5 1260 2.5Z" fill="#0756E4"/>
<path d="M1057 159.5C1057 159.5 1054.17 159.803 1052.99 160.985C1051.8 162.168 1051.5 165 1051.5 165C1051.5 165 1051.2 162.168 1050.01 160.985C1048.83 159.803 1046 159.5 1046 159.5C1046 159.5 1048.83 159.197 1050.01 158.015C1051.2 156.832 1051.5 154 1051.5 154C1051.5 154 1051.8 156.832 1052.99 158.015C1054.17 159.197 1057 159.5 1057 159.5Z" fill="#0756E4"/>
<path d="M1168 33C1168 33 1164.65 33.3862 1163.26 34.8906C1161.86 36.395 1161.5 40 1161.5 40C1161.5 40 1161.14 36.395 1159.74 34.8906C1158.35 33.3862 1155 33 1155 33C1155 33 1158.35 32.6138 1159.74 31.1094C1161.14 29.605 1161.5 26 1161.5 26C1161.5 26 1161.86 29.605 1163.26 31.1094C1164.65 32.6138 1168 33 1168 33Z" fill="#0756E4"/>
<path d="M1313 209C1313 209 1309.65 209.386 1308.26 210.891C1306.86 212.395 1306.5 216 1306.5 216C1306.5 216 1306.14 212.395 1304.74 210.891C1303.35 209.386 1300 209 1300 209C1300 209 1303.35 208.614 1304.74 207.109C1306.14 205.605 1306.5 202 1306.5 202C1306.5 202 1306.86 205.605 1308.26 207.109C1309.65 208.614 1313 209 1313 209Z" fill="#0756E4"/>
<path d="M122 142C122 142 117.365 142.497 115.431 144.431C113.497 146.365 113 151 113 151C113 151 112.503 146.365 110.569 144.431C108.635 142.497 104 142 104 142C104 142 108.635 141.503 110.569 139.569C112.503 137.635 113 133 113 133C113 133 113.497 137.635 115.431 139.569C117.365 141.503 122 142 122 142Z" fill="#0756E4"/>
<path d="M147 170.5C147 170.5 144.168 170.803 142.985 171.985C141.803 173.168 141.5 176 141.5 176C141.5 176 141.197 173.168 140.015 171.985C138.832 170.803 136 170.5 136 170.5C136 170.5 138.832 170.197 140.015 169.015C141.197 167.832 141.5 165 141.5 165C141.5 165 141.803 167.832 142.985 169.015C144.168 170.197 147 170.5 147 170.5Z" fill="#0756E4"/>
<path d="M85 170.5C85 170.5 82.1675 170.803 80.9855 171.985C79.8035 173.168 79.5 176 79.5 176C79.5 176 79.1965 173.168 78.0145 171.985C76.8325 170.803 74 170.5 74 170.5C74 170.5 76.8325 170.197 78.0145 169.015C79.1965 167.832 79.5 165 79.5 165C79.5 165 79.8035 167.832 80.9855 169.015C82.1675 170.197 85 170.5 85 170.5Z" fill="#0756E4"/>
<path d="M184 84.5C184 84.5 181.168 84.8035 179.985 85.9855C178.803 87.1675 178.5 90 178.5 90C178.5 90 178.197 87.1675 177.015 85.9855C175.832 84.8035 173 84.5 173 84.5C173 84.5 175.832 84.1965 177.015 83.0145C178.197 81.8325 178.5 79 178.5 79C178.5 79 178.803 81.8325 179.985 83.0145C181.168 84.1965 184 84.5 184 84.5Z" fill="#0756E4"/>
<path d="M46 79.5C46 79.5 43.1675 79.8035 41.9855 80.9855C40.8035 82.1675 40.5 85 40.5 85C40.5 85 40.1965 82.1675 39.0145 80.9855C37.8325 79.8035 35 79.5 35 79.5C35 79.5 37.8325 79.1965 39.0145 78.0145C40.1965 76.8325 40.5 74 40.5 74C40.5 74 40.8035 76.8325 41.9855 78.0145C43.1675 79.1965 46 79.5 46 79.5Z" fill="#0756E4"/>
<path d="M29 82.5C29 82.5 27.7125 82.6379 27.1752 83.1752C26.6379 83.7125 26.5 85 26.5 85C26.5 85 26.3621 83.7125 25.8248 83.1752C25.2875 82.6379 24 82.5 24 82.5C24 82.5 25.2875 82.3621 25.8248 81.8248C26.3621 81.2875 26.5 80 26.5 80C26.5 80 26.6379 81.2875 27.1752 81.8248C27.7125 82.3621 29 82.5 29 82.5Z" fill="#0756E4"/>
<path d="M104 79.5C104 79.5 102.713 79.6379 102.175 80.1752C101.638 80.7125 101.5 82 101.5 82C101.5 82 101.362 80.7125 100.825 80.1752C100.287 79.6379 99 79.5 99 79.5C99 79.5 100.287 79.3621 100.825 78.8248C101.362 78.2875 101.5 77 101.5 77C101.5 77 101.638 78.2875 102.175 78.8248C102.713 79.3621 104 79.5 104 79.5Z" fill="#0756E4"/>
<path d="M197 76.5C197 76.5 195.713 76.6379 195.175 77.1752C194.638 77.7125 194.5 79 194.5 79C194.5 79 194.362 77.7125 193.825 77.1752C193.287 76.6379 192 76.5 192 76.5C192 76.5 193.287 76.3621 193.825 75.8248C194.362 75.2875 194.5 74 194.5 74C194.5 74 194.638 75.2875 195.175 75.8248C195.713 76.3621 197 76.5 197 76.5Z" fill="#0756E4"/>
<path d="M214 2.5C214 2.5 212.713 2.63794 212.175 3.17523C211.638 3.71252 211.5 5 211.5 5C211.5 5 211.362 3.71252 210.825 3.17523C210.287 2.63794 209 2.5 209 2.5C209 2.5 210.287 2.36206 210.825 1.82477C211.362 1.28748 211.5 -1.09278e-07 211.5 -1.09278e-07C211.5 -1.09278e-07 211.638 1.28748 212.175 1.82477C212.713 2.36206 214 2.5 214 2.5Z" fill="#0756E4"/>
<path d="M11 159.5C11 159.5 8.16753 159.803 6.9855 160.985C5.80346 162.168 5.5 165 5.5 165C5.5 165 5.19654 162.168 4.0145 160.985C2.83247 159.803 7.13262e-07 159.5 7.13262e-07 159.5C7.13262e-07 159.5 2.83247 159.197 4.0145 158.015C5.19654 156.832 5.5 154 5.5 154C5.5 154 5.80346 156.832 6.9855 158.015C8.16753 159.197 11 159.5 11 159.5Z" fill="#0756E4"/>
<path d="M122 33C122 33 118.653 33.3862 117.256 34.8906C115.859 36.395 115.5 40 115.5 40C115.5 40 115.141 36.395 113.744 34.8906C112.347 33.3862 109 33 109 33C109 33 112.347 32.6138 113.744 31.1094C115.141 29.605 115.5 26 115.5 26C115.5 26 115.859 29.605 117.256 31.1094C118.653 32.6138 122 33 122 33Z" fill="#0756E4"/>
</svg>
