<svg viewBox="0 0 327 165" fill="none" xmlns="http://www.w3.org/2000/svg">
<path d="M187 84.5C187 84.5 184.168 84.8035 182.985 85.9855C181.803 87.1675 181.5 90 181.5 90C181.5 90 181.197 87.1675 180.015 85.9855C178.832 84.8035 176 84.5 176 84.5C176 84.5 178.832 84.1965 180.015 83.0145C181.197 81.8325 181.5 79 181.5 79C181.5 79 181.803 81.8325 182.985 83.0145C184.168 84.1965 187 84.5 187 84.5Z" fill="#0756E4"/>
<path d="M49 79.5C49 79.5 46.1675 79.8035 44.9855 80.9855C43.8035 82.1675 43.5 85 43.5 85C43.5 85 43.1965 82.1675 42.0145 80.9855C40.8325 79.8035 38 79.5 38 79.5C38 79.5 40.8325 79.1965 42.0145 78.0145C43.1965 76.8325 43.5 74 43.5 74C43.5 74 43.8035 76.8325 44.9855 78.0145C46.1675 79.1965 49 79.5 49 79.5Z" fill="#0756E4"/>
<path d="M32 82.5C32 82.5 30.7125 82.6379 30.1752 83.1752C29.6379 83.7125 29.5 85 29.5 85C29.5 85 29.3621 83.7125 28.8248 83.1752C28.2875 82.6379 27 82.5 27 82.5C27 82.5 28.2875 82.3621 28.8248 81.8248C29.3621 81.2875 29.5 80 29.5 80C29.5 80 29.6379 81.2875 30.1752 81.8248C30.7125 82.3621 32 82.5 32 82.5Z" fill="#0756E4"/>
<path d="M107 79.5C107 79.5 105.713 79.6379 105.175 80.1752C104.638 80.7125 104.5 82 104.5 82C104.5 82 104.362 80.7125 103.825 80.1752C103.287 79.6379 102 79.5 102 79.5C102 79.5 103.287 79.3621 103.825 78.8248C104.362 78.2875 104.5 77 104.5 77C104.5 77 104.638 78.2875 105.175 78.8248C105.713 79.3621 107 79.5 107 79.5Z" fill="#0756E4"/>
<path d="M200 76.5C200 76.5 198.713 76.6379 198.175 77.1752C197.638 77.7125 197.5 79 197.5 79C197.5 79 197.362 77.7125 196.825 77.1752C196.287 76.6379 195 76.5 195 76.5C195 76.5 196.287 76.3621 196.825 75.8248C197.362 75.2875 197.5 74 197.5 74C197.5 74 197.638 75.2875 198.175 75.8248C198.713 76.3621 200 76.5 200 76.5Z" fill="#0756E4"/>
<path d="M217 2.5C217 2.5 215.713 2.63794 215.175 3.17523C214.638 3.71252 214.5 5 214.5 5C214.5 5 214.362 3.71252 213.825 3.17523C213.287 2.63794 212 2.5 212 2.5C212 2.5 213.287 2.36206 213.825 1.82477C214.362 1.28748 214.5 -1.09278e-07 214.5 -1.09278e-07C214.5 -1.09278e-07 214.638 1.28748 215.175 1.82477C215.713 2.36206 217 2.5 217 2.5Z" fill="#0756E4"/>
<path d="M14 159.5C14 159.5 11.1675 159.803 9.9855 160.985C8.80346 162.168 8.5 165 8.5 165C8.5 165 8.19654 162.168 7.0145 160.985C5.83247 159.803 3 159.5 3 159.5C3 159.5 5.83247 159.197 7.0145 158.015C8.19654 156.832 8.5 154 8.5 154C8.5 154 8.80346 156.832 9.9855 158.015C11.1675 159.197 14 159.5 14 159.5Z" fill="#0756E4"/>
<path d="M125 33C125 33 121.653 33.3862 120.256 34.8906C118.859 36.395 118.5 40 118.5 40C118.5 40 118.141 36.395 116.744 34.8906C115.347 33.3862 112 33 112 33C112 33 115.347 32.6138 116.744 31.1094C118.141 29.605 118.5 26 118.5 26C118.5 26 118.859 29.605 120.256 31.1094C121.653 32.6138 125 33 125 33Z" fill="#0756E4"/>
<path d="M327 114C327 114 323.653 114.386 322.256 115.891C320.859 117.395 320.5 121 320.5 121C320.5 121 320.141 117.395 318.744 115.891C317.347 114.386 314 114 314 114C314 114 317.347 113.614 318.744 112.109C320.141 110.605 320.5 107 320.5 107C320.5 107 320.859 110.605 322.256 112.109C323.653 113.614 327 114 327 114Z" fill="#0756E4"/>
<path d="M220 48.5C220 48.5 217.168 48.8035 215.985 49.9855C214.803 51.1675 214.5 54 214.5 54C214.5 54 214.197 51.1675 213.015 49.9855C211.832 48.8035 209 48.5 209 48.5C209 48.5 211.832 48.1965 213.015 47.0145C214.197 45.8325 214.5 43 214.5 43C214.5 43 214.803 45.8325 215.985 47.0145C217.168 48.1965 220 48.5 220 48.5Z" fill="#0756E4"/>
<path d="M276 60C276 60 271.365 60.4966 269.431 62.4308C267.497 64.3651 267 69 267 69C267 69 266.503 64.3651 264.569 62.4308C262.635 60.4966 258 60 258 60C258 60 262.635 59.5034 264.569 57.5692C266.503 55.6349 267 51 267 51C267 51 267.497 55.6349 269.431 57.5692C271.365 59.5034 276 60 276 60Z" fill="#0756E4"/>
<path d="M11 42.5C11 42.5 8.16753 42.8035 6.9855 43.9855C5.80346 45.1675 5.5 48 5.5 48C5.5 48 5.19654 45.1675 4.0145 43.9855C2.83247 42.8035 7.13262e-07 42.5 7.13262e-07 42.5C7.13262e-07 42.5 2.83247 42.1965 4.0145 41.0145C5.19654 39.8325 5.5 37 5.5 37C5.5 37 5.80346 39.8325 6.9855 41.0145C8.16753 42.1965 11 42.5 11 42.5Z" fill="#0756E4"/>
</svg>
