<svg viewBox="0 0 390 223" fill="none" xmlns="http://www.w3.org/2000/svg">
<rect x="0.00134277" y="0.869141" width="383.037" height="179.776" rx="19" fill="#E80024"/>
<path d="M138.947 184.309L147.404 209.005H238.849L251.819 184.309H138.947Z" fill="#6E88D4"/>
<path d="M291.89 202.639C291.89 213.89 282.77 222.998 271.503 222.998C260.237 222.998 251.117 213.89 251.117 202.639C251.117 191.387 260.237 182.279 271.503 182.279C282.77 182.279 291.89 191.387 291.89 202.639Z" fill="#2238B3"/>
<path d="M284.82 202.64C284.82 209.983 278.856 215.939 271.503 215.939C264.149 215.939 258.185 209.983 258.185 202.64C258.185 195.296 264.149 189.34 271.503 189.34C278.856 189.34 284.82 195.296 284.82 202.64Z" fill="#4D62A0"/>
<path d="M358.161 202.639C358.161 213.89 349.041 222.998 337.775 222.998C326.508 222.998 317.388 213.89 317.388 202.639C317.388 191.387 326.508 182.279 337.775 182.279C349.041 182.279 358.161 191.387 358.161 202.639Z" fill="#2238B3"/>
<path d="M351.127 202.64C351.127 209.983 345.162 215.939 337.809 215.939C330.456 215.939 324.492 209.983 324.492 202.64C324.492 195.296 330.456 189.34 337.809 189.34C345.162 189.34 351.127 195.296 351.127 202.64Z" fill="#4D62A0"/>
<path d="M316.033 184.641H293.031V206.613H316.033V184.641Z" fill="#4D62A0"/>
<path d="M336.199 210.004H269.674C265.445 210.004 262.036 206.6 262.036 202.377C262.036 198.154 265.445 194.75 269.674 194.75H336.199C340.427 194.75 343.836 198.154 343.836 202.377C343.836 206.6 340.427 210.004 336.199 210.004Z" fill="#738BD3"/>
<path d="M73.4134 202.639C73.4134 213.89 64.2931 222.998 53.0267 222.998C41.7604 222.998 32.64 213.89 32.64 202.639C32.64 191.387 41.7604 182.279 53.0267 182.279C64.2931 182.279 73.4134 191.387 73.4134 202.639Z" fill="#2238B3"/>
<path d="M66.3436 202.64C66.3436 209.983 60.3791 215.939 53.026 215.939C45.6729 215.939 39.7084 209.983 39.7084 202.64C39.7084 195.296 45.6729 189.34 53.026 189.34C60.3791 189.34 66.3436 195.296 66.3436 202.64Z" fill="#4D62A0"/>
<path d="M139.685 202.639C139.685 213.89 130.565 222.998 119.298 222.998C108.032 222.998 98.9115 213.89 98.9115 202.639C98.9115 191.387 108.032 182.279 119.298 182.279C130.565 182.279 139.685 191.387 139.685 202.639Z" fill="#2238B3"/>
<path d="M132.65 202.64C132.65 209.983 126.686 215.939 119.333 215.939C111.98 215.939 106.015 209.983 106.015 202.64C106.015 195.296 111.98 189.34 119.333 189.34C126.686 189.34 132.65 195.296 132.65 202.64Z" fill="#4D62A0"/>
<path d="M98.0095 184.641H74.0072V206.613H98.0095V184.641Z" fill="#4D62A0"/>
<path d="M117.722 210.004H51.1971C46.9682 210.004 43.5599 206.6 43.5599 202.377C43.5599 198.154 46.9682 194.75 51.1971 194.75H117.722C121.951 194.75 125.359 198.154 125.359 202.377C125.359 206.6 121.951 210.004 117.722 210.004Z" fill="#738BD3"/>
<path d="M89.3133 16.7246H23.0724C20.4928 16.7246 18.4017 18.8129 18.4017 21.3889V59.618C18.4017 62.194 20.4928 64.2824 23.0724 64.2824H89.3133C91.8929 64.2824 93.984 62.194 93.984 59.618V21.3889C93.984 18.8129 91.8929 16.7246 89.3133 16.7246Z" fill="#2238B3"/>
<path d="M178.938 16.7246H112.697C110.118 16.7246 108.027 18.8129 108.027 21.3889V59.618C108.027 62.194 110.118 64.2824 112.697 64.2824H178.938C181.518 64.2824 183.609 62.194 183.609 59.618V21.3889C183.609 18.8129 181.518 16.7246 178.938 16.7246Z" fill="#2238B3"/>
<path d="M268.534 16.7246H202.293C199.714 16.7246 197.622 18.8129 197.622 21.3889V59.618C197.622 62.194 199.714 64.2824 202.293 64.2824H268.534C271.114 64.2824 273.205 62.194 273.205 59.618V21.3889C273.205 18.8129 271.114 16.7246 268.534 16.7246Z" fill="#2238B3"/>
<path d="M358.159 16.7246H291.918C289.339 16.7246 287.247 18.8129 287.247 21.3889V59.618C287.247 62.194 289.339 64.2824 291.918 64.2824H358.159C360.739 64.2824 362.83 62.194 362.83 59.618V21.3889C362.83 18.8129 360.739 16.7246 358.159 16.7246Z" fill="#2238B3"/>
<path opacity="0.1" d="M52.7372 16.7249L18.4017 51.0144V59.5868C18.4017 62.1711 20.4846 64.2511 23.0724 64.2511H34.0862L81.7078 16.6934H52.7372V16.7249Z" fill="white"/>
<path opacity="0.1" d="M37.463 16.7246H23.0724C20.4846 16.7246 18.4017 18.8046 18.4017 21.3889V35.7603L37.463 16.7246Z" fill="white"/>
<path opacity="0.1" d="M235.24 16.7246H206.238L197.622 25.3284V54.2917L235.24 16.7246Z" fill="white"/>
<path opacity="0.1" d="M183.611 21.4203C183.611 18.836 181.528 16.7559 178.94 16.7559H132.991L108.029 41.6851V59.6493C108.029 62.2336 110.112 64.3137 112.699 64.3137H143.342L183.611 24.0992V21.4203Z" fill="white"/>
<path opacity="0.1" d="M183.613 59.6186V39.3223L158.619 64.2831H178.942C181.53 64.2831 183.613 62.203 183.613 59.6186Z" fill="white"/>
<path opacity="0.1" d="M93.9834 55.6777L85.3373 64.3132H89.2817C91.8692 64.3132 93.9519 62.2331 93.9519 59.6488V55.7093L93.9834 55.6777Z" fill="white"/>
<path opacity="0.1" d="M389.971 16.7249H381.545C378.957 16.7249 376.874 18.8049 376.874 21.3892V29.8041L390.003 16.6934L389.971 16.7249Z" fill="white"/>
<path opacity="0.1" d="M291.92 16.7246C289.332 16.7246 287.249 18.8046 287.249 21.3889V59.618C287.249 62.2023 289.332 64.2824 291.92 64.2824H298.074L345.696 16.7246H291.92Z" fill="white"/>
<path opacity="0.1" d="M362.83 43.8293V21.4213C362.83 19.6564 361.82 18.1436 360.4 17.3242L313.378 64.2832H342.349L362.83 43.8293Z" fill="white"/>
<path opacity="0.1" d="M273.235 31.2227L240.099 64.3146H268.533C271.121 64.3146 273.204 62.2345 273.204 59.6501V31.2541L273.235 31.2227Z" fill="white"/>
</svg>
