<svg viewBox="0 0 680 222" fill="none" xmlns="http://www.w3.org/2000/svg">
<path d="M605.451 180.779H581.705V205.364H605.451V180.779Z" fill="#4D62A0"/>
<path d="M580.91 201.374C580.91 212.772 571.699 222 560.319 222C548.94 222 539.729 212.772 539.729 201.374C539.729 189.975 548.94 180.748 560.319 180.748C571.699 180.748 580.91 189.975 580.91 201.374Z" fill="#0B1E8D"/>
<path d="M573.771 201.374C573.771 208.814 567.747 214.848 560.32 214.848C552.893 214.848 546.869 208.814 546.869 201.374C546.869 193.935 552.893 187.9 560.32 187.9C567.747 187.9 573.771 193.935 573.771 201.374Z" fill="#4D62A0"/>
<path d="M647.844 201.374C647.844 212.772 638.632 222 627.253 222C615.874 222 606.662 212.772 606.662 201.374C606.662 189.975 615.874 180.748 627.253 180.748C638.632 180.748 647.844 189.975 647.844 201.374Z" fill="#0B1E8D"/>
<path d="M640.74 201.374C640.74 208.814 634.716 214.848 627.289 214.848C619.862 214.848 613.838 208.814 613.838 201.374C613.838 193.935 619.862 187.9 627.289 187.9C634.716 187.9 640.74 193.935 640.74 201.374Z" fill="#4D62A0"/>
<path d="M625.661 209.848H558.47C554.198 209.848 550.756 206.4 550.756 202.121C550.756 197.843 554.198 194.395 558.47 194.395H625.661C629.932 194.395 633.374 197.843 633.374 202.121C633.374 206.4 629.932 209.848 625.661 209.848Z" fill="#738BD3"/>
<path d="M192.873 180.779H169.127V205.364H192.873V180.779Z" fill="#4D62A0"/>
<path d="M168.328 201.374C168.328 212.772 159.117 222 147.737 222C136.358 222 127.146 212.772 127.146 201.374C127.146 189.975 136.358 180.748 147.737 180.748C159.117 180.748 168.328 189.975 168.328 201.374Z" fill="#0B1E8D"/>
<path d="M161.189 201.374C161.189 208.814 155.165 214.848 147.738 214.848C140.311 214.848 134.287 208.814 134.287 201.374C134.287 193.935 140.311 187.9 147.738 187.9C155.165 187.9 161.189 193.935 161.189 201.374Z" fill="#4D62A0"/>
<path d="M235.266 201.374C235.266 212.772 226.054 222 214.675 222C203.296 222 194.084 212.772 194.084 201.374C194.084 189.975 203.296 180.748 214.675 180.748C226.054 180.748 235.266 189.975 235.266 201.374Z" fill="#0B1E8D"/>
<path d="M228.158 201.374C228.158 208.814 222.134 214.848 214.707 214.848C207.28 214.848 201.256 208.814 201.256 201.374C201.256 193.935 207.28 187.9 214.707 187.9C222.134 187.9 228.158 193.935 228.158 201.374Z" fill="#4D62A0"/>
<path d="M213.079 209.848H145.887C141.616 209.848 138.174 206.4 138.174 202.121C138.174 197.843 141.616 194.395 145.887 194.395H213.079C217.35 194.395 220.792 197.843 220.792 202.121C220.792 206.4 217.35 209.848 213.079 209.848Z" fill="#738BD3"/>
<path d="M50.7092 180.779L25.3691 207.823H108.784L121.917 180.779H50.7092Z" fill="#6E88D4"/>
<path d="M239.564 180.779L248.107 207.823H527.338L540.439 180.779H239.564Z" fill="#6E88D4"/>
<path d="M654.8 181.118H44.8271C27.4606 181.118 11.6964 168.642 4.38284 149.162C-5.59256 122.547 3.01314 90.9108 23.946 77.1878L127.887 9.02073C136.906 3.10289 146.985 0 157.193 0H640.922C657.513 0 670.952 16.6339 670.952 37.1704V161.093C670.952 172.161 663.716 181.118 654.774 181.118H654.8Z" fill="#E80024"/>
<path d="M248.809 7.12109H289.162C294.262 7.12109 298.437 11.2718 298.437 16.4123V180.781H239.533V16.4123C239.533 11.3038 243.677 7.12109 248.809 7.12109Z" fill="#FF6353"/>
<path d="M59.2832 61.239H118.697C162.269 61.239 204.025 43.9016 234.848 13.0586H150.093L59.2832 61.239Z" fill="#0B1E8D"/>
<path d="M287.634 13.0273H250.309C247.704 13.0273 245.592 15.1429 245.592 17.7527V56.4822C245.592 59.0919 247.704 61.2076 250.309 61.2076H287.634C290.24 61.2076 292.352 59.0919 292.352 56.4822V17.7527C292.352 15.1429 290.24 13.0273 287.634 13.0273Z" fill="#0B1E8D"/>
<path d="M376.307 13.0273H309.403C306.798 13.0273 304.686 15.1429 304.686 17.7527V56.4822C304.686 59.0919 306.798 61.2076 309.403 61.2076H376.307C378.913 61.2076 381.025 59.0919 381.025 56.4822V17.7527C381.025 15.1429 378.913 13.0273 376.307 13.0273Z" fill="#0B1E8D"/>
<path d="M466.831 13.0273H399.926C397.321 13.0273 395.209 15.1429 395.209 17.7527V56.4822C395.209 59.0919 397.321 61.2076 399.926 61.2076H466.831C469.436 61.2076 471.548 59.0919 471.548 56.4822V17.7527C471.548 15.1429 469.436 13.0273 466.831 13.0273Z" fill="#0B1E8D"/>
<path d="M557.323 13.0273H490.419C487.813 13.0273 485.701 15.1429 485.701 17.7527V56.4822C485.701 59.0919 487.813 61.2076 490.419 61.2076H557.323C559.928 61.2076 562.04 59.0919 562.04 56.4822V17.7527C562.04 15.1429 559.928 13.0273 557.323 13.0273Z" fill="#0B1E8D"/>
<path d="M647.846 13.0273H580.942C578.337 13.0273 576.225 15.1429 576.225 17.7527V56.4822C576.225 59.0919 578.337 61.2076 580.942 61.2076H647.846C650.452 61.2076 652.564 59.0919 652.564 56.4822V17.7527C652.564 15.1429 650.452 13.0273 647.846 13.0273Z" fill="#0B1E8D"/>
<path opacity="0.3" d="M214.704 115.42H1.24062C-0.831217 126.372 -0.618306 138.026 4.38598 148.85C5.34221 150.893 6.42595 152.841 7.6053 154.725H214.704L239.629 127.5L650.558 1.5L239.629 90.4204L205.315 115.42H214.704Z" fill="white"/>
<path opacity="0.4" d="M239.549 134.059V142.059L496.113 62.0586L239.549 134.059Z" fill="white"/>
<path opacity="0.4" d="M442.412 181H482.344L669.526 122.5L442.412 181Z" fill="white"/>
<path opacity="0.4" d="M507.303 181H531.701L646.067 145L507.303 181Z" fill="white"/>
<path opacity="0.1" d="M226.529 13.0273H197.268L152.771 57.5997C169.378 54.0556 185.347 47.9573 200.073 39.56L226.561 13.0273H226.529Z" fill="white"/>
<path opacity="0.1" d="M150.063 13.0273L93.0398 43.2956L75.1582 61.2076H118.667C123.958 61.2076 129.249 60.9522 134.477 60.4414L181.81 13.0273H150.063Z" fill="white"/>
<path opacity="0.1" d="M339.365 13.0281L304.686 47.7664V56.451C304.686 59.0691 306.789 61.1764 309.403 61.1764H320.527L368.626 12.9961H339.365V13.0281Z" fill="white"/>
<path opacity="0.1" d="M323.938 13.0273H309.403C306.789 13.0273 304.686 15.1346 304.686 17.7527V32.3122L323.938 13.0273Z" fill="white"/>
<path opacity="0.1" d="M292.352 17.7841C292.352 15.1659 290.248 13.0586 287.635 13.0586H265.386L245.561 32.9182V56.5135C245.561 59.1316 247.664 61.239 250.278 61.239H275.809L292.32 44.6999V17.7841H292.352Z" fill="white"/>
<path opacity="0.1" d="M523.696 13.0273H494.403L485.701 21.7438V51.0862L523.696 13.0273Z" fill="white"/>
<path opacity="0.1" d="M471.548 17.7841C471.548 15.1659 469.444 13.0586 466.831 13.0586H420.422L395.209 38.3141V56.5135C395.209 59.1316 397.313 61.239 399.926 61.239H430.876L471.548 20.498V17.7841Z" fill="white"/>
<path opacity="0.1" d="M471.547 56.482V35.9199L446.303 61.2074H466.83C469.443 61.2074 471.547 59.1001 471.547 56.482Z" fill="white"/>
<path opacity="0.1" d="M381.025 52.4902L372.291 61.2387H376.275C378.889 61.2387 380.993 59.1314 380.993 56.5133V52.5222L381.025 52.4902Z" fill="white"/>
<path opacity="0.1" d="M679.972 13.0281H671.462C668.848 13.0281 666.744 15.1353 666.744 17.7534V26.2784L680.004 12.9961L679.972 13.0281Z" fill="white"/>
<path opacity="0.1" d="M580.942 13.0273C578.328 13.0273 576.225 15.1346 576.225 17.7527V56.4822C576.225 59.1003 578.328 61.2076 580.942 61.2076H587.158L635.256 13.0273H580.942Z" fill="white"/>
<path opacity="0.1" d="M652.566 40.4868V17.7854C652.566 15.9974 651.546 14.4649 650.112 13.6348L602.619 61.2084H631.88L652.566 40.4868Z" fill="white"/>
<path opacity="0.1" d="M562.072 27.7148L528.604 61.2399H557.322C559.936 61.2399 562.04 59.1326 562.04 56.5144V27.7467L562.072 27.7148Z" fill="white"/>
<path fill-rule="evenodd" clip-rule="evenodd" d="M50.6098 139.576C51.3611 138.114 51.9293 136.566 52.305 134.973C52.6854 133.492 52.8497 131.971 52.8028 130.451C52.7699 129.228 52.4224 128.036 51.7884 126.975C51.1686 126.005 50.2623 125.238 49.1869 124.764C48.0599 124.254 46.6323 124.001 44.9183 124.001C43.3639 123.979 41.8237 124.236 40.3726 124.764C39.0108 125.279 37.7664 126.037 36.7051 127.003C35.5922 128.013 34.6577 129.196 33.9392 130.5C33.1456 131.935 32.5586 133.47 32.1876 135.054C31.7978 136.548 31.6241 138.087 31.6664 139.63C31.6851 140.849 32.0139 142.04 32.6243 143.105C33.2254 144.066 34.1223 144.82 35.1977 145.262C36.3247 145.754 37.7523 145.998 39.4663 145.998C41.1052 146.025 42.7394 145.763 44.2843 145.235C45.6555 144.757 46.9141 144.012 47.98 143.051C49.0601 142.045 49.9523 140.871 50.6098 139.576ZM46.3365 132.739C46.266 133.497 46.1486 134.255 45.9796 135L45.9326 134.968C45.7495 135.731 45.51 136.48 45.2188 137.207C44.9558 137.87 44.6037 138.497 44.1763 139.075C43.8006 139.594 43.317 140.036 42.7535 140.366C42.1946 140.686 41.5466 140.853 40.8939 140.84C40.2975 140.871 39.7058 140.727 39.1986 140.42C38.7713 140.122 38.4614 139.698 38.3205 139.21C38.142 138.592 38.0904 137.951 38.1561 137.315C38.2313 136.462 38.3815 135.618 38.5929 134.788C38.7854 134.047 39.0531 133.325 39.3865 132.63C39.6682 131.985 40.0392 131.376 40.4806 130.816C40.8798 130.32 41.3729 129.9 41.9317 129.58C42.4529 129.282 43.0493 129.128 43.6551 129.133C44.2702 129.097 44.876 129.264 45.3785 129.607C45.787 129.932 46.0782 130.374 46.2003 130.87C46.3552 131.48 46.4022 132.111 46.3365 132.739ZM17.1216 145.683C17.3611 145.71 17.6006 145.665 17.8072 145.552V145.579C17.9293 145.435 18.0045 145.263 18.0279 145.078L19.8875 137.447H28.2369C28.6173 137.447 28.8943 137.212 29.0023 136.738L29.7678 133.579C29.8523 133.236 29.8805 133.024 29.8241 132.947C29.7678 132.87 29.6034 132.816 29.3592 132.816H21.0099L21.4748 130.921C21.5311 130.713 21.6062 130.51 21.6955 130.316C21.78 130.113 21.9021 129.928 22.0524 129.765C22.2496 129.58 22.4797 129.436 22.738 129.346C23.0761 129.224 23.4424 129.174 23.8039 129.188H31.6321C31.8152 129.206 32.003 129.161 32.1533 129.057C32.2848 128.908 32.3693 128.723 32.3975 128.529L33.2193 125.081C33.332 124.738 33.332 124.526 33.2756 124.449C33.2193 124.372 33.0549 124.345 32.8107 124.345H23.1747C22.1651 124.327 21.1648 124.485 20.2163 124.819C19.3992 125.112 18.6478 125.55 17.9998 126.11C17.3987 126.647 16.8962 127.279 16.5205 127.978C16.1402 128.66 15.8584 129.386 15.6706 130.135L12.0312 145.078C11.9185 145.471 12.1111 145.683 12.6041 145.683H17.1216ZM93.3447 134.024C93.8377 134.237 94.2792 134.552 94.6313 134.945C94.9507 135.32 95.1902 135.748 95.3451 136.209C95.4954 136.669 95.5705 137.147 95.5658 137.63C95.5611 138.127 95.4954 138.623 95.3733 139.102C95.1479 140.063 94.73 140.975 94.143 141.787C93.5607 142.59 92.8375 143.294 92.0063 143.867C91.1564 144.454 90.2125 144.905 89.2122 145.208C88.1838 145.524 87.1132 145.686 86.0378 145.682H77.7682C76.8901 145.682 76.3736 145.524 76.2092 145.208C76.0448 144.892 76.0448 144.391 76.2092 143.655L80.4262 126.343C80.5295 125.788 80.7877 125.274 81.1634 124.845C81.4921 124.502 82.0932 124.344 82.9713 124.344H91.2127C92.0909 124.339 92.9643 124.443 93.8143 124.66C94.5233 124.831 95.1808 125.165 95.7302 125.635C96.2421 126.095 96.6036 126.691 96.7727 127.345C96.9558 128.171 96.9277 129.028 96.6929 129.845C96.4722 130.698 96.0495 131.493 95.4625 132.161C94.8849 132.869 94.1712 133.46 93.3541 133.898V134.024H93.3447ZM84.9953 132.183H88.3059C88.738 132.174 89.1606 132.066 89.5363 131.867C89.9448 131.655 90.2219 131.262 90.358 130.685C90.4942 130.107 90.4144 129.868 90.1937 129.606C89.9119 129.34 89.5222 129.204 89.1277 129.236H85.7044L84.9953 132.183ZM89.2639 138.736C89.4236 138.249 89.3531 137.721 89.0714 137.287C88.799 136.917 88.3059 136.737 87.6203 136.737H83.8964L82.9103 140.708H86.6342C87.0098 140.717 87.3808 140.654 87.7283 140.523C88.0148 140.401 88.2731 140.234 88.4938 140.022C88.691 139.837 88.8601 139.625 88.9868 139.39C89.0948 139.183 89.1794 138.962 89.231 138.732L89.2639 138.736ZM102.491 145.682H112.291L112.249 145.673C112.63 145.673 112.907 145.439 113.015 144.965L113.865 141.517C113.949 141.174 113.949 140.962 113.893 140.885C113.836 140.808 113.672 140.781 113.428 140.781H105.379L104.642 140.727C104.44 140.704 104.252 140.632 104.092 140.515C103.942 140.384 103.843 140.208 103.82 140.014C103.782 139.707 103.811 139.391 103.9 139.093L104.449 136.805H112.963C113.362 136.805 113.62 136.571 113.728 136.097L114.494 132.915C114.578 132.712 114.597 132.495 114.55 132.283C114.494 132.206 114.329 132.152 114.085 132.152H105.572L105.872 130.861C105.928 130.654 106.004 130.451 106.093 130.257C106.187 130.054 106.313 129.864 106.478 129.706C106.675 129.521 106.905 129.377 107.163 129.286C107.502 129.165 107.868 129.11 108.229 129.128H115.813C115.996 129.151 116.184 129.101 116.335 128.998C116.475 128.849 116.569 128.668 116.607 128.47L117.457 125.022C117.541 124.679 117.541 124.466 117.485 124.39C117.429 124.313 117.264 124.286 117.02 124.286H107.657C106.642 124.272 105.628 124.439 104.675 124.787C103.858 125.08 103.106 125.518 102.458 126.078C101.857 126.615 101.355 127.246 100.979 127.946C100.599 128.627 100.317 129.354 100.129 130.103L97.7481 139.865C97.5837 140.538 97.5039 141.228 97.5039 141.919C97.5039 142.573 97.673 143.214 97.997 143.787C98.3539 144.383 98.8892 144.861 99.5326 145.154C100.246 145.497 101.232 145.682 102.491 145.682ZM136.029 129.184H130.61L126.749 145.052C126.721 145.232 126.646 145.408 126.529 145.552C126.322 145.665 126.083 145.715 125.843 145.683H121.326C120.833 145.683 120.64 145.471 120.753 145.052L124.613 129.188H119.33C118.893 129.188 118.729 128.953 118.837 128.479L119.659 125.059C119.682 124.824 119.79 124.598 119.959 124.427C120.128 124.341 120.316 124.305 120.509 124.323H137.235C137.409 124.3 137.583 124.336 137.729 124.427C137.808 124.503 137.808 124.716 137.729 125.059L136.907 128.479C136.799 128.953 136.522 129.188 136.057 129.188L136.029 129.184ZM58.5233 145.045L61.2328 134.127V134.123H61.4817L63.0689 137.914L65.9428 144.282C66.0508 144.544 66.2011 144.792 66.3796 145.017C66.511 145.189 66.6801 145.329 66.8726 145.437C67.0699 145.536 67.2812 145.6 67.5019 145.622L68.2955 145.676H69.9391C70.9064 145.676 71.5873 145.446 71.9912 144.99C72.4232 144.494 72.7238 143.907 72.8693 143.28L77.4432 124.966C77.5559 124.546 77.3633 124.334 76.8703 124.334H72.3528C72.1133 124.302 71.8738 124.348 71.6672 124.465C71.5451 124.609 71.4605 124.781 71.423 124.966L68.7134 135.964H68.4927L66.9337 132.254L64.0034 125.729C63.8719 125.471 63.717 125.223 63.5385 124.993C63.407 124.821 63.238 124.677 63.0454 124.573C62.8576 124.478 62.6557 124.415 62.4444 124.388L61.6226 124.334H59.979C59.1008 124.334 58.4434 124.519 58.0349 124.835C57.6263 125.151 57.3211 125.81 57.0769 126.758L52.5312 145.045C52.4185 145.464 52.6111 145.676 53.1041 145.676H57.5935C57.8329 145.708 58.0724 145.663 58.2791 145.545C58.4059 145.401 58.4904 145.23 58.5233 145.045Z" fill="white"/>
</svg>
