<svg viewBox="0 0 680 222" fill="none" xmlns="http://www.w3.org/2000/svg">
<path d="M74.5548 180.779H98.3011V205.364H74.5548V180.779Z" fill="#4D62A0"/>
<path d="M99.0968 201.374C99.0968 212.772 108.309 222 119.688 222C131.067 222 140.279 212.772 140.279 201.374C140.279 189.975 131.067 180.748 119.688 180.748C108.309 180.748 99.0968 189.975 99.0968 201.374Z" fill="#0B1E8D"/>
<path d="M106.236 201.374C106.236 208.814 112.261 214.848 119.687 214.848C127.114 214.848 133.138 208.814 133.138 201.374C133.138 193.935 127.114 187.9 119.687 187.9C112.261 187.9 106.236 193.935 106.236 201.374Z" fill="#4D62A0"/>
<path d="M32.1617 201.374C32.1617 212.772 41.3735 222 52.7527 222C64.1318 222 73.3435 212.772 73.3435 201.374C73.3435 189.975 64.1318 180.748 52.7527 180.748C41.3735 180.748 32.1617 189.975 32.1617 201.374Z" fill="#0B1E8D"/>
<path d="M39.2681 201.374C39.2681 208.814 45.2924 214.848 52.7192 214.848C60.1459 214.848 66.1702 208.814 66.1702 201.374C66.1702 193.935 60.1459 187.9 52.7192 187.9C45.2924 187.9 39.2681 193.935 39.2681 201.374Z" fill="#4D62A0"/>
<path d="M54.3456 209.848H121.537C125.808 209.848 129.25 206.4 129.25 202.121C129.25 197.843 125.808 194.395 121.537 194.395H54.3456C50.0744 194.395 46.6319 197.843 46.6319 202.121C46.6319 206.4 50.0744 209.848 54.3456 209.848Z" fill="#738BD3"/>
<path d="M487.136 180.779H510.882V205.364H487.136V180.779Z" fill="#4D62A0"/>
<path d="M511.68 201.374C511.68 212.772 520.892 222 532.271 222C543.65 222 552.862 212.772 552.862 201.374C552.862 189.975 543.65 180.748 532.271 180.748C520.892 180.748 511.68 189.975 511.68 201.374Z" fill="#0B1E8D"/>
<path d="M518.819 201.374C518.819 208.814 524.844 214.848 532.27 214.848C539.697 214.848 545.721 208.814 545.721 201.374C545.721 193.935 539.697 187.9 532.27 187.9C524.844 187.9 518.819 193.935 518.819 201.374Z" fill="#4D62A0"/>
<path d="M444.743 201.374C444.743 212.772 453.954 222 465.334 222C476.713 222 485.925 212.772 485.925 201.374C485.925 189.975 476.713 180.748 465.334 180.748C453.954 180.748 444.743 189.975 444.743 201.374Z" fill="#0B1E8D"/>
<path d="M451.851 201.374C451.851 208.814 457.875 214.848 465.302 214.848C472.729 214.848 478.753 208.814 478.753 201.374C478.753 193.935 472.729 187.9 465.302 187.9C457.875 187.9 451.851 193.935 451.851 201.374Z" fill="#4D62A0"/>
<path d="M466.929 209.848H534.12C538.391 209.848 541.833 206.4 541.833 202.121C541.833 197.843 538.391 194.395 534.12 194.395H466.929C462.657 194.395 459.215 197.843 459.215 202.121C459.215 206.4 462.657 209.848 466.929 209.848Z" fill="#738BD3"/>
<path d="M629.298 180.779L654.638 207.823H571.223L558.091 180.779H629.298Z" fill="#6E88D4"/>
<path d="M440.442 180.779L431.9 207.823H152.668L139.568 180.779H440.442Z" fill="#6E88D4"/>
<path d="M25.2059 181.118H635.179C652.545 181.118 668.309 168.642 675.623 149.162C685.598 122.547 676.993 90.9108 656.06 77.1878L552.119 9.02073C543.1 3.10289 533.021 0 522.813 0H39.0836C22.4924 0 9.05402 16.6339 9.05402 37.1704V161.093C9.05402 172.161 16.2901 181.118 25.2318 181.118H25.2059Z" fill="#E80024"/>
<path d="M431.198 7.12109H390.845C385.745 7.12109 381.569 11.2718 381.569 16.4123V180.781H440.473V16.4123C440.473 11.3038 436.33 7.12109 431.198 7.12109Z" fill="#FF6353"/>
<path d="M620.723 61.239H561.309C517.737 61.239 475.982 43.9016 445.159 13.0586H529.913L620.723 61.239Z" fill="#0B1E8D"/>
<path d="M392.375 13.0273H429.7C432.305 13.0273 434.417 15.1429 434.417 17.7527V56.4822C434.417 59.0919 432.305 61.2076 429.7 61.2076H392.375C389.77 61.2076 387.657 59.0919 387.657 56.4822V17.7527C387.657 15.1429 389.77 13.0273 392.375 13.0273Z" fill="#0B1E8D"/>
<path d="M303.701 13.0273H370.605C373.21 13.0273 375.323 15.1429 375.323 17.7527V56.4822C375.323 59.0919 373.21 61.2076 370.605 61.2076H303.701C301.095 61.2076 298.983 59.0919 298.983 56.4822V17.7527C298.983 15.1429 301.095 13.0273 303.701 13.0273Z" fill="#0B1E8D"/>
<path d="M213.177 13.0273H280.081C282.687 13.0273 284.799 15.1429 284.799 17.7527V56.4822C284.799 59.0919 282.687 61.2076 280.081 61.2076H213.177C210.571 61.2076 208.459 59.0919 208.459 56.4822V17.7527C208.459 15.1429 210.571 13.0273 213.177 13.0273Z" fill="#0B1E8D"/>
<path d="M122.686 13.0273H189.591C192.196 13.0273 194.308 15.1429 194.308 17.7527V56.4822C194.308 59.0919 192.196 61.2076 189.591 61.2076H122.686C120.081 61.2076 117.969 59.0919 117.969 56.4822V17.7527C117.969 15.1429 120.081 13.0273 122.686 13.0273Z" fill="#0B1E8D"/>
<path d="M32.1623 13.0273H99.0667C101.672 13.0273 103.784 15.1429 103.784 17.7527V56.4822C103.784 59.0919 101.672 61.2076 99.0667 61.2076H32.1623C29.557 61.2076 27.4449 59.0919 27.4449 56.4822V17.7527C27.4449 15.1429 29.557 13.0273 32.1623 13.0273Z" fill="#0B1E8D"/>
<path opacity="0.3" d="M465.304 115.42H678.767C680.839 126.372 680.626 138.026 675.622 148.85C674.665 150.893 673.582 152.841 672.402 154.725H465.304L440.378 127.5L29.4493 1.5L440.378 90.4204L474.692 115.42H465.304Z" fill="white"/>
<path opacity="0.4" d="M440.46 134.059V142.059L183.896 62.0586L440.46 134.059Z" fill="white"/>
<path opacity="0.4" d="M237.596 181H197.664L10.4819 122.5L237.596 181Z" fill="white"/>
<path opacity="0.4" d="M172.706 181H148.308L33.942 145L172.706 181Z" fill="white"/>
<path opacity="0.1" d="M453.479 13.0273H482.74L527.237 57.5997C510.63 54.0556 494.661 47.9573 479.935 39.56L453.448 13.0273H453.479Z" fill="white"/>
<path opacity="0.1" d="M529.946 13.0273L586.969 43.2956L604.851 61.2076H561.342C556.051 61.2076 550.76 60.9522 545.533 60.4414L498.199 13.0273H529.946Z" fill="white"/>
<path opacity="0.1" d="M340.643 13.0281L375.323 47.7664V56.451C375.323 59.0691 373.219 61.1764 370.605 61.1764H359.481L311.383 12.9961H340.643V13.0281Z" fill="white"/>
<path opacity="0.1" d="M356.071 13.0273H370.605C373.219 13.0273 375.323 15.1346 375.323 17.7527V32.3122L356.071 13.0273Z" fill="white"/>
<path opacity="0.1" d="M387.657 17.7841C387.657 15.1659 389.761 13.0586 392.374 13.0586H414.623L434.448 32.9182V56.5135C434.448 59.1316 432.345 61.239 429.731 61.239H404.2L387.689 44.6999V17.7841H387.657Z" fill="white"/>
<path opacity="0.1" d="M156.314 13.0273H185.606L194.308 21.7438V51.0862L156.314 13.0273Z" fill="white"/>
<path opacity="0.1" d="M208.459 17.7841C208.459 15.1659 210.563 13.0586 213.177 13.0586H259.586L284.799 38.3141V56.5135C284.799 59.1316 282.695 61.239 280.081 61.239H249.131L208.459 20.498V17.7841Z" fill="white"/>
<path opacity="0.1" d="M208.459 56.482V35.9199L233.704 61.2074H213.177C210.563 61.2074 208.459 59.1001 208.459 56.482Z" fill="white"/>
<path opacity="0.1" d="M298.983 52.4902L307.717 61.2387H303.732C301.119 61.2387 299.015 59.1314 299.015 56.5133V52.5222L298.983 52.4902Z" fill="white"/>
<path opacity="0.1" d="M0.0344887 13.0281H8.545C11.1587 13.0281 13.2625 15.1353 13.2625 17.7534V26.2784L0.00268078 12.9961L0.0344887 13.0281Z" fill="white"/>
<path opacity="0.1" d="M99.066 13.0273C101.68 13.0273 103.783 15.1346 103.783 17.7527V56.4822C103.783 59.1003 101.68 61.2076 99.066 61.2076H92.8505L44.752 13.0273H99.066Z" fill="white"/>
<path opacity="0.1" d="M27.4436 40.4868V17.7854C27.4436 15.9974 28.4637 14.4649 29.898 13.6348L77.3909 61.2084H48.1301L27.4436 40.4868Z" fill="white"/>
<path opacity="0.1" d="M117.936 27.7148L151.404 61.2399H122.686C120.072 61.2399 117.968 59.1326 117.968 56.5144V27.7467L117.936 27.7148Z" fill="white"/>
<path fill-rule="evenodd" clip-rule="evenodd" d="M581.688 139.576C582.439 138.114 583.008 136.566 583.383 134.973C583.764 133.492 583.928 131.971 583.881 130.451C583.848 129.228 583.501 128.036 582.867 126.975C582.247 126.005 581.341 125.238 580.265 124.764C579.138 124.254 577.711 124.001 575.997 124.001C574.442 123.979 572.902 124.236 571.451 124.764C570.089 125.279 568.845 126.037 567.783 127.003C566.671 128.013 565.736 129.196 565.018 130.5C564.224 131.935 563.637 133.47 563.266 135.054C562.876 136.548 562.702 138.087 562.745 139.63C562.764 140.849 563.092 142.04 563.703 143.105C564.304 144.066 565.201 144.82 566.276 145.262C567.403 145.754 568.831 145.998 570.545 145.998C572.184 146.025 573.818 145.763 575.363 145.235C576.734 144.757 577.992 144.012 579.058 143.051C580.138 142.045 581.031 140.871 581.688 139.576ZM577.415 132.739C577.344 133.497 577.227 134.255 577.058 135L577.011 134.968C576.828 135.731 576.588 136.48 576.297 137.207C576.034 137.87 575.682 138.497 575.255 139.075C574.879 139.594 574.395 140.036 573.832 140.366C573.273 140.686 572.625 140.853 571.972 140.84C571.376 140.871 570.784 140.727 570.277 140.42C569.85 140.122 569.54 139.698 569.399 139.21C569.22 138.592 569.169 137.951 569.235 137.315C569.31 136.462 569.46 135.618 569.671 134.788C569.864 134.047 570.131 133.325 570.465 132.63C570.747 131.985 571.118 131.376 571.559 130.816C571.958 130.32 572.451 129.9 573.01 129.58C573.531 129.282 574.128 129.128 574.733 129.133C575.349 129.097 575.954 129.264 576.457 129.607C576.865 129.932 577.157 130.374 577.279 130.87C577.434 131.48 577.481 132.111 577.415 132.739ZM548.198 145.683C548.438 145.71 548.677 145.665 548.884 145.552V145.579C549.006 145.435 549.081 145.263 549.105 145.078L550.964 137.447H559.314C559.694 137.447 559.971 137.212 560.079 136.738L560.844 133.579C560.929 133.236 560.957 133.024 560.901 132.947C560.844 132.87 560.68 132.816 560.436 132.816H552.087L552.551 130.921C552.608 130.713 552.683 130.51 552.772 130.316C552.857 130.113 552.979 129.928 553.129 129.765C553.326 129.58 553.556 129.436 553.815 129.346C554.153 129.224 554.519 129.174 554.881 129.188H562.709C562.892 129.206 563.08 129.161 563.23 129.057C563.361 128.908 563.446 128.723 563.474 128.529L564.296 125.081C564.409 124.738 564.409 124.526 564.352 124.449C564.296 124.372 564.132 124.345 563.887 124.345H554.251C553.242 124.327 552.241 124.485 551.293 124.819C550.476 125.112 549.724 125.55 549.076 126.11C548.475 126.647 547.973 127.279 547.597 127.978C547.217 128.66 546.935 129.386 546.747 130.135L543.108 145.078C542.995 145.471 543.188 145.683 543.681 145.683H548.198ZM624.422 134.024C624.915 134.237 625.356 134.552 625.708 134.945C626.028 135.32 626.267 135.748 626.422 136.209C626.572 136.669 626.648 137.147 626.643 137.63C626.638 138.127 626.572 138.623 626.45 139.102C626.225 140.063 625.807 140.975 625.22 141.787C624.638 142.59 623.915 143.294 623.083 143.867C622.233 144.454 621.29 144.905 620.289 145.208C619.261 145.524 618.19 145.686 617.115 145.682H608.845C607.967 145.682 607.451 145.524 607.286 145.208C607.122 144.892 607.122 144.391 607.286 143.655L611.503 126.343C611.607 125.788 611.865 125.274 612.24 124.845C612.569 124.502 613.17 124.344 614.048 124.344H622.29C623.168 124.339 624.041 124.443 624.891 124.66C625.6 124.831 626.258 125.165 626.807 125.635C627.319 126.095 627.681 126.691 627.85 127.345C628.033 128.171 628.005 129.028 627.77 129.845C627.549 130.698 627.127 131.493 626.54 132.161C625.962 132.869 625.248 133.46 624.431 133.898V134.024H624.422ZM616.072 132.183H619.383C619.815 132.174 620.238 132.066 620.613 131.867C621.022 131.655 621.299 131.262 621.435 130.685C621.571 130.107 621.491 129.868 621.271 129.606C620.989 129.34 620.599 129.204 620.205 129.236H616.781L616.072 132.183ZM620.341 138.736C620.501 138.249 620.43 137.721 620.148 137.287C619.876 136.917 619.383 136.737 618.697 136.737H614.973L613.987 140.708H617.711C618.087 140.717 618.458 140.654 618.805 140.523C619.092 140.401 619.35 140.234 619.571 140.022C619.768 139.837 619.937 139.625 620.064 139.39C620.172 139.183 620.256 138.962 620.308 138.732L620.341 138.736ZM633.567 145.682H643.367L643.325 145.673C643.705 145.673 643.982 145.439 644.09 144.965L644.94 141.517C645.025 141.174 645.025 140.962 644.969 140.885C644.912 140.808 644.748 140.781 644.504 140.781H636.455L635.718 140.727C635.516 140.704 635.328 140.632 635.168 140.515C635.018 140.384 634.919 140.208 634.896 140.014C634.858 139.707 634.886 139.391 634.976 139.093L635.525 136.805H644.039C644.438 136.805 644.696 136.571 644.804 136.097L645.57 132.915C645.654 132.712 645.673 132.495 645.626 132.283C645.57 132.206 645.405 132.152 645.161 132.152H636.647L636.948 130.861C637.004 130.654 637.079 130.451 637.169 130.257C637.262 130.054 637.389 129.864 637.554 129.706C637.751 129.521 637.981 129.377 638.239 129.286C638.577 129.165 638.944 129.11 639.305 129.128H646.889C647.072 129.151 647.26 129.101 647.41 128.998C647.551 128.849 647.645 128.668 647.683 128.47L648.533 125.022C648.617 124.679 648.617 124.466 648.561 124.39C648.505 124.313 648.34 124.286 648.096 124.286H638.732C637.718 124.272 636.704 124.439 635.75 124.787C634.933 125.08 634.182 125.518 633.534 126.078C632.933 126.615 632.43 127.246 632.055 127.946C631.674 128.627 631.393 129.354 631.205 130.103L628.824 139.865C628.66 140.538 628.58 141.228 628.58 141.919C628.58 142.573 628.749 143.214 629.073 143.787C629.43 144.383 629.965 144.861 630.608 145.154C631.322 145.497 632.308 145.682 633.567 145.682ZM667.103 129.184H661.684L657.824 145.052C657.796 145.232 657.721 145.408 657.603 145.552C657.397 145.665 657.157 145.715 656.918 145.683H652.4C651.907 145.683 651.715 145.471 651.827 145.052L655.688 129.188H650.405C649.968 129.188 649.804 128.953 649.912 128.479L650.733 125.059C650.757 124.824 650.865 124.598 651.034 124.427C651.203 124.341 651.391 124.305 651.583 124.323H668.31C668.484 124.3 668.658 124.336 668.803 124.427C668.883 124.503 668.883 124.716 668.803 125.059L667.981 128.479C667.873 128.953 667.596 129.188 667.132 129.188L667.103 129.184ZM589.601 145.045L592.311 134.127V134.123H592.56L594.147 137.914L597.021 144.282C597.129 144.544 597.279 144.792 597.458 145.017C597.589 145.189 597.758 145.329 597.951 145.437C598.148 145.536 598.359 145.6 598.58 145.622L599.374 145.676H601.017C601.985 145.676 602.665 145.446 603.069 144.99C603.501 144.494 603.802 143.907 603.947 143.28L608.521 124.966C608.634 124.546 608.441 124.334 607.948 124.334H603.431C603.191 124.302 602.952 124.348 602.745 124.465C602.623 124.609 602.539 124.781 602.501 124.966L599.792 135.964H599.571L598.012 132.254L595.082 125.729C594.95 125.471 594.795 125.223 594.617 124.993C594.485 124.821 594.316 124.677 594.124 124.573C593.936 124.478 593.734 124.415 593.522 124.388L592.701 124.334H591.057C590.179 124.334 589.522 124.519 589.113 124.835C588.704 125.151 588.399 125.81 588.155 126.758L583.609 145.045C583.497 145.464 583.689 145.676 584.182 145.676H588.672C588.911 145.708 589.151 145.663 589.357 145.545C589.484 145.401 589.568 145.23 589.601 145.045Z" fill="white"/>
</svg>
