<svg viewBox="0 0 370 370" xmlns="http://www.w3.org/2000/svg"><g fill="none"><path d="m370 183.702805c-7.28425-4.989213-14.468716-10.07821-21.553398-15.366775 1.197411-3.392664 1.596548-6.485976 1.596548-9.080367 0-12.073894-8.481661-24.247572-27.440669-24.247572h-16.165048c-12.473032-10.676915-24.546926-21.852751-36.221683-33.427724 1.995685-5.7874867 5.488133-16.0652645 6.286407-18.5598708 1.39698-4.1909385 1.496764-9.978425-8.581445-13.969795-7.98274-3.193096-21.054477-5.188781-34.425566-6.6855448-17.262676-19.8570658-33.427724-40.6121898-48.495146-62.3651564-13.570658 19.5577131-28.039374 38.4169364-43.306365 56.3781014-13.670442 3.3926645-25.943905 7.6833873-34.625134 11.7745415-15.765912 7.3840346-15.0674223 12.1736786-13.9697955 15.7659116.5987055 1.995685 3.7918015 11.3754045 6.1866235 18.2605175-8.2820928 8.182309-16.6639698 16.165049-25.3451996 23.848436-13.4708737 1.995685-20.355987 10.277778-26.1434735 21.852751-.0997843.099784-.1995685.299353-.2993528.598705-15.3667745 12.373247-31.1326861 24.247573-47.4973031 35.423409 7.48381877 5.088997 14.768069 10.277778 22.0523193 15.666128l-10.8764833 21.85275h39.1154261c51.4886729 42.108954 96.7907229 91.202805 134.8085219 146.383495 38.117584-55.18069 83.319849-104.274541 134.808522-146.383495h33.926645l-7.98274-20.256202c7.882956-6.08684 15.96548-11.874326 24.147789-17.462244" fill="#84c0ee"/><path d="m229.204423 66.1569579c-15.566343-17.961165-30.334412-36.6208198-44.204423-56.17853287-12.572816 17.86138077-26.043689 35.02427187-40.113269 51.48867317-12.572815 2.8937432-26.941747 7.583603-35.024271 12.5728155v.8980583c39.514563-9.1801511 97.888349-9.0803668 119.341963-8.7810141" fill="#4d69a2"/><path d="m359.822006 183.702805c-6.286407-4.390507-12.473031-8.880799-18.55987-13.470874 1.796116-3.093312 2.993527-6.785329 2.993527-10.976268 0-8.481661-5.687702-18.460086-21.653182-18.460086h-18.360302c-14.069579-11.97411-27.540453-24.546925-40.512406-37.518878.898059-2.694175 5.188781-15.0674218 7.384035-21.6531823 2.394822-7.0846817-9.978425-9.978425-29.33657-9.978425-54.781553 0-134.808522 16.0652643-143.4897515 10.1779935l7.7831715 22.9503778-.299353-.898058c-9.4795035 9.479503-19.25836 18.659654-29.3365693 27.640237-12.1736785 1.197411-17.961165 7.98274-23.4492988 18.859223-.0997843.299353-.399137.798274-.798274 1.596548-13.570658 11.076052-27.5404531 21.653182-42.0091694 31.731392 6.4859763 4.490291 12.8721683 9.180151 19.1585761 13.870011-3.8915858 7.882955-6.785329 13.570658-6.8851133 13.770226l-1.995685 4.091154h31.7313916c50.4908311 41.011327 94.9946061 88.608415 132.8128371 141.992988 37.818231-53.484358 82.322006-100.981661 132.812837-141.992988h27.440669l-6.485976-16.364617c6.885113-5.288565 13.969795-10.377562 21.054476-15.366774" fill="#4d69a2"/><path d="m135.307443 190.488134c.498922-2.095469 6.08684-26.841964 9.579288-41.709817h-10.976267c-3.193096 13.770227-7.98274 35.423409-9.878641 43.505933-1.596548 7.084682 1.097627 11.674758 9.080367 11.674758h11.175836l2.195253-9.679073h-8.182308c-2.793959 0-3.492449-1.297195-2.993528-3.791801" fill="#fff"/><path d="m107.76699 190.488134c.498922-2.095469 6.08684-26.841964 9.579288-41.709817h-10.976267c-3.193096 13.770227-7.9827402 35.423409-9.878641 43.505933-1.596548 7.084682 1.0976268 11.674758 9.080367 11.674758h11.175836l2.195253-9.679073h-8.182308c-2.793959 0-3.492449-1.297195-2.993528-3.791801" fill="#fff"/><path d="m324.298813 172.427184c7.683388-4.989212 11.375405-9.778856 11.375405-15.167206 0-5.288565-3.791802-8.581445-11.674757-8.581445h-23.848436l-12.473031 55.080906h10.876483l3.99137-17.462244c2.59439-1.696332 5.787486-3.692017 8.880798-5.587918l9.180151 23.149946h11.375405l-11.375405-28.937432c1.297195-.997843 2.594391-1.796117 3.692017-2.494607m-19.058791 1.596548 3.592233-15.865695h11.175836c3.29288 0 4.989212 3.093311.299352 6.286407-2.494606 1.696333-9.379719 5.987055-15.067421 9.579288" fill="#fff"/><path d="m273.608414 147.381338c-9.279935 0-12.6726 3.29288-17.262675 12.572815-1.796117 3.692017-12.373247 24.846278-21.952535 43.90507h11.874326c2.295037-4.689859 5.388349-10.776699 8.481661-16.963322h17.861381c-.299353 5.787486-.598706 11.774541-.898059 17.063107h10.976268c.798274-15.167206 1.995685-39.913701 2.295038-45.002697.399137-7.683388-2.694175-11.574973-11.375405-11.574973m-13.969795 29.83549c3.791802-7.683387 6.984898-13.969795 7.783172-15.566343 1.396979-2.793959 2.494606-3.891585 4.490291-3.692017 1.895901.199569 2.195253 1.496764 1.995685 3.99137-.099784 1.39698-.399137 7.483819-.798274 15.26699z" fill="#fff"/><path d="m248.063646 158.457389 4.789644-9.679072h-39.813916l-2.295037 9.679072h14.269147l-10.377562 45.401834h10.876484l10.477346-45.401834z" fill="#fff"/><path d="m201.763754 169.333873c-3.99137-3.392665-8.781014-6.984898-12.473031-10.277778-4.889429-4.190939-3.29288-10.277778 5.088997-10.277778h18.759439l2.195253-9.679072h-15.466559c-7.882955 0-21.852751-.69849-25.145631 11.97411-1.596548 6.286408.399137 11.076052 6.286408 15.865696 3.592233 2.893743 6.585761 5.088996 10.976268 8.681229 5.388349 4.290723 6.186623 8.581446 4.490291 12.373248-1.796117 4.190938-5.38835 6.386192-14.568501 6.386192h-17.063107l-2.195253 9.679072h22.351672c12.373247 0 19.857066-2.594391 23.24973-14.368932 2.793959-9.978425-.099784-14.967638-6.485976-20.355987" fill="#fff"/><path d="m174.722222 174.323085c-5.288565-3.592233-9.878641-8.182308-13.470874-13.470874-3.692017 5.288566-8.282092 9.778857-13.470873 13.470874 5.288565 3.592233 9.87864 8.182309 13.470873 13.470874 3.592233-5.288565 8.182309-9.878641 13.470874-13.470874" fill="#fff"/><path d="m79.727616 139.099245c-10.0782093 0-13.6704423 3.592233-18.5598706 13.670442-1.596548 3.29288-23.149946 46.200108-25.5447681 51.189321h11.9741101c.6984897-1.39698 5.2885652-10.776699 10.4773463-21.154262h21.2540453c-.4989213 10.07821-.9978425 19.258361-1.0976268 21.154262h11.0760518c.1995685-4.091155 2.394822-47.796656 2.5943905-52.386732.1995685-4.290723-.5987055-7.28425-2.4946063-9.279935-1.995685-2.195254-5.188781-3.193096-9.6790722-3.193096m-16.7637541 33.527508c4.8894283-9.878641 9.2799353-18.659655 10.0782093-19.95685 1.4967638-2.694175 2.793959-3.99137 4.8894283-3.791802 1.995685.199569 2.8937432 1.696333 2.793959 4.490292-.0997843 1.197411-.4989213 9.679072-.9978425 19.358144h-16.7637541z" fill="#fff"/><g fill="#84c0ee" transform="translate(93.797195 215.434196)"><path d="m6.88511327 8.28209277-2.39482201 10.17799353h-4.49029126l4.29072276-18.4600863h4.49029126l3.29288028 10.1779935 2.394822-10.1779935h4.4902913l-4.2907228 18.4600863h-4.5900755z"/><path d="m36.1218986 0c.6984897 0 1.0976268.1995685 1.4967638.5987055.2993527.399137.399137.89805825.2993527 1.59654801l-3.2928803 14.16936349c-.0997842.5987055-.4989212 1.197411-.9978425 1.596548-.4989212.399137-1.0976267.5987056-1.6963322.5987056h-9.7788565c-.6984898 0-1.0976268-.1995686-1.4967638-.5987056-.2993527-.399137-.399137-.8980582-.2993527-1.596548l3.2928802-14.16936349c.0997843-.59870551.4989213-1.19741101.9978425-1.59654801.4989213-.399137 1.0976268-.5987055 1.6963323-.5987055zm-3.592233 4.29072276c0-.1995685 0-.29935275-.1995685-.29935275h-3.8915858c-.0997842 0-.0997842 0-.1995685.09978425-.0997842.09978425-.0997842.09978425-.0997842.1995685l-2.2950378 9.97842504v.1995685s.0997843.0997842.1995685.0997842h3.8915858c.1995685 0 .2993527-.0997842.399137-.1995685z"/><path d="m57.0765912 0-9.8786408 18.4600863h-4.789644l-1.197411-18.4600863h5.188781v11.7745415l5.8872707-11.7745415z"/><path d="m71.8446602 0c.6984897 0 1.0976267.1995685 1.4967637.5987055.2993528.399137.399137.89805825.2993528 1.59654801l-3.2928803 14.16936349c-.0997842.5987055-.4989212 1.197411-.9978425 1.596548-.4989212.399137-1.0976267.5987056-1.6963322.5987056h-9.7788565c-.6984898 0-1.0976268-.1995686-1.4967638-.5987056-.2993527-.399137-.399137-.8980582-.2993527-1.596548l3.2928802-14.16936349c.0997843-.59870551.4989213-1.19741101.9978425-1.59654801.4989213-.399137 1.0976268-.5987055 1.6963323-.5987055zm-3.592233 4.29072276c0-.1995685 0-.29935275-.1995685-.29935275h-3.8915858c-.0997842 0-.0997842 0-.1995685.09978425-.0997842.09978425-.0997842.09978425-.0997842.1995685l-2.2950378 9.97842504v.1995685s.0997843.0997842.1995685.0997842h3.8915858c.1995685 0 .2993527-.0997842.399137-.1995685z"/><path d="m75.6364617 14.4687163h7.0846818c.1995685 0 .2993527-.0997843.399137-.1995685l.5987055-2.6941748c0-.1995685 0-.1995685-.2993528-.1995685h-4.8894282c-.6984898 0-1.0976268-.1995685-1.4967638-.5987055-.2993527-.399137-.399137-.89805822-.2993527-1.59654798l1.596548-6.98489751c.0997842-.59870551.4989212-1.19741101.9978425-1.59654801.4989212-.399137 1.0976267-.5987055 1.6963322-.5987055h9.8786408l-.8980583 3.99137001h-6.8851132c-.1995685 0-.2993528.09978425-.399137.29935275l-.5987055 2.69417476v.1995685c0 .09978425.0997842.09978425.1995685.09978425h4.8894282c.6984898 0 1.197411.1995685 1.4967638.5987055.2993527.399137.399137.89805825.2993527 1.59654801l-1.596548 6.88511322c-.0997842.5987055-.4989212 1.197411-.9978425 1.596548-.4989212.399137-1.0976267.5987056-1.6963322.5987056h-10.0782093z"/><path d="m96.6909385 18.4600863h-4.8894283l4.2907228-18.4600863h4.889428z"/><path d="m102.079288 18.4600863 4.290723-18.4600863h11.674757c.798274 0 1.39698.1995685 1.696332.5987055.399137.399137.399137.9978425.299353 1.69633226l-.997842 4.09115426c-.099785.5987055-.498922 1.197411-.997843 1.7961165-.498921.49892125-1.297195.89805825-2.195253 1.09762676.798274.1995685 1.396979.5987055 1.796116 1.09762672.299353.4989213.498921 1.0976268.299353 1.6963323l-.898058 3.99137c-.199569.6984897-.498922 1.2971952-1.097627 1.6963322-.498921.399137-1.197411.5987055-1.995685.5987055h-11.874326zm11.27562-7.2842503c0-.0997842 0-.0997842 0-.1995685 0-.0997842-.099784-.0997842-.199568-.0997842h-4.390507l-.898058 4.0911542h4.390507c.199568 0 .299352-.0997842.299352-.2993527zm1.596548-7.18446599c0-.09978425 0-.09978425 0-.1995685s-.099784-.09978425-.199568-.09978425h-4.390507l-.898058 3.79180151h4.390507c.199568 0 .299352-.09978425.399137-.29935275z"/><path d="m126.326861 18.4600863h-4.889428l4.290722-18.4600863h4.889429z"/><path d="m147.880259 0c.598705 0 .997842.1995685 1.396979.5987055.299353.399137.399137.89805825.299353 1.49676376l-1.995685 8.48166124c-.099784.5987055-.498921 1.0976268-.997842 1.4967638-.498922.399137-1.097627.5987055-1.696333.5987055h-.099784l.997843 5.8872708h-4.789644l-.997843-5.8872708h-2.095469l-1.39698 5.8872708h-4.889428l4.290723-18.46008635h11.97411zm-3.692017 4.19093851c0-.09978425 0-.09978425 0-.1995685s-.099785-.09978425-.199569-.09978425h-4.091154l-1.097627 4.98921251h4.091154c.099785 0 .099785 0 .199569-.09978425s.099784-.09978425.099784-.1995685z"/><path d="m151.272923 14.4687163h7.084682c.199569 0 .299353-.0997843.399137-.1995685l.598706-2.6941748c0-.1995685 0-.1995685-.299353-.1995685h-4.889428c-.69849 0-1.097627-.1995685-1.496764-.5987055-.299353-.399137-.399137-.89805822-.299353-1.59654798l1.596548-6.98489751c.099784-.59870551.498921-1.19741101.997843-1.59654801.498921-.399137 1.097626-.5987055 1.696332-.5987055h9.878641l-.898059 3.99137001h-6.885113c-.199568 0-.299353.09978425-.399137.29935275l-.598705 2.69417476v.1995685c0 .09978425.099784.09978425.199568.09978425h4.889428c.69849 0 1.197411.1995685 1.496764.5987055s.399137.89805825.299353 1.59654801l-1.596548 6.88511322c-.099784.5987055-.498921 1.197411-.997843 1.596548-.498921.399137-1.097626.5987056-1.696332.5987056h-10.078209z"/><path d="m177.71575 18.4600863-2.09547-7.0846818-2.095469 2.4946063-1.097627 4.5900755h-4.889428l4.290723-18.4600863h4.889428l-1.796116 7.68338727 6.785329-7.68338727h5.388349l-7.28425 7.98274002 3.29288 10.47734628z"/></g><path d="m129.81931 130.318231c-.099785.099784-.299353.099784-.598706.099784h-4.190938c-.498922 0-.598706-.199568-.498922-.598705l3.392665-14.568501c.199568-.69849.399137-1.396979.798274-2.095469s.798274-1.297195 1.396979-1.796117c.598706-.498921 1.297196-.997842 2.09547-1.297195s1.696332-.498921 2.793959-.498921h9.080366c.199569 0 .399137 0 .399137.099784.099785.099784 0 .299353 0 .598706l-.798274 3.392664c-.099784.299353-.099784.399137-.199568.498921-.099784.099785-.299353.099785-.498921.099785h-7.384035c-.399137 0-.69849.099784-.997842.199568-.299353.099784-.498922.199569-.598706.399137-.199568.199569-.299353.299353-.399137.498921-.099784.199569-.199568.399137-.199568.598706l-.399137 1.895901h7.783171c.199569 0 .399137 0 .399137.099784.099784.099784 0 .299353 0 .598705l-.69849 3.093312c-.099784.498921-.299352.69849-.698489.69849h-7.783172l-1.696332 7.483819c-.299353.299352-.399137.498921-.498921.498921" fill="#fff"/><path d="m162.249191 120.040453c-.399137 1.696332-.898058 3.193096-1.596548 4.490291-.69849 1.297196-1.496764 2.494607-2.494606 3.392665-.997843.898058-2.09547 1.696332-3.492449 2.095469-1.297195.498921-2.793959.69849-4.490291.69849-1.596548 0-2.993528-.199569-3.99137-.69849-1.097627-.498921-1.895901-1.197411-2.394822-2.095469-.498922-.898058-.798274-2.095469-.898059-3.392665-.099784-1.297195.099785-2.793959.498922-4.490291.399137-1.596548.898058-3.093312 1.696332-4.390507.69849-1.297195 1.596548-2.494606 2.59439-3.392664.997843-.898059 2.195254-1.696333 3.392665-2.195254 1.297195-.498921 2.694175-.798274 4.290723-.798274s2.993527.299353 3.99137.798274c1.097626.498921 1.8959 1.197411 2.494606 2.195254.598705.898058.898058 2.095469.997842 3.392664-.099784 1.297195-.199568 2.793959-.598705 4.390507m-5.987055 0c.199568-.798274.299353-1.496764.299353-2.195253.099784-.69849 0-1.297196-.099785-1.796117-.099784-.498921-.399137-.898058-.798274-1.197411s-.898058-.498921-1.596548-.498921c-.598705 0-1.097626.099784-1.596548.399137-.498921.299353-.997842.69849-1.396979 1.197411s-.69849 1.097627-.997843 1.796116c-.299352.69849-.498921 1.39698-.698489 2.09547-.199569.898058-.299353 1.696332-.399137 2.494606-.099785.69849 0 1.396979.199568 1.895901.199569.498921.399137.898058.798274 1.197411.399137.299352.898058.399137 1.596548.399137s1.197411-.199569 1.696332-.498922c.498922-.299352.997843-.698489 1.297196-1.297195.399137-.498921.698489-1.097627.997842-1.796116.299353-.69849.598706-1.39698.69849-2.195254" fill="#fff"/><path d="m200.765912 119.142395c.498921.199568.898058.498921 1.197411.898058.299352.399137.498921.798274.698489 1.197411.099785.399137.199569.898058.199569 1.39698 0 .498921-.099784.997842-.199569 1.396979-.199568.997843-.598705 1.796117-1.197411 2.594391-.598705.798274-1.197411 1.496763-1.995685 1.995685-.798274.598705-1.696332.997842-2.59439 1.297195-.997843.299353-1.995685.498921-2.993528.498921h-7.783171c-.798274 0-1.297196-.199568-1.496764-.498921-.199569-.299353-.199569-.798274 0-1.496764l3.99137-16.863538c.199569-.69849.399137-1.097627.69849-1.496764.299353-.299353.898058-.498921 1.696332-.498921h7.783172c.898058 0 1.696332.099784 2.394822.299353.698489.199568 1.297195.498921 1.796116.997842.498921.399137.798274.997843.997843 1.696332.199568.69849.199568 1.496764-.099785 2.394822-.199568.798274-.598705 1.496764-1.197411 2.295038-.598705.69849-1.197411 1.297195-1.995685 1.696332zm-7.882956-1.796117h3.093312c.399137 0 .798274-.099784 1.197411-.299352.399137-.199569.598705-.598706.798274-1.197411.099784-.498922.099784-.798274-.199569-.997843-.199568-.199568-.498921-.399137-.997842-.399137h-3.193096zm3.99137 6.386192c.099784-.598705.099784-.997842-.199569-1.396979-.299352-.399137-.698489-.598706-1.396979-.598706h-3.492449l-.898058 3.891586h3.492449c.399137 0 .698489-.099784.997842-.199568.299353-.099785.498921-.299353.69849-.498922.199568-.199568.399137-.399137.498921-.598705.199569-.199569.299353-.399137.299353-.598706" fill="#fff"/><path d="m218.527508 130.517799h-9.180151c-1.197411 0-2.095469-.199568-2.793959-.498921s-1.197411-.798274-1.496764-1.297195c-.299352-.498921-.498921-1.197411-.498921-1.796117 0-.698489.099784-1.297195.199569-1.995685l2.195253-9.479503c.199569-.69849.399137-1.39698.798274-2.09547.399137-.698489.798274-1.297195 1.39698-1.796116.598705-.498921 1.297195-.997843 2.095469-1.297195.798274-.299353 1.696332-.498922 2.793959-.498922h8.781014c.199568 0 .399137 0 .399137.099785.099784.099784 0 .299352 0 .598705l-.798274 3.392665c-.099784.299352-.099784.399137-.199569.498921-.099784.099784-.299352.099784-.498921.099784h-7.084682c-.399137 0-.698489.099784-.997842.199569-.299353.099784-.498921.199568-.598706.399137-.199568.199568-.299352.299352-.399137.498921-.099784.199568-.199568.399137-.199568.598705l-.299353 1.297196h7.98274c.199569 0 .399137 0 .399137.099784v.598705l-.69849 3.093312c-.099784.498921-.399137.69849-.698489.69849h-7.98274l-.498922 2.195253c-.099784.399137-.099784.69849-.099784.898059 0 .199568.099784.399137.299353.498921.099784.099784.299353.199568.498921.199568h.69849 7.583603c.199568 0 .399137 0 .399137.099785.099784.099784 0 .299352 0 .598705l-.798274 3.392665c-.099784.399137-.299353.698489-.69849.698489" fill="#fff"/><path d="m240.779396 114.352751h-5.088997l-3.592233 15.466559c-.099784.199568-.099784.399137-.199568.498921-.099785.099784-.299353.099784-.598706.099784h-4.190938c-.498922 0-.598706-.199568-.498922-.598705l3.592233-15.466559h-4.989212c-.399137 0-.598706-.199569-.498921-.69849l.798274-3.29288c.099784-.299353.199568-.498921.299352-.598706.099785-.099784.299353-.099784.498922-.099784h15.666127c.199568 0 .399137 0 .498921.099784.099784.099785.099784.299353 0 .598706l-.798274 3.29288c-.199568.498921-.498921.69849-.898058.69849" fill="#fff"/><path d="m170.631068 119.142395-2.594391 10.676915c-.099784.199568-.099784.399137-.199568.498921s-.299353.099784-.598706.099784h-4.190938c-.498921 0-.598706-.199568-.498921-.598705l4.290722-17.861381c.199569-.898058.498922-1.596548.898059-1.895901s.997842-.498921 1.796116-.498921h1.596548.798274c.199569 0 .399137.099784.598706.199568.199568.099785.299352.199569.498921.399137.099784.199569.299353.399137.399137.69849l2.694175 6.386192 1.496763 3.592233h.199569l2.59439-10.676915c.099785-.199568.099785-.399137.199569-.498921s.299353-.099784.598705-.099784h4.190939c.498921 0 .598706.199568.498921.598705l-4.290723 17.861381c-.199568.69849-.399137 1.197411-.798274 1.696332-.399137.399137-.997842.69849-1.8959.69849h-1.596548c-.299353 0-.498922 0-.798274 0-.199569 0-.399137-.099784-.598706-.199568-.199568-.099785-.299353-.199569-.498921-.399137-.099784-.199569-.299353-.399137-.399137-.69849l-2.694175-6.286408-1.496764-3.692017z" fill="#fff"/><path d="m250.658037 97.688781s-.69849-2.4946062-1.197411-3.7918015c-1.596548 1.2971953-3.99137 3.0933118-5.587918 4.390507 0 0 .898058 1.9956855 1.396979 3.5922335 1.496764-1.297196 3.791802-2.993528 5.38835-4.190939" fill="#84c0ee"/><path d="m236.289105 96.6909385c-.898059-1.3969795-1.895901-2.8937432-3.093312-4.2907228-.099784-.0997842-.099784-.0997842-.199569-.1995685-1.995685 1.5965481-3.99137 3.0933118-6.086839 4.6898598.099784.0997843.099784.1995685.199569.1995685 1.097626 1.3969795 2.195253 2.793959 2.993527 4.1909385.099784.099784.099784.199569.199569.299353 1.995685-1.496764 3.99137-2.9935277 6.086839-4.4902915-.099784-.1995685-.099784-.2993527-.099784-.399137" fill="#84c0ee"/><path d="m201.66397 96.7907228c-1.39698-1.197411-2.893743-2.394822-4.390507-3.592233-.099784-.0997843-.299353-.1995685-.399137-.2993528-1.895901 1.4967638-3.791802 2.9935275-5.587918 4.4902913.299353.1995685.498921.399137.798274.5987055 1.496764 1.0976267 2.993527 2.2950382 4.390507 3.3926642.099784.099785.299353.199569.399137.299353 1.895901-1.396979 3.692017-2.8937432 5.587918-4.2907227-.399137-.1995685-.598706-.399137-.798274-.5987055" fill="#84c0ee"/><path d="m261.035599 86.8122977c-1.796117 1.3969795-3.692018 2.793959-5.488134 4.2907228.399137.8980582.798274 1.7961165 1.097627 2.6941748 1.796116-1.2971953 3.492448-2.6941748 5.288565-3.9913701-.199569-1.0976267-.498921-1.995685-.898058-2.9935275m-6.08684-9.4795037c-1.8959 1.4967637-3.791801 3.0933117-5.787486 4.5900755.598705.798274 1.297195 1.6963322 1.895901 2.5943905 1.8959-1.4967638 3.891585-2.9935275 5.787486-4.4902913-.598705-.8980582-1.297195-1.7961165-1.895901-2.6941747" fill="#84c0ee"/><path d="m175.720065 91.9012945c-1.696333-1.0976268-3.392665-2.2950378-5.188781-3.4924488-.099785 0-.099785-.0997842-.199569-.0997842-1.596548 1.2971952-3.193096 2.6941747-4.789644 3.99137.099784.0997842.199569.0997842.299353.1995685 1.696332 1.0976268 3.492449 2.1952535 5.188781 3.2928803.099784 0 .099784.0997842.199568.0997842 1.596548-1.2971952 3.193096-2.5943905 4.68986-3.7918015 0-.0997843-.099784-.1995685-.199568-.1995685" fill="#fff"/><path d="m167.038835 86.113808c-1.796117-1.197411-3.692017-2.2950378-5.488134-3.4924488-.099784 0-.099784-.0997842-.199568-.0997842-1.596548 1.3969795-3.193096 2.793959-4.789644 4.1909385.099784.0997842.199568.0997842.299352.1995685 1.796117 1.0976267 3.692018 2.1952535 5.488134 3.3926645.099784 0 .099784.0997842.199569.0997842 1.596548-1.2971952 3.193096-2.6941747 4.789644-3.99137-.099785-.1995685-.199569-.1995685-.299353-.2993527" fill="#fff"/><path d="m222.119741 80.925027c-1.596548-1.3969795-3.093312-2.6941748-4.68986-3.8915858-.099784 0-.099784-.0997842-.199568-.0997842-1.995685 1.6963322-4.091154 3.2928802-6.086839 4.9892125.099784.0997842.199568.1995685.299352.1995685 1.496764 1.197411 3.093312 2.4946062 4.590076 3.7918015.099784 0 .099784.0997842.199568.0997842 1.995685-1.596548 4.091155-3.193096 6.186624-4.8894282-.099784-.0997843-.199569-.1995685-.299353-.1995685" fill="#fff"/><path d="m229.803128 88.3090615c-1.297195-1.3969795-2.694174-2.793959-3.99137-4.0911543-.099784-.0997842-.099784-.0997842-.199568-.1995685-2.095469 1.596548-4.091154 3.193096-6.086839 4.8894283.099784.0997842.199568.1995685.299352.1995685 1.39698 1.2971952 2.694175 2.5943905 3.891586 3.8915858l.199569.1995685c1.995685-1.5965481 4.091154-3.0933118 6.086839-4.6898598-.099784 0-.199569-.0997843-.199569-.1995685" fill="#fff"/><path d="m211.542611 89.2071197c-1.496764-1.2971952-2.993528-2.4946062-4.490292-3.7918015-.099784-.0997842-.299352-.1995685-.399137-.2993527-2.095469 1.6963322-4.091154 3.2928802-6.186623 4.9892125.199568.1995685.498921.399137.798274.5987055 1.496764 1.197411 2.993527 2.394822 4.490291 3.592233.099784.0997843.299353.1995685.399137.399137 2.095469-1.596548 4.091154-3.193096 6.186624-4.789644-.399137-.2993528-.598706-.4989213-.798274-.6984898" fill="#fff"/><path d="m219.026429 96.3915858c-1.197411-1.2971953-2.494606-2.5943905-3.891585-3.8915858-.199569-.0997843-.299353-.2993528-.399137-.399137-1.995685 1.596548-4.091155 3.193096-6.08684 4.789644.199569.1995685.399137.399137.69849.5987055 1.39698 1.2971953 2.694175 2.4946063 3.791802 3.6920175.199568.099784.299352.299353.399137.399137 1.995685-1.496764 3.99137-3.093312 6.086839-4.5900757-.199569-.0997843-.399137-.2993528-.598706-.5987055" fill="#84c0ee"/><path d="m184.201726 97.7885653c-1.496764-1.0976268-3.093312-2.2950378-4.789644-3.3926645-.099784 0-.099784-.0997843-.199569-.0997843-1.496763 1.2971953-3.093311 2.4946063-4.590075 3.7918015.099784.0997843.199568.0997843.299353.1995685l4.789644 3.1930965c.099784 0 .099784.099784.199568.099784 1.496764-1.197411 2.993528-2.3948222 4.590076-3.5922332-.099785 0-.199569-.0997843-.299353-.1995685" fill="#84c0ee"/><path d="m203.260518 82.521575c-1.696332-1.2971953-3.392665-2.4946063-5.088997-3.6920173-.099784-.0997842-.299353-.1995685-.399137-.2993527-2.095469 1.6963322-4.091154 3.3926645-6.186623 5.0889967.299352.1995685.498921.399137.798274.5987055 1.596548 1.0976268 3.29288 2.2950378 4.989212 3.592233.099784.0997843.299353.1995685.399137.2993528 2.095469-1.6963323 4.190939-3.2928803 6.186624-4.9892125-.199569-.2993528-.399137-.399137-.69849-.5987055" fill="#fff"/><path d="m184.900216 84.2179072c-1.796117-1.197411-3.592233-2.394822-5.288566-3.592233-.099784-.0997842-.299352-.1995685-.399137-.2993527-1.8959 1.596548-3.891585 3.2928802-5.787486 4.8894282.299353.1995685.598705.399137.798274.4989213 1.696332 1.0976267 3.492449 2.2950377 5.288565 3.3926645.099784.0997842.299353.1995685.399137.2993527 1.895901-1.596548 3.891586-3.193096 5.787487-4.6898597-.299353-.0997843-.598706-.2993528-.798274-.4989213" fill="#fff"/><path d="m193.481661 90.3047465c-1.596548-1.197411-3.29288-2.394822-4.889428-3.592233-.099784-.0997843-.299353-.1995685-.399137-.2993528-1.895901 1.596548-3.791802 3.0933118-5.687702 4.6898598.299352.1995685.498921.399137.798274.5987055 1.596548 1.0976268 3.29288 2.2950378 4.889428 3.3926645.099784.0997843.299353.1995685.399137.2993528 1.895901-1.4967638 3.791802-2.9935276 5.687702-4.4902913-.299352-.1995685-.598705-.399137-.798274-.5987055" fill="#fff"/><path d="m239.981122 80.0269687c-1.097627-1.197411-2.394822-2.4946062-3.492449-3.4924487-1.895901 1.596548-3.791801 3.0933117-5.687702 4.5900755 1.197411 1.197411 2.394822 2.2950377 3.392664 3.4924487 1.895901-1.4967637 3.891586-2.9935275 5.787487-4.5900755" fill="#84c0ee"/><path d="m246.566882 88.50863c-.798274-1.197411-1.596548-2.4946063-2.59439-3.7918015-1.895901 1.4967637-3.891586 2.9935275-5.787487 4.4902912.997843 1.2971953 1.895901 2.4946063 2.594391 3.5922331 1.995685-1.2971953 3.891586-2.7939591 5.787486-4.2907228" fill="#fff"/><path d="m163.446602 101.779935c1.197411-.997842 2.494606-1.9956847 3.692017-2.9935272-1.496764-.9978425-3.193096-2.0954693-4.789644-3.0933118-1.297195 1.0976268-2.494606 2.0954693-3.791801 3.0933118 1.596548.9978425 3.29288 1.9956852 4.889428 2.9935272" fill="#84c0ee"/><path d="m154.565804 96.092233c1.197411-.8980582 2.295037-1.8959007 3.392664-2.8937432-1.496764-.9978426-3.093312-1.8959008-4.590075-2.8937433-1.197411.9978425-2.295038 1.995685-3.492449 2.9935275 1.596548.9978425 3.193096 1.8959008 4.68986 2.793959" fill="#fff"/><path d="m145.685005 90.7038835c1.097627-.9978425 2.195254-1.8959008 3.292881-2.8937433-1.596548-.9978425-3.093312-1.8959007-4.68986-2.8937432-1.097627.9978425-2.195254 1.995685-3.392665 2.9935275 1.696333.8980582 3.193096 1.8959007 4.789644 2.793959" fill="#84c0ee"/><path d="m127.923409 86.512945c-.997843.8980582-1.895901 1.7961165-2.893743 2.5943905 1.496763.798274 2.893743 1.6963322 4.290722 2.4946062.898059-.798274 1.895901-1.6963322 2.893744-2.4946062-1.496764-.8980583-2.893744-1.7961165-4.290723-2.5943905" fill="#84c0ee"/><path d="m136.903991 91.9012945c-.898058.798274-1.796116 1.596548-2.793959 2.394822 1.39698.798274 2.694175 1.4967638 4.091155 2.2950378.898058-.798274 1.796116-1.596548 2.694174-2.2950378-1.297195-.798274-2.59439-1.596548-3.99137-2.394822" fill="#84c0ee"/><path d="m145.884574 97.289644c-.898058.6984898-1.696332 1.4967638-2.594391 2.1952535 1.297196.6984895 2.594391 1.3969795 3.791802 2.1952535.798274-.69849 1.696332-1.396979 2.494606-2.0954692-1.097627-.798274-2.394822-1.596548-3.692017-2.2950378" fill="#84c0ee"/><g fill="#fff"><path d="m33.7270766 188.791802c2.6941747-5.38835 5.4881338-10.976268 8.1823085-16.364618-4.9892125 3.791802-9.978425 7.583603-15.0674218 11.275621 2.394822 1.696332 4.5900755 3.392664 6.8851133 5.088997"/><path d="m185 36.2216828c5.38835 7.1844661 10.976268 14.1693636 16.564186 21.1542611 2.59439.0997843 5.088996.1995685 7.683387.2993528-8.381877-10.1779936-16.364617-20.5555556-24.247573-31.1326861-7.98274 10.8764833-16.264833 21.4536138-24.846278 31.8311758 2.59439-.1995685 5.188781-.399137 7.882955-.4989212 5.787487-7.1844661 11.475189-14.2691478 16.963323-21.6531824"/><path d="m291.569579 142.591694c-12.073894-10.577131-23.848436-21.553398-35.22384-32.928803h-8.182309c13.37109 13.670442 27.340885 26.742179 41.809601 39.314995z"/><path d="m185 331.183927c-23.94822-31.831176-50.291262-61.566883-78.929342-88.907767h-8.4816612c31.9309602 30.035059 61.1677452 62.963862 87.4110032 98.586839 26.143474-35.622977 55.380259-68.55178 87.411003-98.586839h-8.481661c-28.63808 27.340884-54.981122 57.076591-78.929342 88.907767"/><path d="m334.975728 177.71575c-1.297195 1.097626-2.494606 2.095469-3.492449 2.793959l3.592233 9.180151c2.694175-1.995685 5.288566-3.99137 7.98274-5.987055-2.694174-1.995685-5.388349-3.99137-8.082524-5.987055"/><path d="m281.092233 226.31068 1.895901 6.086839c6.386192-5.787487 12.971952-11.475189 19.657497-17.063107h-9.080367c-4.190938 3.692017-8.381877 7.28425-12.473031 10.976268"/><path d="m113.554477 109.662891c-7.783172 7.783172-15.6661275 15.466559-23.848436 22.950378 1.995685.698489 3.8915858 1.596548 5.4881338 2.893743 9.0803672-8.381877 17.9611652-16.963323 26.6423952-25.744337h-8.282093z"/><path d="m67.3543689 215.434196c6.7853291 5.687703 13.4708738 11.475189 20.0566343 17.462244l1.4967638-6.485976c-4.0911543-3.692017-8.2820928-7.384035-12.4730313-10.976268z"/><path d="m229.204423 66.1569579c-66.855448-7.4838187-134.309601 7.0846818-130.9169365 15.6661273 1.0976268.798274 3.4924485 1.0976268 6.7853295 1.197411 23.149946-2.0954692 82.022653-15.7659115 124.131607-16.8635383"/></g><path d="m155.962783 255.846818c-.199568 0-.299353.099784-.399137.299352l-.798274 3.292881h8.282093l-.997843 4.190938h-13.171521l2.295038-9.778856c.099784-.498922.399137-.898059.997843-1.197411.498921-.299353.997842-.399137 1.596548-.399137h5.987055c.199568 0 .299352-.099785.399137-.299353l.598705-2.594391c0-.199568 0-.299352-.199568-.299352h-7.783172l.898058-3.99137h10.776699c.299353 0 .498922.099784.69849.199568.199569.099784.399137.299353.598706.498921.199568.199569.299352.399137.299352.69849.099785.199569.099785.498921 0 .798274l-1.496763 6.485976c-.099785.299353-.199569.498922-.399137.798274-.199569.299353-.399137.498922-.598706.69849-.299353.199569-.498921.299353-.798274.498921-.299353.099785-.598705.199569-.798274.199569h-5.987055z" fill="#84c0ee"/><path d="m183.303668 245.169903c.598705 0 1.097626.199568 1.396979.598705s.399137.898059.299353 1.496764l-3.29288 14.269148c-.099785.598705-.498922 1.097627-.997843 1.496764s-1.097627.598705-1.696332.598705h-9.579288c-.598706 0-.997843-.199568-1.39698-.598705-.299352-.399137-.399137-.898059-.299352-1.496764l3.29288-14.269148c.099784-.598705.498921-1.097627.997842-1.496764.498922-.399137 1.097627-.598705 1.696333-.598705zm-6.386192 14.5685c.199568 0 .299352-.099784.399137-.299352l2.295037-9.978425c0-.199569 0-.299353-.199568-.299353h-3.492449c-.199568 0-.299353.099784-.399137.299353l-2.295038 9.978425c0 .199568 0 .299352.199569.299352z" fill="#84c0ee"/><path d="m192.98274 255.846818c-.199568 0-.299353.099784-.399137.299352l-.798274 3.292881h8.282093l-.997843 4.190938h-13.171521l2.295038-9.778856c.099784-.498922.399137-.898059.997843-1.197411.498921-.299353.997842-.399137 1.596548-.399137h5.987055c.199568 0 .299352-.099785.399137-.299353l.598705-2.594391c0-.199568 0-.299352-.199568-.299352h-7.783172l.898058-3.99137h10.776699c.299353 0 .498922.099784.69849.199568.199569.099784.399137.299353.598706.498921.199568.199569.299352.399137.299352.69849.099785.199569.099785.498921 0 .798274l-1.496763 6.485976c-.099785.299353-.199569.498922-.399137.798274-.199569.299353-.399137.498922-.598706.69849-.299353.199569-.498921.299353-.798274.498921-.299353.099785-.598705.199569-.798274.199569h-5.987055z" fill="#84c0ee"/><path d="m211.841963 249.061489-.798274 3.29288h6.585761c.299353 0 .498921.099784.69849.199568.199568.099785.399137.299353.598705.498922.099784.199568.299353.399137.299353.698489.099784.199569.099784.498922 0 .798274l-1.596548 6.984898c-.099784.299353-.199569.498921-.399137.798274-.199569.299353-.399137.498921-.598706.69849-.199568.199568-.498921.399137-.798274.498921-.299352.099784-.598705.199568-.798274.199568h-10.976267l.898058-3.99137h7.882956c.199568 0 .299353-.099784.399137-.299352l.69849-2.993528c0-.199568 0-.299353-.199569-.299353h-7.783171l2.494606-10.976267h12.473031l-.898058 3.99137h-8.182309z" fill="#84c0ee"/><path d="m185 268.319849c-7.583603-.099784-25.744337.69849-34.724919 7.184466.099784 9.679072-.399137 23.549083 3.891586 35.722762 4.390507 12.273462 15.26699 27.340884 30.833333 31.93096 15.566343-4.590076 26.343042-19.657498 30.833333-31.93096 4.290723-12.273463 3.791802-26.04369 3.891586-35.722762-8.980582-6.386192-27.141316-7.184466-34.724919-7.184466" fill="#4d69a2"/><path d="m185 276.10302c9.080367 0 20.65534 1.097627 26.941748 3.991371 0 7.483818-.199569 19.857065-3.392665 28.538295-3.492449 9.37972-11.674757 21.852751-23.549083 26.343042-11.874326-4.490291-20.056634-16.963322-23.549083-26.343042-3.193096-8.68123-3.392665-20.954692-3.392665-28.538295 6.286408-2.893744 17.861381-3.991371 26.941748-3.991371m0-2.494606c-8.282093 0-22.451456.898058-29.536138 4.989213 0 7.28425 0 21.254045 3.592233 30.933117 3.99137 10.776699 13.071737 23.748652 25.943905 28.139159 12.872168-4.490291 21.952535-17.36246 25.943905-28.139159 3.592233-9.679072 3.592233-23.648867 3.592233-30.933117-7.084682-4.091155-21.254045-4.989213-29.536138-4.989213" fill="#fff"/><path d="m183.104099 295.461165-9.379719-15.26699c-4.889429.498921-9.080367 1.297195-12.173679 2.295038.099784 6.186623.399137 14.967637 2.295038 21.85275h13.870011zm-9.878641 2.793959-2.793959-4.091154-1.297195 1.496764v2.59439h-3.392664v-10.776699h3.392664v3.891586l3.492449-3.891586h3.692017l-3.791801 4.390507 4.290722 6.485976h-3.592233zm23.050162-18.060949-9.379719 15.26699 5.388349 8.880798h13.870011c1.796117-6.885113 2.195254-15.666127 2.295038-21.85275-3.093312-1.097627-7.28425-1.796117-12.173679-2.295038m-.698489 18.060949v-10.776699h3.29288v8.182309h4.68986l1.596548 2.694174h-9.579288zm-2.893744-18.360302c-2.494606-.199568-4.989212-.199568-7.683387-.199568-2.594391 0-5.188781.099784-7.683387.199568l7.683387 12.572816zm-7.683387 18.559871-7.783172 12.672599h-10.876483c3.592233 7.683388 9.978425 16.165049 18.659655 19.95685 8.581446-3.791801 15.067422-12.373247 18.659655-19.95685h-10.876483zm5.288565 25.744336h-3.392664v-4.390507h-3.692018v4.390507h-3.392664v-10.876483h3.392664v3.891586h3.692018v-3.891586h3.392664z" fill="#fff"/></g></svg>