<svg viewBox="0 0 1440 460" fill="none" xmlns="http://www.w3.org/2000/svg">
<g clip-path="url(#clip0_877_12295)">
<path d="M940.008 268.352C939.801 267.589 941.694 266.73 942.409 266.205C944.174 264.933 946.671 263.947 948.801 262.882C955.598 265.326 1040.39 213.314 1037.66 205.797C1041.41 203.921 1044.14 201.615 1047.58 199.548C1050.6 197.719 1053.4 195.747 1056.53 193.982C1058.34 192.965 1060.33 192.09 1062.14 191.072C1064.42 189.8 1066.41 188.337 1068.65 187.049C1070.05 186.254 1071.67 185.682 1072.99 184.823C1074.32 183.949 1075.74 183.138 1077.25 182.375C1078.32 181.834 1079.35 181.214 1080.46 180.737C1081.37 180.339 1082.24 180.117 1082.99 179.624C1084.66 178.526 1086.6 177.668 1088.41 176.634C1089.51 176.014 1090.53 175.489 1091.8 175.012C1092.21 174.853 1092.56 174.631 1092.98 174.472C1093.33 174.344 1093.76 174.281 1094.09 174.154C1094.31 174.074 1094.36 173.788 1094.65 173.724C1096.63 173.215 1100.04 175.283 1101.26 175.919C1103.98 177.318 1106.38 178.813 1109.32 180.069C1111.93 181.182 1114.49 182.343 1117.07 183.488C1121.49 185.443 1125.89 187.399 1130.38 189.307C1132.87 190.373 1135.13 191.645 1137.66 192.678C1140.27 193.744 1142.7 194.984 1145.07 196.24C1148.31 197.973 1151.52 199.659 1154.69 201.44C1157.34 202.951 1160.14 204.525 1163.04 205.86C1166.9 207.657 1170.99 209.247 1174.69 211.156C1178.17 212.952 1181.69 213.906 1186.22 214.495C1187.95 214.717 1189.67 214.908 1191.36 215.274C1192.26 215.465 1193.17 215.751 1194.11 215.846C1195.33 215.958 1196.37 216.069 1197.56 216.244C1199.53 216.546 1201.52 218.009 1203 218.788C1205.19 219.933 1207.34 221.062 1209.98 221.809C1211.34 222.191 1212.68 222.429 1213.9 222.97C1214.73 223.336 1215.53 223.686 1216.48 223.924C1218.12 224.338 1219.6 224.497 1221.38 224.528C1223.1 224.544 1224.77 224.385 1226.48 224.401C1227.85 224.401 1229.3 224.147 1230.63 224.226C1231.83 224.29 1232.46 224.719 1233.29 225.228C1234.88 226.198 1236.48 227.168 1238.14 228.09C1240.41 229.362 1243.07 230.221 1245.9 230.889C1247.63 231.302 1249.41 231.652 1251.26 231.827C1254.02 232.081 1256.96 232.097 1259.72 231.827C1261.34 231.652 1262.94 231.366 1264.58 231.175C1267.38 230.857 1270.21 230.746 1273.02 230.459C1275.33 230.237 1277.65 230.062 1279.99 229.967C1282.1 229.887 1284.22 230.571 1286.14 231.064C1288.85 231.747 1291.18 232.018 1294.13 231.859C1297.78 231.668 1301.27 231.207 1304.99 231.302C1308.26 231.382 1311.79 231.366 1315.04 231.7C1318.25 232.034 1321.43 232.765 1324.48 233.465C1328.63 234.403 1332.57 235.675 1336.85 236.391C1340.38 236.979 1343.77 237.265 1347.39 237.345C1354.2 237.52 1361.26 238.219 1367.88 239.332C1371.39 239.937 1374.89 240.732 1378.51 240.954C1381.17 241.113 1383.86 241.018 1386.5 241.352C1388.79 241.654 1391.06 242.465 1393.35 242.608C1395.18 242.719 1397.28 242.512 1399.04 242.846C1398.96 243.069 1394.76 244.071 1394.48 244.166C1389.23 245.756 1382.97 246.138 1377.35 247.013C1366.51 248.698 1356.38 251.513 1345.52 253.198C1340.51 253.914 1335.58 254.804 1330.75 255.854C1323.97 257.682 1317.12 259.399 1310.19 261.037C1303.25 262.23 1296.3 263.407 1289.36 264.551C1285.94 265.331 1282.53 266.11 1279.12 266.889C1272.9 268.606 1266.36 269.735 1259.52 270.292C1252 270.816 1244.59 271.612 1237.28 272.693C1233.7 273.202 1230.11 273.695 1226.51 274.203C1218.72 274.967 1210.88 274.951 1203 274.156C1195.67 273.551 1004.14 308.311 997.602 306.355C991.639 304.654 985.771 302.857 979.983 300.933C977.662 299.995 975.34 299.073 973.019 298.135C968.916 296.067 965.021 293.873 961.363 291.52C956.816 288.801 952.331 286.161 948.467 283.076C946.718 281.582 944.922 280.087 943.109 278.624C941.9 277.718 941.248 276.7 941.153 275.571C940.93 273.981 941.28 272.327 939.992 268.384L940.008 268.352Z" fill="white"/>
<path d="M1087.42 187.055C1087.15 187.23 1086.88 187.405 1086.61 187.579C1086.95 187.42 1087.23 187.246 1087.42 187.055Z" fill="#F9BFBC"/>
<path d="M1163.62 241.451C1165.39 240.497 1167.01 239.464 1168.55 238.414C1166.68 239.336 1164.96 240.322 1163.62 241.451Z" fill="#F9BFBC"/>
<path d="M1080.48 191.251C1082.58 190.09 1084.64 188.866 1086.61 187.578C1085.84 187.944 1084.79 188.246 1084.18 188.548C1082.67 189.327 1081.97 190.472 1080.46 191.235L1080.48 191.251Z" fill="#F9BFBC"/>
<path d="M1092.18 177.464C1091.35 178.275 1090.33 179.039 1089.4 179.802C1089.87 179.865 1092.59 178.625 1093.1 178.434C1094.33 177.973 1095.38 177.369 1096.81 177.162C1094.82 177.56 1093.32 179.134 1092.18 180.152C1090.99 181.217 1090.14 182.426 1089.16 183.57C1088.6 184.222 1087.71 184.493 1087.65 185.24C1087.6 185.765 1087.85 186.48 1087.52 186.957C1087.49 186.989 1087.46 187.037 1087.42 187.069C1089.36 185.781 1091.23 184.461 1092.91 183.109C1093.63 182.553 1094.82 181.599 1096.28 181.758C1097.7 181.901 1097.81 182.314 1097.22 182.887C1097.82 183.125 1099.46 183.173 1099.61 183.586C1099.78 184.079 1098 184.779 1097.46 185.017C1095.39 185.956 1092.93 186.576 1091.15 187.737C1090.11 188.42 1089.51 189.231 1088.39 189.883C1085.48 191.553 1083.66 193.652 1081.1 195.464C1079.16 196.848 1077.39 198.088 1075.05 199.217C1074.32 199.567 1071.87 200.696 1071.87 201.443C1073.1 201.284 1074.02 200.601 1074.99 200.155C1076.5 199.456 1078 198.772 1079.46 198.04C1082.96 196.275 1086.65 194.51 1089.75 192.491C1090.43 192.046 1091.03 191.744 1091.78 191.457C1092.62 191.123 1093.44 190.662 1094.45 190.487C1095.69 191.394 1099.64 189.152 1100.72 188.897C1100.91 189.39 1098.57 190.328 1098.33 190.44C1096.6 191.33 1094.93 192.268 1093.28 193.207C1091.58 194.176 1089.79 194.987 1088.7 196.212C1087.84 197.166 1086.93 198.104 1085.77 198.947C1084.53 199.837 1082.5 200.473 1081.51 201.459C1082.32 201.411 1082.99 200.855 1083.56 200.553C1085.17 199.726 1086.79 198.915 1088.38 198.088C1089.64 197.436 1091 196.975 1092.35 196.403C1091.15 197.468 1089.41 198.184 1088.05 199.154C1086.84 200.012 1085.8 201.046 1084.71 201.968C1082.23 204.051 1079.38 205.943 1076.93 208.058C1073.94 210.634 1070.67 213.131 1067.45 215.611C1069.58 214.625 1071.59 213.48 1073.69 212.479C1076.99 210.889 1080.43 209.378 1083.69 207.74C1084.63 207.279 1085.45 206.659 1086.49 206.261C1087 206.071 1087.6 205.991 1088.05 205.737C1086.45 206.786 1085.14 207.979 1083.85 209.171C1083.45 209.537 1080.97 211.191 1081.06 211.715C1082.83 211.318 1084.53 210.253 1085.98 209.585C1088.16 208.583 1090.13 207.486 1092.77 206.977C1097.71 206.007 1100.43 202.954 1105.36 201.984C1106.22 201.841 1107.09 201.73 1107.97 201.634C1108.94 201.3 1109.83 200.903 1110.67 200.442C1112.41 199.551 1113.95 198.502 1115.78 197.675C1116.84 197.198 1117.86 196.959 1119.04 196.641C1119.88 196.419 1120.88 195.751 1121.88 195.878C1121.9 196.752 1120.05 197.85 1119.48 198.549C1118.96 199.201 1119.42 200.664 1119.47 201.411C1119.56 202.795 1119.85 204.21 1119.74 205.593C1119.66 206.579 1119.04 207.343 1118.77 208.313C1118.05 210.904 1118.48 213.942 1118.38 216.565C1118.29 219.507 1118.05 222.465 1118.03 225.406C1120.63 223.8 1123.2 221.844 1126.94 221.161C1128.64 220.906 1130.39 220.827 1132.15 220.938C1133.84 220.795 1135.37 220.429 1136.72 219.825C1138.32 219.253 1140.06 218.887 1141.93 218.76C1143.44 218.712 1144.92 218.839 1146.37 219.125C1149.42 219.316 1151.9 218.155 1154.8 217.853C1157.01 217.631 1159.25 217.853 1161.49 217.662C1165.23 217.36 1168.93 216.899 1172.65 216.533C1175.33 216.279 1178.16 215.818 1180.88 215.77C1181.07 216.565 1180 217.44 1179.43 218.076C1181.43 217.233 1183.55 215.738 1186.15 215.818C1187.46 215.866 1189.08 216.215 1190.34 216.343C1191.77 216.502 1193.15 216.613 1194.6 216.661C1193.53 217.837 1192.13 218.76 1191.62 220.111C1190.88 222.083 1189.34 223.498 1187.27 225.056C1183.32 228.014 1179.11 230.844 1175.06 233.754C1172.88 235.313 1170.81 236.903 1168.6 238.413C1171.35 237.062 1174.45 235.885 1177.19 234.724C1182.8 232.307 1188.32 229.795 1193.95 227.41C1196.75 226.217 1200.08 224.611 1203.39 223.927C1201.91 226.615 1197.67 228.571 1195.14 230.86C1198.59 229.429 1202.06 227.998 1205.52 226.583C1206.7 226.106 1208.18 225.311 1209.64 225.215C1210.74 225.136 1213.9 225.406 1214.32 225.422C1216.56 225.502 1219.77 225.215 1221.74 225.947C1221.52 226.678 1221.06 227.33 1220.37 227.919C1223.03 226.662 1225.67 225.374 1228.67 224.42C1228.93 224.866 1229.36 224.882 1230.12 225.041C1230.39 226.217 1229.71 227.251 1228.07 228.109C1226.37 229.811 1224.37 231.369 1222.08 232.768C1215.29 237.284 1207.88 241.546 1200.31 245.585C1206.78 242.214 1213.49 239.018 1220.44 235.996C1223.78 233.723 1227.78 232.164 1232.44 231.337C1232.67 232.021 1232.97 232.689 1233.33 233.341C1234.24 233.595 1235.18 233.691 1236.18 233.627C1237.83 233.707 1239.69 234.072 1241.38 234.104C1241.35 234.104 1241.33 234.072 1241.3 234.056C1241.4 234.056 1241.95 234.088 1242.05 234.104C1241.82 234.104 1241.6 234.104 1241.36 234.104C1242.24 234.693 1241.24 235.678 1240.57 236.076C1239.87 236.473 1239.53 236.791 1239.01 237.237C1238.41 237.761 1237.59 238.016 1236.86 238.445C1235.5 239.24 1234.43 240.226 1233.21 241.069C1232.33 241.673 1230.42 242.166 1229.93 242.882C1230.79 242.993 1232.71 242.166 1233.38 241.927C1235.94 241.021 1238.55 240.131 1241.25 239.399C1243.64 238.747 1245.75 237.92 1248.22 237.38C1250 236.982 1251.78 236.155 1253.64 235.981C1254.1 235.933 1254.55 236.012 1254.97 235.965C1255.28 235.933 1255.37 235.758 1255.71 235.71C1256.66 235.599 1257.49 235.79 1258.19 236.155C1259.7 236.95 1262.4 237.65 1264.45 237.428C1267.11 237.141 1268.94 235.44 1271.45 234.852C1272.77 234.533 1274.14 234.39 1275.41 234.025C1277.89 233.325 1279.81 231.655 1281.99 230.574C1282.25 230.447 1282.52 230.32 1282.79 230.193C1281.9 230.018 1280.99 229.922 1280.1 229.954C1277.76 230.049 1275.44 230.224 1273.13 230.447C1270.32 230.717 1267.49 230.829 1264.69 231.162C1263.07 231.353 1261.46 231.639 1259.82 231.814C1257.09 232.101 1254.15 232.085 1251.37 231.814C1249.52 231.639 1247.74 231.29 1246.01 230.876C1243.16 230.208 1240.52 229.35 1238.25 228.078C1236.59 227.155 1234.99 226.17 1233.4 225.215C1232.55 224.707 1231.93 224.277 1230.74 224.214C1229.39 224.15 1227.96 224.404 1226.59 224.389C1224.87 224.389 1223.2 224.532 1221.49 224.516C1219.72 224.5 1218.23 224.325 1216.59 223.912C1215.65 223.673 1214.84 223.323 1214.01 222.957C1212.79 222.417 1211.44 222.178 1210.09 221.797C1207.45 221.065 1205.3 219.936 1203.11 218.775C1201.61 217.996 1199.64 216.533 1197.67 216.231C1196.47 216.056 1195.44 215.945 1194.22 215.834C1193.26 215.754 1192.37 215.452 1191.47 215.261C1189.78 214.912 1188.06 214.705 1186.33 214.482C1181.8 213.894 1178.28 212.94 1174.8 211.143C1171.1 209.235 1166.99 207.629 1163.15 205.848C1160.25 204.512 1157.47 202.922 1154.8 201.427C1151.63 199.646 1148.42 197.961 1145.18 196.228C1142.81 194.972 1140.38 193.747 1137.77 192.666C1135.24 191.632 1132.98 190.36 1130.49 189.295C1126 187.387 1121.6 185.431 1117.18 183.475C1114.6 182.33 1112.04 181.169 1109.43 180.056C1106.49 178.8 1104.07 177.305 1101.37 175.906C1100.35 175.381 1097.86 173.887 1095.9 173.664C1095.33 174.189 1094.77 174.714 1094.25 175.238C1093.52 175.954 1093.04 176.765 1092.31 177.48L1092.18 177.464Z" fill="#D5DBE3"/>
<path d="M1241.22 234.039C1241.22 234.039 1241.27 234.071 1241.3 234.087C1241.52 234.087 1241.76 234.087 1241.98 234.087C1241.89 234.087 1241.33 234.055 1241.23 234.039H1241.22Z" fill="#F9BFBC"/>
<path d="M1398.78 228.91C1400.24 228.274 1401.74 227.575 1403.22 226.875C1402.74 227.066 1402.28 227.273 1401.82 227.479C1400.94 227.877 1399.48 228.417 1398.77 228.926L1398.78 228.91Z" fill="#F9BFBC"/>
<path d="M123.941 268.352C124.148 267.589 122.256 266.73 121.54 266.205C119.775 264.933 117.279 263.947 115.148 262.882C108.352 265.326 23.5639 213.314 26.2924 205.797C22.5398 203.921 19.8048 201.615 16.3701 199.548C13.3489 197.719 10.5503 195.747 7.41782 193.982C5.60509 192.965 3.61746 192.09 1.80473 191.072C-0.469124 189.8 -2.45676 188.337 -4.69882 187.049C-6.09811 186.254 -7.72003 185.682 -9.03983 184.823C-10.3755 183.949 -11.7907 183.138 -13.3013 182.375C-14.3667 181.834 -15.4003 181.214 -16.5133 180.737C-17.4197 180.339 -18.2943 180.117 -19.0416 179.624C-20.7112 178.526 -22.6512 177.668 -24.4639 176.634C-25.5611 176.014 -26.5788 175.489 -27.8508 175.012C-28.2643 174.853 -28.6141 174.631 -29.0275 174.472C-29.3773 174.344 -29.8067 174.281 -30.1406 174.154C-30.3632 174.074 -30.4109 173.788 -30.6971 173.724C-32.6848 173.215 -36.0876 175.283 -37.312 175.919C-40.0311 177.318 -42.4321 178.813 -45.3739 180.069C-47.9816 181.182 -50.5417 182.343 -53.1177 183.488C-57.5382 185.443 -61.9428 187.399 -66.4269 189.307C-68.9234 190.373 -71.1814 191.645 -73.7096 192.678C-76.3174 193.744 -78.7503 194.984 -81.1195 196.24C-84.3634 197.973 -87.5754 199.659 -90.7397 201.44C-93.3952 202.951 -96.1938 204.525 -99.0878 205.86C-102.952 207.657 -107.038 209.247 -110.743 211.156C-114.226 212.952 -117.74 213.906 -122.272 214.495C-124.005 214.717 -125.722 214.908 -127.408 215.274C-128.314 215.465 -129.22 215.751 -130.159 215.846C-131.383 215.958 -132.417 216.069 -133.609 216.244C-135.581 216.546 -137.568 218.009 -139.047 218.788C-141.242 219.933 -143.388 221.062 -146.028 221.809C-147.395 222.191 -148.731 222.429 -149.955 222.97C-150.782 223.336 -151.577 223.686 -152.531 223.924C-154.169 224.338 -155.648 224.497 -157.429 224.528C-159.146 224.544 -160.816 224.385 -162.533 224.401C-163.901 224.401 -165.348 224.147 -166.683 224.226C-167.876 224.29 -168.512 224.719 -169.339 225.228C-170.929 226.198 -172.535 227.168 -174.189 228.09C-176.463 229.362 -179.118 230.221 -181.948 230.889C-183.682 231.302 -185.463 231.652 -187.307 231.827C-190.074 232.081 -193.016 232.097 -195.767 231.827C-197.388 231.652 -198.994 231.366 -200.632 231.175C-203.431 230.857 -206.261 230.746 -209.076 230.459C-211.381 230.237 -213.703 230.062 -216.04 229.967C-218.155 229.887 -220.27 230.571 -222.194 231.064C-224.897 231.747 -227.235 232.018 -230.177 231.859C-233.834 231.668 -237.316 231.207 -241.037 231.302C-244.313 231.382 -247.843 231.366 -251.086 231.7C-254.299 232.034 -257.479 232.765 -260.532 233.465C-264.682 234.403 -268.625 235.675 -272.903 236.391C-276.433 236.979 -279.82 237.265 -283.445 237.345C-290.251 237.52 -297.311 238.219 -303.926 239.332C-307.44 239.937 -310.938 240.732 -314.564 240.954C-317.219 241.113 -319.906 241.018 -322.546 241.352C-324.836 241.654 -327.11 242.465 -329.399 242.608C-331.228 242.719 -333.327 242.512 -335.092 242.846C-335.013 243.069 -330.815 244.071 -330.528 244.166C-325.281 245.756 -319.016 246.138 -313.403 247.013C-302.558 248.698 -292.429 251.513 -281.569 253.198C-276.56 253.914 -271.631 254.804 -266.797 255.854C-260.023 257.682 -253.17 259.399 -246.237 261.037C-239.304 262.23 -232.355 263.407 -225.406 264.551C-221.987 265.331 -218.585 266.11 -215.166 266.889C-208.949 268.606 -202.413 269.735 -195.576 270.292C-188.055 270.816 -180.645 271.612 -173.33 272.693C-169.752 273.202 -166.159 273.695 -162.565 274.203C-154.773 274.967 -146.934 274.951 -139.047 274.156C-131.717 273.551 59.812 308.311 66.3473 306.355C72.3102 304.654 78.1777 302.857 83.9657 300.933C86.2873 299.995 88.6089 299.073 90.9304 298.135C95.0329 296.067 98.9287 293.873 102.586 291.52C107.134 288.801 111.618 286.161 115.482 283.076C117.231 281.582 119.028 280.087 120.84 278.624C122.049 277.718 122.701 276.7 122.796 275.571C123.019 273.981 122.669 272.327 123.957 268.384L123.941 268.352Z" fill="white"/>
<mask id="mask0_877_12295" style="mask-type:luminance" maskUnits="userSpaceOnUse" x="-420" y="-120" width="1386" height="509">
<path d="M965.411 -120H-420V388.864H965.411V-120Z" fill="white"/>
</mask>
<g mask="url(#mask0_877_12295)">
<path d="M492.618 244.962C488.54 244.994 485.189 243.887 481.68 242.718C476.369 240.979 471.058 239.114 466.158 236.996C457.718 233.361 449.182 229.694 441.09 225.774C434.641 222.644 428.16 219.578 421.743 216.416C414.756 213.002 407.422 209.936 400.404 206.553C396.295 204.562 392.66 202.412 388.613 200.389C383.081 197.607 377.011 195.299 371.226 192.739C366.042 190.431 362.059 187.491 356.558 185.405C352.417 183.824 349.098 181.485 345.715 179.367C342.238 177.217 338.033 175.384 334.05 173.582C330.889 172.159 327.506 171.053 324.598 169.44C321.184 167.544 317.928 165.71 314.166 164.098C307.749 161.316 301.11 158.376 295.452 155.025C290.33 151.99 286.252 148.798 279.93 146.743C277.053 145.826 275.062 143.044 271.553 144.562C265.451 147.185 260.204 151.421 255.399 154.804C247.464 160.368 238.012 164.857 229.793 170.262C220.214 176.585 211.268 183.255 200.551 188.882C195.841 191.348 191.099 193.782 185.915 195.868C177.632 199.188 169.16 202.001 161.984 206.206C153.038 211.453 144.218 216.321 134.26 220.905C127.369 224.098 120.446 227.228 113.744 230.579C104.07 235.384 94.7764 239.904 86.5256 245.658C80.2663 250.02 75.3348 254.383 67.5898 257.765C64.1756 259.251 61.457 261.021 58.3906 262.697C59.5919 262.95 61.8996 262.665 63.0376 262.602C67.7162 262.412 72.2368 262.476 76.9155 262.539C91.2358 262.792 105.398 264.625 119.687 265.289C129.961 265.763 140.33 265.574 150.635 265.732C164.671 265.953 178.676 265.637 192.743 265.352C212.849 264.941 232.954 264.499 253.059 263.772C267.822 263.234 282.016 262.792 296.779 263.108C325.483 263.708 354.756 265.099 383.492 262.539C401.005 260.99 418.139 258.176 435.715 256.975C443.524 256.438 451.3 256.185 459.14 255.71C467.897 255.173 476.685 254.035 485.442 253.751C487.149 253.687 488.729 253.751 490.405 253.529C492.839 253.213 495.083 252.423 492.649 244.962H492.618Z" fill="#D5DBE3"/>
<path d="M255.937 220.401C256.822 220.496 257.676 220.59 258.561 220.685C267.191 221.634 275.885 223.025 284.673 223.404C282.934 223.119 279.994 220.464 279.109 219.832C276.138 217.714 273.103 215.69 270.922 213.225C273.577 211.613 280.374 213.098 283.345 213.573C285.242 213.889 287.929 214.426 289.921 213.825C289.826 213.32 289.352 212.814 289.004 212.403C303.387 216.449 317.487 220.748 331.522 225.237C330.448 223.752 326.812 222.013 324.884 220.938C321.786 219.199 318.846 217.492 315.874 215.659C311.354 212.877 306.707 210.158 302.218 207.345C298.804 205.195 293.177 202.729 290.648 200.011C292.165 200.264 293.398 200.928 294.631 201.465C299.531 203.583 304.684 205.29 310.216 206.744C324.631 210.538 339.71 214.616 352.292 220.338C349.541 219.01 347.139 217.429 344.547 215.975C340.595 213.794 336.075 212.182 332.028 210.095C327.666 207.851 323.272 205.701 318.972 203.425C313.978 200.864 309.078 198.272 304.273 195.617C300.827 195.174 299.373 194.352 299.91 193.119C309.71 197.261 319.352 201.56 329.341 205.543C328.993 205.385 337.086 209.052 339.647 208.831C336.802 205.701 330.542 203.551 325.895 201.591C320.174 199.157 309.331 195.111 309.71 190.306C309.805 189.105 310.469 187.777 309.331 186.797C308.161 186.259 306.991 185.69 305.822 185.153C303.229 184.047 300.764 182.845 298.424 181.581C296.749 180.696 294.22 179.621 293.272 178.325C302.376 181.075 311.417 184.047 319.858 187.492C326.717 190.274 333.229 193.878 340.722 196.028C342.365 196.502 343.788 196.85 345.653 196.628C343.44 195.206 340.627 194.036 338.066 192.835C335.664 191.697 333.356 190.622 331.175 189.389C326.401 186.639 321.154 184.426 316.064 181.897C312.523 180.127 309.805 178.261 306.738 176.27C304.367 174.753 301.396 173.709 298.93 172.224C295.737 170.295 292.45 168.715 288.846 167.071C288.498 166.913 287.897 166.597 287.234 166.249C288.814 166.565 290.49 166.818 291.849 167.166C295.073 167.987 297.855 169.916 301.333 170.358C300.606 169.536 298.108 168.999 296.907 168.367C294.03 166.849 292.228 164.953 289.699 163.277C283.819 159.357 278.224 155.248 273.166 150.885C274.905 151.486 277.023 151.96 278.73 152.624C280.374 153.256 286.222 156.86 287.992 156.006C286.443 154.268 284.294 152.719 282.207 151.138C279.836 149.305 277.908 147.408 275.442 145.638C274.683 145.1 273.893 144.594 273.071 144.12C275.695 143.836 277.497 145.922 279.931 146.712C286.254 148.767 290.332 151.96 295.453 154.995C301.111 158.346 307.75 161.286 314.167 164.068C317.929 165.711 321.185 167.513 324.599 169.41C327.508 171.022 330.89 172.129 334.051 173.551C338.035 175.353 342.239 177.187 345.716 179.336C349.131 181.423 352.418 183.794 356.559 185.374C362.06 187.461 366.043 190.401 371.228 192.708C377.013 195.269 383.082 197.577 388.614 200.358C392.661 202.382 396.296 204.531 400.406 206.523C407.424 209.905 414.789 212.94 421.744 216.386C428.161 219.547 434.642 222.614 441.091 225.743C449.184 229.663 457.719 233.33 466.159 236.966C471.091 239.084 476.402 240.949 481.681 242.687C485.19 243.857 488.541 244.964 492.619 244.932C495.053 252.392 492.809 253.183 490.374 253.499C488.699 253.72 487.118 253.657 485.411 253.72C476.623 253.973 467.835 255.143 459.11 255.68C451.302 256.154 443.493 256.407 435.685 256.945C418.109 258.177 400.975 260.959 383.462 262.508C354.726 265.069 325.421 263.678 296.749 263.077C281.986 262.761 267.792 263.204 253.029 263.741C234.03 264.437 214.999 264.848 195.969 265.259C209.436 254.447 222.966 243.731 237.223 233.267C242.945 228.683 249.172 224.384 255.906 220.369L255.937 220.401Z" fill="white"/>
<path d="M287.202 166.309C285.558 165.993 283.978 165.582 282.84 164.981C284.01 164.823 285.811 165.614 287.202 166.309Z" fill="#F9BFBC"/>
<path d="M1056.08 309.135C1056.49 307.617 1052.73 305.91 1051.3 304.867C1047.79 302.338 1042.83 300.378 1038.6 298.292C1032.59 295.289 867.92 187.807 861.946 184.804C854.485 181.073 849.048 176.489 842.22 172.38C836.213 168.744 830.649 164.824 824.422 161.315C820.818 159.292 816.867 157.554 813.263 155.53C808.742 153.001 804.791 150.093 800.333 147.533C797.551 145.952 794.327 144.814 791.703 143.107C789.048 141.368 786.234 139.756 783.231 138.239C781.113 137.164 779.058 135.931 776.845 134.982C775.043 134.192 773.305 133.75 771.819 132.77C768.5 130.588 764.643 128.881 761.039 126.827C758.858 125.594 756.835 124.55 754.306 123.602C753.484 123.286 752.788 122.843 751.966 122.527C751.271 122.274 750.417 122.148 749.754 121.895C749.311 121.737 749.216 121.168 748.647 121.041C744.696 120.03 737.931 124.139 735.496 125.404C730.091 128.186 725.317 131.157 719.469 133.655C714.284 135.868 709.195 138.175 704.074 140.451C695.285 144.34 686.529 148.228 677.614 152.022C672.651 154.14 668.162 156.669 663.136 158.723C657.951 160.841 653.115 163.307 648.404 165.804C641.956 169.25 635.57 172.601 629.279 176.142C624 179.145 618.436 182.274 612.682 184.93C605.001 188.502 596.876 191.663 589.511 195.457C582.587 199.029 575.601 200.926 566.592 202.095C563.146 202.538 559.732 202.917 556.381 203.644C554.579 204.024 552.777 204.593 550.912 204.782C548.478 205.004 546.423 205.225 544.052 205.573C540.132 206.173 536.181 209.082 533.241 210.631C528.878 212.907 524.61 215.151 519.363 216.637C516.644 217.396 513.989 217.87 511.555 218.945C509.911 219.672 508.33 220.367 506.433 220.842C503.177 221.663 500.237 221.98 496.697 222.043C493.283 222.074 489.963 221.758 486.549 221.79C483.831 221.79 480.954 221.284 478.298 221.442C475.928 221.569 474.663 222.422 473.019 223.434C469.858 225.362 466.665 227.29 463.377 229.124C458.857 231.653 453.578 233.36 447.951 234.688C444.505 235.51 440.964 236.205 437.297 236.553C431.797 237.059 425.948 237.09 420.479 236.553C417.255 236.205 414.062 235.636 410.806 235.257C405.242 234.625 399.615 234.403 394.02 233.834C389.436 233.392 384.821 233.044 380.174 232.854C375.969 232.696 371.765 234.055 367.94 235.035C362.566 236.395 357.919 236.932 352.07 236.616C344.799 236.237 337.876 235.32 330.479 235.51C323.967 235.668 316.949 235.636 310.5 236.3C304.114 236.964 297.792 238.418 291.722 239.809C283.472 241.674 275.632 244.203 267.128 245.626C260.11 246.795 253.377 247.364 246.169 247.522C232.639 247.87 218.603 249.261 205.452 251.474C198.466 252.675 191.511 254.256 184.304 254.698C179.024 255.014 173.682 254.825 168.434 255.489C163.882 256.089 159.362 257.702 154.809 257.986C151.174 258.207 147.001 257.796 143.492 258.46C143.65 258.903 151.996 260.894 152.565 261.084C162.997 264.245 175.452 265.004 186.611 266.743C208.171 270.094 228.308 275.689 249.899 279.04C259.857 280.462 269.657 282.233 279.267 284.319C292.734 287.955 306.359 291.369 320.142 294.625C333.925 296.996 347.739 299.335 361.554 301.611C368.351 303.16 375.116 304.709 381.912 306.258C394.273 309.672 407.265 311.917 420.859 313.023C435.811 314.066 450.543 315.647 465.084 317.797C472.197 318.808 479.342 319.788 486.486 320.8C501.976 322.317 517.561 322.286 533.241 320.705C547.814 319.504 928.585 388.608 941.577 384.72C953.432 381.337 965.097 377.765 976.604 373.94C981.219 372.075 985.834 370.241 990.45 368.376C998.606 364.267 1006.35 359.904 1013.62 355.226C1022.66 349.82 1031.58 344.572 1039.26 338.439C1042.74 335.468 1046.31 332.496 1049.91 329.588C1052.32 327.786 1053.61 325.763 1053.8 323.518C1054.24 320.357 1053.55 317.069 1056.11 309.23L1056.08 309.135Z" fill="white"/>
<path d="M763 147.531C763.537 147.879 764.075 148.227 764.612 148.574C763.948 148.258 763.379 147.911 763 147.531Z" fill="#F9BFBC"/>
<path d="M611.515 255.679C608.006 253.782 604.781 251.727 601.715 249.641C605.445 251.474 608.859 253.434 611.515 255.679Z" fill="#F9BFBC"/>
<path d="M776.812 155.881C772.639 153.573 768.529 151.139 764.609 148.578C766.158 149.305 768.245 149.906 769.446 150.507C772.449 152.056 773.84 154.332 776.843 155.849L776.812 155.881Z" fill="#F9BFBC"/>
<path d="M753.546 128.438C755.19 130.05 757.213 131.568 759.079 133.085C758.13 133.212 752.725 130.746 751.713 130.367C749.279 129.45 747.192 128.248 744.347 127.837C748.299 128.628 751.27 131.757 753.546 133.781C755.917 135.899 757.593 138.301 759.553 140.577C760.659 141.873 762.43 142.411 762.556 143.897C762.651 144.94 762.145 146.362 762.809 147.311C762.872 147.374 762.935 147.469 762.999 147.532C759.142 144.971 755.443 142.348 752.092 139.661C750.67 138.554 748.299 136.657 745.39 136.973C742.577 137.258 742.356 138.08 743.525 139.218C742.324 139.692 739.068 139.787 738.784 140.609C738.436 141.589 741.976 142.98 743.051 143.454C747.161 145.319 752.061 146.552 755.601 148.86C757.656 150.219 758.857 151.831 761.07 153.127C766.855 156.447 770.491 160.619 775.58 164.223C779.437 166.974 782.946 169.439 787.593 171.684C789.047 172.379 793.915 174.624 793.915 176.11C791.481 175.793 789.648 174.434 787.719 173.549C784.716 172.158 781.745 170.799 778.836 169.344C771.882 165.836 764.548 162.327 758.383 158.312C757.024 157.427 755.823 156.826 754.337 156.257C752.661 155.593 751.049 154.676 749.026 154.329C746.56 156.131 738.72 151.673 736.571 151.167C736.191 152.147 740.838 154.013 741.312 154.234C744.758 156.004 748.078 157.869 751.365 159.734C754.748 161.663 758.288 163.275 760.47 165.709C762.177 167.606 763.979 169.471 766.286 171.146C768.752 172.917 772.798 174.181 774.758 176.141C773.146 176.046 771.818 174.94 770.68 174.339C767.487 172.695 764.263 171.083 761.102 169.439C758.604 168.143 755.886 167.226 753.199 166.088C755.601 168.206 759.047 169.629 761.766 171.557C764.168 173.264 766.223 175.319 768.404 177.153C773.336 181.294 778.994 185.056 783.863 189.26C789.806 194.382 796.318 199.345 802.704 204.276C798.468 202.316 794.484 200.04 790.312 198.049C783.736 194.887 776.908 191.884 770.427 188.628C768.562 187.711 766.918 186.478 764.864 185.688C763.852 185.309 762.651 185.151 761.766 184.645C764.927 186.731 767.551 189.102 770.111 191.473C770.902 192.2 775.833 195.488 775.643 196.531C772.135 195.741 768.752 193.623 765.875 192.295C761.544 190.303 757.624 188.122 752.377 187.111C742.545 185.182 737.14 179.113 727.34 177.184C725.633 176.9 723.894 176.679 722.155 176.489C720.227 175.825 718.457 175.035 716.781 174.118C713.336 172.348 710.269 170.261 706.634 168.617C704.516 167.669 702.493 167.195 700.153 166.563C698.478 166.12 696.486 164.792 694.495 165.045C694.463 166.784 698.13 168.965 699.268 170.356C700.311 171.652 699.395 174.56 699.3 176.046C699.11 178.797 698.541 181.61 698.762 184.36C698.92 186.32 700.153 187.838 700.691 189.766C702.113 194.919 701.26 200.957 701.449 206.173C701.639 212.021 702.113 217.901 702.145 223.749C696.992 220.556 691.871 216.668 684.442 215.309C681.059 214.803 677.582 214.645 674.073 214.866C670.722 214.582 667.687 213.855 665 212.653C661.807 211.515 658.362 210.788 654.632 210.535C651.628 210.441 648.688 210.693 645.812 211.262C639.742 211.642 634.811 209.334 629.057 208.733C624.663 208.291 620.206 208.733 615.748 208.354C608.319 207.753 600.954 206.837 593.556 206.11C588.246 205.604 582.619 204.687 577.213 204.592C576.833 206.173 578.952 207.912 580.09 209.176C576.106 207.501 571.902 204.529 566.718 204.687C564.125 204.782 560.901 205.477 558.404 205.73C555.558 206.046 552.808 206.268 549.931 206.362C552.049 208.702 554.831 210.535 555.843 213.222C557.329 217.142 560.395 219.956 564.505 223.054C572.345 228.934 580.722 234.561 588.783 240.346C593.114 243.444 597.223 246.605 601.618 249.608C596.149 246.921 589.984 244.582 584.547 242.274C573.388 237.469 562.418 232.474 551.227 227.732C545.664 225.362 539.025 222.169 532.45 220.809C535.39 226.152 543.83 230.04 548.857 234.592C541.997 231.747 535.105 228.902 528.214 226.089C525.874 225.14 522.934 223.56 520.026 223.37C517.845 223.212 511.554 223.749 510.732 223.781C506.275 223.939 499.889 223.37 495.969 224.824C496.412 226.278 497.328 227.574 498.688 228.744C493.409 226.247 488.161 223.686 482.186 221.789C481.68 222.674 480.827 222.706 479.309 223.022C478.772 225.362 480.131 227.416 483.387 229.123C486.77 232.506 490.753 235.604 495.305 238.386C508.804 247.364 523.535 255.836 538.583 263.865C525.716 257.164 512.376 250.809 498.561 244.803C491.923 240.283 483.956 237.185 474.694 235.541C474.251 236.9 473.651 238.228 472.924 239.524C471.122 240.03 469.257 240.219 467.265 240.093C463.977 240.251 460.279 240.978 456.928 241.041C456.991 241.041 457.023 240.978 457.086 240.946C456.896 240.946 455.79 241.01 455.6 241.041C456.043 241.041 456.485 241.041 456.96 241.041C455.221 242.211 457.212 244.171 458.54 244.961C459.931 245.752 460.595 246.384 461.638 247.269C462.839 248.312 464.452 248.818 465.906 249.671C468.624 251.252 470.743 253.212 473.177 254.887C474.915 256.089 478.709 257.069 479.689 258.491C477.982 258.713 474.157 257.069 472.829 256.595C467.739 254.793 462.555 253.022 457.181 251.568C452.439 250.272 448.235 248.628 443.335 247.553C439.794 246.763 436.253 245.119 432.555 244.772C431.638 244.677 430.753 244.835 429.899 244.74C429.299 244.677 429.109 244.329 428.445 244.234C426.548 244.013 424.905 244.392 423.514 245.119C420.51 246.7 415.136 248.091 411.058 247.648C405.779 247.079 402.144 243.697 397.149 242.527C394.525 241.895 391.807 241.61 389.278 240.883C384.346 239.492 380.521 236.173 376.19 234.023C375.684 233.77 375.147 233.518 374.609 233.265C376.38 232.917 378.182 232.727 379.952 232.79C384.599 232.98 389.214 233.328 393.798 233.77C399.393 234.308 405.02 234.529 410.584 235.193C413.809 235.572 417.002 236.141 420.258 236.489C425.695 237.058 431.543 237.027 437.075 236.489C440.742 236.141 444.283 235.446 447.729 234.624C453.387 233.296 458.635 231.589 463.156 229.06C466.443 227.227 469.636 225.267 472.797 223.37C474.473 222.358 475.706 221.505 478.077 221.378C480.764 221.252 483.609 221.758 486.327 221.726C489.741 221.726 493.061 222.011 496.475 221.979C499.984 221.947 502.955 221.6 506.212 220.778C508.077 220.304 509.689 219.608 511.333 218.881C513.767 217.806 516.454 217.332 519.141 216.573C524.389 215.119 528.656 212.875 533.019 210.567C535.99 209.018 539.91 206.11 543.83 205.509C546.201 205.161 548.256 204.94 550.69 204.719C552.587 204.561 554.357 203.96 556.159 203.581C559.51 202.885 562.924 202.474 566.37 202.032C575.379 200.862 582.366 198.965 589.289 195.393C596.654 191.6 604.81 188.407 612.461 184.866C618.214 182.211 623.746 179.049 629.057 176.078C635.348 172.537 641.734 169.186 648.183 165.741C652.893 163.243 657.729 160.809 662.914 158.659C667.94 156.605 672.429 154.076 677.392 151.958C686.307 148.164 695.064 144.276 703.852 140.388C708.973 138.111 714.063 135.804 719.247 133.591C725.095 131.094 729.9 128.122 735.274 125.34C737.298 124.297 742.261 121.325 746.149 120.883C747.287 121.926 748.394 122.969 749.437 124.012C750.891 125.435 751.839 127.047 753.294 128.47L753.546 128.438Z" fill="#D5DBE3"/>
<path d="M457.244 240.945C457.244 240.945 457.149 241.009 457.086 241.04C456.643 241.04 456.169 241.04 455.726 241.04C455.916 241.04 457.023 240.977 457.212 240.945H457.244Z" fill="#F9BFBC"/>
<path d="M382.574 260.578C379.665 259.313 376.694 257.922 373.754 256.531C374.702 256.911 375.619 257.321 376.536 257.732C378.274 258.523 381.183 259.598 382.605 260.609L382.574 260.578Z" fill="#F9BFBC"/>
<path d="M353.997 242.714C355.546 243.473 356.937 244.168 358.613 244.832C359.561 245.212 361.3 245.718 361.648 246.318C360.857 246.508 359.846 246.539 359.024 246.603C357.98 249.511 363.924 252.008 367.18 253.463C369.361 254.443 371.542 255.454 373.723 256.497C371.763 255.675 369.772 254.917 367.844 254.095C364.271 252.609 360.604 251.281 356.937 249.922C351.626 247.93 346.758 245.591 341.384 243.663C333.955 240.976 326.621 238.257 319.129 235.633C322.922 235.507 326.748 235.475 330.415 235.38C332.153 235.349 333.892 235.38 335.599 235.412C336.99 236.012 338.349 236.582 339.772 237.119C344.514 238.952 349.572 240.47 353.966 242.651L353.997 242.714Z" fill="#D5DBE3"/>
</g>
<path d="M-240 262H-65.3849L1016.24 253L1551.19 242L1711 262V460H-240V262Z" fill="white"/>
</g>
<defs>
<clipPath id="clip0_877_12295">
<rect width="1920" height="460" fill="white" transform="translate(-240)"/>
</clipPath>
</defs>
</svg>
