<svg viewBox="0 0 375 350" fill="none" xmlns="http://www.w3.org/2000/svg">
<g clip-path="url(#clip0_907_26147)">
<path d="M433.732 194.531C426.724 194.586 420.966 192.673 414.936 190.651C405.81 187.646 396.684 184.422 388.264 180.761C373.76 174.477 359.092 168.139 345.186 161.363C334.104 155.954 322.968 150.653 311.94 145.189C299.935 139.288 287.332 133.987 275.272 128.141C268.21 124.698 261.963 120.982 255.01 117.485C245.504 112.677 235.074 108.688 225.133 104.262C216.224 100.273 209.379 95.1913 199.927 91.5849C192.81 88.8527 187.107 84.8092 181.294 81.1481C175.319 77.4325 168.094 74.2631 161.249 71.1485C155.817 68.6896 150.004 66.7771 145.007 63.9903C139.14 60.7118 133.544 57.5425 127.08 54.7557C116.052 49.9472 104.645 44.8655 94.9209 39.0734C86.1206 33.8277 79.1129 28.3089 68.2483 24.7571C63.305 23.1725 59.8826 18.3639 53.8528 20.9868C43.3685 25.5221 34.351 32.8441 26.0939 38.6909C12.4589 48.3079 -3.78366 56.0672 -17.9076 65.4111C-34.3674 76.3396 -49.7407 87.869 -68.1561 97.5954C-76.2502 101.858 -84.3986 106.065 -93.3075 109.672C-107.54 115.409 -122.099 120.272 -134.43 127.54C-149.803 136.61 -164.959 145.025 -182.071 152.948C-193.913 158.467 -205.81 163.877 -217.326 169.669C-233.949 177.974 -249.92 185.788 -264.098 195.733C-274.854 203.274 -283.329 210.815 -296.638 216.661C-302.505 219.23 -307.176 222.29 -312.446 225.186C-310.381 225.623 -306.416 225.131 -304.46 225.022C-296.42 224.694 -288.652 224.803 -280.612 224.912C-256.004 225.35 -231.668 228.519 -207.114 229.666C-189.459 230.486 -171.641 230.158 -153.932 230.431C-129.812 230.814 -105.747 230.267 -81.5738 229.775C-47.0245 229.065 -12.4753 228.3 22.074 227.043C47.4427 226.114 71.8336 225.35 97.2024 225.896C146.527 226.934 196.83 229.338 246.21 224.912C276.305 222.235 305.748 217.372 335.951 215.295C349.369 214.366 362.732 213.929 376.204 213.11C391.252 212.181 406.353 210.214 421.401 209.722C424.334 209.613 427.05 209.722 429.929 209.339C434.112 208.793 437.969 207.427 433.786 194.531H433.732Z" fill="#D5DBE3"/>
<path d="M32.5547 137.409C33.9049 137.553 35.2069 137.697 36.5572 137.841C49.7217 139.28 62.9827 141.391 76.3884 141.967C73.7362 141.535 69.2516 137.505 67.9014 136.546C63.3685 133.332 58.7392 130.261 55.4119 126.519C59.4626 124.073 69.8302 126.328 74.3631 127.047C77.2564 127.527 81.3553 128.342 84.3932 127.431C84.2486 126.663 83.5253 125.896 82.9948 125.272C104.936 131.413 126.443 137.937 147.853 144.749C146.214 142.495 140.668 139.856 137.727 138.225C133.001 135.586 128.516 132.996 123.983 130.213C117.088 125.992 109.999 121.866 103.152 117.596C97.9436 114.334 89.3601 110.592 85.5023 106.467C87.817 106.85 89.6977 107.858 91.5783 108.673C99.0527 111.888 106.913 114.478 115.352 116.685C137.341 122.442 160.343 128.63 179.535 137.313C175.34 135.299 171.675 132.9 167.721 130.693C161.693 127.383 154.797 124.936 148.625 121.77C141.97 118.364 135.267 115.102 128.709 111.648C121.09 107.762 113.616 103.828 106.286 99.7982C101.03 99.1266 98.8115 97.8794 99.6313 96.0084C114.58 102.293 129.288 108.817 144.526 114.862C143.996 114.622 156.34 120.187 160.246 119.851C155.906 115.102 146.358 111.84 139.27 108.865C130.541 105.171 114.001 99.0307 114.58 91.7387C114.725 89.9157 115.737 87.9009 114.001 86.4137C112.217 85.5982 110.433 84.7345 108.649 83.919C104.695 82.2399 100.933 80.4169 97.365 78.498C94.8092 77.1547 90.9515 75.5236 89.5048 73.5567C103.393 77.7304 117.184 82.24 130.059 87.4691C140.524 91.6908 150.457 97.1597 161.886 100.422C164.393 101.141 166.563 101.669 169.408 101.333C166.033 99.1746 161.741 97.3995 157.835 95.5765C154.17 93.8495 150.65 92.2184 147.323 90.3474C140.041 86.1737 132.036 82.8156 124.273 78.9777C118.872 76.2912 114.725 73.4608 110.047 70.4385C106.431 68.1357 101.898 66.5526 98.1364 64.2979C93.266 61.3715 88.251 58.9728 82.7537 56.4782C82.2233 56.2383 81.3071 55.7587 80.2944 55.2309C82.7055 55.7107 85.2612 56.0944 87.3348 56.6221C92.2534 57.8694 96.4969 60.7958 101.801 61.4674C100.692 60.2201 96.8827 59.4046 95.0503 58.4451C90.6621 56.1424 87.9135 53.264 84.0557 50.7214C75.0864 44.7727 66.5511 38.5361 58.8356 31.9158C61.4878 32.8273 64.7187 33.5468 67.3227 34.5543C69.8303 35.5137 78.7513 40.9827 81.4517 39.6875C79.0888 37.0489 75.8097 34.6983 72.6271 32.2996C69.0104 29.5172 66.0689 26.6387 62.3076 23.9522C61.1503 23.1366 59.9447 22.3691 58.691 21.6495C62.6934 21.2178 65.442 24.3839 69.1551 25.5832C78.7995 28.7015 85.0202 33.5468 92.8321 38.1523C101.464 43.2375 111.59 47.6991 121.379 51.9208C127.118 54.4154 132.085 57.1499 137.293 60.0283C141.729 62.4749 146.889 64.154 151.711 66.3128C157.787 69.0473 164.2 71.8297 169.505 75.0919C174.713 78.2581 179.728 81.8562 186.045 84.2548C194.436 87.4211 200.512 91.8827 208.42 95.3847C217.245 99.2706 226.503 102.773 234.942 106.994C241.114 110.065 246.66 113.327 252.929 116.349C263.634 121.482 274.87 126.088 285.478 131.317C295.267 136.114 305.153 140.768 314.99 145.517C327.335 151.466 340.355 157.031 353.23 162.548C360.753 165.762 368.854 168.592 376.907 171.231C382.26 173.006 387.371 174.685 393.592 174.637C397.305 185.959 393.881 187.158 390.168 187.638C387.612 187.973 385.201 187.877 382.597 187.973C369.192 188.357 355.786 190.132 342.477 190.948C330.566 191.667 318.655 192.051 306.744 192.867C279.933 194.738 253.797 198.959 227.082 201.31C183.248 205.196 138.546 203.085 94.8091 202.174C72.2895 201.694 50.6379 202.366 28.1183 203.181C-0.862999 204.236 -29.8926 204.86 -58.9221 205.484C-38.3796 189.077 -17.7406 172.814 4.00741 156.935C12.7356 149.978 22.2353 143.454 32.5065 137.361L32.5547 137.409Z" fill="white"/>
<path d="M66.1363 70.6178C64.0874 70.2238 62.1174 69.7116 60.699 68.9629C62.1568 68.7659 64.4026 69.751 66.1363 70.6178Z" fill="#F9BFBC"/>
<path d="M1024.45 248.634C1024.96 246.742 1020.27 244.615 1018.5 243.315C1014.12 240.162 1007.94 237.72 1002.66 235.119C995.173 231.376 789.933 97.4127 782.486 93.6696C773.187 89.0202 766.41 83.307 757.9 78.1849C750.414 73.6538 743.479 68.768 735.717 64.3945C731.225 61.8728 726.3 59.7058 721.808 57.1842C716.174 54.0321 711.249 50.4072 705.693 47.2157C702.226 45.2457 698.207 43.8273 694.937 41.6996C691.627 39.5326 688.121 37.5231 684.378 35.6318C681.738 34.2922 679.177 32.7556 676.419 31.5735C674.173 30.5885 672.006 30.0368 670.154 28.8154C666.017 26.0967 661.21 23.9692 656.718 21.4081C653.999 19.8715 651.478 18.5712 648.326 17.3891C647.301 16.9951 646.434 16.4435 645.41 16.0495C644.543 15.7343 643.479 15.5768 642.652 15.2616C642.1 15.0646 641.982 14.3553 641.273 14.1977C636.348 12.9368 627.916 18.059 624.882 19.635C618.144 23.1023 612.195 26.806 604.906 29.9186C598.444 32.6767 592.1 35.5531 585.717 38.3899C574.764 43.2363 563.85 48.0826 552.739 52.8107C546.553 55.4506 540.958 58.6027 534.693 61.1637C528.231 63.8036 522.203 66.8768 516.332 69.9895C508.294 74.2842 500.335 78.4607 492.495 82.8736C485.915 86.6167 478.98 90.5174 471.809 93.8271C462.235 98.2794 452.109 102.22 442.928 106.948C434.299 111.4 425.592 113.764 414.362 115.222C410.068 115.774 405.812 116.246 401.636 117.153C399.39 117.625 397.144 118.334 394.82 118.571C391.786 118.847 389.225 119.123 386.269 119.556C381.384 120.305 376.459 123.929 372.794 125.86C367.357 128.697 362.038 131.494 355.497 133.346C352.109 134.292 348.799 134.883 345.765 136.223C343.716 137.129 341.746 137.996 339.382 138.587C335.324 139.611 331.66 140.005 327.247 140.084C322.991 140.123 318.854 139.729 314.599 139.769C311.211 139.769 307.625 139.138 304.315 139.335C301.36 139.493 299.784 140.557 297.735 141.818C293.795 144.221 289.816 146.624 285.718 148.91C280.084 152.062 273.504 154.189 266.49 155.844C262.196 156.869 257.783 157.736 253.212 158.169C246.357 158.799 239.067 158.839 232.251 158.169C228.232 157.736 224.253 157.026 220.194 156.554C213.26 155.766 206.246 155.49 199.272 154.78C193.559 154.229 187.807 153.795 182.015 153.559C176.774 153.362 171.534 155.056 166.766 156.278C160.068 157.972 154.276 158.642 146.987 158.248C137.925 157.775 129.296 156.632 120.076 156.869C111.96 157.066 103.213 157.026 95.1748 157.854C87.2158 158.681 79.3356 160.494 71.7706 162.227C61.4869 164.552 51.7155 167.704 41.1166 169.477C32.3696 170.935 23.9772 171.644 14.9938 171.841C-1.86988 172.275 -19.3639 174.008 -35.7548 176.766C-44.4624 178.264 -53.1306 180.234 -62.1141 180.785C-68.694 181.179 -75.3527 180.943 -81.8933 181.77C-87.5671 182.519 -93.2014 184.528 -98.8751 184.883C-103.406 185.159 -108.607 184.646 -112.981 185.474C-112.784 186.025 -102.382 188.508 -101.673 188.744C-88.6703 192.684 -73.1463 193.63 -59.2377 195.797C-32.3662 199.973 -7.26785 206.947 19.643 211.124C32.0544 212.897 44.2687 215.103 56.2466 217.704C73.0314 222.235 90.0133 226.49 107.192 230.549C124.371 233.504 141.589 236.419 158.807 239.256C167.279 241.187 175.71 243.118 184.182 245.048C199.587 249.303 215.781 252.101 232.724 253.48C251.36 254.78 269.721 256.75 287.846 259.43C296.711 260.69 305.616 261.912 314.52 263.173C333.827 265.064 353.251 265.025 372.794 263.054C390.958 261.557 865.543 347.688 881.737 342.842C896.513 338.626 911.052 334.173 925.394 329.406C931.146 327.081 936.899 324.796 942.651 322.471C952.817 317.349 962.47 311.912 971.532 306.08C982.801 299.343 993.912 292.802 1003.49 285.159C1007.82 281.455 1012.27 277.751 1016.76 274.126C1019.76 271.88 1021.37 269.359 1021.61 266.561C1022.16 262.621 1021.3 258.523 1024.49 248.752L1024.45 248.634Z" fill="white"/>
<path d="M647.378 23.4168C649.427 25.4262 651.948 27.3175 654.273 29.2087C653.091 29.3663 646.353 26.2931 645.093 25.8203C642.059 24.6777 639.458 23.1804 635.912 22.6681C640.837 23.6532 644.541 27.5539 647.378 30.0756C650.333 32.7154 652.421 35.7099 654.864 38.5468C656.243 40.1622 658.449 40.8321 658.607 42.6839C658.725 43.9842 658.095 45.7572 658.922 46.9392C659.001 47.018 659.08 47.1362 659.159 47.215C654.352 44.0235 649.742 40.7533 645.565 37.4042C643.792 36.0252 640.837 33.6611 637.212 34.0551C633.706 34.4097 633.43 35.4341 634.888 36.8525C633.391 37.4436 629.332 37.5618 628.978 38.5862C628.544 39.8076 632.957 41.5412 634.297 42.1323C639.419 44.4569 645.526 45.9936 649.939 48.8699C652.5 50.5642 653.997 52.5735 656.755 54.189C663.966 58.3261 668.497 63.527 674.84 68.0188C679.647 71.4466 684.021 74.52 689.813 77.3175C691.625 78.1843 697.693 80.9817 697.693 82.8336C694.659 82.4396 692.374 80.7453 689.97 79.6421C686.227 77.9085 682.523 76.2141 678.899 74.4017C670.23 70.0282 661.089 65.6547 653.406 60.6508C651.712 59.5476 650.215 58.799 648.363 58.0897C646.275 57.2623 644.265 56.1196 641.743 55.6862C638.67 57.9321 628.899 52.3765 626.219 51.7461C625.747 52.9675 631.539 55.2922 632.13 55.568C636.424 57.7745 640.562 60.0991 644.659 62.4238C648.875 64.8272 653.288 66.8367 656.007 69.8706C658.134 72.2347 660.38 74.5593 663.257 76.6476C666.33 78.854 671.373 80.43 673.816 82.8729C671.806 82.7547 670.152 81.3757 668.733 80.6271C664.754 78.5783 660.735 76.5687 656.795 74.5199C653.682 72.9045 650.294 71.7618 646.944 70.3434C649.939 72.9833 654.234 74.7564 657.622 77.1598C660.617 79.2875 663.178 81.8485 665.896 84.1338C672.043 89.2953 679.096 93.9841 685.163 99.2244C692.571 105.607 700.687 111.793 708.646 117.94C703.367 115.497 698.402 112.66 693.201 110.178C685.006 106.238 676.495 102.495 668.418 98.4363C666.093 97.2937 664.044 95.7571 661.483 94.7721C660.223 94.2993 658.725 94.1022 657.622 93.4718C661.562 96.0722 664.833 99.0273 668.024 101.982C669.009 102.889 675.156 106.986 674.919 108.287C670.546 107.302 666.33 104.662 662.744 103.007C657.346 100.525 652.461 97.8059 645.92 96.545C633.666 94.1416 626.929 86.5767 614.714 84.1732C612.587 83.8186 610.42 83.5428 608.253 83.3064C605.849 82.4789 603.643 81.4939 601.555 80.3513C597.26 78.1448 593.438 75.5444 588.907 73.4956C586.267 72.3135 583.745 71.7224 580.83 70.9344C578.741 70.3828 576.259 68.728 573.777 69.0432C573.737 71.2103 578.308 73.9289 579.726 75.6626C581.027 77.278 579.884 80.9028 579.766 82.7547C579.529 86.1826 578.82 89.6893 579.096 93.1172C579.293 95.56 580.83 97.4513 581.499 99.8547C583.272 106.277 582.209 113.803 582.445 120.304C582.681 127.593 583.272 134.922 583.312 142.211C576.889 138.231 570.506 133.385 561.247 131.691C557.031 131.06 552.697 130.863 548.324 131.139C544.147 130.785 540.365 129.878 537.016 128.381C533.036 126.963 528.741 126.056 524.092 125.741C520.349 125.623 516.685 125.938 513.099 126.647C505.534 127.12 499.388 124.244 492.217 123.495C486.74 122.944 481.184 123.495 475.629 123.023C466.37 122.274 457.189 121.131 447.969 120.225C441.35 119.595 434.337 118.452 427.599 118.334C427.126 120.304 429.766 122.471 431.184 124.047C426.22 121.959 420.98 118.255 414.518 118.452C411.287 118.57 407.268 119.437 404.155 119.752C400.609 120.146 397.181 120.422 393.596 120.54C396.236 123.456 399.703 125.741 400.964 129.09C402.816 133.976 406.638 137.483 411.76 141.344C421.531 148.673 431.972 155.686 442.02 162.896C447.418 166.758 452.54 170.698 458.017 174.441C451.2 171.092 443.517 168.176 436.74 165.3C422.831 159.311 409.159 153.086 395.211 147.175C388.277 144.22 380.003 140.241 371.807 138.547C375.472 145.205 385.991 150.052 392.256 155.725C383.706 152.179 375.117 148.633 366.527 145.127C363.612 143.945 359.947 141.974 356.323 141.738C353.604 141.541 345.763 142.211 344.739 142.25C339.183 142.447 331.224 141.738 326.338 143.551C326.89 145.363 328.033 146.978 329.727 148.436C323.147 145.324 316.606 142.132 309.16 139.768C308.529 140.871 307.465 140.911 305.574 141.305C304.904 144.22 306.598 146.781 310.657 148.909C314.873 153.125 319.837 156.986 325.511 160.453C342.335 171.643 360.696 182.203 379.451 192.211C363.415 183.858 346.788 175.938 329.569 168.452C321.295 162.818 311.366 158.956 299.821 156.907C299.27 158.602 298.521 160.257 297.615 161.872C295.369 162.502 293.045 162.739 290.562 162.581C286.465 162.778 281.855 163.684 277.678 163.763C277.757 163.763 277.796 163.684 277.875 163.645C277.639 163.645 276.26 163.724 276.023 163.763C276.575 163.763 277.127 163.763 277.718 163.763C275.551 165.221 278.033 167.664 279.688 168.649C281.421 169.634 282.249 170.422 283.549 171.525C285.046 172.825 287.056 173.456 288.868 174.52C292.257 176.49 294.896 178.933 297.93 181.021C300.097 182.518 304.826 183.74 306.047 185.513C303.919 185.788 299.152 183.74 297.497 183.149C291.153 180.903 284.691 178.696 277.993 176.884C272.083 175.268 266.843 173.22 260.736 171.88C256.323 170.895 251.91 168.846 247.3 168.413C246.157 168.294 245.054 168.491 243.99 168.373C243.242 168.294 243.005 167.861 242.178 167.743C239.814 167.467 237.765 167.94 236.031 168.846C232.288 170.816 225.59 172.55 220.507 171.998C213.927 171.289 209.396 167.073 203.171 165.615C199.901 164.827 196.512 164.472 193.36 163.566C187.213 161.833 182.446 157.695 177.048 155.016C176.418 154.701 175.748 154.386 175.078 154.071C177.284 153.637 179.53 153.401 181.737 153.48C187.529 153.716 193.281 154.149 198.994 154.701C205.968 155.371 212.982 155.647 219.916 156.474C223.935 156.947 227.915 157.656 231.973 158.09C238.75 158.799 246.039 158.759 252.934 158.09C257.505 157.656 261.918 156.789 266.212 155.765C273.265 154.11 279.806 151.982 285.44 148.83C289.538 146.545 293.517 144.102 297.457 141.738C299.546 140.477 301.082 139.413 304.037 139.256C307.387 139.098 310.933 139.729 314.321 139.689C318.576 139.689 322.714 140.044 326.969 140.004C331.342 139.965 335.046 139.532 339.104 138.507C341.429 137.916 343.438 137.049 345.487 136.143C348.521 134.804 351.87 134.212 355.219 133.267C361.76 131.454 367.079 128.657 372.516 125.781C376.22 123.85 381.106 120.225 385.991 119.476C388.947 119.043 391.508 118.767 394.542 118.491C396.906 118.294 399.112 117.546 401.358 117.073C405.534 116.206 409.79 115.694 414.084 115.142C425.314 113.684 434.021 111.321 442.65 106.868C451.831 102.14 461.996 98.1605 471.531 93.7476C478.702 90.4379 485.597 86.4978 492.217 82.7941C500.057 78.3812 508.016 74.2048 516.054 69.91C521.925 66.7974 527.953 63.7634 534.415 61.0841C540.68 58.5231 546.275 55.371 552.461 52.7311C563.572 48.003 574.486 43.1567 585.44 38.3104C591.822 35.4735 598.166 32.5972 604.628 29.8392C611.917 26.7265 617.906 23.0228 624.604 19.5556C627.126 18.2553 633.312 14.5516 638.158 14C639.576 15.3002 640.955 16.6004 642.256 17.9007C644.068 19.6737 645.25 21.6832 647.063 23.4562L647.378 23.4168Z" fill="#D5DBE3"/>
<path d="M278.071 163.648C278.071 163.648 277.952 163.727 277.874 163.767C277.322 163.767 276.731 163.767 276.179 163.767C276.416 163.767 277.795 163.688 278.031 163.648H278.071Z" fill="#F9BFBC"/>
<path d="M185.005 188.118C181.38 186.542 177.676 184.808 174.012 183.074C175.194 183.547 176.336 184.059 177.479 184.571C179.646 185.556 183.271 186.896 185.044 188.157L185.005 188.118Z" fill="#F9BFBC"/>
<path d="M149.389 165.853C151.32 166.798 153.053 167.665 155.142 168.493C156.324 168.965 158.491 169.596 158.924 170.344C157.939 170.581 156.678 170.62 155.654 170.699C154.354 174.324 161.761 177.437 165.819 179.249C168.538 180.47 171.257 181.731 173.975 183.031C171.532 182.007 169.05 181.061 166.647 180.037C162.194 178.185 157.624 176.53 153.053 174.836C146.434 172.354 140.366 169.438 133.668 167.035C124.409 163.686 115.268 160.297 105.93 157.027C110.658 156.869 115.425 156.83 119.996 156.712C122.163 156.672 124.33 156.712 126.458 156.751C128.191 157.5 129.885 158.209 131.659 158.879C137.569 161.164 143.873 163.055 149.35 165.774L149.389 165.853Z" fill="#D5DBE3"/>
<path d="M-360.371 189.373H-184.008L908.444 178.156L1448.75 164.445L1610.16 189.373V436.156H-360.371V189.373Z" fill="white"/>
</g>
<defs>
<clipPath id="clip0_907_26147">
<rect width="377" height="350" fill="white" transform="translate(-1)"/>
</clipPath>
</defs>
</svg>
