<svg viewBox="0 0 334 102" fill="none" xmlns="http://www.w3.org/2000/svg">
<path d="M194 19.5C194 19.5 191.168 19.8035 189.985 20.9855C188.803 22.1675 188.5 25 188.5 25C188.5 25 188.197 22.1675 187.015 20.9855C185.832 19.8035 183 19.5 183 19.5C183 19.5 185.832 19.1965 187.015 18.0145C188.197 16.8325 188.5 14 188.5 14C188.5 14 188.803 16.8325 189.985 18.0145C191.168 19.1965 194 19.5 194 19.5Z" fill="#0756E4"/>
<path d="M64 5.5C64 5.5 61.1675 5.80346 59.9855 6.9855C58.8035 8.16754 58.5 11 58.5 11C58.5 11 58.1965 8.16754 57.0145 6.9855C55.8325 5.80346 53 5.5 53 5.5C53 5.5 55.8325 5.19654 57.0145 4.0145C58.1965 2.83247 58.5 -2.40413e-07 58.5 -2.40413e-07C58.5 -2.40413e-07 58.8035 2.83247 59.9855 4.0145C61.1675 5.19654 64 5.5 64 5.5Z" fill="#0756E4"/>
<path d="M39 17.5C39 17.5 37.7125 17.6379 37.1752 18.1752C36.6379 18.7125 36.5 20 36.5 20C36.5 20 36.3621 18.7125 35.8248 18.1752C35.2875 17.6379 34 17.5 34 17.5C34 17.5 35.2875 17.3621 35.8248 16.8248C36.3621 16.2875 36.5 15 36.5 15C36.5 15 36.6379 16.2875 37.1752 16.8248C37.7125 17.3621 39 17.5 39 17.5Z" fill="#0756E4"/>
<path d="M114 14.5C114 14.5 112.713 14.6379 112.175 15.1752C111.638 15.7125 111.5 17 111.5 17C111.5 17 111.362 15.7125 110.825 15.1752C110.287 14.6379 109 14.5 109 14.5C109 14.5 110.287 14.3621 110.825 13.8248C111.362 13.2875 111.5 12 111.5 12C111.5 12 111.638 13.2875 112.175 13.8248C112.713 14.3621 114 14.5 114 14.5Z" fill="#0756E4"/>
<path d="M207 11.5C207 11.5 205.713 11.6379 205.175 12.1752C204.638 12.7125 204.5 14 204.5 14C204.5 14 204.362 12.7125 203.825 12.1752C203.287 11.6379 202 11.5 202 11.5C202 11.5 203.287 11.3621 203.825 10.8248C204.362 10.2875 204.5 9 204.5 9C204.5 9 204.638 10.2875 205.175 10.8248C205.713 11.3621 207 11.5 207 11.5Z" fill="#0756E4"/>
<path d="M334 49C334 49 330.653 49.3862 329.256 50.8906C327.859 52.395 327.5 56 327.5 56C327.5 56 327.141 52.395 325.744 50.8906C324.347 49.3862 321 49 321 49C321 49 324.347 48.6138 325.744 47.1094C327.141 45.605 327.5 42 327.5 42C327.5 42 327.859 45.605 329.256 47.1094C330.653 48.6138 334 49 334 49Z" fill="#0756E4"/>
<path d="M250 54.5C250 54.5 247.168 54.8035 245.985 55.9855C244.803 57.1675 244.5 60 244.5 60C244.5 60 244.197 57.1675 243.015 55.9855C241.832 54.8035 239 54.5 239 54.5C239 54.5 241.832 54.1965 243.015 53.0145C244.197 51.8325 244.5 49 244.5 49C244.5 49 244.803 51.8325 245.985 53.0145C247.168 54.1965 250 54.5 250 54.5Z" fill="#0756E4"/>
<path d="M293 25C293 25 288.365 25.4966 286.431 27.4308C284.497 29.3651 284 34 284 34C284 34 283.503 29.3651 281.569 27.4308C279.635 25.4966 275 25 275 25C275 25 279.635 24.5034 281.569 22.5692C283.503 20.6349 284 16 284 16C284 16 284.497 20.6349 286.431 22.5692C288.365 24.5034 293 25 293 25Z" fill="#0756E4"/>
<path d="M265 49.5C265 49.5 263.713 49.6379 263.175 50.1752C262.638 50.7125 262.5 52 262.5 52C262.5 52 262.362 50.7125 261.825 50.1752C261.287 49.6379 260 49.5 260 49.5C260 49.5 261.287 49.3621 261.825 48.8248C262.362 48.2875 262.5 47 262.5 47C262.5 47 262.638 48.2875 263.175 48.8248C263.713 49.3621 265 49.5 265 49.5Z" fill="#0756E4"/>
<path d="M11 17.5C11 17.5 8.16753 17.8035 6.9855 18.9855C5.80346 20.1675 5.5 23 5.5 23C5.5 23 5.19654 20.1675 4.0145 18.9855C2.83247 17.8035 7.13262e-07 17.5 7.13262e-07 17.5C7.13262e-07 17.5 2.83247 17.1965 4.0145 16.0145C5.19654 14.8325 5.5 12 5.5 12C5.5 12 5.80346 14.8325 6.9855 16.0145C8.16753 17.1965 11 17.5 11 17.5Z" fill="#0756E4"/>
<path d="M271 95C271 95 267.653 95.3862 266.256 96.8906C264.859 98.395 264.5 102 264.5 102C264.5 102 264.141 98.395 262.744 96.8906C261.347 95.3862 258 95 258 95C258 95 261.347 94.6138 262.744 93.1094C264.141 91.605 264.5 88 264.5 88C264.5 88 264.859 91.605 266.256 93.1094C267.653 94.6138 271 95 271 95Z" fill="#0756E4"/>
</svg>
