<svg viewBox="0 0 87 83" fill="none" xmlns="http://www.w3.org/2000/svg">
<path d="M24 71.5C24 71.5 17.8201 72.1345 15.2411 74.606C12.6621 77.0776 12 83 12 83C12 83 11.3379 77.0776 8.75891 74.606C6.17992 72.1345 1.40467e-06 71.5 1.40467e-06 71.5C1.40467e-06 71.5 6.17992 70.8655 8.75891 68.394C11.3379 65.9224 12 60 12 60C12 60 12.6621 65.9224 15.2411 68.394C17.8201 70.8655 24 71.5 24 71.5Z" fill="#E80024"/>
<path d="M87 53C87 53 83.395 53.3862 81.8906 54.8906C80.3862 56.395 80 60 80 60C80 60 79.6138 56.395 78.1094 54.8906C76.605 53.3862 73 53 73 53C73 53 76.605 52.6138 78.1094 51.1094C79.6138 49.605 80 46 80 46C80 46 80.3862 49.605 81.8906 51.1094C83.395 52.6138 87 53 87 53Z" fill="#E80024"/>
<path d="M63 18C63 18 53.2151 18.9932 49.1317 22.8616C45.0483 26.7301 44 36 44 36C44 36 42.9517 26.7301 38.8683 22.8616C34.7849 18.9932 25 18 25 18C25 18 34.7849 17.0068 38.8683 13.1384C42.9517 9.26989 44 -8.30516e-07 44 -8.30516e-07C44 -8.30516e-07 45.0483 9.26989 49.1317 13.1384C53.2151 17.0068 63 18 63 18Z" fill="#E80024"/>
</svg>
