<svg viewBox="0 0 145 90" fill="none" xmlns="http://www.w3.org/2000/svg">
<path d="M22 79.5C22 79.5 19.1675 79.8035 17.9855 80.9855C16.8035 82.1675 16.5 85 16.5 85C16.5 85 16.1965 82.1675 15.0145 80.9855C13.8325 79.8035 11 79.5 11 79.5C11 79.5 13.8325 79.1965 15.0145 78.0145C16.1965 76.8325 16.5 74 16.5 74C16.5 74 16.8035 76.8325 17.9855 78.0145C19.1675 79.1965 22 79.5 22 79.5Z" fill="#E80024"/>
<path d="M5 82.5C5 82.5 3.71252 82.6379 3.17523 83.1752C2.63794 83.7125 2.5 85 2.5 85C2.5 85 2.36206 83.7125 1.82477 83.1752C1.28748 82.6379 -1.09278e-07 82.5 -1.09278e-07 82.5C-1.09278e-07 82.5 1.28748 82.3621 1.82477 81.8248C2.36206 81.2875 2.5 80 2.5 80C2.5 80 2.63794 81.2875 3.17523 81.8248C3.71252 82.3621 5 82.5 5 82.5Z" fill="#E80024"/>
<path d="M80 79.5C80 79.5 78.7125 79.6379 78.1752 80.1752C77.6379 80.7125 77.5 82 77.5 82C77.5 82 77.3621 80.7125 76.8248 80.1752C76.2875 79.6379 75 79.5 75 79.5C75 79.5 76.2875 79.3621 76.8248 78.8248C77.3621 78.2875 77.5 77 77.5 77C77.5 77 77.6379 78.2875 78.1752 78.8248C78.7125 79.3621 80 79.5 80 79.5Z" fill="#E80024"/>
<path d="M98 33C98 33 94.6525 33.3862 93.2556 34.8906C91.8586 36.395 91.5 40 91.5 40C91.5 40 91.1414 36.395 89.7444 34.8906C88.3475 33.3862 85 33 85 33C85 33 88.3475 32.6138 89.7444 31.1094C91.1414 29.605 91.5 26 91.5 26C91.5 26 91.8586 29.605 93.2556 31.1094C94.6525 32.6138 98 33 98 33Z" fill="#E80024"/>
</svg>
