<svg viewBox="0 0 214 176" fill="none" xmlns="http://www.w3.org/2000/svg">
<path d="M122 142C122 142 117.365 142.497 115.431 144.431C113.497 146.365 113 151 113 151C113 151 112.503 146.365 110.569 144.431C108.635 142.497 104 142 104 142C104 142 108.635 141.503 110.569 139.569C112.503 137.635 113 133 113 133C113 133 113.497 137.635 115.431 139.569C117.365 141.503 122 142 122 142Z" fill="#E80024"/>
<path d="M147 170.5C147 170.5 144.168 170.803 142.985 171.985C141.803 173.168 141.5 176 141.5 176C141.5 176 141.197 173.168 140.015 171.985C138.832 170.803 136 170.5 136 170.5C136 170.5 138.832 170.197 140.015 169.015C141.197 167.832 141.5 165 141.5 165C141.5 165 141.803 167.832 142.985 169.015C144.168 170.197 147 170.5 147 170.5Z" fill="#E80024"/>
<path d="M85 170.5C85 170.5 82.1675 170.803 80.9855 171.985C79.8035 173.168 79.5 176 79.5 176C79.5 176 79.1965 173.168 78.0145 171.985C76.8325 170.803 74 170.5 74 170.5C74 170.5 76.8325 170.197 78.0145 169.015C79.1965 167.832 79.5 165 79.5 165C79.5 165 79.8035 167.832 80.9855 169.015C82.1675 170.197 85 170.5 85 170.5Z" fill="#E80024"/>
<path d="M184 84.5C184 84.5 181.168 84.8035 179.985 85.9855C178.803 87.1675 178.5 90 178.5 90C178.5 90 178.197 87.1675 177.015 85.9855C175.832 84.8035 173 84.5 173 84.5C173 84.5 175.832 84.1965 177.015 83.0145C178.197 81.8325 178.5 79 178.5 79C178.5 79 178.803 81.8325 179.985 83.0145C181.168 84.1965 184 84.5 184 84.5Z" fill="#E80024"/>
<path d="M46 79.5C46 79.5 43.1675 79.8035 41.9855 80.9855C40.8035 82.1675 40.5 85 40.5 85C40.5 85 40.1965 82.1675 39.0145 80.9855C37.8325 79.8035 35 79.5 35 79.5C35 79.5 37.8325 79.1965 39.0145 78.0145C40.1965 76.8325 40.5 74 40.5 74C40.5 74 40.8035 76.8325 41.9855 78.0145C43.1675 79.1965 46 79.5 46 79.5Z" fill="#E80024"/>
<path d="M29 82.5C29 82.5 27.7125 82.6379 27.1752 83.1752C26.6379 83.7125 26.5 85 26.5 85C26.5 85 26.3621 83.7125 25.8248 83.1752C25.2875 82.6379 24 82.5 24 82.5C24 82.5 25.2875 82.3621 25.8248 81.8248C26.3621 81.2875 26.5 80 26.5 80C26.5 80 26.6379 81.2875 27.1752 81.8248C27.7125 82.3621 29 82.5 29 82.5Z" fill="#E80024"/>
<path d="M104 79.5C104 79.5 102.713 79.6379 102.175 80.1752C101.638 80.7125 101.5 82 101.5 82C101.5 82 101.362 80.7125 100.825 80.1752C100.287 79.6379 99 79.5 99 79.5C99 79.5 100.287 79.3621 100.825 78.8248C101.362 78.2875 101.5 77 101.5 77C101.5 77 101.638 78.2875 102.175 78.8248C102.713 79.3621 104 79.5 104 79.5Z" fill="#E80024"/>
<path d="M197 76.5C197 76.5 195.713 76.6379 195.175 77.1752C194.638 77.7125 194.5 79 194.5 79C194.5 79 194.362 77.7125 193.825 77.1752C193.287 76.6379 192 76.5 192 76.5C192 76.5 193.287 76.3621 193.825 75.8248C194.362 75.2875 194.5 74 194.5 74C194.5 74 194.638 75.2875 195.175 75.8248C195.713 76.3621 197 76.5 197 76.5Z" fill="#E80024"/>
<path d="M214 2.5C214 2.5 212.713 2.63794 212.175 3.17523C211.638 3.71252 211.5 5 211.5 5C211.5 5 211.362 3.71252 210.825 3.17523C210.287 2.63794 209 2.5 209 2.5C209 2.5 210.287 2.36206 210.825 1.82477C211.362 1.28748 211.5 -1.09278e-07 211.5 -1.09278e-07C211.5 -1.09278e-07 211.638 1.28748 212.175 1.82477C212.713 2.36206 214 2.5 214 2.5Z" fill="#E80024"/>
<path d="M11 159.5C11 159.5 8.16753 159.803 6.9855 160.985C5.80346 162.168 5.5 165 5.5 165C5.5 165 5.19654 162.168 4.0145 160.985C2.83247 159.803 7.13262e-07 159.5 7.13262e-07 159.5C7.13262e-07 159.5 2.83247 159.197 4.0145 158.015C5.19654 156.832 5.5 154 5.5 154C5.5 154 5.80346 156.832 6.9855 158.015C8.16753 159.197 11 159.5 11 159.5Z" fill="#E80024"/>
<path d="M122 33C122 33 118.653 33.3862 117.256 34.8906C115.859 36.395 115.5 40 115.5 40C115.5 40 115.141 36.395 113.744 34.8906C112.347 33.3862 109 33 109 33C109 33 112.347 32.6138 113.744 31.1094C115.141 29.605 115.5 26 115.5 26C115.5 26 115.859 29.605 117.256 31.1094C118.653 32.6138 122 33 122 33Z" fill="#E80024"/>
</svg>
