<svg viewBox="0 0 233 133" fill="none" xmlns="http://www.w3.org/2000/svg">
<path d="M171 42C171 42 163.533 42.8828 160.416 46.3215C157.3 49.7601 156.5 58 156.5 58C156.5 58 155.7 49.7601 152.584 46.3215C149.467 42.8828 142 42 142 42C142 42 149.467 41.1172 152.584 37.6785C155.7 34.2399 156.5 26 156.5 26C156.5 26 157.3 34.2399 160.416 37.6785C163.533 41.1172 171 42 171 42Z" fill="#E80024"/>
<path d="M138 92.5C138 92.5 130.018 93.3552 126.686 96.6864C123.355 100.018 122.5 108 122.5 108C122.5 108 121.645 100.018 118.314 96.6864C114.982 93.3552 107 92.5 107 92.5C107 92.5 114.982 91.6448 118.314 88.3136C121.645 84.9824 122.5 77 122.5 77C122.5 77 123.355 84.9824 126.686 88.3136C130.018 91.6448 138 92.5 138 92.5Z" fill="#E80024"/>
<path d="M201.4 84.7C201.4 84.7 197.434 85.1249 195.78 86.7797C194.125 88.4345 193.7 92.4 193.7 92.4C193.7 92.4 193.275 88.4345 191.62 86.7797C189.965 85.1249 186 84.7 186 84.7C186 84.7 189.965 84.2752 191.62 82.6203C193.275 80.9655 193.7 77 193.7 77C193.7 77 194.125 80.9655 195.78 82.6203C197.434 84.2752 201.4 84.7 201.4 84.7Z" fill="#E80024"/>
<path d="M15 99.5C15 99.5 11.1375 99.9138 9.52568 101.526C7.91381 103.138 7.5 107 7.5 107C7.5 107 7.08619 103.138 5.47432 101.526C3.86245 99.9138 6.25839e-07 99.5 6.25839e-07 99.5C6.25839e-07 99.5 3.86245 99.0862 5.47432 97.4743C7.08619 95.8625 7.5 92 7.5 92C7.5 92 7.91381 95.8625 9.52568 97.4743C11.1375 99.0862 15 99.5 15 99.5Z" fill="#E80024"/>
<path d="M52 120C52 120 45.8201 120.717 43.2411 123.511C40.6621 126.305 40 133 40 133C40 133 39.3379 126.305 36.7589 123.511C34.1799 120.717 28 120 28 120C28 120 34.1799 119.283 36.7589 116.489C39.3379 113.695 40 107 40 107C40 107 40.6621 113.695 43.2411 116.489C45.8201 119.283 52 120 52 120Z" fill="#E80024"/>
<path d="M232.4 115.7C232.4 115.7 228.434 116.125 226.78 117.78C225.125 119.435 224.7 123.4 224.7 123.4C224.7 123.4 224.275 119.435 222.62 117.78C220.965 116.125 217 115.7 217 115.7C217 115.7 220.965 115.275 222.62 113.62C224.275 111.965 224.7 108 224.7 108C224.7 108 225.125 111.965 226.78 113.62C228.434 115.275 232.4 115.7 232.4 115.7Z" fill="#E80024"/>
<path d="M221 75.5C221 75.5 219.198 75.6931 218.445 76.4453C217.693 77.1975 217.5 79 217.5 79C217.5 79 217.307 77.1975 216.555 76.4453C215.802 75.6931 214 75.5 214 75.5C214 75.5 215.802 75.3069 216.555 74.5547C217.307 73.8025 217.5 72 217.5 72C217.5 72 217.693 73.8025 218.445 74.5547C219.198 75.3069 221 75.5 221 75.5Z" fill="#E80024"/>
<path d="M107 29C107 29 91.5502 30.6001 85.1027 36.8326C78.6553 43.0652 77 58 77 58C77 58 75.3447 43.0652 68.8973 36.8326C62.4498 30.6001 47 29 47 29C47 29 62.4498 27.3999 68.8973 21.1674C75.3447 14.9348 77 -1.31134e-06 77 -1.31134e-06C77 -1.31134e-06 78.6553 14.9348 85.1027 21.1674C91.5502 27.3999 107 29 107 29Z" fill="#E80024"/>
</svg>
