<svg viewBox="0 0 233 109" fill="none" xmlns="http://www.w3.org/2000/svg">
<path d="M202.3 80.5C202.3 80.5 194.318 81.3552 190.986 84.6864C187.655 88.0176 186.8 96 186.8 96C186.8 96 185.945 88.0176 182.614 84.6864C179.282 81.3552 171.3 80.5 171.3 80.5C171.3 80.5 179.282 79.6448 182.614 76.3136C185.945 72.9824 186.8 65 186.8 65C186.8 65 187.655 72.9824 190.986 76.3136C194.318 79.6448 202.3 80.5 202.3 80.5Z" fill="#E80024"/>
<path d="M201.7 40.7C201.7 40.7 197.734 41.1249 196.08 42.7797C194.425 44.4345 194 48.4 194 48.4C194 48.4 193.575 44.4345 191.92 42.7797C190.265 41.1249 186.3 40.7 186.3 40.7C186.3 40.7 190.265 40.2752 191.92 38.6203C193.575 36.9655 194 33 194 33C194 33 194.425 36.9655 196.08 38.6203C197.734 40.2752 201.7 40.7 201.7 40.7Z" fill="#E80024"/>
<path d="M15.3 55.5C15.3 55.5 11.4376 55.9138 9.82573 57.5257C8.21386 59.1375 7.80005 63 7.80005 63C7.80005 63 7.38623 59.1375 5.77437 57.5257C4.1625 55.9138 0.300049 55.5 0.300049 55.5C0.300049 55.5 4.1625 55.0862 5.77437 53.4743C7.38623 51.8625 7.80005 48 7.80005 48C7.80005 48 8.21386 51.8625 9.82573 53.4743C11.4376 55.0862 15.3 55.5 15.3 55.5Z" fill="#E80024"/>
<path d="M52.3 76C52.3 76 46.1201 76.7173 43.5411 79.5112C40.9622 82.3051 40.3 89 40.3 89C40.3 89 39.6379 82.3051 37.059 79.5112C34.48 76.7173 28.3001 76 28.3001 76C28.3001 76 34.48 75.2827 37.059 72.4888C39.6379 69.6949 40.3 63 40.3 63C40.3 63 40.9622 69.6949 43.5411 72.4888C46.1201 75.2827 52.3 76 52.3 76Z" fill="#E80024"/>
<path d="M56.3 35.5C56.3 35.5 48.0601 36.3552 44.6215 39.6864C41.1829 43.0176 40.3 51 40.3 51C40.3 51 39.4172 43.0176 35.9786 39.6864C32.5399 36.3552 24.3 35.5 24.3 35.5C24.3 35.5 32.5399 34.6448 35.9786 31.3136C39.4172 27.9824 40.3 20 40.3 20C40.3 20 41.1829 27.9824 44.6215 31.3136C48.0601 34.6448 56.3 35.5 56.3 35.5Z" fill="#E80024"/>
<path d="M232.7 71.7C232.7 71.7 228.734 72.1249 227.08 73.7797C225.425 75.4345 225 79.4 225 79.4C225 79.4 224.575 75.4345 222.92 73.7797C221.265 72.1249 217.3 71.7 217.3 71.7C217.3 71.7 221.265 71.2752 222.92 69.6203C224.575 67.9655 225 64 225 64C225 64 225.425 67.9655 227.08 69.6203C228.734 71.2752 232.7 71.7 232.7 71.7Z" fill="#E80024"/>
<path d="M221.3 31.5C221.3 31.5 219.498 31.6931 218.745 32.4453C217.993 33.1975 217.8 35 217.8 35C217.8 35 217.607 33.1975 216.855 32.4453C216.103 31.6931 214.3 31.5 214.3 31.5C214.3 31.5 216.103 31.3069 216.855 30.5547C217.607 29.8025 217.8 28 217.8 28C217.8 28 217.993 29.8025 218.745 30.5547C219.498 31.3069 221.3 31.5 221.3 31.5Z" fill="#E80024"/>
<path d="M182.3 16C182.3 16 174.833 16.8828 171.716 20.3215C168.6 23.7601 167.8 32 167.8 32C167.8 32 167 23.7601 163.884 20.3215C160.767 16.8828 153.3 16 153.3 16C153.3 16 160.767 15.1172 163.884 11.6785C167 8.2399 167.8 -6.33815e-07 167.8 -6.33815e-07C167.8 -6.33815e-07 168.6 8.2399 171.716 11.6785C174.833 15.1172 182.3 16 182.3 16Z" fill="#E80024"/>
</svg>
