<svg viewBox="0 0 188 185" fill="none" xmlns="http://www.w3.org/2000/svg">
<path d="M120.003 108.24L67.6589 107.669L58.6068 122.853L128.286 123.613L120.003 108.24Z" fill="#88B3FF"/>
<path d="M103.553 107.69C104.643 100.409 114.933 91.9789 110.751 87.7747C107.622 84.628 94.2402 88.531 94.2402 88.531C94.2402 88.531 81.0738 84.4047 77.777 87.4973C73.3723 91.6293 83.2049 100.229 83.905 107.524C84.1719 110.34 74.3193 111.332 75.3446 114.358C76.7874 118.514 93.4641 117.478 93.4648 117.452C93.4648 117.452 110.078 118.794 111.743 114.664C112.955 111.682 103.135 110.5 103.553 107.69Z" fill="#0756E4"/>
<path d="M99.8451 107.769C100.592 100.415 107.307 91.8872 104.644 87.6466C103.816 86.3457 101.857 86.2463 99.8332 86.5854C100.232 86.7707 100.546 87.0842 100.749 87.6031C102.39 91.8323 98.0666 100.386 97.5079 107.743C97.3031 110.582 101.306 111.712 100.774 114.754C100.335 117.255 97.7422 117.794 95.726 117.824C98.9748 117.937 104.302 117.687 105.045 114.802C105.845 111.788 99.5329 110.607 99.8183 107.768L99.8451 107.769Z" fill="#0756E4"/>
<path d="M58.0183 71.5536C46.8205 77.6776 21.9286 60.5817 12.2179 43.7996C-0.477409 21.8833 8.5249 12.6669 15.005 9.12405C21.6473 5.50541 32.3495 7.58593 36.2243 13.2334C37.4478 15.0222 40.685 21.4572 30.8646 28.708C28.9273 30.1532 26.1921 29.8367 24.7562 28.0216C23.3204 26.2065 23.6954 23.5829 25.6319 22.1633C28.0325 20.3886 29.3656 18.6607 28.8816 17.9452C27.6064 16.1053 21.9145 14.8853 19.2028 16.3784C12.7768 19.8959 13.0125 27.721 19.8904 39.6242C23.9371 46.5977 31.1469 53.8383 39.2472 59.018C47.8184 64.4798 52.9511 64.8311 53.8455 64.3504C55.9606 63.1862 58.6306 63.8847 59.7678 65.8771C60.9316 67.8695 60.1326 70.415 58.0175 71.5791L58.0183 71.5536Z" fill="#0756E4"/>
<path d="M130.912 73.4374C141.725 79.6472 167.677 62.749 178.432 46.0465C192.492 24.2341 184.066 14.9498 177.808 11.3574C171.393 7.68791 160.564 9.68466 156.338 15.3006C155.003 17.0795 151.365 23.4878 160.758 30.8134C162.605 32.2733 165.359 31.9782 166.908 30.1747C168.456 28.3712 168.218 25.7452 166.398 24.3109C164.108 22.518 162.883 20.7801 163.412 20.0686C164.801 18.239 170.568 17.0636 173.186 18.5775C179.391 22.1442 178.667 29.9656 171.049 41.8125C166.568 48.7527 158.908 55.9355 150.487 61.051C141.577 66.4448 136.424 66.7561 135.56 66.2685C133.518 65.0882 130.805 65.7658 129.543 67.7488C128.256 69.7317 128.896 72.2827 130.938 73.4631L130.912 73.4374Z" fill="#0756E4"/>
<path d="M32.6328 8.58398C31.4583 52.5975 58.7952 88.5208 93.6771 88.821C128.559 89.1212 157.8 53.6849 158.975 9.67133L32.6328 8.58398Z" fill="#629AFF"/>
<path d="M150.634 11.0683C150.744 6.54678 124.714 2.55641 92.4944 2.16388C60.2751 1.77134 34.0661 5.12528 33.956 9.64678C33.8458 14.1683 59.8759 18.1587 92.0952 18.5512C124.315 18.9437 150.524 15.5898 150.634 11.0683Z" fill="white"/>
<path d="M158.083 9.15735C158.178 5.17002 130.196 1.57329 95.5971 1.13311C60.9978 0.692925 32.8602 3.57567 32.7645 7.56301C32.6687 11.5503 60.6508 15.147 95.25 15.5872C129.849 16.0274 157.987 13.1447 158.083 9.15735Z" fill="#629AFF"/>
<path d="M150.94 8.43127C151.016 5.24517 126.228 2.3336 95.5966 1.93564C64.9651 1.53768 40.0543 3.80357 39.9783 6.98968C39.9024 10.1758 64.6898 13.0873 95.3213 13.4853C125.953 13.8832 150.864 11.6174 150.94 8.43127Z" fill="#0756E4"/>
<path d="M128.947 124.261L58.6526 123.67L57.0457 183.609L127.34 184.2L128.947 124.261Z" fill="#629AFF"/>
<path d="M123.506 128.717L63.8254 128.215L62.4612 179.102L122.142 179.604L123.506 128.717Z" fill="#0756E4"/>
<path d="M122.167 179.629L62.4605 179.127L123.532 128.717L122.167 179.629Z" fill="#0756E4"/>
<path d="M118.091 133.198L69.0239 132.785L67.9017 174.645L116.968 175.058L118.091 133.198Z" fill="#629AFF"/>
</svg>
