<svg viewBox="0 0 411 373" fill="none" xmlns="http://www.w3.org/2000/svg">
<path d="M164.109 347.094C152.857 345.11 143.261 346.207 142.678 349.545L140.577 361.358C139.9 365.187 148.468 369.88 159.72 371.887C170.973 373.872 180.638 372.401 181.315 368.572L183.417 356.759C184 353.421 175.362 349.078 164.109 347.094Z" fill="black"/>
<path d="M182.668 357.011C183.299 353.439 174.988 349.003 164.132 347.065C153.276 345.128 143.937 346.482 143.307 350.03C142.677 353.602 150.988 358.038 161.844 359.976C172.7 361.914 182.038 360.559 182.668 357.011Z" fill="black"/>
<path d="M183.415 356.736C183.999 353.397 175.361 349.055 164.108 347.07C152.855 345.086 143.26 346.183 142.676 349.522C142.093 352.86 150.731 357.203 161.984 359.187C173.236 361.171 182.832 360.074 183.415 356.736Z" fill="black"/>
<path d="M183.228 355.146C183.811 351.877 175.36 347.629 164.341 345.691C153.345 343.753 143.936 344.827 143.353 348.095C142.769 351.364 151.22 355.589 162.24 357.551C173.236 359.488 182.644 358.414 183.228 355.146Z" fill="#575757"/>
<path d="M119.046 311.066C102.027 319.821 85.8479 322.272 82.8596 316.529C79.8713 310.762 91.2408 298.996 108.26 290.241C125.256 281.487 144.446 284.778 144.446 284.778C144.446 284.778 136.065 302.311 119.046 311.066Z" fill="#7399E6"/>
<path d="M125.677 302.823C142.883 294.605 150.844 292.457 143.093 276.699C139.171 268.738 129.016 265.609 111.833 273.827C110.105 274.644 101.631 278.777 100.043 279.687C85.8022 287.881 75.67 300.045 79.1252 307.259C82.5571 314.449 98.3624 314.239 113.654 308.333C115.382 307.679 123.926 303.663 125.677 302.823Z" fill="#1A2233"/>
<path d="M95.7488 304.923C95.1185 305.227 94.3714 304.947 94.0679 304.34L87.8812 291.406C87.5777 290.775 87.8345 290.028 88.4648 289.725C89.0952 289.421 89.8423 289.702 90.1458 290.309L96.3325 303.242C96.636 303.873 96.3792 304.62 95.7488 304.923Z" fill="#7399E6"/>
<path d="M101.983 301.962C101.353 302.266 100.606 301.986 100.302 301.379L94.1155 288.445C93.812 287.815 94.0922 287.067 94.6992 286.764C95.3295 286.46 96.0766 286.741 96.3801 287.348L102.567 300.281C102.87 300.912 102.613 301.659 101.983 301.962Z" fill="#7399E6"/>
<path d="M108.19 298.97C107.56 299.273 106.813 298.993 106.509 298.386L100.323 285.453C100.019 284.822 100.276 284.075 100.906 283.772C101.537 283.468 102.284 283.748 102.587 284.355L108.774 297.289C109.077 297.919 108.821 298.666 108.19 298.97Z" fill="#7399E6"/>
<path d="M114.425 296.005C113.794 296.309 113.047 296.029 112.744 295.422L106.557 282.488C106.253 281.858 106.534 281.11 107.141 280.807C107.771 280.503 108.518 280.76 108.821 281.391L115.008 294.324C115.312 294.955 115.032 295.702 114.425 296.005Z" fill="#7399E6"/>
<path d="M227.509 299.865C234.046 317.841 244.272 330.635 250.365 328.44C256.458 326.246 256.108 309.857 249.571 291.88C243.034 273.904 226.715 263.305 226.715 263.305C226.715 263.305 220.972 281.865 227.509 299.865Z" fill="#7399E6"/>
<path d="M228.234 289.287C221.183 271.591 216.817 264.587 233.183 258.284C241.471 255.086 251.043 259.708 258.093 277.404C258.793 279.179 262.225 287.957 262.762 289.708C267.665 305.396 266.824 321.201 259.4 324.143C252 327.085 240.537 316.205 233.323 301.474C232.506 299.817 228.934 291.062 228.234 289.287Z" fill="#1A2233"/>
<path d="M248.778 311.161C249.035 311.792 249.759 312.119 250.413 311.862L263.72 306.562C264.374 306.305 264.677 305.582 264.42 304.928C264.164 304.274 263.44 303.971 262.786 304.228L249.479 309.527C248.825 309.784 248.522 310.508 248.778 311.161Z" fill="#7399E6"/>
<path d="M246.232 304.744C246.488 305.397 247.212 305.701 247.866 305.444L261.173 300.144C261.827 299.888 262.13 299.164 261.873 298.51C261.617 297.856 260.893 297.553 260.239 297.81L246.932 303.109C246.278 303.366 245.975 304.09 246.232 304.744Z" fill="#7399E6"/>
<path d="M243.669 298.322C243.926 298.975 244.65 299.279 245.303 299.022L258.611 293.722C259.264 293.466 259.568 292.742 259.311 292.088C259.054 291.435 258.33 291.131 257.677 291.388L244.369 296.687C243.716 296.944 243.412 297.668 243.669 298.322Z" fill="#7399E6"/>
<path d="M241.122 291.927C241.379 292.581 242.103 292.884 242.756 292.627L256.064 287.328C256.717 287.071 257.021 286.347 256.764 285.694C256.507 285.04 255.784 284.737 255.13 284.993L241.823 290.293C241.169 290.55 240.865 291.273 241.122 291.927Z" fill="#7399E6"/>
<path d="M265.736 228.423C288.452 210.026 315.136 204.984 322.864 214.439C330.591 223.917 316.467 241.87 293.728 260.244C271.012 278.617 230.6 292.041 229.036 268.835C227.425 245.022 242.997 246.796 265.736 228.423Z" fill="black"/>
<path d="M143.028 241.988C165.744 223.615 192.429 218.549 200.156 228.004C207.884 237.459 193.759 255.435 171.02 273.809C148.305 292.182 135.208 300.914 119.939 287.233C104.554 273.435 120.289 260.362 143.005 241.965L143.028 241.988Z" fill="black"/>
<path d="M275.122 180.426C281.169 212.107 298.421 256.908 311.822 244.254C335.425 221.935 336.055 215.071 329.215 171.508C324.195 139.664 308.156 115.22 289.503 118.792C270.85 122.364 269.075 148.769 275.122 180.449V180.426Z" fill="black"/>
<path d="M231.577 217.008C254.76 190.206 297.063 153.179 280.837 143.304C264.612 133.429 237.344 73.8963 186.333 184.557C172.838 213.832 159.975 239.817 176.2 249.692C192.426 259.567 210.496 241.381 231.577 217.008Z" fill="black"/>
<path d="M105.952 214.741C87.5087 217.706 78.6605 210.515 59.3533 193.776C47.9838 183.924 26.9023 161.909 20.8324 153.761C14.7624 145.59 8.71579 146.593 4.49015 154.975C0.264521 163.356 -2.44359 172.064 3.20615 179.418C8.83255 186.749 45.8827 217.869 51.6025 221.954C57.2989 226.04 65.2833 235.052 108.147 227.978L388.836 181.636L386.665 168.399L105.975 214.764L105.952 214.741Z" fill="#1A2233"/>
<path d="M3.60413 158.78C7.82976 150.422 13.8764 149.395 19.9464 157.566C26.0163 165.737 47.0978 187.729 58.4673 197.581C77.7745 214.344 86.5993 221.511 105.066 218.546L385.755 172.181L387.343 181.846L388.814 181.613L386.643 168.375L105.953 214.741C87.5098 217.706 78.6616 210.515 59.3544 193.776C47.9849 183.924 26.9034 161.909 20.8335 153.761C14.7635 145.59 8.71688 146.593 4.49125 154.975C2.53018 158.874 0.895968 162.866 0.265625 166.741C1.08274 164.08 2.2734 161.418 3.60413 158.78Z" fill="#0756E4"/>
<path d="M386.289 166.382L379.102 167.566L381.945 184.82L389.132 183.635L386.289 166.382Z" fill="#4D6699"/>
<path d="M40.1646 215.018C27.9547 204.886 11.6591 190.762 4.74867 183.711C4.14167 183.104 4.07165 182.147 4.58527 181.47L22.5384 156.63C22.8419 156.186 23.3555 155.93 23.8924 155.906C24.336 155.906 24.7562 156.046 25.0831 156.303C25.1531 156.373 25.2232 156.443 25.2932 156.537C33.2075 165.898 50.3201 183.641 60.499 192.489C63.2539 194.894 66.1954 197.415 68.8802 199.633C69.8374 200.427 70.7713 201.198 71.7051 201.945C72.0787 202.248 72.3121 202.692 72.3355 203.159C72.3822 203.649 72.1954 204.116 71.8685 204.466L53.8921 223.913C53.2851 224.567 52.2812 224.66 51.5575 224.123C51.2306 223.867 50.8805 223.61 50.5536 223.376C48.9894 222.256 45.184 219.197 40.1413 215.018H40.1646Z" fill="#0756E4"/>
<path d="M59.3066 195.171C49.4313 186.626 32.2486 168.907 23.914 159.031L5.96094 183.895C16.3032 194.447 46.4663 219.708 51.5557 223.35C51.8826 223.583 52.2328 223.84 52.583 224.12L70.5594 204.673C67.1742 201.965 63.4856 198.813 59.3066 195.171Z" fill="#CCDCFF"/>
<path d="M43.1499 187.191C42.1927 188.218 41.3523 189.316 40.4651 190.32C39.5546 191.277 38.7142 192.257 37.8971 193.168C37.0799 194.125 36.2862 194.919 35.5625 195.689C34.8154 196.46 34.1617 197.207 33.5547 197.837C32.9244 198.467 32.3874 199.004 31.9438 199.471C31.0567 200.382 30.5664 200.919 30.5664 200.919C30.5664 200.919 31.2201 200.592 32.3174 199.938C32.8543 199.611 33.5313 199.238 34.3018 198.771C35.0488 198.281 35.8426 197.674 36.7298 197.02C37.6169 196.366 38.6208 195.666 39.5079 194.825C40.4417 193.985 41.4457 193.144 42.4495 192.187C43.4067 191.207 44.4106 190.203 45.3911 189.176C46.395 188.148 47.3288 187.004 48.2627 185.907C48.4261 185.697 48.5895 185.51 48.753 185.3C48.0292 184.6 47.3055 183.876 46.5584 183.152C46.325 183.409 46.1149 183.666 45.8814 183.923C44.9943 185.043 44.1071 186.164 43.1499 187.191Z" fill="#0756E4"/>
<path d="M16.3298 192.33C17.0535 191.84 17.8706 191.233 18.7344 190.556C19.5982 189.879 20.5788 189.179 21.4893 188.315C22.4231 187.474 23.4037 186.587 24.4075 185.63C25.3414 184.65 26.3453 183.646 27.3258 182.572C28.3063 181.521 29.2168 180.401 30.174 179.28C31.0611 178.136 32.0183 177.039 32.8354 175.848C33.6992 174.704 34.493 173.537 35.2634 172.416C35.3802 172.253 35.4736 172.089 35.5903 171.926C34.9599 171.272 34.353 170.619 33.746 169.988C33.5125 170.268 33.3024 170.525 33.0689 170.829C32.2285 171.856 31.318 172.907 30.4775 174.05C29.637 175.194 28.6798 176.245 27.7693 177.342C26.8822 178.463 26.0184 179.583 25.0846 180.634C24.1507 181.685 23.3103 182.782 22.4465 183.786C21.536 184.766 20.7189 185.747 19.9017 186.681C19.108 187.638 18.3142 188.455 17.5905 189.249C16.8667 190.043 16.1897 190.79 15.6061 191.42C15.3026 191.723 15.0224 192.004 14.7656 192.26C14.9991 192.471 15.2325 192.681 15.4426 192.891C15.7228 192.727 16.003 192.541 16.3298 192.354V192.33Z" fill="#0756E4"/>
<path d="M8.60056 185.977C8.60056 185.977 8.43713 186.163 8.34375 186.257C8.74063 186.63 9.13751 187.027 9.58109 187.424C9.65113 187.377 9.69782 187.331 9.76786 187.284C10.6317 186.607 11.6122 185.883 12.4993 185.02C13.4098 184.156 14.4137 183.292 15.3943 182.335C16.3281 181.331 17.3086 180.327 18.2658 179.253C19.2463 178.202 20.1568 177.059 21.0907 175.938C21.9778 174.794 22.9117 173.673 23.7288 172.506C24.5926 171.362 25.363 170.171 26.1334 169.051C26.9505 167.954 27.5809 166.786 28.2346 165.736C28.4447 165.385 28.6548 165.035 28.8649 164.685C28.3746 164.148 27.8844 163.611 27.4175 163.074C27.0673 163.518 26.7171 163.938 26.3435 164.405C25.5731 165.385 24.7793 166.389 23.9389 167.44C23.0984 168.49 22.2113 169.541 21.3708 170.662C20.5304 171.782 19.5965 172.856 18.686 173.977C17.7989 175.097 16.9351 176.241 16.0012 177.292C15.0908 178.343 14.2269 179.44 13.3631 180.467C12.476 181.448 11.6355 182.428 10.8418 183.385C10.048 184.319 9.27758 185.16 8.55386 185.953L8.60056 185.977Z" fill="#0756E4"/>
<path d="M36.8232 180.633C35.9127 181.73 35.0489 182.874 34.115 183.901C33.1812 184.952 32.3174 186.026 31.4536 187.053C30.5431 188.033 29.7027 189.014 28.8856 189.924C28.0684 190.858 27.298 191.675 26.5743 192.446C25.8272 193.216 25.1735 193.987 24.5899 194.617C23.9595 195.247 23.4226 195.784 22.9556 196.251C22.0918 197.162 21.6016 197.699 21.6016 197.699C21.6016 197.699 22.2319 197.372 23.3525 196.718C23.9128 196.391 24.5665 196.018 25.3136 195.527C26.0373 195.037 26.8544 194.43 27.7182 193.777C28.6054 193.1 29.5859 192.399 30.4964 191.535C31.4302 190.695 32.4341 189.831 33.438 188.874C34.3952 187.917 35.3757 186.913 36.3563 185.839C37.3368 184.812 38.2706 183.668 39.2278 182.57C40.1383 181.426 41.0955 180.329 41.9126 179.162C42.006 179.022 42.1227 178.882 42.2161 178.742C41.5157 178.041 40.8387 177.318 40.1383 176.617C39.9516 176.851 39.7648 177.084 39.578 177.318C38.7376 178.438 37.757 179.489 36.8465 180.586L36.8232 180.633Z" fill="#0756E4"/>
<path d="M66.4294 201.289C65.8924 201.849 65.3788 202.433 64.8885 202.97C64.0481 203.904 63.231 204.674 62.4839 205.445C61.7368 206.192 61.0831 206.939 60.4294 207.546C59.7757 208.129 59.2154 208.69 58.7718 209.133C57.8613 210.02 57.3711 210.557 57.3711 210.557C57.3711 210.557 58.0248 210.231 59.1454 209.624C59.7057 209.297 60.3827 208.947 61.1298 208.48C61.9002 208.036 62.694 207.429 63.6045 206.799C64.4916 206.145 65.4955 205.491 66.4294 204.651C67.0597 204.091 67.7367 203.53 68.4138 202.947C67.7601 202.41 67.0831 201.849 66.4294 201.289Z" fill="#0756E4"/>
<path d="M52.1846 205.259C52.9317 204.792 53.7488 204.208 54.6359 203.555C55.5231 202.901 56.527 202.224 57.4375 201.383C58.3946 200.566 59.4219 199.726 60.4257 198.792C60.8927 198.348 61.3596 197.835 61.8265 197.391C61.1261 196.784 60.4024 196.177 59.6787 195.547C59.2818 195.99 58.8849 196.457 58.488 196.901C57.5542 197.858 56.6904 198.815 55.8733 199.726C55.0562 200.66 54.239 201.43 53.5153 202.224C52.7449 202.971 52.1146 203.718 51.4842 204.325C50.8539 204.932 50.2936 205.492 49.85 205.913C48.9628 206.823 48.4492 207.36 48.4492 207.36C48.4492 207.36 49.1263 207.033 50.2235 206.403C50.7838 206.099 51.4609 205.726 52.2079 205.259H52.1846Z" fill="#0756E4"/>
<path d="M53.0757 189.477C52.7722 189.803 52.492 190.154 52.1885 190.48C51.2313 191.508 50.3909 192.605 49.4804 193.585C48.5699 194.543 47.7061 195.523 46.889 196.434C46.0719 197.368 45.2781 198.161 44.531 198.955C43.784 199.725 43.1303 200.473 42.4999 201.08C41.8696 201.687 41.3326 202.224 40.8657 202.69C39.9785 203.601 39.4883 204.138 39.4883 204.138C39.4883 204.138 40.142 203.811 41.2626 203.181C41.7995 202.854 42.4766 202.48 43.247 202.013C43.9941 201.546 44.8112 200.963 45.6983 200.309C46.5855 199.655 47.5894 198.955 48.4999 198.115C49.4337 197.298 50.4609 196.434 51.4414 195.5C52.3986 194.543 53.4259 193.539 54.4064 192.488C54.7099 192.185 54.99 191.858 55.2702 191.531C54.5465 190.877 53.8228 190.2 53.0757 189.477Z" fill="#0756E4"/>
<path d="M184.65 87.7858C187.896 122.992 218.666 163.824 279.926 152.431C329.956 143.139 371.372 106.112 368.127 70.8833C364.882 35.6775 289.521 35.7942 272.525 37.4285C255.366 39.086 181.405 52.5567 184.65 87.7625V87.7858Z" fill="#E80024"/>
<mask id="mask0_877_13246" style="mask-type:luminance" maskUnits="userSpaceOnUse" x="184" y="36" width="185" height="119">
<path d="M184.65 87.7897C187.896 122.996 218.666 163.828 279.926 152.435C329.956 143.143 371.372 106.116 368.127 70.8872C364.882 35.6814 289.521 35.7981 272.525 37.4324C255.366 39.0899 181.405 52.5606 184.65 87.7664V87.7897Z" fill="white"/>
</mask>
<g mask="url(#mask0_877_13246)">
<path d="M249.598 127.243C250.882 127.15 251.769 127.383 251.979 127.85C258.492 141.974 261.738 149.025 268.274 163.149C268.485 163.593 268.321 163.896 267.784 163.943C265.59 164.083 264.492 164.153 262.275 164.293C261.691 164.34 261.224 164.083 260.897 163.616C252.282 152.2 247.963 146.503 239.372 135.087C236.641 135.414 235.333 135.577 232.648 135.904C231.248 136.091 230.057 135.834 229.52 135.251C227.909 133.546 227.115 132.683 225.504 130.955C224.944 130.371 225.434 130.021 227.022 129.881C235.893 128.83 240.423 128.317 249.621 127.243H249.598Z" fill="#CCDCFF"/>
<path d="M315.921 142.115C317.159 142.045 317.532 142.372 317.019 143.095C315.688 144.963 315.011 145.897 313.657 147.741C313.143 148.442 312.303 148.862 311.229 148.932C309.875 149.025 309.221 149.072 307.867 149.142C305.019 153.788 303.595 156.122 300.77 160.768C300.35 161.469 299.719 161.865 298.949 161.936C296.941 162.052 295.937 162.122 293.929 162.239C293.182 162.286 292.879 161.935 293.159 161.258C294.887 156.636 295.727 154.325 297.455 149.726C288 150.333 283.284 150.636 273.829 151.243C272.778 151.313 272.101 150.986 271.961 150.333C271.541 148.512 271.307 147.624 270.91 145.803C270.794 145.336 270.91 144.986 271.307 144.543C279.338 135.438 285.525 130.722 302.357 121.057C303.174 120.543 304.388 120.263 305.906 120.169C311.789 119.796 314.754 119.609 320.661 119.236C322.879 119.096 323.392 119.562 321.735 120.38C302.918 130.185 295.657 134.947 285.455 144.216C291.221 143.842 294.116 143.656 299.883 143.282C300.84 140.737 301.307 139.477 302.241 136.955C302.521 136.278 303.408 135.835 304.809 135.741C308.614 135.508 310.528 135.368 314.311 135.134C315.758 135.041 316.272 135.391 315.875 136.068C314.334 138.613 313.54 139.85 311.999 142.395C313.54 142.301 314.311 142.255 315.898 142.138L315.921 142.115Z" fill="#CCDCFF"/>
</g>
<path d="M171.902 129.111C157.684 139.943 144.447 143.655 167.676 176.97C178.905 193.056 200.711 196.464 214.952 185.632C229.169 174.799 214.368 149.702 210.353 144.496C206.29 139.243 186.143 118.278 171.902 129.111Z" fill="#CC0000"/>
<path d="M361.218 168.608C378.004 174.725 400.206 162.889 405.856 140.64C417.155 96.0489 406.463 96.6559 389.654 90.5393C372.868 84.4226 363.319 117.504 360.728 124.765C358.113 132.095 344.409 162.515 361.218 168.632V168.608Z" fill="#CC0000"/>
<path d="M231.11 60.3981C214.534 51.1765 186.098 66.5615 171.554 96.8179C144.449 153.175 154.955 158.335 171.997 166.623C209.818 185.019 215.818 134.335 221.257 124.483C226.744 114.538 247.662 69.6198 231.086 60.3981H231.11Z" fill="#CC0000"/>
<path d="M261.347 51.6012C269.027 34.2551 312.031 27.0646 347.844 52.3483C407.773 94.6513 413.843 98.3867 406.559 115.873C380.878 177.506 338.248 110.363 324.824 104.363C311.26 98.3167 253.689 68.924 261.347 51.6012Z" fill="#CC0000"/>
<path d="M276.657 82.1633C290.852 80.8092 345.645 79.1283 364.648 93.1593C367.59 86.0387 368.851 78.5213 368.15 70.8638C364.905 35.658 289.544 35.7747 272.548 37.4089C255.389 39.0665 181.429 52.5372 184.674 87.743C185.374 95.4005 187.989 102.544 192.191 109.011C208.277 91.7818 262.346 83.494 276.681 82.1166L276.657 82.1633Z" fill="#FF3723"/>
<path d="M237.297 51.4356C237.297 77.9567 277.499 108.353 277.499 108.353C277.499 108.353 317.677 77.9567 317.677 51.4356C317.677 24.9145 284.923 28.6966 277.499 28.7666C269.981 28.8367 237.297 24.9145 237.297 51.4356Z" fill="#1A2233"/>
<path d="M243.999 45.999C244.372 47.7033 244.723 49.2908 244.979 50.7149H309.998C310.255 49.2675 310.628 47.6799 310.979 45.999C311.702 43.3843 312.146 40.6528 312.216 37.8279C312.216 37.431 312.239 37.0575 312.239 36.6606C312.239 17.4468 296.667 1.875 277.454 1.875C258.24 1.875 242.691 17.4468 242.691 36.6606C242.691 37.0342 242.691 37.431 242.715 37.8279C242.808 40.6528 243.228 43.3843 243.952 45.999H243.999Z" fill="#CC0000"/>
<path d="M245.847 45.999C246.197 47.7033 246.524 49.2908 246.781 50.7149H308.204C308.461 49.2675 308.788 47.6799 309.138 45.999C309.815 43.3843 310.235 40.6528 310.305 37.8279C310.305 37.431 310.328 37.0575 310.328 36.6606C310.328 17.4468 295.62 1.875 277.457 1.875C259.294 1.875 244.609 17.4468 244.609 36.6606C244.609 37.0342 244.609 37.431 244.633 37.8279C244.726 40.6528 245.123 43.3843 245.8 45.999H245.847Z" fill="#E80024"/>
<path d="M304.347 30.9182C304.347 18.8716 294.145 8.03906 284.387 8.03906C276.752 8.03906 281.048 19.3619 281.048 31.3851C281.048 43.4083 276.916 52.7234 286.675 52.7234C296.433 52.7234 304.347 42.9647 304.347 30.9182Z" fill="#CC0000"/>
<path d="M301.758 39.135C294.708 36.7304 261.183 36.4035 253.222 39.135C247.525 41.0961 248.482 46.1855 248.622 48.1933C248.949 53.3761 252.124 63.7417 252.451 68.9246C252.568 70.979 253.992 77.1424 258.218 79.477C262.934 82.0684 272.482 94.7453 277.478 94.7219C282.498 94.7219 292.77 81.6715 296.739 79.477C300.988 77.1424 302.388 70.979 302.529 68.9246C302.855 63.7417 306.03 53.3761 306.357 48.1933C306.497 46.1855 307.455 41.0961 301.758 39.135Z" fill="#4D6699"/>
<path d="M298.072 38.4116C292.095 36.9175 263.683 36.7074 256.913 38.4116C252.08 39.6256 252.897 42.8007 253.014 44.0614C253.294 47.2831 255.979 53.75 256.259 56.9717C256.376 58.2558 257.567 62.0845 261.162 63.532C265.154 65.1428 273.255 73.0338 277.481 73.0338C281.73 73.0338 290.438 64.9094 293.8 63.532C297.395 62.0845 298.586 58.2324 298.702 56.9717C298.982 53.75 301.667 47.2831 301.947 44.0614C302.064 42.824 302.881 39.6256 298.049 38.4116H298.072Z" fill="#7399E6"/>
<path d="M277.477 54.7103C273.251 54.7103 265.127 53.9165 259.757 53.4029C258.66 53.2862 257.679 53.1928 256.816 53.1228C253.337 52.7959 252.286 51.9088 252.24 51.7687L247.827 47.8232C247.827 47.8232 247.804 47.7298 247.757 47.6831C247.57 47.3329 247.454 47.0995 250.746 46.9127C253.033 46.7726 265.08 46.5625 276.403 46.5625C287.726 46.5625 302.107 46.796 304.278 46.9127C307.57 47.0995 307.453 47.3329 307.266 47.6831C307.266 47.7298 307.22 47.7765 307.22 47.8232L302.807 51.7687C302.737 51.9321 301.71 52.8193 298.208 53.1228C297.531 53.1928 296.714 53.2628 295.757 53.3562C290.877 53.8231 281.796 54.7103 277.5 54.7103H277.477Z" fill="#1A2233"/>
<path d="M283.99 1.89687C284.13 1.33657 283.639 0.75291 282.939 0.612833C278.643 -0.204278 276.379 -0.204278 272.083 0.612833C271.359 0.75291 270.893 1.33657 271.033 1.89687C271.406 3.4844 271.616 4.27815 271.99 5.88903C272.13 6.44933 272.69 6.77618 273.25 6.65945C276.636 6.00576 278.41 6.00576 281.795 6.65945C282.355 6.77618 282.916 6.42598 283.056 5.88903C283.429 4.30149 283.639 3.50775 284.013 1.89687H283.99Z" fill="#4D0000"/>
<path d="M251.073 12.6818C250.722 12.3549 250.092 12.4483 249.695 12.9152C247.267 15.7168 246.31 17.351 245.096 20.8529C244.909 21.4365 245.143 22.0436 245.586 22.1836C246.917 22.5805 247.571 22.7673 248.901 23.1642C249.345 23.3042 249.835 23.0474 249.999 22.5805C250.956 19.8257 251.703 18.5416 253.594 16.3238C253.921 15.9502 253.897 15.3899 253.547 15.0631C252.543 14.1059 252.053 13.639 251.026 12.6818H251.073Z" fill="#4D0000"/>
<path d="M303.928 12.6818C304.278 12.3549 304.909 12.4483 305.306 12.9152C307.734 15.7168 308.691 17.351 309.905 20.8529C310.115 21.4365 309.858 22.0436 309.415 22.1836C308.107 22.5805 307.43 22.7673 306.099 23.1642C305.633 23.3042 305.166 23.0474 305.002 22.5805C304.045 19.8257 303.298 18.5416 301.384 16.3238C301.057 15.9502 301.08 15.3899 301.43 15.0631C302.434 14.1059 302.924 13.639 303.952 12.6818H303.928Z" fill="#4D0000"/>
<path d="M313.291 40.9777C313.291 40.9777 313.197 40.9777 313.174 40.9777C312.52 40.9077 312.03 40.3241 312.1 39.647C312.1 39.507 312.123 39.3669 312.17 39.1801C312.404 37.4759 312.754 35.1179 307.361 33.9973C298.933 32.1997 257.611 31.8962 247.665 33.9973C242.272 35.1413 242.599 37.4759 242.856 39.1801C242.879 39.3435 242.903 39.507 242.926 39.647C242.996 40.3007 242.506 40.9077 241.852 40.9777C241.198 41.0478 240.615 40.5809 240.545 39.9038C240.545 39.7871 240.521 39.6704 240.498 39.5303C240.264 37.8027 239.611 33.2502 247.198 31.6627C257.307 29.5149 299.33 29.8417 307.898 31.6627C315.485 33.2736 314.832 37.826 314.598 39.5303C314.598 39.6704 314.552 39.7871 314.552 39.9038C314.481 40.5108 313.968 40.9777 313.361 40.9777H313.291Z" fill="#CCDCFF"/>
<path d="M292.275 37.7103H262.695C258.867 37.7103 255.738 34.6053 255.738 30.7532C255.738 30.0995 256.275 29.5625 256.929 29.5625C257.583 29.5625 258.12 30.0995 258.12 30.7532C258.12 33.2745 260.151 35.3056 262.672 35.3056H292.251C294.773 35.3056 296.804 33.2512 296.804 30.7532C296.804 30.0995 297.341 29.5625 297.995 29.5625C298.648 29.5625 299.185 30.0995 299.185 30.7532C299.185 34.5819 296.057 37.7103 292.228 37.7103H292.275Z" fill="#CCDCFF"/>
<path d="M277.408 64.345C270.101 64.345 257.284 62.8041 250.91 60.7497C244.444 58.6485 242.412 53.0455 242.226 51.2478C242.156 50.5942 242.623 50.0105 243.276 49.9171C243.953 49.8471 244.537 50.314 244.607 50.9677C244.724 52.1116 246.288 56.7108 251.658 58.4384C257.704 60.3995 270.428 61.917 277.408 61.917H277.502C284.015 61.917 297.976 60.1894 303.346 58.4384C308.692 56.6875 310.256 52.0883 310.396 50.9677C310.466 50.314 311.05 49.8471 311.727 49.9171C312.381 49.9871 312.871 50.5708 312.801 51.2478C312.591 53.0455 310.583 58.6485 304.116 60.7497C298.466 62.594 284.342 64.3216 277.525 64.345H277.432H277.408Z" fill="#CCDCFF"/>
<path d="M277.409 65.3264C276.756 65.3264 276.219 64.7894 276.219 64.1124V30.1672C276.219 29.5135 276.756 28.9766 277.409 28.9766C278.063 28.9766 278.6 29.5135 278.6 30.1672V64.1124C278.6 64.766 278.063 65.3264 277.409 65.3264Z" fill="#CCDCFF"/>
<path d="M277.41 51.6485C264.406 51.6485 252.803 43.8743 247.877 31.8277C247.62 31.2207 247.924 30.5203 248.531 30.2635C249.138 30.0067 249.838 30.3102 250.095 30.9172C254.671 42.0533 265.386 49.2439 277.41 49.2439C289.433 49.2439 300.149 42.0533 304.724 30.9172C304.981 30.3102 305.682 30.0067 306.289 30.2635C306.896 30.5203 307.199 31.2207 306.942 31.8277C302.016 43.8743 290.413 51.6485 277.41 51.6485Z" fill="#CCDCFF"/>
<path d="M277.477 60.2377C271.5 60.2377 261.065 57.1327 254.154 55.0783C252.847 54.6814 251.633 54.3312 250.606 54.0277C244.045 52.16 241.967 47.0706 241.781 45.4364C241.711 44.7827 242.154 44.1757 242.831 44.1056C243.485 44.0123 244.092 44.4792 244.162 45.1328C244.279 46.1367 245.866 50.1523 251.259 51.7164C252.31 52.0199 253.5 52.3701 254.831 52.767C261.602 54.7748 271.827 57.8331 277.453 57.8331C283.173 57.8331 294.146 54.5413 300.706 52.6036C301.85 52.2534 302.877 51.9733 303.694 51.7164C309.111 50.1756 310.675 46.1367 310.815 45.1328C310.908 44.4792 311.492 44.0123 312.146 44.1056C312.799 44.199 313.266 44.7827 313.196 45.4364C312.986 47.0706 310.932 52.1367 304.371 54.0277C303.554 54.2612 302.55 54.5647 301.406 54.8915C294.73 56.8759 283.523 60.2144 277.477 60.2144H277.453L277.477 60.2377Z" fill="#CCDCFF"/>
<path d="M225.346 156.609C221.821 151.847 215.051 150.656 209.635 150.399C202.981 150.072 196.327 151.333 190 153.271C184.771 154.858 177.324 157.636 175.129 163.123C174.779 163.987 175.106 164.734 175.666 165.201C173.868 179.885 181.246 198.422 197.004 200.43C204.288 201.364 211.759 198.725 218.062 195.364C224.973 191.698 228.055 186.212 228.498 178.414C228.895 171.294 229.829 162.703 225.323 156.609H225.346Z" fill="#1A2233"/>
<path d="M179.627 200.154C180.211 202.792 182.008 205.454 184.763 205.874C194.242 206.994 204.257 204.496 213.245 201.695C216.094 200.808 217.938 198.94 217.985 196.582C217.985 187.01 215.58 177.298 213.479 167.983C212.708 164.995 211.027 162.637 208.483 162.66C198.421 163.034 188.032 167.096 180.304 172.069C177.806 173.68 175.892 174.8 175.938 177.392C176.265 186.403 177.666 191.423 179.65 200.177L179.627 200.154Z" fill="#FF0000"/>
<path d="M213.2 161.983C212.826 160.909 214.437 154.676 220.18 158.738C225.923 162.8 231.386 168.17 232.623 169.314C233.861 170.458 236.616 173.189 236.592 176.972C236.569 180.754 235.939 187.361 235.752 189.672C235.565 191.983 235.612 194.224 233.441 194.551C231.269 194.901 223.705 196.769 222.328 197.353C220.95 197.936 219.783 196.302 219.666 194.528C219.55 192.753 215.254 166.209 213.2 161.96V161.983Z" fill="#FF0000"/>
<path d="M223.871 160.374C222.097 159.043 217.358 158.857 214.136 159.487C205.428 161.168 189.366 164.763 179.888 170.88C175.685 173.588 175.055 174.265 175.102 175.479C175.148 176.67 173.327 176.389 172.113 173.565C170.899 170.716 168.705 163.269 168.144 162.008C167.584 160.748 168.448 159.37 169.545 157.666C170.643 155.962 182.059 146.25 194.152 141.721C206.245 137.215 209.023 138.055 212.175 138.919C215.327 139.76 220.58 140.25 224.175 150.008C226.65 156.732 227.163 156.592 227.607 158.6C228.05 160.631 227.397 162.989 223.871 160.374Z" fill="#4D0000"/>
<path d="M177.53 168.806C173.818 171.234 173.281 173.825 173.211 175.343C172.837 174.923 172.464 174.339 172.113 173.569C170.899 170.72 168.705 163.273 168.144 162.012C167.584 160.752 168.448 159.374 169.545 157.67C170.572 156.059 180.611 147.468 191.794 142.658C192.635 142.308 193.475 141.958 194.315 141.655C195.413 141.234 196.44 140.884 197.42 140.557C206.782 137.382 209.327 138.153 212.175 138.923C215.327 139.764 220.58 140.254 224.175 150.012C226.65 156.736 227.163 156.596 227.607 158.604C227.607 158.697 227.654 158.791 227.654 158.884C226.883 158.534 225.926 157.973 224.735 157.156C222.868 155.872 217.521 154.915 214.066 155.639C204.728 157.53 190.393 160.378 177.506 168.806H177.53Z" fill="#FF0000"/>
<path d="M394.672 142.669C393.085 136.972 387.108 133.424 382.089 131.206C375.925 128.498 369.155 127.307 362.478 126.817C356.968 126.42 348.914 126.327 344.828 130.669C344.175 131.346 344.221 132.163 344.572 132.817C337.521 145.891 337.755 165.828 351.926 173.346C358.462 176.824 366.517 177.058 373.684 176.194C381.552 175.237 386.478 171.244 389.746 164.124C392.711 157.634 396.727 149.929 394.672 142.646V142.669Z" fill="#1A2233"/>
<path d="M392.74 175.101C392.39 177.786 390.826 180.587 388.118 181.241C378.756 183.155 368.577 181.545 359.379 179.514C356.461 178.86 354.476 177.179 354.219 174.821C353.379 165.296 354.966 155.397 356.25 145.942C356.764 142.907 358.235 140.409 360.78 140.222C370.842 139.732 381.534 142.884 389.682 147.179C392.297 148.557 394.304 149.537 394.491 152.105C394.935 161.117 393.978 166.23 392.74 175.124V175.101Z" fill="#FF0000"/>
<path d="M356.037 139.963C356.317 138.843 354.193 132.796 348.8 137.325C343.43 141.878 338.434 147.691 337.313 148.928C336.169 150.165 333.671 153.13 334.022 156.912C334.372 160.695 335.562 167.208 335.936 169.496C336.31 171.784 336.45 174.025 338.667 174.165C340.862 174.329 348.566 175.543 349.99 176.01C351.414 176.476 352.418 174.726 352.395 172.951C352.372 171.177 354.356 144.352 356.06 139.963H356.037Z" fill="#FF0000"/>
<path d="M345.249 139.288C346.907 137.817 351.599 137.233 354.868 137.56C363.692 138.47 379.988 140.688 389.98 145.965C394.392 148.299 395.093 148.929 395.14 150.143C395.186 151.334 396.984 150.914 397.964 147.972C398.922 145.031 400.486 137.42 400.929 136.112C401.373 134.805 400.392 133.498 399.155 131.91C397.918 130.299 385.708 121.591 373.288 118.136C360.844 114.681 358.159 115.755 355.078 116.875C351.996 117.996 346.813 118.93 344.082 128.969C342.191 135.879 341.677 135.786 341.397 137.84C341.117 139.895 341.981 142.182 345.272 139.288H345.249Z" fill="#4D0000"/>
<path d="M392.153 143.705C396.051 145.807 396.822 148.351 397.032 149.845C397.359 149.402 397.709 148.795 397.966 147.978C398.923 145.036 400.487 137.425 400.931 136.118C401.374 134.811 400.394 133.503 399.156 131.916C397.989 130.398 387.25 122.717 375.694 118.889C374.83 118.608 373.943 118.352 373.079 118.118C371.935 117.815 370.884 117.535 369.904 117.278C360.309 114.92 357.834 115.9 355.056 116.904C351.974 118.025 346.791 118.959 344.06 128.997C342.169 135.908 341.655 135.814 341.375 137.869C341.375 137.962 341.352 138.056 341.352 138.149C342.075 137.752 343.009 137.099 344.106 136.188C345.857 134.741 351.087 133.34 354.612 133.76C364.091 134.834 378.612 136.468 392.176 143.729L392.153 143.705Z" fill="#FF0000"/>
</svg>
