<svg width="120" height="120" viewBox="0 0 120 120" fill="none" xmlns="http://www.w3.org/2000/svg">
<path d="M0 16C0 7.16344 7.16344 0 16 0H104C112.837 0 120 7.16344 120 16V104C120 112.837 112.837 120 104 120H16C7.16344 120 0 112.837 0 104V16Z" fill="white"/>
<path d="M13.2681 0.079235C7.11546 1.04179 2.34834 5.19723 0.446184 11.3013C0.0234834 12.6629 0 14.3768 0 60.0161C0 105.656 0.0234834 107.369 0.446184 108.731C2.13699 114.131 5.87084 117.864 11.272 119.554C12.6341 119.977 14.3483 120 60 120C105.652 120 107.366 119.977 108.728 119.554C114.129 117.864 117.863 114.131 119.554 108.731C119.977 107.369 120 105.656 120 60.0161C120 14.3768 119.977 12.6629 119.554 11.3013C117.886 5.97197 114.387 2.40346 108.963 0.525299C107.554 0.032281 107.507 0.0322809 60.7045 0.00880389C34.9432 -0.0146732 13.5969 0.00880388 13.2681 0.079235ZM98.137 26.5848C98.3483 26.6553 98.5127 26.9839 98.5127 27.3126C98.5127 28.0404 95.8356 39.0981 95.3425 40.4598C95.1311 40.9997 94.7789 41.5162 94.5675 41.6336C94.3562 41.7275 87.7808 41.8684 79.9609 41.9388L65.7534 42.0562L64.2035 42.8075C62.5127 43.6526 61.7143 44.5682 61.0568 46.3994C60.7515 47.2681 59.2955 52.9965 59.2955 53.3487C59.2955 53.3956 65.4247 53.4426 72.9393 53.4426C81.8865 53.4426 86.7241 53.5365 87.0294 53.6773C87.2642 53.8182 87.4755 54.0999 87.4755 54.3347C87.4755 54.9451 84.9393 65.3924 84.5401 66.5193C83.8591 68.327 84.681 68.2331 69.3229 68.2331H55.6321L52.8611 79.549C49.409 93.7996 49.3386 94.0109 48.5871 94.2926C48.2583 94.4335 44.407 94.5274 39.6634 94.5274C31.6556 94.5274 31.3268 94.5039 30.8806 94.0579C30.6223 93.7996 30.411 93.4005 30.411 93.1657C30.411 92.4849 42.364 43.7935 42.8806 42.291C44.2427 38.5346 46.7789 34.614 49.3386 32.3367C52.6027 29.4255 57.0881 27.383 61.7847 26.7022C63.3581 26.4674 97.5734 26.3735 98.137 26.5848Z" fill="#e80024"/>
<path d="M13.2681 0.079235C7.11546 1.04179 2.34834 5.19723 0.446184 11.3013C0.0234834 12.6629 0 14.3768 0 60.0161C0 105.656 0.0234834 107.369 0.446184 108.731C2.13699 114.131 5.87084 117.864 11.272 119.554C12.6341 119.977 14.3483 120 60 120C105.652 120 107.366 119.977 108.728 119.554C114.129 117.864 117.863 114.131 119.554 108.731C119.977 107.369 120 105.656 120 60.0161C120 14.3768 119.977 12.6629 119.554 11.3013C117.886 5.97197 114.387 2.40346 108.963 0.525299C107.554 0.032281 107.507 0.0322809 60.7045 0.00880389C34.9432 -0.0146732 13.5969 0.00880388 13.2681 0.079235ZM98.137 26.5848C98.3483 26.6553 98.5127 26.9839 98.5127 27.3126C98.5127 28.0404 95.8356 39.0981 95.3425 40.4598C95.1311 40.9997 94.7789 41.5162 94.5675 41.6336C94.3562 41.7275 87.7808 41.8684 79.9609 41.9388L65.7534 42.0562L64.2035 42.8075C62.5127 43.6526 61.7143 44.5682 61.0568 46.3994C60.7515 47.2681 59.2955 52.9965 59.2955 53.3487C59.2955 53.3956 65.4247 53.4426 72.9393 53.4426C81.8865 53.4426 86.7241 53.5365 87.0294 53.6773C87.2642 53.8182 87.4755 54.0999 87.4755 54.3347C87.4755 54.9451 84.9393 65.3924 84.5401 66.5193C83.8591 68.327 84.681 68.2331 69.3229 68.2331H55.6321L52.8611 79.549C49.409 93.7996 49.3386 94.0109 48.5871 94.2926C48.2583 94.4335 44.407 94.5274 39.6634 94.5274C31.6556 94.5274 31.3268 94.5039 30.8806 94.0579C30.6223 93.7996 30.411 93.4005 30.411 93.1657C30.411 92.4849 42.364 43.7935 42.8806 42.291C44.2427 38.5346 46.7789 34.614 49.3386 32.3367C52.6027 29.4255 57.0881 27.383 61.7847 26.7022C63.3581 26.4674 97.5734 26.3735 98.137 26.5848Z" fill="black" fill-opacity="0.05"/>
</svg>
