<svg height="800" viewBox="0 0 800 800" width="800" xmlns="http://www.w3.org/2000/svg"><g fill="none" transform="translate(164 89)"><path d="m118.510426 540.85396 26.545212-22.310094c.61733-.515219.95882-1.275066.927671-2.064159-.031148-.789094-.431538-1.521421-1.087679-1.989402l-13.835298-9.963279c-1.041379-.746678-2.477228-.695166-3.458825.124088-27.155905 20.479788-41.0285393 30.864451-41.6205657 31.164333l-14.776674 7.44273c-1.5107996.760859-2.8301273 1.835039-3.8641765 3.146162-1.8544478 2.348128-2.6567916 5.32059-2.226422 8.24828.4303696 2.927689 2.0572857 5.564573 4.5145261 7.317083l65.4456531 47.500077c.821371.592005 1.917421.697997 2.842797.268859l13.677957-6.313007c.829371-.380021 1.29606-1.4477 1.405398-3.192696-4.722882-13.445516-16.726096-28.310294-24.214439-35.349737-1.920088-1.804455-5.221571-4.500797-9.904451-8.09678-2.218406-1.70206-3.64845-4.188709-3.97553-6.912897-.32708-2.724187.475599-5.462753 2.23145-7.613224.410685-.514451.872039-.984953 1.373396-1.406337z" fill="#ffc62e"/><path d="m85.5644171 530.672575c2.6781502-1.975069 5.3515215-3.956148 8.0200921-5.943221 7.0342158-5.234012 17.4361648-13.014371 31.2004148-23.327991 3.891247-3.078531 9.457518-3.210165 13.500806-.319275l14.09016 10.083325c2.652373 1.893636 4.268786 4.84545 4.393953 8.024023s-1.254457 6.239929-3.750281 8.321797l-27.034204 22.582144c-.61217.510686-.955938 1.257937-.937552 2.037962.018386.780026.397008 1.511467 1.032609 1.994845 4.967405 3.784191 8.500809 6.660281 10.7007 8.71463 10.502437 9.805922 22.047786 25.717319 26.702861 38.88871l.516024 1.462906-.097773 1.546651c-.271591 4.318061-1.865832 7.916444-6.06192 9.845177l-13.92992 6.390729c-3.675654 1.683611-8.016151 1.270706-11.279189-1.072973l-66.62679-48.074401c-4.2534896-3.026268-7.0671933-7.572016-7.8092139-12.616368s.649837-10.164497 3.8629916-14.210561c1.7811541-2.242485 4.0529453-4.079507 6.6539878-5.380565l14.5763082-7.298829c.6925579-.494614 1.3796841-.994462 2.2759354-1.648715zm49.6740579-17.230367-.222705.172722c.076046-.057574.152091-.112531.222705-.172722zm-9.799016 60.667434c-1.713741-1.598991-4.902224-4.195061-9.473106-7.680912-4.438109-3.385492-7.079787-8.500528-7.206338-13.953507-.12655-5.45298 2.27519-10.676692 6.551803-14.249968l21.93915-18.329511-5.426396-3.88102c-30.149356 22.59523-39.2395186 29.349723-40.5513048 30.006592l-15.0488765 7.53436c-.4767282.238608-.8930706.575457-1.2194454.986612-1.1732742 1.473375-.8663764 3.546043.7414443 4.697526l64.0629684 46.221561 6.472022-2.972919c-4.576314-9.79807-13.202056-21.244855-20.841921-28.378814z" fill="#524f75"/><path d="m370.248495 551.589431-26.009755-39.377014c-.752074-1.146349-2.254124-1.542272-3.478841-.916982l-15.300485 7.816929c-1.505448.980771-1.845043 2.660574-1.024133 3.909793l44.166045 81.316259c.560778 1.571653 1.455444 3.004856 2.623169 4.202164 2.129847 2.184717 5.051304 3.430453 8.11174 3.45942 3.060436.027969 6.004836-1.163204 8.175442-3.307919l58.701773-57.81763c1.125743-1.286431 1.005415-2.99547-.120329-3.976241-7.805332-6.474682-11.976734-9.661521-12.514202-9.563179-14.872649 2.695126-26.515137 7.282687-34.927462 13.768001-1.472838 1.1563-2.904299 2.36374-4.29173 3.62008v-.002657c-3.480679 3.096407-8.14614 4.531253-12.777871 3.929788s-8.769772-3.179512-11.333361-7.060812z" fill="#ffc62e"/><path d="m321.907204 514.425.342724-.231347 15.103011-8.014689c4.694342-2.489237 10.452188-.923516 13.348166 3.629744l25.065173 39.398026c1.235644 1.941596 3.23 3.230995 5.46208 3.531366 2.23208.300372 4.480174-.41812 6.157009-1.967784 1.473008-1.383434 2.993471-2.712087 4.558476-3.983413 9.19168-7.35522 21.547752-12.407613 37.008948-15.316726 1.290667-.259229 2.62448-.167591 3.870453.265915.497335.164868.930249.358986 1.352854.577037.48445.257937.953441.545126 1.466236.893475.749868.507898 1.667233 1.204596 2.808785 2.108709 2.107876 1.672608 5.066118 4.14828 9.042222 7.575929 4.375519 3.95948 4.651243 10.700435.855519 15.210361l-.391683.433443-56.569937 57.844576c-3.557672 3.643448-8.380008 5.666694-13.392065 5.619573-5.012058-.048788-9.79721-2.163958-13.288804-5.874852-1.74837-1.850288-3.120411-4.042783-4.035373-6.448449l-42.206486-80.676071c-2.917012-5.009846-1.327086-11.349269 3.442692-14.574823zm79.506621 44.979589c-.907056.725949-2.15426 1.818861-3.713264 3.262781-9.542134 8.812436-24.207079 7.977462-32.749388-1.869385-.769814-.885173-1.473591-1.829211-2.105299-2.824021l-22.532116-35.414612-5.98606 3.17503 40.485141 77.386698.198418.585014c.170073.491943.440644.938681.788521 1.305644.614085.659275 1.459408 1.035835 2.345514 1.045005.886105.008838 1.738451-.350471 2.364997-.997139l52.570641-53.757457c-1.331926-1.128261-2.679771-2.23636-4.043103-3.323942-.085037-.066479-.167496-.135617-.255109-.199437-11.765969 2.512901-20.872614 6.432494-27.368893 11.625821z" fill="#524f75"/><path d="m183 299c-82.303081-6.647161-111.0152416-22.685248-116.5285691-44.32217-5.5133275-21.636923 37.5774011-45.137535 116.3539631-67.67783" fill="#3d96c8"/><path d="m70.102571 257.051709c-4.4209653-14.486795 32.614112-38.856909 106.467014-64.763263 2.647861-.929104 4.599684-3.202443 5.120234-5.963671.520551-2.761229-.469254-5.590851-2.596564-7.422976-2.127311-1.832124-5.068939-2.388408-7.7168-1.459304-83.3204182 29.227883-124.7555215 56.492209-116.2957455 84.207448 8.6508538 28.341792 46.0314415 41.979199 124.7555225 44.343854 2.820942.112075 5.484835-1.301131 6.977108-3.701384 1.492273-2.400252 1.583215-5.418072.238189-7.904092-1.345025-2.486021-3.918973-4.057559-6.741529-4.116079-72.455155-2.178524-104.273546-13.786836-110.207429-33.220533z" fill="#524f75"/><path d="m81.5511426 509.748261c30.3146154 18.550447 95.2496134 30.732478 150.3243754 31.245211 23.144494.212981 64.974598-4.785516 125.503508-14.995494 35.927161-10.039065 61.965047-23.335963 66.159938-74.848621 6.095658-74.898581 7.090922-123.713473 2.972591-146.439415-3.328984-18.4032-9.194967-50.605515-17.603227-96.606943-12.077798-66.092706-69.586601-114.102999-136.683722-114.102999h-31.367958c-66.65097 0-123.911615 47.395013-136.461966 112.946062l-30.3753345 169.956805c-2.5554774 14.298701-16.2647689 23.825032-30.6182097 21.282398-3.2631097-.58072-6.3875959-1.767008-9.2108063-3.497107l-6.7213288-4.115018c-5.8712626-3.015926-16.4046868 1.143791-20.43589895 7.388626-4.03121325 6.244835 4.56976385 37.818722 11.41517015 49.672077 6.8480457 11.837579 32.785614 43.5666 63.1028687 62.114418z" fill="#3d96c8"/><path d="m79.3060817 513.502234c-26.6031369-16.269126-55.2748779-46.468904-66.0390308-65.087047-8.98425371-15.54412-17.18980136-48.828467-11.24885702-58.02681 6.20051194-9.601711 21.09922292-15.148662 30.82774932-10.160624l7.2679217 4.426488c5.2249903 3.20154 11.7028524 3.622801 17.3019253 1.12516 5.599073-2.497642 9.5941473-7.590683 10.6705696-13.603166l30.4940179-170.502859c13.3042173-69.447626 74.0273883-119.673376 144.7174653-119.673376h31.471375c71.161538 0 132.149575 50.879574 144.950546 120.899295 8.435981 46.128809 14.321302 78.41924 17.663912 96.879201 4.290829 23.701091 3.286986 73.062108-2.88704 148.868693-2.148063 26.387567-9.895392 45.024164-23.663125 58.179721-11.452805 10.940993-25.766161 17.49768-48.489011 23.84082-61.983933 10.492809-104.306866 15.546756-128.136856 15.325299-58.953866-.540459-124.145326-13.685469-154.9015623-32.490795zm-63.5678308-110.75449c.2966501 3.451026 1.1071393 7.919697 2.3175774 12.831281 2.4102797 9.778348 6.0654309 19.886244 8.9895508 24.948101 9.476904 16.390399 36.3051773 44.649799 60.5827917 59.49264 27.8347642 17.023131 90.4014022 29.632955 146.7330942 30.15496 22.558635.205638 64.04459-4.737582 124.100299-14.856023 20.17484-5.660316 32.300404-11.249451 41.369415-19.909972 10.732369-10.258171 16.972611-25.272377 18.829321-48.053371 6.057485-74.390846 7.040138-122.913492 3.08304-144.784934-3.342608-18.446778-9.225281-50.729299-17.661263-96.850201-11.426317-62.50339-65.843029-107.9019211-129.312859-107.9019211h-31.471375c-63.048693 0-117.227026 44.8158911-129.087724 106.7234591l-30.4754783 170.405312c-3.3320141 18.633962-21.2131152 31.053967-39.9338415 27.737396-4.2572286-.753521-8.3333371-2.300022-12.0143195-4.558308l-6.3700262-3.901848c-1.8779-.696005-7.4321389 1.368283-9.7126348 4.278851-.1271358 1.278646-.1059459 2.612656.0344322 4.244578z" fill="#524f75"/><path d="m422.438567 306.907421c4.010272 21.979387 2.180397 67.740188-3.760945 140.185978-4.086987 49.823283-29.455404 62.685666-64.468582 72.39571-58.976941 9.876096-93.655221 13.456914-116.20904 13.248691-15.128465-.139694-40.875849-4.169538-57.787245-6.420455 2.552777-3.049038 17.954696-8.880771 21.283142-11.064274 26.318079-17.274602 33.039818-60.025797 35.613694-75.631978 5.232402-31.721061 5.769396-70.250224 5.420217-182.232027-.185171-59.6862 42.830036-110.811537 101.846656-121.046091 5.308717-.922354 15.100058-2.382783 20.488797-2.356983 22.983621 19.974503 35.214895 47.950749 39.55949 78.026275 5.74396 31.142499 12.323032 63.742965 18.013816 94.895154z" fill="#fff"/><path d="m395 245.770181c11.757241 8.306425 26.242759 8.306425 38 0s19-23.657331 19-40.270181c0-25.681241-15.268923-44.239793-36.255744-44.239793-20.98682 0-39.744256 18.558552-39.744256 44.239793 0 16.61285 7.242759 31.963756 19 40.270181z" fill="#fff"/><path d="m417.5 252c23.281561 0 41.5-21.105647 41.5-46.5s-18.221189-46.5-41.5-46.5c-23.281559 0-41.5 21.105647-41.5 46.5s18.223937 46.5 41.5 46.5zm.000001-15.962925c-13.454928 0-25.00775-13.387573-25.00775-30.537075s11.558319-30.537075 25.00775-30.537075c13.44943 0 25.007748 13.387573 25.007748 30.537075s-11.558319 30.537075-25.007748 30.537075z" fill="#524f75"/><path d="m432.93379 213.842969c-1.563927 2.546752-3.863014 4.157031-6.43379 4.157031-4.696348 0-8.5-5.373305-8.5-12s3.803653-12 8.5-12c4.636986 0 8.406393 5.24197 8.5 11.757316l-6.301371 1.293362 4.235161 6.795146z" fill="#232323"/><path d="m378.997356 319.473241c13.995855-1.071661 25.838134 3.057891 47.457945-12.52917 9.014832-6.50194 25.343329-19.567135 32.959121-28.526962 7.212956-8.482646 4.907531-18.732731 0-25.527912-10.092693-13.971573-20.946535-18.658854-38.048043-23.889197-6.567872-2.007364-19.967613-7.387811-39.366379-11 4.96469 14.510069 1.155796 36.997862.559706 57.463378-.517155 17.866339-1.526392 29.518454-3.56235 44.009863z" fill="#ffc62e"/><path d="m394.292951 267.806565c1.836208-15.570973 1.97433-29.698508.389991-42.390612 10.14789 3.16969 19.23143 6.443437 26.481473 9.381005 1.998704.808431 4.051573 1.587513 6.432143 2.446638.920812.333511 1.855165.664354 3.057637 1.091248l2.930349 1.035219c14.039676 4.978656 19.442676 8.249734 23.797577 15.608326 3.33659 5.62967 3.190343 11.614195-1.010186 15.779082-6.602765 6.555497-21.603877 17.193171-33.658389 24.431699-13.947595 8.375134-23.020302 11.211313-34.541287 11.718251 2.415777-11.977055 4.452397-25.008006 6.120692-39.100856zm-16.238792 55.149416 1.773917.018677c2.421195.025103 3.704914.032017 5.186339.018676 16.043797-.130736 28.342055-3.439167 46.15706-14.138207 13.086365-7.854857 28.992039-19.138209 36.734987-26.822308 9.923104-9.853256 10.267055-23.724654 3.50721-35.128071-6.819427-11.502134-14.976738-16.446105-32.331338-22.59872l-2.946598-1.040555c-1.169973-.413554-2.069119-.733725-2.941183-1.051227-1.966661-.704036-3.918813-1.446803-5.855281-2.227855-10.676003-4.322306-24.951299-9.276949-40.775726-13.676629-5.974446-1.662219-11.558899 3.628602-10.101851 9.578443 3.396172 13.900748 3.981159 30.594986 1.687254 50.069373-2.063702 17.500001-4.712391 33.239063-7.946067 47.217186-.546097 2.362504.023475 4.84155 1.549028 6.742102 1.525552 1.900552 3.842866 3.018023 6.302249 3.039115z" fill="#524f75"/><path d="m294 211.5c0 25.681241 17.01318 46.5 38 46.5s38-20.818759 38-46.5-17.01318-46.5-38-46.5-38 20.818759-38 46.5z" fill="#fff"/><path d="m332.501284 270c27.489305 0 49.498716-25.220581 49.498716-55.99865 0-30.780769-22.006845-56.00135-49.498716-56.00135-27.494439 0-49.501284 25.220581-49.501284 56.00135 0 30.77807 22.006845 55.99865 49.501284 55.99865zm0-16.194721c-18.675275 0-34.101113-17.67384-34.101113-39.803929 0-22.132787 15.423272-39.806627 34.101113-39.806627 18.67784 0 34.098545 17.67384 34.098545 39.806627 0 22.130087-15.425838 39.803929-34.098545 39.803929z" fill="#524f75"/><path d="m355.360262 223.804604c-2.754713 3.179871-6.816451 5.195396-11.355867 5.195396-8.284653 0-15.004395-6.715738-15.004395-15s6.719742-15 15.004395-15c8.185016 0 14.834425 6.552462 14.995605 14.697538l-11.121422 1.616702z" fill="#232323"/><path d="m81.1339696 411.579315c8.5098617-1.053751 15.0901146-4.005375 20.9636384-8.631261 1.903138-1.500968 6.199097-5.453236 6.617311-5.771877 1.706192-1.303057 2.851995-3.268766 3.185114-5.464297.333119-2.19553-.17376-4.440854-1.409028-6.241573-1.234021-1.802507-3.096039-3.013001-5.175826-3.364793-2.079786-.351793-4.206695.183981-5.9121396 1.489283-1.1646469.88884-5.5770693 4.950117-6.8025944 5.911631-3.7295158 2.937648-7.7131374 4.723715-13.3166764 5.416901-6.8264177.844119-16.4029888-.027952-28.5814869-2.708451-2.8001917-.672641-5.7867897-2.70845-8.7682296 0-2.9814399 2.708451-9.0554181 3.37083-8.1400461 6.245135.9153719 2.874305 15.6876704 9.758194 18.509365 10.321796 14.0838561 2.797506 20.0428097 3.87921 28.8305986 2.797506z" fill="#524f75"/><path d="m316.025846 126.156303c51.904706-16.528797 88.412844-66.3226945 79.618467-92.8792303-8.802159-26.5544912-64.990521 17.3527035-116.888649 33.8852233-51.899518 16.5274337-122.813524 27.8135536-114.008771 54.367364 8.804752 26.55381 99.376841 21.154758 151.278953 4.626643z" fill="#ffd04f"/><path d="m317.937359 137.447635c-26.979757 7.093992-63.099615 10.690111-93.347095 9.232064-36.047923-1.738928-60.069547-9.871031-64.722838-26.922553-4.014553-14.702291 6.118026-25.1864228 25.994253-33.147179 13.200532-5.2876867 26.30391-8.617665 59.320593-15.8767049l4.908867-1.0814083c13.432563-2.9656954 21.942356-4.950985 30.222033-7.1280224 6.498717-1.7087568 13.368367-3.9819863 20.809883-6.8349493 8.436461-3.2353326 16.693325-6.8179252 28.718653-12.3333195 29.380186-13.4760261 33.307873-15.1662353 42.989885-17.6958984 15.738816-4.1141744 27.237194-.8231128 30.909042 12.614091 9.246052 33.8613392-33.734439 85.4830248-85.803276 99.1738798zm-4.104615-15.022107c22.652381-5.956162 43.531319-19.78921 58.176606-37.3825211 13.16931-15.8178197 19.230904-32.4476306 16.420989-42.7382327-.860066-3.1497755-3.144012-3.8024633-11.521514-1.61312-8.30606 2.1705571-12.350749 3.9129997-40.36093 16.7577594-12.309499 5.6464679-20.827753 9.3434099-29.657599 12.730483-7.956507 3.0500963-15.368397 5.5007865-22.478796 7.3730603-8.537381 2.2447983-17.219491 4.27003-30.846154 7.2760276l-4.921625 1.0847617c-32.012519 7.0406283-44.758686 10.2766822-56.795921 15.0974808-13.355808 5.349984-17.939802 10.094904-16.675683 14.724423 4.792578 17.551611 83.006905 21.323335 138.660627 6.689878z" fill="#524f75"/><path d="m249.785685 131.466347c36.333075-17.223345 68.18019-52.2341224 62.635758-70.7574307-5.54256-18.5266175-51.76581-52.73226677-127.203609-28.6873753-75.447346 24.0502984-78.508454 96.419824-69.831133 123.678212 8.682436 27.25699 98.065909-7.010062 134.398984-24.233406z" fill="#fd6b4d"/><path d="m171.989002 20.4225418c21.901775 14.4316375 43.851949 28.3615999 55.323522 40.2616466 9.70115 10.0658623 22.317232 28.3138349 37.847054 54.7497926 2.832488 4.825842-65.486777 39.790976-66.96595 36.3901-10.812342-24.856657-17.835985-44.9154-21.063911-60.1809016-3.67238-17.3524395-5.681595-48.0382217-5.140715-71.2206376zm5.173955 2.5774582c32.722809-8.3690108 51.626959-7.1919235 73.082751-5.8041754 21.455104 1.3851584 44.330709 13.0475092 66.754292 32.9653705l-6.336075 34.1453273c-19.057681-23.0620318-35.33187-40.2911304-48.819315-51.6854007-9.422158-7.9592056-21.809837-10.4766059-47.015356-8.6211217-21.159622 1.5576487-23.462799.6819231-36.793456 0zm-16.686353 2.2152588c-20.472681 40.2938811-27.74367 57.9184547-24.704641 75.3948172 3.03834 17.473771 8.752327 40.271045 17.138704 68.389924l-49.142773-7.11894c-.231053-5.303824-3.7814781-9.971785-3.767855-14.914203.07607-28.309252 4.176263-50.737668 12.294288-67.2779839 9.539369-19.4283948 24.634233-30.0833205 48.182277-54.4736143z" fill="#ff8b74"/><path d="m245.958229 128.751571c36.032982-15.506727 66.206262-46.0539572 61.582879-64.3007873-4.617539-18.2456541-41.42894-48.9022687-118.585948-29.5016856-77.151853 19.3992253-83.972222 89.3959359-76.650618 116.2639039 7.328139 26.871677 97.618128-6.954026 133.653687-22.461431zm-73.626814 42.37179c-16.480321 4.142255-30.431478 6.2337-41.71033 5.82666-16.896372-.616331-29.796092-7.050256-33.7786065-21.659313-5.3774652-19.726154-3.2520037-47.445014 7.4618615-71.3521572 13.991642-31.2269094 40.950997-54.2404087 80.689191-64.2311966 38.201788-9.607863 70.845956-8.6265775 96.325315 1.2330825 22.009368 8.5200316 37.713358 23.7209304 41.762174 39.7080826 7.08358 28.0112638-27.765133 64.0444247-70.703547 82.5210477-25.410901 10.930781-55.256934 21.723693-80.046058 27.953794z" fill="#524f75"/><path d="m187.49043 16.1085214c-1.382352-5.1752587-5.422496-9.21595561-10.598156-10.59960756-5.17566-1.38365196-10.700289.10001528-14.492278 3.89197474-3.791988 3.79195942-5.275065 9.31594542-3.890426 14.49059002 1.382352 5.1752587 5.422496 9.2159556 10.598156 10.5996076 5.17566 1.3836519 10.700289-.1000153 14.492278-3.8919748 3.791988-3.7919594 5.275065-9.3159454 3.890426-14.49059z" fill="#ffd04f"/><path d="m179.794184 40.2939094c-10.932832 2.9345287-22.168551-3.5450574-25.093412-14.4797375-2.924861-10.9346791 3.573819-22.17443235 14.504209-25.10830568s22.168551 3.54505742 25.093413 14.47973748c2.927304 10.9340238-3.57382 22.1744324-14.50421 25.1083057zm-2.616054-9.7899837c2.655387-.7071732 4.921579-2.4420643 6.300036-4.8230154s1.756264-5.212926 1.050306-7.8729198c-.716315-2.6572136-2.457039-4.9205444-4.839231-6.2920834-2.382191-1.3715389-5.210713-1.73893607-7.863319-1.0213678-2.656406.7067503-4.923582 2.4419577-6.302478 4.8236688s-1.756485 5.2146994-1.049653 7.8753685c.716962 2.6570406 2.458238 4.919948 4.840765 6.2909054 2.382528 1.3709574 5.211141 1.7376624 7.863574 1.0194437z" fill="#524f75"/><path d="m147 370c-82.3030807-6.647315-111.0152416-22.685772-116.5285691-44.320606s37.5774013-45.138578 116.3539631-67.679394" fill="#3d96c8"/><g fill="#524f75"><path d="m145.568571 366.314373c-73.242064-4.707163-105.0328556-17.399222-110.3494324-37.008036-3.964904-14.611053 34.3748713-37.641592 110.0234414-60.920839 2.749912-.80359 4.848681-3.007664 5.4925-5.768084.643818-2.760419-.267083-5.64942-2.383837-7.560543s-5.111341-2.548213-7.836865-1.667272c-85.3488029 26.266385-128.2392066 52.027496-120.6565924 79.985109 7.7548857 28.58855 45.100785 43.500673 124.6771534 48.60839 4.380245.281947 8.162521-2.997054 8.44795-7.323853.28543-4.326799-3.034074-8.062926-7.414318-8.344872z"/><path d="m159 375c0 6.627417 5.372583 12 12 12s12-5.372583 12-12c0-4.287187-2.287187-8.248711-6-10.392305-3.712813-2.143593-8.287187-2.143593-12 0-3.712813 2.143594-6 6.105118-6 10.392305z"/></g></g></svg>