<svg viewBox="0 0 283 253" fill="none" xmlns="http://www.w3.org/2000/svg">
<path d="M81.9709 35.2186C81.9709 35.2186 82.5382 57.229 77.6183 65.865C72.7093 74.501 60.4804 94.1531 77.6183 100.769C94.7562 107.386 122.334 131.23 127.068 127.256C131.803 123.282 133.057 110.617 135.839 105.912C138.621 101.195 154.264 77.8637 163.22 67.9503C172.166 58.0369 174.773 48.7676 174.773 48.7676C174.773 48.7676 159.228 24.1806 114.905 10.8717C114.905 10.8717 100.582 4.82326 86.9018 6.5592C80.8691 16.0905 81.9709 35.2186 81.9709 35.2186Z" fill="#FF1700"/>
<path d="M127.988 26.625C130.846 27.7714 135.45 29.2234 139.879 30.3371C135.657 29.4418 131.457 28.0552 127.988 26.625Z" fill="url(#paint0_linear_877_12698)"/>
<path d="M120.963 16.418C120.963 16.418 111.265 16.7783 114.734 24.7701C118.203 32.762 130.694 42.9593 130.694 42.9593C130.694 42.9593 150.177 30.5129 146.566 25.0649C142.944 19.6278 120.963 16.418 120.963 16.418Z" fill="#EAEDF3"/>
<path d="M146.994 27.1929C146.219 30.381 138.42 31.2107 129.583 29.049C120.736 26.8872 114.202 22.5638 114.976 19.3758C115.751 16.1878 123.551 15.358 132.387 17.5197C141.234 19.6815 147.779 24.0159 146.994 27.1929Z" fill="url(#paint1_linear_877_12698)"/>
<path d="M146.151 26.7693C146.489 25.3718 133.3 13.0674 134.118 11.2878L133.747 7.54297C133.616 8.05611 133.474 8.55833 133.289 9.06055C132.515 11.1786 131.598 13.4168 130.038 15.0872C128.544 16.6812 126.656 17.3909 124.616 17.6529C119.849 17.2489 116.424 17.8494 116.042 19.4107C115.486 21.7143 121.769 25.2299 130.082 27.2606C135.165 28.5052 139.823 28.8983 142.813 28.4943C143.478 28.4725 144.132 28.3742 144.7 28.0794C144.754 28.0576 144.798 28.0249 144.852 27.9921C145.562 27.6973 146.02 27.2824 146.151 26.7693Z" fill="url(#paint2_linear_877_12698)"/>
<path opacity="0.3" d="M143.054 94.9483L143.043 94.9702C141.483 96.859 140.054 98.9552 138.636 101.204C134.382 107.908 131.545 114.393 129.647 119.994C129.604 120.125 129.549 120.245 129.506 120.365C126.92 127.451 120.135 131.01 112.848 129.274C108.233 128.171 103.193 126.435 98.0225 123.695C90.059 119.481 81.4737 114.884 76.9901 104.545C76.5428 103.519 75.9974 102.1 75.5938 99.6867C76.4665 98.8897 77.9501 99.2936 82.1173 99.2063C84.2009 99.1735 86.9608 99.0098 90.7026 98.5294C93.8116 98.1254 96.5497 97.9835 98.9824 97.9726C99.2661 97.9726 99.5497 97.9726 99.8333 97.9726C107.24 97.9944 111.331 98.977 113.699 96.1275C113.982 95.7781 114.244 95.3741 114.484 94.8937C116.164 91.4874 115.826 87.5897 116.393 83.9322C117.048 79.7616 119.502 77.7418 122 74.5974C123.909 72.1955 125.371 69.5097 127.356 67.1515C130.815 63.0354 134.251 58.0241 140.349 58.6465C145.629 59.1814 150.025 63.3848 153.527 67.0314C150.32 69.7718 144.342 88.9217 144.342 88.9217C144.342 88.9217 144.385 88.9544 144.385 89.009C144.276 89.3584 143.643 91.531 143.054 94.9483Z" fill="url(#paint3_linear_877_12698)"/>
<path d="M143.303 78.5285C125.391 75.8318 108.525 68.7243 94.082 57.7955C95.1511 54.3673 96.2093 50.9282 97.2783 47.5C112.289 58.8655 129.82 66.246 148.43 69.0518C146.717 72.2071 145.005 75.3624 143.303 78.5285Z" fill="#EAEDF3"/>
<path d="M135.722 92.558C118.846 90.0142 102.963 83.3215 89.3594 73.026C90.4284 69.5978 91.4866 66.1587 92.5557 62.7305C106.726 73.4627 123.275 80.4392 140.849 83.0814C139.137 86.2366 137.424 89.4028 135.722 92.558Z" fill="#EAEDF3"/>
<path d="M79.3847 165.151C79.3847 165.151 75.0539 167.935 69.0213 171.735C67.6795 172.575 66.2613 173.471 64.7777 174.399C52.9852 181.768 37.6473 191.125 33.1201 192.817C25.462 195.678 22.8984 185.753 22.8984 185.753C22.8984 185.753 35.52 175.676 39.4254 165.304C40.7018 161.898 43.2217 158.928 46.0362 156.45C47.2907 155.358 48.5889 154.364 49.8652 153.48C54.5015 150.259 58.8105 148.469 58.8105 148.469L79.3847 165.151Z" fill="#FF1700"/>
<path d="M74.0835 117.734C73.4835 117.734 44.2367 146.809 49.4403 149.014C54.6438 151.219 68.3781 174.878 81.2397 167.454C94.1122 160.041 105.927 139.264 105.927 139.264L74.0835 117.734Z" fill="#6292FF"/>
<path d="M14.7921 224.789C15.5121 225.794 17.6939 228.851 20.2575 228.163C23.2902 227.344 23.9774 221.787 24.0865 220.673C24.152 220.018 23.672 219.429 23.0065 219.363C22.352 219.298 21.7629 219.778 21.6975 220.444C21.4684 222.802 20.5629 225.597 19.6357 225.838C19.1993 225.958 18.1739 225.379 16.7448 223.381C10.9631 215.302 3.67596 190.376 3.5996 190.136C3.41415 189.503 2.74871 189.132 2.11599 189.317C1.48328 189.503 1.11237 190.169 1.29783 190.802C1.59237 191.85 8.77042 216.383 14.7921 224.789Z" fill="#AABBCC"/>
<path d="M11.9563 217.256C12.2945 217.726 12.9272 217.901 13.4617 217.628L17.4653 215.652C18.0544 215.357 18.3053 214.636 18.0107 214.047C17.7162 213.446 16.9962 213.206 16.4071 213.501L12.4035 215.477C11.8145 215.772 11.5636 216.492 11.8581 217.082C11.8908 217.147 11.9236 217.202 11.9563 217.256Z" fill="#AABBCC"/>
<path d="M4.79221 198.151C5.13039 198.62 5.7631 198.795 6.29764 198.522L10.3012 196.546C10.8903 196.251 11.1412 195.531 10.8467 194.941C10.5521 194.341 9.83212 194.1 9.24304 194.395L5.23948 196.371C4.6504 196.666 4.39949 197.387 4.69403 197.976C4.71585 198.042 4.75949 198.107 4.79221 198.151Z" fill="#AABBCC"/>
<path d="M23.7615 185.031C23.7615 185.031 16.9871 187.204 14.5871 186.603C12.1872 186.003 4.57275 190.01 8.57632 196.124C12.5799 202.238 10.2781 202.238 14.5871 210.754C18.8961 219.27 23.0961 226.89 26.2051 221.279C29.3141 215.667 29.7287 194.573 32.0195 193.143C28.7905 193.089 23.7615 185.031 23.7615 185.031Z" fill="#4A71C9"/>
<path d="M24.9036 198.868C24.8272 198.802 24.7618 198.715 24.7291 198.606C24.62 198.289 24.7836 197.951 25.1 197.842C25.2854 197.776 29.5944 196.335 31.3399 198.726C31.5362 198.999 31.4708 199.37 31.209 199.567C30.9362 199.763 30.5653 199.709 30.369 199.436C29.3544 198.038 26.5072 198.639 25.4927 198.977C25.2854 199.053 25.0672 198.999 24.9036 198.868Z" fill="white"/>
<path d="M24.7509 201.923C24.6636 201.847 24.5981 201.749 24.5654 201.64C24.4672 201.323 24.6527 200.984 24.969 200.897C25.1218 200.853 28.809 199.794 30.5435 202.175C30.7398 202.447 30.6744 202.819 30.4126 203.015C30.1398 203.212 29.769 203.157 29.5726 202.884C28.329 201.181 25.3399 202.044 25.3072 202.054C25.1108 202.098 24.9036 202.054 24.7509 201.923Z" fill="white"/>
<path d="M24.7648 205.343C24.6993 205.289 24.6448 205.223 24.6121 205.136C24.4703 204.841 24.6012 204.481 24.8957 204.339C25.9321 203.847 28.2775 203.433 29.6956 205.387C29.892 205.66 29.8265 206.031 29.5647 206.228C29.292 206.424 28.9211 206.37 28.7247 206.097C27.5357 204.47 25.4957 205.398 25.4084 205.431C25.1793 205.54 24.9284 205.496 24.7648 205.343Z" fill="white"/>
<path d="M24.4343 208.421C24.3579 208.356 24.3034 208.279 24.2597 208.181C24.1397 207.875 24.2925 207.526 24.5979 207.406C24.7397 207.351 28.056 206.107 29.8014 208.508C29.9978 208.781 29.9324 209.153 29.6705 209.349C29.3978 209.546 29.0269 209.48 28.8306 209.218C27.6197 207.559 25.0561 208.519 25.0234 208.519C24.827 208.607 24.5979 208.563 24.4343 208.421Z" fill="white"/>
<path d="M69.0241 171.735C67.6823 172.576 66.2642 173.471 64.7805 174.399C58.737 169.038 49.279 159.671 46.0391 156.45C47.2936 155.358 48.5917 154.365 49.8681 153.48C53.6535 157.247 63.6133 167.073 69.0241 171.735Z" fill="white"/>
<path d="M119.705 155.655C119.705 155.655 118.756 158.308 117.316 162.37C116.781 163.876 116.17 165.58 115.516 167.414C111.25 179.369 105.011 196.881 103.091 202.253C100.091 210.67 96.1744 226.316 86.9891 222.101C80.4437 186.804 84.9928 175.449 85.6473 173.113C85.7018 172.916 85.7237 172.785 85.7237 172.709C85.6255 171.726 86.9782 170.34 86.1818 167.337C86.1164 167.119 86.0509 166.89 85.9746 166.66C84.7746 163.167 88.2763 156.845 88.2763 156.845C119.269 137.892 119.705 155.655 119.705 155.655Z" fill="#FF1700"/>
<path d="M120.077 156.388C119.957 156.136 119.837 155.885 119.706 155.645C116.848 150.536 110.444 151.387 103.954 154.128C94.8993 157.938 85.6703 165.406 85.6703 165.406C85.6703 165.406 89.8812 182.099 77.5541 141.801C70.5506 118.885 70.2452 104.626 71.2924 96.5904C71.6088 94.1666 73.1033 92.0486 75.2851 90.935C77.4559 89.8213 80.0413 89.8541 82.1904 91.0114C86.9794 93.6098 92.4339 97.5839 97.7901 101.962C111.263 112.967 124.113 126.451 124.113 126.451C124.113 126.451 126.23 137.598 120.077 156.388Z" fill="#A3BFFF"/>
<path d="M113.523 252.714C114.843 252.551 118.879 252.027 119.545 249.243C120.33 245.934 115.388 242.419 114.396 241.742C113.796 241.338 112.999 241.502 112.596 242.091C112.192 242.692 112.356 243.5 112.945 243.893C115.061 245.323 117.265 247.627 117.025 248.631C116.916 249.112 115.846 249.788 113.206 250.127C102.559 251.481 75.0908 245.629 74.8181 245.574C74.1199 245.421 73.4217 245.869 73.2799 246.568C73.1272 247.266 73.5745 247.965 74.2726 248.107C75.4072 248.369 102.439 254.134 113.523 252.714Z" fill="#AABBCC"/>
<path d="M104.908 251.547C105.53 251.47 106.02 250.946 106.042 250.302L106.217 245.476C106.239 244.756 105.682 244.155 104.962 244.133C104.242 244.112 103.642 244.668 103.62 245.389L103.446 250.215C103.424 250.935 103.98 251.536 104.7 251.558C104.766 251.558 104.842 251.558 104.908 251.547Z" fill="#AABBCC"/>
<path d="M83.0562 248.566C83.678 248.49 84.1689 247.966 84.1907 247.322L84.3652 242.496C84.3871 241.775 83.8307 241.175 83.1107 241.153C82.3907 241.131 81.7907 241.688 81.7689 242.409L81.5944 247.234C81.5726 247.955 82.1289 248.555 82.8489 248.577C82.9143 248.577 82.9798 248.577 83.0562 248.566Z" fill="#AABBCC"/>
<path d="M86.5335 219.547C86.5335 219.547 81.9191 221.72 81.3191 227.736C80.7191 233.752 71.032 242.016 82.0718 243.294C93.1116 244.571 121.355 245.696 118.508 241.94C115.649 238.184 104.839 235.324 102.657 230.138C100.475 224.952 96.3625 218.543 96.3625 218.543L86.5335 219.547Z" fill="#4A71C9"/>
<path d="M95.3808 228.544C95.2718 228.544 95.1736 228.511 95.0754 228.457C94.7918 228.282 94.6936 227.922 94.8681 227.638C94.9663 227.474 97.3117 223.576 100.203 224.275C100.53 224.352 100.726 224.679 100.65 225.007C100.573 225.334 100.246 225.531 99.9189 225.454C98.239 225.05 96.4499 227.343 95.9045 228.26C95.7845 228.435 95.5881 228.544 95.3808 228.544Z" fill="white"/>
<path d="M97.2329 230.967C97.1239 230.967 97.0039 230.935 96.9057 230.869C96.633 230.684 96.5457 230.312 96.7311 230.039C96.8184 229.908 98.9456 226.71 101.804 227.408C102.131 227.485 102.327 227.812 102.251 228.14C102.175 228.467 101.847 228.664 101.52 228.587C99.4693 228.096 97.7457 230.684 97.7348 230.716C97.6257 230.88 97.4293 230.967 97.2329 230.967Z" fill="white"/>
<path d="M99.4503 233.578C99.363 233.578 99.2866 233.556 99.1994 233.523C98.8939 233.381 98.763 233.032 98.9048 232.726C99.3739 231.678 100.89 229.844 103.236 230.411C103.563 230.488 103.759 230.815 103.683 231.143C103.607 231.47 103.279 231.667 102.952 231.59C100.999 231.121 100.039 233.141 99.9957 233.228C99.8975 233.446 99.6794 233.578 99.4503 233.578Z" fill="white"/>
<path d="M101.194 236.136C101.095 236.136 100.997 236.114 100.91 236.06C100.615 235.896 100.506 235.536 100.67 235.241C100.746 235.11 102.459 232.009 105.361 232.719C105.688 232.795 105.884 233.123 105.808 233.45C105.732 233.778 105.404 233.974 105.088 233.898C103.092 233.417 101.75 235.808 101.739 235.83C101.608 236.027 101.401 236.136 101.194 236.136Z" fill="white"/>
<path d="M117.317 162.357C116.782 163.864 116.172 165.567 115.517 167.401C111.023 160.523 92.0847 169.377 85.6484 173.1C85.703 172.904 85.7248 172.773 85.7248 172.696C85.6266 171.714 86.9793 170.327 86.183 167.325C93.1538 163.7 109.43 156.363 117.317 162.357Z" fill="white"/>
<path opacity="0.3" d="M85.6703 165.417C85.6703 165.417 89.8812 182.111 77.5541 141.813C70.5506 118.896 70.2452 104.638 71.2924 96.6021C71.6088 94.1784 73.1033 92.0603 75.2851 90.9467C77.4559 89.8331 80.0413 89.8658 82.1904 91.0231C86.9794 93.6216 92.4338 97.5957 97.7901 101.974C97.5174 104.365 96.5901 107.051 94.7902 110.053C81.3286 132.566 86.8485 127.587 98.8592 143.32C101.925 147.337 103.43 150.962 103.954 154.139C94.8993 157.95 85.6703 165.417 85.6703 165.417Z" fill="url(#paint4_linear_877_12698)"/>
<path d="M98.6118 6.99462C97.859 6.57975 97.0409 6.33955 96.1791 6.31772C92.9064 6.21945 83.732 6.01201 75.6922 6.62341C74.0558 6.75443 72.4631 6.90728 70.9795 7.1038C69.0487 7.36583 66.3978 7.72612 63.3215 8.18467C49.5981 10.2591 27.3876 14.5498 22.9695 22.4543C17.5696 32.1166 27.5076 40.6544 39.4419 40.3705C51.3762 40.0866 74.2958 38.0559 83.9502 39.1914C93.4519 40.305 119.753 18.8077 98.6118 6.99462Z" fill="#FF1700"/>
<path d="M179.816 79.5873C178.343 90.9201 172.856 101.63 160.42 106.14C135.176 115.3 138.416 88.0268 138.416 88.0268C138.416 88.0268 145.998 85.9415 147.58 76.4648C147.656 75.9954 147.798 75.5041 147.984 74.9909C151.638 65.2194 174.721 48.668 174.721 48.668C177.208 53.1225 179.238 59.8588 179.958 67.2065C180.339 71.2461 180.339 75.4604 179.816 79.5873Z" fill="#FF1700"/>
<path d="M278.805 165.894L268.333 170.174L266.391 170.971L243.308 180.415C242.653 180.688 241.977 180.906 241.3 181.081C240.7 181.245 240.1 181.354 239.5 181.441C235.748 181.965 231.821 181.135 228.472 179.039L206.545 164.224L206.436 164.158L206.414 164.147L199.727 159.627L203.665 154.878L208.377 157.083L208.945 157.214L209.85 157.869L209.861 157.979L227.817 167.324C230.981 168.645 234.515 168.765 237.57 167.423L247.966 162.946L247.988 162.859L270.558 152.825C271.9 152.236 273.351 151.985 274.802 152.138C274.845 152.138 274.889 152.138 274.933 152.138C275.74 152.225 276.547 152.432 277.332 152.76L278.358 153.186C280.78 154.201 282.492 156.406 282.831 158.95C283.234 161.92 281.598 164.748 278.805 165.894Z" fill="#6292FF"/>
<path d="M4.1939 27.9362C3.52845 28.0672 2.96119 28.4603 2.60119 29.0171L1.27031 31.1242C0.91032 31.681 0.801225 32.3688 0.964859 33.0239C1.12849 33.679 1.54303 34.2576 2.13211 34.6288L206.543 164.213L209.827 158.132L6.14658 28.3074C5.5575 27.9362 4.85934 27.8052 4.1939 27.9362Z" fill="#6973CF"/>
<path opacity="0.5" d="M274.821 152.093L268.341 170.173L266.399 170.97L243.316 180.414C242.661 180.687 241.985 180.905 241.309 181.08L248.018 162.76L270.588 152.759C271.908 152.169 273.37 151.94 274.821 152.093Z" fill="white"/>
<path d="M139.148 87.8989C139.148 87.8989 159.133 104.843 151.857 109.778C151.857 109.778 150.58 110.193 149.719 110.117C148.857 110.051 133.683 124.496 125.861 119.244C118.05 113.993 102.254 107.922 112.716 102.78C123.177 97.6376 125.926 97.8451 127.017 97.1572C128.119 96.4694 131.064 93.729 133.803 93.1831C136.573 92.6263 135.701 86.7307 139.148 87.8989Z" fill="#72A3FD"/>
<path d="M19.1967 27.8724C19.1967 27.8724 19.6767 16.2122 23.833 19.5967C28.0983 23.0577 42.2363 34.5978 39.3563 38.4846C36.52 42.3168 33.6837 39.3034 32.9092 41.2359C32.1455 43.1574 28.1965 49.6099 27.4438 50.254C26.6911 50.8873 29.7347 52.8743 28.8292 55.1343C27.9238 57.3943 7.00054 54.1626 7.89507 41.4215C7.90597 41.4215 6.86963 32.6217 19.1967 27.8724Z" fill="#72A3FD"/>
<g opacity="0.3">
<path d="M25.9373 51.6408C25.9155 51.6408 25.8937 51.6298 25.8719 51.6298C22.8719 50.9093 9.51944 42.8082 8.97399 42.4807C8.76672 42.3606 8.69036 42.0876 8.78854 41.8693C8.88672 41.6618 9.13762 41.5854 9.33398 41.7055C9.46489 41.7819 23.1337 50.0358 25.981 50.7127C26.2319 50.7673 26.3955 51.0184 26.3628 51.2695C26.341 51.5097 26.1555 51.6517 25.9373 51.6408Z" fill="#72A4FC"/>
<path d="M22.3275 54.5665C22.2075 54.5555 22.0875 54.49 22.0002 54.3918C20.0148 51.9571 20.9857 49.0748 21.0294 48.9438C21.1057 48.7145 21.3675 48.6053 21.5857 48.7145C21.8148 48.8237 21.9348 49.0966 21.8475 49.3259C21.8148 49.4351 21.0075 51.8479 22.633 53.8241C22.7966 54.0315 22.7857 54.3154 22.6111 54.4791C22.5348 54.5446 22.4257 54.5665 22.3275 54.5665Z" fill="#73A4FD"/>
<path d="M17.53 52.2838C17.41 52.2729 17.3009 52.2183 17.2136 52.1091C15.2719 49.7181 16.2318 46.8686 16.2755 46.7485C16.3518 46.5192 16.6027 46.41 16.8209 46.5192C17.0391 46.6174 17.1591 46.8904 17.0827 47.1197C17.05 47.2288 16.2646 49.6089 17.8464 51.5523C18.01 51.7488 17.9991 52.0436 17.8245 52.1965C17.7373 52.262 17.6282 52.2947 17.53 52.2838Z" fill="#72A4FC"/>
<path d="M12.8456 49.1723C12.7365 49.1613 12.6165 49.1067 12.5401 49.0085C10.6529 46.6721 11.5911 43.8443 11.6347 43.7242C11.7111 43.495 11.951 43.3967 12.1692 43.495C12.3874 43.5932 12.4965 43.8553 12.4201 44.0845C12.3874 44.1937 11.6129 46.552 13.1619 48.4517C13.3147 48.6482 13.3147 48.9321 13.1401 49.0849C13.0528 49.1504 12.9438 49.1832 12.8456 49.1723Z" fill="#73A4FD"/>
</g>
<g opacity="0.3">
<path d="M33.5296 39.7602C33.4205 39.7493 33.3005 39.7056 33.2133 39.6183L21.388 27.8707C21.2135 27.696 21.2026 27.4012 21.3662 27.2265C21.5298 27.0409 21.8026 27.0409 21.988 27.2156L33.846 38.9632C34.0314 39.1488 34.0423 39.4545 33.8678 39.6292C33.7805 39.7275 33.6605 39.7711 33.5296 39.7602Z" fill="#73A5FE"/>
</g>
<path d="M78.0115 23.2864L67.648 22.2711C67.6153 21.9108 67.5717 21.5505 67.5281 21.2011C66.7862 15.4583 64.659 10.72 63.3281 8.19797C66.4153 7.7285 69.0662 7.36821 70.9862 7.1171C72.4698 6.92058 74.0625 6.75682 75.6988 6.63672C78.0988 11.7354 78.0115 23.2864 78.0115 23.2864Z" fill="#73A4FD"/>
<path d="M179.82 79.5885C173.492 77.4704 157.402 79.4029 159.147 75.9419C161.078 72.1098 160.489 67.8081 160.489 67.8081C172.685 64.9258 177.812 65.9958 179.95 67.2186C180.343 71.2473 180.343 75.4615 179.82 79.5885Z" fill="#73A4FD"/>
<path d="M119.742 12.6279C119.742 12.6279 123.015 18.0977 122.982 19.3096C122.949 20.5215 123.026 23.8951 127.204 22.6832C131.393 21.4714 134.535 20.7071 134.535 20.7071L126.473 9.89844L119.742 12.6279Z" fill="url(#paint5_linear_877_12698)"/>
<path d="M122.894 14.2921C120.908 12.9929 119.632 9.81581 120.374 7.15186C121.006 4.85911 122.948 3.7564 124.104 3.09041C127.464 1.16887 132.482 0.863171 135.308 3.66906C136.988 5.32857 136.584 10.4272 136.562 11.3225C136.53 12.3378 136.006 12.9056 135.668 13.8008C135.188 15.0564 134.446 17.0325 133.257 20.3297C132.832 19.6855 132.253 18.9104 131.512 18.1134C131.228 17.8077 130.083 16.6286 128.73 15.8206C126.014 14.2157 124.781 15.5149 122.894 14.2921Z" fill="url(#paint6_linear_877_12698)"/>
<path d="M135.482 17.0452C135.482 17.0452 134.675 22.0674 129.951 23.6942C125.718 25.1463 121.442 15.5276 123.297 12.3287C123.918 11.2588 125.566 10.2325 127.158 10.0469C128.096 9.93769 128.522 10.1997 130.049 9.99228C131.456 9.80668 131.762 9.50098 132.285 9.68658C132.929 9.91585 133.682 10.833 133.944 14.0537C134.413 12.8746 135.242 12.1431 136.027 12.1977C136.158 12.2086 136.518 12.2959 136.791 12.5361C137.794 13.4314 137.369 15.2874 135.482 17.0452Z" fill="url(#paint7_linear_877_12698)"/>
<path d="M132.264 9.01864C132.123 9.25883 133.028 9.79381 133.486 10.8965C134.381 13.0364 133.29 16.5192 131.272 17.6219C130.072 18.277 129.439 17.6219 127.29 18.2551C125.959 18.6482 124.966 19.2705 124.355 19.7072C124.595 22.3712 126.09 24.4892 127.999 24.9587C130.05 25.4718 131.839 23.8778 132.581 23.2228C133.083 22.7751 134.686 21.3558 134.97 19.1504C135.275 16.8467 133.868 16.1371 134.544 14.3793C134.883 13.495 135.548 12.8945 135.821 11.3441C135.897 10.9183 135.919 10.569 135.93 10.3288C134.424 9.57545 132.461 8.66927 132.264 9.01864Z" fill="url(#paint8_linear_877_12698)"/>
<path d="M142.702 10.1744C143.117 14.2358 141.6 20.0114 137.804 20.3826C134.008 20.7538 133.277 9.9451 133.277 9.9451C133.277 9.9451 129.24 11.4408 119.542 12.7292C116.684 5.67622 125.51 2.17159 125.51 2.17159C126.12 1.94231 126.71 1.75671 127.288 1.59294C128.848 1.15623 130.277 0.948787 131.586 0.937869C138.993 0.88328 142.375 6.89901 142.702 10.1744Z" fill="#72A4FC"/>
<path d="M142.702 10.1744C143.117 14.2358 141.6 20.0114 137.804 20.3826C134.008 20.7538 133.277 9.9451 133.277 9.9451C133.277 9.9451 129.24 11.4408 119.542 12.7292C116.684 5.67622 125.51 2.17159 125.51 2.17159C126.12 1.94231 126.71 1.75671 127.288 1.59294C128.848 1.15623 130.277 0.948787 131.586 0.937869C138.993 0.88328 142.375 6.89901 142.702 10.1744Z" fill="#72A4FC"/>
<path d="M142.702 10.1744C143.117 14.2358 141.6 20.0114 137.804 20.3826C134.008 20.7538 133.277 9.9451 133.277 9.9451C133.277 9.9451 129.24 11.4408 119.542 12.7292C116.684 5.67622 125.51 2.17159 125.51 2.17159C126.12 1.94231 126.71 1.75671 127.288 1.59294C128.848 1.15623 130.277 0.948787 131.586 0.937869C138.993 0.88328 142.375 6.89901 142.702 10.1744Z" fill="url(#paint9_linear_877_12698)"/>
<path opacity="0.5" d="M131.588 0.9375C130.236 1.65808 127.072 3.93991 126.079 9.82463C124.41 10.7417 123.799 10.2395 123.799 10.2395C123.799 10.2395 122.698 5.14088 127.29 1.58166C128.85 1.14494 130.279 0.948418 131.588 0.9375Z" fill="url(#paint10_linear_877_12698)"/>
<path d="M133.115 5.03182C127.857 4.84622 121.214 7.79404 119.108 8.79848C118.552 9.06051 118.148 9.56273 117.996 10.1523C117.45 12.2922 119.381 13.7989 119.381 13.7989C125.348 11.5389 135.046 11.2659 137.512 10.4143C139.977 9.57365 139.061 7.51017 138.962 6.95336C138.875 6.40747 139.442 5.25018 133.115 5.03182Z" fill="url(#paint11_linear_877_12698)"/>
<path d="M133.115 5.03182C127.857 4.84622 121.214 7.79404 119.108 8.79848C118.552 9.06051 118.148 9.56273 117.996 10.1523C117.45 12.2922 119.381 13.7989 119.381 13.7989C125.348 11.5389 135.046 11.2659 137.512 10.4143C139.977 9.57365 139.061 7.51017 138.962 6.95336C138.875 6.40747 139.442 5.25018 133.115 5.03182Z" fill="url(#paint12_linear_877_12698)"/>
<path opacity="0.5" d="M138.658 6.13191C138.745 6.68872 139.672 8.7522 137.207 9.59287C134.741 10.4335 125.043 10.7174 119.076 12.9774C119.076 12.9774 118.432 12.4752 117.996 11.6454C118.312 12.9665 119.382 13.8072 119.382 13.8072C125.349 11.5472 135.047 11.2742 137.512 10.4226C139.978 9.58196 139.061 7.51848 138.963 6.96167C138.93 6.7324 138.996 6.39394 138.647 6.06641C138.658 6.08824 138.658 6.11007 138.658 6.13191Z" fill="url(#paint13_linear_877_12698)"/>
<path d="M131.281 21.9368C126.896 23.5745 123.7 23.8365 121.79 22.701C117.514 20.1463 119.041 12.9514 119.107 12.6457C119.14 12.5147 119.216 12.4055 119.336 12.3509C119.369 12.3291 120.165 11.936 121.474 11.4447C123.983 10.5058 128.892 9.05372 133.605 9.88348C133.801 9.91623 133.943 10.08 133.965 10.2765C134.445 14.7856 136.223 19.2073 136.245 19.251C136.332 19.4584 136.245 19.6986 136.048 19.8078C135.972 19.8296 133.921 20.9433 131.281 21.9368ZM119.936 13.0278C119.729 14.196 118.889 19.9279 122.249 21.9259C123.885 22.9085 126.907 22.6137 130.976 21.0961C132.939 20.3646 134.598 19.5349 135.296 19.1855C134.859 18.0391 133.594 14.4799 133.147 10.6805C128.739 10.0145 124.169 11.3683 121.801 12.2526C120.896 12.5911 120.241 12.8859 119.936 13.0278Z" fill="#D8DEE8"/>
<path d="M125.14 23.3541C125.009 23.3978 124.856 23.3868 124.736 23.3104C121.562 21.1705 121.496 12.1305 121.496 11.7484C121.496 11.5082 121.692 11.3008 121.932 11.3008C122.172 11.3008 122.369 11.4973 122.38 11.7375C122.391 14.2268 122.914 21.0177 125.227 22.5789C125.434 22.7099 125.478 22.9938 125.347 23.1903C125.292 23.2667 125.216 23.3213 125.14 23.3541Z" fill="#D8DEE8"/>
<path d="M131.644 21.8619C131.513 21.9056 131.36 21.8947 131.24 21.8182C128.065 19.6783 128 10.6383 128 10.2562C128 10.016 128.196 9.80859 128.436 9.80859C128.676 9.80859 128.873 10.0051 128.884 10.2453C128.895 12.7346 129.418 19.5255 131.731 21.0867C131.938 21.2178 131.982 21.5016 131.851 21.6981C131.807 21.7746 131.731 21.8291 131.644 21.8619Z" fill="#D8DEE8"/>
<path d="M133.99 13.0786C133.935 13.1005 133.892 13.1114 133.826 13.1114C128.656 13.0677 119.481 16.1356 119.383 16.1575C119.154 16.2339 118.903 16.1138 118.827 15.8845C118.75 15.6552 118.881 15.4041 119.099 15.3277C119.481 15.1967 128.514 12.1834 133.826 12.227C134.066 12.227 134.263 12.4236 134.263 12.6747C134.274 12.8603 134.154 13.0131 133.99 13.0786Z" fill="#D8DEE8"/>
<path d="M134.553 17.1124C134.542 17.1124 134.542 17.1234 134.531 17.1234C129.666 18.63 120.262 20.2022 120.164 20.2131C119.924 20.2568 119.695 20.093 119.652 19.8528C119.608 19.6126 119.772 19.3834 120.012 19.3397C120.11 19.3288 129.459 17.7566 134.259 16.2718C134.488 16.1954 134.739 16.3264 134.815 16.5666C134.891 16.7958 134.771 17.036 134.553 17.1124Z" fill="#D8DEE8"/>
<path opacity="0.5" d="M121.134 10.4584C121.211 10.775 121.014 11.1026 120.687 11.179L120.567 11.2118C120.251 11.2882 119.923 11.0917 119.847 10.7641L119.618 9.78151C119.542 9.4649 119.738 9.13736 120.065 9.06094L120.185 9.02818C120.502 8.95176 120.829 9.14828 120.905 9.47582L121.134 10.4584Z" fill="url(#paint14_linear_877_12698)"/>
<path opacity="0.5" d="M122.845 10.0522C122.922 10.3688 122.725 10.6963 122.398 10.7727L122.278 10.8055C121.962 10.8819 121.634 10.6854 121.558 10.3579L121.329 9.37526C121.253 9.05864 121.449 8.73111 121.776 8.65468L121.896 8.62193C122.213 8.54551 122.54 8.74202 122.616 9.06956L122.845 10.0522Z" fill="url(#paint15_linear_877_12698)"/>
<path opacity="0.5" d="M132.493 8.09373C132.569 8.42127 132.362 8.73789 132.035 8.80339L131.904 8.83615C131.577 8.91257 131.26 8.70513 131.195 8.37759L130.977 7.39499C130.9 7.06745 131.108 6.75083 131.435 6.68533L131.566 6.65258C131.893 6.57615 132.209 6.78359 132.275 7.11113L132.493 8.09373Z" fill="url(#paint16_linear_877_12698)"/>
<path opacity="0.5" d="M134.204 7.71092C134.28 8.03846 134.073 8.35507 133.746 8.42058L133.615 8.45333C133.288 8.52976 132.971 8.32232 132.906 7.99478L132.688 7.01218C132.611 6.68464 132.819 6.36802 133.146 6.30252L133.277 6.26976C133.604 6.19334 133.92 6.40078 133.986 6.72831L134.204 7.71092Z" fill="url(#paint17_linear_877_12698)"/>
<defs>
<linearGradient id="paint0_linear_877_12698" x1="133.848" y1="28.7623" x2="133.95" y2="28.4356" gradientUnits="userSpaceOnUse">
<stop stop-color="#FF9085"/>
<stop offset="1" stop-color="#FB6FBB"/>
</linearGradient>
<linearGradient id="paint1_linear_877_12698" x1="134.577" y1="18.4091" x2="119.075" y2="39.4423" gradientUnits="userSpaceOnUse">
<stop stop-color="#311944"/>
<stop offset="1" stop-color="#A03976"/>
</linearGradient>
<linearGradient id="paint2_linear_877_12698" x1="137.691" y1="14.1271" x2="118.041" y2="40.7877" gradientUnits="userSpaceOnUse">
<stop stop-color="#FFC444"/>
<stop offset="0.9964" stop-color="#F36F56"/>
</linearGradient>
<linearGradient id="paint3_linear_877_12698" x1="79.7955" y1="82.4546" x2="145.825" y2="98.5494" gradientUnits="userSpaceOnUse">
<stop stop-color="#FF9085"/>
<stop offset="1" stop-color="#FB6FBB"/>
</linearGradient>
<linearGradient id="paint4_linear_877_12698" x1="70.844" y1="129.483" x2="103.951" y2="129.483" gradientUnits="userSpaceOnUse">
<stop stop-color="#AA80F9"/>
<stop offset="0.9964" stop-color="#6165D7"/>
</linearGradient>
<linearGradient id="paint5_linear_877_12698" x1="132.905" y1="14.6413" x2="121.144" y2="17.8159" gradientUnits="userSpaceOnUse">
<stop stop-color="#AA80F9"/>
<stop offset="0.9964" stop-color="#6165D7"/>
</linearGradient>
<linearGradient id="paint6_linear_877_12698" x1="146.566" y1="27.8968" x2="124.906" y2="4.59434" gradientUnits="userSpaceOnUse">
<stop stop-color="#311944"/>
<stop offset="1" stop-color="#6B3976"/>
</linearGradient>
<linearGradient id="paint7_linear_877_12698" x1="129.13" y1="11.8101" x2="143.188" y2="53.5737" gradientUnits="userSpaceOnUse">
<stop stop-color="#FFC444"/>
<stop offset="0.9964" stop-color="#F36F56"/>
</linearGradient>
<linearGradient id="paint8_linear_877_12698" x1="143.868" y1="30.9249" x2="121.672" y2="7.04494" gradientUnits="userSpaceOnUse">
<stop stop-color="#311944"/>
<stop offset="1" stop-color="#6B3976"/>
</linearGradient>
<linearGradient id="paint9_linear_877_12698" x1="118.972" y1="10.6681" x2="142.77" y2="10.6681" gradientUnits="userSpaceOnUse">
<stop stop-color="white"/>
<stop offset="1" stop-color="#FF1700"/>
</linearGradient>
<linearGradient id="paint10_linear_877_12698" x1="122.68" y1="7.24369" x2="132.563" y2="3.55423" gradientUnits="userSpaceOnUse">
<stop stop-color="#AA80F9"/>
<stop offset="0.9964" stop-color="#6165D7"/>
</linearGradient>
<linearGradient id="paint11_linear_877_12698" x1="118.527" y1="13.1724" x2="138.614" y2="5.67374" gradientUnits="userSpaceOnUse">
<stop stop-color="#AA80F9"/>
<stop offset="0.9964" stop-color="#6165D7"/>
</linearGradient>
<linearGradient id="paint12_linear_877_12698" x1="117.898" y1="9.41267" x2="139.211" y2="9.41267" gradientUnits="userSpaceOnUse">
<stop stop-color="white"/>
<stop offset="1" stop-color="#FF1700"/>
</linearGradient>
<linearGradient id="paint13_linear_877_12698" x1="118.963" y1="14.3192" x2="139.044" y2="6.82295" gradientUnits="userSpaceOnUse">
<stop stop-color="#AA80F9"/>
<stop offset="0.9964" stop-color="#6165D7"/>
</linearGradient>
<linearGradient id="paint14_linear_877_12698" x1="119.729" y1="10.2668" x2="121.017" y2="9.96518" gradientUnits="userSpaceOnUse">
<stop stop-color="#AA80F9"/>
<stop offset="0.9964" stop-color="#6165D7"/>
</linearGradient>
<linearGradient id="paint15_linear_877_12698" x1="121.445" y1="9.86182" x2="122.733" y2="9.56019" gradientUnits="userSpaceOnUse">
<stop stop-color="#AA80F9"/>
<stop offset="0.9964" stop-color="#6165D7"/>
</linearGradient>
<linearGradient id="paint16_linear_877_12698" x1="131.087" y1="7.89121" x2="132.379" y2="7.60429" gradientUnits="userSpaceOnUse">
<stop stop-color="#AA80F9"/>
<stop offset="0.9964" stop-color="#6165D7"/>
</linearGradient>
<linearGradient id="paint17_linear_877_12698" x1="132.808" y1="7.50737" x2="134.1" y2="7.22044" gradientUnits="userSpaceOnUse">
<stop stop-color="#AA80F9"/>
<stop offset="0.9964" stop-color="#6165D7"/>
</linearGradient>
</defs>
</svg>
