<svg viewBox="0 0 190 140" fill="none" xmlns="http://www.w3.org/2000/svg">
<g clip-path="url(#clip0_877_12579)">
<path d="M68.6079 94.5577C61.8792 99.0711 57.11 97.833 46.4801 94.7457C40.2127 92.9268 27.946 88.0659 24.0692 85.9511C20.2111 83.8414 18.0013 85.3215 17.8489 89.3853C17.6965 93.4491 18.2187 97.3749 21.7635 99.2412C25.3083 101.108 45.5187 106.662 48.5158 107.226C51.4893 107.804 56.2674 109.901 71.8603 99.3744L173.967 30.3343L170.714 25.5176L68.6079 94.5577Z" fill="#FF1700"/>
<path d="M18.199 91.0532C18.3514 86.9894 20.5426 85.5043 24.4193 87.619C28.2775 89.7288 40.5678 94.5762 46.8116 96.4086C57.4365 99.5146 62.2293 100.739 68.958 96.2256L171.065 27.1855L173.433 30.6895L173.967 30.3343L170.714 25.5176L68.6079 94.5577C61.8792 99.0711 57.11 97.833 46.4801 94.7457C40.2127 92.9268 27.946 88.0659 24.0692 85.9511C20.2111 83.8414 18.0013 85.3215 17.8489 89.3853C17.7797 91.2796 17.8606 93.1344 18.3136 94.7901C18.1563 93.5922 18.1355 92.3313 18.1804 91.0482L18.199 91.0532Z" fill="#FF3333"/>
<path d="M170.232 24.8303L167.617 26.5977L171.863 32.8807L174.478 31.1133L170.232 24.8303Z" fill="#FF1700"/>
<path d="M169.097 28.7312L100.162 74.1411L168.537 27.9234L169.097 28.7312Z" fill="white"/>
<path d="M42.7777 106.563C36.1408 104.784 27.1741 102.182 23.1801 100.654C22.8369 100.522 22.6327 100.168 22.7138 99.7917L25.2908 86.7535C25.3506 86.5304 25.4847 86.3272 25.6919 86.2233C25.8519 86.1467 26.0577 86.1221 26.2251 86.1669C26.2622 86.1769 26.318 86.1918 26.3552 86.2018C31.1727 88.4491 41.1074 92.3465 46.7241 93.9909C48.2386 94.4366 49.851 94.8886 51.3196 95.2821C51.8402 95.4216 52.3421 95.5561 52.8441 95.6906C53.0486 95.7454 53.2146 95.8695 53.3048 96.0531C53.4137 96.2417 53.4333 96.4661 53.3649 96.6471L49.8061 107.549C49.6878 107.916 49.3107 108.134 48.9339 108.053C48.748 108.003 48.5807 107.958 48.4084 107.932C47.5755 107.768 45.5391 107.263 42.8063 106.53L42.7777 106.563Z" fill="#73A4FD"/>
<path d="M46.7148 95.2838C41.279 93.7077 31.2973 89.8376 26.2344 87.4648L23.6574 100.503C29.6415 102.784 46.0744 107.267 48.7455 107.783C48.9128 107.828 49.1037 107.859 49.2896 107.909L52.8484 97.007C51.0166 96.556 49.0001 95.9759 46.7098 95.3024L46.7148 95.2838Z" fill="#1D64E4"/>
<path d="M38.8981 95.0855C38.7251 95.6569 38.5843 96.2567 38.4163 96.8095C38.2296 97.3572 38.0666 97.8914 37.9085 98.4069C37.769 98.9275 37.5888 99.3773 37.4506 99.8185C37.2939 100.255 37.1843 100.664 37.0475 101.026C36.9107 101.387 36.7888 101.693 36.7005 101.949C36.5189 102.478 36.4205 102.77 36.4205 102.77C36.4205 102.77 36.6068 102.521 36.9272 102.069C37.0849 101.853 37.2811 101.566 37.4873 101.243C37.6935 100.92 37.896 100.536 38.1271 100.119C38.3582 99.7031 38.6229 99.236 38.8131 98.749C39.027 98.2484 39.2644 97.7341 39.4932 97.1777C39.7034 96.6164 39.9136 96.055 40.1152 95.4515C40.3118 94.8665 40.4761 94.2531 40.6591 93.6446C40.689 93.533 40.7189 93.4214 40.7488 93.3099C40.3312 93.1581 39.9135 93.0064 39.4959 92.8546C39.4561 93.0033 39.4212 93.1335 39.3813 93.2822C39.2219 93.8771 39.0811 94.477 38.9031 95.0669L38.8981 95.0855Z" fill="#73A4FD"/>
<path d="M29.2713 101.949C29.4775 101.625 29.6801 101.241 29.8976 100.801C30.1101 100.38 30.3747 99.9131 30.565 99.4261C30.7788 98.9255 31.0162 98.4113 31.2264 97.8499C31.418 97.2835 31.6282 96.7222 31.8112 96.1137C32.0078 95.5288 32.1722 94.9153 32.3366 94.3018C32.501 93.6883 32.6653 93.0748 32.769 92.4649C32.9098 91.865 32.9948 91.2502 33.1071 90.6826C33.127 90.6082 33.1333 90.5102 33.1346 90.4309C32.7728 90.2941 32.4159 90.1387 32.0541 90.0019C32.0142 90.1506 31.9744 90.2993 31.9345 90.448C31.7851 91.0058 31.6306 91.5821 31.4898 92.182C31.3676 92.7869 31.171 93.3718 31.0116 93.9667C30.8522 94.5616 30.73 95.1664 30.5334 95.7514C30.379 96.3277 30.2196 96.9226 30.0701 97.4803C29.9021 98.033 29.7391 98.5672 29.5996 99.0877C29.4601 99.6083 29.2934 100.082 29.1553 100.523C29.0171 100.964 28.884 101.387 28.7707 101.735C28.7073 101.897 28.6438 102.06 28.604 102.208C28.7341 102.243 28.8643 102.278 28.9944 102.313C29.0665 102.193 29.1572 102.078 29.2342 101.939L29.2713 101.949Z" fill="#73A4FD"/>
<path d="M25.0807 100.847C25.0807 100.847 25.0558 100.939 25.0409 100.995C25.2639 101.055 25.4957 101.157 25.7324 101.24C25.7423 101.203 25.7473 101.185 25.7758 101.152C25.9883 100.731 26.253 100.264 26.4483 99.7584C26.6621 99.2578 26.8859 98.7199 27.1097 98.1821C27.3013 97.6158 27.5115 97.0545 27.6945 96.446C27.8911 95.861 28.0369 95.2425 28.2013 94.629C28.3471 94.0106 28.53 93.402 28.6151 92.7872C28.7373 92.1823 28.8409 91.5725 28.9345 90.9999C29.0518 90.4136 29.0847 89.8446 29.1684 89.3091C29.1947 89.1368 29.2023 88.9595 29.2286 88.7872C28.9411 88.6703 28.64 88.5299 28.3711 88.418C28.3113 88.6411 28.2466 88.8827 28.1818 89.1244C28.0423 89.6449 27.9164 90.1891 27.7856 90.7518C27.6361 91.3095 27.4817 91.8858 27.3595 92.4906C27.2373 93.0955 27.0407 93.6804 26.8813 94.2753C26.7219 94.8702 26.5997 95.4751 26.4217 96.065C26.2673 96.6413 26.1128 97.2177 25.9584 97.794C25.7904 98.3467 25.6459 98.8859 25.4879 99.4014C25.3484 99.922 25.1817 100.395 25.0435 100.837L25.0807 100.847Z" fill="#73A4FD"/>
<path d="M35.2401 93.6437C35.0807 94.2386 34.9399 94.8384 34.7619 95.4284C34.5889 95.9997 34.4481 96.5996 34.2987 97.1573C34.112 97.7051 33.9676 98.2442 33.8095 98.7598C33.67 99.2803 33.5083 99.7351 33.3516 100.171C33.2134 100.613 33.0853 101.017 32.967 101.383C32.8302 101.745 32.727 102.056 32.6151 102.325C32.4384 102.836 32.3351 103.147 32.3351 103.147C32.3351 103.147 32.5214 102.898 32.8418 102.446C33.0045 102.21 33.1957 101.943 33.4019 101.619C33.6081 101.296 33.8107 100.912 34.0232 100.491C34.2543 100.074 34.5189 99.6074 34.7141 99.1018C34.928 98.6012 35.1654 98.0869 35.3942 97.5305C35.5858 96.9642 35.7959 96.4028 35.9975 95.7993C36.1941 95.2144 36.3585 94.6009 36.5415 93.9924C36.7058 93.3789 36.8702 92.7654 36.9925 92.1605C37.0124 92.0862 37.0323 92.0118 37.0523 91.9374C36.6532 91.7906 36.2592 91.6253 35.8601 91.4785C35.8252 91.6087 35.7904 91.7388 35.7605 91.8503C35.6197 92.4502 35.4417 93.0401 35.2823 93.635L35.2401 93.6437Z" fill="#73A4FD"/>
<path d="M50.6209 96.4116C50.5176 96.7227 50.4093 97.0523 50.311 97.3448C50.1716 97.8653 49.9727 98.3102 49.8159 98.7464C49.6592 99.1826 49.531 99.5866 49.3942 99.9485C49.2388 100.305 49.1355 100.616 49.0286 100.867C48.8284 101.391 48.7301 101.683 48.7301 101.683C48.7301 101.683 48.9349 101.439 49.2553 100.987C49.413 100.77 49.6278 100.489 49.8291 100.185C50.0538 99.8662 50.2564 99.4821 50.4875 99.0658C50.7186 98.6495 50.9968 98.206 51.2107 97.7054C51.3611 97.3671 51.5301 97.0338 51.6855 96.6769C51.3323 96.5823 50.9791 96.4876 50.6072 96.388L50.6209 96.4116Z" fill="#73A4FD"/>
<path d="M45.726 100.541C45.9322 100.218 46.1533 99.8385 46.3844 99.4222C46.6155 99.0059 46.8938 98.5624 47.089 98.0568C47.3214 97.5612 47.5589 97.047 47.7877 96.4906C47.876 96.2353 47.9929 95.9479 48.0862 95.674C47.6958 95.5694 47.3054 95.4647 46.9013 95.3366C46.8316 95.5968 46.7668 95.8385 46.6785 96.0938C46.4919 96.6416 46.3289 97.1757 46.1522 97.6863C46.0127 98.2068 45.8138 98.6517 45.6757 99.0929C45.519 99.5291 45.3907 99.9331 45.2539 100.295C45.0985 100.652 44.9953 100.963 44.8883 101.213C44.6881 101.737 44.5898 102.03 44.5898 102.03C44.5898 102.03 44.7947 101.786 45.1151 101.334C45.2728 101.117 45.4826 100.854 45.6888 100.531L45.726 100.541Z" fill="#73A4FD"/>
<path d="M43.2233 94.1918C43.1735 94.3777 43.1237 94.5636 43.0739 94.7495C42.8823 95.3158 42.7415 95.9157 42.5735 96.4684C42.3869 97.0162 42.2238 97.5504 42.0657 98.0659C41.9262 98.5865 41.746 99.0363 41.5892 99.4725C41.4325 99.9087 41.3043 100.313 41.1861 100.68C41.0493 101.041 40.9274 101.347 40.8391 101.603C40.6439 102.108 40.5592 102.424 40.5592 102.424C40.5592 102.424 40.764 102.18 41.0844 101.728C41.2421 101.512 41.4384 101.225 41.6445 100.902C41.8507 100.579 42.0719 100.2 42.303 99.7833C42.5341 99.367 42.7987 98.8999 43.0075 98.4179C43.2214 97.9173 43.4774 97.408 43.7062 96.8517C43.9164 96.2903 44.1265 95.7289 44.3281 95.1254C44.3779 94.9395 44.4228 94.7722 44.4912 94.5912C44.0872 94.4631 43.6882 94.3163 43.2655 94.1831L43.2233 94.1918Z" fill="#73A4FD"/>
</g>
<defs>
<clipPath id="clip0_877_12579">
<rect width="190" height="140" fill="white"/>
</clipPath>
</defs>
</svg>
