<svg viewBox="0 0 188 187" fill="none" xmlns="http://www.w3.org/2000/svg">
<g clip-path="url(#clip0_877_12469)">
<path d="M163.344 113.982C161.027 112.902 141.944 101.409 141.944 101.409L105.849 123.478C112.86 123.734 119.718 125.947 120.899 128.531C122.754 132.59 111.174 142.095 102.629 146C94.083 149.904 82.7861 156.408 80.9388 152.366C79.8686 150.025 81.7869 142.67 85.2309 136.085L41.964 162.542L41.8075 173.202C41.8075 173.202 47.7898 181.476 61.0659 177.423C74.342 173.37 98.6961 162.242 105.439 159.162C112.182 156.081 138.727 142.778 142.653 140.733C146.57 138.712 170.806 127.052 164.687 117.058C165.167 115.77 165.668 115.079 163.352 113.999L163.344 113.982Z" fill="#CCDCFF"/>
<path d="M61.0424 177.386C74.3192 173.332 98.6746 162.203 105.418 159.122C112.161 156.04 138.707 142.736 142.634 140.69C146.551 138.669 170.788 127.007 164.669 117.011C163.184 118.529 166.927 117.825 147.985 130.024C129.899 141.665 118.874 145.465 90.3561 159.545C62.9743 173.085 47.6593 175.155 41.7656 173.172C41.7656 173.172 47.7482 181.447 61.0251 177.394L61.0424 177.386Z" fill="#1E65E4"/>
<path d="M52.2334 157.063C47.8483 158.836 40.144 161.643 38.2584 161.917C33.594 158.955 26.6675 147.698 32.0393 141.576C37.3937 135.462 40.1179 133.63 44.5444 130.665C48.9709 127.699 52.2334 157.063 52.2334 157.063Z" fill="#73A4FD"/>
<path d="M52.2609 157.062C52.2609 157.062 42.7082 146.523 41.0128 137.131C39.3174 127.739 43.6698 127.407 53.263 116.861C62.8641 106.333 76.4036 90.4428 67.9472 76.573C59.4735 62.7112 53.2114 49.0128 47.0111 42.1404C47.436 29.6421 51.7375 11.5997 79.7963 48.6893C107.855 85.7789 96.3871 44.6521 92.6708 41.1515C88.9373 37.6588 87.5704 37.2353 83.7 25.1482C79.8217 13.0437 81.2339 9.94605 89.3188 12.6456C97.4036 15.3451 101.799 27.5275 106.847 34.4444C111.894 41.3613 126.198 60.2314 133.265 67.9447C140.34 75.6753 147.83 87.387 144.92 96.053C139.43 101.642 128.801 108.867 117.98 115.215C107.185 121.572 65.5342 152.779 52.2435 157.07L52.2609 157.062Z" fill="#1D64E5"/>
<path d="M95.9137 68.1867C95.5597 73.9664 94.9853 84.6263 94.8689 92.1631C94.8268 95.0961 92.6209 102.141 90.5072 104.805C82.765 114.589 67.1975 126.963 61.4946 131.308C53.7937 137.195 56.1788 137.279 55.668 144.137C55.1573 150.994 55.841 149.969 63.5953 151.395C74.5567 144.94 89.361 134.655 101.132 126.489C116.71 100.066 114.543 99.8189 114.355 90.241C114.175 81.1838 112.812 67.8452 112.142 61.6113C108.551 62.8323 103.381 64.8591 95.9137 68.1867Z" fill="#1D64E5"/>
<path d="M145.095 99.4915C139.604 105.083 129.864 111.19 119.058 117.532C108.261 123.892 68.2131 156.847 53.3082 159.401C48.922 161.175 42.0749 164.303 40.1809 164.561C39.3293 164.027 39.821 165.836 41.3899 166.839C43.2586 166.572 49.0767 164.585 53.4267 162.87C60.2922 160.194 71.4348 154.956 82.0851 147.678C87.615 143.914 81.1232 142.456 96.3786 131.271C108.684 122.251 108.77 128.398 112.759 125.527C115.769 123.355 118.241 121.659 119.974 120.636C130.633 114.34 141.109 107.184 146.521 101.65C147.342 99.1358 145.618 97.9315 145.104 99.4663L145.095 99.4915Z" fill="#7399E6"/>
<path d="M144.909 96.013C139.418 101.604 128.787 108.832 117.964 115.182C107.166 121.541 67.9053 151.496 52.2139 157.051C47.8277 158.824 40.1217 161.633 38.2356 161.907C37.3841 161.374 38.7347 163.503 40.3036 164.506C42.1723 164.239 47.9983 162.269 52.3404 160.537C74.0493 151.917 108.246 124.592 118.888 118.303C129.547 112.007 140.022 104.851 145.435 99.3167C146.255 96.8029 145.441 94.4702 144.927 96.0051L144.909 96.013Z" fill="#CCDCFF"/>
<path d="M73.5142 147.544C74.7726 146.675 75.9568 145.736 77.1251 144.761C67.9795 150.702 59.4881 155.736 53.9443 157.682C49.558 159.455 41.8518 162.264 39.9656 162.538C39.4316 162.195 39.7646 162.924 40.4859 163.769C40.9748 163.692 41.4622 163.658 41.9496 163.624C42.0868 163.603 42.2146 163.608 42.3518 163.587C41.945 163.018 41.8385 162.647 42.2476 162.901C43.9367 162.653 50.3804 160.338 54.8425 158.592C61.0765 154.947 67.5369 151.659 73.5062 147.526L73.5142 147.544Z" fill="white"/>
<path d="M118.212 57.9966C110.403 49.5309 103.683 46.5635 98.5114 44.922C97.6663 46.4193 96.1347 47.7899 93.3198 48.7824C87.0075 51.0165 71.7414 53.6935 68.292 54.5357C67.1822 54.8122 66.714 64.3761 67.2309 66.1945C67.5203 67.1943 72.0193 77.4029 72.0193 77.4029C72.0193 77.4029 107.292 59.5475 118.212 57.9966Z" fill="#73A5FD"/>
<path d="M77.5286 58.1133C76.8232 56.57 75.0046 55.8916 73.4622 56.5963C71.9197 57.301 71.2426 59.1196 71.9481 60.6628C72.6536 62.2061 74.4721 62.8844 76.0146 62.1798C77.557 61.4751 78.2341 59.6565 77.5286 58.1133Z" fill="#CCDCFF"/>
<path d="M76.5081 58.5792C76.0642 57.6082 74.9023 57.1748 73.9318 57.6182C72.9613 58.0616 72.5287 59.2234 72.9726 60.1944C73.4165 61.1655 74.5783 61.5989 75.5489 61.1555C76.5194 60.7121 76.9599 59.5676 76.5081 58.5792Z" fill="black"/>
<path d="M78.456 72.1524C79.997 71.4484 80.6749 69.6277 79.97 68.0859C79.2652 66.5441 77.4446 65.8649 75.9036 66.569C74.3625 67.273 73.6847 69.0936 74.3895 70.6355C75.0943 72.1773 76.9149 72.8564 78.456 72.1524Z" fill="#CCDCFF"/>
<path d="M78.93 68.5597C78.4861 67.5886 77.3416 67.1473 76.3537 67.5986C75.3658 68.0499 74.9426 69.1865 75.3945 70.1749C75.8463 71.1633 77.0002 71.5794 77.9707 71.136C78.9413 70.6926 79.3818 69.548 78.93 68.5597Z" fill="black"/>
<path d="M83.556 78.6836C82.8505 77.1403 81.032 76.462 79.4895 77.1666C77.947 77.8713 77.2699 79.6899 77.9754 81.2331C78.6809 82.7764 80.4994 83.4548 82.0419 82.7501C83.5844 82.0454 84.2615 80.2268 83.556 78.6836Z" fill="#CCDCFF"/>
<path d="M82.5354 79.1495C82.0915 78.1785 80.947 77.7372 79.9592 78.1885C78.9713 78.6398 78.556 79.7937 78.9999 80.7648C79.4438 81.7358 80.6057 82.1692 81.5762 81.7258C82.5467 81.2824 82.9793 80.1206 82.5354 79.1495Z" fill="black"/>
<path d="M84.2513 87.5859C83.5458 86.0427 81.7273 85.3643 80.1848 86.069C78.6424 86.7737 77.9653 88.5922 78.6707 90.1355C79.3762 91.6787 81.1948 92.3571 82.7372 91.6524C84.2797 90.9477 84.9568 89.1292 84.2513 87.5859Z" fill="#CCDCFF"/>
<path d="M83.2291 88.0559C82.7852 87.0848 81.6406 86.6435 80.6701 87.0869C79.6996 87.5303 79.259 88.6748 79.7109 89.6632C80.1627 90.6516 81.3166 91.0676 82.2872 90.6242C83.2577 90.1808 83.6809 89.0442 83.2291 88.0559Z" fill="black"/>
<path d="M80.763 96.5547C80.0575 95.0114 78.239 94.333 76.6965 95.0377C75.1541 95.7424 74.477 97.561 75.1825 99.1042C75.8879 100.647 77.7065 101.326 79.2489 100.621C80.7914 99.9165 81.4685 98.0979 80.763 96.5547Z" fill="#CCDCFF"/>
<path d="M79.7269 97.0323C79.283 96.0613 78.1211 95.6279 77.1506 96.0713C76.18 96.5147 75.7474 97.6765 76.1913 98.6476C76.6352 99.6186 77.7971 100.052 78.7676 99.6086C79.7382 99.1652 80.1708 98.0034 79.7269 97.0323Z" fill="black"/>
<path d="M75.9974 103.598C75.2919 102.054 73.4734 101.376 71.9309 102.081C70.3885 102.785 69.7113 104.604 70.4168 106.147C71.1223 107.69 72.9409 108.369 74.4833 107.664C76.0258 106.959 76.7029 105.141 75.9974 103.598Z" fill="#CCDCFF"/>
<path d="M74.9573 104.071C74.5134 103.1 73.3689 102.659 72.381 103.11C71.3932 103.562 70.97 104.698 71.4218 105.687C71.8736 106.675 73.0276 107.091 73.9981 106.648C74.9686 106.204 75.4091 105.06 74.9573 104.071Z" fill="black"/>
<path d="M69.8607 110.574C69.1552 109.031 67.3366 108.353 65.7942 109.057C64.2517 109.762 63.5746 111.581 64.2801 113.124C64.9856 114.667 66.8041 115.345 68.3466 114.641C69.8891 113.936 70.5662 112.117 69.8607 110.574Z" fill="#CCDCFF"/>
<path d="M68.8384 111.04C68.3945 110.069 67.25 109.628 66.2621 110.079C65.2743 110.531 64.8764 111.677 65.3202 112.648C65.7641 113.619 66.9087 114.06 67.8792 113.617C68.8497 113.173 69.2902 112.029 68.8384 111.04Z" fill="black"/>
<path d="M63.8099 117.512C63.1044 115.968 61.2859 115.29 59.7434 115.995C58.2009 116.699 57.5238 118.518 58.2293 120.061C58.9348 121.604 60.7534 122.283 62.2958 121.578C63.8383 120.874 64.5154 119.055 63.8099 117.512Z" fill="#CCDCFF"/>
<path d="M62.7876 117.974C62.3437 117.003 61.1992 116.561 60.2287 117.005C59.2582 117.448 58.8256 118.61 59.2695 119.581C59.7134 120.552 60.8579 120.994 61.8457 120.542C62.8336 120.091 63.2395 118.962 62.7876 117.974Z" fill="black"/>
<path d="M56.6615 124.148C55.956 122.605 54.1374 121.927 52.595 122.631C51.0525 123.336 50.3754 125.155 51.0809 126.698C51.7864 128.241 53.6049 128.92 55.1474 128.215C56.6898 127.51 57.3669 125.692 56.6615 124.148Z" fill="#CCDCFF"/>
<path d="M55.6214 124.626C55.1775 123.655 54.033 123.214 53.0451 123.665C52.0572 124.116 51.642 125.27 52.0859 126.241C52.5298 127.212 53.6743 127.654 54.6621 127.202C55.65 126.751 56.0732 125.614 55.6214 124.626Z" fill="black"/>
<path d="M49.0872 129.727C48.3818 128.183 46.5632 127.505 45.0208 128.21C43.4783 128.914 42.8012 130.733 43.5067 132.276C44.2121 133.819 46.0307 134.498 47.5732 133.793C49.1156 133.088 49.7927 131.27 49.0872 129.727Z" fill="#CCDCFF"/>
<path d="M115.657 55.3827C112.1 51.9553 108.795 49.6289 105.781 47.9868C100.062 50.3272 91.9233 53.3329 82.8398 55.7848C82.2029 55.95 81.8088 56.738 81.9303 57.4163L83.5238 66.3112C83.6374 66.9722 84.2868 67.4302 84.8697 67.101C93.0473 62.4842 107.565 57.8013 115.657 55.3827Z" fill="#1D64E5"/>
<path d="M48.065 130.193C47.6211 129.222 46.4766 128.78 45.506 129.224C44.5355 129.667 44.1029 130.829 44.5468 131.8C44.9907 132.771 46.1352 133.212 47.1231 132.761C48.1109 132.31 48.5168 131.181 48.065 130.193Z" fill="black"/>
<path d="M144.913 96.0213C147.806 87.3644 140.333 75.6462 133.26 67.9166C126.187 60.1869 111.893 41.3365 106.847 34.4205C101.8 27.5044 97.405 15.3235 89.3216 12.6244C81.2381 9.92518 79.8261 13.0225 83.7038 25.1254C87.5814 37.2283 88.9401 37.6345 92.673 41.1267C99.0398 43.4156 110.237 43.8537 124.275 62.1919C138.331 80.5222 123.17 107.842 111.483 119.532C114.168 117.614 116.411 116.106 117.995 115.173C128.806 108.809 139.434 101.585 144.931 96.0134L144.913 96.0213Z" fill="#73A5FD"/>
<path d="M144.918 96.0171C147.506 88.2528 141.763 78.0273 135.443 70.4341C135.278 70.2577 135.139 70.0907 134.975 69.9143C134.062 68.9267 133.037 67.7389 131.93 66.4629C131.915 66.4283 131.889 66.4188 131.856 66.3921C139.242 81.1282 132.266 99.1349 124.086 111.487C132.645 106.151 140.454 100.551 144.883 96.0329L144.918 96.0171Z" fill="#1D64E5"/>
<path d="M96.8468 40.1523C97.6895 40.438 98.6521 40.7108 99.725 40.9961C104.817 42.4215 111.892 44.4287 120.255 52.0934C114.817 45.1462 109.545 38.1026 106.859 34.4255C103.611 29.978 100.651 23.3659 96.7871 18.4872C95.2885 16.9502 93.6757 15.7588 91.8719 15.1577C88.711 14.1077 87.5857 14.3493 87.2565 14.4997C86.8407 14.6897 85.7464 16.0071 88.692 25.2455C92.0537 35.761 93.3512 36.9498 96.1862 39.5319C96.4011 39.7272 96.624 39.9397 96.8468 40.1523Z" fill="#1D64E5"/>
<path d="M84.0157 114.683C83.5484 115.127 83.0891 115.589 82.6219 116.033C83.3673 121.099 84.3515 126.413 85.5866 131.864C85.6456 132.131 85.6967 132.38 85.773 132.638C85.7234 132.347 85.6991 132.064 85.6495 131.773C84.8404 125.834 84.3141 120.101 84.0409 114.693L84.0157 114.683Z" fill="white"/>
<path d="M104.757 66.9112C103.047 67.0639 100.756 68.6971 98.9675 70.3737C97.6307 77.7126 97.5003 97.4954 102.575 119.868C102.634 120.134 102.685 120.383 102.762 120.642C102.712 120.35 102.688 120.068 102.638 119.776C99.4497 96.3532 100.525 75.8874 104.757 66.9112Z" fill="white"/>
<path d="M67.1884 129.309C66.7761 129.644 66.3559 129.962 65.9703 130.264C66.6715 134.639 67.5292 139.172 68.5874 143.823C68.6464 144.09 68.6974 144.339 68.7737 144.598C68.7241 144.306 68.6998 144.024 68.6502 143.732C67.9697 138.761 67.4976 133.926 67.1884 129.309Z" fill="white"/>
<path d="M75.6097 122.343C75.1706 122.711 74.7569 123.089 74.3352 123.449C75.0528 128.088 75.96 132.914 77.0931 137.866C77.152 138.133 77.2031 138.382 77.2794 138.64C77.2471 138.341 77.2055 138.066 77.1559 137.775C76.4366 132.444 75.9338 127.267 75.6349 122.352L75.6097 122.343Z" fill="white"/>
<path d="M92.0452 105.986C91.6349 106.509 91.1993 107.022 90.7638 107.536C91.5347 113.346 92.6344 119.508 94.0688 125.853C94.1278 126.119 94.1962 126.361 94.2552 126.627C94.2056 126.335 94.1813 126.053 94.1317 125.761C93.1669 118.657 92.6017 111.831 92.3767 105.52C92.2604 105.678 92.1521 105.854 92.0452 105.986Z" fill="white"/>
<path d="M59.2523 61.4423C59.5914 56.0896 61.1845 49.4933 61.1755 43.6079C60.9513 41.4678 60.4295 39.5474 59.385 37.9497C57.546 35.164 56.5323 34.642 56.16 34.5607C55.7292 34.4431 54.0285 34.8009 50.6355 43.8753C50.3643 44.5651 50.1372 45.2138 49.9021 45.8452C52.845 49.9919 55.8887 55.413 59.227 61.4329L59.2523 61.4423Z" fill="#73A5FD"/>
<path d="M131.533 129.556C123.236 127.036 128.218 136.606 100.95 149.569C74.975 161.92 77.0039 154.577 75.1471 160.646C73.5111 166.007 76.189 164.301 102.518 151.579C133.455 136.604 140.784 132.374 131.516 129.564L131.533 129.556Z" fill="#7399E6"/>
<path d="M133.781 130.436C134.588 133.485 125.482 139.743 102.336 150.949C83.4308 160.112 76.4551 162.272 74.962 161.297C73.7895 165.838 77.3247 163.762 102.518 151.578C130.402 138.082 139.098 133.312 133.763 130.444L133.781 130.436Z" fill="white"/>
<path d="M151.125 118.635C150.677 118.986 150.222 119.319 149.766 119.696C149.309 120.072 148.819 120.422 148.355 120.781C147.898 121.157 147.424 121.541 146.944 121.865C146.892 121.889 146.848 121.93 146.804 121.971C146.804 121.971 146.804 121.971 146.847 121.973C147.363 122.094 147.887 122.232 148.42 122.344C148.674 122.166 148.902 121.977 149.156 121.799C149.629 121.414 150.111 121.048 150.56 120.654C151.016 120.278 151.449 119.849 151.871 119.489C152.31 119.12 152.666 118.706 153.045 118.344C153.417 117.965 153.761 117.619 154.063 117.271C154.977 116.245 155.559 115.455 155.737 115.248C155.897 115.049 155.489 115.257 154.795 115.846C154.611 115.993 153.904 116.463 153 117.191C152.422 117.622 151.808 118.113 151.142 118.627L151.125 118.635Z" fill="#1E65E4"/>
<path d="M147.697 116.451C147.25 116.802 146.795 117.135 146.346 117.529C145.889 117.905 145.4 118.255 144.943 118.631C144.487 119.008 144.013 119.392 143.54 119.734C143.068 120.075 142.611 120.451 142.173 120.777C142.087 120.817 142.033 120.883 141.955 120.94C142.463 121.044 142.979 121.164 143.504 121.26C143.766 121.098 144.02 120.919 144.29 120.733C144.788 120.401 145.262 120.016 145.744 119.649C146.218 119.265 146.7 118.898 147.148 118.505C147.597 118.111 148.02 117.708 148.451 117.322C148.891 116.954 149.246 116.539 149.618 116.16C149.989 115.781 150.326 115.417 150.636 115.087C151.639 113.936 152.275 113.08 152.381 112.947C152.488 112.815 151.879 113.177 150.956 113.955C150.711 114.151 150.125 114.565 149.371 115.162C148.862 115.562 148.309 116.003 147.722 116.46L147.697 116.451Z" fill="#1E65E4"/>
<path d="M132.623 119.234C132.831 119.139 133.056 119.036 133.282 118.933C133.698 118.743 134.166 118.529 134.602 118.246C135.046 117.98 135.533 117.716 136.021 117.409C136.484 117.092 136.982 116.76 137.472 116.41C137.961 116.061 138.435 115.677 138.917 115.31C139.391 114.925 139.865 114.541 140.314 114.147C140.762 113.754 141.186 113.351 141.609 112.947C142.04 112.562 142.396 112.148 142.767 111.768C143.121 111.397 143.458 111.033 143.76 110.686C144.951 109.303 145.65 108.312 145.65 108.312C145.65 108.312 144.646 109.002 143.249 110.164C142.89 110.433 142.504 110.735 142.109 111.062C141.714 111.39 141.284 111.733 140.845 112.101C140.415 112.444 139.951 112.803 139.502 113.197C139.053 113.591 138.581 113.932 138.107 114.317C137.651 114.693 137.185 115.095 136.712 115.436C136.24 115.778 135.8 116.146 135.353 116.498C134.89 116.814 134.478 117.149 134.057 117.467C133.654 117.777 133.261 118.062 132.894 118.313C132.535 118.582 132.202 118.818 131.905 119.038C131.853 119.061 131.801 119.085 131.739 119.134C132.011 119.178 132.299 119.214 132.596 119.267L132.623 119.234Z" fill="#1E65E4"/>
<path d="M145.747 113.108C145.282 113.467 144.791 113.859 144.29 114.276C143.843 114.627 143.396 114.978 142.939 115.355C142.491 115.748 142.018 116.09 141.536 116.457C141.08 116.833 140.606 117.218 140.134 117.559C139.661 117.901 139.222 118.269 138.775 118.62C138.312 118.937 137.882 119.28 137.471 119.573C137.287 119.72 137.112 119.841 136.937 119.963C137.395 120.048 137.827 120.123 138.285 120.207C138.65 119.998 139.016 119.789 139.408 119.547C139.888 119.223 140.377 118.916 140.866 118.566C141.364 118.234 141.838 117.85 142.32 117.483C142.794 117.099 143.276 116.732 143.716 116.321C144.165 115.927 144.588 115.524 145.02 115.138C145.451 114.752 145.814 114.356 146.186 113.976C146.54 113.605 146.876 113.241 147.186 112.911C148.288 111.653 148.951 110.721 149.005 110.654C149.058 110.588 148.255 111.123 147.079 112.08C146.781 112.299 146.282 112.674 145.72 113.141L145.747 113.108Z" fill="#1E65E4"/>
<path d="M68.2297 161.612C67.9524 161.739 67.5804 161.888 67.1991 162.062C66.8004 162.244 66.3338 162.415 65.8405 162.62C65.3472 162.824 64.8192 163.044 64.2486 163.263C63.678 163.482 63.0728 163.717 62.4582 163.977C61.8356 164.219 61.1704 164.46 60.5131 164.719C59.8559 164.977 59.1734 165.226 58.5161 165.484C57.8416 165.751 57.1843 166.009 56.5191 166.25C55.8366 166.499 55.1967 166.749 54.5741 166.992C54.2715 167.109 53.9862 167.219 53.6836 167.336C53.9962 167.424 54.3088 167.512 54.6293 167.617C54.7506 167.561 54.8705 167.549 54.9918 167.493C55.6476 167.277 56.338 167.046 57.0205 166.797C57.711 166.565 58.4029 166.291 59.0854 166.042C59.76 165.776 60.4598 165.519 61.1092 165.243C61.7838 164.977 62.4078 164.692 63.0477 164.441C63.6544 164.164 64.2438 163.895 64.7812 163.649C65.3359 163.396 65.8307 163.149 66.2829 162.9C66.743 162.669 67.1684 162.453 67.5166 162.252C67.8648 162.051 68.1609 161.874 68.3957 161.746C68.8746 161.464 69.1535 161.295 69.1535 161.295C69.1535 161.295 68.8241 161.445 68.2362 161.672L68.2297 161.612Z" fill="#1E65E4"/>
<path d="M64.9417 165.691C65.4964 165.437 65.9912 165.19 66.4434 164.942C66.9036 164.711 67.3291 164.495 67.6773 164.294C68.0255 164.093 68.3217 163.916 68.5485 163.77C69.0275 163.489 69.2984 163.302 69.2984 163.302C69.2984 163.302 68.969 163.452 68.3811 163.679C68.1037 163.806 67.7491 163.947 67.3504 164.129C66.9517 164.311 66.4851 164.483 65.9918 164.687C65.4984 164.892 64.9878 165.104 64.3999 165.331C63.8293 165.55 63.2319 165.802 62.6093 166.044C61.9868 166.287 61.3216 166.528 60.6896 166.796C60.0323 167.054 59.375 167.313 58.6925 167.562C58.0872 167.796 57.4646 168.039 56.8594 168.273C57.1798 168.378 57.5082 168.501 57.8539 168.615C58.3205 168.444 58.8044 168.265 59.2709 168.094C59.9455 167.827 60.6454 167.57 61.2947 167.294C61.9693 167.028 62.5934 166.743 63.2081 166.483C63.8149 166.206 64.3869 165.944 64.9417 165.691Z" fill="#1E65E4"/>
<path d="M50.8022 166.578C50.9062 166.53 51.026 166.517 51.138 166.487C51.6724 166.327 52.2588 166.143 52.8626 165.951C53.4837 165.751 54.1301 165.56 54.7779 165.327C55.451 165.104 56.1241 164.88 56.8067 164.631C57.4971 164.399 58.189 164.125 58.8715 163.876C59.5461 163.61 60.246 163.353 60.9032 163.095C61.5778 162.828 62.2098 162.561 62.8418 162.293C63.4485 162.015 64.0379 161.746 64.5926 161.493C65.1473 161.239 65.6594 160.984 66.1195 160.753C66.5796 160.522 67.0051 160.306 67.3533 160.105C67.7014 159.904 67.9976 159.727 68.2324 159.599C68.7113 159.317 68.9901 159.148 68.9901 159.148C68.9901 159.148 68.6528 159.281 68.0728 159.525C67.7781 159.659 67.4235 159.801 67.0342 159.957C66.6355 160.14 66.169 160.311 65.6677 160.498C65.1744 160.702 64.6464 160.923 64.0759 161.142C63.5053 161.36 62.9 161.595 62.2854 161.855C61.6628 162.097 60.9976 162.338 60.3404 162.597C59.6831 162.855 59.0006 163.104 58.3354 163.345C57.6529 163.594 57.0036 163.87 56.3132 164.101C55.648 164.342 54.9907 164.601 54.3602 164.826C53.7124 165.059 53.1071 165.294 52.5192 165.52C51.9313 165.747 51.3954 165.95 50.8769 166.145C50.6089 166.247 50.3583 166.34 50.125 166.426C50.3365 166.476 50.5654 166.518 50.7769 166.568L50.8022 166.578Z" fill="#1E65E4"/>
<path d="M79.4546 168.881C79.4546 168.881 79.992 168.635 80.9266 168.25C81.4026 168.053 81.9652 167.817 82.6225 167.559C83.2798 167.301 83.9905 166.976 84.7785 166.637C85.5665 166.297 86.3971 165.96 87.3065 165.565C88.1906 165.161 89.1425 164.768 90.1292 164.359C91.0999 163.916 92.0881 163.464 93.1267 163.031C94.1653 162.599 95.1881 162.131 96.2109 161.664C97.2336 161.197 98.2896 160.756 99.3124 160.289C100.318 159.829 101.323 159.37 102.294 158.926C104.236 158.039 106.038 157.215 107.614 156.537C110.735 155.111 112.881 154.214 112.881 154.214C112.881 154.214 112.42 154.488 111.567 154.961C110.732 155.426 109.532 156.101 108.038 156.867C107.291 157.251 106.483 157.683 105.607 158.104C104.738 158.543 103.843 159.015 102.855 159.466C101.885 159.91 100.895 160.404 99.8628 160.897C98.8401 161.364 97.7826 161.848 96.7252 162.331C95.6677 162.814 94.6197 163.272 93.5464 163.72C92.4983 164.178 91.4518 164.594 90.4478 165.011C89.4359 165.41 88.4414 165.802 87.5162 166.162C86.5989 166.539 85.6845 166.831 84.8633 167.143C84.0515 167.43 83.2997 167.711 82.636 167.909C81.9802 168.125 81.4111 168.301 80.9366 168.455C79.997 168.738 79.4452 168.906 79.4452 168.906L79.4546 168.881Z" fill="#7399E6"/>
<path d="M78.3983 168.734C78.3983 168.734 78.9357 168.489 79.8703 168.103C80.3384 167.89 80.909 167.671 81.5583 167.395C82.2076 167.119 82.9263 166.812 83.7143 166.473C84.5023 166.134 85.3329 165.796 86.2344 165.384C87.1185 164.98 88.0625 164.57 89.0491 164.161C90.0199 163.717 91.008 163.265 92.0466 162.833C93.06 162.391 94.1001 161.915 95.1229 161.448C96.1457 160.981 97.2016 160.54 98.1991 160.063C99.2046 159.604 100.21 159.144 101.181 158.701C102.949 157.893 104.613 157.132 106.077 156.484C108.816 155.232 110.747 154.413 110.886 154.35C111.406 154.112 111.369 154.17 110.673 154.573C109.969 154.957 108.655 155.705 106.934 156.617C106.187 157 105.379 157.432 104.511 157.871C103.643 158.31 102.748 158.782 101.767 159.25C100.805 159.711 99.815 160.206 98.7922 160.673C97.7773 161.158 96.712 161.624 95.6719 162.099C94.6144 162.582 93.5743 163.057 92.5104 163.481C91.4624 163.939 90.4158 164.354 89.4198 164.788C88.4079 165.188 87.4133 165.579 86.4881 165.939C85.5708 166.316 84.6644 166.626 83.8353 166.921C83.0061 167.216 82.2543 167.496 81.5985 167.712C80.9427 167.928 80.3736 168.104 79.8991 168.258C78.9422 168.549 78.4077 168.709 78.4077 168.709L78.3983 168.734Z" fill="#7399E6"/>
<path d="M77.34 168.613C77.34 168.613 77.8773 168.367 78.812 167.982C79.28 167.768 79.8506 167.549 80.4999 167.273C81.1493 166.998 81.8679 166.69 82.6559 166.351C83.436 165.995 84.2746 165.674 85.176 165.262C86.0601 164.858 87.0041 164.448 87.9908 164.039C88.9615 163.595 89.9496 163.144 90.9803 162.694C92.011 162.244 93.0259 161.759 94.0487 161.292C95.0714 160.824 96.1195 160.366 97.117 159.89C98.1224 159.43 99.1279 158.971 100.099 158.527C101.711 157.79 103.219 157.101 104.571 156.483C106.946 155.398 108.661 154.656 108.929 154.555C109.969 154.079 110.366 153.94 109.8 154.261C109.235 154.583 107.817 155.377 105.844 156.426C105.097 156.809 104.289 157.241 103.421 157.68C102.552 158.119 101.657 158.591 100.695 159.052C99.7318 159.513 98.7422 160.007 97.7274 160.491C96.7125 160.976 95.6472 161.442 94.5897 161.925C93.5496 162.401 92.4922 162.884 91.4362 163.324C90.3881 163.782 89.3495 164.215 88.3455 164.632C87.3337 165.031 86.3391 165.423 85.4139 165.783C84.4966 166.16 83.5728 166.477 82.761 166.764C81.9319 167.059 81.1974 167.332 80.5243 167.556C79.8685 167.772 79.2994 167.948 78.8249 168.102C77.8759 168.41 77.3335 168.553 77.3335 168.553L77.34 168.613Z" fill="#7399E6"/>
<path d="M76.2774 168.488C76.2774 168.488 76.8148 168.242 77.7495 167.857C78.2175 167.643 78.7881 167.424 79.4374 167.148C80.0789 166.855 80.7975 166.548 81.5935 166.226C82.3736 165.869 83.2042 165.532 84.1136 165.137C84.9977 164.733 85.9417 164.323 86.9204 163.896C87.8912 163.453 88.8793 163.001 89.8848 162.542C90.9155 162.092 91.9304 161.607 92.9532 161.14C93.976 160.672 95.024 160.214 96.0216 159.737C97.027 159.278 98.0325 158.818 99.0033 158.375C100.459 157.709 101.829 157.083 103.06 156.521C105.053 155.61 106.56 154.963 106.959 154.781C108.502 154.076 109.35 153.731 108.915 153.971C108.497 154.204 106.974 155.089 104.766 156.265C104.019 156.648 103.228 157.073 102.36 157.511C101.492 157.95 100.597 158.422 99.6337 158.883C98.6709 159.344 97.6812 159.838 96.6664 160.323C95.6515 160.808 94.5861 161.273 93.546 161.749C92.4885 162.232 91.4484 162.707 90.3924 163.148C89.3443 163.606 88.3057 164.039 87.3017 164.456C86.2978 164.872 85.2953 165.247 84.378 165.624C83.4607 166.001 82.5543 166.311 81.7252 166.606C80.8961 166.901 80.1615 167.174 79.4884 167.397C78.8327 167.613 78.2462 167.797 77.7891 167.943C76.8401 168.251 76.3057 168.412 76.3057 168.412L76.2774 168.488Z" fill="#7399E6"/>
<path d="M75.2226 168.341C75.2226 168.341 75.7427 168.104 76.6947 167.711C77.1627 167.497 77.7333 167.278 78.3826 167.002C79.0067 166.717 79.7427 166.401 80.5307 166.062C81.3108 165.706 82.1415 165.368 83.0429 164.956C83.927 164.552 84.8631 164.124 85.8498 163.715C86.8206 163.272 87.8087 162.82 88.8142 162.361C89.8196 161.901 90.8597 161.426 91.8825 160.959C92.9053 160.491 93.9455 160.016 94.9509 159.556C95.9564 159.097 96.9619 158.637 97.9326 158.194C99.2155 157.608 100.446 157.045 101.556 156.538C103.185 155.793 104.451 155.215 104.979 154.995C107.042 154.052 108.306 153.516 108.036 153.66C107.749 153.812 106.112 154.77 103.678 156.092C102.939 156.493 102.123 156.908 101.272 157.338C100.404 157.777 99.5165 158.266 98.5457 158.71C97.5829 159.171 96.5933 159.665 95.5784 160.15C94.5635 160.635 93.506 161.118 92.4659 161.593C91.4084 162.076 90.3683 162.552 89.3123 162.992C88.2722 163.468 87.2256 163.883 86.2296 164.317C85.2256 164.734 84.2311 165.126 83.3058 165.486C82.3886 165.863 81.4822 166.172 80.661 166.485C79.8318 166.78 79.0973 167.053 78.4242 167.276C77.7684 167.492 77.182 167.676 76.7249 167.822C75.7759 168.13 75.2415 168.291 75.2415 168.291L75.2226 168.341Z" fill="#7399E6"/>
<path d="M74.1638 168.221C74.1638 168.221 74.7012 167.975 75.6359 167.59C76.1039 167.376 76.6666 167.14 77.3238 166.881C77.9479 166.596 78.6839 166.281 79.4719 165.942C80.252 165.585 81.0827 165.248 81.9841 164.836C82.8682 164.432 83.8043 164.004 84.7736 163.603C85.7444 163.159 86.7325 162.708 87.7553 162.24C88.7608 161.781 89.7836 161.313 90.8237 160.838C91.8465 160.371 92.8867 159.895 93.8921 159.436C94.8976 158.976 95.903 158.517 96.8738 158.073C98.0006 157.558 99.0754 157.067 100.081 156.608C101.329 156.037 102.404 155.546 103.045 155.253C105.62 154.055 107.335 153.314 107.187 153.402C107.048 153.466 105.298 154.496 102.629 155.946C101.89 156.347 101.091 156.754 100.23 157.21C99.3621 157.649 98.4751 158.138 97.5122 158.599C96.5493 159.06 95.585 159.563 94.5448 160.039C93.5379 160.541 92.4725 161.007 91.4403 161.499C90.4001 161.975 89.3427 162.458 88.2946 162.916C87.2545 163.391 86.2079 163.806 85.2119 164.241C84.2079 164.658 83.2134 165.049 82.2881 165.409C81.3708 165.786 80.4724 166.113 79.6433 166.408C78.8221 166.721 78.0623 166.984 77.4144 167.217C76.7587 167.433 76.1722 167.617 75.6977 167.771C74.7488 168.079 74.2143 168.24 74.2143 168.24L74.1638 168.221Z" fill="#7399E6"/>
<path d="M73.1169 168.088C73.1169 168.088 73.6543 167.842 74.5811 167.44C75.0491 167.226 75.6118 166.99 76.269 166.731C76.8931 166.446 77.6039 166.121 78.3998 165.799C79.1799 165.443 80.0105 165.105 80.8946 164.701C81.7787 164.297 82.7149 163.869 83.6936 163.443C84.6644 163 85.6525 162.548 86.658 162.089C87.6634 161.629 88.6862 161.162 89.7263 160.686C90.7491 160.219 91.7893 159.744 92.7947 159.284C93.8002 158.825 94.8056 158.365 95.7591 157.929C96.7299 157.486 97.666 157.058 98.5422 156.637C99.4263 156.233 100.276 155.845 101.056 155.488C104.151 154.053 106.299 153.113 106.299 153.113C106.299 153.113 104.453 154.208 101.531 155.795C100.792 156.195 100.001 156.62 99.133 157.058C98.2648 157.497 97.3777 157.986 96.4148 158.447C95.4519 158.908 94.4876 159.412 93.4727 159.896C92.4578 160.381 91.4177 160.856 90.3681 161.357C89.3107 161.84 88.2705 162.316 87.2304 162.791C86.1903 163.266 85.1437 163.682 84.1477 164.116C83.1437 164.533 82.1491 164.924 81.2319 165.302C80.3146 165.679 79.3988 166.014 78.587 166.301C77.7658 166.613 77.006 166.876 76.3581 167.11C75.7024 167.326 75.1239 167.527 74.6494 167.681C73.7004 167.989 73.166 168.149 73.166 168.149L73.1169 168.088Z" fill="#7399E6"/>
<path d="M85.7109 166.027C85.7109 166.027 86.0056 165.893 86.5415 165.69C86.8095 165.588 87.1295 165.463 87.492 165.339C87.8719 165.208 88.2706 165.025 88.6946 164.853C89.1359 164.672 89.6024 164.501 90.1131 164.288C90.6158 164.059 91.1517 163.856 91.705 163.645C92.2423 163.399 92.7971 163.146 93.385 162.919C93.9729 162.692 94.5449 162.431 95.117 162.17C95.689 161.908 96.277 161.681 96.849 161.42C97.4211 161.159 97.9758 160.905 98.5132 160.66C99.5879 160.168 100.593 159.709 101.493 159.34C103.227 158.548 104.437 158.078 104.437 158.078C104.437 158.078 104.184 158.257 103.73 158.548C103.276 158.84 102.631 159.26 101.813 159.718C101.413 159.943 100.968 160.209 100.491 160.448C100.021 160.704 99.5252 160.994 98.9878 161.24C98.4505 161.485 97.8943 161.781 97.3301 162.06C96.7581 162.322 96.1687 162.591 95.5966 162.852C95.0073 163.122 94.4099 163.374 93.822 163.6C93.242 163.844 92.6462 164.054 92.0756 164.272C91.4971 164.474 90.9359 164.667 90.4094 164.845C89.8909 165.04 89.3579 165.158 88.9007 165.304C88.4356 165.432 87.9958 165.57 87.6095 165.642C87.2311 165.731 86.9046 165.796 86.6208 165.863C86.0626 165.972 85.7535 166.029 85.7535 166.029L85.7109 166.027Z" fill="#CCDCFF"/>
<path d="M85.0196 165.713C85.0196 165.713 85.3143 165.578 85.8503 165.375C86.1103 165.256 86.4382 165.148 86.7928 165.007C87.1648 164.858 87.5541 164.701 87.9954 164.521C88.4367 164.34 88.9206 164.161 89.4059 163.939C89.9087 163.709 90.4366 163.489 90.9899 163.278C91.5273 163.033 92.082 162.779 92.6699 162.552C93.2499 162.308 93.8219 162.047 94.394 161.785C94.9661 161.524 95.554 161.297 96.1181 161.019C96.6901 160.757 97.2449 160.504 97.7822 160.258C98.7703 159.807 99.6891 159.387 100.512 159.032C102.037 158.335 103.136 157.896 103.205 157.864C103.5 157.729 103.481 157.78 103.097 158.039C102.722 158.274 102.015 158.744 101.074 159.299C100.674 159.524 100.23 159.79 99.7601 160.046C99.2906 160.303 98.7943 160.593 98.2648 160.856C97.7354 161.118 97.1792 161.415 96.6071 161.676C96.043 161.955 95.4457 162.207 94.8736 162.468C94.2843 162.737 93.7122 162.999 93.099 163.216C92.519 163.46 91.9232 163.67 91.3605 163.906C90.782 164.107 90.2209 164.301 89.6944 164.478C89.1758 164.673 88.6508 164.808 88.1857 164.937C87.7206 165.066 87.2808 165.204 86.9023 165.293C86.5239 165.382 86.1802 165.455 85.9137 165.514C85.3555 165.622 85.0464 165.679 85.0464 165.679L85.0196 165.713Z" fill="#CCDCFF"/>
<path d="M84.3246 165.423C84.3246 165.423 84.6193 165.288 85.1552 165.085C85.4152 164.967 85.7431 164.859 86.0977 164.718C86.4697 164.569 86.859 164.412 87.3003 164.231C87.7337 164.033 88.2255 163.871 88.7109 163.649C89.1963 163.427 89.7243 163.207 90.2776 162.996C90.815 162.751 91.3697 162.497 91.9497 162.253C92.5297 162.009 93.0939 161.73 93.666 161.469C94.238 161.207 94.818 160.963 95.3822 160.685C95.9543 160.423 96.509 160.17 97.0464 159.924C97.9479 159.512 98.78 159.132 99.5254 158.791C100.843 158.189 101.812 157.788 101.959 157.742C102.531 157.481 102.755 157.42 102.467 157.615C102.161 157.817 101.402 158.311 100.33 158.947C99.9127 159.18 99.4857 159.438 99.0162 159.694C98.5466 159.951 98.0503 160.241 97.5208 160.504C96.9913 160.766 96.4525 161.055 95.8883 161.333C95.3241 161.612 94.7268 161.864 94.1547 162.126C93.5653 162.395 92.9932 162.656 92.388 162.891C91.808 163.135 91.2201 163.362 90.6495 163.581C90.071 163.782 89.5098 163.976 88.9833 164.153C88.4647 164.348 87.9397 164.484 87.4746 164.612C87.0095 164.741 86.5697 164.879 86.1913 164.968C85.8129 165.057 85.4692 165.131 85.2027 165.189C84.6524 165.315 84.3355 165.355 84.3355 165.355L84.3246 165.423Z" fill="#CCDCFF"/>
<path d="M83.641 165.126C83.641 165.126 83.9357 164.992 84.4716 164.789C84.7316 164.67 85.0595 164.562 85.4141 164.421C85.7608 164.262 86.1675 164.097 86.6167 163.934C87.0501 163.736 87.5167 163.565 88.0273 163.352C88.5301 163.123 89.0581 162.902 89.5861 162.682C90.1235 162.436 90.6782 162.183 91.2329 161.929C91.8129 161.685 92.3771 161.407 92.9492 161.145C93.5212 160.884 94.1013 160.64 94.6654 160.361C95.2201 160.107 95.7922 159.846 96.3296 159.6C97.1444 159.228 97.9072 158.88 98.5833 158.571C99.6927 158.064 100.541 157.718 100.749 157.623C101.616 157.227 102.082 157.056 101.855 157.201C101.628 157.347 100.816 157.907 99.6134 158.624C99.2132 158.848 98.7689 159.114 98.2994 159.371C97.8298 159.627 97.3335 159.917 96.804 160.18C96.2746 160.443 95.7357 160.731 95.1715 161.01C94.6074 161.288 94.01 161.541 93.4379 161.802C92.8485 162.071 92.2765 162.333 91.6712 162.567C91.0912 162.811 90.5033 163.038 89.9327 163.257C89.3621 163.476 88.793 163.652 88.2744 163.847C87.7559 164.042 87.2309 164.177 86.7658 164.306C86.3007 164.435 85.8609 164.573 85.4825 164.662C85.1041 164.751 84.7603 164.824 84.4939 164.883C83.9436 165.009 83.6345 165.066 83.6345 165.066L83.641 165.126Z" fill="#CCDCFF"/>
<path d="M82.9377 164.824C82.9377 164.824 83.2324 164.689 83.7683 164.486C84.0284 164.367 84.3563 164.259 84.7109 164.118C85.0576 163.96 85.4642 163.795 85.9056 163.614C86.339 163.416 86.8055 163.245 87.3083 163.015C87.7937 162.793 88.3137 162.556 88.867 162.345C89.4044 162.099 89.9591 161.846 90.5312 161.584C91.0859 161.331 91.658 161.069 92.2474 160.8C92.8195 160.539 93.3916 160.277 93.9463 160.024C94.5011 159.77 95.0558 159.517 95.6105 159.263C96.3213 158.938 97.0147 158.622 97.6215 158.344C98.5229 157.932 99.2337 157.608 99.5363 157.49C100.68 156.967 101.407 156.677 101.242 156.774C101.094 156.862 100.219 157.471 98.8943 158.287C98.4847 158.537 98.0498 158.777 97.5803 159.034C97.1107 159.29 96.6224 159.597 96.085 159.843C95.5555 160.106 95.0166 160.394 94.4524 160.673C93.8883 160.951 93.3162 161.213 92.7268 161.482C92.1374 161.751 91.548 162.021 90.96 162.247C90.388 162.509 89.7921 162.718 89.2295 162.954C88.6589 163.173 88.0977 163.367 87.5712 163.545C87.0526 163.74 86.5276 163.875 86.0704 164.021C85.6054 164.15 85.1655 164.288 84.7871 164.377C84.4087 164.466 84.065 164.539 83.7985 164.598C83.2483 164.724 82.9392 164.781 82.9392 164.781L82.9377 164.824Z" fill="#CCDCFF"/>
<path d="M82.2539 164.523C82.2539 164.523 82.5486 164.389 83.0845 164.186C83.3446 164.067 83.6645 163.942 84.0271 163.818C84.3738 163.66 84.7804 163.495 85.2218 163.314C85.6551 163.116 86.1217 162.945 86.6245 162.715C87.1099 162.493 87.6299 162.255 88.1832 162.044C88.7206 161.799 89.2753 161.545 89.8474 161.284C90.4195 161.023 90.9742 160.769 91.5463 160.508C92.1184 160.246 92.6904 159.985 93.2625 159.723C93.8172 159.47 94.372 159.216 94.9094 158.971C95.5335 158.686 96.1402 158.408 96.695 158.155C97.3884 157.838 97.9778 157.569 98.3418 157.402C99.7728 156.727 100.725 156.334 100.663 156.383C100.577 156.423 99.6583 157.073 98.2026 157.969C97.793 158.219 97.3581 158.46 96.8965 158.733C96.4269 158.99 95.9385 159.297 95.4091 159.56C94.8796 159.823 94.3486 160.128 93.7765 160.39C93.2203 160.686 92.623 160.938 92.0588 161.216C91.4694 161.486 90.8973 161.747 90.3 161.999C89.7279 162.261 89.1321 162.47 88.5694 162.706C87.9988 162.925 87.4377 163.119 86.9112 163.296C86.3926 163.491 85.8755 163.644 85.4104 163.773C84.9359 163.927 84.5055 164.039 84.135 164.146C83.7566 164.235 83.4129 164.308 83.1464 164.367C82.5962 164.493 82.2871 164.55 82.2871 164.55L82.2539 164.523Z" fill="#CCDCFF"/>
<path d="M81.5737 164.226C81.5737 164.226 81.8684 164.092 82.3964 163.871C82.6565 163.753 82.9764 163.627 83.339 163.504C83.6857 163.345 84.0844 163.163 84.5337 163C84.9671 162.801 85.4336 162.63 85.9364 162.4C86.4217 162.179 86.9592 161.933 87.4871 161.713C88.0245 161.467 88.5793 161.214 89.134 160.96C89.6888 160.707 90.2608 160.445 90.8329 160.184C91.405 159.922 91.9771 159.661 92.5318 159.407C93.0865 159.154 93.6586 158.893 94.1787 158.655C94.7161 158.409 95.2362 158.172 95.7136 157.933C96.199 157.711 96.6671 157.497 97.1178 157.291C98.8435 156.481 100.038 155.977 100.038 155.977C100.038 155.977 99.0584 156.677 97.4719 157.653C97.0796 157.895 96.6353 158.161 96.1658 158.417C95.6962 158.674 95.2079 158.981 94.6784 159.244C94.1489 159.507 93.6179 159.812 93.0538 160.091C92.4896 160.37 91.9002 160.639 91.3361 160.918C90.7466 161.187 90.1746 161.449 89.5852 161.718C89.0131 161.979 88.4172 162.189 87.8546 162.425C87.284 162.644 86.7228 162.837 86.2042 163.032C85.6857 163.227 85.1686 163.38 84.6862 163.517C84.229 163.663 83.7813 163.783 83.4108 163.89C83.0324 163.979 82.6966 164.069 82.4301 164.128C81.8798 164.254 81.5708 164.312 81.5708 164.312L81.5737 164.226Z" fill="#CCDCFF"/>
<path d="M141.961 138.933C141.961 138.933 142.257 138.756 142.788 138.451C143.057 138.307 143.371 138.121 143.744 137.93C144.11 137.721 144.502 137.479 144.954 137.23C145.381 136.972 145.868 136.708 146.356 136.401C146.852 136.111 147.375 135.788 147.924 135.475C148.464 135.144 149.014 134.788 149.571 134.449C150.154 134.12 150.696 133.747 151.263 133.383C151.83 133.019 152.413 132.689 152.955 132.316C153.505 131.96 154.062 131.621 154.595 131.273C155.667 130.594 156.646 129.938 157.517 129.414C159.218 128.322 160.428 127.622 160.428 127.622C160.428 127.622 160.19 127.836 159.759 128.222C159.327 128.607 158.712 129.14 157.931 129.77C157.545 130.072 157.115 130.415 156.643 130.757C156.188 131.091 155.714 131.475 155.189 131.84C154.665 132.206 154.131 132.597 153.581 132.953C153.039 133.326 152.447 133.681 151.871 134.07C151.286 134.442 150.694 134.796 150.111 135.125C149.536 135.472 148.928 135.792 148.38 136.105C147.806 136.409 147.242 136.688 146.713 136.951C146.191 137.231 145.655 137.434 145.17 137.656C144.702 137.87 144.268 138.068 143.871 138.207C143.482 138.364 143.137 138.48 142.869 138.581C142.308 138.775 141.98 138.883 141.98 138.883L141.961 138.933Z" fill="#7399E6"/>
<path d="M141.169 138.709C141.169 138.709 141.465 138.532 141.996 138.226C142.265 138.082 142.579 137.897 142.944 137.688C143.31 137.479 143.702 137.237 144.154 136.989C144.581 136.731 145.068 136.466 145.556 136.159C146.045 135.852 146.568 135.529 147.116 135.216C147.656 134.885 148.189 134.537 148.764 134.19C149.339 133.844 149.888 133.488 150.455 133.124C151.023 132.76 151.598 132.413 152.147 132.057C152.689 131.684 153.247 131.345 153.787 131.014C154.764 130.4 155.663 129.801 156.482 129.301C157.983 128.321 159.062 127.702 159.141 127.645C159.412 127.458 159.419 127.518 159.066 127.847C158.705 128.159 158.036 128.758 157.14 129.503C156.755 129.805 156.325 130.148 155.86 130.507C155.396 130.866 154.931 131.226 154.407 131.591C153.882 131.956 153.348 132.347 152.807 132.721C152.265 133.094 151.681 133.466 151.096 133.838C150.512 134.21 149.945 134.574 149.344 134.911C148.769 135.257 148.169 135.595 147.613 135.891C147.039 136.195 146.475 136.473 145.954 136.754C145.432 137.034 144.896 137.237 144.428 137.451C143.96 137.664 143.51 137.87 143.13 138.002C142.741 138.159 142.395 138.275 142.127 138.376C141.566 138.57 141.238 138.678 141.238 138.678L141.169 138.709Z" fill="#7399E6"/>
<path d="M140.383 138.499C140.383 138.499 140.68 138.322 141.193 138.025C141.463 137.88 141.776 137.695 142.142 137.486C142.507 137.277 142.899 137.035 143.326 136.777C143.753 136.519 144.24 136.255 144.728 135.948C145.217 135.641 145.74 135.318 146.288 135.005C146.828 134.674 147.37 134.3 147.928 133.962C148.503 133.615 149.052 133.259 149.619 132.895C150.186 132.531 150.761 132.185 151.303 131.811C151.845 131.438 152.403 131.099 152.935 130.751C153.825 130.177 154.646 129.634 155.395 129.165C156.687 128.324 157.645 127.76 157.793 127.671C158.352 127.29 158.585 127.205 158.304 127.459C158.022 127.714 157.291 128.362 156.281 129.222C155.895 129.524 155.465 129.868 155 130.227C154.553 130.578 154.079 130.962 153.547 131.31C153.022 131.676 152.506 132.059 151.947 132.44C151.388 132.821 150.821 133.185 150.236 133.557C149.652 133.929 149.085 134.293 148.485 134.63C147.91 134.977 147.327 135.306 146.761 135.627C146.188 135.931 145.631 136.227 145.102 136.49C144.58 136.77 144.052 136.991 143.567 137.212C143.099 137.426 142.666 137.624 142.276 137.781C141.887 137.938 141.542 138.054 141.257 138.163C140.703 138.374 140.375 138.482 140.375 138.482L140.383 138.499Z" fill="#7399E6"/>
<path d="M139.606 138.27C139.606 138.27 139.902 138.092 140.433 137.787C140.695 137.625 141.016 137.457 141.382 137.249C141.747 137.04 142.139 136.797 142.566 136.539C142.993 136.281 143.48 136.017 143.96 135.693C144.449 135.386 144.972 135.063 145.52 134.749C146.06 134.419 146.585 134.053 147.16 133.707C147.717 133.368 148.276 132.987 148.844 132.623C149.411 132.259 149.986 131.912 150.527 131.539C151.069 131.165 151.627 130.827 152.159 130.479C152.953 129.969 153.704 129.458 154.375 129.046C155.475 128.334 156.294 127.834 156.521 127.689C157.351 127.121 157.828 126.882 157.625 127.079C157.397 127.267 156.638 127.992 155.487 128.958C155.11 129.277 154.672 129.603 154.225 129.954C153.777 130.305 153.303 130.69 152.779 131.055C152.255 131.421 151.738 131.803 151.179 132.185C150.62 132.566 150.053 132.93 149.476 133.319C148.892 133.691 148.325 134.055 147.732 134.41C147.157 134.756 146.557 135.093 146.009 135.407C145.435 135.711 144.879 136.007 144.35 136.27C143.828 136.55 143.308 136.788 142.815 136.992C142.347 137.206 141.914 137.404 141.532 137.578C141.143 137.735 140.798 137.851 140.53 137.952C139.977 138.163 139.649 138.271 139.649 138.271L139.606 138.27Z" fill="#7399E6"/>
<path d="M138.813 138.048C138.813 138.048 139.109 137.87 139.615 137.555C139.885 137.411 140.198 137.226 140.564 137.017C140.929 136.808 141.321 136.566 141.748 136.308C142.175 136.05 142.637 135.776 143.142 135.461C143.631 135.154 144.154 134.832 144.694 134.501C145.234 134.17 145.759 133.805 146.334 133.458C146.891 133.119 147.45 132.738 148.018 132.374C148.585 132.01 149.16 131.663 149.701 131.29C150.243 130.917 150.801 130.578 151.333 130.23C152.04 129.76 152.704 129.331 153.323 128.943C154.205 128.352 154.91 127.924 155.207 127.747C156.333 127.002 157.046 126.592 156.897 126.723C156.747 126.854 155.927 127.627 154.653 128.692C154.276 129.011 153.846 129.354 153.391 129.688C152.943 130.039 152.47 130.424 151.945 130.789C151.421 131.155 150.912 131.555 150.353 131.936C149.819 132.327 149.227 132.681 148.668 133.063C148.083 133.435 147.516 133.798 146.924 134.153C146.349 134.5 145.766 134.829 145.2 135.15C144.635 135.472 144.071 135.75 143.549 136.031C143.028 136.311 142.508 136.548 142.022 136.77C141.554 136.984 141.121 137.182 140.739 137.356C140.35 137.513 140.013 137.646 139.72 137.738C139.166 137.949 138.839 138.057 138.839 138.057L138.813 138.048Z" fill="#7399E6"/>
<path d="M138.017 137.821C138.017 137.821 138.313 137.643 138.818 137.328C139.08 137.167 139.393 136.982 139.767 136.79C140.107 136.572 140.517 136.322 140.944 136.064C141.37 135.806 141.832 135.532 142.338 135.217C142.826 134.91 143.349 134.587 143.889 134.257C144.422 133.908 144.954 133.56 145.521 133.196C146.079 132.858 146.638 132.476 147.197 132.095C147.764 131.731 148.339 131.384 148.873 130.994C149.415 130.62 149.964 130.264 150.497 129.916C151.108 129.511 151.702 129.114 152.234 128.766C152.907 128.312 153.499 127.957 153.857 127.731C155.254 126.799 156.211 126.236 156.141 126.31C156.062 126.367 155.188 127.206 153.8 128.386C153.422 128.706 152.992 129.049 152.545 129.4C152.098 129.751 151.624 130.135 151.099 130.501C150.592 130.858 150.066 131.266 149.507 131.648C148.973 132.038 148.389 132.41 147.83 132.792C147.245 133.163 146.686 133.545 146.111 133.891C145.536 134.238 144.953 134.567 144.396 134.906C143.83 135.227 143.266 135.506 142.744 135.786C142.223 136.066 141.703 136.304 141.235 136.518C140.749 136.74 140.316 136.938 139.935 137.112C139.545 137.269 139.208 137.402 138.923 137.511C138.37 137.722 138.042 137.83 138.042 137.83L138.017 137.821Z" fill="#7399E6"/>
<path d="M137.241 137.588C137.241 137.588 137.537 137.411 138.043 137.096C138.304 136.935 138.618 136.75 138.991 136.558C139.331 136.34 139.741 136.09 140.168 135.832C140.595 135.574 141.056 135.3 141.554 134.968C142.042 134.661 142.557 134.32 143.088 134.015C143.621 133.667 144.153 133.319 144.72 132.955C145.278 132.616 145.829 132.217 146.396 131.853C146.963 131.489 147.53 131.125 148.072 130.752C148.614 130.379 149.163 130.023 149.678 129.682C150.211 129.334 150.708 129.002 151.189 128.678C151.669 128.353 152.123 128.062 152.559 127.779C154.244 126.652 155.429 125.943 155.429 125.943C155.429 125.943 154.502 126.849 152.991 128.127C152.613 128.447 152.183 128.79 151.736 129.141C151.289 129.492 150.815 129.876 150.298 130.259C149.774 130.625 149.265 131.025 148.723 131.398C148.189 131.789 147.605 132.161 147.046 132.542C146.462 132.914 145.902 133.295 145.327 133.642C144.752 133.988 144.177 134.335 143.612 134.656C143.046 134.978 142.482 135.256 141.961 135.537C141.439 135.817 140.919 136.054 140.459 136.286C139.974 136.507 139.54 136.705 139.159 136.88C138.778 137.054 138.432 137.17 138.147 137.279C137.594 137.49 137.266 137.598 137.266 137.598L137.241 137.588Z" fill="#7399E6"/>
<path d="M145.392 136.72C145.392 136.72 145.565 136.641 145.869 136.481C146.025 136.41 146.216 136.323 146.424 136.228C146.632 136.133 146.859 135.987 147.119 135.868C147.371 135.732 147.648 135.606 147.927 135.436C148.214 135.284 148.51 135.107 148.814 134.947C149.11 134.77 149.416 134.567 149.737 134.399C150.058 134.232 150.381 134.021 150.687 133.819C151 133.633 151.331 133.44 151.637 133.238C151.942 133.035 152.256 132.85 152.552 132.673C153.154 132.293 153.703 131.937 154.182 131.655C155.134 131.032 155.819 130.698 155.819 130.698C155.819 130.698 155.695 130.838 155.473 131.087C155.251 131.335 154.941 131.665 154.535 132.06C154.332 132.258 154.104 132.446 153.849 132.668C153.611 132.881 153.356 133.102 153.058 133.322C152.778 133.534 152.48 133.754 152.183 133.974C151.885 134.194 151.554 134.387 151.231 134.597C150.901 134.791 150.578 135.001 150.231 135.159C149.892 135.335 149.553 135.511 149.241 135.653C148.912 135.804 148.575 135.937 148.255 136.062C147.96 136.197 147.624 136.287 147.348 136.372C147.073 136.456 146.797 136.54 146.565 136.583C146.333 136.626 146.119 136.661 145.947 136.697C145.595 136.753 145.398 136.78 145.398 136.78L145.392 136.72Z" fill="white"/>
<path d="M144.809 136.36C144.809 136.36 144.982 136.281 145.279 136.103C145.435 136.032 145.625 135.945 145.833 135.85C146.041 135.755 146.268 135.609 146.52 135.473C146.78 135.354 147.05 135.21 147.311 135.049C147.598 134.897 147.894 134.719 148.198 134.56C148.494 134.382 148.8 134.18 149.121 134.012C149.443 133.844 149.766 133.634 150.071 133.431C150.377 133.229 150.715 133.053 151.021 132.85C151.327 132.648 151.64 132.463 151.928 132.268C152.469 131.937 152.976 131.58 153.428 131.331C154.266 130.78 154.874 130.461 154.926 130.437C155.083 130.323 155.09 130.383 154.912 130.59C154.734 130.797 154.388 131.186 153.921 131.63C153.718 131.828 153.489 132.016 153.234 132.237C152.997 132.451 152.742 132.672 152.444 132.892C152.164 133.104 151.874 133.341 151.568 133.544C151.271 133.764 150.94 133.957 150.617 134.167C150.286 134.36 149.963 134.571 149.625 134.747C149.286 134.922 148.947 135.098 148.643 135.258C148.314 135.409 147.976 135.542 147.674 135.659C147.379 135.794 147.043 135.884 146.767 135.968C146.474 136.06 146.216 136.136 145.992 136.197C145.76 136.24 145.546 136.275 145.374 136.311C145.022 136.367 144.825 136.394 144.825 136.394L144.809 136.36Z" fill="white"/>
<path d="M144.205 136.002C144.205 136.002 144.378 135.923 144.674 135.746C144.83 135.675 145.021 135.588 145.229 135.492C145.437 135.397 145.664 135.252 145.916 135.116C146.168 134.98 146.437 134.835 146.716 134.666C146.995 134.497 147.274 134.327 147.595 134.16C147.891 133.982 148.197 133.78 148.51 133.595C148.832 133.427 149.147 133.199 149.452 132.996C149.758 132.794 150.097 132.618 150.394 132.398C150.7 132.196 151.013 132.011 151.302 131.816C151.79 131.509 152.253 131.193 152.663 130.942C153.387 130.465 153.926 130.176 154.013 130.137C154.318 129.934 154.465 129.888 154.314 130.062C154.155 130.219 153.807 130.65 153.269 131.169C153.066 131.366 152.845 131.572 152.583 131.776C152.345 131.989 152.098 132.228 151.809 132.423C151.529 132.635 151.239 132.872 150.934 133.074C150.636 133.294 150.305 133.487 149.983 133.698C149.652 133.891 149.329 134.101 148.99 134.277C148.651 134.453 148.33 134.621 148.008 134.789C147.679 134.939 147.35 135.09 147.047 135.207C146.735 135.349 146.417 135.432 146.141 135.516C145.848 135.608 145.589 135.684 145.365 135.745C145.133 135.788 144.927 135.84 144.747 135.859C144.403 135.933 144.198 135.942 144.198 135.942L144.205 136.002Z" fill="white"/>
<path d="M143.629 135.663C143.629 135.663 143.803 135.584 144.099 135.406C144.255 135.335 144.437 135.23 144.646 135.135C144.854 135.04 145.08 134.895 145.332 134.759C145.584 134.623 145.854 134.478 146.115 134.317C146.394 134.148 146.673 133.978 146.994 133.811C147.291 133.633 147.596 133.431 147.91 133.246C148.223 133.06 148.546 132.85 148.852 132.647C149.157 132.445 149.496 132.269 149.794 132.049C150.091 131.829 150.405 131.644 150.701 131.467C151.137 131.184 151.556 130.908 151.931 130.674C152.542 130.269 153.012 130.013 153.125 129.94C153.588 129.623 153.873 129.514 153.759 129.629C153.644 129.745 153.252 130.217 152.668 130.82C152.465 131.017 152.245 131.223 152.007 131.436C151.769 131.65 151.522 131.889 151.234 132.083C150.954 132.295 150.664 132.532 150.366 132.752C150.069 132.972 149.746 133.183 149.423 133.393C149.092 133.586 148.769 133.797 148.456 133.982C148.125 134.175 147.796 134.325 147.474 134.493C147.145 134.644 146.815 134.794 146.513 134.911C146.218 135.046 145.908 135.146 145.614 135.238C145.338 135.322 145.071 135.424 144.839 135.467C144.615 135.527 144.4 135.562 144.229 135.599C143.885 135.672 143.688 135.699 143.688 135.699L143.629 135.663Z" fill="white"/>
<path d="M143.045 135.3C143.045 135.3 143.211 135.203 143.515 135.043C143.671 134.972 143.853 134.868 144.061 134.773C144.269 134.678 144.496 134.532 144.723 134.386C144.975 134.25 145.227 134.114 145.506 133.945C145.785 133.775 146.064 133.606 146.377 133.421C146.673 133.244 146.971 133.024 147.284 132.839C147.598 132.653 147.904 132.451 148.226 132.24C148.532 132.038 148.863 131.845 149.16 131.625C149.458 131.405 149.772 131.22 150.06 131.025C150.444 130.766 150.811 130.514 151.159 130.313C151.657 129.981 152.057 129.756 152.222 129.66C152.843 129.229 153.259 129.039 153.188 129.113C153.117 129.188 152.707 129.711 152.044 130.37C151.841 130.568 151.621 130.773 151.383 130.987C151.146 131.2 150.898 131.439 150.618 131.651C150.338 131.863 150.048 132.1 149.751 132.32C149.453 132.54 149.13 132.75 148.807 132.961C148.484 133.171 148.161 133.382 147.84 133.549C147.509 133.743 147.188 133.91 146.866 134.078C146.537 134.229 146.208 134.379 145.913 134.514C145.618 134.648 145.308 134.748 145.014 134.84C144.721 134.932 144.471 135.026 144.247 135.086C144.023 135.147 143.808 135.182 143.637 135.218C143.293 135.292 143.096 135.319 143.096 135.319L143.045 135.3Z" fill="white"/>
<path d="M142.445 134.944C142.445 134.944 142.61 134.848 142.914 134.688C143.07 134.617 143.236 134.52 143.453 134.4C143.653 134.287 143.888 134.159 144.115 134.014C144.367 133.877 144.619 133.741 144.89 133.555C145.169 133.385 145.448 133.216 145.761 133.031C146.049 132.836 146.355 132.634 146.668 132.448C146.982 132.263 147.28 132.043 147.602 131.833C147.908 131.63 148.239 131.437 148.536 131.217C148.834 130.998 149.148 130.812 149.436 130.618C149.776 130.399 150.091 130.172 150.397 129.969C150.781 129.71 151.112 129.517 151.304 129.387C152.072 128.868 152.629 128.572 152.585 128.613C152.54 128.654 152.121 129.202 151.395 129.953C151.192 130.151 150.972 130.356 150.734 130.57C150.496 130.783 150.249 131.022 149.969 131.234C149.689 131.446 149.399 131.683 149.101 131.903C148.804 132.123 148.481 132.333 148.183 132.553C147.86 132.764 147.537 132.974 147.216 133.142C146.885 133.335 146.564 133.503 146.242 133.671C145.913 133.821 145.584 133.972 145.289 134.106C144.994 134.241 144.684 134.341 144.398 134.45C144.105 134.542 143.855 134.636 143.631 134.696C143.407 134.757 143.192 134.792 143.02 134.828C142.677 134.901 142.48 134.929 142.48 134.929L142.445 134.944Z" fill="white"/>
<path d="M141.869 134.6C141.869 134.6 142.034 134.503 142.339 134.344C142.495 134.272 142.66 134.176 142.877 134.055C143.077 133.943 143.287 133.805 143.539 133.669C143.783 133.516 144.035 133.38 144.314 133.21C144.593 133.041 144.864 132.854 145.185 132.686C145.473 132.492 145.779 132.289 146.093 132.104C146.406 131.919 146.704 131.699 147.027 131.489C147.332 131.286 147.663 131.093 147.961 130.873C148.258 130.653 148.572 130.468 148.86 130.273C149.148 130.079 149.436 129.884 149.69 129.705C149.961 129.519 150.205 129.365 150.449 129.212C151.375 128.579 152.062 128.202 152.062 128.202C152.062 128.202 151.606 128.809 150.819 129.609C150.616 129.806 150.396 130.012 150.158 130.226C149.92 130.439 149.673 130.678 149.393 130.89C149.113 131.102 148.823 131.339 148.525 131.559C148.228 131.779 147.905 131.989 147.607 132.209C147.284 132.419 146.979 132.622 146.648 132.815C146.317 133.008 145.996 133.176 145.682 133.361C145.353 133.512 145.024 133.662 144.729 133.797C144.434 133.931 144.106 134.039 143.838 134.141C143.553 134.25 143.295 134.326 143.071 134.387C142.847 134.447 142.632 134.482 142.46 134.519C142.117 134.592 141.92 134.619 141.92 134.619L141.869 134.6Z" fill="white"/>
<path d="M44.9594 126.509C43.2645 124.726 43.1762 126.045 42.303 126.884C41.4218 127.706 40.116 127.736 41.7857 129.51C43.4807 131.293 45.5516 132.065 46.4328 131.244C47.3061 130.405 46.6371 128.3 44.9594 126.509Z" fill="#1E65E4"/>
<path d="M44.7255 126.871C43.3926 125.468 43.3132 126.531 42.6082 127.189C41.9112 127.863 40.853 127.886 42.1686 129.297C43.5015 130.7 45.1352 131.296 45.8495 130.613C46.5465 129.938 46.0584 128.275 44.7255 126.871Z" fill="white"/>
<path d="M51.824 120.128C49.5898 117.669 49.6897 119.217 48.8006 120.021C47.9116 120.826 46.3766 120.584 48.5935 123.05C50.8277 125.509 53.3479 126.852 54.2369 126.048C55.126 125.243 54.0409 122.595 51.824 120.128Z" fill="#1E65E4"/>
<path d="M51.5908 120.488C49.8498 118.559 49.8922 119.797 49.1794 120.437C48.4492 121.085 47.2361 120.905 48.9849 122.852C50.7259 124.782 52.736 125.834 53.4582 125.169C54.1884 124.521 53.357 122.427 51.5908 120.488Z" fill="white"/>
<path d="M58.1191 113.54C55.3645 111.088 55.7263 112.705 54.9274 113.614C54.1205 114.507 52.4721 114.338 55.2268 116.79C57.9815 119.241 60.8374 120.494 61.6442 119.601C62.4511 118.708 60.8738 115.991 58.1191 113.54Z" fill="#1E65E4"/>
<path d="M57.9353 113.962C55.7764 112.035 56.0556 113.332 55.3997 114.051C54.7517 114.787 53.4346 114.655 55.5934 116.583C57.7523 118.51 60.0209 119.486 60.6688 118.75C61.3168 118.014 60.0863 115.872 57.9353 113.962Z" fill="white"/>
<path d="M63.6442 106.781C60.7024 104.562 61.2014 106.157 60.4688 107.121C59.7363 108.084 58.0834 108.043 61.0252 110.262C63.9671 112.482 66.925 113.499 67.6575 112.536C68.3728 111.58 66.5861 109.001 63.6442 106.781Z" fill="#1E65E4"/>
<path d="M63.5035 107.204C61.2016 105.467 61.5673 106.726 60.9778 107.498C60.3883 108.271 59.0667 108.266 61.3686 110.003C63.6706 111.739 66.0224 112.53 66.604 111.74C67.1935 110.968 65.7976 108.923 63.4956 107.186L63.5035 107.204Z" fill="white"/>
<path d="M68.6472 99.6196C64.9244 97.2957 65.7706 98.9633 65.1296 99.9898C64.4886 101.016 62.6134 100.993 66.3362 103.316C70.059 105.64 73.5958 106.687 74.2195 105.668C74.8604 104.642 72.3448 101.934 68.622 99.6102L68.6472 99.6196Z" fill="#1E65E4"/>
<path d="M68.5572 100.061C65.6273 98.234 66.2803 99.5707 65.7745 100.389C65.2686 101.207 63.7846 101.214 66.6972 103.048C69.6271 104.875 72.4047 105.681 72.9279 104.856C73.4337 104.038 71.4871 101.887 68.5572 100.061Z" fill="white"/>
<path d="M71.7036 92.717C67.015 90.9389 68.3768 92.4969 67.9457 93.6161C67.5147 94.7354 65.4587 95.0038 70.1472 96.782C74.8358 98.5601 78.9867 99.1165 79.4097 97.9799C79.8408 96.8607 76.3921 94.4952 71.6956 92.6997L71.7036 92.717Z" fill="#1E65E4"/>
<path d="M71.7389 93.162C68.0607 91.7608 69.1346 93.0101 68.7709 93.91C68.4324 94.8192 66.7958 95.0428 70.474 96.444C74.1522 97.8452 77.4132 98.2421 77.7596 97.3502C78.0981 96.4409 75.3998 94.5711 71.7216 93.1699L71.7389 93.162Z" fill="white"/>
<path d="M73.0824 85.7949C67.5638 85.318 69.4941 86.4698 69.3929 87.6691C69.2917 88.8683 67.1831 89.6639 72.7017 90.1407C78.2203 90.6176 82.7694 90.0278 82.8786 88.8459C82.9798 87.6466 78.5916 86.297 73.0903 85.8122L73.0824 85.7949Z" fill="#1E65E4"/>
<path d="M73.2586 86.216C68.939 85.8413 70.4507 86.7649 70.3663 87.7259C70.2818 88.6869 68.6304 89.3366 72.9579 89.7286C77.2775 90.1033 80.8505 89.6241 80.9349 88.6631C81.0194 87.702 77.5861 86.608 73.2586 86.216Z" fill="white"/>
<path d="M72.4558 78.8686C67.1923 79.6379 69.2667 80.3256 69.4304 81.5087C69.6194 82.7013 67.8194 83.943 73.0829 83.1737C78.3465 82.4044 82.4533 80.8008 82.2896 79.6176C82.1179 78.4171 77.7114 78.082 72.4558 78.8686Z" fill="#1E65E4"/>
<path d="M72.7137 79.253C68.5902 79.8578 70.2005 80.4011 70.3542 81.3792C70.5001 82.3399 69.0923 83.3394 73.2331 82.7267C77.3565 82.1218 80.5903 80.8541 80.4445 79.8934C80.2986 78.9327 76.8371 78.6481 72.7137 79.253Z" fill="white"/>
</g>
<defs>
<clipPath id="clip0_877_12469">
<rect width="188" height="187" fill="white"/>
</clipPath>
</defs>
</svg>
