<svg viewBox="0 0 140 110" fill="none" xmlns="http://www.w3.org/2000/svg">
<g clip-path="url(#clip0_877_12446)">
<path d="M49.7744 24.4824C23.3276 39.5331 5.5253 58.1083 9.99998 65.9685L25.8183 93.7551C30.9309 102.736 56.505 97.8124 82.9518 82.7617C109.399 67.7111 126.691 48.2395 121.578 39.2589L105.76 11.4723C101.285 3.61208 76.2212 9.43169 49.7744 24.4824Z" fill="#0756E4"/>
<path d="M104.705 13.3326C99.9354 4.95444 75.3408 9.95884 49.7883 24.5011C24.2358 39.0433 7.37433 57.632 12.1437 66.0101C16.9131 74.3883 41.4904 69.3937 67.0601 54.8417C92.6298 40.2896 109.474 21.7107 104.705 13.3326Z" fill="#6BA0FF"/>
<path d="M101.747 17.7572C97.9978 11.1719 78.673 15.0945 58.5825 26.5282C38.492 37.9619 25.2688 52.5628 29.0175 59.1481C32.7663 65.7334 52.0911 61.8109 72.1644 50.3869C92.2376 38.963 105.495 24.3425 101.747 17.7572Z" fill="white"/>
<path d="M105.767 11.4757C101.292 3.61457 76.2265 9.43482 49.7778 24.4872C23.3292 39.5395 5.52556 58.1168 10.0006 65.9779C14.4756 73.839 39.5412 68.0187 65.9899 52.9664C92.4386 37.914 110.242 19.3367 105.767 11.4757Z" fill="#0756E4"/>
<path d="M33.1914 95.2012C33.1914 95.2012 33.5087 95.1575 34.0745 95.1095C34.3574 95.0854 34.7017 95.0492 35.083 95.0377C35.4716 94.9991 35.8947 94.9409 36.3719 94.8976C36.8393 94.837 37.3435 94.8011 37.8897 94.7186C38.4185 94.6458 38.9819 94.5535 39.5649 94.4956C40.1552 94.4107 40.753 94.2988 41.3607 94.204C41.9781 94.1265 42.5931 94.0048 43.218 93.9002C43.8428 93.7957 44.4602 93.7182 45.0655 93.5792C45.6805 93.4575 46.2881 93.3627 46.8687 93.2606C48.0299 93.0563 49.1271 92.8198 50.0619 92.6987C51.934 92.3409 53.2229 92.2008 53.2229 92.2008C53.2229 92.2008 52.9473 92.3576 52.4256 92.5632C51.9137 92.7861 51.168 93.1191 50.2797 93.4421C49.827 93.6084 49.3299 93.7772 48.8058 93.9385C48.2817 94.0998 47.733 94.298 47.145 94.4272C46.5668 94.5736 45.9542 94.7396 45.349 94.8787C44.7265 95.0275 44.0919 95.1148 43.4596 95.2463C42.8348 95.3509 42.1828 95.448 41.5556 95.5082C40.9382 95.5857 40.3011 95.6287 39.7083 95.6693C39.1057 95.6927 38.5204 95.7063 37.9522 95.7101C37.4037 95.7483 36.8676 95.6882 36.3857 95.643C35.8962 95.6248 35.4585 95.5772 35.0651 95.5272C34.6716 95.4772 34.3397 95.415 34.0618 95.3677C33.5061 95.2731 33.1914 95.2012 33.1914 95.2012Z" fill="#6BA0FF"/>
<path d="M31.0368 91.6172C31.0368 91.6172 31.3541 91.5735 31.9198 91.5254C32.2027 91.5014 32.5471 91.4652 32.9283 91.4537C33.317 91.4151 33.7573 91.3471 34.2074 91.2963C34.6748 91.2358 35.1791 91.1999 35.7154 91.1001C36.2443 91.0273 36.8076 90.935 37.4078 90.8673C37.9982 90.7824 38.5862 90.6532 39.2036 90.5757C39.8211 90.4982 40.4361 90.3765 41.0511 90.2547C41.676 90.1502 42.2934 90.0727 42.8986 89.9337C43.5038 89.7947 44.1115 89.7 44.692 89.5978C45.7646 89.3982 46.7659 89.1936 47.6294 89.0674C49.2727 88.7484 50.4289 88.6154 50.5174 88.6107C50.8249 88.5498 50.8027 88.631 50.3695 88.8318C49.9266 89.0154 49.139 89.3951 48.0858 89.7891C47.6331 89.9555 47.136 90.1242 46.6119 90.2855C46.0878 90.4468 45.5391 90.645 44.9609 90.7914C44.3828 90.9379 43.7799 91.1211 43.1649 91.2429C42.5424 91.3917 41.9176 91.4963 41.2853 91.6278C40.6605 91.7324 40.0184 91.8467 39.3912 91.9069C38.7565 91.9942 38.1465 92.0447 37.5365 92.0951C36.9339 92.1185 36.3485 92.1321 35.7902 92.1531C35.2417 92.1914 34.7056 92.1312 34.2334 92.1032C33.744 92.085 33.2891 92.0472 32.9227 92.0047C32.5292 91.9547 32.1972 91.8925 31.9194 91.8452C31.3637 91.7506 31.049 91.6787 31.049 91.6787L31.0368 91.6172Z" fill="#6BA0FF"/>
<path d="M28.8884 88.0032C28.8884 88.0032 29.2058 87.9596 29.7617 87.8942C30.0446 87.8702 30.3889 87.834 30.7603 87.8052C31.149 87.7667 31.5893 87.6987 32.0567 87.6381C32.5241 87.5775 33.0283 87.5416 33.5646 87.4418C34.1108 87.3593 34.6741 87.2669 35.2473 87.1918C35.8376 87.1069 36.4256 86.9777 37.0333 86.883C37.6507 86.8055 38.2559 86.6665 38.8808 86.562C39.4958 86.4402 40.1132 86.3627 40.7184 86.2237C41.3237 86.0847 41.9313 85.99 42.5119 85.8878C43.4787 85.7028 44.4012 85.5202 45.1934 85.3889C46.6079 85.1088 47.6583 84.9904 47.7985 84.9562C48.4038 84.8172 48.6546 84.8571 48.3076 85.0089C47.9606 85.1608 47.0943 85.5625 45.9032 86.0348C45.4505 86.2012 44.9534 86.37 44.4391 86.5485C43.9151 86.7098 43.3663 86.908 42.7882 87.0544C42.21 87.2009 41.6071 87.3842 40.9921 87.5059C40.3697 87.6547 39.7448 87.7593 39.1126 87.8908C38.4705 88.0052 37.8456 88.1097 37.211 88.197C36.5763 88.2843 35.9663 88.3347 35.3563 88.3851C34.7635 88.4258 34.1683 88.4221 33.61 88.4431C33.0615 88.4814 32.5254 88.4213 32.036 88.4031C31.5466 88.3849 31.1187 88.3545 30.7252 88.3045C30.3318 88.2545 29.9998 88.1924 29.722 88.1451C29.1663 88.0505 28.8516 87.9785 28.8516 87.9785L28.8884 88.0032Z" fill="#6BA0FF"/>
<path d="M26.7321 84.414C26.7321 84.414 27.0494 84.3704 27.6053 84.3051C27.8882 84.281 28.2228 84.2276 28.6212 84.2062C29.0099 84.1677 29.4404 84.0824 29.9176 84.0391C30.385 83.9785 30.8794 83.9254 31.4255 83.8429C31.9544 83.7701 32.5252 83.6507 33.1081 83.5929C33.6887 83.4907 34.2865 83.3787 34.9114 83.2742C35.5288 83.1967 36.134 83.0577 36.7491 82.9359C37.3641 82.8142 37.9815 82.7367 38.5868 82.5977C39.192 82.4587 39.7996 82.364 40.3704 82.2446C41.2486 82.0643 42.0654 81.8962 42.796 81.7771C43.9991 81.5261 44.8994 81.4246 45.1282 81.3857C46.0581 81.176 46.555 81.1672 46.3039 81.2872C46.0431 81.39 45.1005 81.858 43.7618 82.3916C43.309 82.558 42.8218 82.7439 42.2977 82.9052C41.7736 83.0666 41.2347 83.2819 40.6467 83.4111C40.0685 83.5576 39.4657 83.7409 38.8432 83.8897C38.2306 84.0558 37.5959 84.143 36.9735 84.2918C36.3314 84.4062 35.7163 84.5279 35.0719 84.598C34.4372 84.6853 33.8272 84.7357 33.227 84.8034C32.617 84.8538 32.0316 84.8674 31.4905 84.8786C30.942 84.9169 30.4157 84.874 29.9263 84.8558C29.4369 84.8376 28.9918 84.8171 28.5983 84.7671C28.2049 84.7171 27.8729 84.6549 27.5951 84.6076C27.0394 84.513 26.7247 84.4411 26.7247 84.4411L26.7321 84.414Z" fill="#6BA0FF"/>
<path d="M24.584 80.8004C24.584 80.8004 24.9014 80.7568 25.4573 80.6915C25.7402 80.6674 26.0747 80.614 26.4732 80.5927C26.852 80.5369 27.2751 80.4787 27.7597 80.4083C28.2271 80.3477 28.7216 80.2946 29.2579 80.1948C29.7942 80.095 30.3575 80.0027 30.9307 79.9276C31.5113 79.8254 32.0993 79.6962 32.7069 79.6015C33.3145 79.5067 33.9468 79.3752 34.552 79.2362C35.167 79.1144 35.8017 79.0271 36.3971 78.8708C37.0023 78.7318 37.6099 78.6371 38.1807 78.5177C38.963 78.3692 39.6912 78.2059 40.3604 78.099C41.3444 77.9041 42.1021 77.7925 42.4096 77.7316C43.6471 77.461 44.4072 77.3937 44.2423 77.4647C44.0872 77.5529 43.0659 78.0429 41.5795 78.6377C41.1267 78.8041 40.6395 78.99 40.1154 79.1514C39.5913 79.3127 39.0524 79.5281 38.4742 79.6745C37.8961 79.821 37.2932 80.0043 36.6708 80.1531C36.0581 80.3191 35.4333 80.4236 34.801 80.5552C34.1589 80.6696 33.5439 80.7913 32.9092 80.8786C32.2746 80.9659 31.6645 81.0163 31.0643 81.084C30.4543 81.1345 29.8689 81.148 29.3278 81.1593C28.7793 81.1975 28.2358 81.1644 27.7637 81.1364C27.2743 81.1182 26.8291 81.0977 26.4455 81.0649C26.052 81.0149 25.7201 80.9528 25.452 80.9227C24.8963 80.8281 24.5914 80.7734 24.5914 80.7734L24.584 80.8004Z" fill="#6BA0FF"/>
<path d="M22.4297 77.2129C22.4297 77.2129 22.747 77.1693 23.3202 77.0941C23.6031 77.0701 23.9376 77.0167 24.3263 76.9781C24.7051 76.9223 25.1454 76.8542 25.6128 76.7937C26.0802 76.7331 26.5919 76.6702 27.1282 76.5704C27.6645 76.4706 28.2278 76.3783 28.801 76.3031C29.3816 76.201 29.9696 76.0718 30.5944 75.9673C31.2021 75.8725 31.8245 75.7237 32.4395 75.602C33.0546 75.4802 33.6794 75.3757 34.2847 75.2366C34.8899 75.0976 35.4877 74.9857 36.0584 74.8663C36.735 74.7323 37.3845 74.591 37.9823 74.479C38.7376 74.3231 39.3797 74.2087 39.7757 74.1431C41.338 73.8018 42.344 73.6858 42.2751 73.725C42.189 73.774 41.1085 74.3204 39.4745 74.9764C39.0217 75.1428 38.5345 75.3288 38.0202 75.5073C37.4961 75.6687 36.9572 75.8841 36.379 76.0305C35.8009 76.1769 35.2078 76.3775 34.5854 76.5263C33.9728 76.6923 33.3479 76.7969 32.7254 76.9457C32.0834 77.06 31.4683 77.1818 30.8337 77.2691C30.2088 77.3736 29.5816 77.4338 28.9814 77.5015C28.3713 77.552 27.7859 77.5656 27.2374 77.6038C26.6889 77.6421 26.1552 77.6263 25.6831 77.5982C25.1936 77.58 24.7485 77.5595 24.3649 77.5267C23.9714 77.4767 23.6493 77.4318 23.3714 77.3845C22.8157 77.2899 22.4936 77.245 22.4936 77.245L22.4297 77.2129Z" fill="#6BA0FF"/>
<path d="M20.2615 73.6103C20.2615 73.6103 20.5788 73.5666 21.1422 73.4743C21.4152 73.433 21.7596 73.3968 22.1483 73.3582C22.5271 73.3024 22.9675 73.2344 23.425 73.1566C23.8924 73.096 24.3943 73.0159 24.9306 72.9161C25.4669 72.8163 26.0302 72.7239 26.6108 72.6218C27.1914 72.5196 27.7966 72.3806 28.3944 72.2686C29.0021 72.1739 29.6245 72.0251 30.2297 71.8861C30.8448 71.7643 31.4696 71.6598 32.065 71.5035C32.6703 71.3645 33.2681 71.2526 33.8388 71.1332C34.4268 71.004 34.9804 70.8944 35.5241 70.7675C36.0506 70.6505 36.5598 70.5433 37.0174 70.4655C38.8774 70.0461 40.1565 69.8887 40.1565 69.8887C40.1565 69.8887 39.017 70.4916 37.2353 71.2088C36.7825 71.3752 36.2953 71.5612 35.781 71.7398C35.2667 71.9183 34.7278 72.1337 34.1324 72.29C33.564 72.4536 32.9612 72.6369 32.3387 72.7857C31.7261 72.9518 31.0938 73.0834 30.4616 73.2149C29.8293 73.3465 29.197 73.4781 28.5796 73.5556C27.9547 73.6601 27.3275 73.7204 26.7371 73.8053C26.1271 73.8557 25.5515 73.8866 24.9931 73.9076C24.4446 73.9458 23.9109 73.93 23.4215 73.9118C22.9321 73.8936 22.487 73.873 22.1033 73.8403C21.7197 73.8075 21.3878 73.7454 21.0927 73.7079C20.537 73.6133 20.2148 73.5684 20.2148 73.5684L20.2615 73.6103Z" fill="#6BA0FF"/>
<path d="M118.299 46.7512C118.299 46.7512 118.099 47.0017 117.769 47.4635C117.604 47.6944 117.397 47.972 117.192 48.2938C116.961 48.6082 116.695 48.9423 116.414 49.3304C116.123 49.7013 115.835 50.1164 115.485 50.5437C115.152 50.9613 114.785 51.3984 114.438 51.87C114.063 52.3342 113.662 52.791 113.27 53.265C112.888 53.7562 112.469 54.2227 112.061 54.7065C111.652 55.1903 111.27 55.6816 110.841 56.1309C110.422 56.5974 110.031 57.0714 109.646 57.5184C108.878 58.4123 108.131 59.225 107.533 59.9765C106.269 61.4033 105.49 62.4398 105.49 62.4398C105.49 62.4398 105.766 62.2829 106.209 61.9394C106.662 61.6131 107.312 61.152 108.078 60.5336C108.452 60.2293 108.851 59.8882 109.257 59.52C109.664 59.1518 110.114 58.7813 110.526 58.3417C110.947 57.9195 111.402 57.4776 111.831 57.0283C112.277 56.5691 112.676 56.0681 113.112 55.5918C113.521 55.108 113.937 54.5971 114.309 54.0887C114.691 53.5974 115.054 53.0717 115.391 52.5829C115.719 52.0768 116.03 51.5805 116.306 51.1038C116.619 50.6518 116.841 50.1602 117.048 49.7228C117.265 49.3026 117.465 48.8921 117.623 48.5284C117.78 48.1646 117.896 47.8475 117.998 47.5845C118.2 47.0585 118.299 46.7512 118.299 46.7512Z" fill="white"/>
<path d="M116.297 43.0763C116.297 43.0763 116.098 43.3268 115.767 43.7886C115.602 44.0195 115.395 44.2971 115.191 44.6189C114.959 44.9334 114.693 45.2674 114.402 45.6382C114.112 46.0091 113.823 46.4243 113.464 46.8344C113.131 47.2519 112.764 47.689 112.399 48.1705C112.025 48.6347 111.614 49.0742 111.232 49.5654C110.85 50.0566 110.431 50.5232 110.012 50.9897C109.603 51.4735 109.221 51.9648 108.793 52.4141C108.364 52.8634 107.973 53.3374 107.588 53.7843C106.869 54.6045 106.182 55.3608 105.632 56.0387C104.519 57.2886 103.814 58.2146 103.765 58.2883C103.556 58.5215 103.637 58.5438 104.031 58.274C104.415 57.987 105.143 57.5038 106.02 56.7996C106.394 56.4953 106.793 56.1541 107.199 55.786C107.606 55.4178 108.056 55.0472 108.477 54.6249C108.899 54.2027 109.364 53.778 109.783 53.3115C110.229 52.8524 110.637 52.3686 111.073 51.8922C111.482 51.4084 111.909 50.9148 112.281 50.4064C112.68 49.9053 113.035 49.4066 113.389 48.908C113.717 48.4019 114.028 47.9056 114.331 47.4363C114.644 46.9843 114.866 46.4928 115.1 46.0628C115.335 45.6327 115.517 45.2321 115.685 44.8856C115.843 44.5218 115.959 44.2047 116.06 43.9417C116.262 43.4157 116.361 43.1084 116.361 43.1084L116.297 43.0763Z" fill="white"/>
<path d="M114.303 39.373C114.303 39.373 114.104 39.6235 113.764 40.0681C113.598 40.299 113.391 40.5766 113.16 40.891C112.928 41.2054 112.645 41.5492 112.371 41.9103C112.081 42.2812 111.792 42.6963 111.433 43.1064C111.083 43.5338 110.716 43.9709 110.359 44.4253C109.984 44.8895 109.573 45.329 109.181 45.803C108.799 46.2942 108.371 46.7435 107.962 47.2273C107.543 47.6939 107.161 48.1851 106.715 48.6442C106.287 49.0936 105.895 49.5675 105.511 50.0145C104.858 50.7512 104.23 51.451 103.712 52.065C102.749 53.138 102.111 53.9805 102.01 54.0837C101.564 54.5428 101.488 54.7689 101.796 54.5482C102.103 54.3274 102.891 53.7878 103.905 53.0051C104.28 52.7008 104.679 52.3596 105.095 52.0087C105.501 51.6405 105.952 51.27 106.373 50.8477C106.794 50.4254 107.259 50.0008 107.678 49.5342C108.124 49.0751 108.533 48.5913 108.969 48.1149C109.378 47.6311 109.804 47.1375 110.186 46.6463C110.585 46.1453 110.94 45.6466 111.295 45.1479C111.632 44.6591 111.933 44.1455 112.236 43.6763C112.549 43.2243 112.771 42.7327 113.005 42.3027C113.24 41.8727 113.449 41.4795 113.59 41.1255C113.748 40.7618 113.864 40.4447 113.965 40.1817C114.167 39.6556 114.266 39.3483 114.266 39.3483L114.303 39.373Z" fill="white"/>
<path d="M112.32 35.6894C112.32 35.6894 112.121 35.9399 111.781 36.3844C111.615 36.6154 111.399 36.8757 111.177 37.2073C110.945 37.5217 110.652 37.8483 110.371 38.2365C110.08 38.6073 109.782 39.0053 109.433 39.4326C109.083 39.8599 108.706 40.2798 108.358 40.7515C107.974 41.1984 107.573 41.6552 107.164 42.139C106.782 42.6302 106.353 43.0795 105.934 43.5461C105.516 44.0126 105.134 44.5038 104.705 44.9532C104.277 45.4025 103.885 45.8765 103.491 46.3062C102.905 46.9594 102.326 47.5855 101.85 48.1528C101.02 49.0589 100.473 49.781 100.323 49.9578C99.6677 50.6502 99.4064 51.0728 99.6378 50.9183C99.8594 50.7466 100.743 50.1752 101.886 49.2968C102.26 48.9925 102.669 48.6686 103.075 48.3004C103.481 47.9322 103.942 47.5789 104.353 47.1394C104.774 46.7171 105.239 46.2925 105.685 45.8334C106.141 45.3915 106.54 44.8904 106.986 44.4313C107.395 43.9475 107.831 43.4711 108.22 42.9529C108.619 42.4518 108.974 41.9532 109.339 41.4717C109.694 40.9731 110.004 40.4768 110.29 40.0173C110.603 39.5653 110.835 39.091 111.069 38.661C111.303 38.2309 111.513 37.8378 111.671 37.474C111.829 37.1103 111.945 36.7931 112.046 36.5301C112.248 36.0041 112.347 35.6968 112.347 35.6968L112.32 35.6894Z" fill="white"/>
<path d="M110.312 31.9971C110.312 31.9971 110.113 32.2476 109.773 32.6922C109.608 32.9231 109.391 33.1834 109.169 33.5151C108.928 33.8123 108.644 34.1561 108.353 34.527C108.063 34.8979 107.765 35.2958 107.405 35.7059C107.045 36.116 106.678 36.5531 106.321 37.0075C105.937 37.4544 105.525 37.894 105.116 38.3778C104.725 38.8518 104.306 39.3183 103.877 39.7676C103.459 40.2342 103.059 40.7352 102.621 41.1673C102.193 41.6166 101.801 42.0906 101.407 42.5203C100.88 43.117 100.367 43.6597 99.9337 44.1803C99.2637 44.9268 98.7808 45.5212 98.5714 45.7545C97.7068 46.6801 97.2608 47.2992 97.4061 47.1937C97.5612 47.1054 98.504 46.4776 99.7744 45.5035C100.149 45.1992 100.557 44.8753 100.964 44.5071C101.37 44.1389 101.83 43.7856 102.252 43.3634C102.673 42.9411 103.138 42.5164 103.567 42.0671C104.022 41.6252 104.431 41.1414 104.867 40.6651C105.276 40.1813 105.712 39.7049 106.111 39.2038C106.51 38.7028 106.865 38.2041 107.23 37.7227C107.585 37.224 107.895 36.7277 108.181 36.2683C108.494 35.8163 108.743 35.3322 108.96 34.9119C109.195 34.4819 109.404 34.0887 109.572 33.7422C109.73 33.3785 109.846 33.0613 109.957 32.8156C110.159 32.2895 110.268 31.9995 110.268 31.9995L110.312 31.9971Z" fill="white"/>
<path d="M108.329 28.3111C108.329 28.3111 108.129 28.5617 107.772 29.016C107.607 29.247 107.39 29.5073 107.159 29.8217C106.917 30.1189 106.634 30.4627 106.343 30.8336C106.052 31.2044 105.737 31.6122 105.395 32.0125C105.035 32.4226 104.668 32.8597 104.311 33.3141C103.926 33.7611 103.515 34.2006 103.106 34.6844C102.714 35.1584 102.269 35.6175 101.85 36.0841C101.431 36.5506 101.022 37.0344 100.594 37.4837C100.165 37.9331 99.7634 38.3898 99.3521 38.8293C98.8914 39.3426 98.4383 39.8287 98.0367 40.2855C97.517 40.8551 97.0908 41.3488 96.8321 41.6558C95.7582 42.8147 95.1275 43.6302 95.1964 43.591C95.2825 43.5419 96.3041 42.8921 97.7026 41.8223C98.0768 41.518 98.4855 41.1941 98.9017 40.8432C99.308 40.475 99.7684 40.1217 100.207 39.6896C100.628 39.2673 101.103 38.8599 101.532 38.4106C101.987 37.9687 102.396 37.4849 102.859 37.016C103.286 36.5224 103.704 36.0558 104.103 35.5547C104.512 35.0709 104.884 34.5625 105.249 34.081C105.604 33.5824 105.915 33.0861 106.228 32.6341C106.541 32.182 106.799 31.7152 107.016 31.2949C107.251 30.8649 107.46 30.4717 107.628 30.1252C107.786 29.7614 107.912 29.4616 108.013 29.1986C108.215 28.6725 108.341 28.3726 108.341 28.3726L108.329 28.3111Z" fill="white"/>
<path d="M106.318 24.6206C106.318 24.6206 106.119 24.8711 105.751 25.3082C105.577 25.5219 105.37 25.7995 105.138 26.1139C104.897 26.4111 104.613 26.7549 104.313 27.1085C104.022 27.4794 103.697 27.8699 103.337 28.28C102.977 28.6901 102.61 29.1273 102.226 29.5742C101.842 30.0212 101.413 30.4705 101.012 30.9272C100.62 31.4012 100.174 31.8604 99.7456 32.3097C99.3268 32.7763 98.9179 33.2601 98.4795 33.6922C98.0509 34.1415 97.6494 34.5982 97.2381 35.0378C96.8439 35.4675 96.4498 35.8972 96.0804 36.29C95.7109 36.6829 95.3587 37.066 95.0409 37.4294C93.7305 38.8142 92.9421 39.8336 92.9421 39.8336C92.9421 39.8336 94.0424 39.1617 95.5689 37.9963C95.9432 37.692 96.3519 37.3681 96.768 37.0171C97.1842 36.6662 97.6446 36.3129 98.083 35.8808C98.5139 35.4757 98.9794 35.0511 99.4252 34.5919C99.8808 34.1501 100.317 33.6737 100.736 33.2071C101.172 32.7308 101.608 32.2544 101.989 31.7631C102.398 31.2793 102.77 30.7709 103.145 30.3067C103.5 29.808 103.82 29.329 104.123 28.8597C104.436 28.4077 104.695 27.9408 104.929 27.5108C105.164 27.0807 105.373 26.6876 105.541 26.341C105.709 25.9945 105.825 25.6774 105.943 25.4046C106.146 24.8785 106.271 24.5787 106.271 24.5787L106.318 24.6206Z" fill="white"/>
<path d="M102.714 8.51393C98.3375 0.825232 73.8155 6.51865 47.9354 21.2474C22.0554 35.9761 4.63845 54.1508 9.01531 61.8394C13.3922 69.5281 37.9141 63.8347 63.7942 49.106C89.6743 34.3772 107.091 16.2026 102.714 8.51393Z" fill="#6BA0FF"/>
</g>
<defs>
<clipPath id="clip0_877_12446">
<rect width="140" height="110" fill="white"/>
</clipPath>
</defs>
</svg>
