<svg height="356" viewBox="0 0 344 356" width="344" xmlns="http://www.w3.org/2000/svg" xmlns:xlink="http://www.w3.org/1999/xlink"><radialGradient id="a" cx="50%" cy="50%" r="50%"><stop offset="0" stop-color="#fff"/><stop offset="1" stop-color="#fff" stop-opacity="0"/></radialGradient><g fill="none"><path d="m189 234 .81 2.19 2.19.81-2.19.81-.81 2.19-.81-2.19-2.19-.81 2.19-.81z" fill="#d9d9d9"/><circle cx="189" cy="237" fill="url(#a)" opacity=".2" r="8"/><path d="m8 215 .81027 2.19 2.18973.81-2.18973.81-.81027 2.19-.81027-2.19-2.18973-.81 2.18973-.81z" fill="#d9d9d9"/><circle cx="8" cy="218" fill="url(#a)" opacity=".2" r="8"/><g fill="#f7ede5" transform="translate(20.000025 42)"><path d="m20.999975 2c1.3333 0 1.3333-2 0-2s-1.3333 2 0 2z"/><path d="m189.999975 16c1.333 0 1.333-2 0-2s-1.333 2 0 2z"/><path d="m.999975 103c1.3333 0 1.3333-2 0-2s-1.3333 2 0 2z"/><path d="m18.999975 121c1.3333 0 1.3333-2 0-2s-1.3333 2 0 2z"/><path d="m83.999975 137c1.333 0 1.333-2 0-2s-1.333 2 0 2z"/><path d="m139.499975 84c3.333 0 3.333-5 0-5s-3.333 5 0 5z" opacity=".3"/></g><path d="m331 5 .81 2.18973 2.19.81027-2.19.81027-.81 2.18973-.81-2.18973-2.19-.81027 2.19-.81027z" fill="#d9d9d9"/><circle cx="331" cy="8" fill="url(#a)" opacity=".2" r="8"/><path d="m245 153 .81 2.19 2.19.81-2.19.81-.81 2.19-.81-2.19-2.19-.81 2.19-.81z" fill="#d9d9d9"/><circle cx="245" cy="156" fill="url(#a)" opacity=".2" r="8"/><path d="m336 164 .81 2.19 2.19.81-2.19.81-.81 2.19-.81-2.19-2.19-.81 2.19-.81z" fill="#d9d9d9"/><circle cx="336" cy="167" fill="url(#a)" opacity=".2" r="8"/><g fill="#f7ede5"><path d="m328 235c1.333 0 1.333-5 0-5s-1.333 5 0 5z" opacity=".6"/><path d="m12 248c1.3333 0 1.3333-5 0-5s-1.3333 5 0 5z" opacity=".4"/><path d="m108.5 356c1.333 0 1.333-2 0-2s-1.333 2 0 2z" opacity=".5"/></g></g></svg>