<svg fill="none" viewBox="0 0 344 356" xmlns="http://www.w3.org/2000/svg" xmlns:xlink="http://www.w3.org/1999/xlink"><filter id="a" color-interpolation-filters="sRGB" filterUnits="userSpaceOnUse" height="14" width="14" x="182" y="234"><feFlood flood-opacity="0" result="BackgroundImageFix"/><feColorMatrix in="SourceAlpha" result="hardAlpha" type="matrix" values="0 0 0 0 0 0 0 0 0 0 0 0 0 0 0 0 0 0 127 0"/><feOffset dy="4"/><feGaussianBlur stdDeviation="2"/><feComposite in2="hardAlpha" operator="out"/><feColorMatrix type="matrix" values="0 0 0 0 0 0 0 0 0 0 0 0 0 0 0 0 0 0 0.25 0"/><feBlend in2="BackgroundImageFix" mode="normal" result="effect1_dropShadow_907_25312"/><feBlend in="SourceGraphic" in2="effect1_dropShadow_907_25312" mode="normal" result="shape"/></filter><filter id="b" color-interpolation-filters="sRGB" filterUnits="userSpaceOnUse" height="14" width="14" x="1" y="215"><feFlood flood-opacity="0" result="BackgroundImageFix"/><feColorMatrix in="SourceAlpha" result="hardAlpha" type="matrix" values="0 0 0 0 0 0 0 0 0 0 0 0 0 0 0 0 0 0 127 0"/><feOffset dy="4"/><feGaussianBlur stdDeviation="2"/><feComposite in2="hardAlpha" operator="out"/><feColorMatrix type="matrix" values="0 0 0 0 0 0 0 0 0 0 0 0 0 0 0 0 0 0 0.25 0"/><feBlend in2="BackgroundImageFix" mode="normal" result="effect1_dropShadow_907_25312"/><feBlend in="SourceGraphic" in2="effect1_dropShadow_907_25312" mode="normal" result="shape"/></filter><filter id="c" color-interpolation-filters="sRGB" filterUnits="userSpaceOnUse" height="14" width="14" x="324" y="5"><feFlood flood-opacity="0" result="BackgroundImageFix"/><feColorMatrix in="SourceAlpha" result="hardAlpha" type="matrix" values="0 0 0 0 0 0 0 0 0 0 0 0 0 0 0 0 0 0 127 0"/><feOffset dy="4"/><feGaussianBlur stdDeviation="2"/><feComposite in2="hardAlpha" operator="out"/><feColorMatrix type="matrix" values="0 0 0 0 0 0 0 0 0 0 0 0 0 0 0 0 0 0 0.25 0"/><feBlend in2="BackgroundImageFix" mode="normal" result="effect1_dropShadow_907_25312"/><feBlend in="SourceGraphic" in2="effect1_dropShadow_907_25312" mode="normal" result="shape"/></filter><filter id="d" color-interpolation-filters="sRGB" filterUnits="userSpaceOnUse" height="14" width="14" x="238" y="153"><feFlood flood-opacity="0" result="BackgroundImageFix"/><feColorMatrix in="SourceAlpha" result="hardAlpha" type="matrix" values="0 0 0 0 0 0 0 0 0 0 0 0 0 0 0 0 0 0 127 0"/><feOffset dy="4"/><feGaussianBlur stdDeviation="2"/><feComposite in2="hardAlpha" operator="out"/><feColorMatrix type="matrix" values="0 0 0 0 0 0 0 0 0 0 0 0 0 0 0 0 0 0 0.25 0"/><feBlend in2="BackgroundImageFix" mode="normal" result="effect1_dropShadow_907_25312"/><feBlend in="SourceGraphic" in2="effect1_dropShadow_907_25312" mode="normal" result="shape"/></filter><filter id="e" color-interpolation-filters="sRGB" filterUnits="userSpaceOnUse" height="14" width="14" x="329" y="164"><feFlood flood-opacity="0" result="BackgroundImageFix"/><feColorMatrix in="SourceAlpha" result="hardAlpha" type="matrix" values="0 0 0 0 0 0 0 0 0 0 0 0 0 0 0 0 0 0 127 0"/><feOffset dy="4"/><feGaussianBlur stdDeviation="2"/><feComposite in2="hardAlpha" operator="out"/><feColorMatrix type="matrix" values="0 0 0 0 0 0 0 0 0 0 0 0 0 0 0 0 0 0 0.25 0"/><feBlend in2="BackgroundImageFix" mode="normal" result="effect1_dropShadow_907_25312"/><feBlend in="SourceGraphic" in2="effect1_dropShadow_907_25312" mode="normal" result="shape"/></filter><linearGradient id="f"><stop offset="0" stop-color="#fff"/><stop offset="1" stop-color="#fff" stop-opacity="0"/></linearGradient><radialGradient id="g" cx="0" cy="0" gradientTransform="matrix(0 8 -8 0 189 237)" gradientUnits="userSpaceOnUse" r="1" xlink:href="#f"/><radialGradient id="h" cx="0" cy="0" gradientTransform="matrix(0 8 -8 0 8 218)" gradientUnits="userSpaceOnUse" r="1" xlink:href="#f"/><radialGradient id="i" cx="0" cy="0" gradientTransform="matrix(0 8 -8 0 331 8)" gradientUnits="userSpaceOnUse" r="1" xlink:href="#f"/><radialGradient id="j" cx="0" cy="0" gradientTransform="matrix(0 8 -8 0 245 156)" gradientUnits="userSpaceOnUse" r="1" xlink:href="#f"/><radialGradient id="k" cx="0" cy="0" gradientTransform="matrix(0 8 -8 0 336 167)" gradientUnits="userSpaceOnUse" r="1" xlink:href="#f"/><g filter="url(#a)"><path d="m189 234 .81 2.19 2.19.81-2.19.81-.81 2.19-.81-2.19-2.19-.81 2.19-.81z" fill="#d9d9d9"/></g><circle cx="189" cy="237" fill="url(#g)" opacity=".2" r="8"/><g filter="url(#b)"><path d="m8 215 .81027 2.19 2.18973.81-2.18973.81-.81027 2.19-.81027-2.19-2.18973-.81 2.18973-.81z" fill="#d9d9d9"/></g><circle cx="8" cy="218" fill="url(#h)" opacity=".2" r="8"/><g fill="#f7ede5"><path d="m41 44c1.3333 0 1.3333-2 0-2s-1.3333 2 0 2z"/><path d="m210 58c1.333 0 1.333-2 0-2s-1.333 2 0 2z"/><path d="m21 145c1.3333 0 1.3333-2 0-2s-1.3333 2 0 2z"/><path d="m39 163c1.3333 0 1.3333-2 0-2s-1.3333 2 0 2z"/><path d="m104 179c1.333 0 1.333-2 0-2s-1.333 2 0 2z"/><path d="m159.5 126c3.333 0 3.333-5 0-5s-3.333 5 0 5z" opacity=".3"/></g><g filter="url(#c)"><path d="m331 5 .81 2.18973 2.19.81027-2.19.81027-.81 2.18973-.81-2.18973-2.19-.81027 2.19-.81027z" fill="#d9d9d9"/></g><circle cx="331" cy="8" fill="url(#i)" opacity=".2" r="8"/><g filter="url(#d)"><path d="m245 153 .81 2.19 2.19.81-2.19.81-.81 2.19-.81-2.19-2.19-.81 2.19-.81z" fill="#d9d9d9"/></g><circle cx="245" cy="156" fill="url(#j)" opacity=".2" r="8"/><g filter="url(#e)"><path d="m336 164 .81 2.19 2.19.81-2.19.81-.81 2.19-.81-2.19-2.19-.81 2.19-.81z" fill="#d9d9d9"/></g><circle cx="336" cy="167" fill="url(#k)" opacity=".2" r="8"/><path d="m328 235c1.333 0 1.333-5 0-5s-1.333 5 0 5z" fill="#f7ede5" opacity=".6"/><path d="m12 248c1.3333 0 1.3333-5 0-5s-1.3333 5 0 5z" fill="#f7ede5" opacity=".4"/><path d="m258.5 344c1.333 0 1.333-2 0-2s-1.333 2 0 2z" fill="#f7ede5"/><path d="m108.5 356c1.333 0 1.333-2 0-2s-1.333 2 0 2z" fill="#f7ede5" opacity=".5"/></svg>